<?xml version="1.0" encoding="utf-8" standalone="no"?>
<!DOCTYPE svg PUBLIC "-//W3C//DTD SVG 1.1//EN"
  "http://www.w3.org/Graphics/SVG/1.1/DTD/svg11.dtd">
<!-- Created with matplotlib (http://matplotlib.org/) -->
<svg height="568.474375pt" version="1.1" viewBox="0 0 569.44125 568.474375" width="569.44125pt" xmlns="http://www.w3.org/2000/svg" xmlns:xlink="http://www.w3.org/1999/xlink">
 <defs>
  <style type="text/css">
*{stroke-linecap:butt;stroke-linejoin:round;}
  </style>
 </defs>
 <g id="figure_1">
  <g id="patch_1">
   <path d="M 0 568.474375 
L 569.44125 568.474375 
L 569.44125 0 
L 0 0 
z
" style="fill:#ffffff;"/>
  </g>
  <g id="axes_1">
   <g id="patch_2">
    <path d="M 43.78125 255.358125 
L 280.685539 255.358125 
L 280.685539 22.318125 
L 43.78125 22.318125 
z
" style="fill:#ffffff;"/>
   </g>
   <g id="matplotlib.axis_1">
    <g id="xtick_1">
     <g id="line2d_1">
      <defs>
       <path d="M 0 0 
L 0 3.5 
" id="m980bb6140e" style="stroke:#000000;stroke-width:0.8;"/>
      </defs>
      <g>
       <use style="stroke:#000000;stroke-width:0.8;" x="54.54721" xlink:href="#m980bb6140e" y="255.358125"/>
      </g>
     </g>
     <g id="text_1">
      <!-- 0.0 -->
      <defs>
       <path d="M 31.78125 66.40625 
Q 24.171875 66.40625 20.328125 58.90625 
Q 16.5 51.421875 16.5 36.375 
Q 16.5 21.390625 20.328125 13.890625 
Q 24.171875 6.390625 31.78125 6.390625 
Q 39.453125 6.390625 43.28125 13.890625 
Q 47.125 21.390625 47.125 36.375 
Q 47.125 51.421875 43.28125 58.90625 
Q 39.453125 66.40625 31.78125 66.40625 
z
M 31.78125 74.21875 
Q 44.046875 74.21875 50.515625 64.515625 
Q 56.984375 54.828125 56.984375 36.375 
Q 56.984375 17.96875 50.515625 8.265625 
Q 44.046875 -1.421875 31.78125 -1.421875 
Q 19.53125 -1.421875 13.0625 8.265625 
Q 6.59375 17.96875 6.59375 36.375 
Q 6.59375 54.828125 13.0625 64.515625 
Q 19.53125 74.21875 31.78125 74.21875 
z
" id="DejaVuSans-30"/>
       <path d="M 10.6875 12.40625 
L 21 12.40625 
L 21 0 
L 10.6875 0 
z
" id="DejaVuSans-2e"/>
      </defs>
      <g transform="translate(46.595648 269.956562)scale(0.1 -0.1)">
       <use xlink:href="#DejaVuSans-30"/>
       <use x="63.623047" xlink:href="#DejaVuSans-2e"/>
       <use x="95.410156" xlink:href="#DejaVuSans-30"/>
      </g>
     </g>
    </g>
    <g id="xtick_2">
     <g id="line2d_2">
      <g>
       <use style="stroke:#000000;stroke-width:0.8;" x="120.531036" xlink:href="#m980bb6140e" y="255.358125"/>
      </g>
     </g>
     <g id="text_2">
      <!-- 0.2 -->
      <defs>
       <path d="M 19.1875 8.296875 
L 53.609375 8.296875 
L 53.609375 0 
L 7.328125 0 
L 7.328125 8.296875 
Q 12.9375 14.109375 22.625 23.890625 
Q 32.328125 33.6875 34.8125 36.53125 
Q 39.546875 41.84375 41.421875 45.53125 
Q 43.3125 49.21875 43.3125 52.78125 
Q 43.3125 58.59375 39.234375 62.25 
Q 35.15625 65.921875 28.609375 65.921875 
Q 23.96875 65.921875 18.8125 64.3125 
Q 13.671875 62.703125 7.8125 59.421875 
L 7.8125 69.390625 
Q 13.765625 71.78125 18.9375 73 
Q 24.125 74.21875 28.421875 74.21875 
Q 39.75 74.21875 46.484375 68.546875 
Q 53.21875 62.890625 53.21875 53.421875 
Q 53.21875 48.921875 51.53125 44.890625 
Q 49.859375 40.875 45.40625 35.40625 
Q 44.1875 33.984375 37.640625 27.21875 
Q 31.109375 20.453125 19.1875 8.296875 
z
" id="DejaVuSans-32"/>
      </defs>
      <g transform="translate(112.579474 269.956562)scale(0.1 -0.1)">
       <use xlink:href="#DejaVuSans-30"/>
       <use x="63.623047" xlink:href="#DejaVuSans-2e"/>
       <use x="95.410156" xlink:href="#DejaVuSans-32"/>
      </g>
     </g>
    </g>
    <g id="xtick_3">
     <g id="line2d_3">
      <g>
       <use style="stroke:#000000;stroke-width:0.8;" x="186.514862" xlink:href="#m980bb6140e" y="255.358125"/>
      </g>
     </g>
     <g id="text_3">
      <!-- 0.4 -->
      <defs>
       <path d="M 37.796875 64.3125 
L 12.890625 25.390625 
L 37.796875 25.390625 
z
M 35.203125 72.90625 
L 47.609375 72.90625 
L 47.609375 25.390625 
L 58.015625 25.390625 
L 58.015625 17.1875 
L 47.609375 17.1875 
L 47.609375 0 
L 37.796875 0 
L 37.796875 17.1875 
L 4.890625 17.1875 
L 4.890625 26.703125 
z
" id="DejaVuSans-34"/>
      </defs>
      <g transform="translate(178.5633 269.956562)scale(0.1 -0.1)">
       <use xlink:href="#DejaVuSans-30"/>
       <use x="63.623047" xlink:href="#DejaVuSans-2e"/>
       <use x="95.410156" xlink:href="#DejaVuSans-34"/>
      </g>
     </g>
    </g>
    <g id="xtick_4">
     <g id="line2d_4">
      <g>
       <use style="stroke:#000000;stroke-width:0.8;" x="252.498688" xlink:href="#m980bb6140e" y="255.358125"/>
      </g>
     </g>
     <g id="text_4">
      <!-- 0.6 -->
      <defs>
       <path d="M 33.015625 40.375 
Q 26.375 40.375 22.484375 35.828125 
Q 18.609375 31.296875 18.609375 23.390625 
Q 18.609375 15.53125 22.484375 10.953125 
Q 26.375 6.390625 33.015625 6.390625 
Q 39.65625 6.390625 43.53125 10.953125 
Q 47.40625 15.53125 47.40625 23.390625 
Q 47.40625 31.296875 43.53125 35.828125 
Q 39.65625 40.375 33.015625 40.375 
z
M 52.59375 71.296875 
L 52.59375 62.3125 
Q 48.875 64.0625 45.09375 64.984375 
Q 41.3125 65.921875 37.59375 65.921875 
Q 27.828125 65.921875 22.671875 59.328125 
Q 17.53125 52.734375 16.796875 39.40625 
Q 19.671875 43.65625 24.015625 45.921875 
Q 28.375 48.1875 33.59375 48.1875 
Q 44.578125 48.1875 50.953125 41.515625 
Q 57.328125 34.859375 57.328125 23.390625 
Q 57.328125 12.15625 50.6875 5.359375 
Q 44.046875 -1.421875 33.015625 -1.421875 
Q 20.359375 -1.421875 13.671875 8.265625 
Q 6.984375 17.96875 6.984375 36.375 
Q 6.984375 53.65625 15.1875 63.9375 
Q 23.390625 74.21875 37.203125 74.21875 
Q 40.921875 74.21875 44.703125 73.484375 
Q 48.484375 72.75 52.59375 71.296875 
z
" id="DejaVuSans-36"/>
      </defs>
      <g transform="translate(244.547126 269.956562)scale(0.1 -0.1)">
       <use xlink:href="#DejaVuSans-30"/>
       <use x="63.623047" xlink:href="#DejaVuSans-2e"/>
       <use x="95.410156" xlink:href="#DejaVuSans-36"/>
      </g>
     </g>
    </g>
   </g>
   <g id="matplotlib.axis_2">
    <g id="ytick_1">
     <g id="line2d_5">
      <defs>
       <path d="M 0 0 
L -3.5 0 
" id="m21f5c05a62" style="stroke:#000000;stroke-width:0.8;"/>
      </defs>
      <g>
       <use style="stroke:#000000;stroke-width:0.8;" x="43.78125" xlink:href="#m21f5c05a62" y="232.511597"/>
      </g>
     </g>
     <g id="text_5">
      <!-- 0.2 -->
      <g transform="translate(20.878125 236.310816)scale(0.1 -0.1)">
       <use xlink:href="#DejaVuSans-30"/>
       <use x="63.623047" xlink:href="#DejaVuSans-2e"/>
       <use x="95.410156" xlink:href="#DejaVuSans-32"/>
      </g>
     </g>
    </g>
    <g id="ytick_2">
     <g id="line2d_6">
      <g>
       <use style="stroke:#000000;stroke-width:0.8;" x="43.78125" xlink:href="#m21f5c05a62" y="182.611411"/>
      </g>
     </g>
     <g id="text_6">
      <!-- 0.4 -->
      <g transform="translate(20.878125 186.41063)scale(0.1 -0.1)">
       <use xlink:href="#DejaVuSans-30"/>
       <use x="63.623047" xlink:href="#DejaVuSans-2e"/>
       <use x="95.410156" xlink:href="#DejaVuSans-34"/>
      </g>
     </g>
    </g>
    <g id="ytick_3">
     <g id="line2d_7">
      <g>
       <use style="stroke:#000000;stroke-width:0.8;" x="43.78125" xlink:href="#m21f5c05a62" y="132.711225"/>
      </g>
     </g>
     <g id="text_7">
      <!-- 0.6 -->
      <g transform="translate(20.878125 136.510443)scale(0.1 -0.1)">
       <use xlink:href="#DejaVuSans-30"/>
       <use x="63.623047" xlink:href="#DejaVuSans-2e"/>
       <use x="95.410156" xlink:href="#DejaVuSans-36"/>
      </g>
     </g>
    </g>
    <g id="ytick_4">
     <g id="line2d_8">
      <g>
       <use style="stroke:#000000;stroke-width:0.8;" x="43.78125" xlink:href="#m21f5c05a62" y="82.811038"/>
      </g>
     </g>
     <g id="text_8">
      <!-- 0.8 -->
      <defs>
       <path d="M 31.78125 34.625 
Q 24.75 34.625 20.71875 30.859375 
Q 16.703125 27.09375 16.703125 20.515625 
Q 16.703125 13.921875 20.71875 10.15625 
Q 24.75 6.390625 31.78125 6.390625 
Q 38.8125 6.390625 42.859375 10.171875 
Q 46.921875 13.96875 46.921875 20.515625 
Q 46.921875 27.09375 42.890625 30.859375 
Q 38.875 34.625 31.78125 34.625 
z
M 21.921875 38.8125 
Q 15.578125 40.375 12.03125 44.71875 
Q 8.5 49.078125 8.5 55.328125 
Q 8.5 64.0625 14.71875 69.140625 
Q 20.953125 74.21875 31.78125 74.21875 
Q 42.671875 74.21875 48.875 69.140625 
Q 55.078125 64.0625 55.078125 55.328125 
Q 55.078125 49.078125 51.53125 44.71875 
Q 48 40.375 41.703125 38.8125 
Q 48.828125 37.15625 52.796875 32.3125 
Q 56.78125 27.484375 56.78125 20.515625 
Q 56.78125 9.90625 50.3125 4.234375 
Q 43.84375 -1.421875 31.78125 -1.421875 
Q 19.734375 -1.421875 13.25 4.234375 
Q 6.78125 9.90625 6.78125 20.515625 
Q 6.78125 27.484375 10.78125 32.3125 
Q 14.796875 37.15625 21.921875 38.8125 
z
M 18.3125 54.390625 
Q 18.3125 48.734375 21.84375 45.5625 
Q 25.390625 42.390625 31.78125 42.390625 
Q 38.140625 42.390625 41.71875 45.5625 
Q 45.3125 48.734375 45.3125 54.390625 
Q 45.3125 60.0625 41.71875 63.234375 
Q 38.140625 66.40625 31.78125 66.40625 
Q 25.390625 66.40625 21.84375 63.234375 
Q 18.3125 60.0625 18.3125 54.390625 
z
" id="DejaVuSans-38"/>
      </defs>
      <g transform="translate(20.878125 86.610257)scale(0.1 -0.1)">
       <use xlink:href="#DejaVuSans-30"/>
       <use x="63.623047" xlink:href="#DejaVuSans-2e"/>
       <use x="95.410156" xlink:href="#DejaVuSans-38"/>
      </g>
     </g>
    </g>
    <g id="ytick_5">
     <g id="line2d_9">
      <g>
       <use style="stroke:#000000;stroke-width:0.8;" x="43.78125" xlink:href="#m21f5c05a62" y="32.910852"/>
      </g>
     </g>
     <g id="text_9">
      <!-- 1.0 -->
      <defs>
       <path d="M 12.40625 8.296875 
L 28.515625 8.296875 
L 28.515625 63.921875 
L 10.984375 60.40625 
L 10.984375 69.390625 
L 28.421875 72.90625 
L 38.28125 72.90625 
L 38.28125 8.296875 
L 54.390625 8.296875 
L 54.390625 0 
L 12.40625 0 
z
" id="DejaVuSans-31"/>
      </defs>
      <g transform="translate(20.878125 36.710071)scale(0.1 -0.1)">
       <use xlink:href="#DejaVuSans-31"/>
       <use x="63.623047" xlink:href="#DejaVuSans-2e"/>
       <use x="95.410156" xlink:href="#DejaVuSans-30"/>
      </g>
     </g>
    </g>
    <g id="text_10">
     <!-- precision -->
     <defs>
      <path d="M 18.109375 8.203125 
L 18.109375 -20.796875 
L 9.078125 -20.796875 
L 9.078125 54.6875 
L 18.109375 54.6875 
L 18.109375 46.390625 
Q 20.953125 51.265625 25.265625 53.625 
Q 29.59375 56 35.59375 56 
Q 45.5625 56 51.78125 48.09375 
Q 58.015625 40.1875 58.015625 27.296875 
Q 58.015625 14.40625 51.78125 6.484375 
Q 45.5625 -1.421875 35.59375 -1.421875 
Q 29.59375 -1.421875 25.265625 0.953125 
Q 20.953125 3.328125 18.109375 8.203125 
z
M 48.6875 27.296875 
Q 48.6875 37.203125 44.609375 42.84375 
Q 40.53125 48.484375 33.40625 48.484375 
Q 26.265625 48.484375 22.1875 42.84375 
Q 18.109375 37.203125 18.109375 27.296875 
Q 18.109375 17.390625 22.1875 11.75 
Q 26.265625 6.109375 33.40625 6.109375 
Q 40.53125 6.109375 44.609375 11.75 
Q 48.6875 17.390625 48.6875 27.296875 
z
" id="DejaVuSans-70"/>
      <path d="M 41.109375 46.296875 
Q 39.59375 47.171875 37.8125 47.578125 
Q 36.03125 48 33.890625 48 
Q 26.265625 48 22.1875 43.046875 
Q 18.109375 38.09375 18.109375 28.8125 
L 18.109375 0 
L 9.078125 0 
L 9.078125 54.6875 
L 18.109375 54.6875 
L 18.109375 46.1875 
Q 20.953125 51.171875 25.484375 53.578125 
Q 30.03125 56 36.53125 56 
Q 37.453125 56 38.578125 55.875 
Q 39.703125 55.765625 41.0625 55.515625 
z
" id="DejaVuSans-72"/>
      <path d="M 56.203125 29.59375 
L 56.203125 25.203125 
L 14.890625 25.203125 
Q 15.484375 15.921875 20.484375 11.0625 
Q 25.484375 6.203125 34.421875 6.203125 
Q 39.59375 6.203125 44.453125 7.46875 
Q 49.3125 8.734375 54.109375 11.28125 
L 54.109375 2.78125 
Q 49.265625 0.734375 44.1875 -0.34375 
Q 39.109375 -1.421875 33.890625 -1.421875 
Q 20.796875 -1.421875 13.15625 6.1875 
Q 5.515625 13.8125 5.515625 26.8125 
Q 5.515625 40.234375 12.765625 48.109375 
Q 20.015625 56 32.328125 56 
Q 43.359375 56 49.78125 48.890625 
Q 56.203125 41.796875 56.203125 29.59375 
z
M 47.21875 32.234375 
Q 47.125 39.59375 43.09375 43.984375 
Q 39.0625 48.390625 32.421875 48.390625 
Q 24.90625 48.390625 20.390625 44.140625 
Q 15.875 39.890625 15.1875 32.171875 
z
" id="DejaVuSans-65"/>
      <path d="M 48.78125 52.59375 
L 48.78125 44.1875 
Q 44.96875 46.296875 41.140625 47.34375 
Q 37.3125 48.390625 33.40625 48.390625 
Q 24.65625 48.390625 19.8125 42.84375 
Q 14.984375 37.3125 14.984375 27.296875 
Q 14.984375 17.28125 19.8125 11.734375 
Q 24.65625 6.203125 33.40625 6.203125 
Q 37.3125 6.203125 41.140625 7.25 
Q 44.96875 8.296875 48.78125 10.40625 
L 48.78125 2.09375 
Q 45.015625 0.34375 40.984375 -0.53125 
Q 36.96875 -1.421875 32.421875 -1.421875 
Q 20.0625 -1.421875 12.78125 6.34375 
Q 5.515625 14.109375 5.515625 27.296875 
Q 5.515625 40.671875 12.859375 48.328125 
Q 20.21875 56 33.015625 56 
Q 37.15625 56 41.109375 55.140625 
Q 45.0625 54.296875 48.78125 52.59375 
z
" id="DejaVuSans-63"/>
      <path d="M 9.421875 54.6875 
L 18.40625 54.6875 
L 18.40625 0 
L 9.421875 0 
z
M 9.421875 75.984375 
L 18.40625 75.984375 
L 18.40625 64.59375 
L 9.421875 64.59375 
z
" id="DejaVuSans-69"/>
      <path d="M 44.28125 53.078125 
L 44.28125 44.578125 
Q 40.484375 46.53125 36.375 47.5 
Q 32.28125 48.484375 27.875 48.484375 
Q 21.1875 48.484375 17.84375 46.4375 
Q 14.5 44.390625 14.5 40.28125 
Q 14.5 37.15625 16.890625 35.375 
Q 19.28125 33.59375 26.515625 31.984375 
L 29.59375 31.296875 
Q 39.15625 29.25 43.1875 25.515625 
Q 47.21875 21.78125 47.21875 15.09375 
Q 47.21875 7.46875 41.1875 3.015625 
Q 35.15625 -1.421875 24.609375 -1.421875 
Q 20.21875 -1.421875 15.453125 -0.5625 
Q 10.6875 0.296875 5.421875 2 
L 5.421875 11.28125 
Q 10.40625 8.6875 15.234375 7.390625 
Q 20.0625 6.109375 24.8125 6.109375 
Q 31.15625 6.109375 34.5625 8.28125 
Q 37.984375 10.453125 37.984375 14.40625 
Q 37.984375 18.0625 35.515625 20.015625 
Q 33.0625 21.96875 24.703125 23.78125 
L 21.578125 24.515625 
Q 13.234375 26.265625 9.515625 29.90625 
Q 5.8125 33.546875 5.8125 39.890625 
Q 5.8125 47.609375 11.28125 51.796875 
Q 16.75 56 26.8125 56 
Q 31.78125 56 36.171875 55.265625 
Q 40.578125 54.546875 44.28125 53.078125 
z
" id="DejaVuSans-73"/>
      <path d="M 30.609375 48.390625 
Q 23.390625 48.390625 19.1875 42.75 
Q 14.984375 37.109375 14.984375 27.296875 
Q 14.984375 17.484375 19.15625 11.84375 
Q 23.34375 6.203125 30.609375 6.203125 
Q 37.796875 6.203125 41.984375 11.859375 
Q 46.1875 17.53125 46.1875 27.296875 
Q 46.1875 37.015625 41.984375 42.703125 
Q 37.796875 48.390625 30.609375 48.390625 
z
M 30.609375 56 
Q 42.328125 56 49.015625 48.375 
Q 55.71875 40.765625 55.71875 27.296875 
Q 55.71875 13.875 49.015625 6.21875 
Q 42.328125 -1.421875 30.609375 -1.421875 
Q 18.84375 -1.421875 12.171875 6.21875 
Q 5.515625 13.875 5.515625 27.296875 
Q 5.515625 40.765625 12.171875 48.375 
Q 18.84375 56 30.609375 56 
z
" id="DejaVuSans-6f"/>
      <path d="M 54.890625 33.015625 
L 54.890625 0 
L 45.90625 0 
L 45.90625 32.71875 
Q 45.90625 40.484375 42.875 44.328125 
Q 39.84375 48.1875 33.796875 48.1875 
Q 26.515625 48.1875 22.3125 43.546875 
Q 18.109375 38.921875 18.109375 30.90625 
L 18.109375 0 
L 9.078125 0 
L 9.078125 54.6875 
L 18.109375 54.6875 
L 18.109375 46.1875 
Q 21.34375 51.125 25.703125 53.5625 
Q 30.078125 56 35.796875 56 
Q 45.21875 56 50.046875 50.171875 
Q 54.890625 44.34375 54.890625 33.015625 
z
" id="DejaVuSans-6e"/>
     </defs>
     <g transform="translate(14.798438 161.502969)rotate(-90)scale(0.1 -0.1)">
      <use xlink:href="#DejaVuSans-70"/>
      <use x="63.476562" xlink:href="#DejaVuSans-72"/>
      <use x="104.558594" xlink:href="#DejaVuSans-65"/>
      <use x="166.082031" xlink:href="#DejaVuSans-63"/>
      <use x="221.0625" xlink:href="#DejaVuSans-69"/>
      <use x="248.845703" xlink:href="#DejaVuSans-73"/>
      <use x="300.945312" xlink:href="#DejaVuSans-69"/>
      <use x="328.728516" xlink:href="#DejaVuSans-6f"/>
      <use x="389.910156" xlink:href="#DejaVuSans-6e"/>
     </g>
    </g>
   </g>
   <g id="line2d_10">
    <path clip-path="url(#p2a6b901199)" d="M 54.55446 32.910852 
L 54.701869 32.910852 
L 54.854112 32.910852 
L 55.006354 32.910852 
L 55.158597 32.910852 
L 55.310839 32.910852 
L 55.463082 32.910852 
L 55.615324 32.910852 
L 55.767567 32.910852 
L 55.919809 32.910852 
L 56.069635 32.910852 
L 56.224294 32.910852 
L 56.376537 32.910852 
L 56.526363 32.910852 
L 56.681022 32.910852 
L 56.830847 32.910852 
L 56.874345 44.285523 
L 56.874345 58.279884 
L 56.874345 70.720685 
L 56.876762 81.644757 
L 56.876762 91.523769 
L 56.876762 100.750985 
L 56.876762 109.00234 
L 56.881595 116.192542 
L 56.881595 123.113767 
L 56.881595 129.481644 
L 56.881595 135.270209 
L 56.881595 140.719897 
L 56.881595 145.857733 
L 56.886428 150.29094 
L 56.886428 154.692639 
L 56.886428 158.747215 
L 56.886428 162.671128 
L 56.888845 166.177936 
L 56.888845 169.594983 
L 56.891261 172.654004 
L 56.891261 175.74986 
L 56.891261 178.631379 
L 56.891261 181.361302 
L 56.891261 183.911212 
L 56.891261 186.373727 
L 56.891261 188.752378 
L 56.898511 190.698747 
L 56.898511 192.830822 
L 56.898511 194.834436 
L 56.900927 196.692592 
L 56.900927 198.584979 
L 56.900927 200.367926 
L 56.900927 202.076608 
L 56.903344 203.634773 
" style="fill:none;stroke:#1f77b4;stroke-linecap:square;stroke-width:1.5;"/>
   </g>
   <g id="line2d_11">
    <path clip-path="url(#p2a6b901199)" d="M 55.629823 32.910852 
L 72.38133 32.910852 
L 90.176785 32.978317 
L 108.003655 32.978318 
L 125.816025 32.978324 
L 143.623563 32.964826 
L 161.426268 32.967074 
L 179.216889 32.973501 
L 197.024427 32.97832 
L 214.802966 32.985817 
L 232.600837 32.995188 
L 250.386626 33.015122 
L 267.336289 33.945368 
L 268.592894 51.5555 
L 268.667807 67.902909 
L 268.706472 82.111165 
L 268.757219 94.528645 
L 268.800717 105.509069 
L 268.839382 115.278826 
L 268.86838 124.020194 
L 268.894962 131.887432 
L 268.933627 138.990956 
L 268.986791 145.449551 
L 269.023039 151.344922 
L 269.047205 156.751192 
L 269.090703 161.729011 
L 269.139034 166.305758 
L 269.184948 170.554734 
L 269.228446 174.504348 
L 269.262278 178.178243 
L 269.300942 181.609948 
L 269.337191 184.821343 
L 269.373439 187.838351 
L 269.392771 190.678644 
L 269.433852 193.342932 
L 269.472517 195.854976 
L 269.511182 198.225589 
L 269.54743 200.467148 
L 269.566763 202.592188 
L 269.593345 204.608874 
L 269.629593 206.525266 
L 269.668258 208.343239 
L 269.699673 210.071429 
L 269.74317 211.723945 
L 269.772169 213.305948 
L 269.796335 214.813345 
L 269.839832 216.249672 
L 269.866414 217.637275 
L 269.885747 218.963548 
L 269.917162 220.233105 
" style="fill:none;stroke:#ff7f0e;stroke-linecap:square;stroke-width:1.5;"/>
   </g>
   <g id="line2d_12">
    <path clip-path="url(#p2a6b901199)" d="M 54.588292 32.910852 
L 55.612908 32.910852 
L 56.678605 32.910852 
L 57.741886 32.910852 
L 58.788251 32.910852 
L 59.844282 32.910852 
L 60.90273 32.910852 
L 61.946678 32.991493 
L 62.152085 57.896235 
L 62.156918 82.723208 
L 62.156918 102.696585 
L 62.164168 118.88371 
L 62.169001 132.419521 
L 62.169001 143.959395 
L 62.171417 153.810124 
L 62.178667 162.253821 
L 62.1835 169.695238 
L 62.19075 176.227748 
L 62.19075 182.128344 
L 62.200416 187.28881 
L 62.200416 192.046035 
L 62.210082 196.24255 
L 62.214915 200.100346 
L 62.217332 203.65561 
L 62.226998 206.843939 
L 62.229414 209.844888 
L 62.231831 212.614935 
L 62.239081 215.137917 
L 62.241497 217.520973 
L 62.241497 219.754222 
L 62.248747 221.786972 
L 62.258413 223.670325 
L 62.260829 225.488869 
L 62.265663 227.166737 
L 62.275329 228.725493 
L 62.282578 230.20454 
L 62.282578 231.655197 
L 62.297078 232.935851 
L 62.301911 234.208518 
L 62.304327 235.43038 
L 62.304327 236.605248 
L 62.30916 237.695245 
L 62.311577 238.746768 
L 62.31641 239.733993 
L 62.32366 240.665742 
L 62.335742 241.518425 
L 62.340575 242.383124 
L 62.350242 243.186988 
L 62.350242 244.004403 
L 62.355075 244.765398 
" style="fill:none;stroke:#2ca02c;stroke-linecap:square;stroke-width:1.5;"/>
   </g>
   <g id="line2d_13">
    <path clip-path="url(#p2a6b901199)" d="M 55.501746 34.167784 
L 58.877663 33.32715 
L 62.425155 33.216239 
L 66.289214 33.167119 
L 70.303099 33.101894 
L 74.174408 33.125516 
L 78.016718 33.090405 
L 81.933942 33.086712 
L 85.834249 33.064782 
L 89.761139 33.04764 
L 93.668696 33.049361 
L 97.590752 33.036757 
L 101.493476 33.026285 
L 105.398617 33.017416 
L 109.320673 33.009782 
L 113.225814 33.003199 
L 117.133371 33.007058 
L 121.055427 33.001389 
L 124.962984 32.996368 
L 128.870541 32.99187 
L 132.790181 32.987816 
L 136.702571 32.984153 
L 140.614962 32.994812 
L 144.517686 32.991164 
L 148.432492 32.987817 
L 152.3328 32.990897 
L 156.240357 32.987819 
L 160.155164 32.990669 
L 164.065137 32.993316 
L 167.967861 33.001088 
L 171.882668 32.99808 
L 175.790225 32.995267 
L 179.702615 32.992629 
L 183.607756 32.990151 
L 187.512896 32.992346 
L 191.427703 32.990017 
L 195.33526 32.99637 
L 199.245234 32.99822 
L 203.155208 33.004022 
L 207.067598 33.00558 
L 210.975155 33.00706 
L 214.882712 33.004713 
L 218.792686 33.009808 
L 222.69541 33.014668 
L 226.60055 33.022804 
L 230.498441 33.037419 
L 234.401165 33.044706 
L 238.28939 33.07461 
L 242.054371 33.253992 
L 242.982325 37.026163 
" style="fill:none;stroke:#d62728;stroke-linecap:square;stroke-width:1.5;"/>
   </g>
   <g id="line2d_14">
    <path clip-path="url(#p2a6b901199)" d="M 269.914745 220.233794 
L 269.914745 220.233794 
L 269.914745 220.233794 
L 269.914745 220.233794 
L 269.914745 220.233794 
L 269.914745 220.233794 
L 269.914745 220.233794 
L 269.914745 220.233794 
L 269.914745 220.233794 
L 269.914745 220.233794 
L 269.914745 220.233794 
L 269.914745 220.233794 
L 269.914745 220.233794 
L 269.914745 220.233794 
L 269.914745 220.233794 
L 269.914745 220.233794 
L 269.914745 220.233794 
L 265.289474 189.589476 
L 258.443395 189.731863 
L 253.081076 189.20643 
L 249.2291 187.88942 
L 246.203583 186.077675 
L 243.774952 183.789778 
L 241.749886 181.117423 
L 240.266126 177.919387 
L 238.531045 174.68012 
L 236.924041 170.962442 
L 235.167211 167.056545 
L 233.246055 162.877558 
L 231.237905 158.356175 
L 228.925269 153.57955 
L 226.426559 148.430711 
L 223.623364 142.906825 
L 220.290945 137.151923 
L 216.813533 130.761057 
L 212.451665 124.352044 
L 207.616154 117.459953 
L 201.838189 110.494449 
L 195.504419 103.007098 
L 188.460183 95.00447 
L 180.202841 87.057783 
L 171.058625 78.703219 
L 160.638473 70.481998 
L 148.971382 62.39518 
L 135.905111 55.018701 
L 121.526654 48.478833 
L 106.036585 42.682194 
L 89.45182 38.695941 
L 72.287084 34.799733 
L 54.549627 32.910852 
" style="fill:none;stroke:#ff7f0e;stroke-dasharray:1.5,2.475;stroke-dashoffset:0;stroke-width:1.5;"/>
   </g>
   <g id="line2d_15">
    <path clip-path="url(#p2a6b901199)" d="M 242.979908 37.029305 
L 241.745053 33.945342 
L 238.763033 33.757733 
L 234.30692 33.398923 
L 230.474276 33.337969 
L 227.057278 33.332501 
L 224.321746 33.325164 
L 220.747672 33.323233 
L 216.356806 33.330712 
L 211.446382 33.320869 
L 211.446382 33.320869 
L 206.040565 33.323638 
L 199.810706 33.320637 
L 199.810706 33.320637 
L 193.25703 33.309679 
L 193.25703 33.309679 
L 186.227293 33.30358 
L 186.227293 33.30358 
L 178.909988 33.283191 
L 178.909988 33.283191 
L 171.416274 33.281352 
L 171.416274 33.281352 
L 163.673657 33.269093 
L 156.247606 33.247984 
L 156.247606 33.247984 
L 149.164706 33.247835 
L 149.164706 33.247835 
L 142.507118 33.218675 
L 142.507118 33.218675 
L 136.013855 33.213654 
L 129.783996 33.198803 
L 129.783996 33.198803 
L 124.064029 33.213844 
L 118.547051 33.192965 
L 113.532715 33.176149 
L 113.532715 33.176149 
L 109.045187 33.186947 
L 104.656737 33.175103 
L 100.683933 33.1848 
L 96.950367 33.180552 
L 90.387024 33.213135 
L 87.636993 33.2019 
L 82.724153 33.252634 
L 78.949506 33.182237 
L 74.225155 33.216726 
L 70.759827 33.207921 
L 66.342378 33.064108 
L 62.478319 33.138707 
L 58.713338 33.199961 
L 54.549627 32.910852 
" style="fill:none;stroke:#d62728;stroke-dasharray:1.5,2.475;stroke-dashoffset:0;stroke-width:1.5;"/>
   </g>
   <g id="line2d_16">
    <defs>
     <path d="M 0 2.5 
C 0.663008 2.5 1.29895 2.236584 1.767767 1.767767 
C 2.236584 1.29895 2.5 0.663008 2.5 0 
C 2.5 -0.663008 2.236584 -1.29895 1.767767 -1.767767 
C 1.29895 -2.236584 0.663008 -2.5 0 -2.5 
C -0.663008 -2.5 -1.29895 -2.236584 -1.767767 -1.767767 
C -2.236584 -1.29895 -2.5 -0.663008 -2.5 0 
C -2.5 0.663008 -2.236584 1.29895 -1.767767 1.767767 
C -1.29895 2.236584 -0.663008 2.5 0 2.5 
z
" id="m3c85cbe437" style="stroke:#ff7f0e;"/>
    </defs>
    <g clip-path="url(#p2a6b901199)">
     <use style="fill:#ff7f0e;stroke:#ff7f0e;" x="190.990308" xlink:href="#m3c85cbe437" y="33.118086"/>
    </g>
   </g>
   <g id="line2d_17">
    <defs>
     <path d="M 0 2.5 
C 0.663008 2.5 1.29895 2.236584 1.767767 1.767767 
C 2.236584 1.29895 2.5 0.663008 2.5 0 
C 2.5 -0.663008 2.236584 -1.29895 1.767767 -1.767767 
C 1.29895 -2.236584 0.663008 -2.5 0 -2.5 
C -0.663008 -2.5 -1.29895 -2.236584 -1.767767 -1.767767 
C -2.236584 -1.29895 -2.5 -0.663008 -2.5 0 
C -2.5 0.663008 -2.236584 1.29895 -1.767767 1.767767 
C -1.29895 2.236584 -0.663008 2.5 0 2.5 
z
" id="mfe3cf11670" style="stroke:#d62728;"/>
    </defs>
    <g clip-path="url(#p2a6b901199)">
     <use style="fill:#d62728;stroke:#d62728;" x="234.64282" xlink:href="#mfe3cf11670" y="33.384706"/>
    </g>
   </g>
   <g id="patch_3">
    <path d="M 43.78125 255.358125 
L 43.78125 22.318125 
" style="fill:none;stroke:#000000;stroke-linecap:square;stroke-linejoin:miter;stroke-width:0.8;"/>
   </g>
   <g id="patch_4">
    <path d="M 43.78125 255.358125 
L 280.685539 255.358125 
" style="fill:none;stroke:#000000;stroke-linecap:square;stroke-linejoin:miter;stroke-width:0.8;"/>
   </g>
   <g id="text_11">
    <!-- 1 - 30 -->
    <defs>
     <path id="DejaVuSans-20"/>
     <path d="M 4.890625 31.390625 
L 31.203125 31.390625 
L 31.203125 23.390625 
L 4.890625 23.390625 
z
" id="DejaVuSans-2d"/>
     <path d="M 40.578125 39.3125 
Q 47.65625 37.796875 51.625 33 
Q 55.609375 28.21875 55.609375 21.1875 
Q 55.609375 10.40625 48.1875 4.484375 
Q 40.765625 -1.421875 27.09375 -1.421875 
Q 22.515625 -1.421875 17.65625 -0.515625 
Q 12.796875 0.390625 7.625 2.203125 
L 7.625 11.71875 
Q 11.71875 9.328125 16.59375 8.109375 
Q 21.484375 6.890625 26.8125 6.890625 
Q 36.078125 6.890625 40.9375 10.546875 
Q 45.796875 14.203125 45.796875 21.1875 
Q 45.796875 27.640625 41.28125 31.265625 
Q 36.765625 34.90625 28.71875 34.90625 
L 20.21875 34.90625 
L 20.21875 43.015625 
L 29.109375 43.015625 
Q 36.375 43.015625 40.234375 45.921875 
Q 44.09375 48.828125 44.09375 54.296875 
Q 44.09375 59.90625 40.109375 62.90625 
Q 36.140625 65.921875 28.71875 65.921875 
Q 24.65625 65.921875 20.015625 65.03125 
Q 15.375 64.15625 9.8125 62.3125 
L 9.8125 71.09375 
Q 15.4375 72.65625 20.34375 73.4375 
Q 25.25 74.21875 29.59375 74.21875 
Q 40.828125 74.21875 47.359375 69.109375 
Q 53.90625 64.015625 53.90625 55.328125 
Q 53.90625 49.265625 50.4375 45.09375 
Q 46.96875 40.921875 40.578125 39.3125 
z
" id="DejaVuSans-33"/>
    </defs>
    <g transform="translate(144.802457 16.318125)scale(0.12 -0.12)">
     <use xlink:href="#DejaVuSans-31"/>
     <use x="63.623047" xlink:href="#DejaVuSans-20"/>
     <use x="95.410156" xlink:href="#DejaVuSans-2d"/>
     <use x="131.494141" xlink:href="#DejaVuSans-20"/>
     <use x="163.28125" xlink:href="#DejaVuSans-33"/>
     <use x="226.904297" xlink:href="#DejaVuSans-30"/>
    </g>
   </g>
   <g id="legend_1">
    <g id="patch_5">
     <path d="M 109.970113 250.358125 
L 214.496676 250.358125 
Q 216.496676 250.358125 216.496676 248.358125 
L 216.496676 117.255 
Q 216.496676 115.255 214.496676 115.255 
L 109.970113 115.255 
Q 107.970113 115.255 107.970113 117.255 
L 107.970113 248.358125 
Q 107.970113 250.358125 109.970113 250.358125 
z
" style="fill:#ffffff;opacity:0.8;stroke:#cccccc;stroke-linejoin:miter;"/>
    </g>
    <g id="line2d_18">
     <path d="M 111.970113 123.353437 
L 131.970113 123.353437 
" style="fill:none;stroke:#1f77b4;stroke-linecap:square;stroke-width:1.5;"/>
    </g>
    <g id="line2d_19"/>
    <g id="text_12">
     <!-- prosic+delly -->
     <defs>
      <path d="M 46 62.703125 
L 46 35.5 
L 73.1875 35.5 
L 73.1875 27.203125 
L 46 27.203125 
L 46 0 
L 37.796875 0 
L 37.796875 27.203125 
L 10.59375 27.203125 
L 10.59375 35.5 
L 37.796875 35.5 
L 37.796875 62.703125 
z
" id="DejaVuSans-2b"/>
      <path d="M 45.40625 46.390625 
L 45.40625 75.984375 
L 54.390625 75.984375 
L 54.390625 0 
L 45.40625 0 
L 45.40625 8.203125 
Q 42.578125 3.328125 38.25 0.953125 
Q 33.9375 -1.421875 27.875 -1.421875 
Q 17.96875 -1.421875 11.734375 6.484375 
Q 5.515625 14.40625 5.515625 27.296875 
Q 5.515625 40.1875 11.734375 48.09375 
Q 17.96875 56 27.875 56 
Q 33.9375 56 38.25 53.625 
Q 42.578125 51.265625 45.40625 46.390625 
z
M 14.796875 27.296875 
Q 14.796875 17.390625 18.875 11.75 
Q 22.953125 6.109375 30.078125 6.109375 
Q 37.203125 6.109375 41.296875 11.75 
Q 45.40625 17.390625 45.40625 27.296875 
Q 45.40625 37.203125 41.296875 42.84375 
Q 37.203125 48.484375 30.078125 48.484375 
Q 22.953125 48.484375 18.875 42.84375 
Q 14.796875 37.203125 14.796875 27.296875 
z
" id="DejaVuSans-64"/>
      <path d="M 9.421875 75.984375 
L 18.40625 75.984375 
L 18.40625 0 
L 9.421875 0 
z
" id="DejaVuSans-6c"/>
      <path d="M 32.171875 -5.078125 
Q 28.375 -14.84375 24.75 -17.8125 
Q 21.140625 -20.796875 15.09375 -20.796875 
L 7.90625 -20.796875 
L 7.90625 -13.28125 
L 13.1875 -13.28125 
Q 16.890625 -13.28125 18.9375 -11.515625 
Q 21 -9.765625 23.484375 -3.21875 
L 25.09375 0.875 
L 2.984375 54.6875 
L 12.5 54.6875 
L 29.59375 11.921875 
L 46.6875 54.6875 
L 56.203125 54.6875 
z
" id="DejaVuSans-79"/>
     </defs>
     <g transform="translate(139.970113 126.853437)scale(0.1 -0.1)">
      <use xlink:href="#DejaVuSans-70"/>
      <use x="63.476562" xlink:href="#DejaVuSans-72"/>
      <use x="104.558594" xlink:href="#DejaVuSans-6f"/>
      <use x="165.740234" xlink:href="#DejaVuSans-73"/>
      <use x="217.839844" xlink:href="#DejaVuSans-69"/>
      <use x="245.623047" xlink:href="#DejaVuSans-63"/>
      <use x="300.603516" xlink:href="#DejaVuSans-2b"/>
      <use x="384.392578" xlink:href="#DejaVuSans-64"/>
      <use x="447.869141" xlink:href="#DejaVuSans-65"/>
      <use x="509.392578" xlink:href="#DejaVuSans-6c"/>
      <use x="537.175781" xlink:href="#DejaVuSans-6c"/>
      <use x="564.958984" xlink:href="#DejaVuSans-79"/>
     </g>
    </g>
    <g id="line2d_20">
     <path d="M 111.970113 138.031563 
L 131.970113 138.031563 
" style="fill:none;stroke:#ff7f0e;stroke-linecap:square;stroke-width:1.5;"/>
    </g>
    <g id="line2d_21"/>
    <g id="text_13">
     <!-- prosic+lancet -->
     <defs>
      <path d="M 34.28125 27.484375 
Q 23.390625 27.484375 19.1875 25 
Q 14.984375 22.515625 14.984375 16.5 
Q 14.984375 11.71875 18.140625 8.90625 
Q 21.296875 6.109375 26.703125 6.109375 
Q 34.1875 6.109375 38.703125 11.40625 
Q 43.21875 16.703125 43.21875 25.484375 
L 43.21875 27.484375 
z
M 52.203125 31.203125 
L 52.203125 0 
L 43.21875 0 
L 43.21875 8.296875 
Q 40.140625 3.328125 35.546875 0.953125 
Q 30.953125 -1.421875 24.3125 -1.421875 
Q 15.921875 -1.421875 10.953125 3.296875 
Q 6 8.015625 6 15.921875 
Q 6 25.140625 12.171875 29.828125 
Q 18.359375 34.515625 30.609375 34.515625 
L 43.21875 34.515625 
L 43.21875 35.40625 
Q 43.21875 41.609375 39.140625 45 
Q 35.0625 48.390625 27.6875 48.390625 
Q 23 48.390625 18.546875 47.265625 
Q 14.109375 46.140625 10.015625 43.890625 
L 10.015625 52.203125 
Q 14.9375 54.109375 19.578125 55.046875 
Q 24.21875 56 28.609375 56 
Q 40.484375 56 46.34375 49.84375 
Q 52.203125 43.703125 52.203125 31.203125 
z
" id="DejaVuSans-61"/>
      <path d="M 18.3125 70.21875 
L 18.3125 54.6875 
L 36.8125 54.6875 
L 36.8125 47.703125 
L 18.3125 47.703125 
L 18.3125 18.015625 
Q 18.3125 11.328125 20.140625 9.421875 
Q 21.96875 7.515625 27.59375 7.515625 
L 36.8125 7.515625 
L 36.8125 0 
L 27.59375 0 
Q 17.1875 0 13.234375 3.875 
Q 9.28125 7.765625 9.28125 18.015625 
L 9.28125 47.703125 
L 2.6875 47.703125 
L 2.6875 54.6875 
L 9.28125 54.6875 
L 9.28125 70.21875 
z
" id="DejaVuSans-74"/>
     </defs>
     <g transform="translate(139.970113 141.531563)scale(0.1 -0.1)">
      <use xlink:href="#DejaVuSans-70"/>
      <use x="63.476562" xlink:href="#DejaVuSans-72"/>
      <use x="104.558594" xlink:href="#DejaVuSans-6f"/>
      <use x="165.740234" xlink:href="#DejaVuSans-73"/>
      <use x="217.839844" xlink:href="#DejaVuSans-69"/>
      <use x="245.623047" xlink:href="#DejaVuSans-63"/>
      <use x="300.603516" xlink:href="#DejaVuSans-2b"/>
      <use x="384.392578" xlink:href="#DejaVuSans-6c"/>
      <use x="412.175781" xlink:href="#DejaVuSans-61"/>
      <use x="473.455078" xlink:href="#DejaVuSans-6e"/>
      <use x="536.833984" xlink:href="#DejaVuSans-63"/>
      <use x="591.814453" xlink:href="#DejaVuSans-65"/>
      <use x="653.337891" xlink:href="#DejaVuSans-74"/>
     </g>
    </g>
    <g id="line2d_22">
     <path d="M 111.970113 152.709687 
L 131.970113 152.709687 
" style="fill:none;stroke:#2ca02c;stroke-linecap:square;stroke-width:1.5;"/>
    </g>
    <g id="line2d_23"/>
    <g id="text_14">
     <!-- prosic+manta -->
     <defs>
      <path d="M 52 44.1875 
Q 55.375 50.25 60.0625 53.125 
Q 64.75 56 71.09375 56 
Q 79.640625 56 84.28125 50.015625 
Q 88.921875 44.046875 88.921875 33.015625 
L 88.921875 0 
L 79.890625 0 
L 79.890625 32.71875 
Q 79.890625 40.578125 77.09375 44.375 
Q 74.3125 48.1875 68.609375 48.1875 
Q 61.625 48.1875 57.5625 43.546875 
Q 53.515625 38.921875 53.515625 30.90625 
L 53.515625 0 
L 44.484375 0 
L 44.484375 32.71875 
Q 44.484375 40.625 41.703125 44.40625 
Q 38.921875 48.1875 33.109375 48.1875 
Q 26.21875 48.1875 22.15625 43.53125 
Q 18.109375 38.875 18.109375 30.90625 
L 18.109375 0 
L 9.078125 0 
L 9.078125 54.6875 
L 18.109375 54.6875 
L 18.109375 46.1875 
Q 21.1875 51.21875 25.484375 53.609375 
Q 29.78125 56 35.6875 56 
Q 41.65625 56 45.828125 52.96875 
Q 50 49.953125 52 44.1875 
z
" id="DejaVuSans-6d"/>
     </defs>
     <g transform="translate(139.970113 156.209687)scale(0.1 -0.1)">
      <use xlink:href="#DejaVuSans-70"/>
      <use x="63.476562" xlink:href="#DejaVuSans-72"/>
      <use x="104.558594" xlink:href="#DejaVuSans-6f"/>
      <use x="165.740234" xlink:href="#DejaVuSans-73"/>
      <use x="217.839844" xlink:href="#DejaVuSans-69"/>
      <use x="245.623047" xlink:href="#DejaVuSans-63"/>
      <use x="300.603516" xlink:href="#DejaVuSans-2b"/>
      <use x="384.392578" xlink:href="#DejaVuSans-6d"/>
      <use x="481.804688" xlink:href="#DejaVuSans-61"/>
      <use x="543.083984" xlink:href="#DejaVuSans-6e"/>
      <use x="606.462891" xlink:href="#DejaVuSans-74"/>
      <use x="645.671875" xlink:href="#DejaVuSans-61"/>
     </g>
    </g>
    <g id="line2d_24">
     <path d="M 111.970113 167.387812 
L 131.970113 167.387812 
" style="fill:none;stroke:#d62728;stroke-linecap:square;stroke-width:1.5;"/>
    </g>
    <g id="line2d_25"/>
    <g id="text_15">
     <!-- prosic+strelka -->
     <defs>
      <path d="M 9.078125 75.984375 
L 18.109375 75.984375 
L 18.109375 31.109375 
L 44.921875 54.6875 
L 56.390625 54.6875 
L 27.390625 29.109375 
L 57.625 0 
L 45.90625 0 
L 18.109375 26.703125 
L 18.109375 0 
L 9.078125 0 
z
" id="DejaVuSans-6b"/>
     </defs>
     <g transform="translate(139.970113 170.887812)scale(0.1 -0.1)">
      <use xlink:href="#DejaVuSans-70"/>
      <use x="63.476562" xlink:href="#DejaVuSans-72"/>
      <use x="104.558594" xlink:href="#DejaVuSans-6f"/>
      <use x="165.740234" xlink:href="#DejaVuSans-73"/>
      <use x="217.839844" xlink:href="#DejaVuSans-69"/>
      <use x="245.623047" xlink:href="#DejaVuSans-63"/>
      <use x="300.603516" xlink:href="#DejaVuSans-2b"/>
      <use x="384.392578" xlink:href="#DejaVuSans-73"/>
      <use x="436.492188" xlink:href="#DejaVuSans-74"/>
      <use x="475.701172" xlink:href="#DejaVuSans-72"/>
      <use x="516.783203" xlink:href="#DejaVuSans-65"/>
      <use x="578.306641" xlink:href="#DejaVuSans-6c"/>
      <use x="606.089844" xlink:href="#DejaVuSans-6b"/>
      <use x="663.984375" xlink:href="#DejaVuSans-61"/>
     </g>
    </g>
    <g id="line2d_26">
     <path d="M 111.970113 182.065938 
L 131.970113 182.065938 
" style="fill:none;stroke:#ff7f0e;stroke-dasharray:1.5,2.475;stroke-dashoffset:0;stroke-width:1.5;"/>
    </g>
    <g id="line2d_27">
     <g>
      <use style="fill:#ff7f0e;stroke:#ff7f0e;" x="121.970113" xlink:href="#m3c85cbe437" y="182.065938"/>
     </g>
    </g>
    <g id="text_16">
     <!-- lancet -->
     <g transform="translate(139.970113 185.565938)scale(0.1 -0.1)">
      <use xlink:href="#DejaVuSans-6c"/>
      <use x="27.783203" xlink:href="#DejaVuSans-61"/>
      <use x="89.0625" xlink:href="#DejaVuSans-6e"/>
      <use x="152.441406" xlink:href="#DejaVuSans-63"/>
      <use x="207.421875" xlink:href="#DejaVuSans-65"/>
      <use x="268.945312" xlink:href="#DejaVuSans-74"/>
     </g>
    </g>
    <g id="line2d_28">
     <path d="M 111.970113 196.744062 
L 131.970113 196.744062 
" style="fill:none;stroke:#2ca02c;stroke-dasharray:1.5,2.475;stroke-dashoffset:0;stroke-width:1.5;"/>
    </g>
    <g id="line2d_29">
     <defs>
      <path d="M 0 2.5 
C 0.663008 2.5 1.29895 2.236584 1.767767 1.767767 
C 2.236584 1.29895 2.5 0.663008 2.5 0 
C 2.5 -0.663008 2.236584 -1.29895 1.767767 -1.767767 
C 1.29895 -2.236584 0.663008 -2.5 0 -2.5 
C -0.663008 -2.5 -1.29895 -2.236584 -1.767767 -1.767767 
C -2.236584 -1.29895 -2.5 -0.663008 -2.5 0 
C -2.5 0.663008 -2.236584 1.29895 -1.767767 1.767767 
C -1.29895 2.236584 -0.663008 2.5 0 2.5 
z
" id="m4eb0e8f0e0" style="stroke:#2ca02c;"/>
     </defs>
     <g>
      <use style="fill:#2ca02c;stroke:#2ca02c;" x="121.970113" xlink:href="#m4eb0e8f0e0" y="196.744062"/>
     </g>
    </g>
    <g id="text_17">
     <!-- manta -->
     <g transform="translate(139.970113 200.244062)scale(0.1 -0.1)">
      <use xlink:href="#DejaVuSans-6d"/>
      <use x="97.412109" xlink:href="#DejaVuSans-61"/>
      <use x="158.691406" xlink:href="#DejaVuSans-6e"/>
      <use x="222.070312" xlink:href="#DejaVuSans-74"/>
      <use x="261.279297" xlink:href="#DejaVuSans-61"/>
     </g>
    </g>
    <g id="line2d_30">
     <path d="M 111.970113 211.422187 
L 131.970113 211.422187 
" style="fill:none;stroke:#d62728;stroke-dasharray:1.5,2.475;stroke-dashoffset:0;stroke-width:1.5;"/>
    </g>
    <g id="line2d_31">
     <g>
      <use style="fill:#d62728;stroke:#d62728;" x="121.970113" xlink:href="#mfe3cf11670" y="211.422187"/>
     </g>
    </g>
    <g id="text_18">
     <!-- strelka -->
     <g transform="translate(139.970113 214.922187)scale(0.1 -0.1)">
      <use xlink:href="#DejaVuSans-73"/>
      <use x="52.099609" xlink:href="#DejaVuSans-74"/>
      <use x="91.308594" xlink:href="#DejaVuSans-72"/>
      <use x="132.390625" xlink:href="#DejaVuSans-65"/>
      <use x="193.914062" xlink:href="#DejaVuSans-6c"/>
      <use x="221.697266" xlink:href="#DejaVuSans-6b"/>
      <use x="279.591797" xlink:href="#DejaVuSans-61"/>
     </g>
    </g>
    <g id="line2d_32">
     <path d="M 111.970113 226.100312 
L 131.970113 226.100312 
" style="fill:none;"/>
    </g>
    <g id="line2d_33">
     <defs>
      <path d="M 0 2.5 
C 0.663008 2.5 1.29895 2.236584 1.767767 1.767767 
C 2.236584 1.29895 2.5 0.663008 2.5 0 
C 2.5 -0.663008 2.236584 -1.29895 1.767767 -1.767767 
C 1.29895 -2.236584 0.663008 -2.5 0 -2.5 
C -0.663008 -2.5 -1.29895 -2.236584 -1.767767 -1.767767 
C -2.236584 -1.29895 -2.5 -0.663008 -2.5 0 
C -2.5 0.663008 -2.236584 1.29895 -1.767767 1.767767 
C -1.29895 2.236584 -0.663008 2.5 0 2.5 
z
" id="m6650ccd26c" style="stroke:#1f77b4;"/>
     </defs>
     <g>
      <use style="fill:#1f77b4;stroke:#1f77b4;" x="121.970113" xlink:href="#m6650ccd26c" y="226.100312"/>
     </g>
    </g>
    <g id="text_19">
     <!-- delly -->
     <g transform="translate(139.970113 229.600312)scale(0.1 -0.1)">
      <use xlink:href="#DejaVuSans-64"/>
      <use x="63.476562" xlink:href="#DejaVuSans-65"/>
      <use x="125" xlink:href="#DejaVuSans-6c"/>
      <use x="152.783203" xlink:href="#DejaVuSans-6c"/>
      <use x="180.566406" xlink:href="#DejaVuSans-79"/>
     </g>
    </g>
    <g id="line2d_34">
     <path d="M 111.970113 240.778437 
L 131.970113 240.778437 
" style="fill:none;"/>
    </g>
    <g id="line2d_35">
     <defs>
      <path d="M 0 2.5 
C 0.663008 2.5 1.29895 2.236584 1.767767 1.767767 
C 2.236584 1.29895 2.5 0.663008 2.5 0 
C 2.5 -0.663008 2.236584 -1.29895 1.767767 -1.767767 
C 1.29895 -2.236584 0.663008 -2.5 0 -2.5 
C -0.663008 -2.5 -1.29895 -2.236584 -1.767767 -1.767767 
C -2.236584 -1.29895 -2.5 -0.663008 -2.5 0 
C -2.5 0.663008 -2.236584 1.29895 -1.767767 1.767767 
C -1.29895 2.236584 -0.663008 2.5 0 2.5 
z
" id="md9d4494551" style="stroke:#9467bd;"/>
     </defs>
     <g>
      <use style="fill:#9467bd;stroke:#9467bd;" x="121.970113" xlink:href="#md9d4494551" y="240.778437"/>
     </g>
    </g>
    <g id="text_20">
     <!-- bpi -->
     <defs>
      <path d="M 48.6875 27.296875 
Q 48.6875 37.203125 44.609375 42.84375 
Q 40.53125 48.484375 33.40625 48.484375 
Q 26.265625 48.484375 22.1875 42.84375 
Q 18.109375 37.203125 18.109375 27.296875 
Q 18.109375 17.390625 22.1875 11.75 
Q 26.265625 6.109375 33.40625 6.109375 
Q 40.53125 6.109375 44.609375 11.75 
Q 48.6875 17.390625 48.6875 27.296875 
z
M 18.109375 46.390625 
Q 20.953125 51.265625 25.265625 53.625 
Q 29.59375 56 35.59375 56 
Q 45.5625 56 51.78125 48.09375 
Q 58.015625 40.1875 58.015625 27.296875 
Q 58.015625 14.40625 51.78125 6.484375 
Q 45.5625 -1.421875 35.59375 -1.421875 
Q 29.59375 -1.421875 25.265625 0.953125 
Q 20.953125 3.328125 18.109375 8.203125 
L 18.109375 0 
L 9.078125 0 
L 9.078125 75.984375 
L 18.109375 75.984375 
z
" id="DejaVuSans-62"/>
     </defs>
     <g transform="translate(139.970113 244.278437)scale(0.1 -0.1)">
      <use xlink:href="#DejaVuSans-62"/>
      <use x="63.476562" xlink:href="#DejaVuSans-70"/>
      <use x="126.953125" xlink:href="#DejaVuSans-69"/>
     </g>
    </g>
   </g>
  </g>
  <g id="axes_2">
   <g id="patch_6">
    <path d="M 321.836961 255.358125 
L 558.74125 255.358125 
L 558.74125 22.318125 
L 321.836961 22.318125 
z
" style="fill:#ffffff;"/>
   </g>
   <g id="matplotlib.axis_3">
    <g id="xtick_5">
     <g id="line2d_36">
      <g>
       <use style="stroke:#000000;stroke-width:0.8;" x="332.187959" xlink:href="#m980bb6140e" y="255.358125"/>
      </g>
     </g>
     <g id="text_21">
      <!-- 0.0 -->
      <g transform="translate(324.236397 269.956562)scale(0.1 -0.1)">
       <use xlink:href="#DejaVuSans-30"/>
       <use x="63.623047" xlink:href="#DejaVuSans-2e"/>
       <use x="95.410156" xlink:href="#DejaVuSans-30"/>
      </g>
     </g>
    </g>
    <g id="xtick_6">
     <g id="line2d_37">
      <g>
       <use style="stroke:#000000;stroke-width:0.8;" x="380.687392" xlink:href="#m980bb6140e" y="255.358125"/>
      </g>
     </g>
     <g id="text_22">
      <!-- 0.1 -->
      <g transform="translate(372.73583 269.956562)scale(0.1 -0.1)">
       <use xlink:href="#DejaVuSans-30"/>
       <use x="63.623047" xlink:href="#DejaVuSans-2e"/>
       <use x="95.410156" xlink:href="#DejaVuSans-31"/>
      </g>
     </g>
    </g>
    <g id="xtick_7">
     <g id="line2d_38">
      <g>
       <use style="stroke:#000000;stroke-width:0.8;" x="429.186826" xlink:href="#m980bb6140e" y="255.358125"/>
      </g>
     </g>
     <g id="text_23">
      <!-- 0.2 -->
      <g transform="translate(421.235263 269.956562)scale(0.1 -0.1)">
       <use xlink:href="#DejaVuSans-30"/>
       <use x="63.623047" xlink:href="#DejaVuSans-2e"/>
       <use x="95.410156" xlink:href="#DejaVuSans-32"/>
      </g>
     </g>
    </g>
    <g id="xtick_8">
     <g id="line2d_39">
      <g>
       <use style="stroke:#000000;stroke-width:0.8;" x="477.686259" xlink:href="#m980bb6140e" y="255.358125"/>
      </g>
     </g>
     <g id="text_24">
      <!-- 0.3 -->
      <g transform="translate(469.734697 269.956562)scale(0.1 -0.1)">
       <use xlink:href="#DejaVuSans-30"/>
       <use x="63.623047" xlink:href="#DejaVuSans-2e"/>
       <use x="95.410156" xlink:href="#DejaVuSans-33"/>
      </g>
     </g>
    </g>
    <g id="xtick_9">
     <g id="line2d_40">
      <g>
       <use style="stroke:#000000;stroke-width:0.8;" x="526.185692" xlink:href="#m980bb6140e" y="255.358125"/>
      </g>
     </g>
     <g id="text_25">
      <!-- 0.4 -->
      <g transform="translate(518.23413 269.956562)scale(0.1 -0.1)">
       <use xlink:href="#DejaVuSans-30"/>
       <use x="63.623047" xlink:href="#DejaVuSans-2e"/>
       <use x="95.410156" xlink:href="#DejaVuSans-34"/>
      </g>
     </g>
    </g>
   </g>
   <g id="matplotlib.axis_4">
    <g id="ytick_6">
     <g id="line2d_41">
      <g>
       <use style="stroke:#000000;stroke-width:0.8;" x="321.836961" xlink:href="#m21f5c05a62" y="231.697734"/>
      </g>
     </g>
     <g id="text_26">
      <!-- 0.2 -->
      <g transform="translate(298.933836 235.496953)scale(0.1 -0.1)">
       <use xlink:href="#DejaVuSans-30"/>
       <use x="63.623047" xlink:href="#DejaVuSans-2e"/>
       <use x="95.410156" xlink:href="#DejaVuSans-32"/>
      </g>
     </g>
    </g>
    <g id="ytick_7">
     <g id="line2d_42">
      <g>
       <use style="stroke:#000000;stroke-width:0.8;" x="321.836961" xlink:href="#m21f5c05a62" y="182.001014"/>
      </g>
     </g>
     <g id="text_27">
      <!-- 0.4 -->
      <g transform="translate(298.933836 185.800232)scale(0.1 -0.1)">
       <use xlink:href="#DejaVuSans-30"/>
       <use x="63.623047" xlink:href="#DejaVuSans-2e"/>
       <use x="95.410156" xlink:href="#DejaVuSans-34"/>
      </g>
     </g>
    </g>
    <g id="ytick_8">
     <g id="line2d_43">
      <g>
       <use style="stroke:#000000;stroke-width:0.8;" x="321.836961" xlink:href="#m21f5c05a62" y="132.304293"/>
      </g>
     </g>
     <g id="text_28">
      <!-- 0.6 -->
      <g transform="translate(298.933836 136.103512)scale(0.1 -0.1)">
       <use xlink:href="#DejaVuSans-30"/>
       <use x="63.623047" xlink:href="#DejaVuSans-2e"/>
       <use x="95.410156" xlink:href="#DejaVuSans-36"/>
      </g>
     </g>
    </g>
    <g id="ytick_9">
     <g id="line2d_44">
      <g>
       <use style="stroke:#000000;stroke-width:0.8;" x="321.836961" xlink:href="#m21f5c05a62" y="82.607573"/>
      </g>
     </g>
     <g id="text_29">
      <!-- 0.8 -->
      <g transform="translate(298.933836 86.406791)scale(0.1 -0.1)">
       <use xlink:href="#DejaVuSans-30"/>
       <use x="63.623047" xlink:href="#DejaVuSans-2e"/>
       <use x="95.410156" xlink:href="#DejaVuSans-38"/>
      </g>
     </g>
    </g>
    <g id="ytick_10">
     <g id="line2d_45">
      <g>
       <use style="stroke:#000000;stroke-width:0.8;" x="321.836961" xlink:href="#m21f5c05a62" y="32.910852"/>
      </g>
     </g>
     <g id="text_30">
      <!-- 1.0 -->
      <g transform="translate(298.933836 36.710071)scale(0.1 -0.1)">
       <use xlink:href="#DejaVuSans-31"/>
       <use x="63.623047" xlink:href="#DejaVuSans-2e"/>
       <use x="95.410156" xlink:href="#DejaVuSans-30"/>
      </g>
     </g>
    </g>
   </g>
   <g id="line2d_46">
    <path clip-path="url(#p6aacca434f)" d="M 333.857475 32.910852 
L 337.613885 32.910852 
L 340.952917 32.910852 
L 345.544085 32.910852 
L 349.717875 32.910852 
L 354.309043 32.910852 
L 358.482833 32.910852 
L 363.074001 32.910852 
L 367.24779 32.910852 
L 371.838959 32.910852 
L 376.012748 32.910852 
L 380.603917 32.910852 
L 384.777706 32.910852 
L 389.368874 32.910852 
L 393.542664 32.910852 
L 398.133832 32.910852 
L 402.307622 32.910852 
L 406.89879 32.910852 
L 411.07258 32.910852 
L 415.663748 32.910852 
L 419.837537 32.910852 
L 424.428706 32.910852 
L 428.602495 32.910852 
L 433.193664 32.910852 
L 437.367453 32.910852 
L 441.958621 32.910852 
L 446.132411 32.910852 
L 450.723579 32.910852 
L 454.897369 32.910852 
L 459.488537 32.910852 
L 463.662327 32.910852 
L 468.253495 32.910852 
L 468.670874 39.566663 
L 468.670874 47.232674 
L 469.088253 53.095795 
L 469.088253 59.919939 
L 469.088253 65.779054 
L 469.088253 71.876147 
L 469.088253 77.127233 
L 469.088253 82.607573 
L 469.088253 87.340594 
L 469.088253 92.293244 
L 469.088253 96.581254 
L 469.088253 101.07892 
L 469.088253 104.981854 
L 469.088253 109.084472 
L 469.088253 112.651967 
L 469.088253 116.409391 
L 469.088253 119.682904 
L 469.088253 123.136937 
" style="fill:none;stroke:#1f77b4;stroke-linecap:square;stroke-width:1.5;"/>
   </g>
   <g id="line2d_47">
    <path clip-path="url(#p6aacca434f)" d="M 333.857475 32.910852 
L 348.465738 45.032004 
L 362.656622 45.181647 
L 376.012748 49.33952 
L 390.621011 52.850894 
L 405.229274 53.822839 
L 419.837537 51.393104 
L 435.697937 50.471531 
L 450.3062 49.066133 
L 465.331842 50.024048 
L 480.774863 48.942052 
L 496.217884 48.580989 
L 512.078284 47.799333 
L 527.521305 48.085423 
L 542.964326 47.863848 
L 546.303357 59.607438 
L 546.303357 73.361671 
L 546.303357 85.509571 
L 546.303357 96.57194 
L 546.303357 106.223247 
L 546.303357 114.916607 
L 546.303357 122.975157 
L 546.303357 130.119206 
L 546.303357 136.646725 
L 546.303357 142.634222 
L 546.720736 148.031728 
L 546.720736 153.121908 
L 547.138115 157.609425 
L 547.138115 162.104718 
L 547.138115 166.186488 
L 547.555494 169.792638 
L 547.555494 173.366756 
L 547.555494 176.800194 
L 547.555494 179.945886 
L 547.972873 182.726513 
L 547.972873 185.525604 
L 547.972873 188.23451 
L 547.972873 190.733771 
L 547.972873 193.102437 
L 547.972873 195.405218 
L 547.972873 197.538946 
L 547.972873 199.569346 
L 547.972873 201.550934 
L 547.972873 203.393832 
L 547.972873 205.153575 
L 547.972873 206.835668 
L 547.972873 208.484487 
L 547.972873 209.893101 
L 547.972873 211.37193 
L 547.972873 212.825562 
" style="fill:none;stroke:#ff7f0e;stroke-linecap:square;stroke-width:1.5;"/>
   </g>
   <g id="line2d_48">
    <path clip-path="url(#p6aacca434f)" d="M 332.605338 32.910852 
L 338.866022 32.910852 
L 345.126706 32.910852 
L 351.80477 32.910852 
L 358.065454 32.910852 
L 363.908759 32.910852 
L 370.586822 32.910852 
L 376.847506 32.910852 
L 377.682264 59.173347 
L 377.682264 84.752755 
L 377.682264 105.051253 
L 377.682264 119.659566 
L 377.682264 133.647448 
L 377.682264 144.728473 
L 377.682264 154.263309 
L 377.682264 163.06893 
L 377.682264 170.283901 
L 377.682264 176.669565 
L 377.682264 182.718656 
L 377.682264 187.787618 
L 377.682264 192.361242 
L 377.682264 196.771556 
L 377.682264 200.52701 
L 377.682264 203.963304 
L 377.682264 207.320752 
L 377.682264 210.214256 
L 377.682264 213.061464 
L 377.682264 215.531331 
L 377.682264 217.976366 
L 377.682264 220.246365 
L 377.682264 222.103356 
L 377.682264 223.971773 
L 377.682264 225.839178 
L 377.682264 227.482825 
L 377.682264 229.03201 
L 377.682264 230.589257 
L 377.682264 231.967337 
L 377.682264 233.27263 
L 377.682264 234.591036 
L 377.682264 235.914927 
L 377.682264 236.877848 
L 377.682264 238.077186 
L 377.682264 239.017406 
L 377.682264 239.980521 
L 378.099643 240.593153 
L 378.099643 241.478854 
L 378.099643 242.326919 
L 378.099643 243.192682 
L 378.099643 243.970194 
L 378.099643 244.765398 
" style="fill:none;stroke:#2ca02c;stroke-linecap:square;stroke-width:1.5;"/>
   </g>
   <g id="line2d_49">
    <path clip-path="url(#p6aacca434f)" d="M 332.605338 32.910852 
L 333.440096 32.910852 
L 334.274854 32.910852 
L 335.109612 32.910852 
L 335.94437 32.910852 
L 337.196506 32.910852 
L 338.031264 32.910852 
L 338.866022 32.910852 
L 339.70078 32.910852 
L 340.952917 32.910852 
L 341.787675 32.910852 
L 342.622433 32.910852 
L 343.457191 32.910852 
L 344.291949 32.910852 
L 345.544085 32.910852 
L 346.378843 32.910852 
L 347.213601 32.910852 
L 348.048359 32.910852 
L 349.300496 32.910852 
L 350.135254 32.910852 
L 350.970012 32.910852 
L 351.80477 32.910852 
L 352.639527 32.910852 
L 353.891664 32.910852 
L 354.726422 32.910852 
L 355.56118 32.910852 
L 356.395938 32.910852 
L 357.648075 32.910852 
L 358.482833 32.910852 
L 359.317591 32.910852 
L 360.152348 32.910852 
L 360.987106 32.910852 
L 362.239243 32.910852 
L 363.074001 32.910852 
L 363.908759 32.910852 
L 364.743517 32.910852 
L 365.995654 32.910852 
L 366.830412 32.910852 
L 367.665169 32.910852 
L 368.499927 32.910852 
L 369.334685 32.910852 
L 370.586822 32.910852 
L 371.42158 32.910852 
L 372.256338 32.910852 
L 373.091096 32.910852 
L 374.343233 32.910852 
L 375.17799 32.910852 
L 376.012748 32.910852 
L 376.847506 32.910852 
L 377.264885 37.428736 
" style="fill:none;stroke:#d62728;stroke-linecap:square;stroke-width:1.5;"/>
   </g>
   <g id="line2d_50">
    <path clip-path="url(#p6aacca434f)" d="M 547.972873 212.825562 
L 547.972873 212.825562 
L 547.972873 212.825562 
L 547.972873 212.825562 
L 547.972873 212.825562 
L 547.972873 212.825562 
L 547.972873 212.825562 
L 547.972873 212.825562 
L 547.972873 212.825562 
L 547.972873 212.825562 
L 547.972873 212.825562 
L 547.972873 212.825562 
L 547.972873 212.825562 
L 547.972873 212.825562 
L 547.972873 212.825562 
L 547.972873 212.825562 
L 547.972873 212.825562 
L 547.972873 212.825562 
L 547.972873 212.825562 
L 547.972873 212.825562 
L 547.972873 212.825562 
L 542.964326 164.938327 
L 537.121021 163.775838 
L 532.112473 162.13181 
L 528.773442 159.617769 
L 526.269168 156.895956 
L 521.678 154.742791 
L 514.999937 153.514943 
L 509.57401 151.431957 
L 505.400221 148.520469 
L 499.974295 145.798964 
L 494.965747 142.777569 
L 489.539821 139.196539 
L 484.531274 136.766228 
L 478.687969 133.536443 
L 474.0968 128.785941 
L 466.1666 127.277717 
L 459.905916 122.75513 
L 453.227853 117.977311 
L 445.297653 113.683438 
L 436.532695 109.577969 
L 427.767737 105.224966 
L 416.498506 104.031601 
L 407.733548 95.545149 
L 395.629559 94.416694 
L 385.195085 86.595581 
L 374.760611 71.928939 
L 360.569727 72.790937 
L 347.63098 57.153155 
L 332.605338 32.910852 
" style="fill:none;stroke:#ff7f0e;stroke-dasharray:1.5,2.475;stroke-dashoffset:0;stroke-width:1.5;"/>
   </g>
   <g id="line2d_51">
    <path clip-path="url(#p6aacca434f)" d="M 377.264885 37.428736 
L 377.264885 32.910852 
L 376.012748 32.910852 
L 375.17799 32.910852 
L 374.760611 32.910852 
L 373.508475 32.910852 
L 372.256338 32.910852 
L 371.42158 32.910852 
L 370.586822 32.910852 
L 369.334685 32.910852 
L 368.499927 32.910852 
L 368.499927 32.910852 
L 366.830412 32.910852 
L 365.995654 32.910852 
L 364.743517 32.910852 
L 363.908759 32.910852 
L 363.074001 32.910852 
L 363.074001 32.910852 
L 361.404485 32.910852 
L 361.404485 32.910852 
L 361.404485 32.910852 
L 358.900212 32.910852 
L 357.648075 32.910852 
L 356.813317 32.910852 
L 355.56118 32.910852 
L 355.56118 32.910852 
L 353.891664 32.910852 
L 353.891664 32.910852 
L 352.222148 32.910852 
L 351.387391 32.910852 
L 350.135254 32.910852 
L 350.135254 32.910852 
L 348.048359 32.910852 
L 347.63098 32.910852 
L 346.796222 32.910852 
L 345.544085 32.910852 
L 344.709327 32.910852 
L 343.457191 32.910852 
L 343.039812 32.910852 
L 342.205054 32.910852 
L 340.952917 32.910852 
L 339.70078 32.910852 
L 338.866022 32.910852 
L 338.448643 32.910852 
L 337.613885 32.910852 
L 336.361749 32.910852 
L 335.109612 32.910852 
L 334.274854 32.910852 
L 333.440096 32.910852 
L 332.605338 32.910852 
" style="fill:none;stroke:#d62728;stroke-dasharray:1.5,2.475;stroke-dashoffset:0;stroke-width:1.5;"/>
   </g>
   <g id="line2d_52">
    <g clip-path="url(#p6aacca434f)">
     <use style="fill:#ff7f0e;stroke:#ff7f0e;" x="412.324716" xlink:href="#m3c85cbe437" y="58.219367"/>
    </g>
   </g>
   <g id="line2d_53">
    <g clip-path="url(#p6aacca434f)">
     <use style="fill:#d62728;stroke:#d62728;" x="377.264885" xlink:href="#mfe3cf11670" y="32.910852"/>
    </g>
   </g>
   <g id="patch_7">
    <path d="M 321.836961 255.358125 
L 321.836961 22.318125 
" style="fill:none;stroke:#000000;stroke-linecap:square;stroke-linejoin:miter;stroke-width:0.8;"/>
   </g>
   <g id="patch_8">
    <path d="M 321.836961 255.358125 
L 558.74125 255.358125 
" style="fill:none;stroke:#000000;stroke-linecap:square;stroke-linejoin:miter;stroke-width:0.8;"/>
   </g>
   <g id="text_31">
    <!-- 30 - 50 -->
    <defs>
     <path d="M 10.796875 72.90625 
L 49.515625 72.90625 
L 49.515625 64.59375 
L 19.828125 64.59375 
L 19.828125 46.734375 
Q 21.96875 47.46875 24.109375 47.828125 
Q 26.265625 48.1875 28.421875 48.1875 
Q 40.625 48.1875 47.75 41.5 
Q 54.890625 34.8125 54.890625 23.390625 
Q 54.890625 11.625 47.5625 5.09375 
Q 40.234375 -1.421875 26.90625 -1.421875 
Q 22.3125 -1.421875 17.546875 -0.640625 
Q 12.796875 0.140625 7.71875 1.703125 
L 7.71875 11.625 
Q 12.109375 9.234375 16.796875 8.0625 
Q 21.484375 6.890625 26.703125 6.890625 
Q 35.15625 6.890625 40.078125 11.328125 
Q 45.015625 15.765625 45.015625 23.390625 
Q 45.015625 31 40.078125 35.4375 
Q 35.15625 39.890625 26.703125 39.890625 
Q 22.75 39.890625 18.8125 39.015625 
Q 14.890625 38.140625 10.796875 36.28125 
z
" id="DejaVuSans-35"/>
    </defs>
    <g transform="translate(419.040668 16.318125)scale(0.12 -0.12)">
     <use xlink:href="#DejaVuSans-33"/>
     <use x="63.623047" xlink:href="#DejaVuSans-30"/>
     <use x="127.246094" xlink:href="#DejaVuSans-20"/>
     <use x="159.033203" xlink:href="#DejaVuSans-2d"/>
     <use x="195.117188" xlink:href="#DejaVuSans-20"/>
     <use x="226.904297" xlink:href="#DejaVuSans-35"/>
     <use x="290.527344" xlink:href="#DejaVuSans-30"/>
    </g>
   </g>
  </g>
  <g id="axes_3">
   <g id="patch_9">
    <path d="M 43.78125 530.918125 
L 280.685539 530.918125 
L 280.685539 297.878125 
L 43.78125 297.878125 
z
" style="fill:#ffffff;"/>
   </g>
   <g id="matplotlib.axis_5">
    <g id="xtick_10">
     <g id="line2d_54">
      <g>
       <use style="stroke:#000000;stroke-width:0.8;" x="51.985728" xlink:href="#m980bb6140e" y="530.918125"/>
      </g>
     </g>
     <g id="text_32">
      <!-- 0.00 -->
      <g transform="translate(40.852915 545.516562)scale(0.1 -0.1)">
       <use xlink:href="#DejaVuSans-30"/>
       <use x="63.623047" xlink:href="#DejaVuSans-2e"/>
       <use x="95.410156" xlink:href="#DejaVuSans-30"/>
       <use x="159.033203" xlink:href="#DejaVuSans-30"/>
      </g>
     </g>
    </g>
    <g id="xtick_11">
     <g id="line2d_55">
      <g>
       <use style="stroke:#000000;stroke-width:0.8;" x="108.135121" xlink:href="#m980bb6140e" y="530.918125"/>
      </g>
     </g>
     <g id="text_33">
      <!-- 0.05 -->
      <g transform="translate(97.002308 545.516562)scale(0.1 -0.1)">
       <use xlink:href="#DejaVuSans-30"/>
       <use x="63.623047" xlink:href="#DejaVuSans-2e"/>
       <use x="95.410156" xlink:href="#DejaVuSans-30"/>
       <use x="159.033203" xlink:href="#DejaVuSans-35"/>
      </g>
     </g>
    </g>
    <g id="xtick_12">
     <g id="line2d_56">
      <g>
       <use style="stroke:#000000;stroke-width:0.8;" x="164.284514" xlink:href="#m980bb6140e" y="530.918125"/>
      </g>
     </g>
     <g id="text_34">
      <!-- 0.10 -->
      <g transform="translate(153.151701 545.516562)scale(0.1 -0.1)">
       <use xlink:href="#DejaVuSans-30"/>
       <use x="63.623047" xlink:href="#DejaVuSans-2e"/>
       <use x="95.410156" xlink:href="#DejaVuSans-31"/>
       <use x="159.033203" xlink:href="#DejaVuSans-30"/>
      </g>
     </g>
    </g>
    <g id="xtick_13">
     <g id="line2d_57">
      <g>
       <use style="stroke:#000000;stroke-width:0.8;" x="220.433907" xlink:href="#m980bb6140e" y="530.918125"/>
      </g>
     </g>
     <g id="text_35">
      <!-- 0.15 -->
      <g transform="translate(209.301094 545.516562)scale(0.1 -0.1)">
       <use xlink:href="#DejaVuSans-30"/>
       <use x="63.623047" xlink:href="#DejaVuSans-2e"/>
       <use x="95.410156" xlink:href="#DejaVuSans-31"/>
       <use x="159.033203" xlink:href="#DejaVuSans-35"/>
      </g>
     </g>
    </g>
    <g id="xtick_14">
     <g id="line2d_58">
      <g>
       <use style="stroke:#000000;stroke-width:0.8;" x="276.5833" xlink:href="#m980bb6140e" y="530.918125"/>
      </g>
     </g>
     <g id="text_36">
      <!-- 0.20 -->
      <g transform="translate(265.450487 545.516562)scale(0.1 -0.1)">
       <use xlink:href="#DejaVuSans-30"/>
       <use x="63.623047" xlink:href="#DejaVuSans-2e"/>
       <use x="95.410156" xlink:href="#DejaVuSans-32"/>
       <use x="159.033203" xlink:href="#DejaVuSans-30"/>
      </g>
     </g>
    </g>
    <g id="text_37">
     <!-- recall -->
     <g transform="translate(148.511519 559.194687)scale(0.1 -0.1)">
      <use xlink:href="#DejaVuSans-72"/>
      <use x="41.082031" xlink:href="#DejaVuSans-65"/>
      <use x="102.605469" xlink:href="#DejaVuSans-63"/>
      <use x="157.585938" xlink:href="#DejaVuSans-61"/>
      <use x="218.865234" xlink:href="#DejaVuSans-6c"/>
      <use x="246.648438" xlink:href="#DejaVuSans-6c"/>
     </g>
    </g>
   </g>
   <g id="matplotlib.axis_6">
    <g id="ytick_11">
     <g id="line2d_59">
      <g>
       <use style="stroke:#000000;stroke-width:0.8;" x="43.78125" xlink:href="#m21f5c05a62" y="498.587279"/>
      </g>
     </g>
     <g id="text_38">
      <!-- 0.2 -->
      <g transform="translate(20.878125 502.386498)scale(0.1 -0.1)">
       <use xlink:href="#DejaVuSans-30"/>
       <use x="63.623047" xlink:href="#DejaVuSans-2e"/>
       <use x="95.410156" xlink:href="#DejaVuSans-32"/>
      </g>
     </g>
    </g>
    <g id="ytick_12">
     <g id="line2d_60">
      <g>
       <use style="stroke:#000000;stroke-width:0.8;" x="43.78125" xlink:href="#m21f5c05a62" y="451.058172"/>
      </g>
     </g>
     <g id="text_39">
      <!-- 0.4 -->
      <g transform="translate(20.878125 454.857391)scale(0.1 -0.1)">
       <use xlink:href="#DejaVuSans-30"/>
       <use x="63.623047" xlink:href="#DejaVuSans-2e"/>
       <use x="95.410156" xlink:href="#DejaVuSans-34"/>
      </g>
     </g>
    </g>
    <g id="ytick_13">
     <g id="line2d_61">
      <g>
       <use style="stroke:#000000;stroke-width:0.8;" x="43.78125" xlink:href="#m21f5c05a62" y="403.529066"/>
      </g>
     </g>
     <g id="text_40">
      <!-- 0.6 -->
      <g transform="translate(20.878125 407.328284)scale(0.1 -0.1)">
       <use xlink:href="#DejaVuSans-30"/>
       <use x="63.623047" xlink:href="#DejaVuSans-2e"/>
       <use x="95.410156" xlink:href="#DejaVuSans-36"/>
      </g>
     </g>
    </g>
    <g id="ytick_14">
     <g id="line2d_62">
      <g>
       <use style="stroke:#000000;stroke-width:0.8;" x="43.78125" xlink:href="#m21f5c05a62" y="355.999959"/>
      </g>
     </g>
     <g id="text_41">
      <!-- 0.8 -->
      <g transform="translate(20.878125 359.799178)scale(0.1 -0.1)">
       <use xlink:href="#DejaVuSans-30"/>
       <use x="63.623047" xlink:href="#DejaVuSans-2e"/>
       <use x="95.410156" xlink:href="#DejaVuSans-38"/>
      </g>
     </g>
    </g>
    <g id="ytick_15">
     <g id="line2d_63">
      <g>
       <use style="stroke:#000000;stroke-width:0.8;" x="43.78125" xlink:href="#m21f5c05a62" y="308.470852"/>
      </g>
     </g>
     <g id="text_42">
      <!-- 1.0 -->
      <g transform="translate(20.878125 312.270071)scale(0.1 -0.1)">
       <use xlink:href="#DejaVuSans-31"/>
       <use x="63.623047" xlink:href="#DejaVuSans-2e"/>
       <use x="95.410156" xlink:href="#DejaVuSans-30"/>
      </g>
     </g>
    </g>
    <g id="text_43">
     <!-- precision -->
     <g transform="translate(14.798438 437.062969)rotate(-90)scale(0.1 -0.1)">
      <use xlink:href="#DejaVuSans-70"/>
      <use x="63.476562" xlink:href="#DejaVuSans-72"/>
      <use x="104.558594" xlink:href="#DejaVuSans-65"/>
      <use x="166.082031" xlink:href="#DejaVuSans-63"/>
      <use x="221.0625" xlink:href="#DejaVuSans-69"/>
      <use x="248.845703" xlink:href="#DejaVuSans-73"/>
      <use x="300.945312" xlink:href="#DejaVuSans-69"/>
      <use x="328.728516" xlink:href="#DejaVuSans-6f"/>
      <use x="389.910156" xlink:href="#DejaVuSans-6e"/>
     </g>
    </g>
   </g>
   <g id="line2d_64">
    <path clip-path="url(#p1a9ea5ae3a)" d="M 54.549627 308.470852 
L 54.549627 308.470852 
L 54.549627 308.470852 
L 57.113526 308.470852 
L 57.113526 308.470852 
L 59.677425 308.470852 
L 59.677425 308.470852 
L 62.241324 308.470852 
L 62.241324 308.470852 
L 62.241324 308.470852 
L 64.805224 308.470852 
L 64.805224 308.470852 
L 67.369123 308.470852 
L 67.369123 308.470852 
L 69.933022 308.470852 
L 69.933022 308.470852 
L 69.933022 308.470852 
L 72.496921 308.470852 
L 72.496921 308.470852 
L 75.060821 308.470852 
L 75.060821 308.470852 
L 75.060821 332.235406 
L 75.060821 332.235406 
L 75.060821 332.235406 
L 75.060821 351.679131 
L 75.060821 351.679131 
L 75.060821 367.882236 
L 75.060821 367.882236 
L 75.060821 381.592555 
L 75.060821 381.592555 
L 75.060821 381.592555 
L 75.060821 393.344257 
L 75.060821 393.344257 
L 75.060821 403.529066 
L 75.060821 403.529066 
L 75.060821 403.529066 
L 75.060821 412.440773 
L 75.060821 412.440773 
L 75.060821 420.304045 
L 75.060821 420.304045 
L 75.060821 427.293619 
L 75.060821 427.293619 
L 75.060821 433.547449 
L 75.060821 433.547449 
L 75.060821 433.547449 
L 75.060821 439.175896 
L 75.060821 439.175896 
L 75.060821 444.2683 
L 75.060821 444.2683 
L 75.060821 448.897758 
" style="fill:none;stroke:#1f77b4;stroke-linecap:square;stroke-width:1.5;"/>
   </g>
   <g id="line2d_65">
    <path clip-path="url(#p1a9ea5ae3a)" d="M 54.549627 308.470852 
L 69.933022 338.176544 
L 85.316417 353.02939 
L 103.263712 339.468096 
L 118.647107 339.134792 
L 131.466604 345.993831 
L 151.977797 339.468096 
L 172.488991 334.875912 
L 190.436286 331.845823 
L 203.255782 339.468096 
L 221.203077 336.613087 
L 239.150371 336.761987 
L 254.533767 337.197235 
L 267.353263 339.676831 
L 267.353263 355.111564 
L 269.917162 364.755321 
L 269.917162 376.64785 
L 269.917162 385.843817 
L 269.917162 395.202799 
L 269.917162 402.538876 
L 269.917162 410.095587 
L 269.917162 416.896627 
L 269.917162 422.313024 
L 269.917162 427.972606 
L 269.917162 432.516598 
L 269.917162 437.299747 
L 269.917162 441.166328 
L 269.917162 445.26194 
L 269.917162 449.0499 
L 269.917162 452.138379 
L 269.917162 455.435853 
L 269.917162 458.136976 
L 269.917162 461.033417 
L 269.917162 463.41574 
L 269.917162 465.980101 
L 269.917162 468.096909 
L 269.917162 470.383194 
L 269.917162 472.539299 
L 269.917162 474.327631 
L 269.917162 476.267868 
L 269.917162 477.88153 
L 269.917162 479.636767 
L 269.917162 481.303968 
L 269.917162 482.695645 
L 269.917162 484.214705 
L 269.917162 485.485414 
L 269.917162 486.875236 
L 269.917162 488.04009 
L 269.917162 489.316492 
L 269.917162 490.537995 
" style="fill:none;stroke:#ff7f0e;stroke-linecap:square;stroke-width:1.5;"/>
   </g>
   <g id="line2d_66">
    <path clip-path="url(#p1a9ea5ae3a)" d="M 54.549627 308.470852 
L 59.677425 308.470852 
L 67.369123 308.470852 
L 72.496921 308.470852 
L 80.188619 308.470852 
L 85.316417 308.470852 
L 85.316417 338.176544 
L 85.316417 379.764512 
L 85.316417 387.68603 
L 85.316417 407.489825 
L 85.316417 427.293619 
L 85.316417 431.390956 
L 85.316417 445.297069 
L 85.316417 451.058172 
L 85.316417 456.196454 
L 85.316417 462.940449 
L 85.316417 466.901208 
L 85.316417 472.18222 
L 85.316417 476.803105 
L 85.316417 480.880357 
L 85.316417 484.504581 
L 85.316417 486.705002 
L 85.316417 488.753671 
L 85.316417 491.574788 
L 85.316417 493.306267 
L 85.316417 495.706727 
L 85.316417 497.189364 
L 85.316417 499.256703 
L 85.316417 501.15642 
L 85.316417 502.339577 
L 85.316417 504.001988 
L 85.316417 505.041849 
L 85.316417 506.508797 
L 85.316417 508.309142 
L 85.316417 509.149303 
L 85.316417 509.952935 
L 85.316417 511.459746 
L 85.316417 511.817031 
L 85.316417 512.846011 
L 85.316417 513.498371 
L 85.316417 514.430315 
L 85.316417 515.310483 
L 85.316417 515.870591 
L 85.316417 516.673576 
L 85.316417 517.185625 
L 85.316417 517.921153 
L 85.316417 518.620208 
L 85.316417 519.067301 
L 85.316417 519.711327 
L 85.316417 520.325398 
" style="fill:none;stroke:#2ca02c;stroke-linecap:square;stroke-width:1.5;"/>
   </g>
   <g id="line2d_67">
    <path clip-path="url(#p1a9ea5ae3a)" d="M 269.917162 490.537995 
L 269.917162 490.537995 
L 269.917162 490.537995 
L 269.917162 490.537995 
L 269.917162 490.537995 
L 269.917162 490.537995 
L 269.917162 490.537995 
L 269.917162 490.537995 
L 269.917162 490.537995 
L 269.917162 490.537995 
L 269.917162 490.537995 
L 269.917162 490.537995 
L 269.917162 490.537995 
L 269.917162 490.537995 
L 269.917162 490.537995 
L 269.917162 490.537995 
L 269.917162 490.537995 
L 269.917162 490.537995 
L 269.917162 490.537995 
L 269.917162 490.537995 
L 269.917162 490.537995 
L 269.917162 490.537995 
L 269.917162 490.537995 
L 262.225464 444.785295 
L 251.969867 446.055109 
L 244.27817 446.879789 
L 236.586472 447.5475 
L 231.458673 445.081458 
L 231.458673 441.316182 
L 226.330875 439.801279 
L 223.766976 435.5452 
L 218.639177 433.364855 
L 213.511379 430.056939 
L 210.94748 425.345705 
L 205.819681 421.039789 
L 200.691883 417.299181 
L 200.691883 406.88971 
L 195.564084 399.872981 
L 190.436286 393.344257 
L 180.180689 389.77064 
L 177.61679 377.353616 
L 164.797294 374.699935 
L 151.977797 374.4835 
L 141.722201 365.299132 
L 136.594402 339.740001 
L 123.774906 331.468807 
L 105.827611 329.135681 
L 87.880317 338.176544 
L 72.496921 308.470852 
L 54.549627 308.470852 
" style="fill:none;stroke:#ff7f0e;stroke-dasharray:1.5,2.475;stroke-dashoffset:0;stroke-width:1.5;"/>
   </g>
   <g id="line2d_68">
    <g clip-path="url(#p1a9ea5ae3a)">
     <use style="fill:#ff7f0e;stroke:#ff7f0e;" x="131.466604" xlink:href="#m3c85cbe437" y="322.873612"/>
    </g>
   </g>
   <g id="patch_10">
    <path d="M 43.78125 530.918125 
L 43.78125 297.878125 
" style="fill:none;stroke:#000000;stroke-linecap:square;stroke-linejoin:miter;stroke-width:0.8;"/>
   </g>
   <g id="patch_11">
    <path d="M 43.78125 530.918125 
L 280.685539 530.918125 
" style="fill:none;stroke:#000000;stroke-linecap:square;stroke-linejoin:miter;stroke-width:0.8;"/>
   </g>
   <g id="text_44">
    <!-- 50 - 70 -->
    <defs>
     <path d="M 8.203125 72.90625 
L 55.078125 72.90625 
L 55.078125 68.703125 
L 28.609375 0 
L 18.3125 0 
L 43.21875 64.59375 
L 8.203125 64.59375 
z
" id="DejaVuSans-37"/>
    </defs>
    <g transform="translate(140.984957 291.878125)scale(0.12 -0.12)">
     <use xlink:href="#DejaVuSans-35"/>
     <use x="63.623047" xlink:href="#DejaVuSans-30"/>
     <use x="127.246094" xlink:href="#DejaVuSans-20"/>
     <use x="159.033203" xlink:href="#DejaVuSans-2d"/>
     <use x="195.117188" xlink:href="#DejaVuSans-20"/>
     <use x="226.904297" xlink:href="#DejaVuSans-37"/>
     <use x="290.527344" xlink:href="#DejaVuSans-30"/>
    </g>
   </g>
  </g>
  <g id="axes_4">
   <g id="patch_12">
    <path d="M 321.836961 530.918125 
L 558.74125 530.918125 
L 558.74125 297.878125 
L 321.836961 297.878125 
z
" style="fill:#ffffff;"/>
   </g>
   <g id="matplotlib.axis_7">
    <g id="xtick_15">
     <g id="line2d_69">
      <g>
       <use style="stroke:#000000;stroke-width:0.8;" x="332.605338" xlink:href="#m980bb6140e" y="530.918125"/>
      </g>
     </g>
     <g id="text_45">
      <!-- 0.00 -->
      <g transform="translate(321.472526 545.516562)scale(0.1 -0.1)">
       <use xlink:href="#DejaVuSans-30"/>
       <use x="63.623047" xlink:href="#DejaVuSans-2e"/>
       <use x="95.410156" xlink:href="#DejaVuSans-30"/>
       <use x="159.033203" xlink:href="#DejaVuSans-30"/>
      </g>
     </g>
    </g>
    <g id="xtick_16">
     <g id="line2d_70">
      <g>
       <use style="stroke:#000000;stroke-width:0.8;" x="390.754573" xlink:href="#m980bb6140e" y="530.918125"/>
      </g>
     </g>
     <g id="text_46">
      <!-- 0.02 -->
      <g transform="translate(379.62176 545.516562)scale(0.1 -0.1)">
       <use xlink:href="#DejaVuSans-30"/>
       <use x="63.623047" xlink:href="#DejaVuSans-2e"/>
       <use x="95.410156" xlink:href="#DejaVuSans-30"/>
       <use x="159.033203" xlink:href="#DejaVuSans-32"/>
      </g>
     </g>
    </g>
    <g id="xtick_17">
     <g id="line2d_71">
      <g>
       <use style="stroke:#000000;stroke-width:0.8;" x="448.903807" xlink:href="#m980bb6140e" y="530.918125"/>
      </g>
     </g>
     <g id="text_47">
      <!-- 0.04 -->
      <g transform="translate(437.770995 545.516562)scale(0.1 -0.1)">
       <use xlink:href="#DejaVuSans-30"/>
       <use x="63.623047" xlink:href="#DejaVuSans-2e"/>
       <use x="95.410156" xlink:href="#DejaVuSans-30"/>
       <use x="159.033203" xlink:href="#DejaVuSans-34"/>
      </g>
     </g>
    </g>
    <g id="xtick_18">
     <g id="line2d_72">
      <g>
       <use style="stroke:#000000;stroke-width:0.8;" x="507.053042" xlink:href="#m980bb6140e" y="530.918125"/>
      </g>
     </g>
     <g id="text_48">
      <!-- 0.06 -->
      <g transform="translate(495.920229 545.516562)scale(0.1 -0.1)">
       <use xlink:href="#DejaVuSans-30"/>
       <use x="63.623047" xlink:href="#DejaVuSans-2e"/>
       <use x="95.410156" xlink:href="#DejaVuSans-30"/>
       <use x="159.033203" xlink:href="#DejaVuSans-36"/>
      </g>
     </g>
    </g>
    <g id="text_49">
     <!-- recall -->
     <g transform="translate(426.567231 559.194687)scale(0.1 -0.1)">
      <use xlink:href="#DejaVuSans-72"/>
      <use x="41.082031" xlink:href="#DejaVuSans-65"/>
      <use x="102.605469" xlink:href="#DejaVuSans-63"/>
      <use x="157.585938" xlink:href="#DejaVuSans-61"/>
      <use x="218.865234" xlink:href="#DejaVuSans-6c"/>
      <use x="246.648438" xlink:href="#DejaVuSans-6c"/>
     </g>
    </g>
   </g>
   <g id="matplotlib.axis_8">
    <g id="ytick_16">
     <g id="line2d_73">
      <g>
       <use style="stroke:#000000;stroke-width:0.8;" x="321.836961" xlink:href="#m21f5c05a62" y="520.325398"/>
      </g>
     </g>
     <g id="text_50">
      <!-- 0.0 -->
      <g transform="translate(298.933836 524.124616)scale(0.1 -0.1)">
       <use xlink:href="#DejaVuSans-30"/>
       <use x="63.623047" xlink:href="#DejaVuSans-2e"/>
       <use x="95.410156" xlink:href="#DejaVuSans-30"/>
      </g>
     </g>
    </g>
    <g id="ytick_17">
     <g id="line2d_74">
      <g>
       <use style="stroke:#000000;stroke-width:0.8;" x="321.836961" xlink:href="#m21f5c05a62" y="477.954489"/>
      </g>
     </g>
     <g id="text_51">
      <!-- 0.2 -->
      <g transform="translate(298.933836 481.753707)scale(0.1 -0.1)">
       <use xlink:href="#DejaVuSans-30"/>
       <use x="63.623047" xlink:href="#DejaVuSans-2e"/>
       <use x="95.410156" xlink:href="#DejaVuSans-32"/>
      </g>
     </g>
    </g>
    <g id="ytick_18">
     <g id="line2d_75">
      <g>
       <use style="stroke:#000000;stroke-width:0.8;" x="321.836961" xlink:href="#m21f5c05a62" y="435.58358"/>
      </g>
     </g>
     <g id="text_52">
      <!-- 0.4 -->
      <g transform="translate(298.933836 439.382798)scale(0.1 -0.1)">
       <use xlink:href="#DejaVuSans-30"/>
       <use x="63.623047" xlink:href="#DejaVuSans-2e"/>
       <use x="95.410156" xlink:href="#DejaVuSans-34"/>
      </g>
     </g>
    </g>
    <g id="ytick_19">
     <g id="line2d_76">
      <g>
       <use style="stroke:#000000;stroke-width:0.8;" x="321.836961" xlink:href="#m21f5c05a62" y="393.21267"/>
      </g>
     </g>
     <g id="text_53">
      <!-- 0.6 -->
      <g transform="translate(298.933836 397.011889)scale(0.1 -0.1)">
       <use xlink:href="#DejaVuSans-30"/>
       <use x="63.623047" xlink:href="#DejaVuSans-2e"/>
       <use x="95.410156" xlink:href="#DejaVuSans-36"/>
      </g>
     </g>
    </g>
    <g id="ytick_20">
     <g id="line2d_77">
      <g>
       <use style="stroke:#000000;stroke-width:0.8;" x="321.836961" xlink:href="#m21f5c05a62" y="350.841761"/>
      </g>
     </g>
     <g id="text_54">
      <!-- 0.8 -->
      <g transform="translate(298.933836 354.64098)scale(0.1 -0.1)">
       <use xlink:href="#DejaVuSans-30"/>
       <use x="63.623047" xlink:href="#DejaVuSans-2e"/>
       <use x="95.410156" xlink:href="#DejaVuSans-38"/>
      </g>
     </g>
    </g>
    <g id="ytick_21">
     <g id="line2d_78">
      <g>
       <use style="stroke:#000000;stroke-width:0.8;" x="321.836961" xlink:href="#m21f5c05a62" y="308.470852"/>
      </g>
     </g>
     <g id="text_55">
      <!-- 1.0 -->
      <g transform="translate(298.933836 312.270071)scale(0.1 -0.1)">
       <use xlink:href="#DejaVuSans-31"/>
       <use x="63.623047" xlink:href="#DejaVuSans-2e"/>
       <use x="95.410156" xlink:href="#DejaVuSans-30"/>
      </g>
     </g>
    </g>
   </g>
   <g id="line2d_79">
    <path clip-path="url(#p9456a00be6)" d="M 342.394772 308.470852 
L 371.763072 308.470852 
L 401.131372 308.470852 
L 430.499672 308.470852 
L 459.867972 308.470852 
L 489.236273 308.470852 
L 518.604573 308.470852 
L 538.18344 318.100604 
L 547.972873 333.893398 
L 547.972873 353.868255 
L 547.972873 369.977011 
L 547.972873 383.243045 
L 547.972873 394.35783 
L 547.972873 403.805398 
L 547.972873 411.9347 
L 547.972873 419.003659 
L 547.972873 425.20703 
L 547.972873 430.694628 
L 547.972873 435.58358 
L 547.972873 439.966777 
L 547.972873 443.91884 
L 547.972873 447.500398 
L 547.972873 450.761219 
L 547.972873 453.742541 
L 547.972873 456.478822 
L 547.972873 459.795528 
L 547.972873 462.065398 
L 547.972873 464.171181 
L 547.972873 466.130049 
L 547.972873 467.956858 
L 547.972873 469.664528 
L 547.972873 471.264345 
L 547.972873 472.766214 
L 547.972873 474.178863 
L 547.972873 475.510013 
L 547.972873 476.766519 
L 547.972873 477.954489 
L 547.972873 479.07938 
L 547.972873 480.146087 
L 547.972873 481.159011 
L 547.972873 482.122119 
L 547.972873 483.038998 
L 547.972873 483.912898 
L 547.972873 484.746772 
L 547.972873 485.543308 
L 547.972873 486.30496 
L 547.972873 487.033969 
L 547.972873 487.732391 
L 547.972873 488.40211 
L 547.972873 489.253398 
" style="fill:none;stroke:#ff7f0e;stroke-linecap:square;stroke-width:1.5;"/>
   </g>
   <g id="line2d_80">
    <path clip-path="url(#p9456a00be6)" d="M 342.394772 308.470852 
L 342.394772 449.707216 
L 342.394772 449.707216 
L 342.394772 467.361761 
L 342.394772 485.016307 
L 342.394772 490.060463 
L 342.394772 493.84358 
L 342.394772 499.139943 
L 342.394772 501.065894 
L 342.394772 502.670852 
L 342.394772 505.19293 
L 342.394772 506.201761 
L 342.394772 507.084489 
L 342.394772 507.863366 
L 342.394772 509.175158 
L 342.394772 510.237086 
L 342.394772 510.237086 
L 342.394772 511.498125 
L 342.394772 511.498125 
L 342.394772 511.851216 
L 342.394772 512.759164 
L 342.394772 512.759164 
L 342.394772 513.020069 
L 342.394772 513.49138 
L 342.394772 513.704943 
L 342.394772 513.905563 
L 342.394772 514.272411 
L 342.394772 514.440549 
L 342.394772 514.750278 
L 342.394772 514.750278 
L 342.394772 515.029034 
L 342.394772 515.158214 
L 342.394772 515.281242 
L 342.394772 515.510522 
L 342.394772 515.617519 
L 342.394772 515.719864 
L 342.394772 515.911761 
L 342.394772 516.001836 
L 342.394772 516.088307 
L 342.394772 516.251272 
L 342.394772 516.328142 
L 342.394772 516.473497 
L 342.394772 516.473497 
L 342.394772 516.608651 
L 342.394772 516.734643 
L 342.394772 516.734643 
L 342.394772 516.908389 
L 342.394772 516.908389 
L 342.394772 516.962627 
L 342.394772 517.066097 
" style="fill:none;stroke:#2ca02c;stroke-linecap:square;stroke-width:1.5;"/>
   </g>
   <g id="line2d_81">
    <path clip-path="url(#p9456a00be6)" d="M 547.972873 489.253398 
L 547.972873 489.253398 
L 547.972873 489.253398 
L 547.972873 489.253398 
L 547.972873 489.253398 
L 547.972873 489.253398 
L 547.972873 489.253398 
L 547.972873 489.253398 
L 547.972873 489.253398 
L 547.972873 489.253398 
L 547.972873 489.253398 
L 547.972873 489.253398 
L 547.972873 489.253398 
L 547.972873 489.253398 
L 547.972873 489.253398 
L 547.972873 489.253398 
L 547.972873 489.253398 
L 547.972873 489.253398 
L 547.972873 489.253398 
L 547.972873 489.253398 
L 547.972873 467.956858 
L 547.972873 466.130049 
L 528.394006 469.27611 
L 528.394006 467.361761 
L 528.394006 465.298243 
L 528.394006 462.283057 
L 508.81514 465.848515 
L 508.81514 463.409251 
L 499.025706 464.051534 
L 479.446839 468.230018 
L 459.867972 472.840758 
L 459.867972 470.250687 
L 459.867972 467.361761 
L 459.867972 464.11909 
L 450.078539 465.058995 
L 450.078539 461.203199 
L 440.289106 462.065398 
L 430.499672 463.067412 
L 430.499672 458.015237 
L 420.710239 458.819239 
L 410.920805 459.795528 
L 410.920805 452.531943 
L 410.920805 443.287381 
L 401.131372 442.273723 
L 401.131372 427.639034 
L 391.341939 422.546377 
L 381.552505 414.398125 
L 371.763072 399.265657 
L 352.184205 414.398125 
L 332.605338 520.325398 
" style="fill:none;stroke:#ff7f0e;stroke-dasharray:1.5,2.475;stroke-dashoffset:0;stroke-width:1.5;"/>
   </g>
   <g id="patch_13">
    <path d="M 321.836961 530.918125 
L 321.836961 297.878125 
" style="fill:none;stroke:#000000;stroke-linecap:square;stroke-linejoin:miter;stroke-width:0.8;"/>
   </g>
   <g id="patch_14">
    <path d="M 321.836961 530.918125 
L 558.74125 530.918125 
" style="fill:none;stroke:#000000;stroke-linecap:square;stroke-linejoin:miter;stroke-width:0.8;"/>
   </g>
   <g id="text_56">
    <!-- 70 - 100 -->
    <g transform="translate(415.223168 291.878125)scale(0.12 -0.12)">
     <use xlink:href="#DejaVuSans-37"/>
     <use x="63.623047" xlink:href="#DejaVuSans-30"/>
     <use x="127.246094" xlink:href="#DejaVuSans-20"/>
     <use x="159.033203" xlink:href="#DejaVuSans-2d"/>
     <use x="195.117188" xlink:href="#DejaVuSans-20"/>
     <use x="226.904297" xlink:href="#DejaVuSans-31"/>
     <use x="290.527344" xlink:href="#DejaVuSans-30"/>
     <use x="354.150391" xlink:href="#DejaVuSans-30"/>
    </g>
   </g>
  </g>
 </g>
 <defs>
  <clipPath id="p2a6b901199">
   <rect height="233.04" width="236.904289" x="43.78125" y="22.318125"/>
  </clipPath>
  <clipPath id="p6aacca434f">
   <rect height="233.04" width="236.904289" x="321.836961" y="22.318125"/>
  </clipPath>
  <clipPath id="p1a9ea5ae3a">
   <rect height="233.04" width="236.904289" x="43.78125" y="297.878125"/>
  </clipPath>
  <clipPath id="p9456a00be6">
   <rect height="233.04" width="236.904289" x="321.836961" y="297.878125"/>
  </clipPath>
 </defs>
</svg>
