<?xml version="1.0" encoding="utf-8" standalone="no"?>
<!DOCTYPE svg PUBLIC "-//W3C//DTD SVG 1.1//EN"
  "http://www.w3.org/Graphics/SVG/1.1/DTD/svg11.dtd">
<!-- Created with matplotlib (https://matplotlib.org/) -->
<svg height="568.474375pt" version="1.1" viewBox="0 0 569.44125 568.474375" width="569.44125pt" xmlns="http://www.w3.org/2000/svg" xmlns:xlink="http://www.w3.org/1999/xlink">
 <defs>
  <style type="text/css">
*{stroke-linecap:butt;stroke-linejoin:round;}
  </style>
 </defs>
 <g id="figure_1">
  <g id="patch_1">
   <path d="M 0 568.474375 
L 569.44125 568.474375 
L 569.44125 0 
L 0 0 
z
" style="fill:#ffffff;"/>
  </g>
  <g id="axes_1">
   <g id="patch_2">
    <path d="M 43.78125 255.358125 
L 280.385035 255.358125 
L 280.385035 22.318125 
L 43.78125 22.318125 
z
" style="fill:#ffffff;"/>
   </g>
   <g id="matplotlib.axis_1">
    <g id="xtick_1">
     <g id="line2d_1">
      <defs>
       <path d="M 0 0 
L 0 3.5 
" id="mb068a71eff" style="stroke:#000000;stroke-width:0.8;"/>
      </defs>
      <g>
       <use style="stroke:#000000;stroke-width:0.8;" x="54.381395" xlink:href="#mb068a71eff" y="255.358125"/>
      </g>
     </g>
     <g id="text_1">
      <!-- 0.0 -->
      <defs>
       <path d="M 31.78125 66.40625 
Q 24.171875 66.40625 20.328125 58.90625 
Q 16.5 51.421875 16.5 36.375 
Q 16.5 21.390625 20.328125 13.890625 
Q 24.171875 6.390625 31.78125 6.390625 
Q 39.453125 6.390625 43.28125 13.890625 
Q 47.125 21.390625 47.125 36.375 
Q 47.125 51.421875 43.28125 58.90625 
Q 39.453125 66.40625 31.78125 66.40625 
z
M 31.78125 74.21875 
Q 44.046875 74.21875 50.515625 64.515625 
Q 56.984375 54.828125 56.984375 36.375 
Q 56.984375 17.96875 50.515625 8.265625 
Q 44.046875 -1.421875 31.78125 -1.421875 
Q 19.53125 -1.421875 13.0625 8.265625 
Q 6.59375 17.96875 6.59375 36.375 
Q 6.59375 54.828125 13.0625 64.515625 
Q 19.53125 74.21875 31.78125 74.21875 
z
" id="DejaVuSans-48"/>
       <path d="M 10.6875 12.40625 
L 21 12.40625 
L 21 0 
L 10.6875 0 
z
" id="DejaVuSans-46"/>
      </defs>
      <g transform="translate(46.429833 269.956562)scale(0.1 -0.1)">
       <use xlink:href="#DejaVuSans-48"/>
       <use x="63.623047" xlink:href="#DejaVuSans-46"/>
       <use x="95.410156" xlink:href="#DejaVuSans-48"/>
      </g>
     </g>
    </g>
    <g id="xtick_2">
     <g id="line2d_2">
      <g>
       <use style="stroke:#000000;stroke-width:0.8;" x="120.328141" xlink:href="#mb068a71eff" y="255.358125"/>
      </g>
     </g>
     <g id="text_2">
      <!-- 0.2 -->
      <defs>
       <path d="M 19.1875 8.296875 
L 53.609375 8.296875 
L 53.609375 0 
L 7.328125 0 
L 7.328125 8.296875 
Q 12.9375 14.109375 22.625 23.890625 
Q 32.328125 33.6875 34.8125 36.53125 
Q 39.546875 41.84375 41.421875 45.53125 
Q 43.3125 49.21875 43.3125 52.78125 
Q 43.3125 58.59375 39.234375 62.25 
Q 35.15625 65.921875 28.609375 65.921875 
Q 23.96875 65.921875 18.8125 64.3125 
Q 13.671875 62.703125 7.8125 59.421875 
L 7.8125 69.390625 
Q 13.765625 71.78125 18.9375 73 
Q 24.125 74.21875 28.421875 74.21875 
Q 39.75 74.21875 46.484375 68.546875 
Q 53.21875 62.890625 53.21875 53.421875 
Q 53.21875 48.921875 51.53125 44.890625 
Q 49.859375 40.875 45.40625 35.40625 
Q 44.1875 33.984375 37.640625 27.21875 
Q 31.109375 20.453125 19.1875 8.296875 
z
" id="DejaVuSans-50"/>
      </defs>
      <g transform="translate(112.376579 269.956562)scale(0.1 -0.1)">
       <use xlink:href="#DejaVuSans-48"/>
       <use x="63.623047" xlink:href="#DejaVuSans-46"/>
       <use x="95.410156" xlink:href="#DejaVuSans-50"/>
      </g>
     </g>
    </g>
    <g id="xtick_3">
     <g id="line2d_3">
      <g>
       <use style="stroke:#000000;stroke-width:0.8;" x="186.274887" xlink:href="#mb068a71eff" y="255.358125"/>
      </g>
     </g>
     <g id="text_3">
      <!-- 0.4 -->
      <defs>
       <path d="M 37.796875 64.3125 
L 12.890625 25.390625 
L 37.796875 25.390625 
z
M 35.203125 72.90625 
L 47.609375 72.90625 
L 47.609375 25.390625 
L 58.015625 25.390625 
L 58.015625 17.1875 
L 47.609375 17.1875 
L 47.609375 0 
L 37.796875 0 
L 37.796875 17.1875 
L 4.890625 17.1875 
L 4.890625 26.703125 
z
" id="DejaVuSans-52"/>
      </defs>
      <g transform="translate(178.323325 269.956562)scale(0.1 -0.1)">
       <use xlink:href="#DejaVuSans-48"/>
       <use x="63.623047" xlink:href="#DejaVuSans-46"/>
       <use x="95.410156" xlink:href="#DejaVuSans-52"/>
      </g>
     </g>
    </g>
    <g id="xtick_4">
     <g id="line2d_4">
      <g>
       <use style="stroke:#000000;stroke-width:0.8;" x="252.221633" xlink:href="#mb068a71eff" y="255.358125"/>
      </g>
     </g>
     <g id="text_4">
      <!-- 0.6 -->
      <defs>
       <path d="M 33.015625 40.375 
Q 26.375 40.375 22.484375 35.828125 
Q 18.609375 31.296875 18.609375 23.390625 
Q 18.609375 15.53125 22.484375 10.953125 
Q 26.375 6.390625 33.015625 6.390625 
Q 39.65625 6.390625 43.53125 10.953125 
Q 47.40625 15.53125 47.40625 23.390625 
Q 47.40625 31.296875 43.53125 35.828125 
Q 39.65625 40.375 33.015625 40.375 
z
M 52.59375 71.296875 
L 52.59375 62.3125 
Q 48.875 64.0625 45.09375 64.984375 
Q 41.3125 65.921875 37.59375 65.921875 
Q 27.828125 65.921875 22.671875 59.328125 
Q 17.53125 52.734375 16.796875 39.40625 
Q 19.671875 43.65625 24.015625 45.921875 
Q 28.375 48.1875 33.59375 48.1875 
Q 44.578125 48.1875 50.953125 41.515625 
Q 57.328125 34.859375 57.328125 23.390625 
Q 57.328125 12.15625 50.6875 5.359375 
Q 44.046875 -1.421875 33.015625 -1.421875 
Q 20.359375 -1.421875 13.671875 8.265625 
Q 6.984375 17.96875 6.984375 36.375 
Q 6.984375 53.65625 15.1875 63.9375 
Q 23.390625 74.21875 37.203125 74.21875 
Q 40.921875 74.21875 44.703125 73.484375 
Q 48.484375 72.75 52.59375 71.296875 
z
" id="DejaVuSans-54"/>
      </defs>
      <g transform="translate(244.27007 269.956562)scale(0.1 -0.1)">
       <use xlink:href="#DejaVuSans-48"/>
       <use x="63.623047" xlink:href="#DejaVuSans-46"/>
       <use x="95.410156" xlink:href="#DejaVuSans-54"/>
      </g>
     </g>
    </g>
   </g>
   <g id="matplotlib.axis_2">
    <g id="ytick_1">
     <g id="line2d_5">
      <defs>
       <path d="M 0 0 
L -3.5 0 
" id="m1b940cba57" style="stroke:#000000;stroke-width:0.8;"/>
      </defs>
      <g>
       <use style="stroke:#000000;stroke-width:0.8;" x="43.78125" xlink:href="#m1b940cba57" y="232.511597"/>
      </g>
     </g>
     <g id="text_5">
      <!-- 0.2 -->
      <g transform="translate(20.878125 236.310816)scale(0.1 -0.1)">
       <use xlink:href="#DejaVuSans-48"/>
       <use x="63.623047" xlink:href="#DejaVuSans-46"/>
       <use x="95.410156" xlink:href="#DejaVuSans-50"/>
      </g>
     </g>
    </g>
    <g id="ytick_2">
     <g id="line2d_6">
      <g>
       <use style="stroke:#000000;stroke-width:0.8;" x="43.78125" xlink:href="#m1b940cba57" y="182.611411"/>
      </g>
     </g>
     <g id="text_6">
      <!-- 0.4 -->
      <g transform="translate(20.878125 186.41063)scale(0.1 -0.1)">
       <use xlink:href="#DejaVuSans-48"/>
       <use x="63.623047" xlink:href="#DejaVuSans-46"/>
       <use x="95.410156" xlink:href="#DejaVuSans-52"/>
      </g>
     </g>
    </g>
    <g id="ytick_3">
     <g id="line2d_7">
      <g>
       <use style="stroke:#000000;stroke-width:0.8;" x="43.78125" xlink:href="#m1b940cba57" y="132.711225"/>
      </g>
     </g>
     <g id="text_7">
      <!-- 0.6 -->
      <g transform="translate(20.878125 136.510443)scale(0.1 -0.1)">
       <use xlink:href="#DejaVuSans-48"/>
       <use x="63.623047" xlink:href="#DejaVuSans-46"/>
       <use x="95.410156" xlink:href="#DejaVuSans-54"/>
      </g>
     </g>
    </g>
    <g id="ytick_4">
     <g id="line2d_8">
      <g>
       <use style="stroke:#000000;stroke-width:0.8;" x="43.78125" xlink:href="#m1b940cba57" y="82.811038"/>
      </g>
     </g>
     <g id="text_8">
      <!-- 0.8 -->
      <defs>
       <path d="M 31.78125 34.625 
Q 24.75 34.625 20.71875 30.859375 
Q 16.703125 27.09375 16.703125 20.515625 
Q 16.703125 13.921875 20.71875 10.15625 
Q 24.75 6.390625 31.78125 6.390625 
Q 38.8125 6.390625 42.859375 10.171875 
Q 46.921875 13.96875 46.921875 20.515625 
Q 46.921875 27.09375 42.890625 30.859375 
Q 38.875 34.625 31.78125 34.625 
z
M 21.921875 38.8125 
Q 15.578125 40.375 12.03125 44.71875 
Q 8.5 49.078125 8.5 55.328125 
Q 8.5 64.0625 14.71875 69.140625 
Q 20.953125 74.21875 31.78125 74.21875 
Q 42.671875 74.21875 48.875 69.140625 
Q 55.078125 64.0625 55.078125 55.328125 
Q 55.078125 49.078125 51.53125 44.71875 
Q 48 40.375 41.703125 38.8125 
Q 48.828125 37.15625 52.796875 32.3125 
Q 56.78125 27.484375 56.78125 20.515625 
Q 56.78125 9.90625 50.3125 4.234375 
Q 43.84375 -1.421875 31.78125 -1.421875 
Q 19.734375 -1.421875 13.25 4.234375 
Q 6.78125 9.90625 6.78125 20.515625 
Q 6.78125 27.484375 10.78125 32.3125 
Q 14.796875 37.15625 21.921875 38.8125 
z
M 18.3125 54.390625 
Q 18.3125 48.734375 21.84375 45.5625 
Q 25.390625 42.390625 31.78125 42.390625 
Q 38.140625 42.390625 41.71875 45.5625 
Q 45.3125 48.734375 45.3125 54.390625 
Q 45.3125 60.0625 41.71875 63.234375 
Q 38.140625 66.40625 31.78125 66.40625 
Q 25.390625 66.40625 21.84375 63.234375 
Q 18.3125 60.0625 18.3125 54.390625 
z
" id="DejaVuSans-56"/>
      </defs>
      <g transform="translate(20.878125 86.610257)scale(0.1 -0.1)">
       <use xlink:href="#DejaVuSans-48"/>
       <use x="63.623047" xlink:href="#DejaVuSans-46"/>
       <use x="95.410156" xlink:href="#DejaVuSans-56"/>
      </g>
     </g>
    </g>
    <g id="ytick_5">
     <g id="line2d_9">
      <g>
       <use style="stroke:#000000;stroke-width:0.8;" x="43.78125" xlink:href="#m1b940cba57" y="32.910852"/>
      </g>
     </g>
     <g id="text_9">
      <!-- 1.0 -->
      <defs>
       <path d="M 12.40625 8.296875 
L 28.515625 8.296875 
L 28.515625 63.921875 
L 10.984375 60.40625 
L 10.984375 69.390625 
L 28.421875 72.90625 
L 38.28125 72.90625 
L 38.28125 8.296875 
L 54.390625 8.296875 
L 54.390625 0 
L 12.40625 0 
z
" id="DejaVuSans-49"/>
      </defs>
      <g transform="translate(20.878125 36.710071)scale(0.1 -0.1)">
       <use xlink:href="#DejaVuSans-49"/>
       <use x="63.623047" xlink:href="#DejaVuSans-46"/>
       <use x="95.410156" xlink:href="#DejaVuSans-48"/>
      </g>
     </g>
    </g>
    <g id="text_10">
     <!-- precision -->
     <defs>
      <path d="M 18.109375 8.203125 
L 18.109375 -20.796875 
L 9.078125 -20.796875 
L 9.078125 54.6875 
L 18.109375 54.6875 
L 18.109375 46.390625 
Q 20.953125 51.265625 25.265625 53.625 
Q 29.59375 56 35.59375 56 
Q 45.5625 56 51.78125 48.09375 
Q 58.015625 40.1875 58.015625 27.296875 
Q 58.015625 14.40625 51.78125 6.484375 
Q 45.5625 -1.421875 35.59375 -1.421875 
Q 29.59375 -1.421875 25.265625 0.953125 
Q 20.953125 3.328125 18.109375 8.203125 
z
M 48.6875 27.296875 
Q 48.6875 37.203125 44.609375 42.84375 
Q 40.53125 48.484375 33.40625 48.484375 
Q 26.265625 48.484375 22.1875 42.84375 
Q 18.109375 37.203125 18.109375 27.296875 
Q 18.109375 17.390625 22.1875 11.75 
Q 26.265625 6.109375 33.40625 6.109375 
Q 40.53125 6.109375 44.609375 11.75 
Q 48.6875 17.390625 48.6875 27.296875 
z
" id="DejaVuSans-112"/>
      <path d="M 41.109375 46.296875 
Q 39.59375 47.171875 37.8125 47.578125 
Q 36.03125 48 33.890625 48 
Q 26.265625 48 22.1875 43.046875 
Q 18.109375 38.09375 18.109375 28.8125 
L 18.109375 0 
L 9.078125 0 
L 9.078125 54.6875 
L 18.109375 54.6875 
L 18.109375 46.1875 
Q 20.953125 51.171875 25.484375 53.578125 
Q 30.03125 56 36.53125 56 
Q 37.453125 56 38.578125 55.875 
Q 39.703125 55.765625 41.0625 55.515625 
z
" id="DejaVuSans-114"/>
      <path d="M 56.203125 29.59375 
L 56.203125 25.203125 
L 14.890625 25.203125 
Q 15.484375 15.921875 20.484375 11.0625 
Q 25.484375 6.203125 34.421875 6.203125 
Q 39.59375 6.203125 44.453125 7.46875 
Q 49.3125 8.734375 54.109375 11.28125 
L 54.109375 2.78125 
Q 49.265625 0.734375 44.1875 -0.34375 
Q 39.109375 -1.421875 33.890625 -1.421875 
Q 20.796875 -1.421875 13.15625 6.1875 
Q 5.515625 13.8125 5.515625 26.8125 
Q 5.515625 40.234375 12.765625 48.109375 
Q 20.015625 56 32.328125 56 
Q 43.359375 56 49.78125 48.890625 
Q 56.203125 41.796875 56.203125 29.59375 
z
M 47.21875 32.234375 
Q 47.125 39.59375 43.09375 43.984375 
Q 39.0625 48.390625 32.421875 48.390625 
Q 24.90625 48.390625 20.390625 44.140625 
Q 15.875 39.890625 15.1875 32.171875 
z
" id="DejaVuSans-101"/>
      <path d="M 48.78125 52.59375 
L 48.78125 44.1875 
Q 44.96875 46.296875 41.140625 47.34375 
Q 37.3125 48.390625 33.40625 48.390625 
Q 24.65625 48.390625 19.8125 42.84375 
Q 14.984375 37.3125 14.984375 27.296875 
Q 14.984375 17.28125 19.8125 11.734375 
Q 24.65625 6.203125 33.40625 6.203125 
Q 37.3125 6.203125 41.140625 7.25 
Q 44.96875 8.296875 48.78125 10.40625 
L 48.78125 2.09375 
Q 45.015625 0.34375 40.984375 -0.53125 
Q 36.96875 -1.421875 32.421875 -1.421875 
Q 20.0625 -1.421875 12.78125 6.34375 
Q 5.515625 14.109375 5.515625 27.296875 
Q 5.515625 40.671875 12.859375 48.328125 
Q 20.21875 56 33.015625 56 
Q 37.15625 56 41.109375 55.140625 
Q 45.0625 54.296875 48.78125 52.59375 
z
" id="DejaVuSans-99"/>
      <path d="M 9.421875 54.6875 
L 18.40625 54.6875 
L 18.40625 0 
L 9.421875 0 
z
M 9.421875 75.984375 
L 18.40625 75.984375 
L 18.40625 64.59375 
L 9.421875 64.59375 
z
" id="DejaVuSans-105"/>
      <path d="M 44.28125 53.078125 
L 44.28125 44.578125 
Q 40.484375 46.53125 36.375 47.5 
Q 32.28125 48.484375 27.875 48.484375 
Q 21.1875 48.484375 17.84375 46.4375 
Q 14.5 44.390625 14.5 40.28125 
Q 14.5 37.15625 16.890625 35.375 
Q 19.28125 33.59375 26.515625 31.984375 
L 29.59375 31.296875 
Q 39.15625 29.25 43.1875 25.515625 
Q 47.21875 21.78125 47.21875 15.09375 
Q 47.21875 7.46875 41.1875 3.015625 
Q 35.15625 -1.421875 24.609375 -1.421875 
Q 20.21875 -1.421875 15.453125 -0.5625 
Q 10.6875 0.296875 5.421875 2 
L 5.421875 11.28125 
Q 10.40625 8.6875 15.234375 7.390625 
Q 20.0625 6.109375 24.8125 6.109375 
Q 31.15625 6.109375 34.5625 8.28125 
Q 37.984375 10.453125 37.984375 14.40625 
Q 37.984375 18.0625 35.515625 20.015625 
Q 33.0625 21.96875 24.703125 23.78125 
L 21.578125 24.515625 
Q 13.234375 26.265625 9.515625 29.90625 
Q 5.8125 33.546875 5.8125 39.890625 
Q 5.8125 47.609375 11.28125 51.796875 
Q 16.75 56 26.8125 56 
Q 31.78125 56 36.171875 55.265625 
Q 40.578125 54.546875 44.28125 53.078125 
z
" id="DejaVuSans-115"/>
      <path d="M 30.609375 48.390625 
Q 23.390625 48.390625 19.1875 42.75 
Q 14.984375 37.109375 14.984375 27.296875 
Q 14.984375 17.484375 19.15625 11.84375 
Q 23.34375 6.203125 30.609375 6.203125 
Q 37.796875 6.203125 41.984375 11.859375 
Q 46.1875 17.53125 46.1875 27.296875 
Q 46.1875 37.015625 41.984375 42.703125 
Q 37.796875 48.390625 30.609375 48.390625 
z
M 30.609375 56 
Q 42.328125 56 49.015625 48.375 
Q 55.71875 40.765625 55.71875 27.296875 
Q 55.71875 13.875 49.015625 6.21875 
Q 42.328125 -1.421875 30.609375 -1.421875 
Q 18.84375 -1.421875 12.171875 6.21875 
Q 5.515625 13.875 5.515625 27.296875 
Q 5.515625 40.765625 12.171875 48.375 
Q 18.84375 56 30.609375 56 
z
" id="DejaVuSans-111"/>
      <path d="M 54.890625 33.015625 
L 54.890625 0 
L 45.90625 0 
L 45.90625 32.71875 
Q 45.90625 40.484375 42.875 44.328125 
Q 39.84375 48.1875 33.796875 48.1875 
Q 26.515625 48.1875 22.3125 43.546875 
Q 18.109375 38.921875 18.109375 30.90625 
L 18.109375 0 
L 9.078125 0 
L 9.078125 54.6875 
L 18.109375 54.6875 
L 18.109375 46.1875 
Q 21.34375 51.125 25.703125 53.5625 
Q 30.078125 56 35.796875 56 
Q 45.21875 56 50.046875 50.171875 
Q 54.890625 44.34375 54.890625 33.015625 
z
" id="DejaVuSans-110"/>
     </defs>
     <g transform="translate(14.798438 161.502969)rotate(-90)scale(0.1 -0.1)">
      <use xlink:href="#DejaVuSans-112"/>
      <use x="63.476562" xlink:href="#DejaVuSans-114"/>
      <use x="104.558594" xlink:href="#DejaVuSans-101"/>
      <use x="166.082031" xlink:href="#DejaVuSans-99"/>
      <use x="221.0625" xlink:href="#DejaVuSans-105"/>
      <use x="248.845703" xlink:href="#DejaVuSans-115"/>
      <use x="300.945312" xlink:href="#DejaVuSans-105"/>
      <use x="328.728516" xlink:href="#DejaVuSans-111"/>
      <use x="389.910156" xlink:href="#DejaVuSans-110"/>
     </g>
    </g>
   </g>
   <g id="line2d_10">
    <path clip-path="url(#pfa88cab1cc)" d="M 54.535968 32.910852 
L 54.688124 32.910852 
L 54.840281 32.910852 
L 54.992438 32.910852 
L 55.144595 32.910852 
L 55.296752 32.910852 
L 55.448909 32.910852 
L 55.601066 32.910852 
L 55.753223 32.910852 
L 55.90538 32.910852 
L 56.055122 32.910852 
L 56.209694 32.910852 
L 56.361851 32.910852 
L 56.514008 32.910852 
L 56.663749 32.910852 
L 56.707223 44.285523 
L 56.707223 58.279884 
L 56.707223 70.720685 
L 56.707223 81.853022 
L 56.712053 91.325753 
L 56.714468 100.374095 
L 56.714468 108.64257 
L 56.714468 116.192542 
L 56.716884 122.948862 
L 56.716884 129.323331 
L 56.719299 134.965568 
L 56.719299 140.426539 
L 56.719299 145.575012 
L 56.719299 150.29094 
L 56.719299 154.625063 
L 56.719299 158.747215 
L 56.721714 162.547429 
L 56.721714 166.177936 
L 56.721714 169.594983 
L 56.724129 172.654004 
L 56.724129 175.74986 
L 56.728959 178.417399 
L 56.728959 181.15295 
L 56.728959 183.708118 
L 56.731375 186.114915 
L 56.731375 188.46271 
L 56.731375 190.698747 
L 56.731375 192.830822 
L 56.731375 194.834436 
L 56.731375 196.810794 
L 56.731375 198.671043 
L 56.73379 200.367926 
L 56.73379 202.076608 
L 56.736205 203.634773 
" style="fill:none;stroke:#1f77b4;stroke-linecap:square;stroke-width:1.5;"/>
   </g>
   <g id="line2d_11">
    <path clip-path="url(#pfa88cab1cc)" d="M 72.193417 32.910852 
L 89.983702 32.978317 
L 107.798139 32.978318 
L 125.6005 32.978319 
L 143.385954 32.991813 
L 161.171409 32.983942 
L 178.966524 32.987958 
L 196.754394 32.995187 
L 214.535018 33.012054 
L 232.310812 33.025548 
L 250.08419 33.045789 
L 267.041235 33.965046 
L 268.309209 51.558094 
L 268.381665 67.905319 
L 268.420308 82.115219 
L 268.473442 94.526536 
L 268.5145 105.509069 
L 268.553143 115.278826 
L 268.582126 124.020194 
L 268.611108 131.885745 
L 268.647336 138.990956 
L 268.70047 145.450243 
L 268.736698 151.346389 
L 268.76085 156.751192 
L 268.804323 161.727662 
L 268.852627 166.305758 
L 268.900931 170.553484 
L 268.941989 174.503826 
L 268.975802 178.178243 
L 269.014445 181.609948 
L 269.050672 184.821343 
L 269.0869 187.838351 
L 269.106222 190.678644 
L 269.14728 193.342932 
L 269.185923 195.85594 
L 269.224566 198.225589 
L 269.260794 200.467148 
L 269.280115 202.59162 
L 269.306682 204.608874 
L 269.34291 206.525266 
L 269.381553 208.343239 
L 269.412951 210.071429 
L 269.456424 211.723945 
L 269.485406 213.305948 
L 269.509558 214.813142 
L 269.553032 216.249672 
L 269.579599 217.637275 
L 269.59892 218.963548 
L 269.630318 220.233105 
" style="fill:none;stroke:#ff7f0e;stroke-linecap:square;stroke-width:1.5;"/>
   </g>
   <g id="line2d_12">
    <path clip-path="url(#pfa88cab1cc)" d="M 55.446494 32.910852 
L 56.514008 32.910852 
L 57.571861 32.910852 
L 58.622468 32.910852 
L 59.673075 32.910852 
L 60.738174 32.910852 
L 61.77429 32.991466 
L 61.984412 57.825655 
L 61.986827 82.723208 
L 61.986827 102.696585 
L 61.994072 118.88371 
L 61.998903 132.419521 
L 61.998903 143.959395 
L 62.001318 153.810124 
L 62.008563 162.253821 
L 62.013394 169.695238 
L 62.020639 176.227748 
L 62.020639 182.14095 
L 62.0303 187.28881 
L 62.0303 192.046035 
L 62.039961 196.24255 
L 62.044791 200.100346 
L 62.047206 203.65561 
L 62.056867 206.843939 
L 62.059282 209.844888 
L 62.061698 212.614935 
L 62.068943 215.137917 
L 62.071358 217.520973 
L 62.071358 219.754222 
L 62.078604 221.786972 
L 62.088265 223.670325 
L 62.09068 225.488869 
L 62.09551 227.162949 
L 62.105171 228.72192 
L 62.112417 230.20454 
L 62.112417 231.655197 
L 62.126908 232.935851 
L 62.131738 234.208518 
L 62.134153 235.43038 
L 62.134153 236.605248 
L 62.138984 237.695245 
L 62.141399 238.746768 
L 62.146229 239.733993 
L 62.153475 240.665742 
L 62.165551 241.518425 
L 62.170381 242.383124 
L 62.180042 243.186988 
L 62.180042 244.004403 
L 62.184872 244.765398 
" style="fill:none;stroke:#2ca02c;stroke-linecap:square;stroke-width:1.5;"/>
   </g>
   <g id="line2d_13">
    <path clip-path="url(#pfa88cab1cc)" d="M 58.277096 33.680442 
L 62.184872 33.449565 
L 66.099894 33.269994 
L 70.007671 33.218688 
L 73.915447 33.157121 
L 77.825639 33.141729 
L 81.73583 33.108764 
L 85.643607 33.103264 
L 89.556213 33.081884 
L 93.466405 33.080172 
L 97.379012 33.064779 
L 101.284373 33.051951 
L 105.194565 33.052944 
L 109.102341 33.042794 
L 113.012533 33.033997 
L 116.922724 33.03592 
L 120.832916 33.028563 
L 124.740692 33.022023 
L 128.648469 33.024277 
L 132.561075 33.018605 
L 136.471267 33.013473 
L 140.376628 33.008808 
L 144.29165 33.004549 
L 148.189766 33.007058 
L 152.092712 33.009369 
L 156.000488 33.017421 
L 159.913095 33.013474 
L 163.816041 33.026301 
L 167.726233 33.02232 
L 171.638839 33.018604 
L 175.546616 33.01513 
L 179.454392 33.011871 
L 183.352508 33.008809 
L 187.262699 33.005928 
L 191.170476 33.007609 
L 195.080667 33.009197 
L 198.983613 33.010701 
L 202.893805 33.012124 
L 206.806412 33.009527 
L 210.704528 33.010908 
L 214.614719 33.012222 
L 218.52008 33.017138 
L 222.423026 33.018248 
L 226.323557 33.026302 
L 230.226503 33.033998 
L 234.122204 33.048053 
L 238.010659 33.08116 
L 241.800091 33.228337 
L 242.710617 37.026163 
" style="fill:none;stroke:#d62728;stroke-linecap:square;stroke-width:1.5;"/>
   </g>
   <g id="line2d_14">
    <path clip-path="url(#pfa88cab1cc)" d="M 269.627903 220.233794 
L 269.627903 220.233794 
L 269.627903 220.233794 
L 269.627903 220.233794 
L 269.627903 220.233794 
L 269.627903 220.233794 
L 269.627903 220.233794 
L 269.627903 220.233794 
L 269.627903 220.233794 
L 269.627903 220.233794 
L 269.627903 220.233794 
L 269.627903 220.233794 
L 269.627903 220.233794 
L 269.627903 220.233794 
L 269.627903 220.233794 
L 269.627903 220.233794 
L 269.627903 220.233794 
L 265.00523 189.589476 
L 258.162999 189.731863 
L 252.803693 189.20643 
L 248.953882 187.88942 
L 245.930065 186.077675 
L 243.502799 183.789778 
L 241.478871 181.117423 
L 239.995944 177.919387 
L 238.261838 174.68012 
L 236.655737 170.962442 
L 234.899895 167.056545 
L 232.979819 162.877558 
L 230.972797 158.356175 
L 228.661461 153.57955 
L 226.164155 148.430711 
L 223.362535 142.906825 
L 220.031989 137.151923 
L 216.556531 130.761057 
L 212.197115 124.352044 
L 207.364321 117.459953 
L 201.589603 110.494449 
L 195.259391 103.007098 
L 188.219114 95.00447 
L 179.966412 87.057783 
L 170.827336 78.703219 
L 160.413039 70.481998 
L 148.752505 62.39518 
L 135.693576 55.018701 
L 121.323199 48.478833 
L 105.841835 42.682194 
L 89.266391 38.695941 
L 72.111301 34.799733 
" style="fill:none;stroke:#ff7f0e;stroke-dasharray:1.5,2.475;stroke-dashoffset:0;stroke-width:1.5;"/>
   </g>
   <g id="line2d_15">
    <path clip-path="url(#pfa88cab1cc)" d="M 242.708202 37.029305 
L 241.47404 33.945342 
L 238.493696 33.757733 
L 234.040087 33.398923 
L 230.209597 33.337969 
L 226.794519 33.332501 
L 224.060525 33.325164 
L 220.48846 33.323233 
L 216.100061 33.330712 
L 211.192396 33.320869 
L 211.192396 33.320869 
L 205.789617 33.323638 
L 199.563259 33.320637 
L 199.563259 33.320637 
L 193.013265 33.309679 
L 193.013265 33.309679 
L 185.987479 33.30358 
L 185.987479 33.30358 
L 178.674286 33.283191 
L 178.674286 33.283191 
L 171.184784 33.281352 
L 171.184784 33.281352 
L 163.446517 33.269093 
L 156.02464 33.247984 
L 156.02464 33.247984 
L 148.94572 33.247835 
L 148.94572 33.247835 
L 142.291873 33.218675 
L 142.291873 33.218675 
L 135.80226 33.213654 
L 129.575901 33.198803 
L 129.575901 33.198803 
L 123.859148 33.213844 
L 118.345271 33.192965 
L 113.333753 33.176149 
L 113.333753 33.176149 
L 108.848746 33.186947 
L 104.462762 33.175103 
L 100.492191 33.1848 
L 96.760723 33.180552 
L 90.201069 33.213135 
L 87.452583 33.2019 
L 82.542503 33.252634 
L 78.769978 33.182237 
L 74.048282 33.216726 
L 70.584901 33.207921 
L 66.169935 33.064108 
L 62.308047 33.138707 
L 58.545182 33.199961 
" style="fill:none;stroke:#d62728;stroke-dasharray:1.5,2.475;stroke-dashoffset:0;stroke-width:1.5;"/>
   </g>
   <g id="line2d_16">
    <defs>
     <path d="M 0 2.5 
C 0.663008 2.5 1.29895 2.236584 1.767767 1.767767 
C 2.236584 1.29895 2.5 0.663008 2.5 0 
C 2.5 -0.663008 2.236584 -1.29895 1.767767 -1.767767 
C 1.29895 -2.236584 0.663008 -2.5 0 -2.5 
C -0.663008 -2.5 -1.29895 -2.236584 -1.767767 -1.767767 
C -2.236584 -1.29895 -2.5 -0.663008 -2.5 0 
C -2.5 0.663008 -2.236584 1.29895 -1.767767 1.767767 
C -1.29895 2.236584 -0.663008 2.5 0 2.5 
z
" id="ma47ef80c71" style="stroke:#ff7f0e;"/>
    </defs>
    <g clip-path="url(#pfa88cab1cc)">
     <use style="fill:#ff7f0e;stroke:#ff7f0e;" x="190.747818" xlink:href="#ma47ef80c71" y="33.118086"/>
    </g>
   </g>
   <g id="line2d_17">
    <defs>
     <path d="M 0 2.5 
C 0.663008 2.5 1.29895 2.236584 1.767767 1.767767 
C 2.236584 1.29895 2.5 0.663008 2.5 0 
C 2.5 -0.663008 2.236584 -1.29895 1.767767 -1.767767 
C 1.29895 -2.236584 0.663008 -2.5 0 -2.5 
C -0.663008 -2.5 -1.29895 -2.236584 -1.767767 -1.767767 
C -2.236584 -1.29895 -2.5 -0.663008 -2.5 0 
C -2.5 0.663008 -2.236584 1.29895 -1.767767 1.767767 
C -1.29895 2.236584 -0.663008 2.5 0 2.5 
z
" id="m63613f1798" style="stroke:#d62728;"/>
    </defs>
    <g clip-path="url(#pfa88cab1cc)">
     <use style="fill:#d62728;stroke:#d62728;" x="234.375799" xlink:href="#m63613f1798" y="33.384706"/>
    </g>
   </g>
   <g id="patch_3">
    <path d="M 43.78125 255.358125 
L 43.78125 22.318125 
" style="fill:none;stroke:#000000;stroke-linecap:square;stroke-linejoin:miter;stroke-width:0.8;"/>
   </g>
   <g id="patch_4">
    <path d="M 43.78125 255.358125 
L 280.385035 255.358125 
" style="fill:none;stroke:#000000;stroke-linecap:square;stroke-linejoin:miter;stroke-width:0.8;"/>
   </g>
   <g id="text_11">
    <!-- 1 - 30 -->
    <defs>
     <path id="DejaVuSans-32"/>
     <path d="M 4.890625 31.390625 
L 31.203125 31.390625 
L 31.203125 23.390625 
L 4.890625 23.390625 
z
" id="DejaVuSans-45"/>
     <path d="M 40.578125 39.3125 
Q 47.65625 37.796875 51.625 33 
Q 55.609375 28.21875 55.609375 21.1875 
Q 55.609375 10.40625 48.1875 4.484375 
Q 40.765625 -1.421875 27.09375 -1.421875 
Q 22.515625 -1.421875 17.65625 -0.515625 
Q 12.796875 0.390625 7.625 2.203125 
L 7.625 11.71875 
Q 11.71875 9.328125 16.59375 8.109375 
Q 21.484375 6.890625 26.8125 6.890625 
Q 36.078125 6.890625 40.9375 10.546875 
Q 45.796875 14.203125 45.796875 21.1875 
Q 45.796875 27.640625 41.28125 31.265625 
Q 36.765625 34.90625 28.71875 34.90625 
L 20.21875 34.90625 
L 20.21875 43.015625 
L 29.109375 43.015625 
Q 36.375 43.015625 40.234375 45.921875 
Q 44.09375 48.828125 44.09375 54.296875 
Q 44.09375 59.90625 40.109375 62.90625 
Q 36.140625 65.921875 28.71875 65.921875 
Q 24.65625 65.921875 20.015625 65.03125 
Q 15.375 64.15625 9.8125 62.3125 
L 9.8125 71.09375 
Q 15.4375 72.65625 20.34375 73.4375 
Q 25.25 74.21875 29.59375 74.21875 
Q 40.828125 74.21875 47.359375 69.109375 
Q 53.90625 64.015625 53.90625 55.328125 
Q 53.90625 49.265625 50.4375 45.09375 
Q 46.96875 40.921875 40.578125 39.3125 
z
" id="DejaVuSans-51"/>
    </defs>
    <g transform="translate(144.652205 16.318125)scale(0.12 -0.12)">
     <use xlink:href="#DejaVuSans-49"/>
     <use x="63.623047" xlink:href="#DejaVuSans-32"/>
     <use x="95.410156" xlink:href="#DejaVuSans-45"/>
     <use x="131.494141" xlink:href="#DejaVuSans-32"/>
     <use x="163.28125" xlink:href="#DejaVuSans-51"/>
     <use x="226.904297" xlink:href="#DejaVuSans-48"/>
    </g>
   </g>
   <g id="legend_1">
    <g id="patch_5">
     <path d="M 109.819861 250.358125 
L 214.346424 250.358125 
Q 216.346424 250.358125 216.346424 248.358125 
L 216.346424 117.255 
Q 216.346424 115.255 214.346424 115.255 
L 109.819861 115.255 
Q 107.819861 115.255 107.819861 117.255 
L 107.819861 248.358125 
Q 107.819861 250.358125 109.819861 250.358125 
z
" style="fill:#ffffff;opacity:0.8;stroke:#cccccc;stroke-linejoin:miter;"/>
    </g>
    <g id="line2d_18">
     <path d="M 111.819861 123.353437 
L 131.819861 123.353437 
" style="fill:none;stroke:#1f77b4;stroke-linecap:square;stroke-width:1.5;"/>
    </g>
    <g id="line2d_19"/>
    <g id="text_12">
     <!-- prosic+delly -->
     <defs>
      <path d="M 46 62.703125 
L 46 35.5 
L 73.1875 35.5 
L 73.1875 27.203125 
L 46 27.203125 
L 46 0 
L 37.796875 0 
L 37.796875 27.203125 
L 10.59375 27.203125 
L 10.59375 35.5 
L 37.796875 35.5 
L 37.796875 62.703125 
z
" id="DejaVuSans-43"/>
      <path d="M 45.40625 46.390625 
L 45.40625 75.984375 
L 54.390625 75.984375 
L 54.390625 0 
L 45.40625 0 
L 45.40625 8.203125 
Q 42.578125 3.328125 38.25 0.953125 
Q 33.9375 -1.421875 27.875 -1.421875 
Q 17.96875 -1.421875 11.734375 6.484375 
Q 5.515625 14.40625 5.515625 27.296875 
Q 5.515625 40.1875 11.734375 48.09375 
Q 17.96875 56 27.875 56 
Q 33.9375 56 38.25 53.625 
Q 42.578125 51.265625 45.40625 46.390625 
z
M 14.796875 27.296875 
Q 14.796875 17.390625 18.875 11.75 
Q 22.953125 6.109375 30.078125 6.109375 
Q 37.203125 6.109375 41.296875 11.75 
Q 45.40625 17.390625 45.40625 27.296875 
Q 45.40625 37.203125 41.296875 42.84375 
Q 37.203125 48.484375 30.078125 48.484375 
Q 22.953125 48.484375 18.875 42.84375 
Q 14.796875 37.203125 14.796875 27.296875 
z
" id="DejaVuSans-100"/>
      <path d="M 9.421875 75.984375 
L 18.40625 75.984375 
L 18.40625 0 
L 9.421875 0 
z
" id="DejaVuSans-108"/>
      <path d="M 32.171875 -5.078125 
Q 28.375 -14.84375 24.75 -17.8125 
Q 21.140625 -20.796875 15.09375 -20.796875 
L 7.90625 -20.796875 
L 7.90625 -13.28125 
L 13.1875 -13.28125 
Q 16.890625 -13.28125 18.9375 -11.515625 
Q 21 -9.765625 23.484375 -3.21875 
L 25.09375 0.875 
L 2.984375 54.6875 
L 12.5 54.6875 
L 29.59375 11.921875 
L 46.6875 54.6875 
L 56.203125 54.6875 
z
" id="DejaVuSans-121"/>
     </defs>
     <g transform="translate(139.819861 126.853437)scale(0.1 -0.1)">
      <use xlink:href="#DejaVuSans-112"/>
      <use x="63.476562" xlink:href="#DejaVuSans-114"/>
      <use x="104.558594" xlink:href="#DejaVuSans-111"/>
      <use x="165.740234" xlink:href="#DejaVuSans-115"/>
      <use x="217.839844" xlink:href="#DejaVuSans-105"/>
      <use x="245.623047" xlink:href="#DejaVuSans-99"/>
      <use x="300.603516" xlink:href="#DejaVuSans-43"/>
      <use x="384.392578" xlink:href="#DejaVuSans-100"/>
      <use x="447.869141" xlink:href="#DejaVuSans-101"/>
      <use x="509.392578" xlink:href="#DejaVuSans-108"/>
      <use x="537.175781" xlink:href="#DejaVuSans-108"/>
      <use x="564.958984" xlink:href="#DejaVuSans-121"/>
     </g>
    </g>
    <g id="line2d_20">
     <path d="M 111.819861 138.031563 
L 131.819861 138.031563 
" style="fill:none;stroke:#ff7f0e;stroke-linecap:square;stroke-width:1.5;"/>
    </g>
    <g id="line2d_21"/>
    <g id="text_13">
     <!-- prosic+lancet -->
     <defs>
      <path d="M 34.28125 27.484375 
Q 23.390625 27.484375 19.1875 25 
Q 14.984375 22.515625 14.984375 16.5 
Q 14.984375 11.71875 18.140625 8.90625 
Q 21.296875 6.109375 26.703125 6.109375 
Q 34.1875 6.109375 38.703125 11.40625 
Q 43.21875 16.703125 43.21875 25.484375 
L 43.21875 27.484375 
z
M 52.203125 31.203125 
L 52.203125 0 
L 43.21875 0 
L 43.21875 8.296875 
Q 40.140625 3.328125 35.546875 0.953125 
Q 30.953125 -1.421875 24.3125 -1.421875 
Q 15.921875 -1.421875 10.953125 3.296875 
Q 6 8.015625 6 15.921875 
Q 6 25.140625 12.171875 29.828125 
Q 18.359375 34.515625 30.609375 34.515625 
L 43.21875 34.515625 
L 43.21875 35.40625 
Q 43.21875 41.609375 39.140625 45 
Q 35.0625 48.390625 27.6875 48.390625 
Q 23 48.390625 18.546875 47.265625 
Q 14.109375 46.140625 10.015625 43.890625 
L 10.015625 52.203125 
Q 14.9375 54.109375 19.578125 55.046875 
Q 24.21875 56 28.609375 56 
Q 40.484375 56 46.34375 49.84375 
Q 52.203125 43.703125 52.203125 31.203125 
z
" id="DejaVuSans-97"/>
      <path d="M 18.3125 70.21875 
L 18.3125 54.6875 
L 36.8125 54.6875 
L 36.8125 47.703125 
L 18.3125 47.703125 
L 18.3125 18.015625 
Q 18.3125 11.328125 20.140625 9.421875 
Q 21.96875 7.515625 27.59375 7.515625 
L 36.8125 7.515625 
L 36.8125 0 
L 27.59375 0 
Q 17.1875 0 13.234375 3.875 
Q 9.28125 7.765625 9.28125 18.015625 
L 9.28125 47.703125 
L 2.6875 47.703125 
L 2.6875 54.6875 
L 9.28125 54.6875 
L 9.28125 70.21875 
z
" id="DejaVuSans-116"/>
     </defs>
     <g transform="translate(139.819861 141.531563)scale(0.1 -0.1)">
      <use xlink:href="#DejaVuSans-112"/>
      <use x="63.476562" xlink:href="#DejaVuSans-114"/>
      <use x="104.558594" xlink:href="#DejaVuSans-111"/>
      <use x="165.740234" xlink:href="#DejaVuSans-115"/>
      <use x="217.839844" xlink:href="#DejaVuSans-105"/>
      <use x="245.623047" xlink:href="#DejaVuSans-99"/>
      <use x="300.603516" xlink:href="#DejaVuSans-43"/>
      <use x="384.392578" xlink:href="#DejaVuSans-108"/>
      <use x="412.175781" xlink:href="#DejaVuSans-97"/>
      <use x="473.455078" xlink:href="#DejaVuSans-110"/>
      <use x="536.833984" xlink:href="#DejaVuSans-99"/>
      <use x="591.814453" xlink:href="#DejaVuSans-101"/>
      <use x="653.337891" xlink:href="#DejaVuSans-116"/>
     </g>
    </g>
    <g id="line2d_22">
     <path d="M 111.819861 152.709687 
L 131.819861 152.709687 
" style="fill:none;stroke:#2ca02c;stroke-linecap:square;stroke-width:1.5;"/>
    </g>
    <g id="line2d_23"/>
    <g id="text_14">
     <!-- prosic+manta -->
     <defs>
      <path d="M 52 44.1875 
Q 55.375 50.25 60.0625 53.125 
Q 64.75 56 71.09375 56 
Q 79.640625 56 84.28125 50.015625 
Q 88.921875 44.046875 88.921875 33.015625 
L 88.921875 0 
L 79.890625 0 
L 79.890625 32.71875 
Q 79.890625 40.578125 77.09375 44.375 
Q 74.3125 48.1875 68.609375 48.1875 
Q 61.625 48.1875 57.5625 43.546875 
Q 53.515625 38.921875 53.515625 30.90625 
L 53.515625 0 
L 44.484375 0 
L 44.484375 32.71875 
Q 44.484375 40.625 41.703125 44.40625 
Q 38.921875 48.1875 33.109375 48.1875 
Q 26.21875 48.1875 22.15625 43.53125 
Q 18.109375 38.875 18.109375 30.90625 
L 18.109375 0 
L 9.078125 0 
L 9.078125 54.6875 
L 18.109375 54.6875 
L 18.109375 46.1875 
Q 21.1875 51.21875 25.484375 53.609375 
Q 29.78125 56 35.6875 56 
Q 41.65625 56 45.828125 52.96875 
Q 50 49.953125 52 44.1875 
z
" id="DejaVuSans-109"/>
     </defs>
     <g transform="translate(139.819861 156.209687)scale(0.1 -0.1)">
      <use xlink:href="#DejaVuSans-112"/>
      <use x="63.476562" xlink:href="#DejaVuSans-114"/>
      <use x="104.558594" xlink:href="#DejaVuSans-111"/>
      <use x="165.740234" xlink:href="#DejaVuSans-115"/>
      <use x="217.839844" xlink:href="#DejaVuSans-105"/>
      <use x="245.623047" xlink:href="#DejaVuSans-99"/>
      <use x="300.603516" xlink:href="#DejaVuSans-43"/>
      <use x="384.392578" xlink:href="#DejaVuSans-109"/>
      <use x="481.804688" xlink:href="#DejaVuSans-97"/>
      <use x="543.083984" xlink:href="#DejaVuSans-110"/>
      <use x="606.462891" xlink:href="#DejaVuSans-116"/>
      <use x="645.671875" xlink:href="#DejaVuSans-97"/>
     </g>
    </g>
    <g id="line2d_24">
     <path d="M 111.819861 167.387812 
L 131.819861 167.387812 
" style="fill:none;stroke:#d62728;stroke-linecap:square;stroke-width:1.5;"/>
    </g>
    <g id="line2d_25"/>
    <g id="text_15">
     <!-- prosic+strelka -->
     <defs>
      <path d="M 9.078125 75.984375 
L 18.109375 75.984375 
L 18.109375 31.109375 
L 44.921875 54.6875 
L 56.390625 54.6875 
L 27.390625 29.109375 
L 57.625 0 
L 45.90625 0 
L 18.109375 26.703125 
L 18.109375 0 
L 9.078125 0 
z
" id="DejaVuSans-107"/>
     </defs>
     <g transform="translate(139.819861 170.887812)scale(0.1 -0.1)">
      <use xlink:href="#DejaVuSans-112"/>
      <use x="63.476562" xlink:href="#DejaVuSans-114"/>
      <use x="104.558594" xlink:href="#DejaVuSans-111"/>
      <use x="165.740234" xlink:href="#DejaVuSans-115"/>
      <use x="217.839844" xlink:href="#DejaVuSans-105"/>
      <use x="245.623047" xlink:href="#DejaVuSans-99"/>
      <use x="300.603516" xlink:href="#DejaVuSans-43"/>
      <use x="384.392578" xlink:href="#DejaVuSans-115"/>
      <use x="436.492188" xlink:href="#DejaVuSans-116"/>
      <use x="475.701172" xlink:href="#DejaVuSans-114"/>
      <use x="516.783203" xlink:href="#DejaVuSans-101"/>
      <use x="578.306641" xlink:href="#DejaVuSans-108"/>
      <use x="606.089844" xlink:href="#DejaVuSans-107"/>
      <use x="663.984375" xlink:href="#DejaVuSans-97"/>
     </g>
    </g>
    <g id="line2d_26">
     <path d="M 111.819861 182.065938 
L 131.819861 182.065938 
" style="fill:none;stroke:#ff7f0e;stroke-dasharray:1.5,2.475;stroke-dashoffset:0;stroke-width:1.5;"/>
    </g>
    <g id="line2d_27">
     <g>
      <use style="fill:#ff7f0e;stroke:#ff7f0e;" x="121.819861" xlink:href="#ma47ef80c71" y="182.065938"/>
     </g>
    </g>
    <g id="text_16">
     <!-- lancet -->
     <g transform="translate(139.819861 185.565938)scale(0.1 -0.1)">
      <use xlink:href="#DejaVuSans-108"/>
      <use x="27.783203" xlink:href="#DejaVuSans-97"/>
      <use x="89.0625" xlink:href="#DejaVuSans-110"/>
      <use x="152.441406" xlink:href="#DejaVuSans-99"/>
      <use x="207.421875" xlink:href="#DejaVuSans-101"/>
      <use x="268.945312" xlink:href="#DejaVuSans-116"/>
     </g>
    </g>
    <g id="line2d_28">
     <path d="M 111.819861 196.744062 
L 131.819861 196.744062 
" style="fill:none;stroke:#2ca02c;stroke-dasharray:1.5,2.475;stroke-dashoffset:0;stroke-width:1.5;"/>
    </g>
    <g id="line2d_29">
     <defs>
      <path d="M 0 2.5 
C 0.663008 2.5 1.29895 2.236584 1.767767 1.767767 
C 2.236584 1.29895 2.5 0.663008 2.5 0 
C 2.5 -0.663008 2.236584 -1.29895 1.767767 -1.767767 
C 1.29895 -2.236584 0.663008 -2.5 0 -2.5 
C -0.663008 -2.5 -1.29895 -2.236584 -1.767767 -1.767767 
C -2.236584 -1.29895 -2.5 -0.663008 -2.5 0 
C -2.5 0.663008 -2.236584 1.29895 -1.767767 1.767767 
C -1.29895 2.236584 -0.663008 2.5 0 2.5 
z
" id="ma4775817ba" style="stroke:#2ca02c;"/>
     </defs>
     <g>
      <use style="fill:#2ca02c;stroke:#2ca02c;" x="121.819861" xlink:href="#ma4775817ba" y="196.744062"/>
     </g>
    </g>
    <g id="text_17">
     <!-- manta -->
     <g transform="translate(139.819861 200.244062)scale(0.1 -0.1)">
      <use xlink:href="#DejaVuSans-109"/>
      <use x="97.412109" xlink:href="#DejaVuSans-97"/>
      <use x="158.691406" xlink:href="#DejaVuSans-110"/>
      <use x="222.070312" xlink:href="#DejaVuSans-116"/>
      <use x="261.279297" xlink:href="#DejaVuSans-97"/>
     </g>
    </g>
    <g id="line2d_30">
     <path d="M 111.819861 211.422187 
L 131.819861 211.422187 
" style="fill:none;stroke:#d62728;stroke-dasharray:1.5,2.475;stroke-dashoffset:0;stroke-width:1.5;"/>
    </g>
    <g id="line2d_31">
     <g>
      <use style="fill:#d62728;stroke:#d62728;" x="121.819861" xlink:href="#m63613f1798" y="211.422187"/>
     </g>
    </g>
    <g id="text_18">
     <!-- strelka -->
     <g transform="translate(139.819861 214.922187)scale(0.1 -0.1)">
      <use xlink:href="#DejaVuSans-115"/>
      <use x="52.099609" xlink:href="#DejaVuSans-116"/>
      <use x="91.308594" xlink:href="#DejaVuSans-114"/>
      <use x="132.390625" xlink:href="#DejaVuSans-101"/>
      <use x="193.914062" xlink:href="#DejaVuSans-108"/>
      <use x="221.697266" xlink:href="#DejaVuSans-107"/>
      <use x="279.591797" xlink:href="#DejaVuSans-97"/>
     </g>
    </g>
    <g id="line2d_32">
     <path d="M 111.819861 226.100312 
L 131.819861 226.100312 
" style="fill:none;"/>
    </g>
    <g id="line2d_33">
     <defs>
      <path d="M 0 2.5 
C 0.663008 2.5 1.29895 2.236584 1.767767 1.767767 
C 2.236584 1.29895 2.5 0.663008 2.5 0 
C 2.5 -0.663008 2.236584 -1.29895 1.767767 -1.767767 
C 1.29895 -2.236584 0.663008 -2.5 0 -2.5 
C -0.663008 -2.5 -1.29895 -2.236584 -1.767767 -1.767767 
C -2.236584 -1.29895 -2.5 -0.663008 -2.5 0 
C -2.5 0.663008 -2.236584 1.29895 -1.767767 1.767767 
C -1.29895 2.236584 -0.663008 2.5 0 2.5 
z
" id="m09f7a6ab96" style="stroke:#1f77b4;"/>
     </defs>
     <g>
      <use style="fill:#1f77b4;stroke:#1f77b4;" x="121.819861" xlink:href="#m09f7a6ab96" y="226.100312"/>
     </g>
    </g>
    <g id="text_19">
     <!-- delly -->
     <g transform="translate(139.819861 229.600312)scale(0.1 -0.1)">
      <use xlink:href="#DejaVuSans-100"/>
      <use x="63.476562" xlink:href="#DejaVuSans-101"/>
      <use x="125" xlink:href="#DejaVuSans-108"/>
      <use x="152.783203" xlink:href="#DejaVuSans-108"/>
      <use x="180.566406" xlink:href="#DejaVuSans-121"/>
     </g>
    </g>
    <g id="line2d_34">
     <path d="M 111.819861 240.778437 
L 131.819861 240.778437 
" style="fill:none;"/>
    </g>
    <g id="line2d_35">
     <defs>
      <path d="M 0 2.5 
C 0.663008 2.5 1.29895 2.236584 1.767767 1.767767 
C 2.236584 1.29895 2.5 0.663008 2.5 0 
C 2.5 -0.663008 2.236584 -1.29895 1.767767 -1.767767 
C 1.29895 -2.236584 0.663008 -2.5 0 -2.5 
C -0.663008 -2.5 -1.29895 -2.236584 -1.767767 -1.767767 
C -2.236584 -1.29895 -2.5 -0.663008 -2.5 0 
C -2.5 0.663008 -2.236584 1.29895 -1.767767 1.767767 
C -1.29895 2.236584 -0.663008 2.5 0 2.5 
z
" id="m69d6ac061a" style="stroke:#9467bd;"/>
     </defs>
     <g>
      <use style="fill:#9467bd;stroke:#9467bd;" x="121.819861" xlink:href="#m69d6ac061a" y="240.778437"/>
     </g>
    </g>
    <g id="text_20">
     <!-- bpi -->
     <defs>
      <path d="M 48.6875 27.296875 
Q 48.6875 37.203125 44.609375 42.84375 
Q 40.53125 48.484375 33.40625 48.484375 
Q 26.265625 48.484375 22.1875 42.84375 
Q 18.109375 37.203125 18.109375 27.296875 
Q 18.109375 17.390625 22.1875 11.75 
Q 26.265625 6.109375 33.40625 6.109375 
Q 40.53125 6.109375 44.609375 11.75 
Q 48.6875 17.390625 48.6875 27.296875 
z
M 18.109375 46.390625 
Q 20.953125 51.265625 25.265625 53.625 
Q 29.59375 56 35.59375 56 
Q 45.5625 56 51.78125 48.09375 
Q 58.015625 40.1875 58.015625 27.296875 
Q 58.015625 14.40625 51.78125 6.484375 
Q 45.5625 -1.421875 35.59375 -1.421875 
Q 29.59375 -1.421875 25.265625 0.953125 
Q 20.953125 3.328125 18.109375 8.203125 
L 18.109375 0 
L 9.078125 0 
L 9.078125 75.984375 
L 18.109375 75.984375 
z
" id="DejaVuSans-98"/>
     </defs>
     <g transform="translate(139.819861 244.278437)scale(0.1 -0.1)">
      <use xlink:href="#DejaVuSans-98"/>
      <use x="63.476562" xlink:href="#DejaVuSans-112"/>
      <use x="126.953125" xlink:href="#DejaVuSans-105"/>
     </g>
    </g>
   </g>
  </g>
  <g id="axes_2">
   <g id="patch_6">
    <path d="M 322.137465 255.358125 
L 558.74125 255.358125 
L 558.74125 22.318125 
L 322.137465 22.318125 
z
" style="fill:#ffffff;"/>
   </g>
   <g id="matplotlib.axis_3">
    <g id="xtick_5">
     <g id="line2d_36">
      <g>
       <use style="stroke:#000000;stroke-width:0.8;" x="328.64969" xlink:href="#mb068a71eff" y="255.358125"/>
      </g>
     </g>
     <g id="text_21">
      <!-- 0.0 -->
      <g transform="translate(320.698128 269.956562)scale(0.1 -0.1)">
       <use xlink:href="#DejaVuSans-48"/>
       <use x="63.623047" xlink:href="#DejaVuSans-46"/>
       <use x="95.410156" xlink:href="#DejaVuSans-48"/>
      </g>
     </g>
    </g>
    <g id="xtick_6">
     <g id="line2d_37">
      <g>
       <use style="stroke:#000000;stroke-width:0.8;" x="377.947448" xlink:href="#mb068a71eff" y="255.358125"/>
      </g>
     </g>
     <g id="text_22">
      <!-- 0.1 -->
      <g transform="translate(369.995886 269.956562)scale(0.1 -0.1)">
       <use xlink:href="#DejaVuSans-48"/>
       <use x="63.623047" xlink:href="#DejaVuSans-46"/>
       <use x="95.410156" xlink:href="#DejaVuSans-49"/>
      </g>
     </g>
    </g>
    <g id="xtick_7">
     <g id="line2d_38">
      <g>
       <use style="stroke:#000000;stroke-width:0.8;" x="427.245207" xlink:href="#mb068a71eff" y="255.358125"/>
      </g>
     </g>
     <g id="text_23">
      <!-- 0.2 -->
      <g transform="translate(419.293644 269.956562)scale(0.1 -0.1)">
       <use xlink:href="#DejaVuSans-48"/>
       <use x="63.623047" xlink:href="#DejaVuSans-46"/>
       <use x="95.410156" xlink:href="#DejaVuSans-50"/>
      </g>
     </g>
    </g>
    <g id="xtick_8">
     <g id="line2d_39">
      <g>
       <use style="stroke:#000000;stroke-width:0.8;" x="476.542965" xlink:href="#mb068a71eff" y="255.358125"/>
      </g>
     </g>
     <g id="text_24">
      <!-- 0.3 -->
      <g transform="translate(468.591403 269.956562)scale(0.1 -0.1)">
       <use xlink:href="#DejaVuSans-48"/>
       <use x="63.623047" xlink:href="#DejaVuSans-46"/>
       <use x="95.410156" xlink:href="#DejaVuSans-51"/>
      </g>
     </g>
    </g>
    <g id="xtick_9">
     <g id="line2d_40">
      <g>
       <use style="stroke:#000000;stroke-width:0.8;" x="525.840724" xlink:href="#mb068a71eff" y="255.358125"/>
      </g>
     </g>
     <g id="text_25">
      <!-- 0.4 -->
      <g transform="translate(517.889161 269.956562)scale(0.1 -0.1)">
       <use xlink:href="#DejaVuSans-48"/>
       <use x="63.623047" xlink:href="#DejaVuSans-46"/>
       <use x="95.410156" xlink:href="#DejaVuSans-52"/>
      </g>
     </g>
    </g>
   </g>
   <g id="matplotlib.axis_4">
    <g id="ytick_6">
     <g id="line2d_41">
      <g>
       <use style="stroke:#000000;stroke-width:0.8;" x="322.137465" xlink:href="#m1b940cba57" y="231.697734"/>
      </g>
     </g>
     <g id="text_26">
      <!-- 0.2 -->
      <g transform="translate(299.23434 235.496953)scale(0.1 -0.1)">
       <use xlink:href="#DejaVuSans-48"/>
       <use x="63.623047" xlink:href="#DejaVuSans-46"/>
       <use x="95.410156" xlink:href="#DejaVuSans-50"/>
      </g>
     </g>
    </g>
    <g id="ytick_7">
     <g id="line2d_42">
      <g>
       <use style="stroke:#000000;stroke-width:0.8;" x="322.137465" xlink:href="#m1b940cba57" y="182.001014"/>
      </g>
     </g>
     <g id="text_27">
      <!-- 0.4 -->
      <g transform="translate(299.23434 185.800232)scale(0.1 -0.1)">
       <use xlink:href="#DejaVuSans-48"/>
       <use x="63.623047" xlink:href="#DejaVuSans-46"/>
       <use x="95.410156" xlink:href="#DejaVuSans-52"/>
      </g>
     </g>
    </g>
    <g id="ytick_8">
     <g id="line2d_43">
      <g>
       <use style="stroke:#000000;stroke-width:0.8;" x="322.137465" xlink:href="#m1b940cba57" y="132.304293"/>
      </g>
     </g>
     <g id="text_28">
      <!-- 0.6 -->
      <g transform="translate(299.23434 136.103512)scale(0.1 -0.1)">
       <use xlink:href="#DejaVuSans-48"/>
       <use x="63.623047" xlink:href="#DejaVuSans-46"/>
       <use x="95.410156" xlink:href="#DejaVuSans-54"/>
      </g>
     </g>
    </g>
    <g id="ytick_9">
     <g id="line2d_44">
      <g>
       <use style="stroke:#000000;stroke-width:0.8;" x="322.137465" xlink:href="#m1b940cba57" y="82.607573"/>
      </g>
     </g>
     <g id="text_29">
      <!-- 0.8 -->
      <g transform="translate(299.23434 86.406791)scale(0.1 -0.1)">
       <use xlink:href="#DejaVuSans-48"/>
       <use x="63.623047" xlink:href="#DejaVuSans-46"/>
       <use x="95.410156" xlink:href="#DejaVuSans-56"/>
      </g>
     </g>
    </g>
    <g id="ytick_10">
     <g id="line2d_45">
      <g>
       <use style="stroke:#000000;stroke-width:0.8;" x="322.137465" xlink:href="#m1b940cba57" y="32.910852"/>
      </g>
     </g>
     <g id="text_30">
      <!-- 1.0 -->
      <g transform="translate(299.23434 36.710071)scale(0.1 -0.1)">
       <use xlink:href="#DejaVuSans-49"/>
       <use x="63.623047" xlink:href="#DejaVuSans-46"/>
       <use x="95.410156" xlink:href="#DejaVuSans-48"/>
      </g>
     </g>
    </g>
   </g>
   <g id="line2d_46">
    <path clip-path="url(#p96b4c97df3)" d="M 333.316431 32.910852 
L 337.558924 32.910852 
L 342.225665 32.910852 
L 346.468157 32.910852 
L 351.134898 32.910852 
L 355.37739 32.910852 
L 360.044132 32.910852 
L 364.286624 32.910852 
L 368.953365 32.910852 
L 373.195857 32.910852 
L 377.862599 32.910852 
L 382.105091 32.910852 
L 386.771832 32.910852 
L 391.014324 32.910852 
L 395.681065 32.910852 
L 399.923558 32.910852 
L 404.590299 32.910852 
L 408.832791 32.910852 
L 413.499532 32.910852 
L 417.742025 32.910852 
L 422.408766 32.910852 
L 426.651258 32.910852 
L 431.317999 32.910852 
L 435.560491 32.910852 
L 440.227233 32.910852 
L 444.469725 32.910852 
L 449.136466 32.910852 
L 453.378958 32.910852 
L 458.0457 32.910852 
L 462.288192 32.910852 
L 466.954933 32.910852 
L 467.379182 39.566663 
L 467.379182 47.232674 
L 467.379182 53.791827 
L 467.803431 59.919939 
L 467.803431 65.779054 
L 467.803431 71.876147 
L 467.803431 77.127233 
L 467.803431 82.607573 
L 467.803431 87.340594 
L 467.803431 92.293244 
L 467.803431 96.581254 
L 467.803431 101.07892 
L 467.803431 104.981854 
L 467.803431 109.084472 
L 467.803431 112.651967 
L 467.803431 116.409391 
L 467.803431 119.682904 
L 467.803431 123.136937 
" style="fill:none;stroke:#1f77b4;stroke-linecap:square;stroke-width:1.5;"/>
   </g>
   <g id="line2d_47">
    <path clip-path="url(#p96b4c97df3)" d="M 344.77116 45.032004 
L 359.619883 48.249346 
L 373.195857 51.393104 
L 388.04458 55.918593 
L 402.044804 56.283072 
L 417.742025 54.473479 
L 434.287744 52.227599 
L 449.560715 49.835432 
L 464.409438 50.708576 
L 480.106659 49.558637 
L 495.37963 49.140637 
L 511.5011 48.312728 
L 526.349823 49.033834 
L 541.622794 49.623024 
L 546.289536 59.607438 
L 546.289536 73.361671 
L 546.289536 85.509571 
L 546.289536 96.57194 
L 546.289536 106.223247 
L 546.289536 114.916607 
L 546.289536 122.975157 
L 546.289536 130.119206 
L 546.289536 136.646725 
L 546.289536 142.634222 
L 546.713785 148.031728 
L 546.713785 153.121908 
L 547.138034 157.609425 
L 547.138034 162.104718 
L 547.138034 166.186488 
L 547.562283 169.792638 
L 547.562283 173.366756 
L 547.562283 176.800194 
L 547.562283 179.945886 
L 547.986532 182.726513 
L 547.986532 185.525604 
L 547.986532 188.23451 
L 547.986532 190.733771 
L 547.986532 193.102437 
L 547.986532 195.405218 
L 547.986532 197.538946 
L 547.986532 199.569346 
L 547.986532 201.550934 
L 547.986532 203.393832 
L 547.986532 205.153575 
L 547.986532 206.835668 
L 547.986532 208.484487 
L 547.986532 209.893101 
L 547.986532 211.37193 
L 547.986532 212.825562 
" style="fill:none;stroke:#ff7f0e;stroke-linecap:square;stroke-width:1.5;"/>
   </g>
   <g id="line2d_48">
    <path clip-path="url(#p96b4c97df3)" d="M 335.437677 32.910852 
L 341.801416 32.910852 
L 348.589403 32.910852 
L 354.953141 32.910852 
L 360.89263 32.910852 
L 367.680618 32.910852 
L 374.044356 32.910852 
L 374.892854 59.173347 
L 374.892854 84.752755 
L 374.892854 105.051253 
L 374.892854 119.659566 
L 374.892854 133.647448 
L 374.892854 144.728473 
L 374.892854 154.263309 
L 374.892854 163.06893 
L 374.892854 170.283901 
L 374.892854 176.669565 
L 374.892854 182.718656 
L 374.892854 187.787618 
L 374.892854 192.361242 
L 374.892854 196.771556 
L 374.892854 200.52701 
L 374.892854 203.963304 
L 374.892854 207.320752 
L 374.892854 210.214256 
L 374.892854 213.061464 
L 374.892854 215.531331 
L 374.892854 217.976366 
L 374.892854 220.246365 
L 374.892854 222.103356 
L 374.892854 223.971773 
L 374.892854 225.839178 
L 374.892854 227.482825 
L 374.892854 229.03201 
L 374.892854 230.589257 
L 374.892854 231.967337 
L 374.892854 233.27263 
L 374.892854 234.591036 
L 374.892854 235.914927 
L 374.892854 236.877848 
L 374.892854 238.077186 
L 374.892854 239.017406 
L 374.892854 239.980521 
L 375.317103 240.593153 
L 375.317103 241.478854 
L 375.317103 242.326919 
L 375.317103 243.192682 
L 375.317103 243.970194 
L 375.317103 244.765398 
" style="fill:none;stroke:#2ca02c;stroke-linecap:square;stroke-width:1.5;"/>
   </g>
   <g id="line2d_49">
    <path clip-path="url(#p96b4c97df3)" d="M 333.740681 32.910852 
L 334.589179 32.910852 
L 335.437677 32.910852 
L 336.286176 32.910852 
L 337.558924 32.910852 
L 338.407422 32.910852 
L 339.25592 32.910852 
L 340.104419 32.910852 
L 340.952917 32.910852 
L 342.225665 32.910852 
L 343.074163 32.910852 
L 343.922662 32.910852 
L 344.77116 32.910852 
L 346.043908 32.910852 
L 346.892406 32.910852 
L 347.740905 32.910852 
L 348.589403 32.910852 
L 349.437901 32.910852 
L 350.710649 32.910852 
L 351.559147 32.910852 
L 352.407646 32.910852 
L 353.256144 32.910852 
L 354.528892 32.910852 
L 355.37739 32.910852 
L 356.225889 32.910852 
L 357.074387 32.910852 
L 357.922886 32.910852 
L 359.195633 32.910852 
L 360.044132 32.910852 
L 360.89263 32.910852 
L 361.741129 32.910852 
L 363.013876 32.910852 
L 363.862375 32.910852 
L 364.710873 32.910852 
L 365.559371 32.910852 
L 366.40787 32.910852 
L 367.680618 32.910852 
L 368.529116 32.910852 
L 369.377614 32.910852 
L 370.226113 32.910852 
L 371.49886 32.910852 
L 372.347359 32.910852 
L 373.195857 32.910852 
L 374.044356 32.910852 
L 374.468605 37.428736 
" style="fill:none;stroke:#d62728;stroke-linecap:square;stroke-width:1.5;"/>
   </g>
   <g id="line2d_50">
    <path clip-path="url(#p96b4c97df3)" d="M 547.986532 212.825562 
L 547.986532 212.825562 
L 547.986532 212.825562 
L 547.986532 212.825562 
L 547.986532 212.825562 
L 547.986532 212.825562 
L 547.986532 212.825562 
L 547.986532 212.825562 
L 547.986532 212.825562 
L 547.986532 212.825562 
L 547.986532 212.825562 
L 547.986532 212.825562 
L 547.986532 212.825562 
L 547.986532 212.825562 
L 547.986532 212.825562 
L 547.986532 212.825562 
L 547.986532 212.825562 
L 547.986532 212.825562 
L 547.986532 212.825562 
L 547.986532 212.825562 
L 547.986532 212.825562 
L 542.895542 164.938327 
L 536.956053 163.775838 
L 531.865062 162.13181 
L 528.471069 159.617769 
L 525.925573 156.895956 
L 521.258832 154.742791 
L 514.470845 153.514943 
L 508.955605 151.431957 
L 504.713113 148.520469 
L 499.197873 145.798964 
L 494.106883 142.777569 
L 488.591643 139.196539 
L 483.500652 136.766228 
L 477.561163 133.536443 
L 472.894422 128.785941 
L 464.833687 127.277717 
L 458.469949 122.75513 
L 451.681961 117.977311 
L 443.621226 113.683438 
L 434.711993 109.577969 
L 425.80276 105.224966 
L 414.348031 104.031601 
L 405.438797 95.545149 
L 393.13557 94.416694 
L 382.52934 86.595581 
L 371.92311 71.928939 
L 357.498636 72.790937 
L 344.346911 57.153155 
" style="fill:none;stroke:#ff7f0e;stroke-dasharray:1.5,2.475;stroke-dashoffset:0;stroke-width:1.5;"/>
   </g>
   <g id="line2d_51">
    <path clip-path="url(#p96b4c97df3)" d="M 374.468605 37.428736 
L 374.468605 32.910852 
L 373.195857 32.910852 
L 372.347359 32.910852 
L 371.92311 32.910852 
L 370.650362 32.910852 
L 369.377614 32.910852 
L 368.529116 32.910852 
L 367.680618 32.910852 
L 366.40787 32.910852 
L 365.559371 32.910852 
L 365.559371 32.910852 
L 363.862375 32.910852 
L 363.013876 32.910852 
L 361.741129 32.910852 
L 360.89263 32.910852 
L 360.044132 32.910852 
L 360.044132 32.910852 
L 358.347135 32.910852 
L 358.347135 32.910852 
L 358.347135 32.910852 
L 355.80164 32.910852 
L 354.528892 32.910852 
L 353.680394 32.910852 
L 352.407646 32.910852 
L 352.407646 32.910852 
L 350.710649 32.910852 
L 350.710649 32.910852 
L 349.013652 32.910852 
L 348.165154 32.910852 
L 346.892406 32.910852 
L 346.892406 32.910852 
L 344.77116 32.910852 
L 344.346911 32.910852 
L 343.498412 32.910852 
L 342.225665 32.910852 
L 341.377166 32.910852 
L 340.104419 32.910852 
L 339.68017 32.910852 
L 338.831671 32.910852 
L 337.558924 32.910852 
L 336.286176 32.910852 
L 335.437677 32.910852 
L 335.013428 32.910852 
L 334.16493 32.910852 
L 332.892182 32.910852 
" style="fill:none;stroke:#d62728;stroke-dasharray:1.5,2.475;stroke-dashoffset:0;stroke-width:1.5;"/>
   </g>
   <g id="line2d_52">
    <g clip-path="url(#p96b4c97df3)">
     <use style="fill:#ff7f0e;stroke:#ff7f0e;" x="410.105539" xlink:href="#ma47ef80c71" y="58.219367"/>
    </g>
   </g>
   <g id="line2d_53">
    <g clip-path="url(#p96b4c97df3)">
     <use style="fill:#d62728;stroke:#d62728;" x="374.468605" xlink:href="#m63613f1798" y="32.910852"/>
    </g>
   </g>
   <g id="patch_7">
    <path d="M 322.137465 255.358125 
L 322.137465 22.318125 
" style="fill:none;stroke:#000000;stroke-linecap:square;stroke-linejoin:miter;stroke-width:0.8;"/>
   </g>
   <g id="patch_8">
    <path d="M 322.137465 255.358125 
L 558.74125 255.358125 
" style="fill:none;stroke:#000000;stroke-linecap:square;stroke-linejoin:miter;stroke-width:0.8;"/>
   </g>
   <g id="text_31">
    <!-- 30 - 50 -->
    <defs>
     <path d="M 10.796875 72.90625 
L 49.515625 72.90625 
L 49.515625 64.59375 
L 19.828125 64.59375 
L 19.828125 46.734375 
Q 21.96875 47.46875 24.109375 47.828125 
Q 26.265625 48.1875 28.421875 48.1875 
Q 40.625 48.1875 47.75 41.5 
Q 54.890625 34.8125 54.890625 23.390625 
Q 54.890625 11.625 47.5625 5.09375 
Q 40.234375 -1.421875 26.90625 -1.421875 
Q 22.3125 -1.421875 17.546875 -0.640625 
Q 12.796875 0.140625 7.71875 1.703125 
L 7.71875 11.625 
Q 12.109375 9.234375 16.796875 8.0625 
Q 21.484375 6.890625 26.703125 6.890625 
Q 35.15625 6.890625 40.078125 11.328125 
Q 45.015625 15.765625 45.015625 23.390625 
Q 45.015625 31 40.078125 35.4375 
Q 35.15625 39.890625 26.703125 39.890625 
Q 22.75 39.890625 18.8125 39.015625 
Q 14.890625 38.140625 10.796875 36.28125 
z
" id="DejaVuSans-53"/>
    </defs>
    <g transform="translate(419.19092 16.318125)scale(0.12 -0.12)">
     <use xlink:href="#DejaVuSans-51"/>
     <use x="63.623047" xlink:href="#DejaVuSans-48"/>
     <use x="127.246094" xlink:href="#DejaVuSans-32"/>
     <use x="159.033203" xlink:href="#DejaVuSans-45"/>
     <use x="195.117188" xlink:href="#DejaVuSans-32"/>
     <use x="226.904297" xlink:href="#DejaVuSans-53"/>
     <use x="290.527344" xlink:href="#DejaVuSans-48"/>
    </g>
   </g>
  </g>
  <g id="axes_3">
   <g id="patch_9">
    <path d="M 43.78125 530.918125 
L 280.385035 530.918125 
L 280.385035 297.878125 
L 43.78125 297.878125 
z
" style="fill:#ffffff;"/>
   </g>
   <g id="matplotlib.axis_5">
    <g id="xtick_10">
     <g id="line2d_54">
      <g>
       <use style="stroke:#000000;stroke-width:0.8;" x="91.045403" xlink:href="#mb068a71eff" y="530.918125"/>
      </g>
     </g>
     <g id="text_32">
      <!-- 0.05 -->
      <g transform="translate(79.912591 545.516562)scale(0.1 -0.1)">
       <use xlink:href="#DejaVuSans-48"/>
       <use x="63.623047" xlink:href="#DejaVuSans-46"/>
       <use x="95.410156" xlink:href="#DejaVuSans-48"/>
       <use x="159.033203" xlink:href="#DejaVuSans-53"/>
      </g>
     </g>
    </g>
    <g id="xtick_11">
     <g id="line2d_55">
      <g>
       <use style="stroke:#000000;stroke-width:0.8;" x="153.026538" xlink:href="#mb068a71eff" y="530.918125"/>
      </g>
     </g>
     <g id="text_33">
      <!-- 0.10 -->
      <g transform="translate(141.893726 545.516562)scale(0.1 -0.1)">
       <use xlink:href="#DejaVuSans-48"/>
       <use x="63.623047" xlink:href="#DejaVuSans-46"/>
       <use x="95.410156" xlink:href="#DejaVuSans-49"/>
       <use x="159.033203" xlink:href="#DejaVuSans-48"/>
      </g>
     </g>
    </g>
    <g id="xtick_12">
     <g id="line2d_56">
      <g>
       <use style="stroke:#000000;stroke-width:0.8;" x="215.007674" xlink:href="#mb068a71eff" y="530.918125"/>
      </g>
     </g>
     <g id="text_34">
      <!-- 0.15 -->
      <g transform="translate(203.874861 545.516562)scale(0.1 -0.1)">
       <use xlink:href="#DejaVuSans-48"/>
       <use x="63.623047" xlink:href="#DejaVuSans-46"/>
       <use x="95.410156" xlink:href="#DejaVuSans-49"/>
       <use x="159.033203" xlink:href="#DejaVuSans-53"/>
      </g>
     </g>
    </g>
    <g id="xtick_13">
     <g id="line2d_57">
      <g>
       <use style="stroke:#000000;stroke-width:0.8;" x="276.988809" xlink:href="#mb068a71eff" y="530.918125"/>
      </g>
     </g>
     <g id="text_35">
      <!-- 0.20 -->
      <g transform="translate(265.855996 545.516562)scale(0.1 -0.1)">
       <use xlink:href="#DejaVuSans-48"/>
       <use x="63.623047" xlink:href="#DejaVuSans-46"/>
       <use x="95.410156" xlink:href="#DejaVuSans-50"/>
       <use x="159.033203" xlink:href="#DejaVuSans-48"/>
      </g>
     </g>
    </g>
    <g id="text_36">
     <!-- recall -->
     <g transform="translate(148.361268 559.194687)scale(0.1 -0.1)">
      <use xlink:href="#DejaVuSans-114"/>
      <use x="41.082031" xlink:href="#DejaVuSans-101"/>
      <use x="102.605469" xlink:href="#DejaVuSans-99"/>
      <use x="157.585938" xlink:href="#DejaVuSans-97"/>
      <use x="218.865234" xlink:href="#DejaVuSans-108"/>
      <use x="246.648438" xlink:href="#DejaVuSans-108"/>
     </g>
    </g>
   </g>
   <g id="matplotlib.axis_6">
    <g id="ytick_11">
     <g id="line2d_58">
      <g>
       <use style="stroke:#000000;stroke-width:0.8;" x="43.78125" xlink:href="#m1b940cba57" y="498.587279"/>
      </g>
     </g>
     <g id="text_37">
      <!-- 0.2 -->
      <g transform="translate(20.878125 502.386498)scale(0.1 -0.1)">
       <use xlink:href="#DejaVuSans-48"/>
       <use x="63.623047" xlink:href="#DejaVuSans-46"/>
       <use x="95.410156" xlink:href="#DejaVuSans-50"/>
      </g>
     </g>
    </g>
    <g id="ytick_12">
     <g id="line2d_59">
      <g>
       <use style="stroke:#000000;stroke-width:0.8;" x="43.78125" xlink:href="#m1b940cba57" y="451.058172"/>
      </g>
     </g>
     <g id="text_38">
      <!-- 0.4 -->
      <g transform="translate(20.878125 454.857391)scale(0.1 -0.1)">
       <use xlink:href="#DejaVuSans-48"/>
       <use x="63.623047" xlink:href="#DejaVuSans-46"/>
       <use x="95.410156" xlink:href="#DejaVuSans-52"/>
      </g>
     </g>
    </g>
    <g id="ytick_13">
     <g id="line2d_60">
      <g>
       <use style="stroke:#000000;stroke-width:0.8;" x="43.78125" xlink:href="#m1b940cba57" y="403.529066"/>
      </g>
     </g>
     <g id="text_39">
      <!-- 0.6 -->
      <g transform="translate(20.878125 407.328284)scale(0.1 -0.1)">
       <use xlink:href="#DejaVuSans-48"/>
       <use x="63.623047" xlink:href="#DejaVuSans-46"/>
       <use x="95.410156" xlink:href="#DejaVuSans-54"/>
      </g>
     </g>
    </g>
    <g id="ytick_14">
     <g id="line2d_61">
      <g>
       <use style="stroke:#000000;stroke-width:0.8;" x="43.78125" xlink:href="#m1b940cba57" y="355.999959"/>
      </g>
     </g>
     <g id="text_40">
      <!-- 0.8 -->
      <g transform="translate(20.878125 359.799178)scale(0.1 -0.1)">
       <use xlink:href="#DejaVuSans-48"/>
       <use x="63.623047" xlink:href="#DejaVuSans-46"/>
       <use x="95.410156" xlink:href="#DejaVuSans-56"/>
      </g>
     </g>
    </g>
    <g id="ytick_15">
     <g id="line2d_62">
      <g>
       <use style="stroke:#000000;stroke-width:0.8;" x="43.78125" xlink:href="#m1b940cba57" y="308.470852"/>
      </g>
     </g>
     <g id="text_41">
      <!-- 1.0 -->
      <g transform="translate(20.878125 312.270071)scale(0.1 -0.1)">
       <use xlink:href="#DejaVuSans-49"/>
       <use x="63.623047" xlink:href="#DejaVuSans-46"/>
       <use x="95.410156" xlink:href="#DejaVuSans-48"/>
      </g>
     </g>
    </g>
    <g id="text_42">
     <!-- precision -->
     <g transform="translate(14.798438 437.062969)rotate(-90)scale(0.1 -0.1)">
      <use xlink:href="#DejaVuSans-112"/>
      <use x="63.476562" xlink:href="#DejaVuSans-114"/>
      <use x="104.558594" xlink:href="#DejaVuSans-101"/>
      <use x="166.082031" xlink:href="#DejaVuSans-99"/>
      <use x="221.0625" xlink:href="#DejaVuSans-105"/>
      <use x="248.845703" xlink:href="#DejaVuSans-115"/>
      <use x="300.945312" xlink:href="#DejaVuSans-105"/>
      <use x="328.728516" xlink:href="#DejaVuSans-111"/>
      <use x="389.910156" xlink:href="#DejaVuSans-110"/>
     </g>
    </g>
   </g>
   <g id="line2d_63">
    <path clip-path="url(#p2607a43574)" d="M 54.535968 332.235406 
L 54.535968 332.235406 
L 54.535968 332.235406 
L 54.535968 351.679131 
L 54.535968 351.679131 
L 54.535968 367.882236 
L 54.535968 367.882236 
L 54.535968 381.592555 
L 54.535968 381.592555 
L 54.535968 381.592555 
L 54.535968 393.344257 
L 54.535968 393.344257 
L 54.535968 403.529066 
L 54.535968 403.529066 
L 54.535968 412.440773 
L 54.535968 412.440773 
L 54.535968 412.440773 
L 54.535968 420.304045 
L 54.535968 420.304045 
L 54.535968 427.293619 
L 54.535968 427.293619 
L 54.535968 433.547449 
L 54.535968 433.547449 
L 54.535968 433.547449 
L 54.535968 439.175896 
L 54.535968 439.175896 
L 54.535968 444.2683 
L 54.535968 444.2683 
L 54.535968 448.897758 
" style="fill:none;stroke:#1f77b4;stroke-linecap:square;stroke-width:1.5;"/>
   </g>
   <g id="line2d_64">
    <path clip-path="url(#p2607a43574)" d="M 65.856723 353.02939 
L 85.668045 339.468096 
L 102.649177 339.134792 
L 116.800122 345.993831 
L 139.441632 339.468096 
L 159.252954 339.276755 
L 173.403898 343.533308 
L 196.045409 339.468096 
L 215.85673 336.613087 
L 235.668052 336.761987 
L 252.649185 337.197235 
L 266.800129 339.676831 
L 266.800129 355.111564 
L 269.630318 364.755321 
L 269.630318 376.64785 
L 269.630318 385.843817 
L 269.630318 395.202799 
L 269.630318 402.538876 
L 269.630318 410.095587 
L 269.630318 416.896627 
L 269.630318 422.313024 
L 269.630318 427.972606 
L 269.630318 432.516598 
L 269.630318 437.299747 
L 269.630318 441.166328 
L 269.630318 445.26194 
L 269.630318 449.0499 
L 269.630318 452.138379 
L 269.630318 455.435853 
L 269.630318 458.136976 
L 269.630318 461.033417 
L 269.630318 463.41574 
L 269.630318 465.980101 
L 269.630318 468.096909 
L 269.630318 470.383194 
L 269.630318 472.539299 
L 269.630318 474.327631 
L 269.630318 476.267868 
L 269.630318 477.88153 
L 269.630318 479.636767 
L 269.630318 481.303968 
L 269.630318 482.695645 
L 269.630318 484.214705 
L 269.630318 485.485414 
L 269.630318 486.875236 
L 269.630318 488.04009 
L 269.630318 489.316492 
L 269.630318 490.537995 
" style="fill:none;stroke:#ff7f0e;stroke-linecap:square;stroke-width:1.5;"/>
   </g>
   <g id="line2d_65">
    <path clip-path="url(#p2607a43574)" d="M 60.196345 308.470852 
L 65.856723 308.470852 
L 65.856723 338.176544 
L 65.856723 379.764512 
L 65.856723 387.68603 
L 65.856723 407.489825 
L 65.856723 427.293619 
L 65.856723 431.390956 
L 65.856723 445.297069 
L 65.856723 451.058172 
L 65.856723 456.196454 
L 65.856723 462.940449 
L 65.856723 466.901208 
L 65.856723 472.18222 
L 65.856723 476.803105 
L 65.856723 480.880357 
L 65.856723 484.504581 
L 65.856723 486.705002 
L 65.856723 488.753671 
L 65.856723 491.574788 
L 65.856723 493.306267 
L 65.856723 495.706727 
L 65.856723 497.189364 
L 65.856723 499.256703 
L 65.856723 501.15642 
L 65.856723 502.339577 
L 65.856723 504.001988 
L 65.856723 505.041849 
L 65.856723 506.508797 
L 65.856723 508.309142 
L 65.856723 509.149303 
L 65.856723 509.952935 
L 65.856723 511.459746 
L 65.856723 511.817031 
L 65.856723 512.846011 
L 65.856723 513.498371 
L 65.856723 514.430315 
L 65.856723 515.310483 
L 65.856723 515.870591 
L 65.856723 516.673576 
L 65.856723 517.185625 
L 65.856723 517.921153 
L 65.856723 518.620208 
L 65.856723 519.067301 
L 65.856723 519.711327 
L 65.856723 520.325398 
" style="fill:none;stroke:#2ca02c;stroke-linecap:square;stroke-width:1.5;"/>
   </g>
   <g id="line2d_66">
    <path clip-path="url(#p2607a43574)" d="M 269.630318 490.537995 
L 269.630318 490.537995 
L 269.630318 490.537995 
L 269.630318 490.537995 
L 269.630318 490.537995 
L 269.630318 490.537995 
L 269.630318 490.537995 
L 269.630318 490.537995 
L 269.630318 490.537995 
L 269.630318 490.537995 
L 269.630318 490.537995 
L 269.630318 490.537995 
L 269.630318 490.537995 
L 269.630318 490.537995 
L 269.630318 490.537995 
L 269.630318 490.537995 
L 269.630318 490.537995 
L 269.630318 490.537995 
L 269.630318 490.537995 
L 269.630318 490.537995 
L 269.630318 490.537995 
L 269.630318 490.537995 
L 269.630318 490.537995 
L 261.139751 444.785295 
L 249.818996 446.055109 
L 241.32843 446.879789 
L 232.837863 447.5475 
L 227.177486 445.081458 
L 227.177486 441.316182 
L 221.517108 439.801279 
L 218.686919 435.5452 
L 213.026541 433.364855 
L 207.366164 430.056939 
L 204.535975 425.345705 
L 198.875597 421.039789 
L 193.21522 417.299181 
L 193.21522 406.88971 
L 187.554842 399.872981 
L 181.894464 393.344257 
L 170.573709 389.77064 
L 167.74352 377.353616 
L 153.592576 374.699935 
L 139.441632 374.4835 
L 128.120877 365.299132 
L 122.460499 339.740001 
L 108.309555 331.468807 
L 88.498233 329.135681 
L 68.686912 338.176544 
" style="fill:none;stroke:#ff7f0e;stroke-dasharray:1.5,2.475;stroke-dashoffset:0;stroke-width:1.5;"/>
   </g>
   <g id="line2d_67">
    <g clip-path="url(#p2607a43574)">
     <use style="fill:#ff7f0e;stroke:#ff7f0e;" x="116.800122" xlink:href="#ma47ef80c71" y="322.873612"/>
    </g>
   </g>
   <g id="patch_10">
    <path d="M 43.78125 530.918125 
L 43.78125 297.878125 
" style="fill:none;stroke:#000000;stroke-linecap:square;stroke-linejoin:miter;stroke-width:0.8;"/>
   </g>
   <g id="patch_11">
    <path d="M 43.78125 530.918125 
L 280.385035 530.918125 
" style="fill:none;stroke:#000000;stroke-linecap:square;stroke-linejoin:miter;stroke-width:0.8;"/>
   </g>
   <g id="text_43">
    <!-- 50 - 70 -->
    <defs>
     <path d="M 8.203125 72.90625 
L 55.078125 72.90625 
L 55.078125 68.703125 
L 28.609375 0 
L 18.3125 0 
L 43.21875 64.59375 
L 8.203125 64.59375 
z
" id="DejaVuSans-55"/>
    </defs>
    <g transform="translate(140.834705 291.878125)scale(0.12 -0.12)">
     <use xlink:href="#DejaVuSans-53"/>
     <use x="63.623047" xlink:href="#DejaVuSans-48"/>
     <use x="127.246094" xlink:href="#DejaVuSans-32"/>
     <use x="159.033203" xlink:href="#DejaVuSans-45"/>
     <use x="195.117188" xlink:href="#DejaVuSans-32"/>
     <use x="226.904297" xlink:href="#DejaVuSans-55"/>
     <use x="290.527344" xlink:href="#DejaVuSans-48"/>
    </g>
   </g>
  </g>
  <g id="axes_4">
   <g id="patch_12">
    <path d="M 322.137465 530.918125 
L 558.74125 530.918125 
L 558.74125 297.878125 
L 322.137465 297.878125 
z
" style="fill:#ffffff;"/>
   </g>
   <g id="matplotlib.axis_7">
    <g id="xtick_14">
     <g id="line2d_68">
      <g>
       <use style="stroke:#000000;stroke-width:0.8;" x="322.649594" xlink:href="#mb068a71eff" y="530.918125"/>
      </g>
     </g>
     <g id="text_44">
      <!-- 0.00 -->
      <g transform="translate(311.516782 545.516562)scale(0.1 -0.1)">
       <use xlink:href="#DejaVuSans-48"/>
       <use x="63.623047" xlink:href="#DejaVuSans-46"/>
       <use x="95.410156" xlink:href="#DejaVuSans-48"/>
       <use x="159.033203" xlink:href="#DejaVuSans-48"/>
      </g>
     </g>
    </g>
    <g id="xtick_15">
     <g id="line2d_69">
      <g>
       <use style="stroke:#000000;stroke-width:0.8;" x="383.490567" xlink:href="#mb068a71eff" y="530.918125"/>
      </g>
     </g>
     <g id="text_45">
      <!-- 0.02 -->
      <g transform="translate(372.357755 545.516562)scale(0.1 -0.1)">
       <use xlink:href="#DejaVuSans-48"/>
       <use x="63.623047" xlink:href="#DejaVuSans-46"/>
       <use x="95.410156" xlink:href="#DejaVuSans-48"/>
       <use x="159.033203" xlink:href="#DejaVuSans-50"/>
      </g>
     </g>
    </g>
    <g id="xtick_16">
     <g id="line2d_70">
      <g>
       <use style="stroke:#000000;stroke-width:0.8;" x="444.331541" xlink:href="#mb068a71eff" y="530.918125"/>
      </g>
     </g>
     <g id="text_46">
      <!-- 0.04 -->
      <g transform="translate(433.198728 545.516562)scale(0.1 -0.1)">
       <use xlink:href="#DejaVuSans-48"/>
       <use x="63.623047" xlink:href="#DejaVuSans-46"/>
       <use x="95.410156" xlink:href="#DejaVuSans-48"/>
       <use x="159.033203" xlink:href="#DejaVuSans-52"/>
      </g>
     </g>
    </g>
    <g id="xtick_17">
     <g id="line2d_71">
      <g>
       <use style="stroke:#000000;stroke-width:0.8;" x="505.172514" xlink:href="#mb068a71eff" y="530.918125"/>
      </g>
     </g>
     <g id="text_47">
      <!-- 0.06 -->
      <g transform="translate(494.039702 545.516562)scale(0.1 -0.1)">
       <use xlink:href="#DejaVuSans-48"/>
       <use x="63.623047" xlink:href="#DejaVuSans-46"/>
       <use x="95.410156" xlink:href="#DejaVuSans-48"/>
       <use x="159.033203" xlink:href="#DejaVuSans-54"/>
      </g>
     </g>
    </g>
    <g id="text_48">
     <!-- recall -->
     <g transform="translate(426.717482 559.194687)scale(0.1 -0.1)">
      <use xlink:href="#DejaVuSans-114"/>
      <use x="41.082031" xlink:href="#DejaVuSans-101"/>
      <use x="102.605469" xlink:href="#DejaVuSans-99"/>
      <use x="157.585938" xlink:href="#DejaVuSans-97"/>
      <use x="218.865234" xlink:href="#DejaVuSans-108"/>
      <use x="246.648438" xlink:href="#DejaVuSans-108"/>
     </g>
    </g>
   </g>
   <g id="matplotlib.axis_8">
    <g id="ytick_16">
     <g id="line2d_72">
      <g>
       <use style="stroke:#000000;stroke-width:0.8;" x="322.137465" xlink:href="#m1b940cba57" y="523.635625"/>
      </g>
     </g>
     <g id="text_49">
      <!-- 0.0 -->
      <g transform="translate(299.23434 527.434844)scale(0.1 -0.1)">
       <use xlink:href="#DejaVuSans-48"/>
       <use x="63.623047" xlink:href="#DejaVuSans-46"/>
       <use x="95.410156" xlink:href="#DejaVuSans-48"/>
      </g>
     </g>
    </g>
    <g id="ytick_17">
     <g id="line2d_73">
      <g>
       <use style="stroke:#000000;stroke-width:0.8;" x="322.137465" xlink:href="#m1b940cba57" y="480.60267"/>
      </g>
     </g>
     <g id="text_50">
      <!-- 0.2 -->
      <g transform="translate(299.23434 484.401889)scale(0.1 -0.1)">
       <use xlink:href="#DejaVuSans-48"/>
       <use x="63.623047" xlink:href="#DejaVuSans-46"/>
       <use x="95.410156" xlink:href="#DejaVuSans-50"/>
      </g>
     </g>
    </g>
    <g id="ytick_18">
     <g id="line2d_74">
      <g>
       <use style="stroke:#000000;stroke-width:0.8;" x="322.137465" xlink:href="#m1b940cba57" y="437.569716"/>
      </g>
     </g>
     <g id="text_51">
      <!-- 0.4 -->
      <g transform="translate(299.23434 441.368935)scale(0.1 -0.1)">
       <use xlink:href="#DejaVuSans-48"/>
       <use x="63.623047" xlink:href="#DejaVuSans-46"/>
       <use x="95.410156" xlink:href="#DejaVuSans-52"/>
      </g>
     </g>
    </g>
    <g id="ytick_19">
     <g id="line2d_75">
      <g>
       <use style="stroke:#000000;stroke-width:0.8;" x="322.137465" xlink:href="#m1b940cba57" y="394.536761"/>
      </g>
     </g>
     <g id="text_52">
      <!-- 0.6 -->
      <g transform="translate(299.23434 398.33598)scale(0.1 -0.1)">
       <use xlink:href="#DejaVuSans-48"/>
       <use x="63.623047" xlink:href="#DejaVuSans-46"/>
       <use x="95.410156" xlink:href="#DejaVuSans-54"/>
      </g>
     </g>
    </g>
    <g id="ytick_20">
     <g id="line2d_76">
      <g>
       <use style="stroke:#000000;stroke-width:0.8;" x="322.137465" xlink:href="#m1b940cba57" y="351.503807"/>
      </g>
     </g>
     <g id="text_53">
      <!-- 0.8 -->
      <g transform="translate(299.23434 355.303026)scale(0.1 -0.1)">
       <use xlink:href="#DejaVuSans-48"/>
       <use x="63.623047" xlink:href="#DejaVuSans-46"/>
       <use x="95.410156" xlink:href="#DejaVuSans-56"/>
      </g>
     </g>
    </g>
    <g id="ytick_21">
     <g id="line2d_77">
      <g>
       <use style="stroke:#000000;stroke-width:0.8;" x="322.137465" xlink:href="#m1b940cba57" y="308.470852"/>
      </g>
     </g>
     <g id="text_54">
      <!-- 1.0 -->
      <g transform="translate(299.23434 312.270071)scale(0.1 -0.1)">
       <use xlink:href="#DejaVuSans-49"/>
       <use x="63.623047" xlink:href="#DejaVuSans-46"/>
       <use x="95.410156" xlink:href="#DejaVuSans-48"/>
      </g>
     </g>
    </g>
   </g>
   <g id="line2d_78">
    <path clip-path="url(#p030e32e4b2)" d="M 425.075475 308.470852 
L 455.803239 308.470852 
L 486.531004 308.470852 
L 517.258768 308.470852 
L 537.743944 318.251069 
L 547.986532 334.290625 
L 547.986532 354.577589 
L 547.986532 370.938044 
L 547.986532 384.41136 
L 547.986532 395.699814 
L 547.986532 405.295 
L 547.986532 413.551323 
L 547.986532 420.730734 
L 547.986532 427.031033 
L 547.986532 432.604375 
L 547.986532 437.569716 
L 547.986532 442.021401 
L 547.986532 446.035215 
L 547.986532 449.672734 
L 547.986532 452.984506 
L 547.986532 456.012411 
L 547.986532 458.791447 
L 547.986532 462.159976 
L 547.986532 464.465312 
L 547.986532 466.603998 
L 547.986532 468.593474 
L 547.986532 470.448827 
L 547.986532 472.183179 
L 547.986532 473.807993 
L 547.986532 475.333329 
L 547.986532 476.768051 
L 547.986532 478.12 
L 547.986532 479.396139 
L 547.986532 480.60267 
L 547.986532 481.745138 
L 547.986532 482.828513 
L 547.986532 483.857264 
L 547.986532 484.83542 
L 547.986532 485.766625 
L 547.986532 486.65418 
L 547.986532 487.501083 
L 547.986532 488.310065 
L 547.986532 489.083618 
L 547.986532 489.824018 
L 547.986532 490.533352 
L 547.986532 491.213536 
L 547.986532 492.078125 
" style="fill:none;stroke:#ff7f0e;stroke-linecap:square;stroke-width:1.5;"/>
   </g>
   <g id="line2d_79">
    <path clip-path="url(#p030e32e4b2)" d="M 332.892182 502.119148 
L 332.892182 504.075191 
L 332.892182 505.705227 
L 332.892182 508.266713 
L 332.892182 509.291307 
L 332.892182 510.187827 
L 332.892182 510.978874 
L 332.892182 512.311163 
L 332.892182 513.389683 
L 332.892182 513.389683 
L 332.892182 513.855408 
L 332.892182 514.670426 
L 332.892182 515.029034 
L 332.892182 515.951169 
L 332.892182 515.951169 
L 332.892182 516.21615 
L 332.892182 516.694826 
L 332.892182 516.911726 
L 332.892182 517.11548 
L 332.892182 517.48806 
L 332.892182 517.658826 
L 332.892182 517.973394 
L 332.892182 517.973394 
L 332.892182 518.256506 
L 332.892182 518.387704 
L 332.892182 518.512654 
L 332.892182 518.745517 
L 332.892182 518.854186 
L 332.892182 518.95813 
L 332.892182 519.153026 
L 332.892182 519.244507 
L 332.892182 519.33233 
L 332.892182 519.497841 
L 332.892182 519.575912 
L 332.892182 519.723538 
L 332.892182 519.723538 
L 332.892182 519.860804 
L 332.892182 519.988764 
L 332.892182 519.988764 
L 332.892182 520.165225 
L 332.892182 520.165225 
L 332.892182 520.220311 
L 332.892182 520.325398 
" style="fill:none;stroke:#2ca02c;stroke-linecap:square;stroke-width:1.5;"/>
   </g>
   <g id="line2d_80">
    <path clip-path="url(#p030e32e4b2)" d="M 547.986532 492.078125 
L 547.986532 492.078125 
L 547.986532 492.078125 
L 547.986532 492.078125 
L 547.986532 492.078125 
L 547.986532 492.078125 
L 547.986532 492.078125 
L 547.986532 492.078125 
L 547.986532 492.078125 
L 547.986532 492.078125 
L 547.986532 492.078125 
L 547.986532 492.078125 
L 547.986532 492.078125 
L 547.986532 492.078125 
L 547.986532 492.078125 
L 547.986532 492.078125 
L 547.986532 492.078125 
L 547.986532 492.078125 
L 547.986532 492.078125 
L 547.986532 492.078125 
L 547.986532 470.448827 
L 547.986532 468.593474 
L 527.501356 471.788692 
L 527.501356 469.844432 
L 527.501356 467.748671 
L 527.501356 464.686372 
L 507.01618 468.307541 
L 507.01618 465.830164 
L 496.773592 466.482482 
L 476.288416 470.726255 
L 455.803239 475.409038 
L 455.803239 472.778497 
L 455.803239 469.844432 
L 455.803239 466.551093 
L 445.560651 467.505684 
L 445.560651 463.589642 
L 435.318063 464.465312 
L 425.075475 465.482984 
L 425.075475 460.351868 
L 414.832887 461.168433 
L 404.590299 462.159976 
L 404.590299 454.782898 
L 404.590299 445.393889 
L 394.347711 444.364393 
L 394.347711 429.501037 
L 384.105123 424.328807 
L 373.862535 416.053239 
" style="fill:none;stroke:#ff7f0e;stroke-dasharray:1.5,2.475;stroke-dashoffset:0;stroke-width:1.5;"/>
   </g>
   <g id="patch_13">
    <path d="M 322.137465 530.918125 
L 322.137465 297.878125 
" style="fill:none;stroke:#000000;stroke-linecap:square;stroke-linejoin:miter;stroke-width:0.8;"/>
   </g>
   <g id="patch_14">
    <path d="M 322.137465 530.918125 
L 558.74125 530.918125 
" style="fill:none;stroke:#000000;stroke-linecap:square;stroke-linejoin:miter;stroke-width:0.8;"/>
   </g>
   <g id="text_55">
    <!-- 70 - 100 -->
    <g transform="translate(415.37342 291.878125)scale(0.12 -0.12)">
     <use xlink:href="#DejaVuSans-55"/>
     <use x="63.623047" xlink:href="#DejaVuSans-48"/>
     <use x="127.246094" xlink:href="#DejaVuSans-32"/>
     <use x="159.033203" xlink:href="#DejaVuSans-45"/>
     <use x="195.117188" xlink:href="#DejaVuSans-32"/>
     <use x="226.904297" xlink:href="#DejaVuSans-49"/>
     <use x="290.527344" xlink:href="#DejaVuSans-48"/>
     <use x="354.150391" xlink:href="#DejaVuSans-48"/>
    </g>
   </g>
  </g>
 </g>
 <defs>
  <clipPath id="pfa88cab1cc">
   <rect height="233.04" width="236.603785" x="43.78125" y="22.318125"/>
  </clipPath>
  <clipPath id="p96b4c97df3">
   <rect height="233.04" width="236.603785" x="322.137465" y="22.318125"/>
  </clipPath>
  <clipPath id="p2607a43574">
   <rect height="233.04" width="236.603785" x="43.78125" y="297.878125"/>
  </clipPath>
  <clipPath id="p030e32e4b2">
   <rect height="233.04" width="236.603785" x="322.137465" y="297.878125"/>
  </clipPath>
 </defs>
</svg>
