<?xml version="1.0" encoding="utf-8" standalone="no"?>
<!DOCTYPE svg PUBLIC "-//W3C//DTD SVG 1.1//EN"
  "http://www.w3.org/Graphics/SVG/1.1/DTD/svg11.dtd">
<!-- Created with matplotlib (https://matplotlib.org/) -->
<svg height="568.474375pt" version="1.1" viewBox="0 0 569.44125 568.474375" width="569.44125pt" xmlns="http://www.w3.org/2000/svg" xmlns:xlink="http://www.w3.org/1999/xlink">
 <defs>
  <style type="text/css">
*{stroke-linecap:butt;stroke-linejoin:round;}
  </style>
 </defs>
 <g id="figure_1">
  <g id="patch_1">
   <path d="M 0 568.474375 
L 569.44125 568.474375 
L 569.44125 0 
L 0 0 
z
" style="fill:#ffffff;"/>
  </g>
  <g id="axes_1">
   <g id="patch_2">
    <path d="M 43.78125 255.358125 
L 283.18125 255.358125 
L 283.18125 22.318125 
L 43.78125 22.318125 
z
" style="fill:#ffffff;"/>
   </g>
   <g id="matplotlib.axis_1">
    <g id="xtick_1">
     <g id="line2d_1">
      <defs>
       <path d="M 0 0 
L 0 3.5 
" id="m6f361dacc9" style="stroke:#000000;stroke-width:0.8;"/>
      </defs>
      <g>
       <use style="stroke:#000000;stroke-width:0.8;" x="54.506622" xlink:href="#m6f361dacc9" y="255.358125"/>
      </g>
     </g>
     <g id="text_1">
      <!-- 0.0 -->
      <defs>
       <path d="M 31.78125 66.40625 
Q 24.171875 66.40625 20.328125 58.90625 
Q 16.5 51.421875 16.5 36.375 
Q 16.5 21.390625 20.328125 13.890625 
Q 24.171875 6.390625 31.78125 6.390625 
Q 39.453125 6.390625 43.28125 13.890625 
Q 47.125 21.390625 47.125 36.375 
Q 47.125 51.421875 43.28125 58.90625 
Q 39.453125 66.40625 31.78125 66.40625 
z
M 31.78125 74.21875 
Q 44.046875 74.21875 50.515625 64.515625 
Q 56.984375 54.828125 56.984375 36.375 
Q 56.984375 17.96875 50.515625 8.265625 
Q 44.046875 -1.421875 31.78125 -1.421875 
Q 19.53125 -1.421875 13.0625 8.265625 
Q 6.59375 17.96875 6.59375 36.375 
Q 6.59375 54.828125 13.0625 64.515625 
Q 19.53125 74.21875 31.78125 74.21875 
z
" id="DejaVuSans-48"/>
       <path d="M 10.6875 12.40625 
L 21 12.40625 
L 21 0 
L 10.6875 0 
z
" id="DejaVuSans-46"/>
      </defs>
      <g transform="translate(46.555059 269.956562)scale(0.1 -0.1)">
       <use xlink:href="#DejaVuSans-48"/>
       <use x="63.623047" xlink:href="#DejaVuSans-46"/>
       <use x="95.410156" xlink:href="#DejaVuSans-48"/>
      </g>
     </g>
    </g>
    <g id="xtick_2">
     <g id="line2d_2">
      <g>
       <use style="stroke:#000000;stroke-width:0.8;" x="121.25297" xlink:href="#m6f361dacc9" y="255.358125"/>
      </g>
     </g>
     <g id="text_2">
      <!-- 0.2 -->
      <defs>
       <path d="M 19.1875 8.296875 
L 53.609375 8.296875 
L 53.609375 0 
L 7.328125 0 
L 7.328125 8.296875 
Q 12.9375 14.109375 22.625 23.890625 
Q 32.328125 33.6875 34.8125 36.53125 
Q 39.546875 41.84375 41.421875 45.53125 
Q 43.3125 49.21875 43.3125 52.78125 
Q 43.3125 58.59375 39.234375 62.25 
Q 35.15625 65.921875 28.609375 65.921875 
Q 23.96875 65.921875 18.8125 64.3125 
Q 13.671875 62.703125 7.8125 59.421875 
L 7.8125 69.390625 
Q 13.765625 71.78125 18.9375 73 
Q 24.125 74.21875 28.421875 74.21875 
Q 39.75 74.21875 46.484375 68.546875 
Q 53.21875 62.890625 53.21875 53.421875 
Q 53.21875 48.921875 51.53125 44.890625 
Q 49.859375 40.875 45.40625 35.40625 
Q 44.1875 33.984375 37.640625 27.21875 
Q 31.109375 20.453125 19.1875 8.296875 
z
" id="DejaVuSans-50"/>
      </defs>
      <g transform="translate(113.301408 269.956562)scale(0.1 -0.1)">
       <use xlink:href="#DejaVuSans-48"/>
       <use x="63.623047" xlink:href="#DejaVuSans-46"/>
       <use x="95.410156" xlink:href="#DejaVuSans-50"/>
      </g>
     </g>
    </g>
    <g id="xtick_3">
     <g id="line2d_3">
      <g>
       <use style="stroke:#000000;stroke-width:0.8;" x="187.999319" xlink:href="#m6f361dacc9" y="255.358125"/>
      </g>
     </g>
     <g id="text_3">
      <!-- 0.4 -->
      <defs>
       <path d="M 37.796875 64.3125 
L 12.890625 25.390625 
L 37.796875 25.390625 
z
M 35.203125 72.90625 
L 47.609375 72.90625 
L 47.609375 25.390625 
L 58.015625 25.390625 
L 58.015625 17.1875 
L 47.609375 17.1875 
L 47.609375 0 
L 37.796875 0 
L 37.796875 17.1875 
L 4.890625 17.1875 
L 4.890625 26.703125 
z
" id="DejaVuSans-52"/>
      </defs>
      <g transform="translate(180.047757 269.956562)scale(0.1 -0.1)">
       <use xlink:href="#DejaVuSans-48"/>
       <use x="63.623047" xlink:href="#DejaVuSans-46"/>
       <use x="95.410156" xlink:href="#DejaVuSans-52"/>
      </g>
     </g>
    </g>
    <g id="xtick_4">
     <g id="line2d_4">
      <g>
       <use style="stroke:#000000;stroke-width:0.8;" x="254.745668" xlink:href="#m6f361dacc9" y="255.358125"/>
      </g>
     </g>
     <g id="text_4">
      <!-- 0.6 -->
      <defs>
       <path d="M 33.015625 40.375 
Q 26.375 40.375 22.484375 35.828125 
Q 18.609375 31.296875 18.609375 23.390625 
Q 18.609375 15.53125 22.484375 10.953125 
Q 26.375 6.390625 33.015625 6.390625 
Q 39.65625 6.390625 43.53125 10.953125 
Q 47.40625 15.53125 47.40625 23.390625 
Q 47.40625 31.296875 43.53125 35.828125 
Q 39.65625 40.375 33.015625 40.375 
z
M 52.59375 71.296875 
L 52.59375 62.3125 
Q 48.875 64.0625 45.09375 64.984375 
Q 41.3125 65.921875 37.59375 65.921875 
Q 27.828125 65.921875 22.671875 59.328125 
Q 17.53125 52.734375 16.796875 39.40625 
Q 19.671875 43.65625 24.015625 45.921875 
Q 28.375 48.1875 33.59375 48.1875 
Q 44.578125 48.1875 50.953125 41.515625 
Q 57.328125 34.859375 57.328125 23.390625 
Q 57.328125 12.15625 50.6875 5.359375 
Q 44.046875 -1.421875 33.015625 -1.421875 
Q 20.359375 -1.421875 13.671875 8.265625 
Q 6.984375 17.96875 6.984375 36.375 
Q 6.984375 53.65625 15.1875 63.9375 
Q 23.390625 74.21875 37.203125 74.21875 
Q 40.921875 74.21875 44.703125 73.484375 
Q 48.484375 72.75 52.59375 71.296875 
z
" id="DejaVuSans-54"/>
      </defs>
      <g transform="translate(246.794105 269.956562)scale(0.1 -0.1)">
       <use xlink:href="#DejaVuSans-48"/>
       <use x="63.623047" xlink:href="#DejaVuSans-46"/>
       <use x="95.410156" xlink:href="#DejaVuSans-54"/>
      </g>
     </g>
    </g>
   </g>
   <g id="matplotlib.axis_2">
    <g id="ytick_1">
     <g id="line2d_5">
      <defs>
       <path d="M 0 0 
L -3.5 0 
" id="m1d6c5afc3d" style="stroke:#000000;stroke-width:0.8;"/>
      </defs>
      <g>
       <use style="stroke:#000000;stroke-width:0.8;" x="43.78125" xlink:href="#m1d6c5afc3d" y="232.511597"/>
      </g>
     </g>
     <g id="text_5">
      <!-- 0.2 -->
      <g transform="translate(20.878125 236.310816)scale(0.1 -0.1)">
       <use xlink:href="#DejaVuSans-48"/>
       <use x="63.623047" xlink:href="#DejaVuSans-46"/>
       <use x="95.410156" xlink:href="#DejaVuSans-50"/>
      </g>
     </g>
    </g>
    <g id="ytick_2">
     <g id="line2d_6">
      <g>
       <use style="stroke:#000000;stroke-width:0.8;" x="43.78125" xlink:href="#m1d6c5afc3d" y="182.611411"/>
      </g>
     </g>
     <g id="text_6">
      <!-- 0.4 -->
      <g transform="translate(20.878125 186.41063)scale(0.1 -0.1)">
       <use xlink:href="#DejaVuSans-48"/>
       <use x="63.623047" xlink:href="#DejaVuSans-46"/>
       <use x="95.410156" xlink:href="#DejaVuSans-52"/>
      </g>
     </g>
    </g>
    <g id="ytick_3">
     <g id="line2d_7">
      <g>
       <use style="stroke:#000000;stroke-width:0.8;" x="43.78125" xlink:href="#m1d6c5afc3d" y="132.711225"/>
      </g>
     </g>
     <g id="text_7">
      <!-- 0.6 -->
      <g transform="translate(20.878125 136.510443)scale(0.1 -0.1)">
       <use xlink:href="#DejaVuSans-48"/>
       <use x="63.623047" xlink:href="#DejaVuSans-46"/>
       <use x="95.410156" xlink:href="#DejaVuSans-54"/>
      </g>
     </g>
    </g>
    <g id="ytick_4">
     <g id="line2d_8">
      <g>
       <use style="stroke:#000000;stroke-width:0.8;" x="43.78125" xlink:href="#m1d6c5afc3d" y="82.811038"/>
      </g>
     </g>
     <g id="text_8">
      <!-- 0.8 -->
      <defs>
       <path d="M 31.78125 34.625 
Q 24.75 34.625 20.71875 30.859375 
Q 16.703125 27.09375 16.703125 20.515625 
Q 16.703125 13.921875 20.71875 10.15625 
Q 24.75 6.390625 31.78125 6.390625 
Q 38.8125 6.390625 42.859375 10.171875 
Q 46.921875 13.96875 46.921875 20.515625 
Q 46.921875 27.09375 42.890625 30.859375 
Q 38.875 34.625 31.78125 34.625 
z
M 21.921875 38.8125 
Q 15.578125 40.375 12.03125 44.71875 
Q 8.5 49.078125 8.5 55.328125 
Q 8.5 64.0625 14.71875 69.140625 
Q 20.953125 74.21875 31.78125 74.21875 
Q 42.671875 74.21875 48.875 69.140625 
Q 55.078125 64.0625 55.078125 55.328125 
Q 55.078125 49.078125 51.53125 44.71875 
Q 48 40.375 41.703125 38.8125 
Q 48.828125 37.15625 52.796875 32.3125 
Q 56.78125 27.484375 56.78125 20.515625 
Q 56.78125 9.90625 50.3125 4.234375 
Q 43.84375 -1.421875 31.78125 -1.421875 
Q 19.734375 -1.421875 13.25 4.234375 
Q 6.78125 9.90625 6.78125 20.515625 
Q 6.78125 27.484375 10.78125 32.3125 
Q 14.796875 37.15625 21.921875 38.8125 
z
M 18.3125 54.390625 
Q 18.3125 48.734375 21.84375 45.5625 
Q 25.390625 42.390625 31.78125 42.390625 
Q 38.140625 42.390625 41.71875 45.5625 
Q 45.3125 48.734375 45.3125 54.390625 
Q 45.3125 60.0625 41.71875 63.234375 
Q 38.140625 66.40625 31.78125 66.40625 
Q 25.390625 66.40625 21.84375 63.234375 
Q 18.3125 60.0625 18.3125 54.390625 
z
" id="DejaVuSans-56"/>
      </defs>
      <g transform="translate(20.878125 86.610257)scale(0.1 -0.1)">
       <use xlink:href="#DejaVuSans-48"/>
       <use x="63.623047" xlink:href="#DejaVuSans-46"/>
       <use x="95.410156" xlink:href="#DejaVuSans-56"/>
      </g>
     </g>
    </g>
    <g id="ytick_5">
     <g id="line2d_9">
      <g>
       <use style="stroke:#000000;stroke-width:0.8;" x="43.78125" xlink:href="#m1d6c5afc3d" y="32.910852"/>
      </g>
     </g>
     <g id="text_9">
      <!-- 1.0 -->
      <defs>
       <path d="M 12.40625 8.296875 
L 28.515625 8.296875 
L 28.515625 63.921875 
L 10.984375 60.40625 
L 10.984375 69.390625 
L 28.421875 72.90625 
L 38.28125 72.90625 
L 38.28125 8.296875 
L 54.390625 8.296875 
L 54.390625 0 
L 12.40625 0 
z
" id="DejaVuSans-49"/>
      </defs>
      <g transform="translate(20.878125 36.710071)scale(0.1 -0.1)">
       <use xlink:href="#DejaVuSans-49"/>
       <use x="63.623047" xlink:href="#DejaVuSans-46"/>
       <use x="95.410156" xlink:href="#DejaVuSans-48"/>
      </g>
     </g>
    </g>
    <g id="text_10">
     <!-- precision -->
     <defs>
      <path d="M 18.109375 8.203125 
L 18.109375 -20.796875 
L 9.078125 -20.796875 
L 9.078125 54.6875 
L 18.109375 54.6875 
L 18.109375 46.390625 
Q 20.953125 51.265625 25.265625 53.625 
Q 29.59375 56 35.59375 56 
Q 45.5625 56 51.78125 48.09375 
Q 58.015625 40.1875 58.015625 27.296875 
Q 58.015625 14.40625 51.78125 6.484375 
Q 45.5625 -1.421875 35.59375 -1.421875 
Q 29.59375 -1.421875 25.265625 0.953125 
Q 20.953125 3.328125 18.109375 8.203125 
z
M 48.6875 27.296875 
Q 48.6875 37.203125 44.609375 42.84375 
Q 40.53125 48.484375 33.40625 48.484375 
Q 26.265625 48.484375 22.1875 42.84375 
Q 18.109375 37.203125 18.109375 27.296875 
Q 18.109375 17.390625 22.1875 11.75 
Q 26.265625 6.109375 33.40625 6.109375 
Q 40.53125 6.109375 44.609375 11.75 
Q 48.6875 17.390625 48.6875 27.296875 
z
" id="DejaVuSans-112"/>
      <path d="M 41.109375 46.296875 
Q 39.59375 47.171875 37.8125 47.578125 
Q 36.03125 48 33.890625 48 
Q 26.265625 48 22.1875 43.046875 
Q 18.109375 38.09375 18.109375 28.8125 
L 18.109375 0 
L 9.078125 0 
L 9.078125 54.6875 
L 18.109375 54.6875 
L 18.109375 46.1875 
Q 20.953125 51.171875 25.484375 53.578125 
Q 30.03125 56 36.53125 56 
Q 37.453125 56 38.578125 55.875 
Q 39.703125 55.765625 41.0625 55.515625 
z
" id="DejaVuSans-114"/>
      <path d="M 56.203125 29.59375 
L 56.203125 25.203125 
L 14.890625 25.203125 
Q 15.484375 15.921875 20.484375 11.0625 
Q 25.484375 6.203125 34.421875 6.203125 
Q 39.59375 6.203125 44.453125 7.46875 
Q 49.3125 8.734375 54.109375 11.28125 
L 54.109375 2.78125 
Q 49.265625 0.734375 44.1875 -0.34375 
Q 39.109375 -1.421875 33.890625 -1.421875 
Q 20.796875 -1.421875 13.15625 6.1875 
Q 5.515625 13.8125 5.515625 26.8125 
Q 5.515625 40.234375 12.765625 48.109375 
Q 20.015625 56 32.328125 56 
Q 43.359375 56 49.78125 48.890625 
Q 56.203125 41.796875 56.203125 29.59375 
z
M 47.21875 32.234375 
Q 47.125 39.59375 43.09375 43.984375 
Q 39.0625 48.390625 32.421875 48.390625 
Q 24.90625 48.390625 20.390625 44.140625 
Q 15.875 39.890625 15.1875 32.171875 
z
" id="DejaVuSans-101"/>
      <path d="M 48.78125 52.59375 
L 48.78125 44.1875 
Q 44.96875 46.296875 41.140625 47.34375 
Q 37.3125 48.390625 33.40625 48.390625 
Q 24.65625 48.390625 19.8125 42.84375 
Q 14.984375 37.3125 14.984375 27.296875 
Q 14.984375 17.28125 19.8125 11.734375 
Q 24.65625 6.203125 33.40625 6.203125 
Q 37.3125 6.203125 41.140625 7.25 
Q 44.96875 8.296875 48.78125 10.40625 
L 48.78125 2.09375 
Q 45.015625 0.34375 40.984375 -0.53125 
Q 36.96875 -1.421875 32.421875 -1.421875 
Q 20.0625 -1.421875 12.78125 6.34375 
Q 5.515625 14.109375 5.515625 27.296875 
Q 5.515625 40.671875 12.859375 48.328125 
Q 20.21875 56 33.015625 56 
Q 37.15625 56 41.109375 55.140625 
Q 45.0625 54.296875 48.78125 52.59375 
z
" id="DejaVuSans-99"/>
      <path d="M 9.421875 54.6875 
L 18.40625 54.6875 
L 18.40625 0 
L 9.421875 0 
z
M 9.421875 75.984375 
L 18.40625 75.984375 
L 18.40625 64.59375 
L 9.421875 64.59375 
z
" id="DejaVuSans-105"/>
      <path d="M 44.28125 53.078125 
L 44.28125 44.578125 
Q 40.484375 46.53125 36.375 47.5 
Q 32.28125 48.484375 27.875 48.484375 
Q 21.1875 48.484375 17.84375 46.4375 
Q 14.5 44.390625 14.5 40.28125 
Q 14.5 37.15625 16.890625 35.375 
Q 19.28125 33.59375 26.515625 31.984375 
L 29.59375 31.296875 
Q 39.15625 29.25 43.1875 25.515625 
Q 47.21875 21.78125 47.21875 15.09375 
Q 47.21875 7.46875 41.1875 3.015625 
Q 35.15625 -1.421875 24.609375 -1.421875 
Q 20.21875 -1.421875 15.453125 -0.5625 
Q 10.6875 0.296875 5.421875 2 
L 5.421875 11.28125 
Q 10.40625 8.6875 15.234375 7.390625 
Q 20.0625 6.109375 24.8125 6.109375 
Q 31.15625 6.109375 34.5625 8.28125 
Q 37.984375 10.453125 37.984375 14.40625 
Q 37.984375 18.0625 35.515625 20.015625 
Q 33.0625 21.96875 24.703125 23.78125 
L 21.578125 24.515625 
Q 13.234375 26.265625 9.515625 29.90625 
Q 5.8125 33.546875 5.8125 39.890625 
Q 5.8125 47.609375 11.28125 51.796875 
Q 16.75 56 26.8125 56 
Q 31.78125 56 36.171875 55.265625 
Q 40.578125 54.546875 44.28125 53.078125 
z
" id="DejaVuSans-115"/>
      <path d="M 30.609375 48.390625 
Q 23.390625 48.390625 19.1875 42.75 
Q 14.984375 37.109375 14.984375 27.296875 
Q 14.984375 17.484375 19.15625 11.84375 
Q 23.34375 6.203125 30.609375 6.203125 
Q 37.796875 6.203125 41.984375 11.859375 
Q 46.1875 17.53125 46.1875 27.296875 
Q 46.1875 37.015625 41.984375 42.703125 
Q 37.796875 48.390625 30.609375 48.390625 
z
M 30.609375 56 
Q 42.328125 56 49.015625 48.375 
Q 55.71875 40.765625 55.71875 27.296875 
Q 55.71875 13.875 49.015625 6.21875 
Q 42.328125 -1.421875 30.609375 -1.421875 
Q 18.84375 -1.421875 12.171875 6.21875 
Q 5.515625 13.875 5.515625 27.296875 
Q 5.515625 40.765625 12.171875 48.375 
Q 18.84375 56 30.609375 56 
z
" id="DejaVuSans-111"/>
      <path d="M 54.890625 33.015625 
L 54.890625 0 
L 45.90625 0 
L 45.90625 32.71875 
Q 45.90625 40.484375 42.875 44.328125 
Q 39.84375 48.1875 33.796875 48.1875 
Q 26.515625 48.1875 22.3125 43.546875 
Q 18.109375 38.921875 18.109375 30.90625 
L 18.109375 0 
L 9.078125 0 
L 9.078125 54.6875 
L 18.109375 54.6875 
L 18.109375 46.1875 
Q 21.34375 51.125 25.703125 53.5625 
Q 30.078125 56 35.796875 56 
Q 45.21875 56 50.046875 50.171875 
Q 54.890625 44.34375 54.890625 33.015625 
z
" id="DejaVuSans-110"/>
     </defs>
     <g transform="translate(14.798438 161.502969)rotate(-90)scale(0.1 -0.1)">
      <use xlink:href="#DejaVuSans-112"/>
      <use x="63.476562" xlink:href="#DejaVuSans-114"/>
      <use x="104.558594" xlink:href="#DejaVuSans-101"/>
      <use x="166.082031" xlink:href="#DejaVuSans-99"/>
      <use x="221.0625" xlink:href="#DejaVuSans-105"/>
      <use x="248.845703" xlink:href="#DejaVuSans-115"/>
      <use x="300.945312" xlink:href="#DejaVuSans-105"/>
      <use x="328.728516" xlink:href="#DejaVuSans-111"/>
      <use x="389.910156" xlink:href="#DejaVuSans-110"/>
     </g>
    </g>
   </g>
   <g id="line2d_10">
    <path clip-path="url(#p034a0f5244)" d="M 54.663068 32.910852 
L 54.81707 32.910852 
L 54.971072 32.910852 
L 55.125074 32.910852 
L 55.279076 32.910852 
L 55.433077 32.910852 
L 55.587079 32.910852 
L 55.741081 32.910852 
L 55.895083 32.910852 
L 56.049085 32.910852 
L 56.203086 32.910852 
L 56.357088 32.910852 
L 56.508646 32.910852 
L 56.662647 32.910852 
L 56.814205 32.910852 
L 56.858205 44.285523 
L 56.858205 58.279884 
L 56.86065 70.50086 
L 56.86065 81.644757 
L 56.863094 91.325753 
L 56.863094 100.56254 
L 56.865539 108.64257 
L 56.867983 116.020473 
L 56.867983 122.948862 
L 56.867983 129.323331 
L 56.867983 135.207756 
L 56.867983 140.573218 
L 56.870428 145.575012 
L 56.870428 150.29094 
L 56.872872 154.493052 
L 56.872872 158.619463 
L 56.875317 162.42373 
L 56.875317 166.057984 
L 56.875317 169.478557 
L 56.875317 172.654004 
L 56.877761 175.6399 
L 56.877761 178.524389 
L 56.880206 181.15295 
L 56.88265 183.606571 
L 56.88265 186.076702 
L 56.88265 188.46271 
L 56.88265 190.698747 
L 56.88265 192.830822 
L 56.88265 194.834436 
L 56.88265 196.7806 
L 56.88265 198.671043 
L 56.88265 200.452159 
L 56.885095 202.076608 
L 56.887539 203.634773 
" style="fill:none;stroke:#1f77b4;stroke-linecap:square;stroke-width:1.5;"/>
   </g>
   <g id="line2d_11">
    <path clip-path="url(#p034a0f5244)" d="M 72.546836 33.11326 
L 90.594384 33.012056 
L 108.615043 33.000811 
L 126.650368 32.986755 
L 144.668582 32.985068 
L 162.699018 33.000811 
L 180.690343 33.012056 
L 198.684113 33.007839 
L 216.670549 33.008308 
L 234.627651 33.022176 
L 252.489419 33.03659 
L 268.283162 35.547772 
L 270.954971 51.589428 
L 270.996527 67.977945 
L 271.03075 82.167833 
L 271.084528 94.592418 
L 271.113862 105.569178 
L 271.150529 115.320675 
L 271.192085 124.054577 
L 271.223863 131.906655 
L 271.270308 139.007703 
L 271.316753 145.452468 
L 271.348532 151.360286 
L 271.382754 156.771568 
L 271.419421 161.745248 
L 271.460977 166.339583 
L 271.504978 170.586659 
L 271.541645 174.5317 
L 271.585646 178.209842 
L 271.624757 181.645023 
L 271.666313 184.855314 
L 271.695647 187.856527 
L 271.720092 190.693226 
L 271.764092 193.351154 
L 271.812982 195.860091 
L 271.84476 198.236201 
L 271.88876 200.479314 
L 271.925427 202.598154 
L 271.944983 204.615254 
L 271.984095 206.523909 
L 272.008539 208.349332 
L 272.050096 210.083011 
L 272.086763 211.738407 
L 272.113652 213.31089 
L 272.162541 214.817983 
L 272.194319 216.26395 
L 272.23832 217.642645 
L 272.26032 218.966002 
" style="fill:none;stroke:#ff7f0e;stroke-linecap:square;stroke-width:1.5;"/>
   </g>
   <g id="line2d_12">
    <path clip-path="url(#p034a0f5244)" d="M 55.58219 32.910852 
L 56.65287 32.910852 
L 57.721105 32.910852 
L 58.786895 32.910852 
L 59.850241 32.910852 
L 60.923365 32.910852 
L 61.994044 32.910852 
L 62.196935 57.966816 
L 62.201824 82.785944 
L 62.204269 102.696585 
L 62.204269 119.037691 
L 62.204269 132.683001 
L 62.204269 144.176542 
L 62.209158 153.992186 
L 62.218936 162.329108 
L 62.223825 169.765818 
L 62.233603 176.260961 
L 62.238492 182.096976 
L 62.248269 187.259094 
L 62.253158 191.961344 
L 62.260492 196.188778 
L 62.262936 200.074679 
L 62.272714 203.557411 
L 62.277603 206.796885 
L 62.277603 209.822303 
L 62.280048 212.593218 
L 62.284937 215.137917 
L 62.284937 217.54638 
L 62.29227 219.71528 
L 62.302048 221.711685 
L 62.306937 223.633896 
L 62.316715 225.400644 
L 62.319159 227.111618 
L 62.321604 228.72192 
L 62.328937 230.20454 
L 62.338715 231.592457 
L 62.343604 232.935851 
L 62.343604 234.238237 
L 62.348493 235.444858 
L 62.353382 236.591131 
L 62.36316 237.640159 
L 62.36316 238.706437 
L 62.368049 239.694598 
L 62.380271 240.601577 
L 62.382715 241.518425 
L 62.38516 242.395399 
L 62.387604 243.235043 
L 62.394938 244.016166 
L 62.402271 244.765398 
" style="fill:none;stroke:#2ca02c;stroke-linecap:square;stroke-width:1.5;"/>
   </g>
   <g id="line2d_13">
    <path clip-path="url(#p034a0f5244)" d="M 58.469113 32.910852 
L 62.431605 32.910852 
L 66.389208 32.910852 
L 70.349255 32.949332 
L 74.309302 32.941636 
L 78.274238 32.936503 
L 82.23184 32.932842 
L 86.191887 32.930093 
L 90.151934 32.927955 
L 94.111981 32.926245 
L 98.072028 32.924845 
L 102.024742 32.923679 
L 105.982345 32.922693 
L 109.939947 32.921847 
L 113.892661 32.921114 
L 117.852708 32.930093 
L 121.81031 32.928962 
L 125.770357 32.936507 
L 129.715738 32.935157 
L 133.668451 32.933942 
L 137.623609 32.932842 
L 141.578768 32.93884 
L 145.53637 32.944315 
L 149.498862 32.942921 
L 153.449131 32.941639 
L 157.406733 32.940453 
L 161.352114 32.945059 
L 165.307272 32.943838 
L 169.259985 32.948008 
L 173.215143 32.946769 
L 177.167857 32.945611 
L 181.118126 32.944525 
L 185.068395 32.948169 
L 189.021109 32.947072 
L 192.981156 32.946037 
L 196.938759 32.945059 
L 200.896361 32.944135 
L 204.853964 32.943259 
L 208.804233 32.942428 
L 212.761836 32.941639 
L 216.707216 32.955905 
L 220.664818 32.954833 
L 224.612643 32.95381 
L 228.558023 32.963329 
L 232.49607 32.972425 
L 236.44145 32.991165 
L 240.333052 33.077885 
L 244.236876 33.135336 
L 245.111998 37.026163 
" style="fill:none;stroke:#d62728;stroke-linecap:square;stroke-width:1.5;"/>
   </g>
   <g id="line2d_14">
    <path clip-path="url(#p034a0f5244)" d="M 272.299432 220.233105 
L 272.299432 220.233105 
L 272.299432 220.233105 
L 272.299432 220.233105 
L 272.299432 220.233105 
L 272.299432 220.233105 
L 272.299432 220.233105 
L 272.299432 220.233105 
L 272.299432 220.233105 
L 272.299432 220.233105 
L 272.299432 220.233105 
L 272.299432 220.233105 
L 272.299432 220.233105 
L 272.299432 220.233105 
L 272.299432 220.233105 
L 272.299432 220.233105 
L 272.299432 220.233105 
L 267.630487 189.588422 
L 260.707739 189.730775 
L 255.288341 189.205306 
L 251.394295 187.888257 
L 248.338703 186.076471 
L 245.884451 183.788528 
L 243.835983 181.116126 
L 242.335076 177.918037 
L 240.582388 174.678715 
L 238.956813 170.960975 
L 237.18457 167.055012 
L 235.241214 162.875952 
L 233.214745 158.354488 
L 230.875384 153.577775 
L 228.350243 148.428837 
L 225.517098 142.904841 
L 222.146169 137.149814 
L 218.628572 130.758808 
L 214.218742 124.349634 
L 209.32735 117.457358 
L 203.482614 110.491638 
L 197.075649 103.004031 
L 189.952453 95.001097 
L 181.599687 87.054035 
L 172.3498 78.699002 
L 161.811675 70.477179 
L 150.012201 62.389558 
L 136.799822 55.011954 
L 122.257649 48.4704 
L 106.591018 42.67095 
L 89.814597 38.679075 
L 72.449057 34.799733 
" style="fill:none;stroke:#ff7f0e;stroke-dasharray:1.5,2.475;stroke-dashoffset:0;stroke-width:1.5;"/>
   </g>
   <g id="line2d_15">
    <path clip-path="url(#p034a0f5244)" d="M 245.111998 37.026163 
L 243.862872 33.942139 
L 240.846391 33.754476 
L 236.341227 33.39558 
L 232.464292 33.334552 
L 229.007806 33.329016 
L 226.240662 33.321623 
L 222.625286 33.319615 
L 218.183678 33.326997 
L 213.216508 33.317037 
L 213.216508 33.317037 
L 207.74822 33.319668 
L 201.446368 33.316498 
L 201.446368 33.316498 
L 194.816956 33.305344 
L 194.816956 33.305344 
L 187.705982 33.299014 
L 187.705982 33.299014 
L 180.304117 33.278356 
L 180.304117 33.278356 
L 172.723804 33.276207 
L 172.723804 33.276207 
L 164.891711 33.263582 
L 157.379844 33.242069 
L 157.379844 33.242069 
L 150.215092 33.241477 
L 150.215092 33.241477 
L 143.480568 33.211835 
L 143.480568 33.211835 
L 136.912268 33.206268 
L 130.610415 33.190804 
L 130.610415 33.190804 
L 124.824346 33.205187 
L 119.243613 33.183562 
L 114.171331 33.165945 
L 114.171331 33.165945 
L 109.631944 33.175903 
L 105.19278 33.163092 
L 101.174065 33.171755 
L 97.397354 33.166358 
L 90.758164 33.196342 
L 87.976353 33.18371 
L 83.006738 33.231273 
L 79.186026 33.182237 
L 74.407081 33.216726 
L 70.90415 33.207921 
L 66.438097 33.064108 
L 62.529384 33.138707 
L 58.720894 33.199961 
" style="fill:none;stroke:#d62728;stroke-dasharray:1.5,2.475;stroke-dashoffset:0;stroke-width:1.5;"/>
   </g>
   <g id="line2d_16">
    <defs>
     <path d="M 0 2.5 
C 0.663008 2.5 1.29895 2.236584 1.767767 1.767767 
C 2.236584 1.29895 2.5 0.663008 2.5 0 
C 2.5 -0.663008 2.236584 -1.29895 1.767767 -1.767767 
C 1.29895 -2.236584 0.663008 -2.5 0 -2.5 
C -0.663008 -2.5 -1.29895 -2.236584 -1.767767 -1.767767 
C -2.236584 -1.29895 -2.5 -0.663008 -2.5 0 
C -2.5 0.663008 -2.236584 1.29895 -1.767767 1.767767 
C -1.29895 2.236584 -0.663008 2.5 0 2.5 
z
" id="m7a7ad17a45" style="stroke:#ff7f0e;"/>
    </defs>
    <g clip-path="url(#p034a0f5244)">
     <use style="fill:#ff7f0e;stroke:#ff7f0e;" x="192.511817" xlink:href="#m7a7ad17a45" y="33.113677"/>
    </g>
   </g>
   <g id="line2d_17">
    <defs>
     <path d="M 0 2.5 
C 0.663008 2.5 1.29895 2.236584 1.767767 1.767767 
C 2.236584 1.29895 2.5 0.663008 2.5 0 
C 2.5 -0.663008 2.236584 -1.29895 1.767767 -1.767767 
C 1.29895 -2.236584 0.663008 -2.5 0 -2.5 
C -0.663008 -2.5 -1.29895 -2.236584 -1.767767 -1.767767 
C -2.236584 -1.29895 -2.5 -0.663008 -2.5 0 
C -2.5 0.663008 -2.236584 1.29895 -1.767767 1.767767 
C -1.29895 2.236584 -0.663008 2.5 0 2.5 
z
" id="md7e0db837b" style="stroke:#d62728;"/>
    </defs>
    <g clip-path="url(#p034a0f5244)">
     <use style="fill:#d62728;stroke:#d62728;" x="236.681009" xlink:href="#md7e0db837b" y="33.381369"/>
    </g>
   </g>
   <g id="patch_3">
    <path d="M 43.78125 255.358125 
L 43.78125 22.318125 
" style="fill:none;stroke:#000000;stroke-linecap:square;stroke-linejoin:miter;stroke-width:0.8;"/>
   </g>
   <g id="patch_4">
    <path d="M 43.78125 255.358125 
L 283.18125 255.358125 
" style="fill:none;stroke:#000000;stroke-linecap:square;stroke-linejoin:miter;stroke-width:0.8;"/>
   </g>
   <g id="text_11">
    <!-- 1 - 30 -->
    <defs>
     <path id="DejaVuSans-32"/>
     <path d="M 4.890625 31.390625 
L 31.203125 31.390625 
L 31.203125 23.390625 
L 4.890625 23.390625 
z
" id="DejaVuSans-45"/>
     <path d="M 40.578125 39.3125 
Q 47.65625 37.796875 51.625 33 
Q 55.609375 28.21875 55.609375 21.1875 
Q 55.609375 10.40625 48.1875 4.484375 
Q 40.765625 -1.421875 27.09375 -1.421875 
Q 22.515625 -1.421875 17.65625 -0.515625 
Q 12.796875 0.390625 7.625 2.203125 
L 7.625 11.71875 
Q 11.71875 9.328125 16.59375 8.109375 
Q 21.484375 6.890625 26.8125 6.890625 
Q 36.078125 6.890625 40.9375 10.546875 
Q 45.796875 14.203125 45.796875 21.1875 
Q 45.796875 27.640625 41.28125 31.265625 
Q 36.765625 34.90625 28.71875 34.90625 
L 20.21875 34.90625 
L 20.21875 43.015625 
L 29.109375 43.015625 
Q 36.375 43.015625 40.234375 45.921875 
Q 44.09375 48.828125 44.09375 54.296875 
Q 44.09375 59.90625 40.109375 62.90625 
Q 36.140625 65.921875 28.71875 65.921875 
Q 24.65625 65.921875 20.015625 65.03125 
Q 15.375 64.15625 9.8125 62.3125 
L 9.8125 71.09375 
Q 15.4375 72.65625 20.34375 73.4375 
Q 25.25 74.21875 29.59375 74.21875 
Q 40.828125 74.21875 47.359375 69.109375 
Q 53.90625 64.015625 53.90625 55.328125 
Q 53.90625 49.265625 50.4375 45.09375 
Q 46.96875 40.921875 40.578125 39.3125 
z
" id="DejaVuSans-51"/>
    </defs>
    <g transform="translate(146.050313 16.318125)scale(0.12 -0.12)">
     <use xlink:href="#DejaVuSans-49"/>
     <use x="63.623047" xlink:href="#DejaVuSans-32"/>
     <use x="95.410156" xlink:href="#DejaVuSans-45"/>
     <use x="131.494141" xlink:href="#DejaVuSans-32"/>
     <use x="163.28125" xlink:href="#DejaVuSans-51"/>
     <use x="226.904297" xlink:href="#DejaVuSans-48"/>
    </g>
   </g>
   <g id="legend_1">
    <g id="patch_5">
     <path d="M 94.214063 250.358125 
L 232.748438 250.358125 
Q 234.748438 250.358125 234.748438 248.358125 
L 234.748438 117.255 
Q 234.748438 115.255 232.748438 115.255 
L 94.214063 115.255 
Q 92.214063 115.255 92.214063 117.255 
L 92.214063 248.358125 
Q 92.214063 250.358125 94.214063 250.358125 
z
" style="fill:#ffffff;opacity:0.8;stroke:#cccccc;stroke-linejoin:miter;"/>
    </g>
    <g id="line2d_18">
     <path d="M 96.214063 123.353437 
L 116.214063 123.353437 
" style="fill:none;stroke:#1f77b4;stroke-linecap:square;stroke-width:1.5;"/>
    </g>
    <g id="line2d_19"/>
    <g id="text_12">
     <!-- varlociraptor+delly -->
     <defs>
      <path d="M 2.984375 54.6875 
L 12.5 54.6875 
L 29.59375 8.796875 
L 46.6875 54.6875 
L 56.203125 54.6875 
L 35.6875 0 
L 23.484375 0 
z
" id="DejaVuSans-118"/>
      <path d="M 34.28125 27.484375 
Q 23.390625 27.484375 19.1875 25 
Q 14.984375 22.515625 14.984375 16.5 
Q 14.984375 11.71875 18.140625 8.90625 
Q 21.296875 6.109375 26.703125 6.109375 
Q 34.1875 6.109375 38.703125 11.40625 
Q 43.21875 16.703125 43.21875 25.484375 
L 43.21875 27.484375 
z
M 52.203125 31.203125 
L 52.203125 0 
L 43.21875 0 
L 43.21875 8.296875 
Q 40.140625 3.328125 35.546875 0.953125 
Q 30.953125 -1.421875 24.3125 -1.421875 
Q 15.921875 -1.421875 10.953125 3.296875 
Q 6 8.015625 6 15.921875 
Q 6 25.140625 12.171875 29.828125 
Q 18.359375 34.515625 30.609375 34.515625 
L 43.21875 34.515625 
L 43.21875 35.40625 
Q 43.21875 41.609375 39.140625 45 
Q 35.0625 48.390625 27.6875 48.390625 
Q 23 48.390625 18.546875 47.265625 
Q 14.109375 46.140625 10.015625 43.890625 
L 10.015625 52.203125 
Q 14.9375 54.109375 19.578125 55.046875 
Q 24.21875 56 28.609375 56 
Q 40.484375 56 46.34375 49.84375 
Q 52.203125 43.703125 52.203125 31.203125 
z
" id="DejaVuSans-97"/>
      <path d="M 9.421875 75.984375 
L 18.40625 75.984375 
L 18.40625 0 
L 9.421875 0 
z
" id="DejaVuSans-108"/>
      <path d="M 18.3125 70.21875 
L 18.3125 54.6875 
L 36.8125 54.6875 
L 36.8125 47.703125 
L 18.3125 47.703125 
L 18.3125 18.015625 
Q 18.3125 11.328125 20.140625 9.421875 
Q 21.96875 7.515625 27.59375 7.515625 
L 36.8125 7.515625 
L 36.8125 0 
L 27.59375 0 
Q 17.1875 0 13.234375 3.875 
Q 9.28125 7.765625 9.28125 18.015625 
L 9.28125 47.703125 
L 2.6875 47.703125 
L 2.6875 54.6875 
L 9.28125 54.6875 
L 9.28125 70.21875 
z
" id="DejaVuSans-116"/>
      <path d="M 46 62.703125 
L 46 35.5 
L 73.1875 35.5 
L 73.1875 27.203125 
L 46 27.203125 
L 46 0 
L 37.796875 0 
L 37.796875 27.203125 
L 10.59375 27.203125 
L 10.59375 35.5 
L 37.796875 35.5 
L 37.796875 62.703125 
z
" id="DejaVuSans-43"/>
      <path d="M 45.40625 46.390625 
L 45.40625 75.984375 
L 54.390625 75.984375 
L 54.390625 0 
L 45.40625 0 
L 45.40625 8.203125 
Q 42.578125 3.328125 38.25 0.953125 
Q 33.9375 -1.421875 27.875 -1.421875 
Q 17.96875 -1.421875 11.734375 6.484375 
Q 5.515625 14.40625 5.515625 27.296875 
Q 5.515625 40.1875 11.734375 48.09375 
Q 17.96875 56 27.875 56 
Q 33.9375 56 38.25 53.625 
Q 42.578125 51.265625 45.40625 46.390625 
z
M 14.796875 27.296875 
Q 14.796875 17.390625 18.875 11.75 
Q 22.953125 6.109375 30.078125 6.109375 
Q 37.203125 6.109375 41.296875 11.75 
Q 45.40625 17.390625 45.40625 27.296875 
Q 45.40625 37.203125 41.296875 42.84375 
Q 37.203125 48.484375 30.078125 48.484375 
Q 22.953125 48.484375 18.875 42.84375 
Q 14.796875 37.203125 14.796875 27.296875 
z
" id="DejaVuSans-100"/>
      <path d="M 32.171875 -5.078125 
Q 28.375 -14.84375 24.75 -17.8125 
Q 21.140625 -20.796875 15.09375 -20.796875 
L 7.90625 -20.796875 
L 7.90625 -13.28125 
L 13.1875 -13.28125 
Q 16.890625 -13.28125 18.9375 -11.515625 
Q 21 -9.765625 23.484375 -3.21875 
L 25.09375 0.875 
L 2.984375 54.6875 
L 12.5 54.6875 
L 29.59375 11.921875 
L 46.6875 54.6875 
L 56.203125 54.6875 
z
" id="DejaVuSans-121"/>
     </defs>
     <g transform="translate(124.214063 126.853437)scale(0.1 -0.1)">
      <use xlink:href="#DejaVuSans-118"/>
      <use x="59.179688" xlink:href="#DejaVuSans-97"/>
      <use x="120.458984" xlink:href="#DejaVuSans-114"/>
      <use x="161.572266" xlink:href="#DejaVuSans-108"/>
      <use x="189.355469" xlink:href="#DejaVuSans-111"/>
      <use x="250.537109" xlink:href="#DejaVuSans-99"/>
      <use x="305.517578" xlink:href="#DejaVuSans-105"/>
      <use x="333.300781" xlink:href="#DejaVuSans-114"/>
      <use x="374.414062" xlink:href="#DejaVuSans-97"/>
      <use x="435.693359" xlink:href="#DejaVuSans-112"/>
      <use x="499.169922" xlink:href="#DejaVuSans-116"/>
      <use x="538.378906" xlink:href="#DejaVuSans-111"/>
      <use x="599.560547" xlink:href="#DejaVuSans-114"/>
      <use x="640.673828" xlink:href="#DejaVuSans-43"/>
      <use x="724.462891" xlink:href="#DejaVuSans-100"/>
      <use x="787.939453" xlink:href="#DejaVuSans-101"/>
      <use x="849.462891" xlink:href="#DejaVuSans-108"/>
      <use x="877.246094" xlink:href="#DejaVuSans-108"/>
      <use x="905.029297" xlink:href="#DejaVuSans-121"/>
     </g>
    </g>
    <g id="line2d_20">
     <path d="M 96.214063 138.031563 
L 116.214063 138.031563 
" style="fill:none;stroke:#ff7f0e;stroke-linecap:square;stroke-width:1.5;"/>
    </g>
    <g id="line2d_21"/>
    <g id="text_13">
     <!-- varlociraptor+lancet -->
     <g transform="translate(124.214063 141.531563)scale(0.1 -0.1)">
      <use xlink:href="#DejaVuSans-118"/>
      <use x="59.179688" xlink:href="#DejaVuSans-97"/>
      <use x="120.458984" xlink:href="#DejaVuSans-114"/>
      <use x="161.572266" xlink:href="#DejaVuSans-108"/>
      <use x="189.355469" xlink:href="#DejaVuSans-111"/>
      <use x="250.537109" xlink:href="#DejaVuSans-99"/>
      <use x="305.517578" xlink:href="#DejaVuSans-105"/>
      <use x="333.300781" xlink:href="#DejaVuSans-114"/>
      <use x="374.414062" xlink:href="#DejaVuSans-97"/>
      <use x="435.693359" xlink:href="#DejaVuSans-112"/>
      <use x="499.169922" xlink:href="#DejaVuSans-116"/>
      <use x="538.378906" xlink:href="#DejaVuSans-111"/>
      <use x="599.560547" xlink:href="#DejaVuSans-114"/>
      <use x="640.673828" xlink:href="#DejaVuSans-43"/>
      <use x="724.462891" xlink:href="#DejaVuSans-108"/>
      <use x="752.246094" xlink:href="#DejaVuSans-97"/>
      <use x="813.525391" xlink:href="#DejaVuSans-110"/>
      <use x="876.904297" xlink:href="#DejaVuSans-99"/>
      <use x="931.884766" xlink:href="#DejaVuSans-101"/>
      <use x="993.408203" xlink:href="#DejaVuSans-116"/>
     </g>
    </g>
    <g id="line2d_22">
     <path d="M 96.214063 152.709687 
L 116.214063 152.709687 
" style="fill:none;stroke:#2ca02c;stroke-linecap:square;stroke-width:1.5;"/>
    </g>
    <g id="line2d_23"/>
    <g id="text_14">
     <!-- varlociraptor+manta -->
     <defs>
      <path d="M 52 44.1875 
Q 55.375 50.25 60.0625 53.125 
Q 64.75 56 71.09375 56 
Q 79.640625 56 84.28125 50.015625 
Q 88.921875 44.046875 88.921875 33.015625 
L 88.921875 0 
L 79.890625 0 
L 79.890625 32.71875 
Q 79.890625 40.578125 77.09375 44.375 
Q 74.3125 48.1875 68.609375 48.1875 
Q 61.625 48.1875 57.5625 43.546875 
Q 53.515625 38.921875 53.515625 30.90625 
L 53.515625 0 
L 44.484375 0 
L 44.484375 32.71875 
Q 44.484375 40.625 41.703125 44.40625 
Q 38.921875 48.1875 33.109375 48.1875 
Q 26.21875 48.1875 22.15625 43.53125 
Q 18.109375 38.875 18.109375 30.90625 
L 18.109375 0 
L 9.078125 0 
L 9.078125 54.6875 
L 18.109375 54.6875 
L 18.109375 46.1875 
Q 21.1875 51.21875 25.484375 53.609375 
Q 29.78125 56 35.6875 56 
Q 41.65625 56 45.828125 52.96875 
Q 50 49.953125 52 44.1875 
z
" id="DejaVuSans-109"/>
     </defs>
     <g transform="translate(124.214063 156.209687)scale(0.1 -0.1)">
      <use xlink:href="#DejaVuSans-118"/>
      <use x="59.179688" xlink:href="#DejaVuSans-97"/>
      <use x="120.458984" xlink:href="#DejaVuSans-114"/>
      <use x="161.572266" xlink:href="#DejaVuSans-108"/>
      <use x="189.355469" xlink:href="#DejaVuSans-111"/>
      <use x="250.537109" xlink:href="#DejaVuSans-99"/>
      <use x="305.517578" xlink:href="#DejaVuSans-105"/>
      <use x="333.300781" xlink:href="#DejaVuSans-114"/>
      <use x="374.414062" xlink:href="#DejaVuSans-97"/>
      <use x="435.693359" xlink:href="#DejaVuSans-112"/>
      <use x="499.169922" xlink:href="#DejaVuSans-116"/>
      <use x="538.378906" xlink:href="#DejaVuSans-111"/>
      <use x="599.560547" xlink:href="#DejaVuSans-114"/>
      <use x="640.673828" xlink:href="#DejaVuSans-43"/>
      <use x="724.462891" xlink:href="#DejaVuSans-109"/>
      <use x="821.875" xlink:href="#DejaVuSans-97"/>
      <use x="883.154297" xlink:href="#DejaVuSans-110"/>
      <use x="946.533203" xlink:href="#DejaVuSans-116"/>
      <use x="985.742188" xlink:href="#DejaVuSans-97"/>
     </g>
    </g>
    <g id="line2d_24">
     <path d="M 96.214063 167.387812 
L 116.214063 167.387812 
" style="fill:none;stroke:#d62728;stroke-linecap:square;stroke-width:1.5;"/>
    </g>
    <g id="line2d_25"/>
    <g id="text_15">
     <!-- varlociraptor+strelka -->
     <defs>
      <path d="M 9.078125 75.984375 
L 18.109375 75.984375 
L 18.109375 31.109375 
L 44.921875 54.6875 
L 56.390625 54.6875 
L 27.390625 29.109375 
L 57.625 0 
L 45.90625 0 
L 18.109375 26.703125 
L 18.109375 0 
L 9.078125 0 
z
" id="DejaVuSans-107"/>
     </defs>
     <g transform="translate(124.214063 170.887812)scale(0.1 -0.1)">
      <use xlink:href="#DejaVuSans-118"/>
      <use x="59.179688" xlink:href="#DejaVuSans-97"/>
      <use x="120.458984" xlink:href="#DejaVuSans-114"/>
      <use x="161.572266" xlink:href="#DejaVuSans-108"/>
      <use x="189.355469" xlink:href="#DejaVuSans-111"/>
      <use x="250.537109" xlink:href="#DejaVuSans-99"/>
      <use x="305.517578" xlink:href="#DejaVuSans-105"/>
      <use x="333.300781" xlink:href="#DejaVuSans-114"/>
      <use x="374.414062" xlink:href="#DejaVuSans-97"/>
      <use x="435.693359" xlink:href="#DejaVuSans-112"/>
      <use x="499.169922" xlink:href="#DejaVuSans-116"/>
      <use x="538.378906" xlink:href="#DejaVuSans-111"/>
      <use x="599.560547" xlink:href="#DejaVuSans-114"/>
      <use x="640.673828" xlink:href="#DejaVuSans-43"/>
      <use x="724.462891" xlink:href="#DejaVuSans-115"/>
      <use x="776.5625" xlink:href="#DejaVuSans-116"/>
      <use x="815.771484" xlink:href="#DejaVuSans-114"/>
      <use x="856.853516" xlink:href="#DejaVuSans-101"/>
      <use x="918.376953" xlink:href="#DejaVuSans-108"/>
      <use x="946.160156" xlink:href="#DejaVuSans-107"/>
      <use x="1004.054688" xlink:href="#DejaVuSans-97"/>
     </g>
    </g>
    <g id="line2d_26">
     <path d="M 96.214063 182.065938 
L 116.214063 182.065938 
" style="fill:none;stroke:#ff7f0e;stroke-dasharray:1.5,2.475;stroke-dashoffset:0;stroke-width:1.5;"/>
    </g>
    <g id="line2d_27">
     <g>
      <use style="fill:#ff7f0e;stroke:#ff7f0e;" x="106.214063" xlink:href="#m7a7ad17a45" y="182.065938"/>
     </g>
    </g>
    <g id="text_16">
     <!-- lancet -->
     <g transform="translate(124.214063 185.565938)scale(0.1 -0.1)">
      <use xlink:href="#DejaVuSans-108"/>
      <use x="27.783203" xlink:href="#DejaVuSans-97"/>
      <use x="89.0625" xlink:href="#DejaVuSans-110"/>
      <use x="152.441406" xlink:href="#DejaVuSans-99"/>
      <use x="207.421875" xlink:href="#DejaVuSans-101"/>
      <use x="268.945312" xlink:href="#DejaVuSans-116"/>
     </g>
    </g>
    <g id="line2d_28">
     <path d="M 96.214063 196.744062 
L 116.214063 196.744062 
" style="fill:none;stroke:#2ca02c;stroke-dasharray:1.5,2.475;stroke-dashoffset:0;stroke-width:1.5;"/>
    </g>
    <g id="line2d_29">
     <defs>
      <path d="M 0 2.5 
C 0.663008 2.5 1.29895 2.236584 1.767767 1.767767 
C 2.236584 1.29895 2.5 0.663008 2.5 0 
C 2.5 -0.663008 2.236584 -1.29895 1.767767 -1.767767 
C 1.29895 -2.236584 0.663008 -2.5 0 -2.5 
C -0.663008 -2.5 -1.29895 -2.236584 -1.767767 -1.767767 
C -2.236584 -1.29895 -2.5 -0.663008 -2.5 0 
C -2.5 0.663008 -2.236584 1.29895 -1.767767 1.767767 
C -1.29895 2.236584 -0.663008 2.5 0 2.5 
z
" id="m094ad285f3" style="stroke:#2ca02c;"/>
     </defs>
     <g>
      <use style="fill:#2ca02c;stroke:#2ca02c;" x="106.214063" xlink:href="#m094ad285f3" y="196.744062"/>
     </g>
    </g>
    <g id="text_17">
     <!-- manta -->
     <g transform="translate(124.214063 200.244062)scale(0.1 -0.1)">
      <use xlink:href="#DejaVuSans-109"/>
      <use x="97.412109" xlink:href="#DejaVuSans-97"/>
      <use x="158.691406" xlink:href="#DejaVuSans-110"/>
      <use x="222.070312" xlink:href="#DejaVuSans-116"/>
      <use x="261.279297" xlink:href="#DejaVuSans-97"/>
     </g>
    </g>
    <g id="line2d_30">
     <path d="M 96.214063 211.422187 
L 116.214063 211.422187 
" style="fill:none;stroke:#d62728;stroke-dasharray:1.5,2.475;stroke-dashoffset:0;stroke-width:1.5;"/>
    </g>
    <g id="line2d_31">
     <g>
      <use style="fill:#d62728;stroke:#d62728;" x="106.214063" xlink:href="#md7e0db837b" y="211.422187"/>
     </g>
    </g>
    <g id="text_18">
     <!-- strelka -->
     <g transform="translate(124.214063 214.922187)scale(0.1 -0.1)">
      <use xlink:href="#DejaVuSans-115"/>
      <use x="52.099609" xlink:href="#DejaVuSans-116"/>
      <use x="91.308594" xlink:href="#DejaVuSans-114"/>
      <use x="132.390625" xlink:href="#DejaVuSans-101"/>
      <use x="193.914062" xlink:href="#DejaVuSans-108"/>
      <use x="221.697266" xlink:href="#DejaVuSans-107"/>
      <use x="279.591797" xlink:href="#DejaVuSans-97"/>
     </g>
    </g>
    <g id="line2d_32">
     <path d="M 96.214063 226.100312 
L 116.214063 226.100312 
" style="fill:none;"/>
    </g>
    <g id="line2d_33">
     <defs>
      <path d="M 0 2.5 
C 0.663008 2.5 1.29895 2.236584 1.767767 1.767767 
C 2.236584 1.29895 2.5 0.663008 2.5 0 
C 2.5 -0.663008 2.236584 -1.29895 1.767767 -1.767767 
C 1.29895 -2.236584 0.663008 -2.5 0 -2.5 
C -0.663008 -2.5 -1.29895 -2.236584 -1.767767 -1.767767 
C -2.236584 -1.29895 -2.5 -0.663008 -2.5 0 
C -2.5 0.663008 -2.236584 1.29895 -1.767767 1.767767 
C -1.29895 2.236584 -0.663008 2.5 0 2.5 
z
" id="m430f4b5d3b" style="stroke:#1f77b4;"/>
     </defs>
     <g>
      <use style="fill:#1f77b4;stroke:#1f77b4;" x="106.214063" xlink:href="#m430f4b5d3b" y="226.100312"/>
     </g>
    </g>
    <g id="text_19">
     <!-- delly -->
     <g transform="translate(124.214063 229.600312)scale(0.1 -0.1)">
      <use xlink:href="#DejaVuSans-100"/>
      <use x="63.476562" xlink:href="#DejaVuSans-101"/>
      <use x="125" xlink:href="#DejaVuSans-108"/>
      <use x="152.783203" xlink:href="#DejaVuSans-108"/>
      <use x="180.566406" xlink:href="#DejaVuSans-121"/>
     </g>
    </g>
    <g id="line2d_34">
     <path d="M 96.214063 240.778437 
L 116.214063 240.778437 
" style="fill:none;"/>
    </g>
    <g id="line2d_35">
     <defs>
      <path d="M 0 2.5 
C 0.663008 2.5 1.29895 2.236584 1.767767 1.767767 
C 2.236584 1.29895 2.5 0.663008 2.5 0 
C 2.5 -0.663008 2.236584 -1.29895 1.767767 -1.767767 
C 1.29895 -2.236584 0.663008 -2.5 0 -2.5 
C -0.663008 -2.5 -1.29895 -2.236584 -1.767767 -1.767767 
C -2.236584 -1.29895 -2.5 -0.663008 -2.5 0 
C -2.5 0.663008 -2.236584 1.29895 -1.767767 1.767767 
C -1.29895 2.236584 -0.663008 2.5 0 2.5 
z
" id="m110326c1ce" style="stroke:#9467bd;"/>
     </defs>
     <g>
      <use style="fill:#9467bd;stroke:#9467bd;" x="106.214063" xlink:href="#m110326c1ce" y="240.778437"/>
     </g>
    </g>
    <g id="text_20">
     <!-- bpi -->
     <defs>
      <path d="M 48.6875 27.296875 
Q 48.6875 37.203125 44.609375 42.84375 
Q 40.53125 48.484375 33.40625 48.484375 
Q 26.265625 48.484375 22.1875 42.84375 
Q 18.109375 37.203125 18.109375 27.296875 
Q 18.109375 17.390625 22.1875 11.75 
Q 26.265625 6.109375 33.40625 6.109375 
Q 40.53125 6.109375 44.609375 11.75 
Q 48.6875 17.390625 48.6875 27.296875 
z
M 18.109375 46.390625 
Q 20.953125 51.265625 25.265625 53.625 
Q 29.59375 56 35.59375 56 
Q 45.5625 56 51.78125 48.09375 
Q 58.015625 40.1875 58.015625 27.296875 
Q 58.015625 14.40625 51.78125 6.484375 
Q 45.5625 -1.421875 35.59375 -1.421875 
Q 29.59375 -1.421875 25.265625 0.953125 
Q 20.953125 3.328125 18.109375 8.203125 
L 18.109375 0 
L 9.078125 0 
L 9.078125 75.984375 
L 18.109375 75.984375 
z
" id="DejaVuSans-98"/>
     </defs>
     <g transform="translate(124.214063 244.278437)scale(0.1 -0.1)">
      <use xlink:href="#DejaVuSans-98"/>
      <use x="63.476562" xlink:href="#DejaVuSans-112"/>
      <use x="126.953125" xlink:href="#DejaVuSans-105"/>
     </g>
    </g>
   </g>
  </g>
  <g id="axes_2">
   <g id="patch_6">
    <path d="M 319.34125 255.358125 
L 558.74125 255.358125 
L 558.74125 22.318125 
L 319.34125 22.318125 
z
" style="fill:#ffffff;"/>
   </g>
   <g id="matplotlib.axis_3">
    <g id="xtick_5">
     <g id="line2d_36">
      <g>
       <use style="stroke:#000000;stroke-width:0.8;" x="325.621877" xlink:href="#m6f361dacc9" y="255.358125"/>
      </g>
     </g>
     <g id="text_21">
      <!-- 0.0 -->
      <g transform="translate(317.670314 269.956562)scale(0.1 -0.1)">
       <use xlink:href="#DejaVuSans-48"/>
       <use x="63.623047" xlink:href="#DejaVuSans-46"/>
       <use x="95.410156" xlink:href="#DejaVuSans-48"/>
      </g>
     </g>
    </g>
    <g id="xtick_6">
     <g id="line2d_37">
      <g>
       <use style="stroke:#000000;stroke-width:0.8;" x="379.087723" xlink:href="#m6f361dacc9" y="255.358125"/>
      </g>
     </g>
     <g id="text_22">
      <!-- 0.1 -->
      <g transform="translate(371.136161 269.956562)scale(0.1 -0.1)">
       <use xlink:href="#DejaVuSans-48"/>
       <use x="63.623047" xlink:href="#DejaVuSans-46"/>
       <use x="95.410156" xlink:href="#DejaVuSans-49"/>
      </g>
     </g>
    </g>
    <g id="xtick_7">
     <g id="line2d_38">
      <g>
       <use style="stroke:#000000;stroke-width:0.8;" x="432.55357" xlink:href="#m6f361dacc9" y="255.358125"/>
      </g>
     </g>
     <g id="text_23">
      <!-- 0.2 -->
      <g transform="translate(424.602007 269.956562)scale(0.1 -0.1)">
       <use xlink:href="#DejaVuSans-48"/>
       <use x="63.623047" xlink:href="#DejaVuSans-46"/>
       <use x="95.410156" xlink:href="#DejaVuSans-50"/>
      </g>
     </g>
    </g>
    <g id="xtick_8">
     <g id="line2d_39">
      <g>
       <use style="stroke:#000000;stroke-width:0.8;" x="486.019416" xlink:href="#m6f361dacc9" y="255.358125"/>
      </g>
     </g>
     <g id="text_24">
      <!-- 0.3 -->
      <g transform="translate(478.067854 269.956562)scale(0.1 -0.1)">
       <use xlink:href="#DejaVuSans-48"/>
       <use x="63.623047" xlink:href="#DejaVuSans-46"/>
       <use x="95.410156" xlink:href="#DejaVuSans-51"/>
      </g>
     </g>
    </g>
    <g id="xtick_9">
     <g id="line2d_40">
      <g>
       <use style="stroke:#000000;stroke-width:0.8;" x="539.485263" xlink:href="#m6f361dacc9" y="255.358125"/>
      </g>
     </g>
     <g id="text_25">
      <!-- 0.4 -->
      <g transform="translate(531.533701 269.956562)scale(0.1 -0.1)">
       <use xlink:href="#DejaVuSans-48"/>
       <use x="63.623047" xlink:href="#DejaVuSans-46"/>
       <use x="95.410156" xlink:href="#DejaVuSans-52"/>
      </g>
     </g>
    </g>
   </g>
   <g id="matplotlib.axis_4">
    <g id="ytick_6">
     <g id="line2d_41">
      <g>
       <use style="stroke:#000000;stroke-width:0.8;" x="319.34125" xlink:href="#m1d6c5afc3d" y="231.697734"/>
      </g>
     </g>
     <g id="text_26">
      <!-- 0.2 -->
      <g transform="translate(296.438125 235.496953)scale(0.1 -0.1)">
       <use xlink:href="#DejaVuSans-48"/>
       <use x="63.623047" xlink:href="#DejaVuSans-46"/>
       <use x="95.410156" xlink:href="#DejaVuSans-50"/>
      </g>
     </g>
    </g>
    <g id="ytick_7">
     <g id="line2d_42">
      <g>
       <use style="stroke:#000000;stroke-width:0.8;" x="319.34125" xlink:href="#m1d6c5afc3d" y="182.001014"/>
      </g>
     </g>
     <g id="text_27">
      <!-- 0.4 -->
      <g transform="translate(296.438125 185.800232)scale(0.1 -0.1)">
       <use xlink:href="#DejaVuSans-48"/>
       <use x="63.623047" xlink:href="#DejaVuSans-46"/>
       <use x="95.410156" xlink:href="#DejaVuSans-52"/>
      </g>
     </g>
    </g>
    <g id="ytick_8">
     <g id="line2d_43">
      <g>
       <use style="stroke:#000000;stroke-width:0.8;" x="319.34125" xlink:href="#m1d6c5afc3d" y="132.304293"/>
      </g>
     </g>
     <g id="text_28">
      <!-- 0.6 -->
      <g transform="translate(296.438125 136.103512)scale(0.1 -0.1)">
       <use xlink:href="#DejaVuSans-48"/>
       <use x="63.623047" xlink:href="#DejaVuSans-46"/>
       <use x="95.410156" xlink:href="#DejaVuSans-54"/>
      </g>
     </g>
    </g>
    <g id="ytick_9">
     <g id="line2d_44">
      <g>
       <use style="stroke:#000000;stroke-width:0.8;" x="319.34125" xlink:href="#m1d6c5afc3d" y="82.607573"/>
      </g>
     </g>
     <g id="text_29">
      <!-- 0.8 -->
      <g transform="translate(296.438125 86.406791)scale(0.1 -0.1)">
       <use xlink:href="#DejaVuSans-48"/>
       <use x="63.623047" xlink:href="#DejaVuSans-46"/>
       <use x="95.410156" xlink:href="#DejaVuSans-56"/>
      </g>
     </g>
    </g>
    <g id="ytick_10">
     <g id="line2d_45">
      <g>
       <use style="stroke:#000000;stroke-width:0.8;" x="319.34125" xlink:href="#m1d6c5afc3d" y="32.910852"/>
      </g>
     </g>
     <g id="text_30">
      <!-- 1.0 -->
      <g transform="translate(296.438125 36.710071)scale(0.1 -0.1)">
       <use xlink:href="#DejaVuSans-49"/>
       <use x="63.623047" xlink:href="#DejaVuSans-46"/>
       <use x="95.410156" xlink:href="#DejaVuSans-48"/>
      </g>
     </g>
    </g>
   </g>
   <g id="line2d_46">
    <path clip-path="url(#p783d840931)" d="M 330.683187 32.910852 
L 335.284379 32.910852 
L 340.34569 32.910852 
L 344.946881 32.910852 
L 350.008192 32.910852 
L 354.609384 32.910852 
L 359.670695 32.910852 
L 364.271886 32.910852 
L 369.333197 32.910852 
L 373.934389 32.910852 
L 378.995699 32.910852 
L 383.596891 32.910852 
L 388.658202 32.910852 
L 393.259393 32.910852 
L 398.320704 32.910852 
L 402.921896 32.910852 
L 407.983207 32.910852 
L 412.584398 32.910852 
L 417.645709 32.910852 
L 422.246901 32.910852 
L 427.308211 32.910852 
L 431.449284 32.910852 
L 436.510595 32.910852 
L 440.651667 32.910852 
L 445.712978 32.910852 
L 450.314169 32.910852 
L 455.37548 32.910852 
L 459.976672 32.910852 
L 465.037983 32.910852 
L 469.639174 32.910852 
L 474.700485 32.910852 
L 475.160604 39.566663 
L 475.160604 47.232674 
L 475.160604 53.791827 
L 475.160604 59.919939 
L 475.160604 65.779054 
L 475.160604 71.876147 
L 475.160604 77.127233 
L 475.160604 82.607573 
L 475.160604 87.340594 
L 475.160604 92.293244 
L 475.160604 96.581254 
L 475.160604 101.07892 
L 475.160604 104.981854 
L 475.160604 109.084472 
L 475.160604 112.651967 
L 475.160604 116.409391 
L 475.160604 119.682904 
L 475.160604 123.136937 
" style="fill:none;stroke:#1f77b4;stroke-linecap:square;stroke-width:1.5;"/>
   </g>
   <g id="line2d_47">
    <path clip-path="url(#p783d840931)" d="M 340.34569 63.213731 
L 355.069503 54.384744 
L 372.093912 51.393104 
L 387.737963 49.783196 
L 403.382015 50.132488 
L 420.406424 50.366312 
L 437.430833 48.715463 
L 453.074884 48.296834 
L 468.718936 50.024048 
L 482.98263 50.791806 
L 498.626681 50.259933 
L 514.270733 49.852916 
L 528.534427 49.508039 
L 541.417764 50.062818 
L 547.859432 59.607438 
L 547.859432 73.361671 
L 547.859432 85.509571 
L 547.859432 96.57194 
L 547.859432 106.223247 
L 547.859432 114.916607 
L 547.859432 122.975157 
L 547.859432 130.119206 
L 547.859432 136.646725 
L 547.859432 142.377258 
L 547.859432 148.163901 
L 547.859432 153.121908 
L 547.859432 157.83781 
L 547.859432 162.104718 
L 547.859432 166.186488 
L 547.859432 169.998166 
L 547.859432 173.565702 
L 547.859432 176.992817 
L 547.859432 180.132716 
L 547.859432 183.089263 
L 547.859432 185.769652 
L 547.859432 188.40576 
L 547.859432 190.900426 
L 547.859432 193.264738 
L 547.859432 195.563287 
L 547.859432 197.693092 
L 547.859432 199.71976 
L 547.859432 201.550934 
L 547.859432 203.393832 
L 547.859432 205.013426 
L 547.859432 206.698612 
L 547.859432 208.350462 
L 547.859432 209.893101 
L 547.859432 211.37193 
L 547.859432 212.825562 
" style="fill:none;stroke:#ff7f0e;stroke-linecap:square;stroke-width:1.5;"/>
   </g>
   <g id="line2d_48">
    <path clip-path="url(#p783d840931)" d="M 332.983783 32.910852 
L 339.885571 32.910852 
L 347.247477 32.910852 
L 354.149265 32.910852 
L 361.051052 32.910852 
L 367.952839 32.910852 
L 374.854627 32.910852 
L 375.314746 62.969353 
L 375.314746 86.540407 
L 375.314746 105.519697 
L 375.314746 121.129883 
L 375.314746 134.990602 
L 375.314746 145.970891 
L 375.314746 155.419047 
L 375.314746 164.650004 
L 375.314746 171.293997 
L 375.314746 177.621609 
L 375.314746 183.615709 
L 375.314746 188.638589 
L 375.314746 193.170635 
L 375.314746 196.771556 
L 375.314746 200.52701 
L 375.314746 203.963304 
L 375.314746 207.320752 
L 375.314746 210.214256 
L 375.314746 213.061464 
L 375.314746 215.531331 
L 375.314746 217.828882 
L 375.314746 220.246365 
L 375.314746 222.103356 
L 375.314746 224.092156 
L 375.314746 225.951866 
L 375.314746 227.482825 
L 375.314746 229.03201 
L 375.314746 230.589257 
L 375.314746 231.967337 
L 375.314746 233.27263 
L 375.314746 234.591036 
L 375.314746 235.763075 
L 375.314746 236.877848 
L 375.314746 237.61401 
L 375.314746 238.63216 
L 375.314746 239.604031 
L 375.314746 240.593153 
L 375.314746 241.478854 
L 375.314746 242.326919 
L 375.314746 243.192682 
L 375.314746 243.970194 
L 375.314746 244.765398 
" style="fill:none;stroke:#2ca02c;stroke-linecap:square;stroke-width:1.5;"/>
   </g>
   <g id="line2d_49">
    <path clip-path="url(#p783d840931)" d="M 331.143307 32.910852 
L 332.063545 32.910852 
L 332.983783 32.910852 
L 333.904021 32.910852 
L 335.284379 32.910852 
L 336.204617 32.910852 
L 337.124856 32.910852 
L 338.045094 32.910852 
L 338.965332 32.910852 
L 340.34569 32.910852 
L 341.265928 32.910852 
L 342.186166 32.910852 
L 343.106405 32.910852 
L 344.486762 32.910852 
L 345.407001 32.910852 
L 346.327239 32.910852 
L 347.247477 32.910852 
L 348.167716 32.910852 
L 349.548073 32.910852 
L 350.468311 32.910852 
L 351.38855 32.910852 
L 352.308788 32.910852 
L 353.689145 32.910852 
L 354.609384 32.910852 
L 355.529622 32.910852 
L 356.44986 32.910852 
L 357.370099 32.910852 
L 358.750456 32.910852 
L 359.670695 32.910852 
L 360.590933 32.910852 
L 361.511171 32.910852 
L 362.891529 32.910852 
L 363.811767 32.910852 
L 364.732005 32.910852 
L 365.652244 32.910852 
L 366.572482 32.910852 
L 367.952839 32.910852 
L 368.873078 32.910852 
L 369.793316 32.910852 
L 370.713554 32.910852 
L 372.093912 32.910852 
L 373.01415 32.910852 
L 373.934389 32.910852 
L 374.854627 32.910852 
L 375.314746 37.428736 
" style="fill:none;stroke:#d62728;stroke-linecap:square;stroke-width:1.5;"/>
   </g>
   <g id="line2d_50">
    <path clip-path="url(#p783d840931)" d="M 547.859432 212.825562 
L 547.859432 212.825562 
L 547.859432 212.825562 
L 547.859432 212.825562 
L 547.859432 212.825562 
L 547.859432 212.825562 
L 547.859432 212.825562 
L 547.859432 212.825562 
L 547.859432 212.825562 
L 547.859432 212.825562 
L 547.859432 212.825562 
L 547.859432 212.825562 
L 547.859432 212.825562 
L 547.859432 212.825562 
L 547.859432 212.825562 
L 547.859432 212.825562 
L 547.859432 212.825562 
L 547.859432 212.825562 
L 547.859432 212.825562 
L 547.859432 212.825562 
L 547.859432 212.825562 
L 544.178479 164.938327 
L 539.577287 163.775838 
L 534.055857 162.13181 
L 530.835023 159.617769 
L 528.074308 156.895956 
L 524.393355 154.742791 
L 517.951686 153.514943 
L 511.970137 151.431957 
L 507.829065 148.520469 
L 501.847516 145.798964 
L 496.786205 142.777569 
L 491.264775 139.196539 
L 485.743345 136.766228 
L 480.221915 133.536443 
L 475.160604 128.785941 
L 467.798698 127.277717 
L 461.357029 122.75513 
L 454.915361 117.977311 
L 446.173097 113.683438 
L 436.970714 109.577969 
L 427.768331 105.224966 
L 415.805232 104.031601 
L 406.14273 95.545149 
L 393.259393 94.416694 
L 381.756414 86.595581 
L 370.253435 71.928939 
L 355.069503 72.790937 
L 342.186166 57.153155 
" style="fill:none;stroke:#ff7f0e;stroke-dasharray:1.5,2.475;stroke-dashoffset:0;stroke-width:1.5;"/>
   </g>
   <g id="line2d_51">
    <path clip-path="url(#p783d840931)" d="M 375.314746 37.428736 
L 375.314746 32.910852 
L 373.934389 32.910852 
L 373.01415 32.910852 
L 372.554031 32.910852 
L 371.173674 32.910852 
L 369.793316 32.910852 
L 368.873078 32.910852 
L 367.952839 32.910852 
L 366.572482 32.910852 
L 365.652244 32.910852 
L 365.652244 32.910852 
L 363.811767 32.910852 
L 362.891529 32.910852 
L 361.511171 32.910852 
L 360.590933 32.910852 
L 359.670695 32.910852 
L 359.670695 32.910852 
L 357.830218 32.910852 
L 357.830218 32.910852 
L 357.830218 32.910852 
L 355.069503 32.910852 
L 353.689145 32.910852 
L 352.768907 32.910852 
L 351.38855 32.910852 
L 351.38855 32.910852 
L 349.548073 32.910852 
L 349.548073 32.910852 
L 347.707596 32.910852 
L 346.787358 32.910852 
L 345.407001 32.910852 
L 345.407001 32.910852 
L 343.106405 32.910852 
L 342.646286 32.910852 
L 341.726047 32.910852 
L 340.34569 32.910852 
L 339.425451 32.910852 
L 338.045094 32.910852 
L 337.584975 32.910852 
L 336.664736 32.910852 
L 335.284379 32.910852 
L 333.904021 32.910852 
L 332.983783 32.910852 
L 332.523664 32.910852 
L 331.603426 32.910852 
L 330.223068 32.910852 
" style="fill:none;stroke:#d62728;stroke-dasharray:1.5,2.475;stroke-dashoffset:0;stroke-width:1.5;"/>
   </g>
   <g id="line2d_52">
    <g clip-path="url(#p783d840931)">
     <use style="fill:#ff7f0e;stroke:#ff7f0e;" x="409.823683" xlink:href="#m7a7ad17a45" y="58.219367"/>
    </g>
   </g>
   <g id="line2d_53">
    <g clip-path="url(#p783d840931)">
     <use style="fill:#d62728;stroke:#d62728;" x="375.314746" xlink:href="#md7e0db837b" y="32.910852"/>
    </g>
   </g>
   <g id="patch_7">
    <path d="M 319.34125 255.358125 
L 319.34125 22.318125 
" style="fill:none;stroke:#000000;stroke-linecap:square;stroke-linejoin:miter;stroke-width:0.8;"/>
   </g>
   <g id="patch_8">
    <path d="M 319.34125 255.358125 
L 558.74125 255.358125 
" style="fill:none;stroke:#000000;stroke-linecap:square;stroke-linejoin:miter;stroke-width:0.8;"/>
   </g>
   <g id="text_31">
    <!-- 30 - 50 -->
    <defs>
     <path d="M 10.796875 72.90625 
L 49.515625 72.90625 
L 49.515625 64.59375 
L 19.828125 64.59375 
L 19.828125 46.734375 
Q 21.96875 47.46875 24.109375 47.828125 
Q 26.265625 48.1875 28.421875 48.1875 
Q 40.625 48.1875 47.75 41.5 
Q 54.890625 34.8125 54.890625 23.390625 
Q 54.890625 11.625 47.5625 5.09375 
Q 40.234375 -1.421875 26.90625 -1.421875 
Q 22.3125 -1.421875 17.546875 -0.640625 
Q 12.796875 0.140625 7.71875 1.703125 
L 7.71875 11.625 
Q 12.109375 9.234375 16.796875 8.0625 
Q 21.484375 6.890625 26.703125 6.890625 
Q 35.15625 6.890625 40.078125 11.328125 
Q 45.015625 15.765625 45.015625 23.390625 
Q 45.015625 31 40.078125 35.4375 
Q 35.15625 39.890625 26.703125 39.890625 
Q 22.75 39.890625 18.8125 39.015625 
Q 14.890625 38.140625 10.796875 36.28125 
z
" id="DejaVuSans-53"/>
    </defs>
    <g transform="translate(417.792813 16.318125)scale(0.12 -0.12)">
     <use xlink:href="#DejaVuSans-51"/>
     <use x="63.623047" xlink:href="#DejaVuSans-48"/>
     <use x="127.246094" xlink:href="#DejaVuSans-32"/>
     <use x="159.033203" xlink:href="#DejaVuSans-45"/>
     <use x="195.117188" xlink:href="#DejaVuSans-32"/>
     <use x="226.904297" xlink:href="#DejaVuSans-53"/>
     <use x="290.527344" xlink:href="#DejaVuSans-48"/>
    </g>
   </g>
  </g>
  <g id="axes_3">
   <g id="patch_9">
    <path d="M 43.78125 530.918125 
L 283.18125 530.918125 
L 283.18125 297.878125 
L 43.78125 297.878125 
z
" style="fill:#ffffff;"/>
   </g>
   <g id="matplotlib.axis_5">
    <g id="xtick_10">
     <g id="line2d_54">
      <g>
       <use style="stroke:#000000;stroke-width:0.8;" x="94.770341" xlink:href="#m6f361dacc9" y="530.918125"/>
      </g>
     </g>
     <g id="text_32">
      <!-- 0.05 -->
      <g transform="translate(83.637528 545.516562)scale(0.1 -0.1)">
       <use xlink:href="#DejaVuSans-48"/>
       <use x="63.623047" xlink:href="#DejaVuSans-46"/>
       <use x="95.410156" xlink:href="#DejaVuSans-48"/>
       <use x="159.033203" xlink:href="#DejaVuSans-53"/>
      </g>
     </g>
    </g>
    <g id="xtick_11">
     <g id="line2d_55">
      <g>
       <use style="stroke:#000000;stroke-width:0.8;" x="162.859432" xlink:href="#m6f361dacc9" y="530.918125"/>
      </g>
     </g>
     <g id="text_33">
      <!-- 0.10 -->
      <g transform="translate(151.726619 545.516562)scale(0.1 -0.1)">
       <use xlink:href="#DejaVuSans-48"/>
       <use x="63.623047" xlink:href="#DejaVuSans-46"/>
       <use x="95.410156" xlink:href="#DejaVuSans-49"/>
       <use x="159.033203" xlink:href="#DejaVuSans-48"/>
      </g>
     </g>
    </g>
    <g id="xtick_12">
     <g id="line2d_56">
      <g>
       <use style="stroke:#000000;stroke-width:0.8;" x="230.948523" xlink:href="#m6f361dacc9" y="530.918125"/>
      </g>
     </g>
     <g id="text_34">
      <!-- 0.15 -->
      <g transform="translate(219.81571 545.516562)scale(0.1 -0.1)">
       <use xlink:href="#DejaVuSans-48"/>
       <use x="63.623047" xlink:href="#DejaVuSans-46"/>
       <use x="95.410156" xlink:href="#DejaVuSans-49"/>
       <use x="159.033203" xlink:href="#DejaVuSans-53"/>
      </g>
     </g>
    </g>
    <g id="text_35">
     <!-- recall -->
     <g transform="translate(149.759375 559.194687)scale(0.1 -0.1)">
      <use xlink:href="#DejaVuSans-114"/>
      <use x="41.082031" xlink:href="#DejaVuSans-101"/>
      <use x="102.605469" xlink:href="#DejaVuSans-99"/>
      <use x="157.585938" xlink:href="#DejaVuSans-97"/>
      <use x="218.865234" xlink:href="#DejaVuSans-108"/>
      <use x="246.648438" xlink:href="#DejaVuSans-108"/>
     </g>
    </g>
   </g>
   <g id="matplotlib.axis_6">
    <g id="ytick_11">
     <g id="line2d_57">
      <g>
       <use style="stroke:#000000;stroke-width:0.8;" x="43.78125" xlink:href="#m1d6c5afc3d" y="498.587279"/>
      </g>
     </g>
     <g id="text_36">
      <!-- 0.2 -->
      <g transform="translate(20.878125 502.386498)scale(0.1 -0.1)">
       <use xlink:href="#DejaVuSans-48"/>
       <use x="63.623047" xlink:href="#DejaVuSans-46"/>
       <use x="95.410156" xlink:href="#DejaVuSans-50"/>
      </g>
     </g>
    </g>
    <g id="ytick_12">
     <g id="line2d_58">
      <g>
       <use style="stroke:#000000;stroke-width:0.8;" x="43.78125" xlink:href="#m1d6c5afc3d" y="451.058172"/>
      </g>
     </g>
     <g id="text_37">
      <!-- 0.4 -->
      <g transform="translate(20.878125 454.857391)scale(0.1 -0.1)">
       <use xlink:href="#DejaVuSans-48"/>
       <use x="63.623047" xlink:href="#DejaVuSans-46"/>
       <use x="95.410156" xlink:href="#DejaVuSans-52"/>
      </g>
     </g>
    </g>
    <g id="ytick_13">
     <g id="line2d_59">
      <g>
       <use style="stroke:#000000;stroke-width:0.8;" x="43.78125" xlink:href="#m1d6c5afc3d" y="403.529066"/>
      </g>
     </g>
     <g id="text_38">
      <!-- 0.6 -->
      <g transform="translate(20.878125 407.328284)scale(0.1 -0.1)">
       <use xlink:href="#DejaVuSans-48"/>
       <use x="63.623047" xlink:href="#DejaVuSans-46"/>
       <use x="95.410156" xlink:href="#DejaVuSans-54"/>
      </g>
     </g>
    </g>
    <g id="ytick_14">
     <g id="line2d_60">
      <g>
       <use style="stroke:#000000;stroke-width:0.8;" x="43.78125" xlink:href="#m1d6c5afc3d" y="355.999959"/>
      </g>
     </g>
     <g id="text_39">
      <!-- 0.8 -->
      <g transform="translate(20.878125 359.799178)scale(0.1 -0.1)">
       <use xlink:href="#DejaVuSans-48"/>
       <use x="63.623047" xlink:href="#DejaVuSans-46"/>
       <use x="95.410156" xlink:href="#DejaVuSans-56"/>
      </g>
     </g>
    </g>
    <g id="ytick_15">
     <g id="line2d_61">
      <g>
       <use style="stroke:#000000;stroke-width:0.8;" x="43.78125" xlink:href="#m1d6c5afc3d" y="308.470852"/>
      </g>
     </g>
     <g id="text_40">
      <!-- 1.0 -->
      <g transform="translate(20.878125 312.270071)scale(0.1 -0.1)">
       <use xlink:href="#DejaVuSans-49"/>
       <use x="63.623047" xlink:href="#DejaVuSans-46"/>
       <use x="95.410156" xlink:href="#DejaVuSans-48"/>
      </g>
     </g>
    </g>
    <g id="text_41">
     <!-- precision -->
     <g transform="translate(14.798438 437.062969)rotate(-90)scale(0.1 -0.1)">
      <use xlink:href="#DejaVuSans-112"/>
      <use x="63.476562" xlink:href="#DejaVuSans-114"/>
      <use x="104.558594" xlink:href="#DejaVuSans-101"/>
      <use x="166.082031" xlink:href="#DejaVuSans-99"/>
      <use x="221.0625" xlink:href="#DejaVuSans-105"/>
      <use x="248.845703" xlink:href="#DejaVuSans-115"/>
      <use x="300.945312" xlink:href="#DejaVuSans-105"/>
      <use x="328.728516" xlink:href="#DejaVuSans-111"/>
      <use x="389.910156" xlink:href="#DejaVuSans-110"/>
     </g>
    </g>
   </g>
   <g id="line2d_62">
    <path clip-path="url(#p24e7489c17)" d="M 54.663068 332.235406 
L 54.663068 332.235406 
L 54.663068 332.235406 
L 54.663068 351.679131 
L 54.663068 351.679131 
L 54.663068 367.882236 
L 54.663068 367.882236 
L 54.663068 381.592555 
L 54.663068 381.592555 
L 54.663068 381.592555 
L 54.663068 393.344257 
L 54.663068 393.344257 
L 54.663068 403.529066 
L 54.663068 403.529066 
L 54.663068 412.440773 
L 54.663068 412.440773 
L 54.663068 412.440773 
L 54.663068 420.304045 
L 54.663068 420.304045 
L 54.663068 427.293619 
L 54.663068 427.293619 
L 54.663068 433.547449 
L 54.663068 433.547449 
L 54.663068 433.547449 
L 54.663068 439.175896 
L 54.663068 439.175896 
L 54.663068 444.2683 
L 54.663068 444.2683 
L 54.663068 448.897758 
" style="fill:none;stroke:#1f77b4;stroke-linecap:square;stroke-width:1.5;"/>
   </g>
   <g id="line2d_63">
    <path clip-path="url(#p24e7489c17)" d="M 60.88125 382.735082 
L 79.535795 360.132925 
L 98.190341 354.466762 
L 116.844886 345.993831 
L 138.608523 344.634303 
L 160.372159 339.276755 
L 179.026705 339.63748 
L 194.572159 342.912234 
L 213.226705 342.866916 
L 234.990341 339.591101 
L 253.644886 337.197235 
L 272.299432 339.676831 
L 272.299432 355.111564 
L 272.299432 366.839931 
L 272.299432 378.595764 
L 272.299432 387.68603 
L 272.299432 396.937438 
L 272.299432 404.189192 
L 272.299432 411.659044 
L 272.299432 418.381912 
L 272.299432 423.736051 
L 272.299432 429.330581 
L 272.299432 433.822343 
L 272.299432 438.550513 
L 272.299432 442.37265 
L 272.299432 446.421186 
L 272.299432 450.165607 
L 272.299432 453.218586 
L 272.299432 456.478158 
L 272.299432 459.148233 
L 272.299432 462.011382 
L 272.299432 464.366322 
L 272.299432 466.901208 
L 272.299432 468.096909 
L 272.299432 470.383194 
L 272.299432 472.539299 
L 272.299432 474.327631 
L 272.299432 476.267868 
L 272.299432 477.88153 
L 272.299432 479.636767 
L 272.299432 481.303968 
L 272.299432 482.695645 
L 272.299432 484.214705 
L 272.299432 485.485414 
L 272.299432 486.875236 
L 272.299432 488.04009 
L 272.299432 489.316492 
L 272.299432 490.537995 
" style="fill:none;stroke:#ff7f0e;stroke-linecap:square;stroke-width:1.5;"/>
   </g>
   <g id="line2d_64">
    <path clip-path="url(#p24e7489c17)" d="M 57.772159 308.470852 
L 67.099432 308.470852 
L 67.099432 350.408299 
L 67.099432 371.009151 
L 67.099432 387.68603 
L 67.099432 407.489825 
L 67.099432 422.892776 
L 67.099432 431.390956 
L 67.099432 442.146465 
L 67.099432 448.262343 
L 67.099432 456.196454 
L 67.099432 462.940449 
L 67.099432 468.743421 
L 67.099432 473.789484 
L 67.099432 476.803105 
L 67.099432 479.575636 
L 67.099432 483.342094 
L 67.099432 485.624795 
L 67.099432 488.753671 
L 67.099432 492.454491 
L 67.099432 493.306267 
L 67.099432 495.706727 
L 67.099432 497.189364 
L 67.099432 499.256703 
L 67.099432 501.15642 
L 67.099432 502.908107 
L 67.099432 504.001988 
L 67.099432 505.542758 
L 67.099432 506.508797 
L 67.099432 507.874576 
L 67.099432 508.733942 
L 67.099432 509.952935 
L 67.099432 511.094939 
L 67.099432 511.817031 
L 67.099432 512.846011 
L 67.099432 513.498371 
L 67.099432 514.430315 
L 67.099432 515.310483 
L 67.099432 515.870591 
L 67.099432 516.931847 
L 67.099432 517.185625 
L 67.099432 517.921153 
L 67.099432 518.620208 
L 67.099432 519.067301 
L 67.099432 519.711327 
L 67.099432 520.325398 
" style="fill:none;stroke:#2ca02c;stroke-linecap:square;stroke-width:1.5;"/>
   </g>
   <g id="line2d_65">
    <path clip-path="url(#p24e7489c17)" d="M 272.299432 490.537995 
L 272.299432 490.537995 
L 272.299432 490.537995 
L 272.299432 490.537995 
L 272.299432 490.537995 
L 272.299432 490.537995 
L 272.299432 490.537995 
L 272.299432 490.537995 
L 272.299432 490.537995 
L 272.299432 490.537995 
L 272.299432 490.537995 
L 272.299432 490.537995 
L 272.299432 490.537995 
L 272.299432 490.537995 
L 272.299432 490.537995 
L 272.299432 490.537995 
L 272.299432 490.537995 
L 272.299432 490.537995 
L 272.299432 490.537995 
L 272.299432 490.537995 
L 272.299432 490.537995 
L 272.299432 490.537995 
L 272.299432 490.537995 
L 266.08125 444.785295 
L 253.644886 446.055109 
L 247.426705 446.879789 
L 238.099432 447.5475 
L 231.88125 445.081458 
L 231.88125 441.316182 
L 225.663068 439.801279 
L 222.553977 435.5452 
L 216.335795 433.364855 
L 210.117614 430.056939 
L 207.008523 425.345705 
L 200.790341 421.039789 
L 194.572159 417.299181 
L 194.572159 406.88971 
L 188.353977 399.872981 
L 182.135795 393.344257 
L 172.808523 389.77064 
L 169.699432 377.353616 
L 157.263068 374.699935 
L 144.826705 374.4835 
L 135.499432 365.299132 
L 129.28125 339.740001 
L 113.735795 331.468807 
L 91.972159 329.135681 
L 70.208523 338.176544 
" style="fill:none;stroke:#ff7f0e;stroke-dasharray:1.5,2.475;stroke-dashoffset:0;stroke-width:1.5;"/>
   </g>
   <g id="line2d_66">
    <g clip-path="url(#p24e7489c17)">
     <use style="fill:#ff7f0e;stroke:#ff7f0e;" x="116.844886" xlink:href="#m7a7ad17a45" y="322.873612"/>
    </g>
   </g>
   <g id="patch_10">
    <path d="M 43.78125 530.918125 
L 43.78125 297.878125 
" style="fill:none;stroke:#000000;stroke-linecap:square;stroke-linejoin:miter;stroke-width:0.8;"/>
   </g>
   <g id="patch_11">
    <path d="M 43.78125 530.918125 
L 283.18125 530.918125 
" style="fill:none;stroke:#000000;stroke-linecap:square;stroke-linejoin:miter;stroke-width:0.8;"/>
   </g>
   <g id="text_42">
    <!-- 50 - 70 -->
    <defs>
     <path d="M 8.203125 72.90625 
L 55.078125 72.90625 
L 55.078125 68.703125 
L 28.609375 0 
L 18.3125 0 
L 43.21875 64.59375 
L 8.203125 64.59375 
z
" id="DejaVuSans-55"/>
    </defs>
    <g transform="translate(142.232813 291.878125)scale(0.12 -0.12)">
     <use xlink:href="#DejaVuSans-53"/>
     <use x="63.623047" xlink:href="#DejaVuSans-48"/>
     <use x="127.246094" xlink:href="#DejaVuSans-32"/>
     <use x="159.033203" xlink:href="#DejaVuSans-45"/>
     <use x="195.117188" xlink:href="#DejaVuSans-32"/>
     <use x="226.904297" xlink:href="#DejaVuSans-55"/>
     <use x="290.527344" xlink:href="#DejaVuSans-48"/>
    </g>
   </g>
  </g>
  <g id="axes_4">
   <g id="patch_12">
    <path d="M 319.34125 530.918125 
L 558.74125 530.918125 
L 558.74125 297.878125 
L 319.34125 297.878125 
z
" style="fill:#ffffff;"/>
   </g>
   <g id="matplotlib.axis_7">
    <g id="xtick_13">
     <g id="line2d_67">
      <g>
       <use style="stroke:#000000;stroke-width:0.8;" x="319.859432" xlink:href="#m6f361dacc9" y="530.918125"/>
      </g>
     </g>
     <g id="text_43">
      <!-- 0.00 -->
      <g transform="translate(308.726619 545.516562)scale(0.1 -0.1)">
       <use xlink:href="#DejaVuSans-48"/>
       <use x="63.623047" xlink:href="#DejaVuSans-46"/>
       <use x="95.410156" xlink:href="#DejaVuSans-48"/>
       <use x="159.033203" xlink:href="#DejaVuSans-48"/>
      </g>
     </g>
    </g>
    <g id="xtick_14">
     <g id="line2d_68">
      <g>
       <use style="stroke:#000000;stroke-width:0.8;" x="381.419432" xlink:href="#m6f361dacc9" y="530.918125"/>
      </g>
     </g>
     <g id="text_44">
      <!-- 0.02 -->
      <g transform="translate(370.286619 545.516562)scale(0.1 -0.1)">
       <use xlink:href="#DejaVuSans-48"/>
       <use x="63.623047" xlink:href="#DejaVuSans-46"/>
       <use x="95.410156" xlink:href="#DejaVuSans-48"/>
       <use x="159.033203" xlink:href="#DejaVuSans-50"/>
      </g>
     </g>
    </g>
    <g id="xtick_15">
     <g id="line2d_69">
      <g>
       <use style="stroke:#000000;stroke-width:0.8;" x="442.979432" xlink:href="#m6f361dacc9" y="530.918125"/>
      </g>
     </g>
     <g id="text_45">
      <!-- 0.04 -->
      <g transform="translate(431.846619 545.516562)scale(0.1 -0.1)">
       <use xlink:href="#DejaVuSans-48"/>
       <use x="63.623047" xlink:href="#DejaVuSans-46"/>
       <use x="95.410156" xlink:href="#DejaVuSans-48"/>
       <use x="159.033203" xlink:href="#DejaVuSans-52"/>
      </g>
     </g>
    </g>
    <g id="xtick_16">
     <g id="line2d_70">
      <g>
       <use style="stroke:#000000;stroke-width:0.8;" x="504.539432" xlink:href="#m6f361dacc9" y="530.918125"/>
      </g>
     </g>
     <g id="text_46">
      <!-- 0.06 -->
      <g transform="translate(493.406619 545.516562)scale(0.1 -0.1)">
       <use xlink:href="#DejaVuSans-48"/>
       <use x="63.623047" xlink:href="#DejaVuSans-46"/>
       <use x="95.410156" xlink:href="#DejaVuSans-48"/>
       <use x="159.033203" xlink:href="#DejaVuSans-54"/>
      </g>
     </g>
    </g>
    <g id="text_47">
     <!-- recall -->
     <g transform="translate(425.319375 559.194687)scale(0.1 -0.1)">
      <use xlink:href="#DejaVuSans-114"/>
      <use x="41.082031" xlink:href="#DejaVuSans-101"/>
      <use x="102.605469" xlink:href="#DejaVuSans-99"/>
      <use x="157.585938" xlink:href="#DejaVuSans-97"/>
      <use x="218.865234" xlink:href="#DejaVuSans-108"/>
      <use x="246.648438" xlink:href="#DejaVuSans-108"/>
     </g>
    </g>
   </g>
   <g id="matplotlib.axis_8">
    <g id="ytick_16">
     <g id="line2d_71">
      <g>
       <use style="stroke:#000000;stroke-width:0.8;" x="319.34125" xlink:href="#m1d6c5afc3d" y="523.635625"/>
      </g>
     </g>
     <g id="text_48">
      <!-- 0.0 -->
      <g transform="translate(296.438125 527.434844)scale(0.1 -0.1)">
       <use xlink:href="#DejaVuSans-48"/>
       <use x="63.623047" xlink:href="#DejaVuSans-46"/>
       <use x="95.410156" xlink:href="#DejaVuSans-48"/>
      </g>
     </g>
    </g>
    <g id="ytick_17">
     <g id="line2d_72">
      <g>
       <use style="stroke:#000000;stroke-width:0.8;" x="319.34125" xlink:href="#m1d6c5afc3d" y="480.60267"/>
      </g>
     </g>
     <g id="text_49">
      <!-- 0.2 -->
      <g transform="translate(296.438125 484.401889)scale(0.1 -0.1)">
       <use xlink:href="#DejaVuSans-48"/>
       <use x="63.623047" xlink:href="#DejaVuSans-46"/>
       <use x="95.410156" xlink:href="#DejaVuSans-50"/>
      </g>
     </g>
    </g>
    <g id="ytick_18">
     <g id="line2d_73">
      <g>
       <use style="stroke:#000000;stroke-width:0.8;" x="319.34125" xlink:href="#m1d6c5afc3d" y="437.569716"/>
      </g>
     </g>
     <g id="text_50">
      <!-- 0.4 -->
      <g transform="translate(296.438125 441.368935)scale(0.1 -0.1)">
       <use xlink:href="#DejaVuSans-48"/>
       <use x="63.623047" xlink:href="#DejaVuSans-46"/>
       <use x="95.410156" xlink:href="#DejaVuSans-52"/>
      </g>
     </g>
    </g>
    <g id="ytick_19">
     <g id="line2d_74">
      <g>
       <use style="stroke:#000000;stroke-width:0.8;" x="319.34125" xlink:href="#m1d6c5afc3d" y="394.536761"/>
      </g>
     </g>
     <g id="text_51">
      <!-- 0.6 -->
      <g transform="translate(296.438125 398.33598)scale(0.1 -0.1)">
       <use xlink:href="#DejaVuSans-48"/>
       <use x="63.623047" xlink:href="#DejaVuSans-46"/>
       <use x="95.410156" xlink:href="#DejaVuSans-54"/>
      </g>
     </g>
    </g>
    <g id="ytick_20">
     <g id="line2d_75">
      <g>
       <use style="stroke:#000000;stroke-width:0.8;" x="319.34125" xlink:href="#m1d6c5afc3d" y="351.503807"/>
      </g>
     </g>
     <g id="text_52">
      <!-- 0.8 -->
      <g transform="translate(296.438125 355.303026)scale(0.1 -0.1)">
       <use xlink:href="#DejaVuSans-48"/>
       <use x="63.623047" xlink:href="#DejaVuSans-46"/>
       <use x="95.410156" xlink:href="#DejaVuSans-56"/>
      </g>
     </g>
    </g>
    <g id="ytick_21">
     <g id="line2d_76">
      <g>
       <use style="stroke:#000000;stroke-width:0.8;" x="319.34125" xlink:href="#m1d6c5afc3d" y="308.470852"/>
      </g>
     </g>
     <g id="text_53">
      <!-- 1.0 -->
      <g transform="translate(296.438125 312.270071)scale(0.1 -0.1)">
       <use xlink:href="#DejaVuSans-49"/>
       <use x="63.623047" xlink:href="#DejaVuSans-46"/>
       <use x="95.410156" xlink:href="#DejaVuSans-48"/>
      </g>
     </g>
    </g>
   </g>
   <g id="line2d_77">
    <path clip-path="url(#p1ef2c88c9a)" d="M 423.495795 308.470852 
L 454.586705 308.470852 
L 485.677614 308.470852 
L 506.404886 319.795314 
L 537.495795 318.251069 
L 547.859432 334.290625 
L 547.859432 354.577589 
L 547.859432 370.938044 
L 547.859432 384.41136 
L 547.859432 395.699814 
L 547.859432 405.295 
L 547.859432 413.551323 
L 547.859432 420.730734 
L 547.859432 427.031033 
L 547.859432 432.604375 
L 547.859432 437.569716 
L 547.859432 442.021401 
L 547.859432 446.035215 
L 547.859432 449.672734 
L 547.859432 452.984506 
L 547.859432 456.012411 
L 547.859432 458.791447 
L 547.859432 462.159976 
L 547.859432 464.465312 
L 547.859432 466.603998 
L 547.859432 468.593474 
L 547.859432 470.448827 
L 547.859432 472.183179 
L 547.859432 473.807993 
L 547.859432 475.333329 
L 547.859432 476.768051 
L 547.859432 478.12 
L 547.859432 479.396139 
L 547.859432 480.60267 
L 547.859432 481.745138 
L 547.859432 482.828513 
L 547.859432 483.857264 
L 547.859432 484.83542 
L 547.859432 485.766625 
L 547.859432 486.65418 
L 547.859432 487.501083 
L 547.859432 488.310065 
L 547.859432 489.580769 
L 547.859432 489.824018 
L 547.859432 490.533352 
L 547.859432 491.213536 
L 547.859432 492.078125 
" style="fill:none;stroke:#ff7f0e;stroke-linecap:square;stroke-width:1.5;"/>
   </g>
   <g id="line2d_78">
    <path clip-path="url(#p1ef2c88c9a)" d="M 330.223068 502.119148 
L 330.223068 504.075191 
L 330.223068 505.705227 
L 330.223068 508.266713 
L 330.223068 509.291307 
L 330.223068 509.291307 
L 330.223068 510.978874 
L 330.223068 512.311163 
L 330.223068 512.877386 
L 330.223068 513.389683 
L 330.223068 514.280635 
L 330.223068 514.670426 
L 330.223068 515.029034 
L 330.223068 515.666559 
L 330.223068 515.951169 
L 330.223068 516.21615 
L 330.223068 516.694826 
L 330.223068 516.911726 
L 330.223068 517.11548 
L 330.223068 517.307249 
L 330.223068 517.658826 
L 330.223068 517.820361 
L 330.223068 517.973394 
L 330.223068 518.256506 
L 330.223068 518.387704 
L 330.223068 518.512654 
L 330.223068 518.854186 
L 330.223068 518.854186 
L 330.223068 518.95813 
L 330.223068 519.153026 
L 330.223068 519.33233 
L 330.223068 519.33233 
L 330.223068 519.416708 
L 330.223068 519.575912 
L 330.223068 519.651092 
L 330.223068 519.723538 
L 330.223068 519.925888 
L 330.223068 519.925888 
L 330.223068 520.049545 
L 330.223068 520.108334 
L 330.223068 520.220311 
L 330.223068 520.220311 
L 330.223068 520.325398 
" style="fill:none;stroke:#2ca02c;stroke-linecap:square;stroke-width:1.5;"/>
   </g>
   <g id="line2d_79">
    <path clip-path="url(#p1ef2c88c9a)" d="M 547.859432 492.078125 
L 547.859432 492.078125 
L 547.859432 492.078125 
L 547.859432 492.078125 
L 547.859432 492.078125 
L 547.859432 492.078125 
L 547.859432 492.078125 
L 547.859432 492.078125 
L 547.859432 492.078125 
L 547.859432 492.078125 
L 547.859432 492.078125 
L 547.859432 492.078125 
L 547.859432 492.078125 
L 547.859432 492.078125 
L 547.859432 492.078125 
L 547.859432 492.078125 
L 547.859432 492.078125 
L 547.859432 492.078125 
L 547.859432 492.078125 
L 547.859432 492.078125 
L 547.859432 470.448827 
L 547.859432 468.593474 
L 527.132159 471.788692 
L 527.132159 469.844432 
L 527.132159 467.748671 
L 527.132159 464.686372 
L 506.404886 468.307541 
L 506.404886 465.830164 
L 496.04125 466.482482 
L 475.313977 470.726255 
L 454.586705 475.409038 
L 454.586705 472.778497 
L 454.586705 469.844432 
L 454.586705 466.551093 
L 444.223068 467.505684 
L 444.223068 463.589642 
L 433.859432 464.465312 
L 423.495795 465.482984 
L 423.495795 460.351868 
L 413.132159 461.168433 
L 402.768523 462.159976 
L 402.768523 454.782898 
L 402.768523 445.393889 
L 392.404886 444.364393 
L 392.404886 429.501037 
L 382.04125 424.328807 
L 371.677614 416.053239 
" style="fill:none;stroke:#ff7f0e;stroke-dasharray:1.5,2.475;stroke-dashoffset:0;stroke-width:1.5;"/>
   </g>
   <g id="patch_13">
    <path d="M 319.34125 530.918125 
L 319.34125 297.878125 
" style="fill:none;stroke:#000000;stroke-linecap:square;stroke-linejoin:miter;stroke-width:0.8;"/>
   </g>
   <g id="patch_14">
    <path d="M 319.34125 530.918125 
L 558.74125 530.918125 
" style="fill:none;stroke:#000000;stroke-linecap:square;stroke-linejoin:miter;stroke-width:0.8;"/>
   </g>
   <g id="text_54">
    <!-- 70 - 100 -->
    <g transform="translate(413.975313 291.878125)scale(0.12 -0.12)">
     <use xlink:href="#DejaVuSans-55"/>
     <use x="63.623047" xlink:href="#DejaVuSans-48"/>
     <use x="127.246094" xlink:href="#DejaVuSans-32"/>
     <use x="159.033203" xlink:href="#DejaVuSans-45"/>
     <use x="195.117188" xlink:href="#DejaVuSans-32"/>
     <use x="226.904297" xlink:href="#DejaVuSans-49"/>
     <use x="290.527344" xlink:href="#DejaVuSans-48"/>
     <use x="354.150391" xlink:href="#DejaVuSans-48"/>
    </g>
   </g>
  </g>
 </g>
 <defs>
  <clipPath id="p034a0f5244">
   <rect height="233.04" width="239.4" x="43.78125" y="22.318125"/>
  </clipPath>
  <clipPath id="p783d840931">
   <rect height="233.04" width="239.4" x="319.34125" y="22.318125"/>
  </clipPath>
  <clipPath id="p24e7489c17">
   <rect height="233.04" width="239.4" x="43.78125" y="297.878125"/>
  </clipPath>
  <clipPath id="p1ef2c88c9a">
   <rect height="233.04" width="239.4" x="319.34125" y="297.878125"/>
  </clipPath>
 </defs>
</svg>
