<?xml version="1.0" encoding="utf-8" standalone="no"?>
<!DOCTYPE svg PUBLIC "-//W3C//DTD SVG 1.1//EN"
  "http://www.w3.org/Graphics/SVG/1.1/DTD/svg11.dtd">
<!-- Created with matplotlib (https://matplotlib.org/) -->
<svg height="568.474375pt" version="1.1" viewBox="0 0 569.44125 568.474375" width="569.44125pt" xmlns="http://www.w3.org/2000/svg" xmlns:xlink="http://www.w3.org/1999/xlink">
 <defs>
  <style type="text/css">
*{stroke-linecap:butt;stroke-linejoin:round;}
  </style>
 </defs>
 <g id="figure_1">
  <g id="patch_1">
   <path d="M 0 568.474375 
L 569.44125 568.474375 
L 569.44125 0 
L 0 0 
z
" style="fill:#ffffff;"/>
  </g>
  <g id="axes_1">
   <g id="patch_2">
    <path d="M 43.78125 255.358125 
L 283.18125 255.358125 
L 283.18125 22.318125 
L 43.78125 22.318125 
z
" style="fill:#ffffff;"/>
   </g>
   <g id="matplotlib.axis_1">
    <g id="xtick_1">
     <g id="line2d_1">
      <defs>
       <path d="M 0 0 
L 0 3.5 
" id="m8b34c3f41d" style="stroke:#000000;stroke-width:0.8;"/>
      </defs>
      <g>
       <use style="stroke:#000000;stroke-width:0.8;" x="54.446332" xlink:href="#m8b34c3f41d" y="255.358125"/>
      </g>
     </g>
     <g id="text_1">
      <!-- 0.0 -->
      <defs>
       <path d="M 31.78125 66.40625 
Q 24.171875 66.40625 20.328125 58.90625 
Q 16.5 51.421875 16.5 36.375 
Q 16.5 21.390625 20.328125 13.890625 
Q 24.171875 6.390625 31.78125 6.390625 
Q 39.453125 6.390625 43.28125 13.890625 
Q 47.125 21.390625 47.125 36.375 
Q 47.125 51.421875 43.28125 58.90625 
Q 39.453125 66.40625 31.78125 66.40625 
z
M 31.78125 74.21875 
Q 44.046875 74.21875 50.515625 64.515625 
Q 56.984375 54.828125 56.984375 36.375 
Q 56.984375 17.96875 50.515625 8.265625 
Q 44.046875 -1.421875 31.78125 -1.421875 
Q 19.53125 -1.421875 13.0625 8.265625 
Q 6.59375 17.96875 6.59375 36.375 
Q 6.59375 54.828125 13.0625 64.515625 
Q 19.53125 74.21875 31.78125 74.21875 
z
" id="DejaVuSans-48"/>
       <path d="M 10.6875 12.40625 
L 21 12.40625 
L 21 0 
L 10.6875 0 
z
" id="DejaVuSans-46"/>
      </defs>
      <g transform="translate(46.49477 269.956562)scale(0.1 -0.1)">
       <use xlink:href="#DejaVuSans-48"/>
       <use x="63.623047" xlink:href="#DejaVuSans-46"/>
       <use x="95.410156" xlink:href="#DejaVuSans-48"/>
      </g>
     </g>
    </g>
    <g id="xtick_2">
     <g id="line2d_2">
      <g>
       <use style="stroke:#000000;stroke-width:0.8;" x="120.265113" xlink:href="#m8b34c3f41d" y="255.358125"/>
      </g>
     </g>
     <g id="text_2">
      <!-- 0.2 -->
      <defs>
       <path d="M 19.1875 8.296875 
L 53.609375 8.296875 
L 53.609375 0 
L 7.328125 0 
L 7.328125 8.296875 
Q 12.9375 14.109375 22.625 23.890625 
Q 32.328125 33.6875 34.8125 36.53125 
Q 39.546875 41.84375 41.421875 45.53125 
Q 43.3125 49.21875 43.3125 52.78125 
Q 43.3125 58.59375 39.234375 62.25 
Q 35.15625 65.921875 28.609375 65.921875 
Q 23.96875 65.921875 18.8125 64.3125 
Q 13.671875 62.703125 7.8125 59.421875 
L 7.8125 69.390625 
Q 13.765625 71.78125 18.9375 73 
Q 24.125 74.21875 28.421875 74.21875 
Q 39.75 74.21875 46.484375 68.546875 
Q 53.21875 62.890625 53.21875 53.421875 
Q 53.21875 48.921875 51.53125 44.890625 
Q 49.859375 40.875 45.40625 35.40625 
Q 44.1875 33.984375 37.640625 27.21875 
Q 31.109375 20.453125 19.1875 8.296875 
z
" id="DejaVuSans-50"/>
      </defs>
      <g transform="translate(112.313551 269.956562)scale(0.1 -0.1)">
       <use xlink:href="#DejaVuSans-48"/>
       <use x="63.623047" xlink:href="#DejaVuSans-46"/>
       <use x="95.410156" xlink:href="#DejaVuSans-50"/>
      </g>
     </g>
    </g>
    <g id="xtick_3">
     <g id="line2d_3">
      <g>
       <use style="stroke:#000000;stroke-width:0.8;" x="186.083894" xlink:href="#m8b34c3f41d" y="255.358125"/>
      </g>
     </g>
     <g id="text_3">
      <!-- 0.4 -->
      <defs>
       <path d="M 37.796875 64.3125 
L 12.890625 25.390625 
L 37.796875 25.390625 
z
M 35.203125 72.90625 
L 47.609375 72.90625 
L 47.609375 25.390625 
L 58.015625 25.390625 
L 58.015625 17.1875 
L 47.609375 17.1875 
L 47.609375 0 
L 37.796875 0 
L 37.796875 17.1875 
L 4.890625 17.1875 
L 4.890625 26.703125 
z
" id="DejaVuSans-52"/>
      </defs>
      <g transform="translate(178.132332 269.956562)scale(0.1 -0.1)">
       <use xlink:href="#DejaVuSans-48"/>
       <use x="63.623047" xlink:href="#DejaVuSans-46"/>
       <use x="95.410156" xlink:href="#DejaVuSans-52"/>
      </g>
     </g>
    </g>
    <g id="xtick_4">
     <g id="line2d_4">
      <g>
       <use style="stroke:#000000;stroke-width:0.8;" x="251.902675" xlink:href="#m8b34c3f41d" y="255.358125"/>
      </g>
     </g>
     <g id="text_4">
      <!-- 0.6 -->
      <defs>
       <path d="M 33.015625 40.375 
Q 26.375 40.375 22.484375 35.828125 
Q 18.609375 31.296875 18.609375 23.390625 
Q 18.609375 15.53125 22.484375 10.953125 
Q 26.375 6.390625 33.015625 6.390625 
Q 39.65625 6.390625 43.53125 10.953125 
Q 47.40625 15.53125 47.40625 23.390625 
Q 47.40625 31.296875 43.53125 35.828125 
Q 39.65625 40.375 33.015625 40.375 
z
M 52.59375 71.296875 
L 52.59375 62.3125 
Q 48.875 64.0625 45.09375 64.984375 
Q 41.3125 65.921875 37.59375 65.921875 
Q 27.828125 65.921875 22.671875 59.328125 
Q 17.53125 52.734375 16.796875 39.40625 
Q 19.671875 43.65625 24.015625 45.921875 
Q 28.375 48.1875 33.59375 48.1875 
Q 44.578125 48.1875 50.953125 41.515625 
Q 57.328125 34.859375 57.328125 23.390625 
Q 57.328125 12.15625 50.6875 5.359375 
Q 44.046875 -1.421875 33.015625 -1.421875 
Q 20.359375 -1.421875 13.671875 8.265625 
Q 6.984375 17.96875 6.984375 36.375 
Q 6.984375 53.65625 15.1875 63.9375 
Q 23.390625 74.21875 37.203125 74.21875 
Q 40.921875 74.21875 44.703125 73.484375 
Q 48.484375 72.75 52.59375 71.296875 
z
" id="DejaVuSans-54"/>
      </defs>
      <g transform="translate(243.951113 269.956562)scale(0.1 -0.1)">
       <use xlink:href="#DejaVuSans-48"/>
       <use x="63.623047" xlink:href="#DejaVuSans-46"/>
       <use x="95.410156" xlink:href="#DejaVuSans-54"/>
      </g>
     </g>
    </g>
   </g>
   <g id="matplotlib.axis_2">
    <g id="ytick_1">
     <g id="line2d_5">
      <defs>
       <path d="M 0 0 
L -3.5 0 
" id="m86e3584628" style="stroke:#000000;stroke-width:0.8;"/>
      </defs>
      <g>
       <use style="stroke:#000000;stroke-width:0.8;" x="43.78125" xlink:href="#m86e3584628" y="237.96243"/>
      </g>
     </g>
     <g id="text_5">
      <!-- 0.2 -->
      <g transform="translate(20.878125 241.761649)scale(0.1 -0.1)">
       <use xlink:href="#DejaVuSans-48"/>
       <use x="63.623047" xlink:href="#DejaVuSans-46"/>
       <use x="95.410156" xlink:href="#DejaVuSans-50"/>
      </g>
     </g>
    </g>
    <g id="ytick_2">
     <g id="line2d_6">
      <g>
       <use style="stroke:#000000;stroke-width:0.8;" x="43.78125" xlink:href="#m86e3584628" y="186.699536"/>
      </g>
     </g>
     <g id="text_6">
      <!-- 0.4 -->
      <g transform="translate(20.878125 190.498754)scale(0.1 -0.1)">
       <use xlink:href="#DejaVuSans-48"/>
       <use x="63.623047" xlink:href="#DejaVuSans-46"/>
       <use x="95.410156" xlink:href="#DejaVuSans-52"/>
      </g>
     </g>
    </g>
    <g id="ytick_3">
     <g id="line2d_7">
      <g>
       <use style="stroke:#000000;stroke-width:0.8;" x="43.78125" xlink:href="#m86e3584628" y="135.436641"/>
      </g>
     </g>
     <g id="text_7">
      <!-- 0.6 -->
      <g transform="translate(20.878125 139.23586)scale(0.1 -0.1)">
       <use xlink:href="#DejaVuSans-48"/>
       <use x="63.623047" xlink:href="#DejaVuSans-46"/>
       <use x="95.410156" xlink:href="#DejaVuSans-54"/>
      </g>
     </g>
    </g>
    <g id="ytick_4">
     <g id="line2d_8">
      <g>
       <use style="stroke:#000000;stroke-width:0.8;" x="43.78125" xlink:href="#m86e3584628" y="84.173747"/>
      </g>
     </g>
     <g id="text_8">
      <!-- 0.8 -->
      <defs>
       <path d="M 31.78125 34.625 
Q 24.75 34.625 20.71875 30.859375 
Q 16.703125 27.09375 16.703125 20.515625 
Q 16.703125 13.921875 20.71875 10.15625 
Q 24.75 6.390625 31.78125 6.390625 
Q 38.8125 6.390625 42.859375 10.171875 
Q 46.921875 13.96875 46.921875 20.515625 
Q 46.921875 27.09375 42.890625 30.859375 
Q 38.875 34.625 31.78125 34.625 
z
M 21.921875 38.8125 
Q 15.578125 40.375 12.03125 44.71875 
Q 8.5 49.078125 8.5 55.328125 
Q 8.5 64.0625 14.71875 69.140625 
Q 20.953125 74.21875 31.78125 74.21875 
Q 42.671875 74.21875 48.875 69.140625 
Q 55.078125 64.0625 55.078125 55.328125 
Q 55.078125 49.078125 51.53125 44.71875 
Q 48 40.375 41.703125 38.8125 
Q 48.828125 37.15625 52.796875 32.3125 
Q 56.78125 27.484375 56.78125 20.515625 
Q 56.78125 9.90625 50.3125 4.234375 
Q 43.84375 -1.421875 31.78125 -1.421875 
Q 19.734375 -1.421875 13.25 4.234375 
Q 6.78125 9.90625 6.78125 20.515625 
Q 6.78125 27.484375 10.78125 32.3125 
Q 14.796875 37.15625 21.921875 38.8125 
z
M 18.3125 54.390625 
Q 18.3125 48.734375 21.84375 45.5625 
Q 25.390625 42.390625 31.78125 42.390625 
Q 38.140625 42.390625 41.71875 45.5625 
Q 45.3125 48.734375 45.3125 54.390625 
Q 45.3125 60.0625 41.71875 63.234375 
Q 38.140625 66.40625 31.78125 66.40625 
Q 25.390625 66.40625 21.84375 63.234375 
Q 18.3125 60.0625 18.3125 54.390625 
z
" id="DejaVuSans-56"/>
      </defs>
      <g transform="translate(20.878125 87.972965)scale(0.1 -0.1)">
       <use xlink:href="#DejaVuSans-48"/>
       <use x="63.623047" xlink:href="#DejaVuSans-46"/>
       <use x="95.410156" xlink:href="#DejaVuSans-56"/>
      </g>
     </g>
    </g>
    <g id="ytick_5">
     <g id="line2d_9">
      <g>
       <use style="stroke:#000000;stroke-width:0.8;" x="43.78125" xlink:href="#m86e3584628" y="32.910852"/>
      </g>
     </g>
     <g id="text_9">
      <!-- 1.0 -->
      <defs>
       <path d="M 12.40625 8.296875 
L 28.515625 8.296875 
L 28.515625 63.921875 
L 10.984375 60.40625 
L 10.984375 69.390625 
L 28.421875 72.90625 
L 38.28125 72.90625 
L 38.28125 8.296875 
L 54.390625 8.296875 
L 54.390625 0 
L 12.40625 0 
z
" id="DejaVuSans-49"/>
      </defs>
      <g transform="translate(20.878125 36.710071)scale(0.1 -0.1)">
       <use xlink:href="#DejaVuSans-49"/>
       <use x="63.623047" xlink:href="#DejaVuSans-46"/>
       <use x="95.410156" xlink:href="#DejaVuSans-48"/>
      </g>
     </g>
    </g>
    <g id="text_10">
     <!-- precision -->
     <defs>
      <path d="M 18.109375 8.203125 
L 18.109375 -20.796875 
L 9.078125 -20.796875 
L 9.078125 54.6875 
L 18.109375 54.6875 
L 18.109375 46.390625 
Q 20.953125 51.265625 25.265625 53.625 
Q 29.59375 56 35.59375 56 
Q 45.5625 56 51.78125 48.09375 
Q 58.015625 40.1875 58.015625 27.296875 
Q 58.015625 14.40625 51.78125 6.484375 
Q 45.5625 -1.421875 35.59375 -1.421875 
Q 29.59375 -1.421875 25.265625 0.953125 
Q 20.953125 3.328125 18.109375 8.203125 
z
M 48.6875 27.296875 
Q 48.6875 37.203125 44.609375 42.84375 
Q 40.53125 48.484375 33.40625 48.484375 
Q 26.265625 48.484375 22.1875 42.84375 
Q 18.109375 37.203125 18.109375 27.296875 
Q 18.109375 17.390625 22.1875 11.75 
Q 26.265625 6.109375 33.40625 6.109375 
Q 40.53125 6.109375 44.609375 11.75 
Q 48.6875 17.390625 48.6875 27.296875 
z
" id="DejaVuSans-112"/>
      <path d="M 41.109375 46.296875 
Q 39.59375 47.171875 37.8125 47.578125 
Q 36.03125 48 33.890625 48 
Q 26.265625 48 22.1875 43.046875 
Q 18.109375 38.09375 18.109375 28.8125 
L 18.109375 0 
L 9.078125 0 
L 9.078125 54.6875 
L 18.109375 54.6875 
L 18.109375 46.1875 
Q 20.953125 51.171875 25.484375 53.578125 
Q 30.03125 56 36.53125 56 
Q 37.453125 56 38.578125 55.875 
Q 39.703125 55.765625 41.0625 55.515625 
z
" id="DejaVuSans-114"/>
      <path d="M 56.203125 29.59375 
L 56.203125 25.203125 
L 14.890625 25.203125 
Q 15.484375 15.921875 20.484375 11.0625 
Q 25.484375 6.203125 34.421875 6.203125 
Q 39.59375 6.203125 44.453125 7.46875 
Q 49.3125 8.734375 54.109375 11.28125 
L 54.109375 2.78125 
Q 49.265625 0.734375 44.1875 -0.34375 
Q 39.109375 -1.421875 33.890625 -1.421875 
Q 20.796875 -1.421875 13.15625 6.1875 
Q 5.515625 13.8125 5.515625 26.8125 
Q 5.515625 40.234375 12.765625 48.109375 
Q 20.015625 56 32.328125 56 
Q 43.359375 56 49.78125 48.890625 
Q 56.203125 41.796875 56.203125 29.59375 
z
M 47.21875 32.234375 
Q 47.125 39.59375 43.09375 43.984375 
Q 39.0625 48.390625 32.421875 48.390625 
Q 24.90625 48.390625 20.390625 44.140625 
Q 15.875 39.890625 15.1875 32.171875 
z
" id="DejaVuSans-101"/>
      <path d="M 48.78125 52.59375 
L 48.78125 44.1875 
Q 44.96875 46.296875 41.140625 47.34375 
Q 37.3125 48.390625 33.40625 48.390625 
Q 24.65625 48.390625 19.8125 42.84375 
Q 14.984375 37.3125 14.984375 27.296875 
Q 14.984375 17.28125 19.8125 11.734375 
Q 24.65625 6.203125 33.40625 6.203125 
Q 37.3125 6.203125 41.140625 7.25 
Q 44.96875 8.296875 48.78125 10.40625 
L 48.78125 2.09375 
Q 45.015625 0.34375 40.984375 -0.53125 
Q 36.96875 -1.421875 32.421875 -1.421875 
Q 20.0625 -1.421875 12.78125 6.34375 
Q 5.515625 14.109375 5.515625 27.296875 
Q 5.515625 40.671875 12.859375 48.328125 
Q 20.21875 56 33.015625 56 
Q 37.15625 56 41.109375 55.140625 
Q 45.0625 54.296875 48.78125 52.59375 
z
" id="DejaVuSans-99"/>
      <path d="M 9.421875 54.6875 
L 18.40625 54.6875 
L 18.40625 0 
L 9.421875 0 
z
M 9.421875 75.984375 
L 18.40625 75.984375 
L 18.40625 64.59375 
L 9.421875 64.59375 
z
" id="DejaVuSans-105"/>
      <path d="M 44.28125 53.078125 
L 44.28125 44.578125 
Q 40.484375 46.53125 36.375 47.5 
Q 32.28125 48.484375 27.875 48.484375 
Q 21.1875 48.484375 17.84375 46.4375 
Q 14.5 44.390625 14.5 40.28125 
Q 14.5 37.15625 16.890625 35.375 
Q 19.28125 33.59375 26.515625 31.984375 
L 29.59375 31.296875 
Q 39.15625 29.25 43.1875 25.515625 
Q 47.21875 21.78125 47.21875 15.09375 
Q 47.21875 7.46875 41.1875 3.015625 
Q 35.15625 -1.421875 24.609375 -1.421875 
Q 20.21875 -1.421875 15.453125 -0.5625 
Q 10.6875 0.296875 5.421875 2 
L 5.421875 11.28125 
Q 10.40625 8.6875 15.234375 7.390625 
Q 20.0625 6.109375 24.8125 6.109375 
Q 31.15625 6.109375 34.5625 8.28125 
Q 37.984375 10.453125 37.984375 14.40625 
Q 37.984375 18.0625 35.515625 20.015625 
Q 33.0625 21.96875 24.703125 23.78125 
L 21.578125 24.515625 
Q 13.234375 26.265625 9.515625 29.90625 
Q 5.8125 33.546875 5.8125 39.890625 
Q 5.8125 47.609375 11.28125 51.796875 
Q 16.75 56 26.8125 56 
Q 31.78125 56 36.171875 55.265625 
Q 40.578125 54.546875 44.28125 53.078125 
z
" id="DejaVuSans-115"/>
      <path d="M 30.609375 48.390625 
Q 23.390625 48.390625 19.1875 42.75 
Q 14.984375 37.109375 14.984375 27.296875 
Q 14.984375 17.484375 19.15625 11.84375 
Q 23.34375 6.203125 30.609375 6.203125 
Q 37.796875 6.203125 41.984375 11.859375 
Q 46.1875 17.53125 46.1875 27.296875 
Q 46.1875 37.015625 41.984375 42.703125 
Q 37.796875 48.390625 30.609375 48.390625 
z
M 30.609375 56 
Q 42.328125 56 49.015625 48.375 
Q 55.71875 40.765625 55.71875 27.296875 
Q 55.71875 13.875 49.015625 6.21875 
Q 42.328125 -1.421875 30.609375 -1.421875 
Q 18.84375 -1.421875 12.171875 6.21875 
Q 5.515625 13.875 5.515625 27.296875 
Q 5.515625 40.765625 12.171875 48.375 
Q 18.84375 56 30.609375 56 
z
" id="DejaVuSans-111"/>
      <path d="M 54.890625 33.015625 
L 54.890625 0 
L 45.90625 0 
L 45.90625 32.71875 
Q 45.90625 40.484375 42.875 44.328125 
Q 39.84375 48.1875 33.796875 48.1875 
Q 26.515625 48.1875 22.3125 43.546875 
Q 18.109375 38.921875 18.109375 30.90625 
L 18.109375 0 
L 9.078125 0 
L 9.078125 54.6875 
L 18.109375 54.6875 
L 18.109375 46.1875 
Q 21.34375 51.125 25.703125 53.5625 
Q 30.078125 56 35.796875 56 
Q 45.21875 56 50.046875 50.171875 
Q 54.890625 44.34375 54.890625 33.015625 
z
" id="DejaVuSans-110"/>
     </defs>
     <g transform="translate(14.798438 161.502969)rotate(-90)scale(0.1 -0.1)">
      <use xlink:href="#DejaVuSans-112"/>
      <use x="63.476562" xlink:href="#DejaVuSans-114"/>
      <use x="104.558594" xlink:href="#DejaVuSans-101"/>
      <use x="166.082031" xlink:href="#DejaVuSans-99"/>
      <use x="221.0625" xlink:href="#DejaVuSans-105"/>
      <use x="248.845703" xlink:href="#DejaVuSans-115"/>
      <use x="300.945312" xlink:href="#DejaVuSans-105"/>
      <use x="328.728516" xlink:href="#DejaVuSans-111"/>
      <use x="389.910156" xlink:href="#DejaVuSans-110"/>
     </g>
    </g>
   </g>
   <g id="line2d_10">
    <path clip-path="url(#pcf19784b1e)" d="M 54.663068 32.910852 
L 54.877396 34.334822 
L 55.091723 33.863694 
L 55.308459 33.62482 
L 55.520378 34.055113 
L 55.737114 33.863694 
L 55.951442 33.728442 
L 56.168177 33.625816 
L 56.382505 33.546868 
L 56.430668 53.507551 
L 56.430668 74.805908 
L 56.430668 92.757301 
L 56.433076 107.559139 
L 56.433076 120.597382 
L 56.433076 131.772279 
L 56.433076 141.661166 
L 56.433076 150.381306 
L 56.435485 157.888008 
L 56.435485 164.83299 
L 56.440301 170.728182 
L 56.440301 176.397901 
L 56.440301 181.495181 
L 56.442709 186.077413 
L 56.445117 190.229972 
L 56.445117 194.20924 
L 56.445117 197.841728 
L 56.445117 201.243103 
L 56.447525 204.264285 
L 56.449934 207.109945 
L 56.452342 209.735393 
L 56.452342 212.312516 
L 56.452342 214.70178 
L 56.452342 216.971532 
L 56.452342 219.107112 
L 56.452342 221.098344 
L 56.457158 222.841148 
L 56.459566 224.547118 
L 56.461975 226.182358 
L 56.461975 227.789124 
L 56.461975 229.332747 
L 56.464383 230.714965 
L 56.464383 232.115107 
L 56.464383 233.435317 
L 56.464383 234.709708 
L 56.464383 235.91395 
L 56.464383 237.078802 
L 56.464383 238.18171 
L 56.466791 239.190927 
L 56.471607 240.100331 
" style="fill:none;stroke:#1f77b4;stroke-linecap:square;stroke-width:1.5;"/>
   </g>
   <g id="line2d_11">
    <path clip-path="url(#pcf19784b1e)" d="M 71.094043 32.910852 
L 87.724896 32.910852 
L 104.346117 32.923209 
L 120.969745 32.938655 
L 137.586149 32.94051 
L 154.190513 32.954102 
L 170.76357 32.984994 
L 187.365525 32.994262 
L 203.94099 32.989114 
L 220.511639 33.007239 
L 237.067839 33.008587 
L 253.380813 33.284655 
L 267.331368 36.35853 
L 271.071263 50.244391 
L 271.126651 66.065405 
L 271.174814 79.926746 
L 271.208529 92.168541 
L 271.261509 103.030115 
L 271.297631 112.751209 
L 271.33857 121.501349 
L 271.384326 129.418693 
L 271.408407 136.635401 
L 271.451754 143.205231 
L 271.480652 149.233758 
L 271.519183 154.785231 
L 271.538449 159.910307 
L 271.584204 164.650991 
L 271.617918 169.064303 
L 271.654041 173.156633 
L 271.687755 176.983015 
L 271.733511 180.570757 
L 271.764817 183.93376 
L 271.786491 187.079464 
L 271.80094 190.04885 
L 271.834654 192.850676 
L 271.863552 195.504054 
L 271.899675 198.004633 
L 271.91894 200.374297 
L 271.940614 202.621782 
L 271.964696 204.768334 
L 271.993594 206.795097 
L 272.0249 208.734765 
L 272.065839 210.575596 
L 272.097145 212.336712 
L 272.150125 214.006628 
L 272.198288 215.606589 
L 272.241636 217.146911 
L 272.272942 218.621509 
" style="fill:none;stroke:#ff7f0e;stroke-linecap:square;stroke-width:1.5;"/>
   </g>
   <g id="line2d_12">
    <path clip-path="url(#pcf19784b1e)" d="M 55.635971 32.910852 
L 56.832833 32.910852 
L 58.02488 32.910852 
L 59.214518 32.910852 
L 60.401748 32.910852 
L 61.593794 32.910852 
L 62.766575 33.205044 
L 63.956214 33.168261 
L 64.329481 52.706568 
L 64.339113 76.110499 
L 64.34393 95.398036 
L 64.351154 111.384098 
L 64.353562 125.028816 
L 64.358379 136.665067 
L 64.363195 146.771185 
L 64.368011 155.613562 
L 64.372828 163.41529 
L 64.384869 170.222177 
L 64.389685 176.406848 
L 64.392093 182.024294 
L 64.394501 187.10654 
L 64.399318 191.703191 
L 64.40895 195.82468 
L 64.413767 199.675094 
L 64.418583 203.21735 
L 64.420991 206.487021 
L 64.423399 209.527543 
L 64.423399 212.375118 
L 64.423399 215.026226 
L 64.425808 217.48336 
L 64.43544 219.73208 
L 64.440257 221.868153 
L 64.452298 223.832133 
L 64.459522 225.710825 
L 64.46193 227.511543 
L 64.469155 229.180227 
L 64.471563 230.789855 
L 64.476379 232.301181 
L 64.483604 233.721768 
L 64.490828 235.071297 
L 64.493237 236.377498 
L 64.500461 237.599542 
L 64.507686 238.769437 
L 64.517318 239.865217 
L 64.522135 240.937509 
L 64.526951 241.965315 
L 64.534176 242.93841 
L 64.543808 243.860216 
L 64.548625 244.765398 
" style="fill:none;stroke:#2ca02c;stroke-linecap:square;stroke-width:1.5;"/>
   </g>
   <g id="line2d_13">
    <path clip-path="url(#pcf19784b1e)" d="M 58.523372 32.910852 
L 62.598003 32.910852 
L 66.672634 32.910852 
L 70.749674 32.910852 
L 74.821897 32.910852 
L 78.896528 32.910852 
L 82.973568 32.910852 
L 87.053015 32.910852 
L 91.118014 32.910852 
L 95.190237 32.910852 
L 99.26246 32.910852 
L 103.332275 32.92347 
L 107.406906 32.922499 
L 111.474313 32.932483 
L 115.548944 32.931041 
L 119.621168 32.929779 
L 123.698207 32.928665 
L 127.772838 32.927676 
L 131.845061 32.926791 
L 135.919693 32.925994 
L 139.994324 32.925273 
L 144.056914 32.931499 
L 148.129137 32.930602 
L 152.203769 32.936088 
L 156.263951 32.941135 
L 160.333766 32.93997 
L 164.405989 32.938892 
L 168.475804 32.937891 
L 172.535986 32.952622 
L 176.605801 32.956277 
L 180.682841 32.954811 
L 184.738206 32.962902 
L 188.808021 32.961324 
L 192.870612 32.964293 
L 196.940427 32.962766 
L 201.01265 32.961324 
L 205.077648 32.95996 
L 209.147463 32.958668 
L 213.210054 32.957441 
L 217.272644 32.956277 
L 221.340051 32.955169 
L 225.409866 32.954114 
L 229.462824 32.963672 
L 233.525414 32.962471 
L 237.571147 32.968054 
L 241.542227 33.098477 
L 245.50849 33.233013 
L 249.356753 33.500741 
L 249.896184 37.972435 
" style="fill:none;stroke:#d62728;stroke-linecap:square;stroke-width:1.5;"/>
   </g>
   <g id="line2d_14">
    <path clip-path="url(#pcf19784b1e)" d="M 272.299432 220.038755 
L 272.299432 220.038755 
L 272.299432 220.038755 
L 272.299432 220.038755 
L 272.299432 220.038755 
L 272.299432 220.038755 
L 272.299432 220.038755 
L 272.299432 220.038755 
L 272.299432 220.038755 
L 272.299432 220.038755 
L 272.299432 220.038755 
L 272.299432 220.038755 
L 272.299432 220.038755 
L 272.299432 220.038755 
L 272.299432 220.038755 
L 272.299432 220.038755 
L 272.299432 220.038755 
L 269.308479 185.056917 
L 263.66131 184.574551 
L 259.591495 183.216861 
L 256.518664 181.223525 
L 254.139388 178.720872 
L 252.256195 175.716297 
L 250.373003 172.511004 
L 248.655974 168.97912 
L 247.170131 164.910875 
L 245.515715 160.645037 
L 243.637339 156.155716 
L 241.744514 151.251384 
L 239.579565 146.044189 
L 237.055798 140.612796 
L 234.067253 134.973329 
L 230.698217 129.005614 
L 227.471263 122.133115 
L 223.100426 115.591904 
L 218.349098 108.3987 
L 213.055931 100.872742 
L 206.927126 93.082237 
L 200.061421 84.890852 
L 192.119261 76.771042 
L 183.184934 68.59656 
L 172.897212 60.8373 
L 161.200709 54.03474 
L 148.29771 48.077206 
L 134.22193 43.289457 
L 119.214186 39.747634 
L 103.500847 37.382243 
L 87.373303 35.709369 
L 71.05792 33.577759 
" style="fill:none;stroke:#ff7f0e;stroke-dasharray:1.5,2.475;stroke-dashoffset:0;stroke-width:1.5;"/>
   </g>
   <g id="line2d_15">
    <path clip-path="url(#pcf19784b1e)" d="M 249.896184 38.014835 
L 248.891976 34.147197 
L 245.619266 33.813526 
L 241.698758 33.642729 
L 237.496494 33.149694 
L 234.334561 33.085477 
L 229.458007 33.079795 
L 226.613953 33.061129 
L 222.994467 33.05705 
L 218.731998 33.049603 
L 213.973445 33.038301 
L 213.973445 33.038301 
L 208.677869 33.026709 
L 203.062006 33.026944 
L 196.959692 33.0103 
L 196.959692 33.0103 
L 189.845945 33.010975 
L 189.845945 33.010975 
L 182.315583 33.012069 
L 182.315583 33.012069 
L 174.751507 32.992838 
L 174.751507 32.992838 
L 166.529999 32.982366 
L 166.529999 32.982366 
L 158.872004 32.981706 
L 158.872004 32.981706 
L 151.276622 32.980901 
L 151.276622 32.980901 
L 143.751076 32.973001 
L 136.755329 32.978282 
L 136.755329 32.978282 
L 130.339952 32.967739 
L 124.093148 32.963984 
L 124.093148 32.963984 
L 118.629 32.968509 
L 113.456241 32.973564 
L 108.449646 32.979379 
L 104.172728 32.948066 
L 99.999362 32.951477 
L 96.196854 32.955177 
L 92.707409 32.959217 
L 89.644211 32.963437 
L 84.062063 32.973348 
L 79.691226 32.984162 
L 76.170475 32.996035 
L 71.845393 33.017236 
L 66.99533 33.009189 
L 62.636534 33.061493 
L 58.523372 33.06216 
" style="fill:none;stroke:#d62728;stroke-dasharray:1.5,2.475;stroke-dashoffset:0;stroke-width:1.5;"/>
   </g>
   <g id="line2d_16">
    <defs>
     <path d="M 0 2.5 
C 0.663008 2.5 1.29895 2.236584 1.767767 1.767767 
C 2.236584 1.29895 2.5 0.663008 2.5 0 
C 2.5 -0.663008 2.236584 -1.29895 1.767767 -1.767767 
C 1.29895 -2.236584 0.663008 -2.5 0 -2.5 
C -0.663008 -2.5 -1.29895 -2.236584 -1.767767 -1.767767 
C -2.236584 -1.29895 -2.5 -0.663008 -2.5 0 
C -2.5 0.663008 -2.236584 1.29895 -1.767767 1.767767 
C -1.29895 2.236584 -0.663008 2.5 0 2.5 
z
" id="m662569c652" style="stroke:#1f77b4;"/>
    </defs>
    <g clip-path="url(#pcf19784b1e)">
     <use style="fill:#1f77b4;stroke:#1f77b4;" x="56.192259" xlink:href="#m662569c652" y="35.014665"/>
    </g>
   </g>
   <g id="line2d_17">
    <defs>
     <path d="M 0 2.5 
C 0.663008 2.5 1.29895 2.236584 1.767767 1.767767 
C 2.236584 1.29895 2.5 0.663008 2.5 0 
C 2.5 -0.663008 2.236584 -1.29895 1.767767 -1.767767 
C 1.29895 -2.236584 0.663008 -2.5 0 -2.5 
C -0.663008 -2.5 -1.29895 -2.236584 -1.767767 -1.767767 
C -2.236584 -1.29895 -2.5 -0.663008 -2.5 0 
C -2.5 0.663008 -2.236584 1.29895 -1.767767 1.767767 
C -1.29895 2.236584 -0.663008 2.5 0 2.5 
z
" id="md8ca52bcc6" style="stroke:#ff7f0e;"/>
    </defs>
    <g clip-path="url(#pcf19784b1e)">
     <use style="fill:#ff7f0e;stroke:#ff7f0e;" x="177.954379" xlink:href="#md8ca52bcc6" y="32.985662"/>
    </g>
   </g>
   <g id="line2d_18">
    <defs>
     <path d="M 0 2.5 
C 0.663008 2.5 1.29895 2.236584 1.767767 1.767767 
C 2.236584 1.29895 2.5 0.663008 2.5 0 
C 2.5 -0.663008 2.236584 -1.29895 1.767767 -1.767767 
C 1.29895 -2.236584 0.663008 -2.5 0 -2.5 
C -0.663008 -2.5 -1.29895 -2.236584 -1.767767 -1.767767 
C -2.236584 -1.29895 -2.5 -0.663008 -2.5 0 
C -2.5 0.663008 -2.236584 1.29895 -1.767767 1.767767 
C -1.29895 2.236584 -0.663008 2.5 0 2.5 
z
" id="m6a4cf006df" style="stroke:#d62728;"/>
    </defs>
    <g clip-path="url(#pcf19784b1e)">
     <use style="fill:#d62728;stroke:#d62728;" x="237.409799" xlink:href="#m6a4cf006df" y="33.092628"/>
    </g>
   </g>
   <g id="patch_3">
    <path d="M 43.78125 255.358125 
L 43.78125 22.318125 
" style="fill:none;stroke:#000000;stroke-linecap:square;stroke-linejoin:miter;stroke-width:0.8;"/>
   </g>
   <g id="patch_4">
    <path d="M 43.78125 255.358125 
L 283.18125 255.358125 
" style="fill:none;stroke:#000000;stroke-linecap:square;stroke-linejoin:miter;stroke-width:0.8;"/>
   </g>
   <g id="text_11">
    <!-- 1 - 30 -->
    <defs>
     <path id="DejaVuSans-32"/>
     <path d="M 4.890625 31.390625 
L 31.203125 31.390625 
L 31.203125 23.390625 
L 4.890625 23.390625 
z
" id="DejaVuSans-45"/>
     <path d="M 40.578125 39.3125 
Q 47.65625 37.796875 51.625 33 
Q 55.609375 28.21875 55.609375 21.1875 
Q 55.609375 10.40625 48.1875 4.484375 
Q 40.765625 -1.421875 27.09375 -1.421875 
Q 22.515625 -1.421875 17.65625 -0.515625 
Q 12.796875 0.390625 7.625 2.203125 
L 7.625 11.71875 
Q 11.71875 9.328125 16.59375 8.109375 
Q 21.484375 6.890625 26.8125 6.890625 
Q 36.078125 6.890625 40.9375 10.546875 
Q 45.796875 14.203125 45.796875 21.1875 
Q 45.796875 27.640625 41.28125 31.265625 
Q 36.765625 34.90625 28.71875 34.90625 
L 20.21875 34.90625 
L 20.21875 43.015625 
L 29.109375 43.015625 
Q 36.375 43.015625 40.234375 45.921875 
Q 44.09375 48.828125 44.09375 54.296875 
Q 44.09375 59.90625 40.109375 62.90625 
Q 36.140625 65.921875 28.71875 65.921875 
Q 24.65625 65.921875 20.015625 65.03125 
Q 15.375 64.15625 9.8125 62.3125 
L 9.8125 71.09375 
Q 15.4375 72.65625 20.34375 73.4375 
Q 25.25 74.21875 29.59375 74.21875 
Q 40.828125 74.21875 47.359375 69.109375 
Q 53.90625 64.015625 53.90625 55.328125 
Q 53.90625 49.265625 50.4375 45.09375 
Q 46.96875 40.921875 40.578125 39.3125 
z
" id="DejaVuSans-51"/>
    </defs>
    <g transform="translate(146.050313 16.318125)scale(0.12 -0.12)">
     <use xlink:href="#DejaVuSans-49"/>
     <use x="63.623047" xlink:href="#DejaVuSans-32"/>
     <use x="95.410156" xlink:href="#DejaVuSans-45"/>
     <use x="131.494141" xlink:href="#DejaVuSans-32"/>
     <use x="163.28125" xlink:href="#DejaVuSans-51"/>
     <use x="226.904297" xlink:href="#DejaVuSans-48"/>
    </g>
   </g>
   <g id="legend_1">
    <g id="patch_5">
     <path d="M 94.214063 250.358125 
L 232.748438 250.358125 
Q 234.748438 250.358125 234.748438 248.358125 
L 234.748438 117.255 
Q 234.748438 115.255 232.748438 115.255 
L 94.214063 115.255 
Q 92.214063 115.255 92.214063 117.255 
L 92.214063 248.358125 
Q 92.214063 250.358125 94.214063 250.358125 
z
" style="fill:#ffffff;opacity:0.8;stroke:#cccccc;stroke-linejoin:miter;"/>
    </g>
    <g id="line2d_19">
     <path d="M 96.214063 123.353437 
L 116.214063 123.353437 
" style="fill:none;stroke:#1f77b4;stroke-linecap:square;stroke-width:1.5;"/>
    </g>
    <g id="line2d_20"/>
    <g id="text_12">
     <!-- varlociraptor+delly -->
     <defs>
      <path d="M 2.984375 54.6875 
L 12.5 54.6875 
L 29.59375 8.796875 
L 46.6875 54.6875 
L 56.203125 54.6875 
L 35.6875 0 
L 23.484375 0 
z
" id="DejaVuSans-118"/>
      <path d="M 34.28125 27.484375 
Q 23.390625 27.484375 19.1875 25 
Q 14.984375 22.515625 14.984375 16.5 
Q 14.984375 11.71875 18.140625 8.90625 
Q 21.296875 6.109375 26.703125 6.109375 
Q 34.1875 6.109375 38.703125 11.40625 
Q 43.21875 16.703125 43.21875 25.484375 
L 43.21875 27.484375 
z
M 52.203125 31.203125 
L 52.203125 0 
L 43.21875 0 
L 43.21875 8.296875 
Q 40.140625 3.328125 35.546875 0.953125 
Q 30.953125 -1.421875 24.3125 -1.421875 
Q 15.921875 -1.421875 10.953125 3.296875 
Q 6 8.015625 6 15.921875 
Q 6 25.140625 12.171875 29.828125 
Q 18.359375 34.515625 30.609375 34.515625 
L 43.21875 34.515625 
L 43.21875 35.40625 
Q 43.21875 41.609375 39.140625 45 
Q 35.0625 48.390625 27.6875 48.390625 
Q 23 48.390625 18.546875 47.265625 
Q 14.109375 46.140625 10.015625 43.890625 
L 10.015625 52.203125 
Q 14.9375 54.109375 19.578125 55.046875 
Q 24.21875 56 28.609375 56 
Q 40.484375 56 46.34375 49.84375 
Q 52.203125 43.703125 52.203125 31.203125 
z
" id="DejaVuSans-97"/>
      <path d="M 9.421875 75.984375 
L 18.40625 75.984375 
L 18.40625 0 
L 9.421875 0 
z
" id="DejaVuSans-108"/>
      <path d="M 18.3125 70.21875 
L 18.3125 54.6875 
L 36.8125 54.6875 
L 36.8125 47.703125 
L 18.3125 47.703125 
L 18.3125 18.015625 
Q 18.3125 11.328125 20.140625 9.421875 
Q 21.96875 7.515625 27.59375 7.515625 
L 36.8125 7.515625 
L 36.8125 0 
L 27.59375 0 
Q 17.1875 0 13.234375 3.875 
Q 9.28125 7.765625 9.28125 18.015625 
L 9.28125 47.703125 
L 2.6875 47.703125 
L 2.6875 54.6875 
L 9.28125 54.6875 
L 9.28125 70.21875 
z
" id="DejaVuSans-116"/>
      <path d="M 46 62.703125 
L 46 35.5 
L 73.1875 35.5 
L 73.1875 27.203125 
L 46 27.203125 
L 46 0 
L 37.796875 0 
L 37.796875 27.203125 
L 10.59375 27.203125 
L 10.59375 35.5 
L 37.796875 35.5 
L 37.796875 62.703125 
z
" id="DejaVuSans-43"/>
      <path d="M 45.40625 46.390625 
L 45.40625 75.984375 
L 54.390625 75.984375 
L 54.390625 0 
L 45.40625 0 
L 45.40625 8.203125 
Q 42.578125 3.328125 38.25 0.953125 
Q 33.9375 -1.421875 27.875 -1.421875 
Q 17.96875 -1.421875 11.734375 6.484375 
Q 5.515625 14.40625 5.515625 27.296875 
Q 5.515625 40.1875 11.734375 48.09375 
Q 17.96875 56 27.875 56 
Q 33.9375 56 38.25 53.625 
Q 42.578125 51.265625 45.40625 46.390625 
z
M 14.796875 27.296875 
Q 14.796875 17.390625 18.875 11.75 
Q 22.953125 6.109375 30.078125 6.109375 
Q 37.203125 6.109375 41.296875 11.75 
Q 45.40625 17.390625 45.40625 27.296875 
Q 45.40625 37.203125 41.296875 42.84375 
Q 37.203125 48.484375 30.078125 48.484375 
Q 22.953125 48.484375 18.875 42.84375 
Q 14.796875 37.203125 14.796875 27.296875 
z
" id="DejaVuSans-100"/>
      <path d="M 32.171875 -5.078125 
Q 28.375 -14.84375 24.75 -17.8125 
Q 21.140625 -20.796875 15.09375 -20.796875 
L 7.90625 -20.796875 
L 7.90625 -13.28125 
L 13.1875 -13.28125 
Q 16.890625 -13.28125 18.9375 -11.515625 
Q 21 -9.765625 23.484375 -3.21875 
L 25.09375 0.875 
L 2.984375 54.6875 
L 12.5 54.6875 
L 29.59375 11.921875 
L 46.6875 54.6875 
L 56.203125 54.6875 
z
" id="DejaVuSans-121"/>
     </defs>
     <g transform="translate(124.214063 126.853437)scale(0.1 -0.1)">
      <use xlink:href="#DejaVuSans-118"/>
      <use x="59.179688" xlink:href="#DejaVuSans-97"/>
      <use x="120.458984" xlink:href="#DejaVuSans-114"/>
      <use x="161.572266" xlink:href="#DejaVuSans-108"/>
      <use x="189.355469" xlink:href="#DejaVuSans-111"/>
      <use x="250.537109" xlink:href="#DejaVuSans-99"/>
      <use x="305.517578" xlink:href="#DejaVuSans-105"/>
      <use x="333.300781" xlink:href="#DejaVuSans-114"/>
      <use x="374.414062" xlink:href="#DejaVuSans-97"/>
      <use x="435.693359" xlink:href="#DejaVuSans-112"/>
      <use x="499.169922" xlink:href="#DejaVuSans-116"/>
      <use x="538.378906" xlink:href="#DejaVuSans-111"/>
      <use x="599.560547" xlink:href="#DejaVuSans-114"/>
      <use x="640.673828" xlink:href="#DejaVuSans-43"/>
      <use x="724.462891" xlink:href="#DejaVuSans-100"/>
      <use x="787.939453" xlink:href="#DejaVuSans-101"/>
      <use x="849.462891" xlink:href="#DejaVuSans-108"/>
      <use x="877.246094" xlink:href="#DejaVuSans-108"/>
      <use x="905.029297" xlink:href="#DejaVuSans-121"/>
     </g>
    </g>
    <g id="line2d_21">
     <path d="M 96.214063 138.031563 
L 116.214063 138.031563 
" style="fill:none;stroke:#ff7f0e;stroke-linecap:square;stroke-width:1.5;"/>
    </g>
    <g id="line2d_22"/>
    <g id="text_13">
     <!-- varlociraptor+lancet -->
     <g transform="translate(124.214063 141.531563)scale(0.1 -0.1)">
      <use xlink:href="#DejaVuSans-118"/>
      <use x="59.179688" xlink:href="#DejaVuSans-97"/>
      <use x="120.458984" xlink:href="#DejaVuSans-114"/>
      <use x="161.572266" xlink:href="#DejaVuSans-108"/>
      <use x="189.355469" xlink:href="#DejaVuSans-111"/>
      <use x="250.537109" xlink:href="#DejaVuSans-99"/>
      <use x="305.517578" xlink:href="#DejaVuSans-105"/>
      <use x="333.300781" xlink:href="#DejaVuSans-114"/>
      <use x="374.414062" xlink:href="#DejaVuSans-97"/>
      <use x="435.693359" xlink:href="#DejaVuSans-112"/>
      <use x="499.169922" xlink:href="#DejaVuSans-116"/>
      <use x="538.378906" xlink:href="#DejaVuSans-111"/>
      <use x="599.560547" xlink:href="#DejaVuSans-114"/>
      <use x="640.673828" xlink:href="#DejaVuSans-43"/>
      <use x="724.462891" xlink:href="#DejaVuSans-108"/>
      <use x="752.246094" xlink:href="#DejaVuSans-97"/>
      <use x="813.525391" xlink:href="#DejaVuSans-110"/>
      <use x="876.904297" xlink:href="#DejaVuSans-99"/>
      <use x="931.884766" xlink:href="#DejaVuSans-101"/>
      <use x="993.408203" xlink:href="#DejaVuSans-116"/>
     </g>
    </g>
    <g id="line2d_23">
     <path d="M 96.214063 152.709687 
L 116.214063 152.709687 
" style="fill:none;stroke:#2ca02c;stroke-linecap:square;stroke-width:1.5;"/>
    </g>
    <g id="line2d_24"/>
    <g id="text_14">
     <!-- varlociraptor+manta -->
     <defs>
      <path d="M 52 44.1875 
Q 55.375 50.25 60.0625 53.125 
Q 64.75 56 71.09375 56 
Q 79.640625 56 84.28125 50.015625 
Q 88.921875 44.046875 88.921875 33.015625 
L 88.921875 0 
L 79.890625 0 
L 79.890625 32.71875 
Q 79.890625 40.578125 77.09375 44.375 
Q 74.3125 48.1875 68.609375 48.1875 
Q 61.625 48.1875 57.5625 43.546875 
Q 53.515625 38.921875 53.515625 30.90625 
L 53.515625 0 
L 44.484375 0 
L 44.484375 32.71875 
Q 44.484375 40.625 41.703125 44.40625 
Q 38.921875 48.1875 33.109375 48.1875 
Q 26.21875 48.1875 22.15625 43.53125 
Q 18.109375 38.875 18.109375 30.90625 
L 18.109375 0 
L 9.078125 0 
L 9.078125 54.6875 
L 18.109375 54.6875 
L 18.109375 46.1875 
Q 21.1875 51.21875 25.484375 53.609375 
Q 29.78125 56 35.6875 56 
Q 41.65625 56 45.828125 52.96875 
Q 50 49.953125 52 44.1875 
z
" id="DejaVuSans-109"/>
     </defs>
     <g transform="translate(124.214063 156.209687)scale(0.1 -0.1)">
      <use xlink:href="#DejaVuSans-118"/>
      <use x="59.179688" xlink:href="#DejaVuSans-97"/>
      <use x="120.458984" xlink:href="#DejaVuSans-114"/>
      <use x="161.572266" xlink:href="#DejaVuSans-108"/>
      <use x="189.355469" xlink:href="#DejaVuSans-111"/>
      <use x="250.537109" xlink:href="#DejaVuSans-99"/>
      <use x="305.517578" xlink:href="#DejaVuSans-105"/>
      <use x="333.300781" xlink:href="#DejaVuSans-114"/>
      <use x="374.414062" xlink:href="#DejaVuSans-97"/>
      <use x="435.693359" xlink:href="#DejaVuSans-112"/>
      <use x="499.169922" xlink:href="#DejaVuSans-116"/>
      <use x="538.378906" xlink:href="#DejaVuSans-111"/>
      <use x="599.560547" xlink:href="#DejaVuSans-114"/>
      <use x="640.673828" xlink:href="#DejaVuSans-43"/>
      <use x="724.462891" xlink:href="#DejaVuSans-109"/>
      <use x="821.875" xlink:href="#DejaVuSans-97"/>
      <use x="883.154297" xlink:href="#DejaVuSans-110"/>
      <use x="946.533203" xlink:href="#DejaVuSans-116"/>
      <use x="985.742188" xlink:href="#DejaVuSans-97"/>
     </g>
    </g>
    <g id="line2d_25">
     <path d="M 96.214063 167.387812 
L 116.214063 167.387812 
" style="fill:none;stroke:#d62728;stroke-linecap:square;stroke-width:1.5;"/>
    </g>
    <g id="line2d_26"/>
    <g id="text_15">
     <!-- varlociraptor+strelka -->
     <defs>
      <path d="M 9.078125 75.984375 
L 18.109375 75.984375 
L 18.109375 31.109375 
L 44.921875 54.6875 
L 56.390625 54.6875 
L 27.390625 29.109375 
L 57.625 0 
L 45.90625 0 
L 18.109375 26.703125 
L 18.109375 0 
L 9.078125 0 
z
" id="DejaVuSans-107"/>
     </defs>
     <g transform="translate(124.214063 170.887812)scale(0.1 -0.1)">
      <use xlink:href="#DejaVuSans-118"/>
      <use x="59.179688" xlink:href="#DejaVuSans-97"/>
      <use x="120.458984" xlink:href="#DejaVuSans-114"/>
      <use x="161.572266" xlink:href="#DejaVuSans-108"/>
      <use x="189.355469" xlink:href="#DejaVuSans-111"/>
      <use x="250.537109" xlink:href="#DejaVuSans-99"/>
      <use x="305.517578" xlink:href="#DejaVuSans-105"/>
      <use x="333.300781" xlink:href="#DejaVuSans-114"/>
      <use x="374.414062" xlink:href="#DejaVuSans-97"/>
      <use x="435.693359" xlink:href="#DejaVuSans-112"/>
      <use x="499.169922" xlink:href="#DejaVuSans-116"/>
      <use x="538.378906" xlink:href="#DejaVuSans-111"/>
      <use x="599.560547" xlink:href="#DejaVuSans-114"/>
      <use x="640.673828" xlink:href="#DejaVuSans-43"/>
      <use x="724.462891" xlink:href="#DejaVuSans-115"/>
      <use x="776.5625" xlink:href="#DejaVuSans-116"/>
      <use x="815.771484" xlink:href="#DejaVuSans-114"/>
      <use x="856.853516" xlink:href="#DejaVuSans-101"/>
      <use x="918.376953" xlink:href="#DejaVuSans-108"/>
      <use x="946.160156" xlink:href="#DejaVuSans-107"/>
      <use x="1004.054688" xlink:href="#DejaVuSans-97"/>
     </g>
    </g>
    <g id="line2d_27">
     <path d="M 96.214063 182.065938 
L 116.214063 182.065938 
" style="fill:none;stroke:#ff7f0e;stroke-dasharray:1.5,2.475;stroke-dashoffset:0;stroke-width:1.5;"/>
    </g>
    <g id="line2d_28">
     <g>
      <use style="fill:#ff7f0e;stroke:#ff7f0e;" x="106.214063" xlink:href="#md8ca52bcc6" y="182.065938"/>
     </g>
    </g>
    <g id="text_16">
     <!-- lancet -->
     <g transform="translate(124.214063 185.565938)scale(0.1 -0.1)">
      <use xlink:href="#DejaVuSans-108"/>
      <use x="27.783203" xlink:href="#DejaVuSans-97"/>
      <use x="89.0625" xlink:href="#DejaVuSans-110"/>
      <use x="152.441406" xlink:href="#DejaVuSans-99"/>
      <use x="207.421875" xlink:href="#DejaVuSans-101"/>
      <use x="268.945312" xlink:href="#DejaVuSans-116"/>
     </g>
    </g>
    <g id="line2d_29">
     <path d="M 96.214063 196.744062 
L 116.214063 196.744062 
" style="fill:none;stroke:#2ca02c;stroke-dasharray:1.5,2.475;stroke-dashoffset:0;stroke-width:1.5;"/>
    </g>
    <g id="line2d_30">
     <defs>
      <path d="M 0 2.5 
C 0.663008 2.5 1.29895 2.236584 1.767767 1.767767 
C 2.236584 1.29895 2.5 0.663008 2.5 0 
C 2.5 -0.663008 2.236584 -1.29895 1.767767 -1.767767 
C 1.29895 -2.236584 0.663008 -2.5 0 -2.5 
C -0.663008 -2.5 -1.29895 -2.236584 -1.767767 -1.767767 
C -2.236584 -1.29895 -2.5 -0.663008 -2.5 0 
C -2.5 0.663008 -2.236584 1.29895 -1.767767 1.767767 
C -1.29895 2.236584 -0.663008 2.5 0 2.5 
z
" id="m590d8f2421" style="stroke:#2ca02c;"/>
     </defs>
     <g>
      <use style="fill:#2ca02c;stroke:#2ca02c;" x="106.214063" xlink:href="#m590d8f2421" y="196.744062"/>
     </g>
    </g>
    <g id="text_17">
     <!-- manta -->
     <g transform="translate(124.214063 200.244062)scale(0.1 -0.1)">
      <use xlink:href="#DejaVuSans-109"/>
      <use x="97.412109" xlink:href="#DejaVuSans-97"/>
      <use x="158.691406" xlink:href="#DejaVuSans-110"/>
      <use x="222.070312" xlink:href="#DejaVuSans-116"/>
      <use x="261.279297" xlink:href="#DejaVuSans-97"/>
     </g>
    </g>
    <g id="line2d_31">
     <path d="M 96.214063 211.422187 
L 116.214063 211.422187 
" style="fill:none;stroke:#d62728;stroke-dasharray:1.5,2.475;stroke-dashoffset:0;stroke-width:1.5;"/>
    </g>
    <g id="line2d_32">
     <g>
      <use style="fill:#d62728;stroke:#d62728;" x="106.214063" xlink:href="#m6a4cf006df" y="211.422187"/>
     </g>
    </g>
    <g id="text_18">
     <!-- strelka -->
     <g transform="translate(124.214063 214.922187)scale(0.1 -0.1)">
      <use xlink:href="#DejaVuSans-115"/>
      <use x="52.099609" xlink:href="#DejaVuSans-116"/>
      <use x="91.308594" xlink:href="#DejaVuSans-114"/>
      <use x="132.390625" xlink:href="#DejaVuSans-101"/>
      <use x="193.914062" xlink:href="#DejaVuSans-108"/>
      <use x="221.697266" xlink:href="#DejaVuSans-107"/>
      <use x="279.591797" xlink:href="#DejaVuSans-97"/>
     </g>
    </g>
    <g id="line2d_33">
     <path d="M 96.214063 226.100312 
L 116.214063 226.100312 
" style="fill:none;"/>
    </g>
    <g id="line2d_34">
     <g>
      <use style="fill:#1f77b4;stroke:#1f77b4;" x="106.214063" xlink:href="#m662569c652" y="226.100312"/>
     </g>
    </g>
    <g id="text_19">
     <!-- delly -->
     <g transform="translate(124.214063 229.600312)scale(0.1 -0.1)">
      <use xlink:href="#DejaVuSans-100"/>
      <use x="63.476562" xlink:href="#DejaVuSans-101"/>
      <use x="125" xlink:href="#DejaVuSans-108"/>
      <use x="152.783203" xlink:href="#DejaVuSans-108"/>
      <use x="180.566406" xlink:href="#DejaVuSans-121"/>
     </g>
    </g>
    <g id="line2d_35">
     <path d="M 96.214063 240.778437 
L 116.214063 240.778437 
" style="fill:none;"/>
    </g>
    <g id="line2d_36">
     <defs>
      <path d="M 0 2.5 
C 0.663008 2.5 1.29895 2.236584 1.767767 1.767767 
C 2.236584 1.29895 2.5 0.663008 2.5 0 
C 2.5 -0.663008 2.236584 -1.29895 1.767767 -1.767767 
C 1.29895 -2.236584 0.663008 -2.5 0 -2.5 
C -0.663008 -2.5 -1.29895 -2.236584 -1.767767 -1.767767 
C -2.236584 -1.29895 -2.5 -0.663008 -2.5 0 
C -2.5 0.663008 -2.236584 1.29895 -1.767767 1.767767 
C -1.29895 2.236584 -0.663008 2.5 0 2.5 
z
" id="mf14f0cfd28" style="stroke:#9467bd;"/>
     </defs>
     <g>
      <use style="fill:#9467bd;stroke:#9467bd;" x="106.214063" xlink:href="#mf14f0cfd28" y="240.778437"/>
     </g>
    </g>
    <g id="text_20">
     <!-- bpi -->
     <defs>
      <path d="M 48.6875 27.296875 
Q 48.6875 37.203125 44.609375 42.84375 
Q 40.53125 48.484375 33.40625 48.484375 
Q 26.265625 48.484375 22.1875 42.84375 
Q 18.109375 37.203125 18.109375 27.296875 
Q 18.109375 17.390625 22.1875 11.75 
Q 26.265625 6.109375 33.40625 6.109375 
Q 40.53125 6.109375 44.609375 11.75 
Q 48.6875 17.390625 48.6875 27.296875 
z
M 18.109375 46.390625 
Q 20.953125 51.265625 25.265625 53.625 
Q 29.59375 56 35.59375 56 
Q 45.5625 56 51.78125 48.09375 
Q 58.015625 40.1875 58.015625 27.296875 
Q 58.015625 14.40625 51.78125 6.484375 
Q 45.5625 -1.421875 35.59375 -1.421875 
Q 29.59375 -1.421875 25.265625 0.953125 
Q 20.953125 3.328125 18.109375 8.203125 
L 18.109375 0 
L 9.078125 0 
L 9.078125 75.984375 
L 18.109375 75.984375 
z
" id="DejaVuSans-98"/>
     </defs>
     <g transform="translate(124.214063 244.278437)scale(0.1 -0.1)">
      <use xlink:href="#DejaVuSans-98"/>
      <use x="63.476562" xlink:href="#DejaVuSans-112"/>
      <use x="126.953125" xlink:href="#DejaVuSans-105"/>
     </g>
    </g>
   </g>
  </g>
  <g id="axes_2">
   <g id="patch_6">
    <path d="M 319.34125 255.358125 
L 558.74125 255.358125 
L 558.74125 22.318125 
L 319.34125 22.318125 
z
" style="fill:#ffffff;"/>
   </g>
   <g id="matplotlib.axis_3">
    <g id="xtick_5">
     <g id="line2d_37">
      <g>
       <use style="stroke:#000000;stroke-width:0.8;" x="325.420059" xlink:href="#m8b34c3f41d" y="255.358125"/>
      </g>
     </g>
     <g id="text_21">
      <!-- 0.0 -->
      <g transform="translate(317.468496 269.956562)scale(0.1 -0.1)">
       <use xlink:href="#DejaVuSans-48"/>
       <use x="63.623047" xlink:href="#DejaVuSans-46"/>
       <use x="95.410156" xlink:href="#DejaVuSans-48"/>
      </g>
     </g>
    </g>
    <g id="xtick_6">
     <g id="line2d_38">
      <g>
       <use style="stroke:#000000;stroke-width:0.8;" x="390.620911" xlink:href="#m8b34c3f41d" y="255.358125"/>
      </g>
     </g>
     <g id="text_22">
      <!-- 0.2 -->
      <g transform="translate(382.669349 269.956562)scale(0.1 -0.1)">
       <use xlink:href="#DejaVuSans-48"/>
       <use x="63.623047" xlink:href="#DejaVuSans-46"/>
       <use x="95.410156" xlink:href="#DejaVuSans-50"/>
      </g>
     </g>
    </g>
    <g id="xtick_7">
     <g id="line2d_39">
      <g>
       <use style="stroke:#000000;stroke-width:0.8;" x="455.821764" xlink:href="#m8b34c3f41d" y="255.358125"/>
      </g>
     </g>
     <g id="text_23">
      <!-- 0.4 -->
      <g transform="translate(447.870202 269.956562)scale(0.1 -0.1)">
       <use xlink:href="#DejaVuSans-48"/>
       <use x="63.623047" xlink:href="#DejaVuSans-46"/>
       <use x="95.410156" xlink:href="#DejaVuSans-52"/>
      </g>
     </g>
    </g>
    <g id="xtick_8">
     <g id="line2d_40">
      <g>
       <use style="stroke:#000000;stroke-width:0.8;" x="521.022617" xlink:href="#m8b34c3f41d" y="255.358125"/>
      </g>
     </g>
     <g id="text_24">
      <!-- 0.6 -->
      <g transform="translate(513.071054 269.956562)scale(0.1 -0.1)">
       <use xlink:href="#DejaVuSans-48"/>
       <use x="63.623047" xlink:href="#DejaVuSans-46"/>
       <use x="95.410156" xlink:href="#DejaVuSans-54"/>
      </g>
     </g>
    </g>
   </g>
   <g id="matplotlib.axis_4">
    <g id="ytick_6">
     <g id="line2d_41">
      <g>
       <use style="stroke:#000000;stroke-width:0.8;" x="319.34125" xlink:href="#m86e3584628" y="249.167134"/>
      </g>
     </g>
     <g id="text_25">
      <!-- 0.2 -->
      <g transform="translate(296.438125 252.966352)scale(0.1 -0.1)">
       <use xlink:href="#DejaVuSans-48"/>
       <use x="63.623047" xlink:href="#DejaVuSans-46"/>
       <use x="95.410156" xlink:href="#DejaVuSans-50"/>
      </g>
     </g>
    </g>
    <g id="ytick_7">
     <g id="line2d_42">
      <g>
       <use style="stroke:#000000;stroke-width:0.8;" x="319.34125" xlink:href="#m86e3584628" y="222.135099"/>
      </g>
     </g>
     <g id="text_26">
      <!-- 0.3 -->
      <g transform="translate(296.438125 225.934317)scale(0.1 -0.1)">
       <use xlink:href="#DejaVuSans-48"/>
       <use x="63.623047" xlink:href="#DejaVuSans-46"/>
       <use x="95.410156" xlink:href="#DejaVuSans-51"/>
      </g>
     </g>
    </g>
    <g id="ytick_8">
     <g id="line2d_43">
      <g>
       <use style="stroke:#000000;stroke-width:0.8;" x="319.34125" xlink:href="#m86e3584628" y="195.103063"/>
      </g>
     </g>
     <g id="text_27">
      <!-- 0.4 -->
      <g transform="translate(296.438125 198.902282)scale(0.1 -0.1)">
       <use xlink:href="#DejaVuSans-48"/>
       <use x="63.623047" xlink:href="#DejaVuSans-46"/>
       <use x="95.410156" xlink:href="#DejaVuSans-52"/>
      </g>
     </g>
    </g>
    <g id="ytick_9">
     <g id="line2d_44">
      <g>
       <use style="stroke:#000000;stroke-width:0.8;" x="319.34125" xlink:href="#m86e3584628" y="168.071028"/>
      </g>
     </g>
     <g id="text_28">
      <!-- 0.5 -->
      <defs>
       <path d="M 10.796875 72.90625 
L 49.515625 72.90625 
L 49.515625 64.59375 
L 19.828125 64.59375 
L 19.828125 46.734375 
Q 21.96875 47.46875 24.109375 47.828125 
Q 26.265625 48.1875 28.421875 48.1875 
Q 40.625 48.1875 47.75 41.5 
Q 54.890625 34.8125 54.890625 23.390625 
Q 54.890625 11.625 47.5625 5.09375 
Q 40.234375 -1.421875 26.90625 -1.421875 
Q 22.3125 -1.421875 17.546875 -0.640625 
Q 12.796875 0.140625 7.71875 1.703125 
L 7.71875 11.625 
Q 12.109375 9.234375 16.796875 8.0625 
Q 21.484375 6.890625 26.703125 6.890625 
Q 35.15625 6.890625 40.078125 11.328125 
Q 45.015625 15.765625 45.015625 23.390625 
Q 45.015625 31 40.078125 35.4375 
Q 35.15625 39.890625 26.703125 39.890625 
Q 22.75 39.890625 18.8125 39.015625 
Q 14.890625 38.140625 10.796875 36.28125 
z
" id="DejaVuSans-53"/>
      </defs>
      <g transform="translate(296.438125 171.870247)scale(0.1 -0.1)">
       <use xlink:href="#DejaVuSans-48"/>
       <use x="63.623047" xlink:href="#DejaVuSans-46"/>
       <use x="95.410156" xlink:href="#DejaVuSans-53"/>
      </g>
     </g>
    </g>
    <g id="ytick_10">
     <g id="line2d_45">
      <g>
       <use style="stroke:#000000;stroke-width:0.8;" x="319.34125" xlink:href="#m86e3584628" y="141.038993"/>
      </g>
     </g>
     <g id="text_29">
      <!-- 0.6 -->
      <g transform="translate(296.438125 144.838212)scale(0.1 -0.1)">
       <use xlink:href="#DejaVuSans-48"/>
       <use x="63.623047" xlink:href="#DejaVuSans-46"/>
       <use x="95.410156" xlink:href="#DejaVuSans-54"/>
      </g>
     </g>
    </g>
    <g id="ytick_11">
     <g id="line2d_46">
      <g>
       <use style="stroke:#000000;stroke-width:0.8;" x="319.34125" xlink:href="#m86e3584628" y="114.006958"/>
      </g>
     </g>
     <g id="text_30">
      <!-- 0.7 -->
      <defs>
       <path d="M 8.203125 72.90625 
L 55.078125 72.90625 
L 55.078125 68.703125 
L 28.609375 0 
L 18.3125 0 
L 43.21875 64.59375 
L 8.203125 64.59375 
z
" id="DejaVuSans-55"/>
      </defs>
      <g transform="translate(296.438125 117.806177)scale(0.1 -0.1)">
       <use xlink:href="#DejaVuSans-48"/>
       <use x="63.623047" xlink:href="#DejaVuSans-46"/>
       <use x="95.410156" xlink:href="#DejaVuSans-55"/>
      </g>
     </g>
    </g>
    <g id="ytick_12">
     <g id="line2d_47">
      <g>
       <use style="stroke:#000000;stroke-width:0.8;" x="319.34125" xlink:href="#m86e3584628" y="86.974923"/>
      </g>
     </g>
     <g id="text_31">
      <!-- 0.8 -->
      <g transform="translate(296.438125 90.774141)scale(0.1 -0.1)">
       <use xlink:href="#DejaVuSans-48"/>
       <use x="63.623047" xlink:href="#DejaVuSans-46"/>
       <use x="95.410156" xlink:href="#DejaVuSans-56"/>
      </g>
     </g>
    </g>
    <g id="ytick_13">
     <g id="line2d_48">
      <g>
       <use style="stroke:#000000;stroke-width:0.8;" x="319.34125" xlink:href="#m86e3584628" y="59.942887"/>
      </g>
     </g>
     <g id="text_32">
      <!-- 0.9 -->
      <defs>
       <path d="M 10.984375 1.515625 
L 10.984375 10.5 
Q 14.703125 8.734375 18.5 7.8125 
Q 22.3125 6.890625 25.984375 6.890625 
Q 35.75 6.890625 40.890625 13.453125 
Q 46.046875 20.015625 46.78125 33.40625 
Q 43.953125 29.203125 39.59375 26.953125 
Q 35.25 24.703125 29.984375 24.703125 
Q 19.046875 24.703125 12.671875 31.3125 
Q 6.296875 37.9375 6.296875 49.421875 
Q 6.296875 60.640625 12.9375 67.421875 
Q 19.578125 74.21875 30.609375 74.21875 
Q 43.265625 74.21875 49.921875 64.515625 
Q 56.59375 54.828125 56.59375 36.375 
Q 56.59375 19.140625 48.40625 8.859375 
Q 40.234375 -1.421875 26.421875 -1.421875 
Q 22.703125 -1.421875 18.890625 -0.6875 
Q 15.09375 0.046875 10.984375 1.515625 
z
M 30.609375 32.421875 
Q 37.25 32.421875 41.125 36.953125 
Q 45.015625 41.5 45.015625 49.421875 
Q 45.015625 57.28125 41.125 61.84375 
Q 37.25 66.40625 30.609375 66.40625 
Q 23.96875 66.40625 20.09375 61.84375 
Q 16.21875 57.28125 16.21875 49.421875 
Q 16.21875 41.5 20.09375 36.953125 
Q 23.96875 32.421875 30.609375 32.421875 
z
" id="DejaVuSans-57"/>
      </defs>
      <g transform="translate(296.438125 63.742106)scale(0.1 -0.1)">
       <use xlink:href="#DejaVuSans-48"/>
       <use x="63.623047" xlink:href="#DejaVuSans-46"/>
       <use x="95.410156" xlink:href="#DejaVuSans-57"/>
      </g>
     </g>
    </g>
    <g id="ytick_14">
     <g id="line2d_49">
      <g>
       <use style="stroke:#000000;stroke-width:0.8;" x="319.34125" xlink:href="#m86e3584628" y="32.910852"/>
      </g>
     </g>
     <g id="text_33">
      <!-- 1.0 -->
      <g transform="translate(296.438125 36.710071)scale(0.1 -0.1)">
       <use xlink:href="#DejaVuSans-49"/>
       <use x="63.623047" xlink:href="#DejaVuSans-46"/>
       <use x="95.410156" xlink:href="#DejaVuSans-48"/>
      </g>
     </g>
    </g>
   </g>
   <g id="line2d_50">
    <path clip-path="url(#p4ce7b3efae)" d="M 336.22683 32.910852 
L 346.733413 32.910852 
L 357.239996 32.910852 
L 368.046767 32.910852 
L 378.55335 32.910852 
L 389.059933 32.910852 
L 399.866705 32.910852 
L 410.373288 32.910852 
L 420.879871 32.910852 
L 431.386454 33.674469 
L 441.893037 33.605763 
L 452.39962 33.5484 
L 462.906203 33.499786 
L 473.712974 33.456954 
L 481.517864 38.011236 
L 487.521626 44.87193 
L 487.521626 59.897909 
L 487.521626 73.288892 
L 487.521626 85.282903 
L 487.521626 96.380694 
L 487.521626 105.773481 
L 487.521626 114.32007 
L 487.521626 122.685139 
L 487.521626 130.136922 
L 487.521626 136.997964 
L 487.521626 143.335833 
L 487.521626 149.36962 
L 487.521626 154.814671 
L 487.521626 159.887502 
L 487.521626 164.755779 
L 487.521626 169.181934 
L 487.521626 173.333902 
L 487.521626 177.344454 
L 487.521626 181.013093 
L 487.521626 184.473962 
L 487.521626 187.835016 
L 487.521626 190.925197 
L 487.521626 193.854191 
L 487.521626 196.63429 
L 487.521626 199.350135 
L 487.521626 201.861072 
L 487.521626 204.253489 
L 487.521626 206.599242 
L 487.521626 208.775637 
L 487.521626 210.856156 
L 487.521626 212.902619 
L 487.521626 214.807137 
L 487.521626 216.633003 
L 487.521626 218.434005 
" style="fill:none;stroke:#1f77b4;stroke-linecap:square;stroke-width:1.5;"/>
   </g>
   <g id="line2d_51">
    <path clip-path="url(#p4ce7b3efae)" d="M 338.628335 32.910852 
L 351.236234 32.910852 
L 364.144322 32.910852 
L 376.752222 32.910852 
L 389.960498 32.910852 
L 403.168774 32.910852 
L 416.677237 32.910852 
L 429.885513 32.910852 
L 442.193225 32.910852 
L 454.200748 32.910852 
L 465.908084 32.910852 
L 478.816172 32.910852 
L 491.424071 32.910852 
L 504.932535 32.910852 
L 516.940059 33.726298 
L 528.947582 34.822595 
L 540.955106 36.859755 
L 546.958868 44.131697 
L 547.859432 56.753172 
L 547.859432 69.035203 
L 547.859432 80.39169 
L 547.859432 90.479075 
L 547.859432 99.69275 
L 547.859432 108.141516 
L 547.859432 115.671974 
L 547.859432 122.860656 
L 547.859432 129.518629 
L 547.859432 135.619474 
L 547.859432 141.37663 
L 547.859432 146.751423 
L 547.859432 151.780722 
L 547.859432 156.496802 
L 547.859432 160.92804 
L 547.859432 165.099485 
L 547.859432 169.033334 
L 547.859432 172.831387 
L 547.859432 176.17733 
L 547.859432 179.508898 
L 547.859432 182.670211 
L 547.859432 185.673996 
L 547.859432 188.382392 
L 547.859432 191.168481 
L 547.859432 193.764985 
L 547.859432 196.24389 
L 547.859432 198.613011 
L 547.859432 200.879481 
L 547.859432 203.04983 
L 547.859432 205.130048 
" style="fill:none;stroke:#ff7f0e;stroke-linecap:square;stroke-width:1.5;"/>
   </g>
   <g id="line2d_52">
    <path clip-path="url(#p4ce7b3efae)" d="M 335.326266 32.910852 
L 345.232473 32.910852 
L 354.838491 32.910852 
L 364.744698 32.910852 
L 374.650905 32.910852 
L 384.256924 32.910852 
L 394.163131 32.910852 
L 403.76915 32.910852 
L 413.675357 32.910852 
L 422.680999 32.910852 
L 427.784197 44.143 
L 427.784197 65.843281 
L 427.784197 84.18942 
L 427.784197 99.903287 
L 427.784197 112.965155 
L 427.784197 124.901999 
L 427.784197 135.128763 
L 427.784197 144.515194 
L 427.784197 152.908829 
L 427.784197 160.459268 
L 427.784197 167.287491 
L 427.784197 172.938292 
L 427.784197 178.633214 
L 427.784197 184.002456 
L 427.784197 188.649618 
L 427.784197 193.077243 
L 427.784197 197.175418 
L 427.784197 200.868329 
L 427.784197 204.416622 
L 427.784197 207.727161 
L 427.784197 210.823068 
L 427.784197 213.72456 
L 427.784197 216.449394 
L 427.784197 218.937761 
L 427.784197 221.429915 
L 427.784197 223.644502 
L 427.784197 225.806116 
L 427.784197 227.853414 
L 427.784197 229.737858 
L 427.784197 231.584987 
L 427.784197 233.341544 
L 427.784197 235.01403 
L 427.784197 236.608341 
L 427.784197 238.084748 
L 427.784197 239.540288 
L 427.784197 240.932209 
L 427.784197 242.304078 
L 427.784197 243.541177 
L 427.784197 244.765398 
" style="fill:none;stroke:#2ca02c;stroke-linecap:square;stroke-width:1.5;"/>
   </g>
   <g id="line2d_53">
    <path clip-path="url(#p4ce7b3efae)" d="M 330.223068 32.910852 
L 332.624573 32.910852 
L 335.026078 32.910852 
L 337.127394 32.910852 
L 339.528899 32.910852 
L 341.930404 32.910852 
L 344.331908 32.910852 
L 346.433225 32.910852 
L 348.83473 32.910852 
L 351.236234 32.910852 
L 353.637739 32.910852 
L 356.039244 32.910852 
L 358.14056 32.910852 
L 360.542065 32.910852 
L 362.94357 32.910852 
L 365.345074 32.910852 
L 367.446391 32.910852 
L 369.847896 32.910852 
L 372.2494 32.910852 
L 374.650905 32.910852 
L 377.05241 32.910852 
L 379.153726 32.910852 
L 381.555231 32.910852 
L 383.956736 32.910852 
L 386.358241 32.910852 
L 388.459557 32.910852 
L 390.861062 32.910852 
L 393.262567 32.910852 
L 395.664071 32.910852 
L 398.065576 32.910852 
L 400.166893 32.910852 
L 402.568397 32.910852 
L 404.969902 32.910852 
L 407.371407 32.910852 
L 409.472723 32.910852 
L 411.874228 32.910852 
L 414.275733 32.910852 
L 416.677237 32.910852 
L 419.078742 32.910852 
L 421.180059 32.910852 
L 423.581563 32.910852 
L 425.983068 32.910852 
L 428.384573 32.910852 
L 430.485889 32.910852 
L 432.887394 32.910852 
L 434.988711 33.649432 
L 436.189463 36.524761 
L 436.189463 42.110236 
" style="fill:none;stroke:#d62728;stroke-linecap:square;stroke-width:1.5;"/>
   </g>
   <g id="line2d_54">
    <path clip-path="url(#p4ce7b3efae)" d="M 547.859432 207.258743 
L 547.859432 207.258743 
L 547.859432 207.258743 
L 547.859432 207.258743 
L 547.859432 207.258743 
L 547.859432 207.258743 
L 547.859432 207.258743 
L 547.859432 207.258743 
L 547.859432 207.258743 
L 547.859432 207.258743 
L 547.859432 207.258743 
L 547.859432 207.258743 
L 547.859432 207.258743 
L 547.859432 207.258743 
L 547.859432 207.258743 
L 547.859432 207.258743 
L 547.859432 207.258743 
L 547.859432 207.258743 
L 547.859432 207.258743 
L 547.859432 207.258743 
L 547.859432 207.258743 
L 546.058303 137.283331 
L 546.058303 131.599235 
L 545.157739 125.370294 
L 542.456046 120.489754 
L 540.955106 114.185303 
L 537.352849 109.461748 
L 534.350968 103.477522 
L 530.448523 97.578005 
L 526.846266 91.317173 
L 522.343444 85.365873 
L 517.840623 79.096239 
L 511.536673 74.249736 
L 504.332159 69.233955 
L 496.827457 63.897801 
L 488.42219 59.549853 
L 480.6173 54.53648 
L 470.711093 50.728578 
L 460.20451 49.528907 
L 449.097551 45.754127 
L 437.090027 45.136396 
L 426.283256 42.837871 
L 414.275733 42.502865 
L 401.968021 42.05703 
L 389.360121 42.696204 
L 376.452034 43.601488 
L 364.44451 39.008304 
L 352.136799 32.910852 
L 338.928523 32.910852 
" style="fill:none;stroke:#ff7f0e;stroke-dasharray:1.5,2.475;stroke-dashoffset:0;stroke-width:1.5;"/>
   </g>
   <g id="line2d_55">
    <path clip-path="url(#p4ce7b3efae)" d="M 436.189463 42.110236 
L 436.189463 37.235978 
L 434.988711 33.649432 
L 433.48777 32.910852 
L 430.786078 32.910852 
L 428.384573 32.910852 
L 426.883632 32.910852 
L 423.881752 32.910852 
L 421.180059 32.910852 
L 421.180059 32.910852 
L 418.478366 32.910852 
L 414.876109 32.910852 
L 414.876109 32.910852 
L 410.673476 32.910852 
L 410.673476 32.910852 
L 407.071219 32.910852 
L 403.168774 32.910852 
L 401.367645 32.910852 
L 401.367645 32.910852 
L 396.864824 32.910852 
L 396.864824 32.910852 
L 392.962379 32.910852 
L 392.962379 32.910852 
L 388.159369 32.910852 
L 385.157488 32.910852 
L 381.855419 32.910852 
L 379.754103 32.910852 
L 379.754103 32.910852 
L 375.551469 32.910852 
L 372.549589 32.910852 
L 372.549589 32.910852 
L 368.947332 32.910852 
L 368.947332 32.910852 
L 364.44451 32.910852 
L 362.043005 32.910852 
L 358.440748 32.910852 
L 358.440748 32.910852 
L 355.739056 32.910852 
L 351.536422 32.910852 
L 349.134918 32.910852 
L 347.633977 32.910852 
L 344.632096 32.910852 
L 341.930404 32.910852 
L 340.429463 32.910852 
L 337.127394 32.910852 
L 335.326266 32.910852 
L 332.624573 32.910852 
L 330.523256 32.910852 
" style="fill:none;stroke:#d62728;stroke-dasharray:1.5,2.475;stroke-dashoffset:0;stroke-width:1.5;"/>
   </g>
   <g id="line2d_56">
    <g clip-path="url(#p4ce7b3efae)">
     <use style="fill:#1f77b4;stroke:#1f77b4;" x="437.390216" xlink:href="#m662569c652" y="33.59176"/>
    </g>
   </g>
   <g id="line2d_57">
    <g clip-path="url(#p4ce7b3efae)">
     <use style="fill:#ff7f0e;stroke:#ff7f0e;" x="452.099432" xlink:href="#md8ca52bcc6" y="32.910852"/>
    </g>
   </g>
   <g id="line2d_58">
    <g clip-path="url(#p4ce7b3efae)">
     <use style="fill:#d62728;stroke:#d62728;" x="434.388335" xlink:href="#m6a4cf006df" y="32.910852"/>
    </g>
   </g>
   <g id="patch_7">
    <path d="M 319.34125 255.358125 
L 319.34125 22.318125 
" style="fill:none;stroke:#000000;stroke-linecap:square;stroke-linejoin:miter;stroke-width:0.8;"/>
   </g>
   <g id="patch_8">
    <path d="M 319.34125 255.358125 
L 558.74125 255.358125 
" style="fill:none;stroke:#000000;stroke-linecap:square;stroke-linejoin:miter;stroke-width:0.8;"/>
   </g>
   <g id="text_34">
    <!-- 30 - 50 -->
    <g transform="translate(417.792813 16.318125)scale(0.12 -0.12)">
     <use xlink:href="#DejaVuSans-51"/>
     <use x="63.623047" xlink:href="#DejaVuSans-48"/>
     <use x="127.246094" xlink:href="#DejaVuSans-32"/>
     <use x="159.033203" xlink:href="#DejaVuSans-45"/>
     <use x="195.117188" xlink:href="#DejaVuSans-32"/>
     <use x="226.904297" xlink:href="#DejaVuSans-53"/>
     <use x="290.527344" xlink:href="#DejaVuSans-48"/>
    </g>
   </g>
  </g>
  <g id="axes_3">
   <g id="patch_9">
    <path d="M 43.78125 530.918125 
L 283.18125 530.918125 
L 283.18125 297.878125 
L 43.78125 297.878125 
z
" style="fill:#ffffff;"/>
   </g>
   <g id="matplotlib.axis_5">
    <g id="xtick_9">
     <g id="line2d_59">
      <g>
       <use style="stroke:#000000;stroke-width:0.8;" x="50.248537" xlink:href="#m8b34c3f41d" y="530.918125"/>
      </g>
     </g>
     <g id="text_35">
      <!-- 0.0 -->
      <g transform="translate(42.296975 545.516562)scale(0.1 -0.1)">
       <use xlink:href="#DejaVuSans-48"/>
       <use x="63.623047" xlink:href="#DejaVuSans-46"/>
       <use x="95.410156" xlink:href="#DejaVuSans-48"/>
      </g>
     </g>
    </g>
    <g id="xtick_10">
     <g id="line2d_60">
      <g>
       <use style="stroke:#000000;stroke-width:0.8;" x="111.610514" xlink:href="#m8b34c3f41d" y="530.918125"/>
      </g>
     </g>
     <g id="text_36">
      <!-- 0.2 -->
      <g transform="translate(103.658952 545.516562)scale(0.1 -0.1)">
       <use xlink:href="#DejaVuSans-48"/>
       <use x="63.623047" xlink:href="#DejaVuSans-46"/>
       <use x="95.410156" xlink:href="#DejaVuSans-50"/>
      </g>
     </g>
    </g>
    <g id="xtick_11">
     <g id="line2d_61">
      <g>
       <use style="stroke:#000000;stroke-width:0.8;" x="172.972491" xlink:href="#m8b34c3f41d" y="530.918125"/>
      </g>
     </g>
     <g id="text_37">
      <!-- 0.4 -->
      <g transform="translate(165.020929 545.516562)scale(0.1 -0.1)">
       <use xlink:href="#DejaVuSans-48"/>
       <use x="63.623047" xlink:href="#DejaVuSans-46"/>
       <use x="95.410156" xlink:href="#DejaVuSans-52"/>
      </g>
     </g>
    </g>
    <g id="xtick_12">
     <g id="line2d_62">
      <g>
       <use style="stroke:#000000;stroke-width:0.8;" x="234.334468" xlink:href="#m8b34c3f41d" y="530.918125"/>
      </g>
     </g>
     <g id="text_38">
      <!-- 0.6 -->
      <g transform="translate(226.382905 545.516562)scale(0.1 -0.1)">
       <use xlink:href="#DejaVuSans-48"/>
       <use x="63.623047" xlink:href="#DejaVuSans-46"/>
       <use x="95.410156" xlink:href="#DejaVuSans-54"/>
      </g>
     </g>
    </g>
    <g id="text_39">
     <!-- recall -->
     <g transform="translate(149.759375 559.194687)scale(0.1 -0.1)">
      <use xlink:href="#DejaVuSans-114"/>
      <use x="41.082031" xlink:href="#DejaVuSans-101"/>
      <use x="102.605469" xlink:href="#DejaVuSans-99"/>
      <use x="157.585938" xlink:href="#DejaVuSans-97"/>
      <use x="218.865234" xlink:href="#DejaVuSans-108"/>
      <use x="246.648438" xlink:href="#DejaVuSans-108"/>
     </g>
    </g>
   </g>
   <g id="matplotlib.axis_6">
    <g id="ytick_15">
     <g id="line2d_63">
      <g>
       <use style="stroke:#000000;stroke-width:0.8;" x="43.78125" xlink:href="#m86e3584628" y="512.380852"/>
      </g>
     </g>
     <g id="text_40">
      <!-- 0.3 -->
      <g transform="translate(20.878125 516.180071)scale(0.1 -0.1)">
       <use xlink:href="#DejaVuSans-48"/>
       <use x="63.623047" xlink:href="#DejaVuSans-46"/>
       <use x="95.410156" xlink:href="#DejaVuSans-51"/>
      </g>
     </g>
    </g>
    <g id="ytick_16">
     <g id="line2d_64">
      <g>
       <use style="stroke:#000000;stroke-width:0.8;" x="43.78125" xlink:href="#m86e3584628" y="483.250852"/>
      </g>
     </g>
     <g id="text_41">
      <!-- 0.4 -->
      <g transform="translate(20.878125 487.050071)scale(0.1 -0.1)">
       <use xlink:href="#DejaVuSans-48"/>
       <use x="63.623047" xlink:href="#DejaVuSans-46"/>
       <use x="95.410156" xlink:href="#DejaVuSans-52"/>
      </g>
     </g>
    </g>
    <g id="ytick_17">
     <g id="line2d_65">
      <g>
       <use style="stroke:#000000;stroke-width:0.8;" x="43.78125" xlink:href="#m86e3584628" y="454.120852"/>
      </g>
     </g>
     <g id="text_42">
      <!-- 0.5 -->
      <g transform="translate(20.878125 457.920071)scale(0.1 -0.1)">
       <use xlink:href="#DejaVuSans-48"/>
       <use x="63.623047" xlink:href="#DejaVuSans-46"/>
       <use x="95.410156" xlink:href="#DejaVuSans-53"/>
      </g>
     </g>
    </g>
    <g id="ytick_18">
     <g id="line2d_66">
      <g>
       <use style="stroke:#000000;stroke-width:0.8;" x="43.78125" xlink:href="#m86e3584628" y="424.990852"/>
      </g>
     </g>
     <g id="text_43">
      <!-- 0.6 -->
      <g transform="translate(20.878125 428.790071)scale(0.1 -0.1)">
       <use xlink:href="#DejaVuSans-48"/>
       <use x="63.623047" xlink:href="#DejaVuSans-46"/>
       <use x="95.410156" xlink:href="#DejaVuSans-54"/>
      </g>
     </g>
    </g>
    <g id="ytick_19">
     <g id="line2d_67">
      <g>
       <use style="stroke:#000000;stroke-width:0.8;" x="43.78125" xlink:href="#m86e3584628" y="395.860852"/>
      </g>
     </g>
     <g id="text_44">
      <!-- 0.7 -->
      <g transform="translate(20.878125 399.660071)scale(0.1 -0.1)">
       <use xlink:href="#DejaVuSans-48"/>
       <use x="63.623047" xlink:href="#DejaVuSans-46"/>
       <use x="95.410156" xlink:href="#DejaVuSans-55"/>
      </g>
     </g>
    </g>
    <g id="ytick_20">
     <g id="line2d_68">
      <g>
       <use style="stroke:#000000;stroke-width:0.8;" x="43.78125" xlink:href="#m86e3584628" y="366.730852"/>
      </g>
     </g>
     <g id="text_45">
      <!-- 0.8 -->
      <g transform="translate(20.878125 370.530071)scale(0.1 -0.1)">
       <use xlink:href="#DejaVuSans-48"/>
       <use x="63.623047" xlink:href="#DejaVuSans-46"/>
       <use x="95.410156" xlink:href="#DejaVuSans-56"/>
      </g>
     </g>
    </g>
    <g id="ytick_21">
     <g id="line2d_69">
      <g>
       <use style="stroke:#000000;stroke-width:0.8;" x="43.78125" xlink:href="#m86e3584628" y="337.600852"/>
      </g>
     </g>
     <g id="text_46">
      <!-- 0.9 -->
      <g transform="translate(20.878125 341.400071)scale(0.1 -0.1)">
       <use xlink:href="#DejaVuSans-48"/>
       <use x="63.623047" xlink:href="#DejaVuSans-46"/>
       <use x="95.410156" xlink:href="#DejaVuSans-57"/>
      </g>
     </g>
    </g>
    <g id="ytick_22">
     <g id="line2d_70">
      <g>
       <use style="stroke:#000000;stroke-width:0.8;" x="43.78125" xlink:href="#m86e3584628" y="308.470852"/>
      </g>
     </g>
     <g id="text_47">
      <!-- 1.0 -->
      <g transform="translate(20.878125 312.270071)scale(0.1 -0.1)">
       <use xlink:href="#DejaVuSans-49"/>
       <use x="63.623047" xlink:href="#DejaVuSans-46"/>
       <use x="95.410156" xlink:href="#DejaVuSans-48"/>
      </g>
     </g>
    </g>
    <g id="text_48">
     <!-- precision -->
     <g transform="translate(14.798438 437.062969)rotate(-90)scale(0.1 -0.1)">
      <use xlink:href="#DejaVuSans-112"/>
      <use x="63.476562" xlink:href="#DejaVuSans-114"/>
      <use x="104.558594" xlink:href="#DejaVuSans-101"/>
      <use x="166.082031" xlink:href="#DejaVuSans-99"/>
      <use x="221.0625" xlink:href="#DejaVuSans-105"/>
      <use x="248.845703" xlink:href="#DejaVuSans-115"/>
      <use x="300.945312" xlink:href="#DejaVuSans-105"/>
      <use x="328.728516" xlink:href="#DejaVuSans-111"/>
      <use x="389.910156" xlink:href="#DejaVuSans-110"/>
     </g>
    </g>
   </g>
   <g id="line2d_71">
    <path clip-path="url(#p01d14ab6ca)" d="M 59.519052 308.470852 
L 68.348113 308.470852 
L 77.618628 308.470852 
L 86.447689 308.470852 
L 95.718204 308.470852 
L 104.547265 308.470852 
L 113.81778 308.470852 
L 122.646841 308.470852 
L 131.917355 308.470852 
L 140.746417 308.470852 
L 150.016931 308.470852 
L 158.845993 308.470852 
L 168.116507 308.470852 
L 176.945569 308.470852 
L 186.216083 308.470852 
L 195.045145 308.470852 
L 203.874206 308.470852 
L 211.820361 310.839145 
L 218.442157 314.461598 
L 222.415235 322.680608 
L 227.271219 327.439224 
L 234.334468 329.785486 
L 236.10028 338.775948 
L 237.866092 347.547682 
L 237.866092 357.400149 
L 237.866092 366.949464 
L 238.307545 374.843004 
L 239.631905 381.549598 
L 239.631905 388.897115 
L 239.631905 396.097682 
L 239.631905 402.512585 
L 239.631905 408.827255 
L 239.631905 414.476474 
L 239.631905 419.801025 
L 239.631905 425.072108 
L 239.631905 429.812915 
L 239.631905 434.521512 
L 239.631905 438.769567 
L 239.631905 443.00114 
L 239.631905 446.82946 
L 239.631905 450.652995 
L 239.631905 454.120852 
L 239.631905 457.592646 
L 239.631905 460.748655 
L 239.631905 463.915104 
L 239.631905 466.799515 
L 239.631905 469.699201 
L 239.631905 472.345623 
" style="fill:none;stroke:#1f77b4;stroke-linecap:square;stroke-width:1.5;"/>
   </g>
   <g id="line2d_72">
    <path clip-path="url(#p01d14ab6ca)" d="M 59.960505 308.470852 
L 69.23102 308.470852 
L 78.942987 308.470852 
L 88.654955 308.470852 
L 97.925469 308.470852 
L 107.195984 308.470852 
L 116.466498 308.470852 
L 126.178466 308.470852 
L 135.44898 308.470852 
L 144.719495 308.470852 
L 154.431462 308.470852 
L 163.701977 308.470852 
L 173.413944 308.470852 
L 182.684459 308.470852 
L 191.51352 308.470852 
L 200.342581 308.470852 
L 209.613096 308.470852 
L 218.88361 308.470852 
L 228.154125 309.17278 
L 237.424639 309.138972 
L 244.487888 312.923036 
L 254.199856 312.718977 
L 262.146011 314.85392 
L 268.767807 318.477341 
L 270.53362 327.178192 
L 270.53362 337.754979 
L 272.299432 345.563382 
L 272.299432 354.716515 
L 272.299432 363.233412 
L 272.299432 370.82865 
L 272.299432 378.279432 
L 272.299432 385.260537 
L 272.299432 391.815019 
L 272.299432 397.980825 
L 272.299432 403.534679 
L 272.299432 409.034292 
L 272.299432 414.234049 
L 272.299432 419.157825 
L 272.299432 423.827021 
L 272.299432 428.064201 
L 272.299432 432.289644 
L 272.299432 436.312119 
L 272.299432 440.145906 
L 272.299432 443.803977 
L 272.299432 447.142718 
L 272.299432 450.490493 
L 272.299432 453.69456 
L 272.299432 456.763975 
" style="fill:none;stroke:#ff7f0e;stroke-linecap:square;stroke-width:1.5;"/>
   </g>
   <g id="line2d_73">
    <path clip-path="url(#p01d14ab6ca)" d="M 56.42888 308.470852 
L 62.609223 308.470852 
L 68.789566 308.470852 
L 74.969909 308.470852 
L 81.150252 308.470852 
L 87.330595 308.470852 
L 93.510938 308.470852 
L 99.249828 308.470852 
L 105.430171 308.470852 
L 111.610514 308.470852 
L 117.790857 308.470852 
L 123.9712 308.470852 
L 127.502825 318.074149 
L 129.268637 333.481458 
L 130.151543 345.923709 
L 130.151543 362.846852 
L 130.151543 375.788079 
L 130.151543 388.231567 
L 130.151543 399.365213 
L 130.151543 410.063023 
L 130.151543 418.451465 
L 130.151543 427.253377 
L 130.151543 434.218368 
L 130.151543 441.587173 
L 130.151543 447.026153 
L 130.151543 452.917133 
L 130.151543 458.370587 
L 130.151543 463.433512 
L 130.151543 468.146408 
L 130.151543 472.544361 
L 130.151543 476.657919 
L 130.151543 480.780004 
L 130.151543 484.135494 
L 130.151543 487.543694 
L 130.151543 490.756742 
L 130.151543 493.790932 
L 130.151543 496.859848 
L 130.151543 499.379327 
L 130.151543 501.958192 
L 130.151543 504.407883 
L 130.151543 506.737868 
L 130.151543 508.956713 
L 130.151543 511.072183 
L 130.151543 513.09134 
L 130.151543 515.020614 
L 130.151543 516.865876 
L 130.151543 518.632496 
L 130.151543 520.325398 
" style="fill:none;stroke:#2ca02c;stroke-linecap:square;stroke-width:1.5;"/>
   </g>
   <g id="line2d_74">
    <path clip-path="url(#p01d14ab6ca)" d="M 54.663068 308.470852 
L 54.663068 308.470852 
L 54.663068 308.470852 
L 54.663068 308.470852 
L 55.104521 308.470852 
" style="fill:none;stroke:#d62728;stroke-linecap:square;stroke-width:1.5;"/>
   </g>
   <g id="line2d_75">
    <path clip-path="url(#p01d14ab6ca)" d="M 272.299432 460.099024 
L 272.299432 460.099024 
L 272.299432 460.099024 
L 272.299432 460.099024 
L 272.299432 460.099024 
L 272.299432 460.099024 
L 272.299432 460.099024 
L 272.299432 460.099024 
L 272.299432 460.099024 
L 272.299432 460.099024 
L 272.299432 460.099024 
L 272.299432 460.099024 
L 272.299432 460.099024 
L 272.299432 460.099024 
L 272.299432 460.099024 
L 272.299432 460.099024 
L 271.416526 392.624186 
L 270.975073 387.425203 
L 269.20926 381.940321 
L 266.119089 377.743413 
L 263.911823 372.33631 
L 259.938746 369.296953 
L 257.73148 364.6607 
L 254.641309 359.153981 
L 251.551138 353.204307 
L 246.695154 348.975424 
L 242.280623 344.376618 
L 237.866092 338.751518 
L 230.802843 336.967591 
L 225.063953 333.743455 
L 218.000704 331.52337 
L 209.171643 330.651055 
L 201.666941 328.047465 
L 193.720785 325.948852 
L 184.891724 325.344938 
L 176.504116 324.601471 
L 167.675054 324.824536 
L 158.845993 323.977316 
L 149.575478 325.392844 
L 140.746417 325.762633 
L 131.917355 326.215015 
L 122.646841 326.781138 
L 115.583592 319.820203 
L 106.75453 317.298125 
L 98.366922 311.119034 
L 88.654955 311.78108 
L 78.942987 312.884489 
L 69.672473 308.470852 
L 59.960505 308.470852 
" style="fill:none;stroke:#ff7f0e;stroke-dasharray:1.5,2.475;stroke-dashoffset:0;stroke-width:1.5;"/>
   </g>
   <g id="line2d_76">
    <path clip-path="url(#p01d14ab6ca)" d="M 78.060081 308.470852 
L 77.177175 308.470852 
L 76.735722 308.470852 
L 76.294269 308.470852 
L 75.852816 308.470852 
L 74.969909 308.470852 
L 74.528456 308.470852 
L 74.528456 308.470852 
L 73.204097 308.470852 
L 73.204097 308.470852 
L 72.321191 308.470852 
L 72.321191 308.470852 
L 70.996832 308.470852 
L 70.996832 308.470852 
L 70.996832 308.470852 
L 69.672473 308.470852 
L 69.672473 308.470852 
L 69.672473 308.470852 
L 69.672473 308.470852 
L 67.465207 308.470852 
L 66.582301 308.470852 
L 66.582301 308.470852 
L 65.699395 308.470852 
L 64.816489 308.470852 
L 64.375036 308.470852 
L 63.933583 308.470852 
L 63.49213 308.470852 
L 62.609223 308.470852 
L 62.609223 308.470852 
L 61.726317 308.470852 
L 61.726317 308.470852 
L 60.401958 308.470852 
L 60.401958 308.470852 
L 60.401958 308.470852 
L 60.401958 308.470852 
L 58.194693 308.470852 
L 58.194693 308.470852 
L 58.194693 308.470852 
L 56.42888 308.470852 
L 55.987427 308.470852 
L 55.987427 308.470852 
L 55.104521 308.470852 
L 55.104521 308.470852 
" style="fill:none;stroke:#2ca02c;stroke-dasharray:1.5,2.475;stroke-dashoffset:0;stroke-width:1.5;"/>
   </g>
   <g id="line2d_77">
    <path clip-path="url(#p01d14ab6ca)" d="M 55.104521 308.470852 
L 54.663068 308.470852 
L 54.663068 308.470852 
L 54.663068 308.470852 
L 54.663068 308.470852 
" style="fill:none;stroke:#d62728;stroke-dasharray:1.5,2.475;stroke-dashoffset:0;stroke-width:1.5;"/>
   </g>
   <g id="line2d_78">
    <g clip-path="url(#p01d14ab6ca)">
     <use style="fill:#1f77b4;stroke:#1f77b4;" x="147.809666" xlink:href="#m662569c652" y="312.372192"/>
    </g>
   </g>
   <g id="line2d_79">
    <g clip-path="url(#p01d14ab6ca)">
     <use style="fill:#ff7f0e;stroke:#ff7f0e;" x="168.999413" xlink:href="#md8ca52bcc6" y="309.54576"/>
    </g>
   </g>
   <g id="line2d_80">
    <g clip-path="url(#p01d14ab6ca)">
     <use style="fill:#2ca02c;stroke:#2ca02c;" x="70.996832" xlink:href="#m590d8f2421" y="308.470852"/>
    </g>
   </g>
   <g id="line2d_81">
    <g clip-path="url(#p01d14ab6ca)">
     <use style="fill:#9467bd;stroke:#9467bd;" x="70.113926" xlink:href="#mf14f0cfd28" y="308.470852"/>
    </g>
   </g>
   <g id="patch_10">
    <path d="M 43.78125 530.918125 
L 43.78125 297.878125 
" style="fill:none;stroke:#000000;stroke-linecap:square;stroke-linejoin:miter;stroke-width:0.8;"/>
   </g>
   <g id="patch_11">
    <path d="M 43.78125 530.918125 
L 283.18125 530.918125 
" style="fill:none;stroke:#000000;stroke-linecap:square;stroke-linejoin:miter;stroke-width:0.8;"/>
   </g>
   <g id="text_49">
    <!-- 50 - 100 -->
    <g transform="translate(138.415313 291.878125)scale(0.12 -0.12)">
     <use xlink:href="#DejaVuSans-53"/>
     <use x="63.623047" xlink:href="#DejaVuSans-48"/>
     <use x="127.246094" xlink:href="#DejaVuSans-32"/>
     <use x="159.033203" xlink:href="#DejaVuSans-45"/>
     <use x="195.117188" xlink:href="#DejaVuSans-32"/>
     <use x="226.904297" xlink:href="#DejaVuSans-49"/>
     <use x="290.527344" xlink:href="#DejaVuSans-48"/>
     <use x="354.150391" xlink:href="#DejaVuSans-48"/>
    </g>
   </g>
  </g>
  <g id="axes_4">
   <g id="patch_12">
    <path d="M 319.34125 530.918125 
L 558.74125 530.918125 
L 558.74125 297.878125 
L 319.34125 297.878125 
z
" style="fill:#ffffff;"/>
   </g>
   <g id="matplotlib.axis_7">
    <g id="xtick_13">
     <g id="line2d_82">
      <g>
       <use style="stroke:#000000;stroke-width:0.8;" x="324.239938" xlink:href="#m8b34c3f41d" y="530.918125"/>
      </g>
     </g>
     <g id="text_50">
      <!-- 0.0 -->
      <g transform="translate(316.288375 545.516562)scale(0.1 -0.1)">
       <use xlink:href="#DejaVuSans-48"/>
       <use x="63.623047" xlink:href="#DejaVuSans-46"/>
       <use x="95.410156" xlink:href="#DejaVuSans-48"/>
      </g>
     </g>
    </g>
    <g id="xtick_14">
     <g id="line2d_83">
      <g>
       <use style="stroke:#000000;stroke-width:0.8;" x="388.40901" xlink:href="#m8b34c3f41d" y="530.918125"/>
      </g>
     </g>
     <g id="text_51">
      <!-- 0.2 -->
      <g transform="translate(380.457448 545.516562)scale(0.1 -0.1)">
       <use xlink:href="#DejaVuSans-48"/>
       <use x="63.623047" xlink:href="#DejaVuSans-46"/>
       <use x="95.410156" xlink:href="#DejaVuSans-50"/>
      </g>
     </g>
    </g>
    <g id="xtick_15">
     <g id="line2d_84">
      <g>
       <use style="stroke:#000000;stroke-width:0.8;" x="452.578082" xlink:href="#m8b34c3f41d" y="530.918125"/>
      </g>
     </g>
     <g id="text_52">
      <!-- 0.4 -->
      <g transform="translate(444.62652 545.516562)scale(0.1 -0.1)">
       <use xlink:href="#DejaVuSans-48"/>
       <use x="63.623047" xlink:href="#DejaVuSans-46"/>
       <use x="95.410156" xlink:href="#DejaVuSans-52"/>
      </g>
     </g>
    </g>
    <g id="xtick_16">
     <g id="line2d_85">
      <g>
       <use style="stroke:#000000;stroke-width:0.8;" x="516.747154" xlink:href="#m8b34c3f41d" y="530.918125"/>
      </g>
     </g>
     <g id="text_53">
      <!-- 0.6 -->
      <g transform="translate(508.795592 545.516562)scale(0.1 -0.1)">
       <use xlink:href="#DejaVuSans-48"/>
       <use x="63.623047" xlink:href="#DejaVuSans-46"/>
       <use x="95.410156" xlink:href="#DejaVuSans-54"/>
      </g>
     </g>
    </g>
    <g id="text_54">
     <!-- recall -->
     <g transform="translate(425.319375 559.194687)scale(0.1 -0.1)">
      <use xlink:href="#DejaVuSans-114"/>
      <use x="41.082031" xlink:href="#DejaVuSans-101"/>
      <use x="102.605469" xlink:href="#DejaVuSans-99"/>
      <use x="157.585938" xlink:href="#DejaVuSans-97"/>
      <use x="218.865234" xlink:href="#DejaVuSans-108"/>
      <use x="246.648438" xlink:href="#DejaVuSans-108"/>
     </g>
    </g>
   </g>
   <g id="matplotlib.axis_8">
    <g id="ytick_23">
     <g id="line2d_86">
      <g>
       <use style="stroke:#000000;stroke-width:0.8;" x="319.34125" xlink:href="#m86e3584628" y="512.489257"/>
      </g>
     </g>
     <g id="text_55">
      <!-- 0.3 -->
      <g transform="translate(296.438125 516.288476)scale(0.1 -0.1)">
       <use xlink:href="#DejaVuSans-48"/>
       <use x="63.623047" xlink:href="#DejaVuSans-46"/>
       <use x="95.410156" xlink:href="#DejaVuSans-51"/>
      </g>
     </g>
    </g>
    <g id="ytick_24">
     <g id="line2d_87">
      <g>
       <use style="stroke:#000000;stroke-width:0.8;" x="319.34125" xlink:href="#m86e3584628" y="483.343771"/>
      </g>
     </g>
     <g id="text_56">
      <!-- 0.4 -->
      <g transform="translate(296.438125 487.14299)scale(0.1 -0.1)">
       <use xlink:href="#DejaVuSans-48"/>
       <use x="63.623047" xlink:href="#DejaVuSans-46"/>
       <use x="95.410156" xlink:href="#DejaVuSans-52"/>
      </g>
     </g>
    </g>
    <g id="ytick_25">
     <g id="line2d_88">
      <g>
       <use style="stroke:#000000;stroke-width:0.8;" x="319.34125" xlink:href="#m86e3584628" y="454.198284"/>
      </g>
     </g>
     <g id="text_57">
      <!-- 0.5 -->
      <g transform="translate(296.438125 457.997503)scale(0.1 -0.1)">
       <use xlink:href="#DejaVuSans-48"/>
       <use x="63.623047" xlink:href="#DejaVuSans-46"/>
       <use x="95.410156" xlink:href="#DejaVuSans-53"/>
      </g>
     </g>
    </g>
    <g id="ytick_26">
     <g id="line2d_89">
      <g>
       <use style="stroke:#000000;stroke-width:0.8;" x="319.34125" xlink:href="#m86e3584628" y="425.052798"/>
      </g>
     </g>
     <g id="text_58">
      <!-- 0.6 -->
      <g transform="translate(296.438125 428.852017)scale(0.1 -0.1)">
       <use xlink:href="#DejaVuSans-48"/>
       <use x="63.623047" xlink:href="#DejaVuSans-46"/>
       <use x="95.410156" xlink:href="#DejaVuSans-54"/>
      </g>
     </g>
    </g>
    <g id="ytick_27">
     <g id="line2d_90">
      <g>
       <use style="stroke:#000000;stroke-width:0.8;" x="319.34125" xlink:href="#m86e3584628" y="395.907312"/>
      </g>
     </g>
     <g id="text_59">
      <!-- 0.7 -->
      <g transform="translate(296.438125 399.70653)scale(0.1 -0.1)">
       <use xlink:href="#DejaVuSans-48"/>
       <use x="63.623047" xlink:href="#DejaVuSans-46"/>
       <use x="95.410156" xlink:href="#DejaVuSans-55"/>
      </g>
     </g>
    </g>
    <g id="ytick_28">
     <g id="line2d_91">
      <g>
       <use style="stroke:#000000;stroke-width:0.8;" x="319.34125" xlink:href="#m86e3584628" y="366.761825"/>
      </g>
     </g>
     <g id="text_60">
      <!-- 0.8 -->
      <g transform="translate(296.438125 370.561044)scale(0.1 -0.1)">
       <use xlink:href="#DejaVuSans-48"/>
       <use x="63.623047" xlink:href="#DejaVuSans-46"/>
       <use x="95.410156" xlink:href="#DejaVuSans-56"/>
      </g>
     </g>
    </g>
    <g id="ytick_29">
     <g id="line2d_92">
      <g>
       <use style="stroke:#000000;stroke-width:0.8;" x="319.34125" xlink:href="#m86e3584628" y="337.616339"/>
      </g>
     </g>
     <g id="text_61">
      <!-- 0.9 -->
      <g transform="translate(296.438125 341.415557)scale(0.1 -0.1)">
       <use xlink:href="#DejaVuSans-48"/>
       <use x="63.623047" xlink:href="#DejaVuSans-46"/>
       <use x="95.410156" xlink:href="#DejaVuSans-57"/>
      </g>
     </g>
    </g>
    <g id="ytick_30">
     <g id="line2d_93">
      <g>
       <use style="stroke:#000000;stroke-width:0.8;" x="319.34125" xlink:href="#m86e3584628" y="308.470852"/>
      </g>
     </g>
     <g id="text_62">
      <!-- 1.0 -->
      <g transform="translate(296.438125 312.270071)scale(0.1 -0.1)">
       <use xlink:href="#DejaVuSans-49"/>
       <use x="63.623047" xlink:href="#DejaVuSans-46"/>
       <use x="95.410156" xlink:href="#DejaVuSans-48"/>
      </g>
     </g>
    </g>
   </g>
   <g id="line2d_94">
    <path clip-path="url(#p4c8a934b4a)" d="M 339.197764 308.470852 
L 354.155589 308.470852 
L 368.365524 308.470852 
L 383.323349 308.470852 
L 397.533284 308.470852 
L 412.491109 308.470852 
L 427.448935 308.470852 
L 441.658869 308.470852 
L 456.616695 308.470852 
L 470.82663 308.470852 
L 483.540781 312.518837 
L 491.767586 323.290591 
L 502.985955 326.758216 
L 508.221194 339.206093 
L 513.456433 349.115918 
L 514.204324 364.162865 
L 514.204324 378.280401 
L 514.204324 390.210319 
L 514.204324 401.455112 
L 514.204324 411.074861 
L 514.204324 420.242378 
L 514.204324 428.561051 
L 514.204324 435.780405 
L 514.204324 442.750482 
L 514.204324 448.845032 
L 514.204324 454.769765 
L 514.204324 459.983305 
L 514.204324 465.08139 
L 514.204324 469.821085 
L 514.204324 474.025146 
L 514.204324 478.166612 
L 514.204324 481.856282 
L 514.204324 485.506033 
L 514.204324 488.936908 
L 514.204324 492.010942 
L 514.204324 495.068018 
L 514.204324 497.816012 
L 514.204324 500.557213 
L 514.204324 503.155082 
L 516.447998 504.385028 
L 516.447998 506.761662 
L 516.447998 508.912472 
L 516.447998 511.071743 
L 516.447998 513.130931 
L 516.447998 515.00066 
L 516.447998 516.883699 
L 516.447998 518.596835 
L 516.447998 520.325398 
" style="fill:none;stroke:#1f77b4;stroke-linecap:square;stroke-width:1.5;"/>
   </g>
   <g id="line2d_95">
    <path clip-path="url(#p4c8a934b4a)" d="M 333.962525 308.470852 
L 343.685111 308.470852 
L 353.407698 308.470852 
L 363.130285 308.470852 
L 372.852871 308.470852 
L 382.575458 308.470852 
L 392.298045 308.470852 
L 400.524849 308.470852 
L 410.247436 308.470852 
L 418.47424 308.470852 
L 428.196826 308.470852 
L 437.171522 308.470852 
L 446.894108 308.470852 
L 455.120913 308.470852 
L 464.843499 308.470852 
L 473.818195 308.470852 
L 482.79289 308.470852 
L 489.523912 308.470852 
L 499.246498 308.470852 
L 508.969085 308.470852 
L 517.94378 309.530688 
L 527.666367 309.482848 
L 536.641063 310.407429 
L 540.380519 317.752854 
L 544.867867 323.62294 
L 544.867867 334.187458 
L 544.867867 343.973853 
L 544.867867 353.065039 
L 545.615758 360.763546 
L 545.615758 368.694944 
L 545.615758 376.117166 
L 545.615758 383.077719 
L 545.615758 390.105201 
L 546.363649 395.579834 
L 547.859432 400.107316 
L 547.859432 405.622474 
L 547.859432 410.841363 
L 547.859432 415.787231 
L 547.859432 420.480957 
L 547.859432 424.941343 
L 547.859432 429.185367 
L 547.859432 433.228399 
L 547.859432 437.084387 
L 547.859432 440.766017 
L 547.859432 444.284854 
L 547.859432 447.651461 
L 547.859432 450.875509 
L 547.859432 453.965864 
" style="fill:none;stroke:#ff7f0e;stroke-linecap:square;stroke-width:1.5;"/>
   </g>
   <g id="line2d_96">
    <path clip-path="url(#p4c8a934b4a)" d="M 330.223068 308.470852 
L 336.206198 308.470852 
L 343.685111 308.470852 
L 349.668242 308.470852 
L 355.651372 308.470852 
L 362.382393 308.470852 
L 368.365524 308.470852 
L 373.600763 308.470852 
L 379.583893 308.470852 
L 386.314914 308.470852 
L 392.298045 308.470852 
L 397.533284 308.470852 
L 402.020631 308.470852 
L 406.507979 310.099092 
L 411.743218 319.096811 
L 413.986892 331.218549 
L 413.986892 343.716557 
L 414.734783 360.200936 
L 414.734783 373.899495 
L 414.734783 383.61156 
L 414.734783 392.20975 
L 414.734783 401.819385 
L 415.482675 409.587846 
L 415.482675 417.647756 
L 415.482675 424.504607 
L 416.230566 430.129189 
L 416.230566 436.035155 
L 416.230566 441.986488 
L 416.230566 447.108842 
L 416.230566 452.295838 
L 416.230566 457.142273 
L 416.230566 461.680622 
L 416.230566 465.939357 
L 416.230566 469.644049 
L 416.230566 473.433001 
L 416.230566 477.007796 
L 416.230566 480.132828 
L 416.230566 483.343771 
L 416.230566 486.387075 
L 416.230566 489.275533 
L 416.230566 491.814352 
L 416.230566 494.436456 
L 416.230566 496.93438 
L 416.230566 499.316742 
L 416.230566 501.420066 
L 416.230566 503.601622 
L 416.230566 505.845444 
L 416.230566 507.837372 
" style="fill:none;stroke:#2ca02c;stroke-linecap:square;stroke-width:1.5;"/>
   </g>
   <g id="line2d_97">
    <path clip-path="url(#p4c8a934b4a)" d="M 547.859432 457.153755 
L 547.859432 457.153755 
L 547.859432 457.153755 
L 547.859432 457.153755 
L 547.859432 457.153755 
L 547.859432 457.153755 
L 547.859432 457.153755 
L 547.859432 457.153755 
L 547.859432 457.153755 
L 547.859432 457.153755 
L 547.859432 457.153755 
L 547.859432 457.153755 
L 547.859432 457.153755 
L 547.859432 457.153755 
L 545.615758 403.925502 
L 543.372084 401.474427 
L 539.632628 400.899825 
L 536.641063 397.022928 
L 535.14528 392.668924 
L 532.153715 388.769641 
L 524.674802 389.216923 
L 522.431128 384.91803 
L 517.94378 381.953807 
L 515.700107 377.905688 
L 508.969085 377.100897 
L 500.742281 379.014068 
L 494.759151 377.219342 
L 486.532347 378.29858 
L 478.305542 380.539691 
L 470.078738 381.89078 
L 461.104043 384.553447 
L 455.120913 382.569547 
L 447.642 382.968284 
L 441.658869 379.591417 
L 434.927848 378.360539 
L 427.448935 378.547432 
L 418.47424 382.191789 
L 410.247436 384.583269 
L 402.020631 387.406545 
L 394.541719 388.565319 
L 386.314914 392.449373 
L 380.331784 388.96791 
L 373.600763 387.670544 
L 366.869741 385.946196 
L 360.886611 379.126577 
L 357.147154 357.963188 
L 351.911915 330.329967 
L 344.433003 308.470852 
L 334.710416 308.470852 
" style="fill:none;stroke:#ff7f0e;stroke-dasharray:1.5,2.475;stroke-dashoffset:0;stroke-width:1.5;"/>
   </g>
   <g id="line2d_98">
    <path clip-path="url(#p4c8a934b4a)" d="M 357.147154 308.470852 
L 356.399263 308.470852 
L 355.651372 308.470852 
L 354.903481 308.470852 
L 354.903481 308.470852 
L 354.903481 308.470852 
L 352.659807 308.470852 
L 351.911915 308.470852 
L 351.911915 308.470852 
L 351.911915 308.470852 
L 350.416133 308.470852 
L 349.668242 308.470852 
L 348.92035 308.470852 
L 348.92035 308.470852 
L 348.92035 308.470852 
L 346.676676 308.470852 
L 346.676676 308.470852 
L 346.676676 308.470852 
L 345.180894 308.470852 
L 344.433003 308.470852 
L 343.685111 308.470852 
L 343.685111 308.470852 
L 342.189329 308.470852 
L 341.441437 308.470852 
L 340.693546 308.470852 
L 340.693546 308.470852 
L 340.693546 308.470852 
L 340.693546 308.470852 
L 338.449872 308.470852 
L 337.701981 308.470852 
L 336.95409 308.470852 
L 336.206198 308.470852 
L 335.458307 308.470852 
L 335.458307 308.470852 
L 334.710416 308.470852 
L 333.962525 308.470852 
L 333.962525 308.470852 
L 332.466742 308.470852 
L 331.718851 308.470852 
" style="fill:none;stroke:#2ca02c;stroke-dasharray:1.5,2.475;stroke-dashoffset:0;stroke-width:1.5;"/>
   </g>
   <g id="line2d_99">
    <g clip-path="url(#p4c8a934b4a)">
     <use style="fill:#1f77b4;stroke:#1f77b4;" x="431.936283" xlink:href="#m662569c652" y="323.810582"/>
    </g>
   </g>
   <g id="line2d_100">
    <g clip-path="url(#p4c8a934b4a)">
     <use style="fill:#ff7f0e;stroke:#ff7f0e;" x="451.381456" xlink:href="#md8ca52bcc6" y="311.820908"/>
    </g>
   </g>
   <g id="line2d_101">
    <g clip-path="url(#p4c8a934b4a)">
     <use style="fill:#2ca02c;stroke:#2ca02c;" x="345.180894" xlink:href="#m590d8f2421" y="308.470852"/>
    </g>
   </g>
   <g id="line2d_102">
    <g clip-path="url(#p4c8a934b4a)">
     <use style="fill:#9467bd;stroke:#9467bd;" x="342.93722" xlink:href="#mf14f0cfd28" y="308.470852"/>
    </g>
   </g>
   <g id="patch_13">
    <path d="M 319.34125 530.918125 
L 319.34125 297.878125 
" style="fill:none;stroke:#000000;stroke-linecap:square;stroke-linejoin:miter;stroke-width:0.8;"/>
   </g>
   <g id="patch_14">
    <path d="M 319.34125 530.918125 
L 558.74125 530.918125 
" style="fill:none;stroke:#000000;stroke-linecap:square;stroke-linejoin:miter;stroke-width:0.8;"/>
   </g>
   <g id="text_63">
    <!-- 100 - 250 -->
    <g transform="translate(410.157813 291.878125)scale(0.12 -0.12)">
     <use xlink:href="#DejaVuSans-49"/>
     <use x="63.623047" xlink:href="#DejaVuSans-48"/>
     <use x="127.246094" xlink:href="#DejaVuSans-48"/>
     <use x="190.869141" xlink:href="#DejaVuSans-32"/>
     <use x="222.65625" xlink:href="#DejaVuSans-45"/>
     <use x="258.740234" xlink:href="#DejaVuSans-32"/>
     <use x="290.527344" xlink:href="#DejaVuSans-50"/>
     <use x="354.150391" xlink:href="#DejaVuSans-53"/>
     <use x="417.773438" xlink:href="#DejaVuSans-48"/>
    </g>
   </g>
  </g>
 </g>
 <defs>
  <clipPath id="pcf19784b1e">
   <rect height="233.04" width="239.4" x="43.78125" y="22.318125"/>
  </clipPath>
  <clipPath id="p4ce7b3efae">
   <rect height="233.04" width="239.4" x="319.34125" y="22.318125"/>
  </clipPath>
  <clipPath id="p01d14ab6ca">
   <rect height="233.04" width="239.4" x="43.78125" y="297.878125"/>
  </clipPath>
  <clipPath id="p4c8a934b4a">
   <rect height="233.04" width="239.4" x="319.34125" y="297.878125"/>
  </clipPath>
 </defs>
</svg>
