<?xml version="1.0" encoding="utf-8" standalone="no"?>
<!DOCTYPE svg PUBLIC "-//W3C//DTD SVG 1.1//EN"
  "http://www.w3.org/Graphics/SVG/1.1/DTD/svg11.dtd">
<!-- Created with matplotlib (https://matplotlib.org/) -->
<svg height="568.474375pt" version="1.1" viewBox="0 0 857.44125 568.474375" width="857.44125pt" xmlns="http://www.w3.org/2000/svg" xmlns:xlink="http://www.w3.org/1999/xlink">
 <defs>
  <style type="text/css">
*{stroke-linecap:butt;stroke-linejoin:round;}
  </style>
 </defs>
 <g id="figure_1">
  <g id="patch_1">
   <path d="M 0 568.474375 
L 857.44125 568.474375 
L 857.44125 0 
L 0 0 
z
" style="fill:#ffffff;"/>
  </g>
  <g id="axes_1">
   <g id="patch_2">
    <path d="M 43.78125 255.358125 
L 287.327917 255.358125 
L 287.327917 22.318125 
L 43.78125 22.318125 
z
" style="fill:#ffffff;"/>
   </g>
   <g id="PolyCollection_1">
    <defs>
     <path d="M 54.851553 -323.877198 
L 54.851553 -323.827921 
L 64.477888 -324.031787 
L 74.104247 -324.148105 
L 83.730675 -324.412504 
L 102.983299 -325.306425 
L 122.235924 -325.610663 
L 199.246884 -327.034646 
L 276.257614 -327.061113 
L 276.257614 -327.544985 
L 276.257614 -327.544985 
L 199.246884 -327.340183 
L 122.235924 -325.753331 
L 102.983299 -325.425377 
L 83.730675 -324.486356 
L 74.104247 -324.209681 
L 64.477888 -324.088644 
L 54.851553 -323.877198 
z
" id="m2cfc688ec3" style="stroke:#1f77b4;stroke-opacity:0.6;"/>
    </defs>
    <g clip-path="url(#p97081bf0d7)">
     <use style="fill:#1f77b4;fill-opacity:0.6;stroke:#1f77b4;stroke-opacity:0.6;" x="0" xlink:href="#m2cfc688ec3" y="568.474375"/>
    </g>
   </g>
   <g id="PolyCollection_2">
    <defs>
     <path d="M 54.851553 -474.990717 
L 54.851553 -473.196358 
L 64.477888 -491.02924 
L 74.104247 -497.682489 
L 83.730675 -506.196957 
L 102.983299 -520.507439 
L 122.235924 -522.253468 
L 199.246884 -523.278397 
L 276.257614 -517.274032 
L 276.257614 -530.797002 
L 276.257614 -530.797002 
L 199.246884 -530.853163 
L 122.235924 -526.181942 
L 102.983299 -523.999544 
L 83.730675 -508.68248 
L 74.104247 -499.871628 
L 64.477888 -493.076076 
L 54.851553 -474.990717 
z
" id="m56d2a03a91" style="stroke:#ff7f0e;stroke-opacity:0.6;"/>
    </defs>
    <g clip-path="url(#p97081bf0d7)">
     <use style="fill:#ff7f0e;fill-opacity:0.6;stroke:#ff7f0e;stroke-opacity:0.6;" x="0" xlink:href="#m56d2a03a91" y="568.474375"/>
    </g>
   </g>
   <g id="PolyCollection_3">
    <defs>
     <path d="M 54.851553 -329.431893 
L 54.851553 -329.214395 
L 64.477888 -330.197781 
L 74.104247 -330.717645 
L 83.730675 -331.785034 
L 102.983299 -334.652691 
L 122.235924 -335.607636 
L 199.246884 -339.561655 
L 276.257614 -339.641804 
L 276.257614 -341.348092 
L 276.257614 -341.348092 
L 199.246884 -340.605573 
L 122.235924 -336.132452 
L 102.983299 -335.124252 
L 83.730675 -332.093178 
L 74.104247 -330.98943 
L 64.477888 -330.448734 
L 54.851553 -329.431893 
z
" id="m6ed0166285" style="stroke:#2ca02c;stroke-opacity:0.6;"/>
    </defs>
    <g clip-path="url(#p97081bf0d7)">
     <use style="fill:#2ca02c;fill-opacity:0.6;stroke:#2ca02c;stroke-opacity:0.6;" x="0" xlink:href="#m6ed0166285" y="568.474375"/>
    </g>
   </g>
   <g id="PolyCollection_4">
    <defs>
     <path d="M 54.851553 -459.981657 
L 54.851553 -457.772693 
L 64.477888 -477.31113 
L 74.104247 -486.405557 
L 83.730675 -499.975509 
L 102.983299 -524.076014 
L 122.235924 -526.47747 
L 199.246884 -526.091881 
L 276.257614 -519.667929 
L 276.257614 -534.922654 
L 276.257614 -534.922654 
L 199.246884 -535.194332 
L 122.235924 -531.521814 
L 102.983299 -528.604705 
L 83.730675 -503.133346 
L 74.104247 -489.138265 
L 64.477888 -479.850069 
L 54.851553 -459.981657 
z
" id="m82addea858" style="stroke:#d62728;stroke-opacity:0.6;"/>
    </defs>
    <g clip-path="url(#p97081bf0d7)">
     <use style="fill:#d62728;fill-opacity:0.6;stroke:#d62728;stroke-opacity:0.6;" x="0" xlink:href="#m82addea858" y="568.474375"/>
    </g>
   </g>
   <g id="matplotlib.axis_1">
    <g id="xtick_1">
     <g id="line2d_1">
      <defs>
       <path d="M 0 0 
L 0 3.5 
" id="mbd5eff3b70" style="stroke:#000000;stroke-width:0.8;"/>
      </defs>
      <g>
       <use style="stroke:#000000;stroke-width:0.8;" x="45.225195" xlink:href="#mbd5eff3b70" y="255.358125"/>
      </g>
     </g>
     <g id="text_1">
      <!-- 0.0 -->
      <defs>
       <path d="M 31.78125 66.40625 
Q 24.171875 66.40625 20.328125 58.90625 
Q 16.5 51.421875 16.5 36.375 
Q 16.5 21.390625 20.328125 13.890625 
Q 24.171875 6.390625 31.78125 6.390625 
Q 39.453125 6.390625 43.28125 13.890625 
Q 47.125 21.390625 47.125 36.375 
Q 47.125 51.421875 43.28125 58.90625 
Q 39.453125 66.40625 31.78125 66.40625 
z
M 31.78125 74.21875 
Q 44.046875 74.21875 50.515625 64.515625 
Q 56.984375 54.828125 56.984375 36.375 
Q 56.984375 17.96875 50.515625 8.265625 
Q 44.046875 -1.421875 31.78125 -1.421875 
Q 19.53125 -1.421875 13.0625 8.265625 
Q 6.59375 17.96875 6.59375 36.375 
Q 6.59375 54.828125 13.0625 64.515625 
Q 19.53125 74.21875 31.78125 74.21875 
z
" id="DejaVuSans-48"/>
       <path d="M 10.6875 12.40625 
L 21 12.40625 
L 21 0 
L 10.6875 0 
z
" id="DejaVuSans-46"/>
      </defs>
      <g transform="translate(37.273632 269.956562)scale(0.1 -0.1)">
       <use xlink:href="#DejaVuSans-48"/>
       <use x="63.623047" xlink:href="#DejaVuSans-46"/>
       <use x="95.410156" xlink:href="#DejaVuSans-48"/>
      </g>
     </g>
    </g>
    <g id="xtick_2">
     <g id="line2d_2">
      <g>
       <use style="stroke:#000000;stroke-width:0.8;" x="91.431678" xlink:href="#mbd5eff3b70" y="255.358125"/>
      </g>
     </g>
     <g id="text_2">
      <!-- 0.2 -->
      <defs>
       <path d="M 19.1875 8.296875 
L 53.609375 8.296875 
L 53.609375 0 
L 7.328125 0 
L 7.328125 8.296875 
Q 12.9375 14.109375 22.625 23.890625 
Q 32.328125 33.6875 34.8125 36.53125 
Q 39.546875 41.84375 41.421875 45.53125 
Q 43.3125 49.21875 43.3125 52.78125 
Q 43.3125 58.59375 39.234375 62.25 
Q 35.15625 65.921875 28.609375 65.921875 
Q 23.96875 65.921875 18.8125 64.3125 
Q 13.671875 62.703125 7.8125 59.421875 
L 7.8125 69.390625 
Q 13.765625 71.78125 18.9375 73 
Q 24.125 74.21875 28.421875 74.21875 
Q 39.75 74.21875 46.484375 68.546875 
Q 53.21875 62.890625 53.21875 53.421875 
Q 53.21875 48.921875 51.53125 44.890625 
Q 49.859375 40.875 45.40625 35.40625 
Q 44.1875 33.984375 37.640625 27.21875 
Q 31.109375 20.453125 19.1875 8.296875 
z
" id="DejaVuSans-50"/>
      </defs>
      <g transform="translate(83.480116 269.956562)scale(0.1 -0.1)">
       <use xlink:href="#DejaVuSans-48"/>
       <use x="63.623047" xlink:href="#DejaVuSans-46"/>
       <use x="95.410156" xlink:href="#DejaVuSans-50"/>
      </g>
     </g>
    </g>
    <g id="xtick_3">
     <g id="line2d_3">
      <g>
       <use style="stroke:#000000;stroke-width:0.8;" x="137.638162" xlink:href="#mbd5eff3b70" y="255.358125"/>
      </g>
     </g>
     <g id="text_3">
      <!-- 0.4 -->
      <defs>
       <path d="M 37.796875 64.3125 
L 12.890625 25.390625 
L 37.796875 25.390625 
z
M 35.203125 72.90625 
L 47.609375 72.90625 
L 47.609375 25.390625 
L 58.015625 25.390625 
L 58.015625 17.1875 
L 47.609375 17.1875 
L 47.609375 0 
L 37.796875 0 
L 37.796875 17.1875 
L 4.890625 17.1875 
L 4.890625 26.703125 
z
" id="DejaVuSans-52"/>
      </defs>
      <g transform="translate(129.6866 269.956562)scale(0.1 -0.1)">
       <use xlink:href="#DejaVuSans-48"/>
       <use x="63.623047" xlink:href="#DejaVuSans-46"/>
       <use x="95.410156" xlink:href="#DejaVuSans-52"/>
      </g>
     </g>
    </g>
    <g id="xtick_4">
     <g id="line2d_4">
      <g>
       <use style="stroke:#000000;stroke-width:0.8;" x="183.844646" xlink:href="#mbd5eff3b70" y="255.358125"/>
      </g>
     </g>
     <g id="text_4">
      <!-- 0.6 -->
      <defs>
       <path d="M 33.015625 40.375 
Q 26.375 40.375 22.484375 35.828125 
Q 18.609375 31.296875 18.609375 23.390625 
Q 18.609375 15.53125 22.484375 10.953125 
Q 26.375 6.390625 33.015625 6.390625 
Q 39.65625 6.390625 43.53125 10.953125 
Q 47.40625 15.53125 47.40625 23.390625 
Q 47.40625 31.296875 43.53125 35.828125 
Q 39.65625 40.375 33.015625 40.375 
z
M 52.59375 71.296875 
L 52.59375 62.3125 
Q 48.875 64.0625 45.09375 64.984375 
Q 41.3125 65.921875 37.59375 65.921875 
Q 27.828125 65.921875 22.671875 59.328125 
Q 17.53125 52.734375 16.796875 39.40625 
Q 19.671875 43.65625 24.015625 45.921875 
Q 28.375 48.1875 33.59375 48.1875 
Q 44.578125 48.1875 50.953125 41.515625 
Q 57.328125 34.859375 57.328125 23.390625 
Q 57.328125 12.15625 50.6875 5.359375 
Q 44.046875 -1.421875 33.015625 -1.421875 
Q 20.359375 -1.421875 13.671875 8.265625 
Q 6.984375 17.96875 6.984375 36.375 
Q 6.984375 53.65625 15.1875 63.9375 
Q 23.390625 74.21875 37.203125 74.21875 
Q 40.921875 74.21875 44.703125 73.484375 
Q 48.484375 72.75 52.59375 71.296875 
z
" id="DejaVuSans-54"/>
      </defs>
      <g transform="translate(175.893083 269.956562)scale(0.1 -0.1)">
       <use xlink:href="#DejaVuSans-48"/>
       <use x="63.623047" xlink:href="#DejaVuSans-46"/>
       <use x="95.410156" xlink:href="#DejaVuSans-54"/>
      </g>
     </g>
    </g>
    <g id="xtick_5">
     <g id="line2d_5">
      <g>
       <use style="stroke:#000000;stroke-width:0.8;" x="230.05113" xlink:href="#mbd5eff3b70" y="255.358125"/>
      </g>
     </g>
     <g id="text_5">
      <!-- 0.8 -->
      <defs>
       <path d="M 31.78125 34.625 
Q 24.75 34.625 20.71875 30.859375 
Q 16.703125 27.09375 16.703125 20.515625 
Q 16.703125 13.921875 20.71875 10.15625 
Q 24.75 6.390625 31.78125 6.390625 
Q 38.8125 6.390625 42.859375 10.171875 
Q 46.921875 13.96875 46.921875 20.515625 
Q 46.921875 27.09375 42.890625 30.859375 
Q 38.875 34.625 31.78125 34.625 
z
M 21.921875 38.8125 
Q 15.578125 40.375 12.03125 44.71875 
Q 8.5 49.078125 8.5 55.328125 
Q 8.5 64.0625 14.71875 69.140625 
Q 20.953125 74.21875 31.78125 74.21875 
Q 42.671875 74.21875 48.875 69.140625 
Q 55.078125 64.0625 55.078125 55.328125 
Q 55.078125 49.078125 51.53125 44.71875 
Q 48 40.375 41.703125 38.8125 
Q 48.828125 37.15625 52.796875 32.3125 
Q 56.78125 27.484375 56.78125 20.515625 
Q 56.78125 9.90625 50.3125 4.234375 
Q 43.84375 -1.421875 31.78125 -1.421875 
Q 19.734375 -1.421875 13.25 4.234375 
Q 6.78125 9.90625 6.78125 20.515625 
Q 6.78125 27.484375 10.78125 32.3125 
Q 14.796875 37.15625 21.921875 38.8125 
z
M 18.3125 54.390625 
Q 18.3125 48.734375 21.84375 45.5625 
Q 25.390625 42.390625 31.78125 42.390625 
Q 38.140625 42.390625 41.71875 45.5625 
Q 45.3125 48.734375 45.3125 54.390625 
Q 45.3125 60.0625 41.71875 63.234375 
Q 38.140625 66.40625 31.78125 66.40625 
Q 25.390625 66.40625 21.84375 63.234375 
Q 18.3125 60.0625 18.3125 54.390625 
z
" id="DejaVuSans-56"/>
      </defs>
      <g transform="translate(222.099567 269.956562)scale(0.1 -0.1)">
       <use xlink:href="#DejaVuSans-48"/>
       <use x="63.623047" xlink:href="#DejaVuSans-46"/>
       <use x="95.410156" xlink:href="#DejaVuSans-56"/>
      </g>
     </g>
    </g>
    <g id="xtick_6">
     <g id="line2d_6">
      <g>
       <use style="stroke:#000000;stroke-width:0.8;" x="276.257614" xlink:href="#mbd5eff3b70" y="255.358125"/>
      </g>
     </g>
     <g id="text_6">
      <!-- 1.0 -->
      <defs>
       <path d="M 12.40625 8.296875 
L 28.515625 8.296875 
L 28.515625 63.921875 
L 10.984375 60.40625 
L 10.984375 69.390625 
L 28.421875 72.90625 
L 38.28125 72.90625 
L 38.28125 8.296875 
L 54.390625 8.296875 
L 54.390625 0 
L 12.40625 0 
z
" id="DejaVuSans-49"/>
      </defs>
      <g transform="translate(268.306051 269.956562)scale(0.1 -0.1)">
       <use xlink:href="#DejaVuSans-49"/>
       <use x="63.623047" xlink:href="#DejaVuSans-46"/>
       <use x="95.410156" xlink:href="#DejaVuSans-48"/>
      </g>
     </g>
    </g>
   </g>
   <g id="matplotlib.axis_2">
    <g id="ytick_1">
     <g id="line2d_7">
      <defs>
       <path d="M 0 0 
L -3.5 0 
" id="m6aade8c164" style="stroke:#000000;stroke-width:0.8;"/>
      </defs>
      <g>
       <use style="stroke:#000000;stroke-width:0.8;" x="43.78125" xlink:href="#m6aade8c164" y="245.99732"/>
      </g>
     </g>
     <g id="text_7">
      <!-- 0.0 -->
      <g transform="translate(20.878125 249.796539)scale(0.1 -0.1)">
       <use xlink:href="#DejaVuSans-48"/>
       <use x="63.623047" xlink:href="#DejaVuSans-46"/>
       <use x="95.410156" xlink:href="#DejaVuSans-48"/>
      </g>
     </g>
    </g>
    <g id="ytick_2">
     <g id="line2d_8">
      <g>
       <use style="stroke:#000000;stroke-width:0.8;" x="43.78125" xlink:href="#m6aade8c164" y="199.555724"/>
      </g>
     </g>
     <g id="text_8">
      <!-- 0.2 -->
      <g transform="translate(20.878125 203.354943)scale(0.1 -0.1)">
       <use xlink:href="#DejaVuSans-48"/>
       <use x="63.623047" xlink:href="#DejaVuSans-46"/>
       <use x="95.410156" xlink:href="#DejaVuSans-50"/>
      </g>
     </g>
    </g>
    <g id="ytick_3">
     <g id="line2d_9">
      <g>
       <use style="stroke:#000000;stroke-width:0.8;" x="43.78125" xlink:href="#m6aade8c164" y="153.114128"/>
      </g>
     </g>
     <g id="text_9">
      <!-- 0.4 -->
      <g transform="translate(20.878125 156.913347)scale(0.1 -0.1)">
       <use xlink:href="#DejaVuSans-48"/>
       <use x="63.623047" xlink:href="#DejaVuSans-46"/>
       <use x="95.410156" xlink:href="#DejaVuSans-52"/>
      </g>
     </g>
    </g>
    <g id="ytick_4">
     <g id="line2d_10">
      <g>
       <use style="stroke:#000000;stroke-width:0.8;" x="43.78125" xlink:href="#m6aade8c164" y="106.672532"/>
      </g>
     </g>
     <g id="text_10">
      <!-- 0.6 -->
      <g transform="translate(20.878125 110.471751)scale(0.1 -0.1)">
       <use xlink:href="#DejaVuSans-48"/>
       <use x="63.623047" xlink:href="#DejaVuSans-46"/>
       <use x="95.410156" xlink:href="#DejaVuSans-54"/>
      </g>
     </g>
    </g>
    <g id="ytick_5">
     <g id="line2d_11">
      <g>
       <use style="stroke:#000000;stroke-width:0.8;" x="43.78125" xlink:href="#m6aade8c164" y="60.230936"/>
      </g>
     </g>
     <g id="text_11">
      <!-- 0.8 -->
      <g transform="translate(20.878125 64.030155)scale(0.1 -0.1)">
       <use xlink:href="#DejaVuSans-48"/>
       <use x="63.623047" xlink:href="#DejaVuSans-46"/>
       <use x="95.410156" xlink:href="#DejaVuSans-56"/>
      </g>
     </g>
    </g>
    <g id="text_12">
     <!-- recall -->
     <defs>
      <path d="M 41.109375 46.296875 
Q 39.59375 47.171875 37.8125 47.578125 
Q 36.03125 48 33.890625 48 
Q 26.265625 48 22.1875 43.046875 
Q 18.109375 38.09375 18.109375 28.8125 
L 18.109375 0 
L 9.078125 0 
L 9.078125 54.6875 
L 18.109375 54.6875 
L 18.109375 46.1875 
Q 20.953125 51.171875 25.484375 53.578125 
Q 30.03125 56 36.53125 56 
Q 37.453125 56 38.578125 55.875 
Q 39.703125 55.765625 41.0625 55.515625 
z
" id="DejaVuSans-114"/>
      <path d="M 56.203125 29.59375 
L 56.203125 25.203125 
L 14.890625 25.203125 
Q 15.484375 15.921875 20.484375 11.0625 
Q 25.484375 6.203125 34.421875 6.203125 
Q 39.59375 6.203125 44.453125 7.46875 
Q 49.3125 8.734375 54.109375 11.28125 
L 54.109375 2.78125 
Q 49.265625 0.734375 44.1875 -0.34375 
Q 39.109375 -1.421875 33.890625 -1.421875 
Q 20.796875 -1.421875 13.15625 6.1875 
Q 5.515625 13.8125 5.515625 26.8125 
Q 5.515625 40.234375 12.765625 48.109375 
Q 20.015625 56 32.328125 56 
Q 43.359375 56 49.78125 48.890625 
Q 56.203125 41.796875 56.203125 29.59375 
z
M 47.21875 32.234375 
Q 47.125 39.59375 43.09375 43.984375 
Q 39.0625 48.390625 32.421875 48.390625 
Q 24.90625 48.390625 20.390625 44.140625 
Q 15.875 39.890625 15.1875 32.171875 
z
" id="DejaVuSans-101"/>
      <path d="M 48.78125 52.59375 
L 48.78125 44.1875 
Q 44.96875 46.296875 41.140625 47.34375 
Q 37.3125 48.390625 33.40625 48.390625 
Q 24.65625 48.390625 19.8125 42.84375 
Q 14.984375 37.3125 14.984375 27.296875 
Q 14.984375 17.28125 19.8125 11.734375 
Q 24.65625 6.203125 33.40625 6.203125 
Q 37.3125 6.203125 41.140625 7.25 
Q 44.96875 8.296875 48.78125 10.40625 
L 48.78125 2.09375 
Q 45.015625 0.34375 40.984375 -0.53125 
Q 36.96875 -1.421875 32.421875 -1.421875 
Q 20.0625 -1.421875 12.78125 6.34375 
Q 5.515625 14.109375 5.515625 27.296875 
Q 5.515625 40.671875 12.859375 48.328125 
Q 20.21875 56 33.015625 56 
Q 37.15625 56 41.109375 55.140625 
Q 45.0625 54.296875 48.78125 52.59375 
z
" id="DejaVuSans-99"/>
      <path d="M 34.28125 27.484375 
Q 23.390625 27.484375 19.1875 25 
Q 14.984375 22.515625 14.984375 16.5 
Q 14.984375 11.71875 18.140625 8.90625 
Q 21.296875 6.109375 26.703125 6.109375 
Q 34.1875 6.109375 38.703125 11.40625 
Q 43.21875 16.703125 43.21875 25.484375 
L 43.21875 27.484375 
z
M 52.203125 31.203125 
L 52.203125 0 
L 43.21875 0 
L 43.21875 8.296875 
Q 40.140625 3.328125 35.546875 0.953125 
Q 30.953125 -1.421875 24.3125 -1.421875 
Q 15.921875 -1.421875 10.953125 3.296875 
Q 6 8.015625 6 15.921875 
Q 6 25.140625 12.171875 29.828125 
Q 18.359375 34.515625 30.609375 34.515625 
L 43.21875 34.515625 
L 43.21875 35.40625 
Q 43.21875 41.609375 39.140625 45 
Q 35.0625 48.390625 27.6875 48.390625 
Q 23 48.390625 18.546875 47.265625 
Q 14.109375 46.140625 10.015625 43.890625 
L 10.015625 52.203125 
Q 14.9375 54.109375 19.578125 55.046875 
Q 24.21875 56 28.609375 56 
Q 40.484375 56 46.34375 49.84375 
Q 52.203125 43.703125 52.203125 31.203125 
z
" id="DejaVuSans-97"/>
      <path d="M 9.421875 75.984375 
L 18.40625 75.984375 
L 18.40625 0 
L 9.421875 0 
z
" id="DejaVuSans-108"/>
     </defs>
     <g transform="translate(14.798438 152.56)rotate(-90)scale(0.1 -0.1)">
      <use xlink:href="#DejaVuSans-114"/>
      <use x="41.082031" xlink:href="#DejaVuSans-101"/>
      <use x="102.605469" xlink:href="#DejaVuSans-99"/>
      <use x="157.585938" xlink:href="#DejaVuSans-97"/>
      <use x="218.865234" xlink:href="#DejaVuSans-108"/>
      <use x="246.648438" xlink:href="#DejaVuSans-108"/>
     </g>
    </g>
   </g>
   <g id="line2d_12">
    <path clip-path="url(#p97081bf0d7)" d="M 54.851553 244.765398 
L 64.477888 244.575906 
L 74.104247 244.464286 
L 83.730675 244.19175 
L 102.983299 243.24442 
L 122.235924 242.90957 
L 199.246884 241.261499 
L 276.257614 241.082192 
" style="fill:none;stroke:#ffffff;stroke-linecap:square;stroke-opacity:0.8;stroke-width:1.5;"/>
   </g>
   <g id="line2d_13">
    <path clip-path="url(#p97081bf0d7)" d="M 54.851553 244.765398 
L 64.477888 244.575906 
L 74.104247 244.464286 
L 83.730675 244.19175 
L 102.983299 243.24442 
L 122.235924 242.90957 
L 199.246884 241.261499 
L 276.257614 241.082192 
" style="fill:none;stroke:#1f77b4;stroke-dasharray:1.5,2.475;stroke-dashoffset:0;stroke-width:1.5;"/>
   </g>
   <g id="line2d_14">
    <path clip-path="url(#p97081bf0d7)" d="M 54.851553 158.851996 
L 64.477888 146.270953 
L 74.104247 139.956787 
L 83.730675 128.406091 
L 102.983299 98.449517 
L 122.235924 90.529611 
L 199.246884 61.682236 
L 276.257614 55.173192 
" style="fill:none;stroke:#ffffff;stroke-linecap:square;stroke-opacity:0.8;stroke-width:1.5;"/>
   </g>
   <g id="line2d_15">
    <path clip-path="url(#p97081bf0d7)" d="M 54.851553 158.851996 
L 64.477888 146.270953 
L 74.104247 139.956787 
L 83.730675 128.406091 
L 102.983299 98.449517 
L 122.235924 90.529611 
L 199.246884 61.682236 
L 276.257614 55.173192 
" style="fill:none;stroke:#ff7f0e;stroke-dasharray:1.5,2.475;stroke-dashoffset:0;stroke-width:1.5;"/>
   </g>
   <g id="line2d_16">
    <path clip-path="url(#p97081bf0d7)" d="M 54.851553 116.902074 
L 64.477888 97.848789 
L 74.104247 88.443013 
L 83.730675 73.312021 
L 102.983299 42.490873 
L 122.235924 38.583056 
L 199.246884 32.910852 
L 276.257614 33.093315 
" style="fill:none;stroke:#ffffff;stroke-linecap:square;stroke-opacity:0.8;stroke-width:1.5;"/>
   </g>
   <g id="line2d_17">
    <path clip-path="url(#p97081bf0d7)" d="M 54.851553 116.902074 
L 64.477888 97.848789 
L 74.104247 88.443013 
L 83.730675 73.312021 
L 102.983299 42.490873 
L 122.235924 38.583056 
L 199.246884 32.910852 
L 276.257614 33.093315 
" style="fill:none;stroke:#d62728;stroke-dasharray:1.5,2.475;stroke-dashoffset:0;stroke-width:1.5;"/>
   </g>
   <g id="patch_3">
    <path d="M 43.78125 255.358125 
L 43.78125 22.318125 
" style="fill:none;stroke:#000000;stroke-linecap:square;stroke-linejoin:miter;stroke-width:0.8;"/>
   </g>
   <g id="patch_4">
    <path d="M 43.78125 255.358125 
L 287.327917 255.358125 
" style="fill:none;stroke:#000000;stroke-linecap:square;stroke-linejoin:miter;stroke-width:0.8;"/>
   </g>
   <g id="text_13">
    <!-- 1 - 30 -->
    <defs>
     <path id="DejaVuSans-32"/>
     <path d="M 4.890625 31.390625 
L 31.203125 31.390625 
L 31.203125 23.390625 
L 4.890625 23.390625 
z
" id="DejaVuSans-45"/>
     <path d="M 40.578125 39.3125 
Q 47.65625 37.796875 51.625 33 
Q 55.609375 28.21875 55.609375 21.1875 
Q 55.609375 10.40625 48.1875 4.484375 
Q 40.765625 -1.421875 27.09375 -1.421875 
Q 22.515625 -1.421875 17.65625 -0.515625 
Q 12.796875 0.390625 7.625 2.203125 
L 7.625 11.71875 
Q 11.71875 9.328125 16.59375 8.109375 
Q 21.484375 6.890625 26.8125 6.890625 
Q 36.078125 6.890625 40.9375 10.546875 
Q 45.796875 14.203125 45.796875 21.1875 
Q 45.796875 27.640625 41.28125 31.265625 
Q 36.765625 34.90625 28.71875 34.90625 
L 20.21875 34.90625 
L 20.21875 43.015625 
L 29.109375 43.015625 
Q 36.375 43.015625 40.234375 45.921875 
Q 44.09375 48.828125 44.09375 54.296875 
Q 44.09375 59.90625 40.109375 62.90625 
Q 36.140625 65.921875 28.71875 65.921875 
Q 24.65625 65.921875 20.015625 65.03125 
Q 15.375 64.15625 9.8125 62.3125 
L 9.8125 71.09375 
Q 15.4375 72.65625 20.34375 73.4375 
Q 25.25 74.21875 29.59375 74.21875 
Q 40.828125 74.21875 47.359375 69.109375 
Q 53.90625 64.015625 53.90625 55.328125 
Q 53.90625 49.265625 50.4375 45.09375 
Q 46.96875 40.921875 40.578125 39.3125 
z
" id="DejaVuSans-51"/>
    </defs>
    <g transform="translate(148.123646 16.318125)scale(0.12 -0.12)">
     <use xlink:href="#DejaVuSans-49"/>
     <use x="63.623047" xlink:href="#DejaVuSans-32"/>
     <use x="95.410156" xlink:href="#DejaVuSans-45"/>
     <use x="131.494141" xlink:href="#DejaVuSans-32"/>
     <use x="163.28125" xlink:href="#DejaVuSans-51"/>
     <use x="226.904297" xlink:href="#DejaVuSans-48"/>
    </g>
   </g>
   <g id="legend_1">
    <g id="patch_5">
     <path d="M 141.793542 206.389687 
L 280.327917 206.389687 
Q 282.327917 206.389687 282.327917 204.389687 
L 282.327917 73.286562 
Q 282.327917 71.286562 280.327917 71.286562 
L 141.793542 71.286562 
Q 139.793542 71.286562 139.793542 73.286562 
L 139.793542 204.389687 
Q 139.793542 206.389687 141.793542 206.389687 
z
" style="fill:#ffffff;opacity:0.8;stroke:#cccccc;stroke-linejoin:miter;"/>
    </g>
    <g id="patch_6">
     <path d="M 143.793542 82.885 
L 163.793542 82.885 
L 163.793542 75.885 
L 143.793542 75.885 
z
" style="fill:#1f77b4;opacity:0.6;stroke:#1f77b4;stroke-linejoin:miter;"/>
    </g>
    <g id="text_14">
     <!-- varlociraptor+delly -->
     <defs>
      <path d="M 2.984375 54.6875 
L 12.5 54.6875 
L 29.59375 8.796875 
L 46.6875 54.6875 
L 56.203125 54.6875 
L 35.6875 0 
L 23.484375 0 
z
" id="DejaVuSans-118"/>
      <path d="M 30.609375 48.390625 
Q 23.390625 48.390625 19.1875 42.75 
Q 14.984375 37.109375 14.984375 27.296875 
Q 14.984375 17.484375 19.15625 11.84375 
Q 23.34375 6.203125 30.609375 6.203125 
Q 37.796875 6.203125 41.984375 11.859375 
Q 46.1875 17.53125 46.1875 27.296875 
Q 46.1875 37.015625 41.984375 42.703125 
Q 37.796875 48.390625 30.609375 48.390625 
z
M 30.609375 56 
Q 42.328125 56 49.015625 48.375 
Q 55.71875 40.765625 55.71875 27.296875 
Q 55.71875 13.875 49.015625 6.21875 
Q 42.328125 -1.421875 30.609375 -1.421875 
Q 18.84375 -1.421875 12.171875 6.21875 
Q 5.515625 13.875 5.515625 27.296875 
Q 5.515625 40.765625 12.171875 48.375 
Q 18.84375 56 30.609375 56 
z
" id="DejaVuSans-111"/>
      <path d="M 9.421875 54.6875 
L 18.40625 54.6875 
L 18.40625 0 
L 9.421875 0 
z
M 9.421875 75.984375 
L 18.40625 75.984375 
L 18.40625 64.59375 
L 9.421875 64.59375 
z
" id="DejaVuSans-105"/>
      <path d="M 18.109375 8.203125 
L 18.109375 -20.796875 
L 9.078125 -20.796875 
L 9.078125 54.6875 
L 18.109375 54.6875 
L 18.109375 46.390625 
Q 20.953125 51.265625 25.265625 53.625 
Q 29.59375 56 35.59375 56 
Q 45.5625 56 51.78125 48.09375 
Q 58.015625 40.1875 58.015625 27.296875 
Q 58.015625 14.40625 51.78125 6.484375 
Q 45.5625 -1.421875 35.59375 -1.421875 
Q 29.59375 -1.421875 25.265625 0.953125 
Q 20.953125 3.328125 18.109375 8.203125 
z
M 48.6875 27.296875 
Q 48.6875 37.203125 44.609375 42.84375 
Q 40.53125 48.484375 33.40625 48.484375 
Q 26.265625 48.484375 22.1875 42.84375 
Q 18.109375 37.203125 18.109375 27.296875 
Q 18.109375 17.390625 22.1875 11.75 
Q 26.265625 6.109375 33.40625 6.109375 
Q 40.53125 6.109375 44.609375 11.75 
Q 48.6875 17.390625 48.6875 27.296875 
z
" id="DejaVuSans-112"/>
      <path d="M 18.3125 70.21875 
L 18.3125 54.6875 
L 36.8125 54.6875 
L 36.8125 47.703125 
L 18.3125 47.703125 
L 18.3125 18.015625 
Q 18.3125 11.328125 20.140625 9.421875 
Q 21.96875 7.515625 27.59375 7.515625 
L 36.8125 7.515625 
L 36.8125 0 
L 27.59375 0 
Q 17.1875 0 13.234375 3.875 
Q 9.28125 7.765625 9.28125 18.015625 
L 9.28125 47.703125 
L 2.6875 47.703125 
L 2.6875 54.6875 
L 9.28125 54.6875 
L 9.28125 70.21875 
z
" id="DejaVuSans-116"/>
      <path d="M 46 62.703125 
L 46 35.5 
L 73.1875 35.5 
L 73.1875 27.203125 
L 46 27.203125 
L 46 0 
L 37.796875 0 
L 37.796875 27.203125 
L 10.59375 27.203125 
L 10.59375 35.5 
L 37.796875 35.5 
L 37.796875 62.703125 
z
" id="DejaVuSans-43"/>
      <path d="M 45.40625 46.390625 
L 45.40625 75.984375 
L 54.390625 75.984375 
L 54.390625 0 
L 45.40625 0 
L 45.40625 8.203125 
Q 42.578125 3.328125 38.25 0.953125 
Q 33.9375 -1.421875 27.875 -1.421875 
Q 17.96875 -1.421875 11.734375 6.484375 
Q 5.515625 14.40625 5.515625 27.296875 
Q 5.515625 40.1875 11.734375 48.09375 
Q 17.96875 56 27.875 56 
Q 33.9375 56 38.25 53.625 
Q 42.578125 51.265625 45.40625 46.390625 
z
M 14.796875 27.296875 
Q 14.796875 17.390625 18.875 11.75 
Q 22.953125 6.109375 30.078125 6.109375 
Q 37.203125 6.109375 41.296875 11.75 
Q 45.40625 17.390625 45.40625 27.296875 
Q 45.40625 37.203125 41.296875 42.84375 
Q 37.203125 48.484375 30.078125 48.484375 
Q 22.953125 48.484375 18.875 42.84375 
Q 14.796875 37.203125 14.796875 27.296875 
z
" id="DejaVuSans-100"/>
      <path d="M 32.171875 -5.078125 
Q 28.375 -14.84375 24.75 -17.8125 
Q 21.140625 -20.796875 15.09375 -20.796875 
L 7.90625 -20.796875 
L 7.90625 -13.28125 
L 13.1875 -13.28125 
Q 16.890625 -13.28125 18.9375 -11.515625 
Q 21 -9.765625 23.484375 -3.21875 
L 25.09375 0.875 
L 2.984375 54.6875 
L 12.5 54.6875 
L 29.59375 11.921875 
L 46.6875 54.6875 
L 56.203125 54.6875 
z
" id="DejaVuSans-121"/>
     </defs>
     <g transform="translate(171.793542 82.885)scale(0.1 -0.1)">
      <use xlink:href="#DejaVuSans-118"/>
      <use x="59.179688" xlink:href="#DejaVuSans-97"/>
      <use x="120.458984" xlink:href="#DejaVuSans-114"/>
      <use x="161.572266" xlink:href="#DejaVuSans-108"/>
      <use x="189.355469" xlink:href="#DejaVuSans-111"/>
      <use x="250.537109" xlink:href="#DejaVuSans-99"/>
      <use x="305.517578" xlink:href="#DejaVuSans-105"/>
      <use x="333.300781" xlink:href="#DejaVuSans-114"/>
      <use x="374.414062" xlink:href="#DejaVuSans-97"/>
      <use x="435.693359" xlink:href="#DejaVuSans-112"/>
      <use x="499.169922" xlink:href="#DejaVuSans-116"/>
      <use x="538.378906" xlink:href="#DejaVuSans-111"/>
      <use x="599.560547" xlink:href="#DejaVuSans-114"/>
      <use x="640.673828" xlink:href="#DejaVuSans-43"/>
      <use x="724.462891" xlink:href="#DejaVuSans-100"/>
      <use x="787.939453" xlink:href="#DejaVuSans-101"/>
      <use x="849.462891" xlink:href="#DejaVuSans-108"/>
      <use x="877.246094" xlink:href="#DejaVuSans-108"/>
      <use x="905.029297" xlink:href="#DejaVuSans-121"/>
     </g>
    </g>
    <g id="patch_7">
     <path d="M 143.793542 97.563125 
L 163.793542 97.563125 
L 163.793542 90.563125 
L 143.793542 90.563125 
z
" style="fill:#ff7f0e;opacity:0.6;stroke:#ff7f0e;stroke-linejoin:miter;"/>
    </g>
    <g id="text_15">
     <!-- varlociraptor+lancet -->
     <defs>
      <path d="M 54.890625 33.015625 
L 54.890625 0 
L 45.90625 0 
L 45.90625 32.71875 
Q 45.90625 40.484375 42.875 44.328125 
Q 39.84375 48.1875 33.796875 48.1875 
Q 26.515625 48.1875 22.3125 43.546875 
Q 18.109375 38.921875 18.109375 30.90625 
L 18.109375 0 
L 9.078125 0 
L 9.078125 54.6875 
L 18.109375 54.6875 
L 18.109375 46.1875 
Q 21.34375 51.125 25.703125 53.5625 
Q 30.078125 56 35.796875 56 
Q 45.21875 56 50.046875 50.171875 
Q 54.890625 44.34375 54.890625 33.015625 
z
" id="DejaVuSans-110"/>
     </defs>
     <g transform="translate(171.793542 97.563125)scale(0.1 -0.1)">
      <use xlink:href="#DejaVuSans-118"/>
      <use x="59.179688" xlink:href="#DejaVuSans-97"/>
      <use x="120.458984" xlink:href="#DejaVuSans-114"/>
      <use x="161.572266" xlink:href="#DejaVuSans-108"/>
      <use x="189.355469" xlink:href="#DejaVuSans-111"/>
      <use x="250.537109" xlink:href="#DejaVuSans-99"/>
      <use x="305.517578" xlink:href="#DejaVuSans-105"/>
      <use x="333.300781" xlink:href="#DejaVuSans-114"/>
      <use x="374.414062" xlink:href="#DejaVuSans-97"/>
      <use x="435.693359" xlink:href="#DejaVuSans-112"/>
      <use x="499.169922" xlink:href="#DejaVuSans-116"/>
      <use x="538.378906" xlink:href="#DejaVuSans-111"/>
      <use x="599.560547" xlink:href="#DejaVuSans-114"/>
      <use x="640.673828" xlink:href="#DejaVuSans-43"/>
      <use x="724.462891" xlink:href="#DejaVuSans-108"/>
      <use x="752.246094" xlink:href="#DejaVuSans-97"/>
      <use x="813.525391" xlink:href="#DejaVuSans-110"/>
      <use x="876.904297" xlink:href="#DejaVuSans-99"/>
      <use x="931.884766" xlink:href="#DejaVuSans-101"/>
      <use x="993.408203" xlink:href="#DejaVuSans-116"/>
     </g>
    </g>
    <g id="patch_8">
     <path d="M 143.793542 112.24125 
L 163.793542 112.24125 
L 163.793542 105.24125 
L 143.793542 105.24125 
z
" style="fill:#2ca02c;opacity:0.6;stroke:#2ca02c;stroke-linejoin:miter;"/>
    </g>
    <g id="text_16">
     <!-- varlociraptor+manta -->
     <defs>
      <path d="M 52 44.1875 
Q 55.375 50.25 60.0625 53.125 
Q 64.75 56 71.09375 56 
Q 79.640625 56 84.28125 50.015625 
Q 88.921875 44.046875 88.921875 33.015625 
L 88.921875 0 
L 79.890625 0 
L 79.890625 32.71875 
Q 79.890625 40.578125 77.09375 44.375 
Q 74.3125 48.1875 68.609375 48.1875 
Q 61.625 48.1875 57.5625 43.546875 
Q 53.515625 38.921875 53.515625 30.90625 
L 53.515625 0 
L 44.484375 0 
L 44.484375 32.71875 
Q 44.484375 40.625 41.703125 44.40625 
Q 38.921875 48.1875 33.109375 48.1875 
Q 26.21875 48.1875 22.15625 43.53125 
Q 18.109375 38.875 18.109375 30.90625 
L 18.109375 0 
L 9.078125 0 
L 9.078125 54.6875 
L 18.109375 54.6875 
L 18.109375 46.1875 
Q 21.1875 51.21875 25.484375 53.609375 
Q 29.78125 56 35.6875 56 
Q 41.65625 56 45.828125 52.96875 
Q 50 49.953125 52 44.1875 
z
" id="DejaVuSans-109"/>
     </defs>
     <g transform="translate(171.793542 112.24125)scale(0.1 -0.1)">
      <use xlink:href="#DejaVuSans-118"/>
      <use x="59.179688" xlink:href="#DejaVuSans-97"/>
      <use x="120.458984" xlink:href="#DejaVuSans-114"/>
      <use x="161.572266" xlink:href="#DejaVuSans-108"/>
      <use x="189.355469" xlink:href="#DejaVuSans-111"/>
      <use x="250.537109" xlink:href="#DejaVuSans-99"/>
      <use x="305.517578" xlink:href="#DejaVuSans-105"/>
      <use x="333.300781" xlink:href="#DejaVuSans-114"/>
      <use x="374.414062" xlink:href="#DejaVuSans-97"/>
      <use x="435.693359" xlink:href="#DejaVuSans-112"/>
      <use x="499.169922" xlink:href="#DejaVuSans-116"/>
      <use x="538.378906" xlink:href="#DejaVuSans-111"/>
      <use x="599.560547" xlink:href="#DejaVuSans-114"/>
      <use x="640.673828" xlink:href="#DejaVuSans-43"/>
      <use x="724.462891" xlink:href="#DejaVuSans-109"/>
      <use x="821.875" xlink:href="#DejaVuSans-97"/>
      <use x="883.154297" xlink:href="#DejaVuSans-110"/>
      <use x="946.533203" xlink:href="#DejaVuSans-116"/>
      <use x="985.742188" xlink:href="#DejaVuSans-97"/>
     </g>
    </g>
    <g id="patch_9">
     <path d="M 143.793542 126.919375 
L 163.793542 126.919375 
L 163.793542 119.919375 
L 143.793542 119.919375 
z
" style="fill:#d62728;opacity:0.6;stroke:#d62728;stroke-linejoin:miter;"/>
    </g>
    <g id="text_17">
     <!-- varlociraptor+strelka -->
     <defs>
      <path d="M 44.28125 53.078125 
L 44.28125 44.578125 
Q 40.484375 46.53125 36.375 47.5 
Q 32.28125 48.484375 27.875 48.484375 
Q 21.1875 48.484375 17.84375 46.4375 
Q 14.5 44.390625 14.5 40.28125 
Q 14.5 37.15625 16.890625 35.375 
Q 19.28125 33.59375 26.515625 31.984375 
L 29.59375 31.296875 
Q 39.15625 29.25 43.1875 25.515625 
Q 47.21875 21.78125 47.21875 15.09375 
Q 47.21875 7.46875 41.1875 3.015625 
Q 35.15625 -1.421875 24.609375 -1.421875 
Q 20.21875 -1.421875 15.453125 -0.5625 
Q 10.6875 0.296875 5.421875 2 
L 5.421875 11.28125 
Q 10.40625 8.6875 15.234375 7.390625 
Q 20.0625 6.109375 24.8125 6.109375 
Q 31.15625 6.109375 34.5625 8.28125 
Q 37.984375 10.453125 37.984375 14.40625 
Q 37.984375 18.0625 35.515625 20.015625 
Q 33.0625 21.96875 24.703125 23.78125 
L 21.578125 24.515625 
Q 13.234375 26.265625 9.515625 29.90625 
Q 5.8125 33.546875 5.8125 39.890625 
Q 5.8125 47.609375 11.28125 51.796875 
Q 16.75 56 26.8125 56 
Q 31.78125 56 36.171875 55.265625 
Q 40.578125 54.546875 44.28125 53.078125 
z
" id="DejaVuSans-115"/>
      <path d="M 9.078125 75.984375 
L 18.109375 75.984375 
L 18.109375 31.109375 
L 44.921875 54.6875 
L 56.390625 54.6875 
L 27.390625 29.109375 
L 57.625 0 
L 45.90625 0 
L 18.109375 26.703125 
L 18.109375 0 
L 9.078125 0 
z
" id="DejaVuSans-107"/>
     </defs>
     <g transform="translate(171.793542 126.919375)scale(0.1 -0.1)">
      <use xlink:href="#DejaVuSans-118"/>
      <use x="59.179688" xlink:href="#DejaVuSans-97"/>
      <use x="120.458984" xlink:href="#DejaVuSans-114"/>
      <use x="161.572266" xlink:href="#DejaVuSans-108"/>
      <use x="189.355469" xlink:href="#DejaVuSans-111"/>
      <use x="250.537109" xlink:href="#DejaVuSans-99"/>
      <use x="305.517578" xlink:href="#DejaVuSans-105"/>
      <use x="333.300781" xlink:href="#DejaVuSans-114"/>
      <use x="374.414062" xlink:href="#DejaVuSans-97"/>
      <use x="435.693359" xlink:href="#DejaVuSans-112"/>
      <use x="499.169922" xlink:href="#DejaVuSans-116"/>
      <use x="538.378906" xlink:href="#DejaVuSans-111"/>
      <use x="599.560547" xlink:href="#DejaVuSans-114"/>
      <use x="640.673828" xlink:href="#DejaVuSans-43"/>
      <use x="724.462891" xlink:href="#DejaVuSans-115"/>
      <use x="776.5625" xlink:href="#DejaVuSans-116"/>
      <use x="815.771484" xlink:href="#DejaVuSans-114"/>
      <use x="856.853516" xlink:href="#DejaVuSans-101"/>
      <use x="918.376953" xlink:href="#DejaVuSans-108"/>
      <use x="946.160156" xlink:href="#DejaVuSans-107"/>
      <use x="1004.054688" xlink:href="#DejaVuSans-97"/>
     </g>
    </g>
    <g id="line2d_18">
     <path d="M 143.793542 138.0975 
L 163.793542 138.0975 
" style="fill:none;stroke:#1f77b4;stroke-dasharray:1.5,2.475;stroke-dashoffset:0;stroke-width:1.5;"/>
    </g>
    <g id="line2d_19"/>
    <g id="text_18">
     <!-- delly -->
     <g transform="translate(171.793542 141.5975)scale(0.1 -0.1)">
      <use xlink:href="#DejaVuSans-100"/>
      <use x="63.476562" xlink:href="#DejaVuSans-101"/>
      <use x="125" xlink:href="#DejaVuSans-108"/>
      <use x="152.783203" xlink:href="#DejaVuSans-108"/>
      <use x="180.566406" xlink:href="#DejaVuSans-121"/>
     </g>
    </g>
    <g id="line2d_20">
     <path d="M 143.793542 152.775625 
L 163.793542 152.775625 
" style="fill:none;stroke:#ff7f0e;stroke-dasharray:1.5,2.475;stroke-dashoffset:0;stroke-width:1.5;"/>
    </g>
    <g id="line2d_21"/>
    <g id="text_19">
     <!-- lancet -->
     <g transform="translate(171.793542 156.275625)scale(0.1 -0.1)">
      <use xlink:href="#DejaVuSans-108"/>
      <use x="27.783203" xlink:href="#DejaVuSans-97"/>
      <use x="89.0625" xlink:href="#DejaVuSans-110"/>
      <use x="152.441406" xlink:href="#DejaVuSans-99"/>
      <use x="207.421875" xlink:href="#DejaVuSans-101"/>
      <use x="268.945312" xlink:href="#DejaVuSans-116"/>
     </g>
    </g>
    <g id="line2d_22">
     <path d="M 143.793542 167.45375 
L 163.793542 167.45375 
" style="fill:none;stroke:#d62728;stroke-dasharray:1.5,2.475;stroke-dashoffset:0;stroke-width:1.5;"/>
    </g>
    <g id="line2d_23"/>
    <g id="text_20">
     <!-- strelka -->
     <g transform="translate(171.793542 170.95375)scale(0.1 -0.1)">
      <use xlink:href="#DejaVuSans-115"/>
      <use x="52.099609" xlink:href="#DejaVuSans-116"/>
      <use x="91.308594" xlink:href="#DejaVuSans-114"/>
      <use x="132.390625" xlink:href="#DejaVuSans-101"/>
      <use x="193.914062" xlink:href="#DejaVuSans-108"/>
      <use x="221.697266" xlink:href="#DejaVuSans-107"/>
      <use x="279.591797" xlink:href="#DejaVuSans-97"/>
     </g>
    </g>
    <g id="line2d_24">
     <path d="M 143.793542 182.131875 
L 163.793542 182.131875 
" style="fill:none;stroke:#2ca02c;stroke-dasharray:1.5,2.475;stroke-dashoffset:0;stroke-width:1.5;"/>
    </g>
    <g id="line2d_25"/>
    <g id="text_21">
     <!-- manta -->
     <g transform="translate(171.793542 185.631875)scale(0.1 -0.1)">
      <use xlink:href="#DejaVuSans-109"/>
      <use x="97.412109" xlink:href="#DejaVuSans-97"/>
      <use x="158.691406" xlink:href="#DejaVuSans-110"/>
      <use x="222.070312" xlink:href="#DejaVuSans-116"/>
      <use x="261.279297" xlink:href="#DejaVuSans-97"/>
     </g>
    </g>
    <g id="line2d_26">
     <path d="M 143.793542 196.81 
L 163.793542 196.81 
" style="fill:none;stroke:#9467bd;stroke-dasharray:1.5,2.475;stroke-dashoffset:0;stroke-width:1.5;"/>
    </g>
    <g id="line2d_27"/>
    <g id="text_22">
     <!-- bpi -->
     <defs>
      <path d="M 48.6875 27.296875 
Q 48.6875 37.203125 44.609375 42.84375 
Q 40.53125 48.484375 33.40625 48.484375 
Q 26.265625 48.484375 22.1875 42.84375 
Q 18.109375 37.203125 18.109375 27.296875 
Q 18.109375 17.390625 22.1875 11.75 
Q 26.265625 6.109375 33.40625 6.109375 
Q 40.53125 6.109375 44.609375 11.75 
Q 48.6875 17.390625 48.6875 27.296875 
z
M 18.109375 46.390625 
Q 20.953125 51.265625 25.265625 53.625 
Q 29.59375 56 35.59375 56 
Q 45.5625 56 51.78125 48.09375 
Q 58.015625 40.1875 58.015625 27.296875 
Q 58.015625 14.40625 51.78125 6.484375 
Q 45.5625 -1.421875 35.59375 -1.421875 
Q 29.59375 -1.421875 25.265625 0.953125 
Q 20.953125 3.328125 18.109375 8.203125 
L 18.109375 0 
L 9.078125 0 
L 9.078125 75.984375 
L 18.109375 75.984375 
z
" id="DejaVuSans-98"/>
     </defs>
     <g transform="translate(171.793542 200.31)scale(0.1 -0.1)">
      <use xlink:href="#DejaVuSans-98"/>
      <use x="63.476562" xlink:href="#DejaVuSans-112"/>
      <use x="126.953125" xlink:href="#DejaVuSans-105"/>
     </g>
    </g>
   </g>
  </g>
  <g id="axes_2">
   <g id="patch_10">
    <path d="M 323.487917 255.358125 
L 567.034583 255.358125 
L 567.034583 22.318125 
L 323.487917 22.318125 
z
" style="fill:#ffffff;"/>
   </g>
   <g id="PolyCollection_5">
    <defs>
     <path d="M 334.55822 -385.217788 
L 334.55822 -381.599623 
L 344.184555 -404.994016 
L 353.810914 -416.544137 
L 363.437341 -440.088278 
L 382.689966 -493.915534 
L 401.942591 -502.52871 
L 478.953551 -524.932225 
L 555.96428 -515.979554 
L 555.96428 -533.213446 
L 555.96428 -533.213446 
L 478.953551 -533.437263 
L 401.942591 -511.402531 
L 382.689966 -501.257327 
L 363.437341 -444.629803 
L 353.810914 -421.045085 
L 344.184555 -409.16971 
L 334.55822 -385.217788 
z
" id="mcdc9588610" style="stroke:#1f77b4;stroke-opacity:0.6;"/>
    </defs>
    <g clip-path="url(#p7104f525ac)">
     <use style="fill:#1f77b4;fill-opacity:0.6;stroke:#1f77b4;stroke-opacity:0.6;" x="0" xlink:href="#mcdc9588610" y="568.474375"/>
    </g>
   </g>
   <g id="PolyCollection_6">
    <defs>
     <path d="M 334.55822 -445.520544 
L 334.55822 -441.902379 
L 344.184555 -465.541572 
L 353.810914 -474.306303 
L 363.437341 -483.686919 
L 382.689966 -508.59912 
L 401.942591 -514.064677 
L 478.953551 -529.184744 
L 555.96428 -520.288027 
L 555.96428 -533.213446 
L 555.96428 -533.213446 
L 478.953551 -535.563523 
L 401.942591 -520.276351 
L 382.689966 -515.206733 
L 363.437341 -488.228445 
L 353.810914 -478.432172 
L 344.184555 -469.369291 
L 334.55822 -445.520544 
z
" id="m8e39b570ae" style="stroke:#ff7f0e;stroke-opacity:0.6;"/>
    </defs>
    <g clip-path="url(#p7104f525ac)">
     <use style="fill:#ff7f0e;fill-opacity:0.6;stroke:#ff7f0e;stroke-opacity:0.6;" x="0" xlink:href="#m8e39b570ae" y="568.474375"/>
    </g>
   </g>
   <g id="PolyCollection_7">
    <defs>
     <path d="M 334.55822 -325.819574 
L 334.55822 -323.708977 
L 344.184555 -339.226844 
L 353.810914 -348.27976 
L 363.437341 -365.607265 
L 382.689966 -413.889991 
L 401.942591 -434.200295 
L 478.953551 -499.417111 
L 555.96428 -507.362607 
L 555.96428 -524.5965 
L 555.96428 -524.5965 
L 478.953551 -507.922149 
L 401.942591 -438.637205 
L 382.689966 -418.295067 
L 363.437341 -368.33218 
L 353.810914 -350.905313 
L 344.184555 -341.662665 
L 334.55822 -325.819574 
z
" id="mc061d2e5df" style="stroke:#2ca02c;stroke-opacity:0.6;"/>
    </defs>
    <g clip-path="url(#p7104f525ac)">
     <use style="fill:#2ca02c;fill-opacity:0.6;stroke:#2ca02c;stroke-opacity:0.6;" x="0" xlink:href="#mc061d2e5df" y="568.474375"/>
    </g>
   </g>
   <g id="PolyCollection_8">
    <defs>
     <path d="M 334.55822 -334.26196 
L 334.55822 -329.437739 
L 344.184555 -345.490384 
L 353.810914 -355.031182 
L 363.437341 -372.873705 
L 382.689966 -422.700142 
L 401.942591 -442.186733 
L 478.953551 -490.912073 
L 555.96428 -485.820241 
L 555.96428 -528.904973 
L 555.96428 -528.904973 
L 478.953551 -514.300928 
L 401.942591 -454.610081 
L 382.689966 -433.712832 
L 363.437341 -379.685993 
L 353.810914 -361.032446 
L 344.184555 -351.057975 
L 334.55822 -334.26196 
z
" id="m2fe361ae76" style="stroke:#d62728;stroke-opacity:0.6;"/>
    </defs>
    <g clip-path="url(#p7104f525ac)">
     <use style="fill:#d62728;fill-opacity:0.6;stroke:#d62728;stroke-opacity:0.6;" x="0" xlink:href="#m2fe361ae76" y="568.474375"/>
    </g>
   </g>
   <g id="matplotlib.axis_3">
    <g id="xtick_7">
     <g id="line2d_28">
      <g>
       <use style="stroke:#000000;stroke-width:0.8;" x="324.931861" xlink:href="#mbd5eff3b70" y="255.358125"/>
      </g>
     </g>
     <g id="text_23">
      <!-- 0.0 -->
      <g transform="translate(316.980299 269.956562)scale(0.1 -0.1)">
       <use xlink:href="#DejaVuSans-48"/>
       <use x="63.623047" xlink:href="#DejaVuSans-46"/>
       <use x="95.410156" xlink:href="#DejaVuSans-48"/>
      </g>
     </g>
    </g>
    <g id="xtick_8">
     <g id="line2d_29">
      <g>
       <use style="stroke:#000000;stroke-width:0.8;" x="371.138345" xlink:href="#mbd5eff3b70" y="255.358125"/>
      </g>
     </g>
     <g id="text_24">
      <!-- 0.2 -->
      <g transform="translate(363.186783 269.956562)scale(0.1 -0.1)">
       <use xlink:href="#DejaVuSans-48"/>
       <use x="63.623047" xlink:href="#DejaVuSans-46"/>
       <use x="95.410156" xlink:href="#DejaVuSans-50"/>
      </g>
     </g>
    </g>
    <g id="xtick_9">
     <g id="line2d_30">
      <g>
       <use style="stroke:#000000;stroke-width:0.8;" x="417.344829" xlink:href="#mbd5eff3b70" y="255.358125"/>
      </g>
     </g>
     <g id="text_25">
      <!-- 0.4 -->
      <g transform="translate(409.393266 269.956562)scale(0.1 -0.1)">
       <use xlink:href="#DejaVuSans-48"/>
       <use x="63.623047" xlink:href="#DejaVuSans-46"/>
       <use x="95.410156" xlink:href="#DejaVuSans-52"/>
      </g>
     </g>
    </g>
    <g id="xtick_10">
     <g id="line2d_31">
      <g>
       <use style="stroke:#000000;stroke-width:0.8;" x="463.551313" xlink:href="#mbd5eff3b70" y="255.358125"/>
      </g>
     </g>
     <g id="text_26">
      <!-- 0.6 -->
      <g transform="translate(455.59975 269.956562)scale(0.1 -0.1)">
       <use xlink:href="#DejaVuSans-48"/>
       <use x="63.623047" xlink:href="#DejaVuSans-46"/>
       <use x="95.410156" xlink:href="#DejaVuSans-54"/>
      </g>
     </g>
    </g>
    <g id="xtick_11">
     <g id="line2d_32">
      <g>
       <use style="stroke:#000000;stroke-width:0.8;" x="509.757796" xlink:href="#mbd5eff3b70" y="255.358125"/>
      </g>
     </g>
     <g id="text_27">
      <!-- 0.8 -->
      <g transform="translate(501.806234 269.956562)scale(0.1 -0.1)">
       <use xlink:href="#DejaVuSans-48"/>
       <use x="63.623047" xlink:href="#DejaVuSans-46"/>
       <use x="95.410156" xlink:href="#DejaVuSans-56"/>
      </g>
     </g>
    </g>
    <g id="xtick_12">
     <g id="line2d_33">
      <g>
       <use style="stroke:#000000;stroke-width:0.8;" x="555.96428" xlink:href="#mbd5eff3b70" y="255.358125"/>
      </g>
     </g>
     <g id="text_28">
      <!-- 1.0 -->
      <g transform="translate(548.012718 269.956562)scale(0.1 -0.1)">
       <use xlink:href="#DejaVuSans-49"/>
       <use x="63.623047" xlink:href="#DejaVuSans-46"/>
       <use x="95.410156" xlink:href="#DejaVuSans-48"/>
      </g>
     </g>
    </g>
   </g>
   <g id="matplotlib.axis_4">
    <g id="ytick_6">
     <g id="line2d_34">
      <g>
       <use style="stroke:#000000;stroke-width:0.8;" x="323.487917" xlink:href="#m6aade8c164" y="247.237811"/>
      </g>
     </g>
     <g id="text_29">
      <!-- 0.3 -->
      <g transform="translate(300.584792 251.037029)scale(0.1 -0.1)">
       <use xlink:href="#DejaVuSans-48"/>
       <use x="63.623047" xlink:href="#DejaVuSans-46"/>
       <use x="95.410156" xlink:href="#DejaVuSans-51"/>
      </g>
     </g>
    </g>
    <g id="ytick_7">
     <g id="line2d_35">
      <g>
       <use style="stroke:#000000;stroke-width:0.8;" x="323.487917" xlink:href="#m6aade8c164" y="214.493414"/>
      </g>
     </g>
     <g id="text_30">
      <!-- 0.4 -->
      <g transform="translate(300.584792 218.292633)scale(0.1 -0.1)">
       <use xlink:href="#DejaVuSans-48"/>
       <use x="63.623047" xlink:href="#DejaVuSans-46"/>
       <use x="95.410156" xlink:href="#DejaVuSans-52"/>
      </g>
     </g>
    </g>
    <g id="ytick_8">
     <g id="line2d_36">
      <g>
       <use style="stroke:#000000;stroke-width:0.8;" x="323.487917" xlink:href="#m6aade8c164" y="181.749018"/>
      </g>
     </g>
     <g id="text_31">
      <!-- 0.5 -->
      <defs>
       <path d="M 10.796875 72.90625 
L 49.515625 72.90625 
L 49.515625 64.59375 
L 19.828125 64.59375 
L 19.828125 46.734375 
Q 21.96875 47.46875 24.109375 47.828125 
Q 26.265625 48.1875 28.421875 48.1875 
Q 40.625 48.1875 47.75 41.5 
Q 54.890625 34.8125 54.890625 23.390625 
Q 54.890625 11.625 47.5625 5.09375 
Q 40.234375 -1.421875 26.90625 -1.421875 
Q 22.3125 -1.421875 17.546875 -0.640625 
Q 12.796875 0.140625 7.71875 1.703125 
L 7.71875 11.625 
Q 12.109375 9.234375 16.796875 8.0625 
Q 21.484375 6.890625 26.703125 6.890625 
Q 35.15625 6.890625 40.078125 11.328125 
Q 45.015625 15.765625 45.015625 23.390625 
Q 45.015625 31 40.078125 35.4375 
Q 35.15625 39.890625 26.703125 39.890625 
Q 22.75 39.890625 18.8125 39.015625 
Q 14.890625 38.140625 10.796875 36.28125 
z
" id="DejaVuSans-53"/>
      </defs>
      <g transform="translate(300.584792 185.548237)scale(0.1 -0.1)">
       <use xlink:href="#DejaVuSans-48"/>
       <use x="63.623047" xlink:href="#DejaVuSans-46"/>
       <use x="95.410156" xlink:href="#DejaVuSans-53"/>
      </g>
     </g>
    </g>
    <g id="ytick_9">
     <g id="line2d_37">
      <g>
       <use style="stroke:#000000;stroke-width:0.8;" x="323.487917" xlink:href="#m6aade8c164" y="149.004621"/>
      </g>
     </g>
     <g id="text_32">
      <!-- 0.6 -->
      <g transform="translate(300.584792 152.80384)scale(0.1 -0.1)">
       <use xlink:href="#DejaVuSans-48"/>
       <use x="63.623047" xlink:href="#DejaVuSans-46"/>
       <use x="95.410156" xlink:href="#DejaVuSans-54"/>
      </g>
     </g>
    </g>
    <g id="ytick_10">
     <g id="line2d_38">
      <g>
       <use style="stroke:#000000;stroke-width:0.8;" x="323.487917" xlink:href="#m6aade8c164" y="116.260225"/>
      </g>
     </g>
     <g id="text_33">
      <!-- 0.7 -->
      <defs>
       <path d="M 8.203125 72.90625 
L 55.078125 72.90625 
L 55.078125 68.703125 
L 28.609375 0 
L 18.3125 0 
L 43.21875 64.59375 
L 8.203125 64.59375 
z
" id="DejaVuSans-55"/>
      </defs>
      <g transform="translate(300.584792 120.059444)scale(0.1 -0.1)">
       <use xlink:href="#DejaVuSans-48"/>
       <use x="63.623047" xlink:href="#DejaVuSans-46"/>
       <use x="95.410156" xlink:href="#DejaVuSans-55"/>
      </g>
     </g>
    </g>
    <g id="ytick_11">
     <g id="line2d_39">
      <g>
       <use style="stroke:#000000;stroke-width:0.8;" x="323.487917" xlink:href="#m6aade8c164" y="83.515829"/>
      </g>
     </g>
     <g id="text_34">
      <!-- 0.8 -->
      <g transform="translate(300.584792 87.315047)scale(0.1 -0.1)">
       <use xlink:href="#DejaVuSans-48"/>
       <use x="63.623047" xlink:href="#DejaVuSans-46"/>
       <use x="95.410156" xlink:href="#DejaVuSans-56"/>
      </g>
     </g>
    </g>
    <g id="ytick_12">
     <g id="line2d_40">
      <g>
       <use style="stroke:#000000;stroke-width:0.8;" x="323.487917" xlink:href="#m6aade8c164" y="50.771432"/>
      </g>
     </g>
     <g id="text_35">
      <!-- 0.9 -->
      <defs>
       <path d="M 10.984375 1.515625 
L 10.984375 10.5 
Q 14.703125 8.734375 18.5 7.8125 
Q 22.3125 6.890625 25.984375 6.890625 
Q 35.75 6.890625 40.890625 13.453125 
Q 46.046875 20.015625 46.78125 33.40625 
Q 43.953125 29.203125 39.59375 26.953125 
Q 35.25 24.703125 29.984375 24.703125 
Q 19.046875 24.703125 12.671875 31.3125 
Q 6.296875 37.9375 6.296875 49.421875 
Q 6.296875 60.640625 12.9375 67.421875 
Q 19.578125 74.21875 30.609375 74.21875 
Q 43.265625 74.21875 49.921875 64.515625 
Q 56.59375 54.828125 56.59375 36.375 
Q 56.59375 19.140625 48.40625 8.859375 
Q 40.234375 -1.421875 26.421875 -1.421875 
Q 22.703125 -1.421875 18.890625 -0.6875 
Q 15.09375 0.046875 10.984375 1.515625 
z
M 30.609375 32.421875 
Q 37.25 32.421875 41.125 36.953125 
Q 45.015625 41.5 45.015625 49.421875 
Q 45.015625 57.28125 41.125 61.84375 
Q 37.25 66.40625 30.609375 66.40625 
Q 23.96875 66.40625 20.09375 61.84375 
Q 16.21875 57.28125 16.21875 49.421875 
Q 16.21875 41.5 20.09375 36.953125 
Q 23.96875 32.421875 30.609375 32.421875 
z
" id="DejaVuSans-57"/>
      </defs>
      <g transform="translate(300.584792 54.570651)scale(0.1 -0.1)">
       <use xlink:href="#DejaVuSans-48"/>
       <use x="63.623047" xlink:href="#DejaVuSans-46"/>
       <use x="95.410156" xlink:href="#DejaVuSans-57"/>
      </g>
     </g>
    </g>
   </g>
   <g id="line2d_41">
    <path clip-path="url(#p7104f525ac)" d="M 334.55822 233.00636 
L 344.184555 215.676527 
L 353.810914 205.566534 
L 363.437341 180.159484 
L 382.689966 103.191834 
L 401.942591 83.693305 
L 478.953551 41.41589 
L 555.96428 43.877875 
" style="fill:none;stroke:#ffffff;stroke-linecap:square;stroke-opacity:0.8;stroke-width:1.5;"/>
   </g>
   <g id="line2d_42">
    <path clip-path="url(#p7104f525ac)" d="M 334.55822 233.00636 
L 344.184555 215.676527 
L 353.810914 205.566534 
L 363.437341 180.159484 
L 382.689966 103.191834 
L 401.942591 83.693305 
L 478.953551 41.41589 
L 555.96428 43.877875 
" style="fill:none;stroke:#1f77b4;stroke-dasharray:1.5,2.475;stroke-dashoffset:0;stroke-width:1.5;"/>
   </g>
   <g id="line2d_43">
    <path clip-path="url(#p7104f525ac)" d="M 334.55822 218.232185 
L 344.184555 199.669702 
L 353.810914 189.063058 
L 363.437341 171.984739 
L 382.689966 128.15393 
L 401.942591 119.188586 
L 478.953551 73.309783 
L 555.96428 61.111768 
" style="fill:none;stroke:#ffffff;stroke-linecap:square;stroke-opacity:0.8;stroke-width:1.5;"/>
   </g>
   <g id="line2d_44">
    <path clip-path="url(#p7104f525ac)" d="M 334.55822 218.232185 
L 344.184555 199.669702 
L 353.810914 189.063058 
L 363.437341 171.984739 
L 382.689966 128.15393 
L 401.942591 119.188586 
L 478.953551 73.309783 
L 555.96428 61.111768 
" style="fill:none;stroke:#ff7f0e;stroke-dasharray:1.5,2.475;stroke-dashoffset:0;stroke-width:1.5;"/>
   </g>
   <g id="line2d_45">
    <path clip-path="url(#p7104f525ac)" d="M 334.55822 236.021498 
L 344.184555 219.504246 
L 353.810914 209.692403 
L 363.437341 190.150839 
L 382.689966 134.761543 
L 401.942591 113.864294 
L 478.953551 54.173447 
L 555.96428 39.569402 
" style="fill:none;stroke:#ffffff;stroke-linecap:square;stroke-opacity:0.8;stroke-width:1.5;"/>
   </g>
   <g id="line2d_46">
    <path clip-path="url(#p7104f525ac)" d="M 334.55822 236.021498 
L 344.184555 219.504246 
L 353.810914 209.692403 
L 363.437341 190.150839 
L 382.689966 134.761543 
L 401.942591 113.864294 
L 478.953551 54.173447 
L 555.96428 39.569402 
" style="fill:none;stroke:#d62728;stroke-dasharray:1.5,2.475;stroke-dashoffset:0;stroke-width:1.5;"/>
   </g>
   <g id="patch_11">
    <path d="M 323.487917 255.358125 
L 323.487917 22.318125 
" style="fill:none;stroke:#000000;stroke-linecap:square;stroke-linejoin:miter;stroke-width:0.8;"/>
   </g>
   <g id="patch_12">
    <path d="M 323.487917 255.358125 
L 567.034583 255.358125 
" style="fill:none;stroke:#000000;stroke-linecap:square;stroke-linejoin:miter;stroke-width:0.8;"/>
   </g>
   <g id="text_36">
    <!-- 30 - 50 -->
    <g transform="translate(424.012812 16.318125)scale(0.12 -0.12)">
     <use xlink:href="#DejaVuSans-51"/>
     <use x="63.623047" xlink:href="#DejaVuSans-48"/>
     <use x="127.246094" xlink:href="#DejaVuSans-32"/>
     <use x="159.033203" xlink:href="#DejaVuSans-45"/>
     <use x="195.117188" xlink:href="#DejaVuSans-32"/>
     <use x="226.904297" xlink:href="#DejaVuSans-53"/>
     <use x="290.527344" xlink:href="#DejaVuSans-48"/>
    </g>
   </g>
  </g>
  <g id="axes_3">
   <g id="patch_13">
    <path d="M 603.194583 255.358125 
L 846.74125 255.358125 
L 846.74125 22.318125 
L 603.194583 22.318125 
z
" style="fill:#ffffff;"/>
   </g>
   <g id="PolyCollection_9">
    <defs>
     <path d="M 614.264886 -334.231144 
L 614.264886 -334.231144 
L 623.891222 -335.457894 
L 633.51758 -336.834732 
L 643.144008 -338.924657 
L 662.396633 -339.608527 
L 681.649257 -342.108702 
L 758.660218 -334.506233 
L 835.670947 -326.407604 
L 835.670947 -326.407604 
L 835.670947 -326.407604 
L 758.660218 -334.506233 
L 681.649257 -342.108702 
L 662.396633 -339.608527 
L 643.144008 -338.924657 
L 633.51758 -336.834732 
L 623.891222 -335.457894 
L 614.264886 -334.231144 
z
" id="m7c1e4d9019" style="stroke:#1f77b4;stroke-opacity:0.6;"/>
    </defs>
    <g clip-path="url(#p379f74ea69)">
     <use style="fill:#1f77b4;fill-opacity:0.6;stroke:#1f77b4;stroke-opacity:0.6;" x="0" xlink:href="#m7c1e4d9019" y="568.474375"/>
    </g>
   </g>
   <g id="PolyCollection_10">
    <defs>
     <path d="M 614.264886 -338.563801 
L 614.264886 -338.563801 
L 623.891222 -340.454111 
L 633.51758 -342.201636 
L 643.144008 -345.348364 
L 662.396633 -342.636262 
L 681.649257 -342.108702 
L 758.660218 -334.506233 
L 835.670947 -326.407604 
L 835.670947 -326.407604 
L 835.670947 -326.407604 
L 758.660218 -334.506233 
L 681.649257 -342.108702 
L 662.396633 -342.636262 
L 643.144008 -345.348364 
L 633.51758 -342.201636 
L 623.891222 -340.454111 
L 614.264886 -338.563801 
z
" id="m2a2ed24b27" style="stroke:#ff7f0e;stroke-opacity:0.6;"/>
    </defs>
    <g clip-path="url(#p379f74ea69)">
     <use style="fill:#ff7f0e;fill-opacity:0.6;stroke:#ff7f0e;stroke-opacity:0.6;" x="0" xlink:href="#m2a2ed24b27" y="568.474375"/>
    </g>
   </g>
   <g id="PolyCollection_11">
    <defs>
     <path d="M 614.264886 -324.327928 
L 614.264886 -324.327928 
L 623.891222 -325.46546 
L 633.51758 -326.100923 
L 643.144008 -327.912587 
L 662.396633 -329.011456 
L 681.649257 -331.305194 
L 758.660218 -334.506233 
L 835.670947 -326.407604 
L 835.670947 -326.407604 
L 835.670947 -326.407604 
L 758.660218 -334.506233 
L 681.649257 -331.305194 
L 662.396633 -329.011456 
L 643.144008 -327.912587 
L 633.51758 -326.100923 
L 623.891222 -325.46546 
L 614.264886 -324.327928 
z
" id="m33b454c889" style="stroke:#2ca02c;stroke-opacity:0.6;"/>
    </defs>
    <g clip-path="url(#p379f74ea69)">
     <use style="fill:#2ca02c;fill-opacity:0.6;stroke:#2ca02c;stroke-opacity:0.6;" x="0" xlink:href="#m33b454c889" y="568.474375"/>
    </g>
   </g>
   <g id="PolyCollection_12">
    <defs>
     <path d="M 614.264886 -323.708977 
L 614.264886 -323.708977 
L 623.891222 -324.751715 
L 633.51758 -325.334223 
L 643.144008 -326.994914 
L 662.396633 -327.497588 
L 681.649257 -329.504609 
L 758.660218 -334.506233 
L 835.670947 -326.407604 
L 835.670947 -326.407604 
L 835.670947 -326.407604 
L 758.660218 -334.506233 
L 681.649257 -329.504609 
L 662.396633 -327.497588 
L 643.144008 -326.994914 
L 633.51758 -325.334223 
L 623.891222 -324.751715 
L 614.264886 -323.708977 
z
" id="m243409e33f" style="stroke:#d62728;stroke-opacity:0.6;"/>
    </defs>
    <g clip-path="url(#p379f74ea69)">
     <use style="fill:#d62728;fill-opacity:0.6;stroke:#d62728;stroke-opacity:0.6;" x="0" xlink:href="#m243409e33f" y="568.474375"/>
    </g>
   </g>
   <g id="matplotlib.axis_5">
    <g id="xtick_13">
     <g id="line2d_47">
      <g>
       <use style="stroke:#000000;stroke-width:0.8;" x="604.638528" xlink:href="#mbd5eff3b70" y="255.358125"/>
      </g>
     </g>
     <g id="text_37">
      <!-- 0.0 -->
      <g transform="translate(596.686965 269.956562)scale(0.1 -0.1)">
       <use xlink:href="#DejaVuSans-48"/>
       <use x="63.623047" xlink:href="#DejaVuSans-46"/>
       <use x="95.410156" xlink:href="#DejaVuSans-48"/>
      </g>
     </g>
    </g>
    <g id="xtick_14">
     <g id="line2d_48">
      <g>
       <use style="stroke:#000000;stroke-width:0.8;" x="650.845012" xlink:href="#mbd5eff3b70" y="255.358125"/>
      </g>
     </g>
     <g id="text_38">
      <!-- 0.2 -->
      <g transform="translate(642.893449 269.956562)scale(0.1 -0.1)">
       <use xlink:href="#DejaVuSans-48"/>
       <use x="63.623047" xlink:href="#DejaVuSans-46"/>
       <use x="95.410156" xlink:href="#DejaVuSans-50"/>
      </g>
     </g>
    </g>
    <g id="xtick_15">
     <g id="line2d_49">
      <g>
       <use style="stroke:#000000;stroke-width:0.8;" x="697.051496" xlink:href="#mbd5eff3b70" y="255.358125"/>
      </g>
     </g>
     <g id="text_39">
      <!-- 0.4 -->
      <g transform="translate(689.099933 269.956562)scale(0.1 -0.1)">
       <use xlink:href="#DejaVuSans-48"/>
       <use x="63.623047" xlink:href="#DejaVuSans-46"/>
       <use x="95.410156" xlink:href="#DejaVuSans-52"/>
      </g>
     </g>
    </g>
    <g id="xtick_16">
     <g id="line2d_50">
      <g>
       <use style="stroke:#000000;stroke-width:0.8;" x="743.257979" xlink:href="#mbd5eff3b70" y="255.358125"/>
      </g>
     </g>
     <g id="text_40">
      <!-- 0.6 -->
      <g transform="translate(735.306417 269.956562)scale(0.1 -0.1)">
       <use xlink:href="#DejaVuSans-48"/>
       <use x="63.623047" xlink:href="#DejaVuSans-46"/>
       <use x="95.410156" xlink:href="#DejaVuSans-54"/>
      </g>
     </g>
    </g>
    <g id="xtick_17">
     <g id="line2d_51">
      <g>
       <use style="stroke:#000000;stroke-width:0.8;" x="789.464463" xlink:href="#mbd5eff3b70" y="255.358125"/>
      </g>
     </g>
     <g id="text_41">
      <!-- 0.8 -->
      <g transform="translate(781.512901 269.956562)scale(0.1 -0.1)">
       <use xlink:href="#DejaVuSans-48"/>
       <use x="63.623047" xlink:href="#DejaVuSans-46"/>
       <use x="95.410156" xlink:href="#DejaVuSans-56"/>
      </g>
     </g>
    </g>
    <g id="xtick_18">
     <g id="line2d_52">
      <g>
       <use style="stroke:#000000;stroke-width:0.8;" x="835.670947" xlink:href="#mbd5eff3b70" y="255.358125"/>
      </g>
     </g>
     <g id="text_42">
      <!-- 1.0 -->
      <g transform="translate(827.719384 269.956562)scale(0.1 -0.1)">
       <use xlink:href="#DejaVuSans-49"/>
       <use x="63.623047" xlink:href="#DejaVuSans-46"/>
       <use x="95.410156" xlink:href="#DejaVuSans-48"/>
      </g>
     </g>
    </g>
   </g>
   <g id="matplotlib.axis_6">
    <g id="ytick_13">
     <g id="line2d_53">
      <g>
       <use style="stroke:#000000;stroke-width:0.8;" x="603.194583" xlink:href="#m6aade8c164" y="251.573859"/>
      </g>
     </g>
     <g id="text_43">
      <!-- 0.0 -->
      <g transform="translate(580.291458 255.373077)scale(0.1 -0.1)">
       <use xlink:href="#DejaVuSans-48"/>
       <use x="63.623047" xlink:href="#DejaVuSans-46"/>
       <use x="95.410156" xlink:href="#DejaVuSans-48"/>
      </g>
     </g>
    </g>
    <g id="ytick_14">
     <g id="line2d_54">
      <g>
       <use style="stroke:#000000;stroke-width:0.8;" x="603.194583" xlink:href="#m6aade8c164" y="204.038422"/>
      </g>
     </g>
     <g id="text_44">
      <!-- 0.2 -->
      <g transform="translate(580.291458 207.837641)scale(0.1 -0.1)">
       <use xlink:href="#DejaVuSans-48"/>
       <use x="63.623047" xlink:href="#DejaVuSans-46"/>
       <use x="95.410156" xlink:href="#DejaVuSans-50"/>
      </g>
     </g>
    </g>
    <g id="ytick_15">
     <g id="line2d_55">
      <g>
       <use style="stroke:#000000;stroke-width:0.8;" x="603.194583" xlink:href="#m6aade8c164" y="156.502986"/>
      </g>
     </g>
     <g id="text_45">
      <!-- 0.4 -->
      <g transform="translate(580.291458 160.302205)scale(0.1 -0.1)">
       <use xlink:href="#DejaVuSans-48"/>
       <use x="63.623047" xlink:href="#DejaVuSans-46"/>
       <use x="95.410156" xlink:href="#DejaVuSans-52"/>
      </g>
     </g>
    </g>
    <g id="ytick_16">
     <g id="line2d_56">
      <g>
       <use style="stroke:#000000;stroke-width:0.8;" x="603.194583" xlink:href="#m6aade8c164" y="108.96755"/>
      </g>
     </g>
     <g id="text_46">
      <!-- 0.6 -->
      <g transform="translate(580.291458 112.766769)scale(0.1 -0.1)">
       <use xlink:href="#DejaVuSans-48"/>
       <use x="63.623047" xlink:href="#DejaVuSans-46"/>
       <use x="95.410156" xlink:href="#DejaVuSans-54"/>
      </g>
     </g>
    </g>
    <g id="ytick_17">
     <g id="line2d_57">
      <g>
       <use style="stroke:#000000;stroke-width:0.8;" x="603.194583" xlink:href="#m6aade8c164" y="61.432114"/>
      </g>
     </g>
     <g id="text_47">
      <!-- 0.8 -->
      <g transform="translate(580.291458 65.231333)scale(0.1 -0.1)">
       <use xlink:href="#DejaVuSans-48"/>
       <use x="63.623047" xlink:href="#DejaVuSans-46"/>
       <use x="95.410156" xlink:href="#DejaVuSans-56"/>
      </g>
     </g>
    </g>
   </g>
   <g id="line2d_58">
    <path clip-path="url(#p379f74ea69)" d="M 614.264886 174.204985 
L 623.891222 162.355698 
L 633.51758 155.736286 
L 643.144008 138.70014 
L 662.396633 88.07618 
L 681.649257 78.717727 
L 758.660218 40.305253 
L 835.670947 32.910852 
" style="fill:none;stroke:#ffffff;stroke-linecap:square;stroke-opacity:0.8;stroke-width:1.5;"/>
   </g>
   <g id="line2d_59">
    <path clip-path="url(#p379f74ea69)" d="M 614.264886 174.204985 
L 623.891222 162.355698 
L 633.51758 155.736286 
L 643.144008 138.70014 
L 662.396633 88.07618 
L 681.649257 78.717727 
L 758.660218 40.305253 
L 835.670947 32.910852 
" style="fill:none;stroke:#1f77b4;stroke-dasharray:1.5,2.475;stroke-dashoffset:0;stroke-width:1.5;"/>
   </g>
   <g id="line2d_60">
    <path clip-path="url(#p379f74ea69)" d="M 614.264886 166.158622 
L 623.891222 153.077009 
L 633.51758 147.302579 
L 643.144008 134.111777 
L 662.396633 107.756456 
L 681.649257 96.723574 
L 758.660218 66.713829 
L 835.670947 61.432114 
" style="fill:none;stroke:#ffffff;stroke-linecap:square;stroke-opacity:0.8;stroke-width:1.5;"/>
   </g>
   <g id="line2d_61">
    <path clip-path="url(#p379f74ea69)" d="M 614.264886 166.158622 
L 623.891222 153.077009 
L 633.51758 147.302579 
L 643.144008 134.111777 
L 662.396633 107.756456 
L 681.649257 96.723574 
L 758.660218 66.713829 
L 835.670947 61.432114 
" style="fill:none;stroke:#ff7f0e;stroke-dasharray:1.5,2.475;stroke-dashoffset:0;stroke-width:1.5;"/>
   </g>
   <g id="line2d_62">
    <path clip-path="url(#p379f74ea69)" d="M 614.264886 236.100084 
L 623.891222 233.730226 
L 633.51758 232.406344 
L 643.144008 228.632046 
L 662.396633 213.727174 
L 681.649257 206.559241 
L 758.660218 150.340985 
L 835.670947 118.474637 
" style="fill:none;stroke:#ffffff;stroke-linecap:square;stroke-opacity:0.8;stroke-width:1.5;"/>
   </g>
   <g id="line2d_63">
    <path clip-path="url(#p379f74ea69)" d="M 614.264886 236.100084 
L 623.891222 233.730226 
L 633.51758 232.406344 
L 643.144008 228.632046 
L 662.396633 213.727174 
L 681.649257 206.559241 
L 758.660218 150.340985 
L 835.670947 118.474637 
" style="fill:none;stroke:#2ca02c;stroke-dasharray:1.5,2.475;stroke-dashoffset:0;stroke-width:1.5;"/>
   </g>
   <g id="line2d_64">
    <path clip-path="url(#p379f74ea69)" d="M 614.264886 236.100084 
L 623.891222 233.730226 
L 633.51758 232.406344 
L 643.144008 228.632046 
L 662.396633 213.727174 
L 681.649257 206.559241 
L 758.660218 150.340985 
L 835.670947 118.474637 
" style="fill:none;stroke:#ffffff;stroke-linecap:square;stroke-opacity:0.8;stroke-width:1.5;"/>
   </g>
   <g id="line2d_65">
    <path clip-path="url(#p379f74ea69)" d="M 614.264886 236.100084 
L 623.891222 233.730226 
L 633.51758 232.406344 
L 643.144008 228.632046 
L 662.396633 213.727174 
L 681.649257 206.559241 
L 758.660218 150.340985 
L 835.670947 118.474637 
" style="fill:none;stroke:#9467bd;stroke-dasharray:1.5,2.475;stroke-dashoffset:0;stroke-width:1.5;"/>
   </g>
   <g id="patch_14">
    <path d="M 603.194583 255.358125 
L 603.194583 22.318125 
" style="fill:none;stroke:#000000;stroke-linecap:square;stroke-linejoin:miter;stroke-width:0.8;"/>
   </g>
   <g id="patch_15">
    <path d="M 603.194583 255.358125 
L 846.74125 255.358125 
" style="fill:none;stroke:#000000;stroke-linecap:square;stroke-linejoin:miter;stroke-width:0.8;"/>
   </g>
   <g id="text_48">
    <!-- 50 - 70 -->
    <g transform="translate(703.719479 16.318125)scale(0.12 -0.12)">
     <use xlink:href="#DejaVuSans-53"/>
     <use x="63.623047" xlink:href="#DejaVuSans-48"/>
     <use x="127.246094" xlink:href="#DejaVuSans-32"/>
     <use x="159.033203" xlink:href="#DejaVuSans-45"/>
     <use x="195.117188" xlink:href="#DejaVuSans-32"/>
     <use x="226.904297" xlink:href="#DejaVuSans-55"/>
     <use x="290.527344" xlink:href="#DejaVuSans-48"/>
    </g>
   </g>
  </g>
  <g id="axes_4">
   <g id="patch_16">
    <path d="M 43.78125 530.918125 
L 287.327917 530.918125 
L 287.327917 297.878125 
L 43.78125 297.878125 
z
" style="fill:#ffffff;"/>
   </g>
   <g id="matplotlib.axis_7">
    <g id="xtick_19">
     <g id="line2d_66">
      <g>
       <use style="stroke:#000000;stroke-width:0.8;" x="45.225195" xlink:href="#mbd5eff3b70" y="530.918125"/>
      </g>
     </g>
     <g id="text_49">
      <!-- 0.0 -->
      <g transform="translate(37.273632 545.516562)scale(0.1 -0.1)">
       <use xlink:href="#DejaVuSans-48"/>
       <use x="63.623047" xlink:href="#DejaVuSans-46"/>
       <use x="95.410156" xlink:href="#DejaVuSans-48"/>
      </g>
     </g>
    </g>
    <g id="xtick_20">
     <g id="line2d_67">
      <g>
       <use style="stroke:#000000;stroke-width:0.8;" x="91.431678" xlink:href="#mbd5eff3b70" y="530.918125"/>
      </g>
     </g>
     <g id="text_50">
      <!-- 0.2 -->
      <g transform="translate(83.480116 545.516562)scale(0.1 -0.1)">
       <use xlink:href="#DejaVuSans-48"/>
       <use x="63.623047" xlink:href="#DejaVuSans-46"/>
       <use x="95.410156" xlink:href="#DejaVuSans-50"/>
      </g>
     </g>
    </g>
    <g id="xtick_21">
     <g id="line2d_68">
      <g>
       <use style="stroke:#000000;stroke-width:0.8;" x="137.638162" xlink:href="#mbd5eff3b70" y="530.918125"/>
      </g>
     </g>
     <g id="text_51">
      <!-- 0.4 -->
      <g transform="translate(129.6866 545.516562)scale(0.1 -0.1)">
       <use xlink:href="#DejaVuSans-48"/>
       <use x="63.623047" xlink:href="#DejaVuSans-46"/>
       <use x="95.410156" xlink:href="#DejaVuSans-52"/>
      </g>
     </g>
    </g>
    <g id="xtick_22">
     <g id="line2d_69">
      <g>
       <use style="stroke:#000000;stroke-width:0.8;" x="183.844646" xlink:href="#mbd5eff3b70" y="530.918125"/>
      </g>
     </g>
     <g id="text_52">
      <!-- 0.6 -->
      <g transform="translate(175.893083 545.516562)scale(0.1 -0.1)">
       <use xlink:href="#DejaVuSans-48"/>
       <use x="63.623047" xlink:href="#DejaVuSans-46"/>
       <use x="95.410156" xlink:href="#DejaVuSans-54"/>
      </g>
     </g>
    </g>
    <g id="xtick_23">
     <g id="line2d_70">
      <g>
       <use style="stroke:#000000;stroke-width:0.8;" x="230.05113" xlink:href="#mbd5eff3b70" y="530.918125"/>
      </g>
     </g>
     <g id="text_53">
      <!-- 0.8 -->
      <g transform="translate(222.099567 545.516562)scale(0.1 -0.1)">
       <use xlink:href="#DejaVuSans-48"/>
       <use x="63.623047" xlink:href="#DejaVuSans-46"/>
       <use x="95.410156" xlink:href="#DejaVuSans-56"/>
      </g>
     </g>
    </g>
    <g id="xtick_24">
     <g id="line2d_71">
      <g>
       <use style="stroke:#000000;stroke-width:0.8;" x="276.257614" xlink:href="#mbd5eff3b70" y="530.918125"/>
      </g>
     </g>
     <g id="text_54">
      <!-- 1.0 -->
      <g transform="translate(268.306051 545.516562)scale(0.1 -0.1)">
       <use xlink:href="#DejaVuSans-49"/>
       <use x="63.623047" xlink:href="#DejaVuSans-46"/>
       <use x="95.410156" xlink:href="#DejaVuSans-48"/>
      </g>
     </g>
    </g>
    <g id="text_55">
     <!-- allele frequency -->
     <defs>
      <path d="M 37.109375 75.984375 
L 37.109375 68.5 
L 28.515625 68.5 
Q 23.6875 68.5 21.796875 66.546875 
Q 19.921875 64.59375 19.921875 59.515625 
L 19.921875 54.6875 
L 34.71875 54.6875 
L 34.71875 47.703125 
L 19.921875 47.703125 
L 19.921875 0 
L 10.890625 0 
L 10.890625 47.703125 
L 2.296875 47.703125 
L 2.296875 54.6875 
L 10.890625 54.6875 
L 10.890625 58.5 
Q 10.890625 67.625 15.140625 71.796875 
Q 19.390625 75.984375 28.609375 75.984375 
z
" id="DejaVuSans-102"/>
      <path d="M 14.796875 27.296875 
Q 14.796875 17.390625 18.875 11.75 
Q 22.953125 6.109375 30.078125 6.109375 
Q 37.203125 6.109375 41.296875 11.75 
Q 45.40625 17.390625 45.40625 27.296875 
Q 45.40625 37.203125 41.296875 42.84375 
Q 37.203125 48.484375 30.078125 48.484375 
Q 22.953125 48.484375 18.875 42.84375 
Q 14.796875 37.203125 14.796875 27.296875 
z
M 45.40625 8.203125 
Q 42.578125 3.328125 38.25 0.953125 
Q 33.9375 -1.421875 27.875 -1.421875 
Q 17.96875 -1.421875 11.734375 6.484375 
Q 5.515625 14.40625 5.515625 27.296875 
Q 5.515625 40.1875 11.734375 48.09375 
Q 17.96875 56 27.875 56 
Q 33.9375 56 38.25 53.625 
Q 42.578125 51.265625 45.40625 46.390625 
L 45.40625 54.6875 
L 54.390625 54.6875 
L 54.390625 -20.796875 
L 45.40625 -20.796875 
z
" id="DejaVuSans-113"/>
      <path d="M 8.5 21.578125 
L 8.5 54.6875 
L 17.484375 54.6875 
L 17.484375 21.921875 
Q 17.484375 14.15625 20.5 10.265625 
Q 23.53125 6.390625 29.59375 6.390625 
Q 36.859375 6.390625 41.078125 11.03125 
Q 45.3125 15.671875 45.3125 23.6875 
L 45.3125 54.6875 
L 54.296875 54.6875 
L 54.296875 0 
L 45.3125 0 
L 45.3125 8.40625 
Q 42.046875 3.421875 37.71875 1 
Q 33.40625 -1.421875 27.6875 -1.421875 
Q 18.265625 -1.421875 13.375 4.4375 
Q 8.5 10.296875 8.5 21.578125 
z
M 31.109375 56 
z
" id="DejaVuSans-117"/>
     </defs>
     <g transform="translate(125.393646 559.194687)scale(0.1 -0.1)">
      <use xlink:href="#DejaVuSans-97"/>
      <use x="61.279297" xlink:href="#DejaVuSans-108"/>
      <use x="89.0625" xlink:href="#DejaVuSans-108"/>
      <use x="116.845703" xlink:href="#DejaVuSans-101"/>
      <use x="178.369141" xlink:href="#DejaVuSans-108"/>
      <use x="206.152344" xlink:href="#DejaVuSans-101"/>
      <use x="267.675781" xlink:href="#DejaVuSans-32"/>
      <use x="299.462891" xlink:href="#DejaVuSans-102"/>
      <use x="334.667969" xlink:href="#DejaVuSans-114"/>
      <use x="375.75" xlink:href="#DejaVuSans-101"/>
      <use x="437.273438" xlink:href="#DejaVuSans-113"/>
      <use x="500.75" xlink:href="#DejaVuSans-117"/>
      <use x="564.128906" xlink:href="#DejaVuSans-101"/>
      <use x="625.652344" xlink:href="#DejaVuSans-110"/>
      <use x="689.03125" xlink:href="#DejaVuSans-99"/>
      <use x="744.011719" xlink:href="#DejaVuSans-121"/>
     </g>
    </g>
   </g>
   <g id="matplotlib.axis_8">
    <g id="ytick_18">
     <g id="line2d_72">
      <g>
       <use style="stroke:#000000;stroke-width:0.8;" x="43.78125" xlink:href="#m6aade8c164" y="488.034188"/>
      </g>
     </g>
     <g id="text_56">
      <!-- 0.2 -->
      <g transform="translate(20.878125 491.833406)scale(0.1 -0.1)">
       <use xlink:href="#DejaVuSans-48"/>
       <use x="63.623047" xlink:href="#DejaVuSans-46"/>
       <use x="95.410156" xlink:href="#DejaVuSans-50"/>
      </g>
     </g>
    </g>
    <g id="ytick_19">
     <g id="line2d_73">
      <g>
       <use style="stroke:#000000;stroke-width:0.8;" x="43.78125" xlink:href="#m6aade8c164" y="440.439087"/>
      </g>
     </g>
     <g id="text_57">
      <!-- 0.4 -->
      <g transform="translate(20.878125 444.238306)scale(0.1 -0.1)">
       <use xlink:href="#DejaVuSans-48"/>
       <use x="63.623047" xlink:href="#DejaVuSans-46"/>
       <use x="95.410156" xlink:href="#DejaVuSans-52"/>
      </g>
     </g>
    </g>
    <g id="ytick_20">
     <g id="line2d_74">
      <g>
       <use style="stroke:#000000;stroke-width:0.8;" x="43.78125" xlink:href="#m6aade8c164" y="392.843986"/>
      </g>
     </g>
     <g id="text_58">
      <!-- 0.6 -->
      <g transform="translate(20.878125 396.643205)scale(0.1 -0.1)">
       <use xlink:href="#DejaVuSans-48"/>
       <use x="63.623047" xlink:href="#DejaVuSans-46"/>
       <use x="95.410156" xlink:href="#DejaVuSans-54"/>
      </g>
     </g>
    </g>
    <g id="ytick_21">
     <g id="line2d_75">
      <g>
       <use style="stroke:#000000;stroke-width:0.8;" x="43.78125" xlink:href="#m6aade8c164" y="345.248885"/>
      </g>
     </g>
     <g id="text_59">
      <!-- 0.8 -->
      <g transform="translate(20.878125 349.048104)scale(0.1 -0.1)">
       <use xlink:href="#DejaVuSans-48"/>
       <use x="63.623047" xlink:href="#DejaVuSans-46"/>
       <use x="95.410156" xlink:href="#DejaVuSans-56"/>
      </g>
     </g>
    </g>
    <g id="ytick_22">
     <g id="line2d_76">
      <g>
       <use style="stroke:#000000;stroke-width:0.8;" x="43.78125" xlink:href="#m6aade8c164" y="297.653784"/>
      </g>
     </g>
     <g id="text_60">
      <!-- 1.0 -->
      <g transform="translate(20.878125 301.453003)scale(0.1 -0.1)">
       <use xlink:href="#DejaVuSans-49"/>
       <use x="63.623047" xlink:href="#DejaVuSans-46"/>
       <use x="95.410156" xlink:href="#DejaVuSans-48"/>
      </g>
     </g>
    </g>
    <g id="text_61">
     <!-- recall -->
     <g transform="translate(14.798438 428.12)rotate(-90)scale(0.1 -0.1)">
      <use xlink:href="#DejaVuSans-114"/>
      <use x="41.082031" xlink:href="#DejaVuSans-101"/>
      <use x="102.605469" xlink:href="#DejaVuSans-99"/>
      <use x="157.585938" xlink:href="#DejaVuSans-97"/>
      <use x="218.865234" xlink:href="#DejaVuSans-108"/>
      <use x="246.648438" xlink:href="#DejaVuSans-108"/>
     </g>
    </g>
   </g>
   <g id="line2d_77">
    <path clip-path="url(#pcc3f051b2a)" d="M 54.851553 465.996585 
L 64.477888 457.166351 
L 74.104247 449.351317 
L 83.730675 430.640095 
L 102.983299 390.002487 
L 122.235924 372.803943 
L 199.246884 322.970327 
L 276.257614 308.470852 
" style="fill:none;stroke:#ffffff;stroke-linecap:square;stroke-opacity:0.8;stroke-width:1.5;"/>
   </g>
   <g id="line2d_78">
    <path clip-path="url(#pcc3f051b2a)" d="M 54.851553 465.996585 
L 64.477888 457.166351 
L 74.104247 449.351317 
L 83.730675 430.640095 
L 102.983299 390.002487 
L 122.235924 372.803943 
L 199.246884 322.970327 
L 276.257614 308.470852 
" style="fill:none;stroke:#1f77b4;stroke-dasharray:1.5,2.475;stroke-dashoffset:0;stroke-width:1.5;"/>
   </g>
   <g id="line2d_79">
    <path clip-path="url(#pcc3f051b2a)" d="M 54.851553 435.388803 
L 64.477888 424.401607 
L 74.104247 417.115591 
L 83.730675 397.976791 
L 102.983299 366.915311 
L 122.235924 360.278917 
L 199.246884 333.096944 
L 276.257614 330.104989 
" style="fill:none;stroke:#ffffff;stroke-linecap:square;stroke-opacity:0.8;stroke-width:1.5;"/>
   </g>
   <g id="line2d_80">
    <path clip-path="url(#pcc3f051b2a)" d="M 54.851553 435.388803 
L 64.477888 424.401607 
L 74.104247 417.115591 
L 83.730675 397.976791 
L 102.983299 366.915311 
L 122.235924 360.278917 
L 199.246884 333.096944 
L 276.257614 330.104989 
" style="fill:none;stroke:#ff7f0e;stroke-dasharray:1.5,2.475;stroke-dashoffset:0;stroke-width:1.5;"/>
   </g>
   <g id="line2d_81">
    <path clip-path="url(#pcc3f051b2a)" d="M 54.851553 518.795009 
L 64.477888 516.660227 
L 74.104247 514.770878 
L 83.730675 509.965264 
L 102.983299 498.33462 
L 122.235924 491.791696 
L 199.246884 429.299808 
L 276.257614 384.190331 
" style="fill:none;stroke:#ffffff;stroke-linecap:square;stroke-opacity:0.8;stroke-width:1.5;"/>
   </g>
   <g id="line2d_82">
    <path clip-path="url(#pcc3f051b2a)" d="M 54.851553 518.795009 
L 64.477888 516.660227 
L 74.104247 514.770878 
L 83.730675 509.965264 
L 102.983299 498.33462 
L 122.235924 491.791696 
L 199.246884 429.299808 
L 276.257614 384.190331 
" style="fill:none;stroke:#2ca02c;stroke-dasharray:1.5,2.475;stroke-dashoffset:0;stroke-width:1.5;"/>
   </g>
   <g id="line2d_83">
    <path clip-path="url(#pcc3f051b2a)" d="M 54.851553 520.325398 
L 64.477888 518.384687 
L 74.104247 516.667097 
L 83.730675 512.298357 
L 102.983299 501.886493 
L 122.235924 495.966705 
L 199.246884 439.426425 
L 276.257614 405.824468 
" style="fill:none;stroke:#ffffff;stroke-linecap:square;stroke-opacity:0.8;stroke-width:1.5;"/>
   </g>
   <g id="line2d_84">
    <path clip-path="url(#pcc3f051b2a)" d="M 54.851553 520.325398 
L 64.477888 518.384687 
L 74.104247 516.667097 
L 83.730675 512.298357 
L 102.983299 501.886493 
L 122.235924 495.966705 
L 199.246884 439.426425 
L 276.257614 405.824468 
" style="fill:none;stroke:#9467bd;stroke-dasharray:1.5,2.475;stroke-dashoffset:0;stroke-width:1.5;"/>
   </g>
   <g id="patch_17">
    <path d="M 43.78125 530.918125 
L 43.78125 297.878125 
" style="fill:none;stroke:#000000;stroke-linecap:square;stroke-linejoin:miter;stroke-width:0.8;"/>
   </g>
   <g id="patch_18">
    <path d="M 43.78125 530.918125 
L 287.327917 530.918125 
" style="fill:none;stroke:#000000;stroke-linecap:square;stroke-linejoin:miter;stroke-width:0.8;"/>
   </g>
   <g id="text_62">
    <!-- 70 - 100 -->
    <g transform="translate(140.488646 291.878125)scale(0.12 -0.12)">
     <use xlink:href="#DejaVuSans-55"/>
     <use x="63.623047" xlink:href="#DejaVuSans-48"/>
     <use x="127.246094" xlink:href="#DejaVuSans-32"/>
     <use x="159.033203" xlink:href="#DejaVuSans-45"/>
     <use x="195.117188" xlink:href="#DejaVuSans-32"/>
     <use x="226.904297" xlink:href="#DejaVuSans-49"/>
     <use x="290.527344" xlink:href="#DejaVuSans-48"/>
     <use x="354.150391" xlink:href="#DejaVuSans-48"/>
    </g>
   </g>
  </g>
  <g id="axes_5">
   <g id="patch_19">
    <path d="M 323.487917 530.918125 
L 567.034583 530.918125 
L 567.034583 297.878125 
L 323.487917 297.878125 
z
" style="fill:#ffffff;"/>
   </g>
   <g id="matplotlib.axis_9">
    <g id="xtick_25">
     <g id="line2d_85">
      <g>
       <use style="stroke:#000000;stroke-width:0.8;" x="324.931861" xlink:href="#mbd5eff3b70" y="530.918125"/>
      </g>
     </g>
     <g id="text_63">
      <!-- 0.0 -->
      <g transform="translate(316.980299 545.516562)scale(0.1 -0.1)">
       <use xlink:href="#DejaVuSans-48"/>
       <use x="63.623047" xlink:href="#DejaVuSans-46"/>
       <use x="95.410156" xlink:href="#DejaVuSans-48"/>
      </g>
     </g>
    </g>
    <g id="xtick_26">
     <g id="line2d_86">
      <g>
       <use style="stroke:#000000;stroke-width:0.8;" x="371.138345" xlink:href="#mbd5eff3b70" y="530.918125"/>
      </g>
     </g>
     <g id="text_64">
      <!-- 0.2 -->
      <g transform="translate(363.186783 545.516562)scale(0.1 -0.1)">
       <use xlink:href="#DejaVuSans-48"/>
       <use x="63.623047" xlink:href="#DejaVuSans-46"/>
       <use x="95.410156" xlink:href="#DejaVuSans-50"/>
      </g>
     </g>
    </g>
    <g id="xtick_27">
     <g id="line2d_87">
      <g>
       <use style="stroke:#000000;stroke-width:0.8;" x="417.344829" xlink:href="#mbd5eff3b70" y="530.918125"/>
      </g>
     </g>
     <g id="text_65">
      <!-- 0.4 -->
      <g transform="translate(409.393266 545.516562)scale(0.1 -0.1)">
       <use xlink:href="#DejaVuSans-48"/>
       <use x="63.623047" xlink:href="#DejaVuSans-46"/>
       <use x="95.410156" xlink:href="#DejaVuSans-52"/>
      </g>
     </g>
    </g>
    <g id="xtick_28">
     <g id="line2d_88">
      <g>
       <use style="stroke:#000000;stroke-width:0.8;" x="463.551313" xlink:href="#mbd5eff3b70" y="530.918125"/>
      </g>
     </g>
     <g id="text_66">
      <!-- 0.6 -->
      <g transform="translate(455.59975 545.516562)scale(0.1 -0.1)">
       <use xlink:href="#DejaVuSans-48"/>
       <use x="63.623047" xlink:href="#DejaVuSans-46"/>
       <use x="95.410156" xlink:href="#DejaVuSans-54"/>
      </g>
     </g>
    </g>
    <g id="xtick_29">
     <g id="line2d_89">
      <g>
       <use style="stroke:#000000;stroke-width:0.8;" x="509.757796" xlink:href="#mbd5eff3b70" y="530.918125"/>
      </g>
     </g>
     <g id="text_67">
      <!-- 0.8 -->
      <g transform="translate(501.806234 545.516562)scale(0.1 -0.1)">
       <use xlink:href="#DejaVuSans-48"/>
       <use x="63.623047" xlink:href="#DejaVuSans-46"/>
       <use x="95.410156" xlink:href="#DejaVuSans-56"/>
      </g>
     </g>
    </g>
    <g id="xtick_30">
     <g id="line2d_90">
      <g>
       <use style="stroke:#000000;stroke-width:0.8;" x="555.96428" xlink:href="#mbd5eff3b70" y="530.918125"/>
      </g>
     </g>
     <g id="text_68">
      <!-- 1.0 -->
      <g transform="translate(548.012718 545.516562)scale(0.1 -0.1)">
       <use xlink:href="#DejaVuSans-49"/>
       <use x="63.623047" xlink:href="#DejaVuSans-46"/>
       <use x="95.410156" xlink:href="#DejaVuSans-48"/>
      </g>
     </g>
    </g>
    <g id="text_69">
     <!-- allele frequency -->
     <g transform="translate(405.100313 559.194687)scale(0.1 -0.1)">
      <use xlink:href="#DejaVuSans-97"/>
      <use x="61.279297" xlink:href="#DejaVuSans-108"/>
      <use x="89.0625" xlink:href="#DejaVuSans-108"/>
      <use x="116.845703" xlink:href="#DejaVuSans-101"/>
      <use x="178.369141" xlink:href="#DejaVuSans-108"/>
      <use x="206.152344" xlink:href="#DejaVuSans-101"/>
      <use x="267.675781" xlink:href="#DejaVuSans-32"/>
      <use x="299.462891" xlink:href="#DejaVuSans-102"/>
      <use x="334.667969" xlink:href="#DejaVuSans-114"/>
      <use x="375.75" xlink:href="#DejaVuSans-101"/>
      <use x="437.273438" xlink:href="#DejaVuSans-113"/>
      <use x="500.75" xlink:href="#DejaVuSans-117"/>
      <use x="564.128906" xlink:href="#DejaVuSans-101"/>
      <use x="625.652344" xlink:href="#DejaVuSans-110"/>
      <use x="689.03125" xlink:href="#DejaVuSans-99"/>
      <use x="744.011719" xlink:href="#DejaVuSans-121"/>
     </g>
    </g>
   </g>
   <g id="matplotlib.axis_10">
    <g id="ytick_23">
     <g id="line2d_91">
      <g>
       <use style="stroke:#000000;stroke-width:0.8;" x="323.487917" xlink:href="#m6aade8c164" y="487.619717"/>
      </g>
     </g>
     <g id="text_70">
      <!-- 0.2 -->
      <g transform="translate(300.584792 491.418936)scale(0.1 -0.1)">
       <use xlink:href="#DejaVuSans-48"/>
       <use x="63.623047" xlink:href="#DejaVuSans-46"/>
       <use x="95.410156" xlink:href="#DejaVuSans-50"/>
      </g>
     </g>
    </g>
    <g id="ytick_24">
     <g id="line2d_92">
      <g>
       <use style="stroke:#000000;stroke-width:0.8;" x="323.487917" xlink:href="#m6aade8c164" y="439.678472"/>
      </g>
     </g>
     <g id="text_71">
      <!-- 0.4 -->
      <g transform="translate(300.584792 443.477691)scale(0.1 -0.1)">
       <use xlink:href="#DejaVuSans-48"/>
       <use x="63.623047" xlink:href="#DejaVuSans-46"/>
       <use x="95.410156" xlink:href="#DejaVuSans-52"/>
      </g>
     </g>
    </g>
    <g id="ytick_25">
     <g id="line2d_93">
      <g>
       <use style="stroke:#000000;stroke-width:0.8;" x="323.487917" xlink:href="#m6aade8c164" y="391.737226"/>
      </g>
     </g>
     <g id="text_72">
      <!-- 0.6 -->
      <g transform="translate(300.584792 395.536445)scale(0.1 -0.1)">
       <use xlink:href="#DejaVuSans-48"/>
       <use x="63.623047" xlink:href="#DejaVuSans-46"/>
       <use x="95.410156" xlink:href="#DejaVuSans-54"/>
      </g>
     </g>
    </g>
    <g id="ytick_26">
     <g id="line2d_94">
      <g>
       <use style="stroke:#000000;stroke-width:0.8;" x="323.487917" xlink:href="#m6aade8c164" y="343.795981"/>
      </g>
     </g>
     <g id="text_73">
      <!-- 0.8 -->
      <g transform="translate(300.584792 347.595199)scale(0.1 -0.1)">
       <use xlink:href="#DejaVuSans-48"/>
       <use x="63.623047" xlink:href="#DejaVuSans-46"/>
       <use x="95.410156" xlink:href="#DejaVuSans-56"/>
      </g>
     </g>
    </g>
   </g>
   <g id="line2d_95">
    <path clip-path="url(#pbc8d985995)" d="M 334.55822 458.367432 
L 344.184555 447.975995 
L 353.810914 440.180474 
L 363.437341 428.70397 
L 382.689966 373.259871 
L 401.942591 355.781292 
L 478.953551 326.586303 
L 555.96428 308.470852 
" style="fill:none;stroke:#ffffff;stroke-linecap:square;stroke-opacity:0.8;stroke-width:1.5;"/>
   </g>
   <g id="line2d_96">
    <path clip-path="url(#pbc8d985995)" d="M 334.55822 458.367432 
L 344.184555 447.975995 
L 353.810914 440.180474 
L 363.437341 428.70397 
L 382.689966 373.259871 
L 401.942591 355.781292 
L 478.953551 326.586303 
L 555.96428 308.470852 
" style="fill:none;stroke:#1f77b4;stroke-dasharray:1.5,2.475;stroke-dashoffset:0;stroke-width:1.5;"/>
   </g>
   <g id="line2d_97">
    <path clip-path="url(#pbc8d985995)" d="M 334.55822 436.021936 
L 344.184555 424.927319 
L 353.810914 421.355378 
L 363.437341 407.043769 
L 382.689966 378.253751 
L 401.942591 370.04952 
L 478.953551 338.87893 
L 555.96428 333.703087 
" style="fill:none;stroke:#ffffff;stroke-linecap:square;stroke-opacity:0.8;stroke-width:1.5;"/>
   </g>
   <g id="line2d_98">
    <path clip-path="url(#pbc8d985995)" d="M 334.55822 436.021936 
L 344.184555 424.927319 
L 353.810914 421.355378 
L 363.437341 407.043769 
L 382.689966 378.253751 
L 401.942591 370.04952 
L 478.953551 338.87893 
L 555.96428 333.703087 
" style="fill:none;stroke:#ff7f0e;stroke-dasharray:1.5,2.475;stroke-dashoffset:0;stroke-width:1.5;"/>
   </g>
   <g id="line2d_99">
    <path clip-path="url(#pbc8d985995)" d="M 334.55822 517.278285 
L 344.184555 514.817155 
L 353.810914 512.970847 
L 363.437341 509.568721 
L 382.689966 490.616045 
L 401.942591 484.195343 
L 478.953551 424.927319 
L 555.96428 371.551439 
" style="fill:none;stroke:#ffffff;stroke-linecap:square;stroke-opacity:0.8;stroke-width:1.5;"/>
   </g>
   <g id="line2d_100">
    <path clip-path="url(#pbc8d985995)" d="M 334.55822 517.278285 
L 344.184555 514.817155 
L 353.810914 512.970847 
L 363.437341 509.568721 
L 382.689966 490.616045 
L 401.942591 484.195343 
L 478.953551 424.927319 
L 555.96428 371.551439 
" style="fill:none;stroke:#2ca02c;stroke-dasharray:1.5,2.475;stroke-dashoffset:0;stroke-width:1.5;"/>
   </g>
   <g id="line2d_101">
    <path clip-path="url(#pbc8d985995)" d="M 334.55822 520.325398 
L 344.184555 518.274456 
L 353.810914 516.735867 
L 363.437341 513.900762 
L 382.689966 498.106865 
L 401.942591 492.756279 
L 478.953551 443.36626 
L 555.96428 409.39979 
" style="fill:none;stroke:#ffffff;stroke-linecap:square;stroke-opacity:0.8;stroke-width:1.5;"/>
   </g>
   <g id="line2d_102">
    <path clip-path="url(#pbc8d985995)" d="M 334.55822 520.325398 
L 344.184555 518.274456 
L 353.810914 516.735867 
L 363.437341 513.900762 
L 382.689966 498.106865 
L 401.942591 492.756279 
L 478.953551 443.36626 
L 555.96428 409.39979 
" style="fill:none;stroke:#9467bd;stroke-dasharray:1.5,2.475;stroke-dashoffset:0;stroke-width:1.5;"/>
   </g>
   <g id="patch_20">
    <path d="M 323.487917 530.918125 
L 323.487917 297.878125 
" style="fill:none;stroke:#000000;stroke-linecap:square;stroke-linejoin:miter;stroke-width:0.8;"/>
   </g>
   <g id="patch_21">
    <path d="M 323.487917 530.918125 
L 567.034583 530.918125 
" style="fill:none;stroke:#000000;stroke-linecap:square;stroke-linejoin:miter;stroke-width:0.8;"/>
   </g>
   <g id="text_74">
    <!-- 100 - 150 -->
    <g transform="translate(416.377813 291.878125)scale(0.12 -0.12)">
     <use xlink:href="#DejaVuSans-49"/>
     <use x="63.623047" xlink:href="#DejaVuSans-48"/>
     <use x="127.246094" xlink:href="#DejaVuSans-48"/>
     <use x="190.869141" xlink:href="#DejaVuSans-32"/>
     <use x="222.65625" xlink:href="#DejaVuSans-45"/>
     <use x="258.740234" xlink:href="#DejaVuSans-32"/>
     <use x="290.527344" xlink:href="#DejaVuSans-49"/>
     <use x="354.150391" xlink:href="#DejaVuSans-53"/>
     <use x="417.773438" xlink:href="#DejaVuSans-48"/>
    </g>
   </g>
  </g>
  <g id="axes_6">
   <g id="patch_22">
    <path d="M 603.194583 530.918125 
L 846.74125 530.918125 
L 846.74125 297.878125 
L 603.194583 297.878125 
z
" style="fill:#ffffff;"/>
   </g>
   <g id="matplotlib.axis_11">
    <g id="xtick_31">
     <g id="line2d_103">
      <g>
       <use style="stroke:#000000;stroke-width:0.8;" x="604.638528" xlink:href="#mbd5eff3b70" y="530.918125"/>
      </g>
     </g>
     <g id="text_75">
      <!-- 0.0 -->
      <g transform="translate(596.686965 545.516562)scale(0.1 -0.1)">
       <use xlink:href="#DejaVuSans-48"/>
       <use x="63.623047" xlink:href="#DejaVuSans-46"/>
       <use x="95.410156" xlink:href="#DejaVuSans-48"/>
      </g>
     </g>
    </g>
    <g id="xtick_32">
     <g id="line2d_104">
      <g>
       <use style="stroke:#000000;stroke-width:0.8;" x="650.845012" xlink:href="#mbd5eff3b70" y="530.918125"/>
      </g>
     </g>
     <g id="text_76">
      <!-- 0.2 -->
      <g transform="translate(642.893449 545.516562)scale(0.1 -0.1)">
       <use xlink:href="#DejaVuSans-48"/>
       <use x="63.623047" xlink:href="#DejaVuSans-46"/>
       <use x="95.410156" xlink:href="#DejaVuSans-50"/>
      </g>
     </g>
    </g>
    <g id="xtick_33">
     <g id="line2d_105">
      <g>
       <use style="stroke:#000000;stroke-width:0.8;" x="697.051496" xlink:href="#mbd5eff3b70" y="530.918125"/>
      </g>
     </g>
     <g id="text_77">
      <!-- 0.4 -->
      <g transform="translate(689.099933 545.516562)scale(0.1 -0.1)">
       <use xlink:href="#DejaVuSans-48"/>
       <use x="63.623047" xlink:href="#DejaVuSans-46"/>
       <use x="95.410156" xlink:href="#DejaVuSans-52"/>
      </g>
     </g>
    </g>
    <g id="xtick_34">
     <g id="line2d_106">
      <g>
       <use style="stroke:#000000;stroke-width:0.8;" x="743.257979" xlink:href="#mbd5eff3b70" y="530.918125"/>
      </g>
     </g>
     <g id="text_78">
      <!-- 0.6 -->
      <g transform="translate(735.306417 545.516562)scale(0.1 -0.1)">
       <use xlink:href="#DejaVuSans-48"/>
       <use x="63.623047" xlink:href="#DejaVuSans-46"/>
       <use x="95.410156" xlink:href="#DejaVuSans-54"/>
      </g>
     </g>
    </g>
    <g id="xtick_35">
     <g id="line2d_107">
      <g>
       <use style="stroke:#000000;stroke-width:0.8;" x="789.464463" xlink:href="#mbd5eff3b70" y="530.918125"/>
      </g>
     </g>
     <g id="text_79">
      <!-- 0.8 -->
      <g transform="translate(781.512901 545.516562)scale(0.1 -0.1)">
       <use xlink:href="#DejaVuSans-48"/>
       <use x="63.623047" xlink:href="#DejaVuSans-46"/>
       <use x="95.410156" xlink:href="#DejaVuSans-56"/>
      </g>
     </g>
    </g>
    <g id="xtick_36">
     <g id="line2d_108">
      <g>
       <use style="stroke:#000000;stroke-width:0.8;" x="835.670947" xlink:href="#mbd5eff3b70" y="530.918125"/>
      </g>
     </g>
     <g id="text_80">
      <!-- 1.0 -->
      <g transform="translate(827.719384 545.516562)scale(0.1 -0.1)">
       <use xlink:href="#DejaVuSans-49"/>
       <use x="63.623047" xlink:href="#DejaVuSans-46"/>
       <use x="95.410156" xlink:href="#DejaVuSans-48"/>
      </g>
     </g>
    </g>
    <g id="text_81">
     <!-- allele frequency -->
     <g transform="translate(684.806979 559.194687)scale(0.1 -0.1)">
      <use xlink:href="#DejaVuSans-97"/>
      <use x="61.279297" xlink:href="#DejaVuSans-108"/>
      <use x="89.0625" xlink:href="#DejaVuSans-108"/>
      <use x="116.845703" xlink:href="#DejaVuSans-101"/>
      <use x="178.369141" xlink:href="#DejaVuSans-108"/>
      <use x="206.152344" xlink:href="#DejaVuSans-101"/>
      <use x="267.675781" xlink:href="#DejaVuSans-32"/>
      <use x="299.462891" xlink:href="#DejaVuSans-102"/>
      <use x="334.667969" xlink:href="#DejaVuSans-114"/>
      <use x="375.75" xlink:href="#DejaVuSans-101"/>
      <use x="437.273438" xlink:href="#DejaVuSans-113"/>
      <use x="500.75" xlink:href="#DejaVuSans-117"/>
      <use x="564.128906" xlink:href="#DejaVuSans-101"/>
      <use x="625.652344" xlink:href="#DejaVuSans-110"/>
      <use x="689.03125" xlink:href="#DejaVuSans-99"/>
      <use x="744.011719" xlink:href="#DejaVuSans-121"/>
     </g>
    </g>
   </g>
   <g id="matplotlib.axis_12">
    <g id="ytick_27">
     <g id="line2d_109">
      <g>
       <use style="stroke:#000000;stroke-width:0.8;" x="603.194583" xlink:href="#m6aade8c164" y="483.161235"/>
      </g>
     </g>
     <g id="text_82">
      <!-- 0.2 -->
      <g transform="translate(580.291458 486.960454)scale(0.1 -0.1)">
       <use xlink:href="#DejaVuSans-48"/>
       <use x="63.623047" xlink:href="#DejaVuSans-46"/>
       <use x="95.410156" xlink:href="#DejaVuSans-50"/>
      </g>
     </g>
    </g>
    <g id="ytick_28">
     <g id="line2d_110">
      <g>
       <use style="stroke:#000000;stroke-width:0.8;" x="603.194583" xlink:href="#m6aade8c164" y="433.00261"/>
      </g>
     </g>
     <g id="text_83">
      <!-- 0.4 -->
      <g transform="translate(580.291458 436.801829)scale(0.1 -0.1)">
       <use xlink:href="#DejaVuSans-48"/>
       <use x="63.623047" xlink:href="#DejaVuSans-46"/>
       <use x="95.410156" xlink:href="#DejaVuSans-52"/>
      </g>
     </g>
    </g>
    <g id="ytick_29">
     <g id="line2d_111">
      <g>
       <use style="stroke:#000000;stroke-width:0.8;" x="603.194583" xlink:href="#m6aade8c164" y="382.843986"/>
      </g>
     </g>
     <g id="text_84">
      <!-- 0.6 -->
      <g transform="translate(580.291458 386.643204)scale(0.1 -0.1)">
       <use xlink:href="#DejaVuSans-48"/>
       <use x="63.623047" xlink:href="#DejaVuSans-46"/>
       <use x="95.410156" xlink:href="#DejaVuSans-54"/>
      </g>
     </g>
    </g>
    <g id="ytick_30">
     <g id="line2d_112">
      <g>
       <use style="stroke:#000000;stroke-width:0.8;" x="603.194583" xlink:href="#m6aade8c164" y="332.685361"/>
      </g>
     </g>
     <g id="text_85">
      <!-- 0.8 -->
      <g transform="translate(580.291458 336.48458)scale(0.1 -0.1)">
       <use xlink:href="#DejaVuSans-48"/>
       <use x="63.623047" xlink:href="#DejaVuSans-46"/>
       <use x="95.410156" xlink:href="#DejaVuSans-56"/>
      </g>
     </g>
    </g>
   </g>
   <g id="line2d_113">
    <path clip-path="url(#p00eca31f66)" d="M 614.264886 446.256962 
L 623.891222 429.596778 
L 633.51758 425.607429 
L 643.144008 406.02335 
L 662.396633 349.812696 
L 681.649257 340.141373 
L 758.660218 308.470852 
L 835.670947 310.392639 
" style="fill:none;stroke:#ffffff;stroke-linecap:square;stroke-opacity:0.8;stroke-width:1.5;"/>
   </g>
   <g id="line2d_114">
    <path clip-path="url(#p00eca31f66)" d="M 614.264886 446.256962 
L 623.891222 429.596778 
L 633.51758 425.607429 
L 643.144008 406.02335 
L 662.396633 349.812696 
L 681.649257 340.141373 
L 758.660218 308.470852 
L 835.670947 310.392639 
" style="fill:none;stroke:#1f77b4;stroke-dasharray:1.5,2.475;stroke-dashoffset:0;stroke-width:1.5;"/>
   </g>
   <g id="line2d_115">
    <path clip-path="url(#p00eca31f66)" d="M 614.264886 439.759731 
L 623.891222 423.404355 
L 633.51758 420.784484 
L 643.144008 409.823246 
L 662.396633 389.572582 
L 681.649257 394.366913 
L 758.660218 334.414969 
L 835.670947 338.258541 
" style="fill:none;stroke:#ffffff;stroke-linecap:square;stroke-opacity:0.8;stroke-width:1.5;"/>
   </g>
   <g id="line2d_116">
    <path clip-path="url(#p00eca31f66)" d="M 614.264886 439.759731 
L 623.891222 423.404355 
L 633.51758 420.784484 
L 643.144008 409.823246 
L 662.396633 389.572582 
L 681.649257 394.366913 
L 758.660218 334.414969 
L 835.670947 338.258541 
" style="fill:none;stroke:#ff7f0e;stroke-dasharray:1.5,2.475;stroke-dashoffset:0;stroke-width:1.5;"/>
   </g>
   <g id="line2d_117">
    <path clip-path="url(#p00eca31f66)" d="M 614.264886 520.325398 
L 623.891222 517.838803 
L 633.51758 517.243378 
L 643.144008 514.320381 
L 662.396633 502.735333 
L 681.649257 499.428897 
L 758.660218 446.839472 
L 835.670947 435.789201 
" style="fill:none;stroke:#ffffff;stroke-linecap:square;stroke-opacity:0.8;stroke-width:1.5;"/>
   </g>
   <g id="line2d_118">
    <path clip-path="url(#p00eca31f66)" d="M 614.264886 520.325398 
L 623.891222 517.838803 
L 633.51758 517.243378 
L 643.144008 514.320381 
L 662.396633 502.735333 
L 681.649257 499.428897 
L 758.660218 446.839472 
L 835.670947 435.789201 
" style="fill:none;stroke:#2ca02c;stroke-dasharray:1.5,2.475;stroke-dashoffset:0;stroke-width:1.5;"/>
   </g>
   <g id="line2d_119">
    <path clip-path="url(#p00eca31f66)" d="M 614.264886 520.325398 
L 623.891222 517.838803 
L 633.51758 517.243378 
L 643.144008 514.320381 
L 662.396633 502.735333 
L 681.649257 499.428897 
L 758.660218 446.839472 
L 835.670947 435.789201 
" style="fill:none;stroke:#ffffff;stroke-linecap:square;stroke-opacity:0.8;stroke-width:1.5;"/>
   </g>
   <g id="line2d_120">
    <path clip-path="url(#p00eca31f66)" d="M 614.264886 520.325398 
L 623.891222 517.838803 
L 633.51758 517.243378 
L 643.144008 514.320381 
L 662.396633 502.735333 
L 681.649257 499.428897 
L 758.660218 446.839472 
L 835.670947 435.789201 
" style="fill:none;stroke:#9467bd;stroke-dasharray:1.5,2.475;stroke-dashoffset:0;stroke-width:1.5;"/>
   </g>
   <g id="patch_23">
    <path d="M 603.194583 530.918125 
L 603.194583 297.878125 
" style="fill:none;stroke:#000000;stroke-linecap:square;stroke-linejoin:miter;stroke-width:0.8;"/>
   </g>
   <g id="patch_24">
    <path d="M 603.194583 530.918125 
L 846.74125 530.918125 
" style="fill:none;stroke:#000000;stroke-linecap:square;stroke-linejoin:miter;stroke-width:0.8;"/>
   </g>
   <g id="text_86">
    <!-- 150 - 250 -->
    <g transform="translate(696.084479 291.878125)scale(0.12 -0.12)">
     <use xlink:href="#DejaVuSans-49"/>
     <use x="63.623047" xlink:href="#DejaVuSans-53"/>
     <use x="127.246094" xlink:href="#DejaVuSans-48"/>
     <use x="190.869141" xlink:href="#DejaVuSans-32"/>
     <use x="222.65625" xlink:href="#DejaVuSans-45"/>
     <use x="258.740234" xlink:href="#DejaVuSans-32"/>
     <use x="290.527344" xlink:href="#DejaVuSans-50"/>
     <use x="354.150391" xlink:href="#DejaVuSans-53"/>
     <use x="417.773438" xlink:href="#DejaVuSans-48"/>
    </g>
   </g>
  </g>
 </g>
 <defs>
  <clipPath id="p97081bf0d7">
   <rect height="233.04" width="243.546667" x="43.78125" y="22.318125"/>
  </clipPath>
  <clipPath id="p7104f525ac">
   <rect height="233.04" width="243.546667" x="323.487917" y="22.318125"/>
  </clipPath>
  <clipPath id="p379f74ea69">
   <rect height="233.04" width="243.546667" x="603.194583" y="22.318125"/>
  </clipPath>
  <clipPath id="pcc3f051b2a">
   <rect height="233.04" width="243.546667" x="43.78125" y="297.878125"/>
  </clipPath>
  <clipPath id="pbc8d985995">
   <rect height="233.04" width="243.546667" x="323.487917" y="297.878125"/>
  </clipPath>
  <clipPath id="p00eca31f66">
   <rect height="233.04" width="243.546667" x="603.194583" y="297.878125"/>
  </clipPath>
 </defs>
</svg>
