<?xml version="1.0" encoding="utf-8" standalone="no"?>
<!DOCTYPE svg PUBLIC "-//W3C//DTD SVG 1.1//EN"
  "http://www.w3.org/Graphics/SVG/1.1/DTD/svg11.dtd">
<!-- Created with matplotlib (https://matplotlib.org/) -->
<svg height="280.474375pt" version="1.1" viewBox="0 0 1145.44125 280.474375" width="1145.44125pt" xmlns="http://www.w3.org/2000/svg" xmlns:xlink="http://www.w3.org/1999/xlink">
 <defs>
  <style type="text/css">
*{stroke-linecap:butt;stroke-linejoin:round;}
  </style>
 </defs>
 <g id="figure_1">
  <g id="patch_1">
   <path d="M 0 280.474375 
L 1145.44125 280.474375 
L 1145.44125 0 
L 0 0 
z
" style="fill:#ffffff;"/>
  </g>
  <g id="axes_1">
   <g id="patch_2">
    <path d="M 43.78125 242.918125 
L 289.40125 242.918125 
L 289.40125 22.318125 
L 43.78125 22.318125 
z
" style="fill:#ffffff;"/>
   </g>
   <g id="PolyCollection_1">
    <defs>
     <path d="M 54.945795 -47.717028 
L 54.945795 -47.684858 
L 64.654081 -47.876109 
L 74.362389 -47.989159 
L 84.070768 -48.242262 
L 103.487291 -49.095696 
L 122.903815 -49.39334 
L 200.570376 -50.791918 
L 278.236705 -50.829039 
L 278.236705 -51.214759 
L 278.236705 -51.214759 
L 200.570376 -51.008838 
L 122.903815 -49.489806 
L 103.487291 -49.176127 
L 84.070768 -48.290476 
L 74.362389 -48.029359 
L 64.654081 -47.913228 
L 54.945795 -47.717028 
z
" id="m0d836ce738" style="stroke:#1f77b4;stroke-opacity:0.6;"/>
    </defs>
    <g clip-path="url(#pe51cc35aca)">
     <use style="fill:#1f77b4;fill-opacity:0.6;stroke:#1f77b4;stroke-opacity:0.6;" x="0" xlink:href="#m0d836ce738" y="280.474375"/>
    </g>
   </g>
   <g id="PolyCollection_2">
    <defs>
     <path d="M 54.945795 -179.239014 
L 54.945795 -176.23595 
L 64.654081 -192.997314 
L 74.362389 -200.019315 
L 84.070768 -210.185817 
L 103.487291 -229.871172 
L 122.903815 -233.122604 
L 200.570376 -238.078345 
L 278.236705 -233.636386 
L 278.236705 -243.279395 
L 278.236705 -243.279395 
L 200.570376 -243.30853 
L 122.903815 -237.130769 
L 103.487291 -233.872587 
L 84.070768 -213.927222 
L 74.362389 -203.611133 
L 64.654081 -196.408481 
L 54.945795 -179.239014 
z
" id="m231aed1dc6" style="stroke:#ff7f0e;stroke-opacity:0.6;"/>
    </defs>
    <g clip-path="url(#pe51cc35aca)">
     <use style="fill:#ff7f0e;fill-opacity:0.6;stroke:#ff7f0e;stroke-opacity:0.6;" x="0" xlink:href="#m231aed1dc6" y="280.474375"/>
    </g>
   </g>
   <g id="PolyCollection_3">
    <defs>
     <path d="M 54.945795 -52.806313 
L 54.945795 -52.674416 
L 64.654081 -53.590463 
L 74.362389 -54.09143 
L 84.070768 -55.122398 
L 103.487291 -57.939024 
L 122.903815 -58.866308 
L 200.570376 -62.758678 
L 278.236705 -62.834585 
L 278.236705 -64.232822 
L 278.236705 -64.232822 
L 200.570376 -63.517899 
L 122.903815 -59.213586 
L 103.487291 -58.228574 
L 84.070768 -55.308022 
L 74.362389 -54.254238 
L 64.654081 -53.742648 
L 54.945795 -52.806313 
z
" id="mbdea7ee614" style="stroke:#2ca02c;stroke-opacity:0.6;"/>
    </defs>
    <g clip-path="url(#pe51cc35aca)">
     <use style="fill:#2ca02c;fill-opacity:0.6;stroke:#2ca02c;stroke-opacity:0.6;" x="0" xlink:href="#mbdea7ee614" y="280.474375"/>
    </g>
   </g>
   <g id="PolyCollection_4">
    <defs>
     <path d="M 54.945795 -170.997075 
L 54.945795 -167.989185 
L 64.654081 -185.679452 
L 74.362389 -194.23462 
L 84.070768 -207.683511 
L 103.487291 -233.916824 
L 122.903815 -237.521456 
L 200.570376 -241.356249 
L 278.236705 -236.481073 
L 278.236705 -246.895523 
L 278.236705 -246.895523 
L 200.570376 -247.08053 
L 122.903815 -241.978188 
L 103.487291 -238.31637 
L 84.070768 -211.586433 
L 74.362389 -197.900806 
L 64.654081 -189.133305 
L 54.945795 -170.997075 
z
" id="m2dc1131823" style="stroke:#d62728;stroke-opacity:0.6;"/>
    </defs>
    <g clip-path="url(#pe51cc35aca)">
     <use style="fill:#d62728;fill-opacity:0.6;stroke:#d62728;stroke-opacity:0.6;" x="0" xlink:href="#m2dc1131823" y="280.474375"/>
    </g>
   </g>
   <g id="matplotlib.axis_1">
    <g id="xtick_1">
     <g id="line2d_1">
      <defs>
       <path d="M 0 0 
L 0 3.5 
" id="m0144347dc1" style="stroke:#000000;stroke-width:0.8;"/>
      </defs>
      <g>
       <use style="stroke:#000000;stroke-width:0.8;" x="45.237487" xlink:href="#m0144347dc1" y="242.918125"/>
      </g>
     </g>
     <g id="text_1">
      <!-- 0.0 -->
      <defs>
       <path d="M 31.78125 66.40625 
Q 24.171875 66.40625 20.328125 58.90625 
Q 16.5 51.421875 16.5 36.375 
Q 16.5 21.390625 20.328125 13.890625 
Q 24.171875 6.390625 31.78125 6.390625 
Q 39.453125 6.390625 43.28125 13.890625 
Q 47.125 21.390625 47.125 36.375 
Q 47.125 51.421875 43.28125 58.90625 
Q 39.453125 66.40625 31.78125 66.40625 
z
M 31.78125 74.21875 
Q 44.046875 74.21875 50.515625 64.515625 
Q 56.984375 54.828125 56.984375 36.375 
Q 56.984375 17.96875 50.515625 8.265625 
Q 44.046875 -1.421875 31.78125 -1.421875 
Q 19.53125 -1.421875 13.0625 8.265625 
Q 6.59375 17.96875 6.59375 36.375 
Q 6.59375 54.828125 13.0625 64.515625 
Q 19.53125 74.21875 31.78125 74.21875 
z
" id="DejaVuSans-48"/>
       <path d="M 10.6875 12.40625 
L 21 12.40625 
L 21 0 
L 10.6875 0 
z
" id="DejaVuSans-46"/>
      </defs>
      <g transform="translate(37.285924 257.516563)scale(0.1 -0.1)">
       <use xlink:href="#DejaVuSans-48"/>
       <use x="63.623047" xlink:href="#DejaVuSans-46"/>
       <use x="95.410156" xlink:href="#DejaVuSans-48"/>
      </g>
     </g>
    </g>
    <g id="xtick_2">
     <g id="line2d_2">
      <g>
       <use style="stroke:#000000;stroke-width:0.8;" x="91.83733" xlink:href="#m0144347dc1" y="242.918125"/>
      </g>
     </g>
     <g id="text_2">
      <!-- 0.2 -->
      <defs>
       <path d="M 19.1875 8.296875 
L 53.609375 8.296875 
L 53.609375 0 
L 7.328125 0 
L 7.328125 8.296875 
Q 12.9375 14.109375 22.625 23.890625 
Q 32.328125 33.6875 34.8125 36.53125 
Q 39.546875 41.84375 41.421875 45.53125 
Q 43.3125 49.21875 43.3125 52.78125 
Q 43.3125 58.59375 39.234375 62.25 
Q 35.15625 65.921875 28.609375 65.921875 
Q 23.96875 65.921875 18.8125 64.3125 
Q 13.671875 62.703125 7.8125 59.421875 
L 7.8125 69.390625 
Q 13.765625 71.78125 18.9375 73 
Q 24.125 74.21875 28.421875 74.21875 
Q 39.75 74.21875 46.484375 68.546875 
Q 53.21875 62.890625 53.21875 53.421875 
Q 53.21875 48.921875 51.53125 44.890625 
Q 49.859375 40.875 45.40625 35.40625 
Q 44.1875 33.984375 37.640625 27.21875 
Q 31.109375 20.453125 19.1875 8.296875 
z
" id="DejaVuSans-50"/>
      </defs>
      <g transform="translate(83.885768 257.516563)scale(0.1 -0.1)">
       <use xlink:href="#DejaVuSans-48"/>
       <use x="63.623047" xlink:href="#DejaVuSans-46"/>
       <use x="95.410156" xlink:href="#DejaVuSans-50"/>
      </g>
     </g>
    </g>
    <g id="xtick_3">
     <g id="line2d_3">
      <g>
       <use style="stroke:#000000;stroke-width:0.8;" x="138.437174" xlink:href="#m0144347dc1" y="242.918125"/>
      </g>
     </g>
     <g id="text_3">
      <!-- 0.4 -->
      <defs>
       <path d="M 37.796875 64.3125 
L 12.890625 25.390625 
L 37.796875 25.390625 
z
M 35.203125 72.90625 
L 47.609375 72.90625 
L 47.609375 25.390625 
L 58.015625 25.390625 
L 58.015625 17.1875 
L 47.609375 17.1875 
L 47.609375 0 
L 37.796875 0 
L 37.796875 17.1875 
L 4.890625 17.1875 
L 4.890625 26.703125 
z
" id="DejaVuSans-52"/>
      </defs>
      <g transform="translate(130.485611 257.516563)scale(0.1 -0.1)">
       <use xlink:href="#DejaVuSans-48"/>
       <use x="63.623047" xlink:href="#DejaVuSans-46"/>
       <use x="95.410156" xlink:href="#DejaVuSans-52"/>
      </g>
     </g>
    </g>
    <g id="xtick_4">
     <g id="line2d_4">
      <g>
       <use style="stroke:#000000;stroke-width:0.8;" x="185.037018" xlink:href="#m0144347dc1" y="242.918125"/>
      </g>
     </g>
     <g id="text_4">
      <!-- 0.6 -->
      <defs>
       <path d="M 33.015625 40.375 
Q 26.375 40.375 22.484375 35.828125 
Q 18.609375 31.296875 18.609375 23.390625 
Q 18.609375 15.53125 22.484375 10.953125 
Q 26.375 6.390625 33.015625 6.390625 
Q 39.65625 6.390625 43.53125 10.953125 
Q 47.40625 15.53125 47.40625 23.390625 
Q 47.40625 31.296875 43.53125 35.828125 
Q 39.65625 40.375 33.015625 40.375 
z
M 52.59375 71.296875 
L 52.59375 62.3125 
Q 48.875 64.0625 45.09375 64.984375 
Q 41.3125 65.921875 37.59375 65.921875 
Q 27.828125 65.921875 22.671875 59.328125 
Q 17.53125 52.734375 16.796875 39.40625 
Q 19.671875 43.65625 24.015625 45.921875 
Q 28.375 48.1875 33.59375 48.1875 
Q 44.578125 48.1875 50.953125 41.515625 
Q 57.328125 34.859375 57.328125 23.390625 
Q 57.328125 12.15625 50.6875 5.359375 
Q 44.046875 -1.421875 33.015625 -1.421875 
Q 20.359375 -1.421875 13.671875 8.265625 
Q 6.984375 17.96875 6.984375 36.375 
Q 6.984375 53.65625 15.1875 63.9375 
Q 23.390625 74.21875 37.203125 74.21875 
Q 40.921875 74.21875 44.703125 73.484375 
Q 48.484375 72.75 52.59375 71.296875 
z
" id="DejaVuSans-54"/>
      </defs>
      <g transform="translate(177.085455 257.516563)scale(0.1 -0.1)">
       <use xlink:href="#DejaVuSans-48"/>
       <use x="63.623047" xlink:href="#DejaVuSans-46"/>
       <use x="95.410156" xlink:href="#DejaVuSans-54"/>
      </g>
     </g>
    </g>
    <g id="xtick_5">
     <g id="line2d_5">
      <g>
       <use style="stroke:#000000;stroke-width:0.8;" x="231.636861" xlink:href="#m0144347dc1" y="242.918125"/>
      </g>
     </g>
     <g id="text_5">
      <!-- 0.8 -->
      <defs>
       <path d="M 31.78125 34.625 
Q 24.75 34.625 20.71875 30.859375 
Q 16.703125 27.09375 16.703125 20.515625 
Q 16.703125 13.921875 20.71875 10.15625 
Q 24.75 6.390625 31.78125 6.390625 
Q 38.8125 6.390625 42.859375 10.171875 
Q 46.921875 13.96875 46.921875 20.515625 
Q 46.921875 27.09375 42.890625 30.859375 
Q 38.875 34.625 31.78125 34.625 
z
M 21.921875 38.8125 
Q 15.578125 40.375 12.03125 44.71875 
Q 8.5 49.078125 8.5 55.328125 
Q 8.5 64.0625 14.71875 69.140625 
Q 20.953125 74.21875 31.78125 74.21875 
Q 42.671875 74.21875 48.875 69.140625 
Q 55.078125 64.0625 55.078125 55.328125 
Q 55.078125 49.078125 51.53125 44.71875 
Q 48 40.375 41.703125 38.8125 
Q 48.828125 37.15625 52.796875 32.3125 
Q 56.78125 27.484375 56.78125 20.515625 
Q 56.78125 9.90625 50.3125 4.234375 
Q 43.84375 -1.421875 31.78125 -1.421875 
Q 19.734375 -1.421875 13.25 4.234375 
Q 6.78125 9.90625 6.78125 20.515625 
Q 6.78125 27.484375 10.78125 32.3125 
Q 14.796875 37.15625 21.921875 38.8125 
z
M 18.3125 54.390625 
Q 18.3125 48.734375 21.84375 45.5625 
Q 25.390625 42.390625 31.78125 42.390625 
Q 38.140625 42.390625 41.71875 45.5625 
Q 45.3125 48.734375 45.3125 54.390625 
Q 45.3125 60.0625 41.71875 63.234375 
Q 38.140625 66.40625 31.78125 66.40625 
Q 25.390625 66.40625 21.84375 63.234375 
Q 18.3125 60.0625 18.3125 54.390625 
z
" id="DejaVuSans-56"/>
      </defs>
      <g transform="translate(223.685299 257.516563)scale(0.1 -0.1)">
       <use xlink:href="#DejaVuSans-48"/>
       <use x="63.623047" xlink:href="#DejaVuSans-46"/>
       <use x="95.410156" xlink:href="#DejaVuSans-56"/>
      </g>
     </g>
    </g>
    <g id="xtick_6">
     <g id="line2d_6">
      <g>
       <use style="stroke:#000000;stroke-width:0.8;" x="278.236705" xlink:href="#m0144347dc1" y="242.918125"/>
      </g>
     </g>
     <g id="text_6">
      <!-- 1.0 -->
      <defs>
       <path d="M 12.40625 8.296875 
L 28.515625 8.296875 
L 28.515625 63.921875 
L 10.984375 60.40625 
L 10.984375 69.390625 
L 28.421875 72.90625 
L 38.28125 72.90625 
L 38.28125 8.296875 
L 54.390625 8.296875 
L 54.390625 0 
L 12.40625 0 
z
" id="DejaVuSans-49"/>
      </defs>
      <g transform="translate(270.285142 257.516563)scale(0.1 -0.1)">
       <use xlink:href="#DejaVuSans-49"/>
       <use x="63.623047" xlink:href="#DejaVuSans-46"/>
       <use x="95.410156" xlink:href="#DejaVuSans-48"/>
      </g>
     </g>
    </g>
    <g id="text_7">
     <!-- allele frequency -->
     <defs>
      <path d="M 34.28125 27.484375 
Q 23.390625 27.484375 19.1875 25 
Q 14.984375 22.515625 14.984375 16.5 
Q 14.984375 11.71875 18.140625 8.90625 
Q 21.296875 6.109375 26.703125 6.109375 
Q 34.1875 6.109375 38.703125 11.40625 
Q 43.21875 16.703125 43.21875 25.484375 
L 43.21875 27.484375 
z
M 52.203125 31.203125 
L 52.203125 0 
L 43.21875 0 
L 43.21875 8.296875 
Q 40.140625 3.328125 35.546875 0.953125 
Q 30.953125 -1.421875 24.3125 -1.421875 
Q 15.921875 -1.421875 10.953125 3.296875 
Q 6 8.015625 6 15.921875 
Q 6 25.140625 12.171875 29.828125 
Q 18.359375 34.515625 30.609375 34.515625 
L 43.21875 34.515625 
L 43.21875 35.40625 
Q 43.21875 41.609375 39.140625 45 
Q 35.0625 48.390625 27.6875 48.390625 
Q 23 48.390625 18.546875 47.265625 
Q 14.109375 46.140625 10.015625 43.890625 
L 10.015625 52.203125 
Q 14.9375 54.109375 19.578125 55.046875 
Q 24.21875 56 28.609375 56 
Q 40.484375 56 46.34375 49.84375 
Q 52.203125 43.703125 52.203125 31.203125 
z
" id="DejaVuSans-97"/>
      <path d="M 9.421875 75.984375 
L 18.40625 75.984375 
L 18.40625 0 
L 9.421875 0 
z
" id="DejaVuSans-108"/>
      <path d="M 56.203125 29.59375 
L 56.203125 25.203125 
L 14.890625 25.203125 
Q 15.484375 15.921875 20.484375 11.0625 
Q 25.484375 6.203125 34.421875 6.203125 
Q 39.59375 6.203125 44.453125 7.46875 
Q 49.3125 8.734375 54.109375 11.28125 
L 54.109375 2.78125 
Q 49.265625 0.734375 44.1875 -0.34375 
Q 39.109375 -1.421875 33.890625 -1.421875 
Q 20.796875 -1.421875 13.15625 6.1875 
Q 5.515625 13.8125 5.515625 26.8125 
Q 5.515625 40.234375 12.765625 48.109375 
Q 20.015625 56 32.328125 56 
Q 43.359375 56 49.78125 48.890625 
Q 56.203125 41.796875 56.203125 29.59375 
z
M 47.21875 32.234375 
Q 47.125 39.59375 43.09375 43.984375 
Q 39.0625 48.390625 32.421875 48.390625 
Q 24.90625 48.390625 20.390625 44.140625 
Q 15.875 39.890625 15.1875 32.171875 
z
" id="DejaVuSans-101"/>
      <path id="DejaVuSans-32"/>
      <path d="M 37.109375 75.984375 
L 37.109375 68.5 
L 28.515625 68.5 
Q 23.6875 68.5 21.796875 66.546875 
Q 19.921875 64.59375 19.921875 59.515625 
L 19.921875 54.6875 
L 34.71875 54.6875 
L 34.71875 47.703125 
L 19.921875 47.703125 
L 19.921875 0 
L 10.890625 0 
L 10.890625 47.703125 
L 2.296875 47.703125 
L 2.296875 54.6875 
L 10.890625 54.6875 
L 10.890625 58.5 
Q 10.890625 67.625 15.140625 71.796875 
Q 19.390625 75.984375 28.609375 75.984375 
z
" id="DejaVuSans-102"/>
      <path d="M 41.109375 46.296875 
Q 39.59375 47.171875 37.8125 47.578125 
Q 36.03125 48 33.890625 48 
Q 26.265625 48 22.1875 43.046875 
Q 18.109375 38.09375 18.109375 28.8125 
L 18.109375 0 
L 9.078125 0 
L 9.078125 54.6875 
L 18.109375 54.6875 
L 18.109375 46.1875 
Q 20.953125 51.171875 25.484375 53.578125 
Q 30.03125 56 36.53125 56 
Q 37.453125 56 38.578125 55.875 
Q 39.703125 55.765625 41.0625 55.515625 
z
" id="DejaVuSans-114"/>
      <path d="M 14.796875 27.296875 
Q 14.796875 17.390625 18.875 11.75 
Q 22.953125 6.109375 30.078125 6.109375 
Q 37.203125 6.109375 41.296875 11.75 
Q 45.40625 17.390625 45.40625 27.296875 
Q 45.40625 37.203125 41.296875 42.84375 
Q 37.203125 48.484375 30.078125 48.484375 
Q 22.953125 48.484375 18.875 42.84375 
Q 14.796875 37.203125 14.796875 27.296875 
z
M 45.40625 8.203125 
Q 42.578125 3.328125 38.25 0.953125 
Q 33.9375 -1.421875 27.875 -1.421875 
Q 17.96875 -1.421875 11.734375 6.484375 
Q 5.515625 14.40625 5.515625 27.296875 
Q 5.515625 40.1875 11.734375 48.09375 
Q 17.96875 56 27.875 56 
Q 33.9375 56 38.25 53.625 
Q 42.578125 51.265625 45.40625 46.390625 
L 45.40625 54.6875 
L 54.390625 54.6875 
L 54.390625 -20.796875 
L 45.40625 -20.796875 
z
" id="DejaVuSans-113"/>
      <path d="M 8.5 21.578125 
L 8.5 54.6875 
L 17.484375 54.6875 
L 17.484375 21.921875 
Q 17.484375 14.15625 20.5 10.265625 
Q 23.53125 6.390625 29.59375 6.390625 
Q 36.859375 6.390625 41.078125 11.03125 
Q 45.3125 15.671875 45.3125 23.6875 
L 45.3125 54.6875 
L 54.296875 54.6875 
L 54.296875 0 
L 45.3125 0 
L 45.3125 8.40625 
Q 42.046875 3.421875 37.71875 1 
Q 33.40625 -1.421875 27.6875 -1.421875 
Q 18.265625 -1.421875 13.375 4.4375 
Q 8.5 10.296875 8.5 21.578125 
z
M 31.109375 56 
z
" id="DejaVuSans-117"/>
      <path d="M 54.890625 33.015625 
L 54.890625 0 
L 45.90625 0 
L 45.90625 32.71875 
Q 45.90625 40.484375 42.875 44.328125 
Q 39.84375 48.1875 33.796875 48.1875 
Q 26.515625 48.1875 22.3125 43.546875 
Q 18.109375 38.921875 18.109375 30.90625 
L 18.109375 0 
L 9.078125 0 
L 9.078125 54.6875 
L 18.109375 54.6875 
L 18.109375 46.1875 
Q 21.34375 51.125 25.703125 53.5625 
Q 30.078125 56 35.796875 56 
Q 45.21875 56 50.046875 50.171875 
Q 54.890625 44.34375 54.890625 33.015625 
z
" id="DejaVuSans-110"/>
      <path d="M 48.78125 52.59375 
L 48.78125 44.1875 
Q 44.96875 46.296875 41.140625 47.34375 
Q 37.3125 48.390625 33.40625 48.390625 
Q 24.65625 48.390625 19.8125 42.84375 
Q 14.984375 37.3125 14.984375 27.296875 
Q 14.984375 17.28125 19.8125 11.734375 
Q 24.65625 6.203125 33.40625 6.203125 
Q 37.3125 6.203125 41.140625 7.25 
Q 44.96875 8.296875 48.78125 10.40625 
L 48.78125 2.09375 
Q 45.015625 0.34375 40.984375 -0.53125 
Q 36.96875 -1.421875 32.421875 -1.421875 
Q 20.0625 -1.421875 12.78125 6.34375 
Q 5.515625 14.109375 5.515625 27.296875 
Q 5.515625 40.671875 12.859375 48.328125 
Q 20.21875 56 33.015625 56 
Q 37.15625 56 41.109375 55.140625 
Q 45.0625 54.296875 48.78125 52.59375 
z
" id="DejaVuSans-99"/>
      <path d="M 32.171875 -5.078125 
Q 28.375 -14.84375 24.75 -17.8125 
Q 21.140625 -20.796875 15.09375 -20.796875 
L 7.90625 -20.796875 
L 7.90625 -13.28125 
L 13.1875 -13.28125 
Q 16.890625 -13.28125 18.9375 -11.515625 
Q 21 -9.765625 23.484375 -3.21875 
L 25.09375 0.875 
L 2.984375 54.6875 
L 12.5 54.6875 
L 29.59375 11.921875 
L 46.6875 54.6875 
L 56.203125 54.6875 
z
" id="DejaVuSans-121"/>
     </defs>
     <g transform="translate(126.430313 271.194687)scale(0.1 -0.1)">
      <use xlink:href="#DejaVuSans-97"/>
      <use x="61.279297" xlink:href="#DejaVuSans-108"/>
      <use x="89.0625" xlink:href="#DejaVuSans-108"/>
      <use x="116.845703" xlink:href="#DejaVuSans-101"/>
      <use x="178.369141" xlink:href="#DejaVuSans-108"/>
      <use x="206.152344" xlink:href="#DejaVuSans-101"/>
      <use x="267.675781" xlink:href="#DejaVuSans-32"/>
      <use x="299.462891" xlink:href="#DejaVuSans-102"/>
      <use x="334.667969" xlink:href="#DejaVuSans-114"/>
      <use x="375.75" xlink:href="#DejaVuSans-101"/>
      <use x="437.273438" xlink:href="#DejaVuSans-113"/>
      <use x="500.75" xlink:href="#DejaVuSans-117"/>
      <use x="564.128906" xlink:href="#DejaVuSans-101"/>
      <use x="625.652344" xlink:href="#DejaVuSans-110"/>
      <use x="689.03125" xlink:href="#DejaVuSans-99"/>
      <use x="744.011719" xlink:href="#DejaVuSans-121"/>
     </g>
    </g>
   </g>
   <g id="matplotlib.axis_2">
    <g id="ytick_1">
     <g id="line2d_7">
      <defs>
       <path d="M 0 0 
L -3.5 0 
" id="m648920ebb4" style="stroke:#000000;stroke-width:0.8;"/>
      </defs>
      <g>
       <use style="stroke:#000000;stroke-width:0.8;" x="43.78125" xlink:href="#m648920ebb4" y="234.057013"/>
      </g>
     </g>
     <g id="text_8">
      <!-- 0.0 -->
      <g transform="translate(20.878125 237.856231)scale(0.1 -0.1)">
       <use xlink:href="#DejaVuSans-48"/>
       <use x="63.623047" xlink:href="#DejaVuSans-46"/>
       <use x="95.410156" xlink:href="#DejaVuSans-48"/>
      </g>
     </g>
    </g>
    <g id="ytick_2">
     <g id="line2d_8">
      <g>
       <use style="stroke:#000000;stroke-width:0.8;" x="43.78125" xlink:href="#m648920ebb4" y="190.094534"/>
      </g>
     </g>
     <g id="text_9">
      <!-- 0.2 -->
      <g transform="translate(20.878125 193.893753)scale(0.1 -0.1)">
       <use xlink:href="#DejaVuSans-48"/>
       <use x="63.623047" xlink:href="#DejaVuSans-46"/>
       <use x="95.410156" xlink:href="#DejaVuSans-50"/>
      </g>
     </g>
    </g>
    <g id="ytick_3">
     <g id="line2d_9">
      <g>
       <use style="stroke:#000000;stroke-width:0.8;" x="43.78125" xlink:href="#m648920ebb4" y="146.132055"/>
      </g>
     </g>
     <g id="text_10">
      <!-- 0.4 -->
      <g transform="translate(20.878125 149.931274)scale(0.1 -0.1)">
       <use xlink:href="#DejaVuSans-48"/>
       <use x="63.623047" xlink:href="#DejaVuSans-46"/>
       <use x="95.410156" xlink:href="#DejaVuSans-52"/>
      </g>
     </g>
    </g>
    <g id="ytick_4">
     <g id="line2d_10">
      <g>
       <use style="stroke:#000000;stroke-width:0.8;" x="43.78125" xlink:href="#m648920ebb4" y="102.169576"/>
      </g>
     </g>
     <g id="text_11">
      <!-- 0.6 -->
      <g transform="translate(20.878125 105.968795)scale(0.1 -0.1)">
       <use xlink:href="#DejaVuSans-48"/>
       <use x="63.623047" xlink:href="#DejaVuSans-46"/>
       <use x="95.410156" xlink:href="#DejaVuSans-54"/>
      </g>
     </g>
    </g>
    <g id="ytick_5">
     <g id="line2d_11">
      <g>
       <use style="stroke:#000000;stroke-width:0.8;" x="43.78125" xlink:href="#m648920ebb4" y="58.207097"/>
      </g>
     </g>
     <g id="text_12">
      <!-- 0.8 -->
      <g transform="translate(20.878125 62.006316)scale(0.1 -0.1)">
       <use xlink:href="#DejaVuSans-48"/>
       <use x="63.623047" xlink:href="#DejaVuSans-46"/>
       <use x="95.410156" xlink:href="#DejaVuSans-56"/>
      </g>
     </g>
    </g>
    <g id="text_13">
     <!-- recall -->
     <g transform="translate(14.798438 146.34)rotate(-90)scale(0.1 -0.1)">
      <use xlink:href="#DejaVuSans-114"/>
      <use x="41.082031" xlink:href="#DejaVuSans-101"/>
      <use x="102.605469" xlink:href="#DejaVuSans-99"/>
      <use x="157.585938" xlink:href="#DejaVuSans-97"/>
      <use x="218.865234" xlink:href="#DejaVuSans-108"/>
      <use x="246.648438" xlink:href="#DejaVuSans-108"/>
     </g>
    </g>
   </g>
   <g id="line2d_12">
    <path clip-path="url(#pe51cc35aca)" d="M 54.945795 232.890852 
L 64.654081 232.711476 
L 74.362389 232.605814 
L 84.070768 232.347827 
L 103.487291 231.451066 
L 122.903815 231.134091 
L 200.570376 229.573997 
L 278.236705 229.404261 
" style="fill:none;stroke:#ffffff;stroke-linecap:square;stroke-opacity:0.8;stroke-width:1.5;"/>
   </g>
   <g id="line2d_13">
    <path clip-path="url(#pe51cc35aca)" d="M 54.945795 232.890852 
L 64.654081 232.711476 
L 74.362389 232.605814 
L 84.070768 232.347827 
L 103.487291 231.451066 
L 122.903815 231.134091 
L 200.570376 229.573997 
L 278.236705 229.404261 
" style="fill:none;stroke:#1f77b4;stroke-dasharray:1.5,2.475;stroke-dashoffset:0;stroke-width:1.5;"/>
   </g>
   <g id="line2d_14">
    <path clip-path="url(#pe51cc35aca)" d="M 54.945795 151.56202 
L 64.654081 139.652323 
L 74.362389 133.675061 
L 84.070768 122.735735 
L 103.487291 94.381496 
L 122.903815 86.888387 
L 200.570376 59.580925 
L 278.236705 53.419343 
" style="fill:none;stroke:#ffffff;stroke-linecap:square;stroke-opacity:0.8;stroke-width:1.5;"/>
   </g>
   <g id="line2d_15">
    <path clip-path="url(#pe51cc35aca)" d="M 54.945795 151.56202 
L 64.654081 139.652323 
L 74.362389 133.675061 
L 84.070768 122.735735 
L 103.487291 94.381496 
L 122.903815 86.888387 
L 200.570376 59.580925 
L 278.236705 53.419343 
" style="fill:none;stroke:#ff7f0e;stroke-dasharray:1.5,2.475;stroke-dashoffset:0;stroke-width:1.5;"/>
   </g>
   <g id="line2d_16">
    <path clip-path="url(#pe51cc35aca)" d="M 54.945795 111.849834 
L 64.654081 93.813145 
L 74.362389 84.909155 
L 84.070768 70.580253 
L 103.487291 41.405981 
L 122.903815 37.709988 
L 200.570376 32.345398 
L 278.236705 32.518121 
" style="fill:none;stroke:#ffffff;stroke-linecap:square;stroke-opacity:0.8;stroke-width:1.5;"/>
   </g>
   <g id="line2d_17">
    <path clip-path="url(#pe51cc35aca)" d="M 54.945795 111.849834 
L 64.654081 93.813145 
L 74.362389 84.909155 
L 84.070768 70.580253 
L 103.487291 41.405981 
L 122.903815 37.709988 
L 200.570376 32.345398 
L 278.236705 32.518121 
" style="fill:none;stroke:#d62728;stroke-dasharray:1.5,2.475;stroke-dashoffset:0;stroke-width:1.5;"/>
   </g>
   <g id="patch_3">
    <path d="M 43.78125 242.918125 
L 43.78125 22.318125 
" style="fill:none;stroke:#000000;stroke-linecap:square;stroke-linejoin:miter;stroke-width:0.8;"/>
   </g>
   <g id="patch_4">
    <path d="M 43.78125 242.918125 
L 289.40125 242.918125 
" style="fill:none;stroke:#000000;stroke-linecap:square;stroke-linejoin:miter;stroke-width:0.8;"/>
   </g>
   <g id="text_14">
    <!-- 1 - 30 -->
    <defs>
     <path d="M 4.890625 31.390625 
L 31.203125 31.390625 
L 31.203125 23.390625 
L 4.890625 23.390625 
z
" id="DejaVuSans-45"/>
     <path d="M 40.578125 39.3125 
Q 47.65625 37.796875 51.625 33 
Q 55.609375 28.21875 55.609375 21.1875 
Q 55.609375 10.40625 48.1875 4.484375 
Q 40.765625 -1.421875 27.09375 -1.421875 
Q 22.515625 -1.421875 17.65625 -0.515625 
Q 12.796875 0.390625 7.625 2.203125 
L 7.625 11.71875 
Q 11.71875 9.328125 16.59375 8.109375 
Q 21.484375 6.890625 26.8125 6.890625 
Q 36.078125 6.890625 40.9375 10.546875 
Q 45.796875 14.203125 45.796875 21.1875 
Q 45.796875 27.640625 41.28125 31.265625 
Q 36.765625 34.90625 28.71875 34.90625 
L 20.21875 34.90625 
L 20.21875 43.015625 
L 29.109375 43.015625 
Q 36.375 43.015625 40.234375 45.921875 
Q 44.09375 48.828125 44.09375 54.296875 
Q 44.09375 59.90625 40.109375 62.90625 
Q 36.140625 65.921875 28.71875 65.921875 
Q 24.65625 65.921875 20.015625 65.03125 
Q 15.375 64.15625 9.8125 62.3125 
L 9.8125 71.09375 
Q 15.4375 72.65625 20.34375 73.4375 
Q 25.25 74.21875 29.59375 74.21875 
Q 40.828125 74.21875 47.359375 69.109375 
Q 53.90625 64.015625 53.90625 55.328125 
Q 53.90625 49.265625 50.4375 45.09375 
Q 46.96875 40.921875 40.578125 39.3125 
z
" id="DejaVuSans-51"/>
    </defs>
    <g transform="translate(149.160313 16.318125)scale(0.12 -0.12)">
     <use xlink:href="#DejaVuSans-49"/>
     <use x="63.623047" xlink:href="#DejaVuSans-32"/>
     <use x="95.410156" xlink:href="#DejaVuSans-45"/>
     <use x="131.494141" xlink:href="#DejaVuSans-32"/>
     <use x="163.28125" xlink:href="#DejaVuSans-51"/>
     <use x="226.904297" xlink:href="#DejaVuSans-48"/>
    </g>
   </g>
   <g id="legend_1">
    <g id="patch_5">
     <path d="M 143.866875 200.169688 
L 282.40125 200.169688 
Q 284.40125 200.169688 284.40125 198.169688 
L 284.40125 67.066563 
Q 284.40125 65.066563 282.40125 65.066563 
L 143.866875 65.066563 
Q 141.866875 65.066563 141.866875 67.066563 
L 141.866875 198.169688 
Q 141.866875 200.169688 143.866875 200.169688 
z
" style="fill:#ffffff;opacity:0.8;stroke:#cccccc;stroke-linejoin:miter;"/>
    </g>
    <g id="patch_6">
     <path d="M 145.866875 76.665 
L 165.866875 76.665 
L 165.866875 69.665 
L 145.866875 69.665 
z
" style="fill:#1f77b4;opacity:0.6;stroke:#1f77b4;stroke-linejoin:miter;"/>
    </g>
    <g id="text_15">
     <!-- varlociraptor+delly -->
     <defs>
      <path d="M 2.984375 54.6875 
L 12.5 54.6875 
L 29.59375 8.796875 
L 46.6875 54.6875 
L 56.203125 54.6875 
L 35.6875 0 
L 23.484375 0 
z
" id="DejaVuSans-118"/>
      <path d="M 30.609375 48.390625 
Q 23.390625 48.390625 19.1875 42.75 
Q 14.984375 37.109375 14.984375 27.296875 
Q 14.984375 17.484375 19.15625 11.84375 
Q 23.34375 6.203125 30.609375 6.203125 
Q 37.796875 6.203125 41.984375 11.859375 
Q 46.1875 17.53125 46.1875 27.296875 
Q 46.1875 37.015625 41.984375 42.703125 
Q 37.796875 48.390625 30.609375 48.390625 
z
M 30.609375 56 
Q 42.328125 56 49.015625 48.375 
Q 55.71875 40.765625 55.71875 27.296875 
Q 55.71875 13.875 49.015625 6.21875 
Q 42.328125 -1.421875 30.609375 -1.421875 
Q 18.84375 -1.421875 12.171875 6.21875 
Q 5.515625 13.875 5.515625 27.296875 
Q 5.515625 40.765625 12.171875 48.375 
Q 18.84375 56 30.609375 56 
z
" id="DejaVuSans-111"/>
      <path d="M 9.421875 54.6875 
L 18.40625 54.6875 
L 18.40625 0 
L 9.421875 0 
z
M 9.421875 75.984375 
L 18.40625 75.984375 
L 18.40625 64.59375 
L 9.421875 64.59375 
z
" id="DejaVuSans-105"/>
      <path d="M 18.109375 8.203125 
L 18.109375 -20.796875 
L 9.078125 -20.796875 
L 9.078125 54.6875 
L 18.109375 54.6875 
L 18.109375 46.390625 
Q 20.953125 51.265625 25.265625 53.625 
Q 29.59375 56 35.59375 56 
Q 45.5625 56 51.78125 48.09375 
Q 58.015625 40.1875 58.015625 27.296875 
Q 58.015625 14.40625 51.78125 6.484375 
Q 45.5625 -1.421875 35.59375 -1.421875 
Q 29.59375 -1.421875 25.265625 0.953125 
Q 20.953125 3.328125 18.109375 8.203125 
z
M 48.6875 27.296875 
Q 48.6875 37.203125 44.609375 42.84375 
Q 40.53125 48.484375 33.40625 48.484375 
Q 26.265625 48.484375 22.1875 42.84375 
Q 18.109375 37.203125 18.109375 27.296875 
Q 18.109375 17.390625 22.1875 11.75 
Q 26.265625 6.109375 33.40625 6.109375 
Q 40.53125 6.109375 44.609375 11.75 
Q 48.6875 17.390625 48.6875 27.296875 
z
" id="DejaVuSans-112"/>
      <path d="M 18.3125 70.21875 
L 18.3125 54.6875 
L 36.8125 54.6875 
L 36.8125 47.703125 
L 18.3125 47.703125 
L 18.3125 18.015625 
Q 18.3125 11.328125 20.140625 9.421875 
Q 21.96875 7.515625 27.59375 7.515625 
L 36.8125 7.515625 
L 36.8125 0 
L 27.59375 0 
Q 17.1875 0 13.234375 3.875 
Q 9.28125 7.765625 9.28125 18.015625 
L 9.28125 47.703125 
L 2.6875 47.703125 
L 2.6875 54.6875 
L 9.28125 54.6875 
L 9.28125 70.21875 
z
" id="DejaVuSans-116"/>
      <path d="M 46 62.703125 
L 46 35.5 
L 73.1875 35.5 
L 73.1875 27.203125 
L 46 27.203125 
L 46 0 
L 37.796875 0 
L 37.796875 27.203125 
L 10.59375 27.203125 
L 10.59375 35.5 
L 37.796875 35.5 
L 37.796875 62.703125 
z
" id="DejaVuSans-43"/>
      <path d="M 45.40625 46.390625 
L 45.40625 75.984375 
L 54.390625 75.984375 
L 54.390625 0 
L 45.40625 0 
L 45.40625 8.203125 
Q 42.578125 3.328125 38.25 0.953125 
Q 33.9375 -1.421875 27.875 -1.421875 
Q 17.96875 -1.421875 11.734375 6.484375 
Q 5.515625 14.40625 5.515625 27.296875 
Q 5.515625 40.1875 11.734375 48.09375 
Q 17.96875 56 27.875 56 
Q 33.9375 56 38.25 53.625 
Q 42.578125 51.265625 45.40625 46.390625 
z
M 14.796875 27.296875 
Q 14.796875 17.390625 18.875 11.75 
Q 22.953125 6.109375 30.078125 6.109375 
Q 37.203125 6.109375 41.296875 11.75 
Q 45.40625 17.390625 45.40625 27.296875 
Q 45.40625 37.203125 41.296875 42.84375 
Q 37.203125 48.484375 30.078125 48.484375 
Q 22.953125 48.484375 18.875 42.84375 
Q 14.796875 37.203125 14.796875 27.296875 
z
" id="DejaVuSans-100"/>
     </defs>
     <g transform="translate(173.866875 76.665)scale(0.1 -0.1)">
      <use xlink:href="#DejaVuSans-118"/>
      <use x="59.179688" xlink:href="#DejaVuSans-97"/>
      <use x="120.458984" xlink:href="#DejaVuSans-114"/>
      <use x="161.572266" xlink:href="#DejaVuSans-108"/>
      <use x="189.355469" xlink:href="#DejaVuSans-111"/>
      <use x="250.537109" xlink:href="#DejaVuSans-99"/>
      <use x="305.517578" xlink:href="#DejaVuSans-105"/>
      <use x="333.300781" xlink:href="#DejaVuSans-114"/>
      <use x="374.414062" xlink:href="#DejaVuSans-97"/>
      <use x="435.693359" xlink:href="#DejaVuSans-112"/>
      <use x="499.169922" xlink:href="#DejaVuSans-116"/>
      <use x="538.378906" xlink:href="#DejaVuSans-111"/>
      <use x="599.560547" xlink:href="#DejaVuSans-114"/>
      <use x="640.673828" xlink:href="#DejaVuSans-43"/>
      <use x="724.462891" xlink:href="#DejaVuSans-100"/>
      <use x="787.939453" xlink:href="#DejaVuSans-101"/>
      <use x="849.462891" xlink:href="#DejaVuSans-108"/>
      <use x="877.246094" xlink:href="#DejaVuSans-108"/>
      <use x="905.029297" xlink:href="#DejaVuSans-121"/>
     </g>
    </g>
    <g id="patch_7">
     <path d="M 145.866875 91.343125 
L 165.866875 91.343125 
L 165.866875 84.343125 
L 145.866875 84.343125 
z
" style="fill:#ff7f0e;opacity:0.6;stroke:#ff7f0e;stroke-linejoin:miter;"/>
    </g>
    <g id="text_16">
     <!-- varlociraptor+lancet -->
     <g transform="translate(173.866875 91.343125)scale(0.1 -0.1)">
      <use xlink:href="#DejaVuSans-118"/>
      <use x="59.179688" xlink:href="#DejaVuSans-97"/>
      <use x="120.458984" xlink:href="#DejaVuSans-114"/>
      <use x="161.572266" xlink:href="#DejaVuSans-108"/>
      <use x="189.355469" xlink:href="#DejaVuSans-111"/>
      <use x="250.537109" xlink:href="#DejaVuSans-99"/>
      <use x="305.517578" xlink:href="#DejaVuSans-105"/>
      <use x="333.300781" xlink:href="#DejaVuSans-114"/>
      <use x="374.414062" xlink:href="#DejaVuSans-97"/>
      <use x="435.693359" xlink:href="#DejaVuSans-112"/>
      <use x="499.169922" xlink:href="#DejaVuSans-116"/>
      <use x="538.378906" xlink:href="#DejaVuSans-111"/>
      <use x="599.560547" xlink:href="#DejaVuSans-114"/>
      <use x="640.673828" xlink:href="#DejaVuSans-43"/>
      <use x="724.462891" xlink:href="#DejaVuSans-108"/>
      <use x="752.246094" xlink:href="#DejaVuSans-97"/>
      <use x="813.525391" xlink:href="#DejaVuSans-110"/>
      <use x="876.904297" xlink:href="#DejaVuSans-99"/>
      <use x="931.884766" xlink:href="#DejaVuSans-101"/>
      <use x="993.408203" xlink:href="#DejaVuSans-116"/>
     </g>
    </g>
    <g id="patch_8">
     <path d="M 145.866875 106.02125 
L 165.866875 106.02125 
L 165.866875 99.02125 
L 145.866875 99.02125 
z
" style="fill:#2ca02c;opacity:0.6;stroke:#2ca02c;stroke-linejoin:miter;"/>
    </g>
    <g id="text_17">
     <!-- varlociraptor+manta -->
     <defs>
      <path d="M 52 44.1875 
Q 55.375 50.25 60.0625 53.125 
Q 64.75 56 71.09375 56 
Q 79.640625 56 84.28125 50.015625 
Q 88.921875 44.046875 88.921875 33.015625 
L 88.921875 0 
L 79.890625 0 
L 79.890625 32.71875 
Q 79.890625 40.578125 77.09375 44.375 
Q 74.3125 48.1875 68.609375 48.1875 
Q 61.625 48.1875 57.5625 43.546875 
Q 53.515625 38.921875 53.515625 30.90625 
L 53.515625 0 
L 44.484375 0 
L 44.484375 32.71875 
Q 44.484375 40.625 41.703125 44.40625 
Q 38.921875 48.1875 33.109375 48.1875 
Q 26.21875 48.1875 22.15625 43.53125 
Q 18.109375 38.875 18.109375 30.90625 
L 18.109375 0 
L 9.078125 0 
L 9.078125 54.6875 
L 18.109375 54.6875 
L 18.109375 46.1875 
Q 21.1875 51.21875 25.484375 53.609375 
Q 29.78125 56 35.6875 56 
Q 41.65625 56 45.828125 52.96875 
Q 50 49.953125 52 44.1875 
z
" id="DejaVuSans-109"/>
     </defs>
     <g transform="translate(173.866875 106.02125)scale(0.1 -0.1)">
      <use xlink:href="#DejaVuSans-118"/>
      <use x="59.179688" xlink:href="#DejaVuSans-97"/>
      <use x="120.458984" xlink:href="#DejaVuSans-114"/>
      <use x="161.572266" xlink:href="#DejaVuSans-108"/>
      <use x="189.355469" xlink:href="#DejaVuSans-111"/>
      <use x="250.537109" xlink:href="#DejaVuSans-99"/>
      <use x="305.517578" xlink:href="#DejaVuSans-105"/>
      <use x="333.300781" xlink:href="#DejaVuSans-114"/>
      <use x="374.414062" xlink:href="#DejaVuSans-97"/>
      <use x="435.693359" xlink:href="#DejaVuSans-112"/>
      <use x="499.169922" xlink:href="#DejaVuSans-116"/>
      <use x="538.378906" xlink:href="#DejaVuSans-111"/>
      <use x="599.560547" xlink:href="#DejaVuSans-114"/>
      <use x="640.673828" xlink:href="#DejaVuSans-43"/>
      <use x="724.462891" xlink:href="#DejaVuSans-109"/>
      <use x="821.875" xlink:href="#DejaVuSans-97"/>
      <use x="883.154297" xlink:href="#DejaVuSans-110"/>
      <use x="946.533203" xlink:href="#DejaVuSans-116"/>
      <use x="985.742188" xlink:href="#DejaVuSans-97"/>
     </g>
    </g>
    <g id="patch_9">
     <path d="M 145.866875 120.699375 
L 165.866875 120.699375 
L 165.866875 113.699375 
L 145.866875 113.699375 
z
" style="fill:#d62728;opacity:0.6;stroke:#d62728;stroke-linejoin:miter;"/>
    </g>
    <g id="text_18">
     <!-- varlociraptor+strelka -->
     <defs>
      <path d="M 44.28125 53.078125 
L 44.28125 44.578125 
Q 40.484375 46.53125 36.375 47.5 
Q 32.28125 48.484375 27.875 48.484375 
Q 21.1875 48.484375 17.84375 46.4375 
Q 14.5 44.390625 14.5 40.28125 
Q 14.5 37.15625 16.890625 35.375 
Q 19.28125 33.59375 26.515625 31.984375 
L 29.59375 31.296875 
Q 39.15625 29.25 43.1875 25.515625 
Q 47.21875 21.78125 47.21875 15.09375 
Q 47.21875 7.46875 41.1875 3.015625 
Q 35.15625 -1.421875 24.609375 -1.421875 
Q 20.21875 -1.421875 15.453125 -0.5625 
Q 10.6875 0.296875 5.421875 2 
L 5.421875 11.28125 
Q 10.40625 8.6875 15.234375 7.390625 
Q 20.0625 6.109375 24.8125 6.109375 
Q 31.15625 6.109375 34.5625 8.28125 
Q 37.984375 10.453125 37.984375 14.40625 
Q 37.984375 18.0625 35.515625 20.015625 
Q 33.0625 21.96875 24.703125 23.78125 
L 21.578125 24.515625 
Q 13.234375 26.265625 9.515625 29.90625 
Q 5.8125 33.546875 5.8125 39.890625 
Q 5.8125 47.609375 11.28125 51.796875 
Q 16.75 56 26.8125 56 
Q 31.78125 56 36.171875 55.265625 
Q 40.578125 54.546875 44.28125 53.078125 
z
" id="DejaVuSans-115"/>
      <path d="M 9.078125 75.984375 
L 18.109375 75.984375 
L 18.109375 31.109375 
L 44.921875 54.6875 
L 56.390625 54.6875 
L 27.390625 29.109375 
L 57.625 0 
L 45.90625 0 
L 18.109375 26.703125 
L 18.109375 0 
L 9.078125 0 
z
" id="DejaVuSans-107"/>
     </defs>
     <g transform="translate(173.866875 120.699375)scale(0.1 -0.1)">
      <use xlink:href="#DejaVuSans-118"/>
      <use x="59.179688" xlink:href="#DejaVuSans-97"/>
      <use x="120.458984" xlink:href="#DejaVuSans-114"/>
      <use x="161.572266" xlink:href="#DejaVuSans-108"/>
      <use x="189.355469" xlink:href="#DejaVuSans-111"/>
      <use x="250.537109" xlink:href="#DejaVuSans-99"/>
      <use x="305.517578" xlink:href="#DejaVuSans-105"/>
      <use x="333.300781" xlink:href="#DejaVuSans-114"/>
      <use x="374.414062" xlink:href="#DejaVuSans-97"/>
      <use x="435.693359" xlink:href="#DejaVuSans-112"/>
      <use x="499.169922" xlink:href="#DejaVuSans-116"/>
      <use x="538.378906" xlink:href="#DejaVuSans-111"/>
      <use x="599.560547" xlink:href="#DejaVuSans-114"/>
      <use x="640.673828" xlink:href="#DejaVuSans-43"/>
      <use x="724.462891" xlink:href="#DejaVuSans-115"/>
      <use x="776.5625" xlink:href="#DejaVuSans-116"/>
      <use x="815.771484" xlink:href="#DejaVuSans-114"/>
      <use x="856.853516" xlink:href="#DejaVuSans-101"/>
      <use x="918.376953" xlink:href="#DejaVuSans-108"/>
      <use x="946.160156" xlink:href="#DejaVuSans-107"/>
      <use x="1004.054688" xlink:href="#DejaVuSans-97"/>
     </g>
    </g>
    <g id="line2d_18">
     <path d="M 145.866875 131.8775 
L 165.866875 131.8775 
" style="fill:none;stroke:#1f77b4;stroke-dasharray:1.5,2.475;stroke-dashoffset:0;stroke-width:1.5;"/>
    </g>
    <g id="line2d_19"/>
    <g id="text_19">
     <!-- delly -->
     <g transform="translate(173.866875 135.3775)scale(0.1 -0.1)">
      <use xlink:href="#DejaVuSans-100"/>
      <use x="63.476562" xlink:href="#DejaVuSans-101"/>
      <use x="125" xlink:href="#DejaVuSans-108"/>
      <use x="152.783203" xlink:href="#DejaVuSans-108"/>
      <use x="180.566406" xlink:href="#DejaVuSans-121"/>
     </g>
    </g>
    <g id="line2d_20">
     <path d="M 145.866875 146.555625 
L 165.866875 146.555625 
" style="fill:none;stroke:#ff7f0e;stroke-dasharray:1.5,2.475;stroke-dashoffset:0;stroke-width:1.5;"/>
    </g>
    <g id="line2d_21"/>
    <g id="text_20">
     <!-- lancet -->
     <g transform="translate(173.866875 150.055625)scale(0.1 -0.1)">
      <use xlink:href="#DejaVuSans-108"/>
      <use x="27.783203" xlink:href="#DejaVuSans-97"/>
      <use x="89.0625" xlink:href="#DejaVuSans-110"/>
      <use x="152.441406" xlink:href="#DejaVuSans-99"/>
      <use x="207.421875" xlink:href="#DejaVuSans-101"/>
      <use x="268.945312" xlink:href="#DejaVuSans-116"/>
     </g>
    </g>
    <g id="line2d_22">
     <path d="M 145.866875 161.23375 
L 165.866875 161.23375 
" style="fill:none;stroke:#d62728;stroke-dasharray:1.5,2.475;stroke-dashoffset:0;stroke-width:1.5;"/>
    </g>
    <g id="line2d_23"/>
    <g id="text_21">
     <!-- strelka -->
     <g transform="translate(173.866875 164.73375)scale(0.1 -0.1)">
      <use xlink:href="#DejaVuSans-115"/>
      <use x="52.099609" xlink:href="#DejaVuSans-116"/>
      <use x="91.308594" xlink:href="#DejaVuSans-114"/>
      <use x="132.390625" xlink:href="#DejaVuSans-101"/>
      <use x="193.914062" xlink:href="#DejaVuSans-108"/>
      <use x="221.697266" xlink:href="#DejaVuSans-107"/>
      <use x="279.591797" xlink:href="#DejaVuSans-97"/>
     </g>
    </g>
    <g id="line2d_24">
     <path d="M 145.866875 175.911875 
L 165.866875 175.911875 
" style="fill:none;stroke:#2ca02c;stroke-dasharray:1.5,2.475;stroke-dashoffset:0;stroke-width:1.5;"/>
    </g>
    <g id="line2d_25"/>
    <g id="text_22">
     <!-- manta -->
     <g transform="translate(173.866875 179.411875)scale(0.1 -0.1)">
      <use xlink:href="#DejaVuSans-109"/>
      <use x="97.412109" xlink:href="#DejaVuSans-97"/>
      <use x="158.691406" xlink:href="#DejaVuSans-110"/>
      <use x="222.070312" xlink:href="#DejaVuSans-116"/>
      <use x="261.279297" xlink:href="#DejaVuSans-97"/>
     </g>
    </g>
    <g id="line2d_26">
     <path d="M 145.866875 190.59 
L 165.866875 190.59 
" style="fill:none;stroke:#9467bd;stroke-dasharray:1.5,2.475;stroke-dashoffset:0;stroke-width:1.5;"/>
    </g>
    <g id="line2d_27"/>
    <g id="text_23">
     <!-- bpi -->
     <defs>
      <path d="M 48.6875 27.296875 
Q 48.6875 37.203125 44.609375 42.84375 
Q 40.53125 48.484375 33.40625 48.484375 
Q 26.265625 48.484375 22.1875 42.84375 
Q 18.109375 37.203125 18.109375 27.296875 
Q 18.109375 17.390625 22.1875 11.75 
Q 26.265625 6.109375 33.40625 6.109375 
Q 40.53125 6.109375 44.609375 11.75 
Q 48.6875 17.390625 48.6875 27.296875 
z
M 18.109375 46.390625 
Q 20.953125 51.265625 25.265625 53.625 
Q 29.59375 56 35.59375 56 
Q 45.5625 56 51.78125 48.09375 
Q 58.015625 40.1875 58.015625 27.296875 
Q 58.015625 14.40625 51.78125 6.484375 
Q 45.5625 -1.421875 35.59375 -1.421875 
Q 29.59375 -1.421875 25.265625 0.953125 
Q 20.953125 3.328125 18.109375 8.203125 
L 18.109375 0 
L 9.078125 0 
L 9.078125 75.984375 
L 18.109375 75.984375 
z
" id="DejaVuSans-98"/>
     </defs>
     <g transform="translate(173.866875 194.09)scale(0.1 -0.1)">
      <use xlink:href="#DejaVuSans-98"/>
      <use x="63.476562" xlink:href="#DejaVuSans-112"/>
      <use x="126.953125" xlink:href="#DejaVuSans-105"/>
     </g>
    </g>
   </g>
  </g>
  <g id="axes_2">
   <g id="patch_10">
    <path d="M 325.56125 242.918125 
L 571.18125 242.918125 
L 571.18125 22.318125 
L 325.56125 22.318125 
z
" style="fill:#ffffff;"/>
   </g>
   <g id="PolyCollection_5">
    <defs>
     <path d="M 336.725795 -99.436359 
L 336.725795 -96.900079 
L 346.434081 -117.636541 
L 356.142389 -128.474295 
L 365.850768 -152.101789 
L 385.267291 -206.458024 
L 404.683815 -217.253095 
L 482.350376 -240.179771 
L 560.016705 -233.851784 
L 560.016705 -245.932486 
L 560.016705 -245.932486 
L 482.350376 -246.141676 
L 404.683815 -223.888206 
L 385.267291 -211.947611 
L 365.850768 -155.497567 
L 356.142389 -131.629393 
L 346.434081 -120.56364 
L 336.725795 -99.436359 
z
" id="mf359af08ee" style="stroke:#1f77b4;stroke-opacity:0.6;"/>
    </defs>
    <g clip-path="url(#pf2aed5528d)">
     <use style="fill:#1f77b4;fill-opacity:0.6;stroke:#1f77b4;stroke-opacity:0.6;" x="0" xlink:href="#mf359af08ee" y="280.474375"/>
    </g>
   </g>
   <g id="PolyCollection_6">
    <defs>
     <path d="M 336.725795 -132.407999 
L 336.725795 -129.871719 
L 346.434081 -151.135562 
L 356.142389 -162.128669 
L 365.850768 -179.692482 
L 385.267291 -218.809594 
L 404.683815 -226.376372 
L 482.350376 -244.154374 
L 560.016705 -237.878684 
L 560.016705 -245.932486 
L 560.016705 -245.932486 
L 482.350376 -248.128977 
L 404.683815 -230.523316 
L 385.267291 -222.926784 
L 365.850768 -183.08826 
L 356.142389 -165.283766 
L 346.434081 -154.062661 
L 336.725795 -132.407999 
z
" id="m29601fe290" style="stroke:#ff7f0e;stroke-opacity:0.6;"/>
    </defs>
    <g clip-path="url(#pf2aed5528d)">
     <use style="fill:#ff7f0e;fill-opacity:0.6;stroke:#ff7f0e;stroke-opacity:0.6;" x="0" xlink:href="#m29601fe290" y="280.474375"/>
    </g>
   </g>
   <g id="PolyCollection_7">
    <defs>
     <path d="M 336.725795 -49.274376 
L 336.725795 -47.583523 
L 346.434081 -61.696428 
L 356.142389 -69.929709 
L 365.850768 -85.884126 
L 385.267291 -133.721001 
L 404.683815 -152.560771 
L 482.350376 -216.332151 
L 560.016705 -225.797982 
L 560.016705 -237.878684 
L 560.016705 -237.878684 
L 482.350376 -222.294056 
L 404.683815 -155.878326 
L 385.267291 -137.151993 
L 365.850768 -88.006487 
L 356.142389 -72.033107 
L 346.434081 -63.647827 
L 336.725795 -49.274376 
z
" id="mfe38ab20aa" style="stroke:#2ca02c;stroke-opacity:0.6;"/>
    </defs>
    <g clip-path="url(#pf2aed5528d)">
     <use style="fill:#2ca02c;fill-opacity:0.6;stroke:#2ca02c;stroke-opacity:0.6;" x="0" xlink:href="#mfe38ab20aa" y="280.474375"/>
    </g>
   </g>
   <g id="PolyCollection_8">
    <defs>
     <path d="M 336.725795 -57.165025 
L 336.725795 -53.219701 
L 346.434081 -67.875859 
L 356.142389 -76.59047 
L 365.850768 -93.100154 
L 385.267291 -142.641579 
L 404.683815 -160.854659 
L 482.350376 -208.382944 
L 560.016705 -205.663479 
L 560.016705 -241.905585 
L 560.016705 -241.905585 
L 482.350376 -228.255961 
L 404.683815 -170.807324 
L 385.267291 -151.562158 
L 365.850768 -98.618292 
L 356.142389 -81.4984 
L 346.434081 -72.429124 
L 336.725795 -57.165025 
z
" id="m4a6d2a52ab" style="stroke:#d62728;stroke-opacity:0.6;"/>
    </defs>
    <g clip-path="url(#pf2aed5528d)">
     <use style="fill:#d62728;fill-opacity:0.6;stroke:#d62728;stroke-opacity:0.6;" x="0" xlink:href="#m4a6d2a52ab" y="280.474375"/>
    </g>
   </g>
   <g id="matplotlib.axis_3">
    <g id="xtick_7">
     <g id="line2d_28">
      <g>
       <use style="stroke:#000000;stroke-width:0.8;" x="327.017487" xlink:href="#m0144347dc1" y="242.918125"/>
      </g>
     </g>
     <g id="text_24">
      <!-- 0.0 -->
      <g transform="translate(319.065924 257.516563)scale(0.1 -0.1)">
       <use xlink:href="#DejaVuSans-48"/>
       <use x="63.623047" xlink:href="#DejaVuSans-46"/>
       <use x="95.410156" xlink:href="#DejaVuSans-48"/>
      </g>
     </g>
    </g>
    <g id="xtick_8">
     <g id="line2d_29">
      <g>
       <use style="stroke:#000000;stroke-width:0.8;" x="373.61733" xlink:href="#m0144347dc1" y="242.918125"/>
      </g>
     </g>
     <g id="text_25">
      <!-- 0.2 -->
      <g transform="translate(365.665768 257.516563)scale(0.1 -0.1)">
       <use xlink:href="#DejaVuSans-48"/>
       <use x="63.623047" xlink:href="#DejaVuSans-46"/>
       <use x="95.410156" xlink:href="#DejaVuSans-50"/>
      </g>
     </g>
    </g>
    <g id="xtick_9">
     <g id="line2d_30">
      <g>
       <use style="stroke:#000000;stroke-width:0.8;" x="420.217174" xlink:href="#m0144347dc1" y="242.918125"/>
      </g>
     </g>
     <g id="text_26">
      <!-- 0.4 -->
      <g transform="translate(412.265611 257.516563)scale(0.1 -0.1)">
       <use xlink:href="#DejaVuSans-48"/>
       <use x="63.623047" xlink:href="#DejaVuSans-46"/>
       <use x="95.410156" xlink:href="#DejaVuSans-52"/>
      </g>
     </g>
    </g>
    <g id="xtick_10">
     <g id="line2d_31">
      <g>
       <use style="stroke:#000000;stroke-width:0.8;" x="466.817018" xlink:href="#m0144347dc1" y="242.918125"/>
      </g>
     </g>
     <g id="text_27">
      <!-- 0.6 -->
      <g transform="translate(458.865455 257.516563)scale(0.1 -0.1)">
       <use xlink:href="#DejaVuSans-48"/>
       <use x="63.623047" xlink:href="#DejaVuSans-46"/>
       <use x="95.410156" xlink:href="#DejaVuSans-54"/>
      </g>
     </g>
    </g>
    <g id="xtick_11">
     <g id="line2d_32">
      <g>
       <use style="stroke:#000000;stroke-width:0.8;" x="513.416861" xlink:href="#m0144347dc1" y="242.918125"/>
      </g>
     </g>
     <g id="text_28">
      <!-- 0.8 -->
      <g transform="translate(505.465299 257.516563)scale(0.1 -0.1)">
       <use xlink:href="#DejaVuSans-48"/>
       <use x="63.623047" xlink:href="#DejaVuSans-46"/>
       <use x="95.410156" xlink:href="#DejaVuSans-56"/>
      </g>
     </g>
    </g>
    <g id="xtick_12">
     <g id="line2d_33">
      <g>
       <use style="stroke:#000000;stroke-width:0.8;" x="560.016705" xlink:href="#m0144347dc1" y="242.918125"/>
      </g>
     </g>
     <g id="text_29">
      <!-- 1.0 -->
      <g transform="translate(552.065142 257.516563)scale(0.1 -0.1)">
       <use xlink:href="#DejaVuSans-49"/>
       <use x="63.623047" xlink:href="#DejaVuSans-46"/>
       <use x="95.410156" xlink:href="#DejaVuSans-48"/>
      </g>
     </g>
    </g>
    <g id="text_30">
     <!-- allele frequency -->
     <g transform="translate(408.210312 271.194687)scale(0.1 -0.1)">
      <use xlink:href="#DejaVuSans-97"/>
      <use x="61.279297" xlink:href="#DejaVuSans-108"/>
      <use x="89.0625" xlink:href="#DejaVuSans-108"/>
      <use x="116.845703" xlink:href="#DejaVuSans-101"/>
      <use x="178.369141" xlink:href="#DejaVuSans-108"/>
      <use x="206.152344" xlink:href="#DejaVuSans-101"/>
      <use x="267.675781" xlink:href="#DejaVuSans-32"/>
      <use x="299.462891" xlink:href="#DejaVuSans-102"/>
      <use x="334.667969" xlink:href="#DejaVuSans-114"/>
      <use x="375.75" xlink:href="#DejaVuSans-101"/>
      <use x="437.273438" xlink:href="#DejaVuSans-113"/>
      <use x="500.75" xlink:href="#DejaVuSans-117"/>
      <use x="564.128906" xlink:href="#DejaVuSans-101"/>
      <use x="625.652344" xlink:href="#DejaVuSans-110"/>
      <use x="689.03125" xlink:href="#DejaVuSans-99"/>
      <use x="744.011719" xlink:href="#DejaVuSans-121"/>
     </g>
    </g>
   </g>
   <g id="matplotlib.axis_4">
    <g id="ytick_6">
     <g id="line2d_34">
      <g>
       <use style="stroke:#000000;stroke-width:0.8;" x="325.56125" xlink:href="#m648920ebb4" y="232.665405"/>
      </g>
     </g>
     <g id="text_31">
      <!-- 0.3 -->
      <g transform="translate(302.658125 236.464624)scale(0.1 -0.1)">
       <use xlink:href="#DejaVuSans-48"/>
       <use x="63.623047" xlink:href="#DejaVuSans-46"/>
       <use x="95.410156" xlink:href="#DejaVuSans-51"/>
      </g>
     </g>
    </g>
    <g id="ytick_7">
     <g id="line2d_35">
      <g>
       <use style="stroke:#000000;stroke-width:0.8;" x="325.56125" xlink:href="#m648920ebb4" y="202.06096"/>
      </g>
     </g>
     <g id="text_32">
      <!-- 0.4 -->
      <g transform="translate(302.658125 205.860178)scale(0.1 -0.1)">
       <use xlink:href="#DejaVuSans-48"/>
       <use x="63.623047" xlink:href="#DejaVuSans-46"/>
       <use x="95.410156" xlink:href="#DejaVuSans-52"/>
      </g>
     </g>
    </g>
    <g id="ytick_8">
     <g id="line2d_36">
      <g>
       <use style="stroke:#000000;stroke-width:0.8;" x="325.56125" xlink:href="#m648920ebb4" y="171.456514"/>
      </g>
     </g>
     <g id="text_33">
      <!-- 0.5 -->
      <defs>
       <path d="M 10.796875 72.90625 
L 49.515625 72.90625 
L 49.515625 64.59375 
L 19.828125 64.59375 
L 19.828125 46.734375 
Q 21.96875 47.46875 24.109375 47.828125 
Q 26.265625 48.1875 28.421875 48.1875 
Q 40.625 48.1875 47.75 41.5 
Q 54.890625 34.8125 54.890625 23.390625 
Q 54.890625 11.625 47.5625 5.09375 
Q 40.234375 -1.421875 26.90625 -1.421875 
Q 22.3125 -1.421875 17.546875 -0.640625 
Q 12.796875 0.140625 7.71875 1.703125 
L 7.71875 11.625 
Q 12.109375 9.234375 16.796875 8.0625 
Q 21.484375 6.890625 26.703125 6.890625 
Q 35.15625 6.890625 40.078125 11.328125 
Q 45.015625 15.765625 45.015625 23.390625 
Q 45.015625 31 40.078125 35.4375 
Q 35.15625 39.890625 26.703125 39.890625 
Q 22.75 39.890625 18.8125 39.015625 
Q 14.890625 38.140625 10.796875 36.28125 
z
" id="DejaVuSans-53"/>
      </defs>
      <g transform="translate(302.658125 175.255733)scale(0.1 -0.1)">
       <use xlink:href="#DejaVuSans-48"/>
       <use x="63.623047" xlink:href="#DejaVuSans-46"/>
       <use x="95.410156" xlink:href="#DejaVuSans-53"/>
      </g>
     </g>
    </g>
    <g id="ytick_9">
     <g id="line2d_37">
      <g>
       <use style="stroke:#000000;stroke-width:0.8;" x="325.56125" xlink:href="#m648920ebb4" y="140.852068"/>
      </g>
     </g>
     <g id="text_34">
      <!-- 0.6 -->
      <g transform="translate(302.658125 144.651287)scale(0.1 -0.1)">
       <use xlink:href="#DejaVuSans-48"/>
       <use x="63.623047" xlink:href="#DejaVuSans-46"/>
       <use x="95.410156" xlink:href="#DejaVuSans-54"/>
      </g>
     </g>
    </g>
    <g id="ytick_10">
     <g id="line2d_38">
      <g>
       <use style="stroke:#000000;stroke-width:0.8;" x="325.56125" xlink:href="#m648920ebb4" y="110.247623"/>
      </g>
     </g>
     <g id="text_35">
      <!-- 0.7 -->
      <defs>
       <path d="M 8.203125 72.90625 
L 55.078125 72.90625 
L 55.078125 68.703125 
L 28.609375 0 
L 18.3125 0 
L 43.21875 64.59375 
L 8.203125 64.59375 
z
" id="DejaVuSans-55"/>
      </defs>
      <g transform="translate(302.658125 114.046842)scale(0.1 -0.1)">
       <use xlink:href="#DejaVuSans-48"/>
       <use x="63.623047" xlink:href="#DejaVuSans-46"/>
       <use x="95.410156" xlink:href="#DejaVuSans-55"/>
      </g>
     </g>
    </g>
    <g id="ytick_11">
     <g id="line2d_39">
      <g>
       <use style="stroke:#000000;stroke-width:0.8;" x="325.56125" xlink:href="#m648920ebb4" y="79.643177"/>
      </g>
     </g>
     <g id="text_36">
      <!-- 0.8 -->
      <g transform="translate(302.658125 83.442396)scale(0.1 -0.1)">
       <use xlink:href="#DejaVuSans-48"/>
       <use x="63.623047" xlink:href="#DejaVuSans-46"/>
       <use x="95.410156" xlink:href="#DejaVuSans-56"/>
      </g>
     </g>
    </g>
    <g id="ytick_12">
     <g id="line2d_40">
      <g>
       <use style="stroke:#000000;stroke-width:0.8;" x="325.56125" xlink:href="#m648920ebb4" y="49.038732"/>
      </g>
     </g>
     <g id="text_37">
      <!-- 0.9 -->
      <defs>
       <path d="M 10.984375 1.515625 
L 10.984375 10.5 
Q 14.703125 8.734375 18.5 7.8125 
Q 22.3125 6.890625 25.984375 6.890625 
Q 35.75 6.890625 40.890625 13.453125 
Q 46.046875 20.015625 46.78125 33.40625 
Q 43.953125 29.203125 39.59375 26.953125 
Q 35.25 24.703125 29.984375 24.703125 
Q 19.046875 24.703125 12.671875 31.3125 
Q 6.296875 37.9375 6.296875 49.421875 
Q 6.296875 60.640625 12.9375 67.421875 
Q 19.578125 74.21875 30.609375 74.21875 
Q 43.265625 74.21875 49.921875 64.515625 
Q 56.59375 54.828125 56.59375 36.375 
Q 56.59375 19.140625 48.40625 8.859375 
Q 40.234375 -1.421875 26.421875 -1.421875 
Q 22.703125 -1.421875 18.890625 -0.6875 
Q 15.09375 0.046875 10.984375 1.515625 
z
M 30.609375 32.421875 
Q 37.25 32.421875 41.125 36.953125 
Q 45.015625 41.5 45.015625 49.421875 
Q 45.015625 57.28125 41.125 61.84375 
Q 37.25 66.40625 30.609375 66.40625 
Q 23.96875 66.40625 20.09375 61.84375 
Q 16.21875 57.28125 16.21875 49.421875 
Q 16.21875 41.5 20.09375 36.953125 
Q 23.96875 32.421875 30.609375 32.421875 
z
" id="DejaVuSans-57"/>
      </defs>
      <g transform="translate(302.658125 52.83795)scale(0.1 -0.1)">
       <use xlink:href="#DejaVuSans-48"/>
       <use x="63.623047" xlink:href="#DejaVuSans-46"/>
       <use x="95.410156" xlink:href="#DejaVuSans-57"/>
      </g>
     </g>
    </g>
   </g>
   <g id="line2d_41">
    <path clip-path="url(#pf2aed5528d)" d="M 336.725795 219.364025 
L 346.434081 203.166753 
L 356.142389 193.71748 
L 365.850768 169.970861 
L 385.267291 98.033293 
L 404.683815 79.809055 
L 482.350376 40.294604 
L 560.016705 42.595691 
" style="fill:none;stroke:#ffffff;stroke-linecap:square;stroke-opacity:0.8;stroke-width:1.5;"/>
   </g>
   <g id="line2d_42">
    <path clip-path="url(#pf2aed5528d)" d="M 336.725795 219.364025 
L 346.434081 203.166753 
L 356.142389 193.71748 
L 365.850768 169.970861 
L 385.267291 98.033293 
L 404.683815 79.809055 
L 482.350376 40.294604 
L 560.016705 42.595691 
" style="fill:none;stroke:#1f77b4;stroke-dasharray:1.5,2.475;stroke-dashoffset:0;stroke-width:1.5;"/>
   </g>
   <g id="line2d_43">
    <path clip-path="url(#pf2aed5528d)" d="M 336.725795 205.55539 
L 346.434081 188.206025 
L 356.142389 178.292559 
L 365.850768 162.330362 
L 385.267291 121.364036 
L 404.683815 112.984606 
L 482.350376 70.104129 
L 560.016705 58.703293 
" style="fill:none;stroke:#ffffff;stroke-linecap:square;stroke-opacity:0.8;stroke-width:1.5;"/>
   </g>
   <g id="line2d_44">
    <path clip-path="url(#pf2aed5528d)" d="M 336.725795 205.55539 
L 346.434081 188.206025 
L 356.142389 178.292559 
L 365.850768 162.330362 
L 385.267291 121.364036 
L 404.683815 112.984606 
L 482.350376 70.104129 
L 560.016705 58.703293 
" style="fill:none;stroke:#ff7f0e;stroke-dasharray:1.5,2.475;stroke-dashoffset:0;stroke-width:1.5;"/>
   </g>
   <g id="line2d_45">
    <path clip-path="url(#pf2aed5528d)" d="M 336.725795 222.182114 
L 346.434081 206.744318 
L 356.142389 197.57371 
L 365.850768 179.30925 
L 385.267291 127.539821 
L 404.683815 108.008273 
L 482.350376 52.218414 
L 560.016705 38.56879 
" style="fill:none;stroke:#ffffff;stroke-linecap:square;stroke-opacity:0.8;stroke-width:1.5;"/>
   </g>
   <g id="line2d_46">
    <path clip-path="url(#pf2aed5528d)" d="M 336.725795 222.182114 
L 346.434081 206.744318 
L 356.142389 197.57371 
L 365.850768 179.30925 
L 385.267291 127.539821 
L 404.683815 108.008273 
L 482.350376 52.218414 
L 560.016705 38.56879 
" style="fill:none;stroke:#d62728;stroke-dasharray:1.5,2.475;stroke-dashoffset:0;stroke-width:1.5;"/>
   </g>
   <g id="patch_11">
    <path d="M 325.56125 242.918125 
L 325.56125 22.318125 
" style="fill:none;stroke:#000000;stroke-linecap:square;stroke-linejoin:miter;stroke-width:0.8;"/>
   </g>
   <g id="patch_12">
    <path d="M 325.56125 242.918125 
L 571.18125 242.918125 
" style="fill:none;stroke:#000000;stroke-linecap:square;stroke-linejoin:miter;stroke-width:0.8;"/>
   </g>
   <g id="text_38">
    <!-- 30 - 50 -->
    <g transform="translate(427.122812 16.318125)scale(0.12 -0.12)">
     <use xlink:href="#DejaVuSans-51"/>
     <use x="63.623047" xlink:href="#DejaVuSans-48"/>
     <use x="127.246094" xlink:href="#DejaVuSans-32"/>
     <use x="159.033203" xlink:href="#DejaVuSans-45"/>
     <use x="195.117188" xlink:href="#DejaVuSans-32"/>
     <use x="226.904297" xlink:href="#DejaVuSans-53"/>
     <use x="290.527344" xlink:href="#DejaVuSans-48"/>
    </g>
   </g>
  </g>
  <g id="axes_3">
   <g id="patch_13">
    <path d="M 607.34125 242.918125 
L 852.96125 242.918125 
L 852.96125 22.318125 
L 607.34125 22.318125 
z
" style="fill:#ffffff;"/>
   </g>
   <g id="PolyCollection_9">
    <defs>
     <path d="M 618.505795 -158.886483 
L 618.505795 -151.675306 
L 628.214081 -165.78825 
L 637.922389 -173.08976 
L 647.630768 -187.207065 
L 667.047291 -202.881886 
L 686.463815 -208.004825 
L 764.130376 -214.573663 
L 841.796705 -201.766641 
L 841.796705 -248.128977 
L 841.796705 -248.128977 
L 764.130376 -242.620581 
L 686.463815 -225.720515 
L 667.047291 -218.606844 
L 647.630768 -197.560987 
L 637.922389 -182.023393 
L 628.214081 -174.017755 
L 618.505795 -158.886483 
z
" id="m029e6855f9" style="stroke:#1f77b4;stroke-opacity:0.6;"/>
    </defs>
    <g clip-path="url(#p7f61617d22)">
     <use style="fill:#1f77b4;fill-opacity:0.6;stroke:#1f77b4;stroke-opacity:0.6;" x="0" xlink:href="#m029e6855f9" y="280.474375"/>
    </g>
   </g>
   <g id="PolyCollection_10">
    <defs>
     <path d="M 618.505795 -165.157073 
L 618.505795 -162.962367 
L 628.214081 -177.595801 
L 637.922389 -184.742325 
L 647.630768 -198.502252 
L 667.047291 -216.360421 
L 686.463815 -218.634239 
L 764.130376 -227.518394 
L 841.796705 -220.311576 
L 841.796705 -248.128977 
L 841.796705 -248.128977 
L 764.130376 -240.463126 
L 686.463815 -223.948946 
L 667.047291 -220.853266 
L 647.630768 -201.326049 
L 637.922389 -187.461257 
L 628.214081 -180.100433 
L 618.505795 -165.157073 
z
" id="m1ca9cd48a1" style="stroke:#ff7f0e;stroke-opacity:0.6;"/>
    </defs>
    <g clip-path="url(#p7f61617d22)">
     <use style="fill:#ff7f0e;fill-opacity:0.6;stroke:#ff7f0e;stroke-opacity:0.6;" x="0" xlink:href="#m1ca9cd48a1" y="280.474375"/>
    </g>
   </g>
   <g id="PolyCollection_11">
    <defs>
     <path d="M 618.505795 -98.375296 
L 618.505795 -93.985884 
L 628.214081 -100.66782 
L 637.922389 -105.504878 
L 647.630768 -116.141515 
L 667.047291 -142.22848 
L 686.463815 -150.428835 
L 764.130376 -192.99911 
L 841.796705 -197.130408 
L 841.796705 -243.492744 
L 841.796705 -243.492744 
L 764.130376 -216.731118 
L 686.463815 -161.944033 
L 667.047291 -152.711785 
L 647.630768 -122.730374 
L 637.922389 -110.942742 
L 628.214081 -105.677084 
L 618.505795 -98.375296 
z
" id="m6ee51c58d2" style="stroke:#2ca02c;stroke-opacity:0.6;"/>
    </defs>
    <g clip-path="url(#p7f61617d22)">
     <use style="fill:#2ca02c;fill-opacity:0.6;stroke:#2ca02c;stroke-opacity:0.6;" x="0" xlink:href="#m6ee51c58d2" y="280.474375"/>
    </g>
   </g>
   <g id="PolyCollection_12">
    <defs>
     <path d="M 618.505795 -47.583523 
L 618.505795 -47.583523 
L 628.214081 -48.070549 
L 637.922389 -48.407306 
L 647.630768 -49.311659 
L 667.047291 -49.376351 
L 686.463815 -50.33519 
L 764.130376 -52.76452 
L 841.796705 -48.770932 
L 841.796705 -48.770932 
L 841.796705 -48.770932 
L 764.130376 -52.76452 
L 686.463815 -50.33519 
L 667.047291 -49.376351 
L 647.630768 -49.311659 
L 637.922389 -48.407306 
L 628.214081 -48.070549 
L 618.505795 -47.583523 
z
" id="mf8985190d0" style="stroke:#d62728;stroke-opacity:0.6;"/>
    </defs>
    <g clip-path="url(#p7f61617d22)">
     <use style="fill:#d62728;fill-opacity:0.6;stroke:#d62728;stroke-opacity:0.6;" x="0" xlink:href="#mf8985190d0" y="280.474375"/>
    </g>
   </g>
   <g id="matplotlib.axis_5">
    <g id="xtick_13">
     <g id="line2d_47">
      <g>
       <use style="stroke:#000000;stroke-width:0.8;" x="608.797487" xlink:href="#m0144347dc1" y="242.918125"/>
      </g>
     </g>
     <g id="text_39">
      <!-- 0.0 -->
      <g transform="translate(600.845924 257.516563)scale(0.1 -0.1)">
       <use xlink:href="#DejaVuSans-48"/>
       <use x="63.623047" xlink:href="#DejaVuSans-46"/>
       <use x="95.410156" xlink:href="#DejaVuSans-48"/>
      </g>
     </g>
    </g>
    <g id="xtick_14">
     <g id="line2d_48">
      <g>
       <use style="stroke:#000000;stroke-width:0.8;" x="655.39733" xlink:href="#m0144347dc1" y="242.918125"/>
      </g>
     </g>
     <g id="text_40">
      <!-- 0.2 -->
      <g transform="translate(647.445768 257.516563)scale(0.1 -0.1)">
       <use xlink:href="#DejaVuSans-48"/>
       <use x="63.623047" xlink:href="#DejaVuSans-46"/>
       <use x="95.410156" xlink:href="#DejaVuSans-50"/>
      </g>
     </g>
    </g>
    <g id="xtick_15">
     <g id="line2d_49">
      <g>
       <use style="stroke:#000000;stroke-width:0.8;" x="701.997174" xlink:href="#m0144347dc1" y="242.918125"/>
      </g>
     </g>
     <g id="text_41">
      <!-- 0.4 -->
      <g transform="translate(694.045611 257.516563)scale(0.1 -0.1)">
       <use xlink:href="#DejaVuSans-48"/>
       <use x="63.623047" xlink:href="#DejaVuSans-46"/>
       <use x="95.410156" xlink:href="#DejaVuSans-52"/>
      </g>
     </g>
    </g>
    <g id="xtick_16">
     <g id="line2d_50">
      <g>
       <use style="stroke:#000000;stroke-width:0.8;" x="748.597018" xlink:href="#m0144347dc1" y="242.918125"/>
      </g>
     </g>
     <g id="text_42">
      <!-- 0.6 -->
      <g transform="translate(740.645455 257.516563)scale(0.1 -0.1)">
       <use xlink:href="#DejaVuSans-48"/>
       <use x="63.623047" xlink:href="#DejaVuSans-46"/>
       <use x="95.410156" xlink:href="#DejaVuSans-54"/>
      </g>
     </g>
    </g>
    <g id="xtick_17">
     <g id="line2d_51">
      <g>
       <use style="stroke:#000000;stroke-width:0.8;" x="795.196861" xlink:href="#m0144347dc1" y="242.918125"/>
      </g>
     </g>
     <g id="text_43">
      <!-- 0.8 -->
      <g transform="translate(787.245299 257.516563)scale(0.1 -0.1)">
       <use xlink:href="#DejaVuSans-48"/>
       <use x="63.623047" xlink:href="#DejaVuSans-46"/>
       <use x="95.410156" xlink:href="#DejaVuSans-56"/>
      </g>
     </g>
    </g>
    <g id="xtick_18">
     <g id="line2d_52">
      <g>
       <use style="stroke:#000000;stroke-width:0.8;" x="841.796705" xlink:href="#m0144347dc1" y="242.918125"/>
      </g>
     </g>
     <g id="text_44">
      <!-- 1.0 -->
      <g transform="translate(833.845142 257.516563)scale(0.1 -0.1)">
       <use xlink:href="#DejaVuSans-49"/>
       <use x="63.623047" xlink:href="#DejaVuSans-46"/>
       <use x="95.410156" xlink:href="#DejaVuSans-48"/>
      </g>
     </g>
    </g>
    <g id="text_45">
     <!-- allele frequency -->
     <g transform="translate(689.990312 271.194687)scale(0.1 -0.1)">
      <use xlink:href="#DejaVuSans-97"/>
      <use x="61.279297" xlink:href="#DejaVuSans-108"/>
      <use x="89.0625" xlink:href="#DejaVuSans-108"/>
      <use x="116.845703" xlink:href="#DejaVuSans-101"/>
      <use x="178.369141" xlink:href="#DejaVuSans-108"/>
      <use x="206.152344" xlink:href="#DejaVuSans-101"/>
      <use x="267.675781" xlink:href="#DejaVuSans-32"/>
      <use x="299.462891" xlink:href="#DejaVuSans-102"/>
      <use x="334.667969" xlink:href="#DejaVuSans-114"/>
      <use x="375.75" xlink:href="#DejaVuSans-101"/>
      <use x="437.273438" xlink:href="#DejaVuSans-113"/>
      <use x="500.75" xlink:href="#DejaVuSans-117"/>
      <use x="564.128906" xlink:href="#DejaVuSans-101"/>
      <use x="625.652344" xlink:href="#DejaVuSans-110"/>
      <use x="689.03125" xlink:href="#DejaVuSans-99"/>
      <use x="744.011719" xlink:href="#DejaVuSans-121"/>
     </g>
    </g>
   </g>
   <g id="matplotlib.axis_6">
    <g id="ytick_13">
     <g id="line2d_53">
      <g>
       <use style="stroke:#000000;stroke-width:0.8;" x="607.34125" xlink:href="#m648920ebb4" y="236.339676"/>
      </g>
     </g>
     <g id="text_46">
      <!-- 0.0 -->
      <g transform="translate(584.438125 240.138895)scale(0.1 -0.1)">
       <use xlink:href="#DejaVuSans-48"/>
       <use x="63.623047" xlink:href="#DejaVuSans-46"/>
       <use x="95.410156" xlink:href="#DejaVuSans-48"/>
      </g>
     </g>
    </g>
    <g id="ytick_14">
     <g id="line2d_54">
      <g>
       <use style="stroke:#000000;stroke-width:0.8;" x="607.34125" xlink:href="#m648920ebb4" y="192.759081"/>
      </g>
     </g>
     <g id="text_47">
      <!-- 0.2 -->
      <g transform="translate(584.438125 196.558299)scale(0.1 -0.1)">
       <use xlink:href="#DejaVuSans-48"/>
       <use x="63.623047" xlink:href="#DejaVuSans-46"/>
       <use x="95.410156" xlink:href="#DejaVuSans-50"/>
      </g>
     </g>
    </g>
    <g id="ytick_15">
     <g id="line2d_55">
      <g>
       <use style="stroke:#000000;stroke-width:0.8;" x="607.34125" xlink:href="#m648920ebb4" y="149.178485"/>
      </g>
     </g>
     <g id="text_48">
      <!-- 0.4 -->
      <g transform="translate(584.438125 152.977703)scale(0.1 -0.1)">
       <use xlink:href="#DejaVuSans-48"/>
       <use x="63.623047" xlink:href="#DejaVuSans-46"/>
       <use x="95.410156" xlink:href="#DejaVuSans-52"/>
      </g>
     </g>
    </g>
    <g id="ytick_16">
     <g id="line2d_56">
      <g>
       <use style="stroke:#000000;stroke-width:0.8;" x="607.34125" xlink:href="#m648920ebb4" y="105.597889"/>
      </g>
     </g>
     <g id="text_49">
      <!-- 0.6 -->
      <g transform="translate(584.438125 109.397107)scale(0.1 -0.1)">
       <use xlink:href="#DejaVuSans-48"/>
       <use x="63.623047" xlink:href="#DejaVuSans-46"/>
       <use x="95.410156" xlink:href="#DejaVuSans-54"/>
      </g>
     </g>
    </g>
    <g id="ytick_17">
     <g id="line2d_57">
      <g>
       <use style="stroke:#000000;stroke-width:0.8;" x="607.34125" xlink:href="#m648920ebb4" y="62.017293"/>
      </g>
     </g>
     <g id="text_50">
      <!-- 0.8 -->
      <g transform="translate(584.438125 65.816512)scale(0.1 -0.1)">
       <use xlink:href="#DejaVuSans-48"/>
       <use x="63.623047" xlink:href="#DejaVuSans-46"/>
       <use x="95.410156" xlink:href="#DejaVuSans-56"/>
      </g>
     </g>
    </g>
   </g>
   <g id="line2d_58">
    <path clip-path="url(#p7f61617d22)" d="M 618.505795 167.049664 
L 628.214081 157.264868 
L 637.922389 150.499109 
L 647.630768 133.741729 
L 667.047291 90.322216 
L 686.463815 77.784256 
L 764.130376 37.853794 
L 841.796705 32.345398 
" style="fill:none;stroke:#ffffff;stroke-linecap:square;stroke-opacity:0.8;stroke-width:1.5;"/>
   </g>
   <g id="line2d_59">
    <path clip-path="url(#p7f61617d22)" d="M 618.505795 167.049664 
L 628.214081 157.264868 
L 637.922389 150.499109 
L 647.630768 133.741729 
L 667.047291 90.322216 
L 686.463815 77.784256 
L 764.130376 37.853794 
L 841.796705 32.345398 
" style="fill:none;stroke:#1f77b4;stroke-dasharray:1.5,2.475;stroke-dashoffset:0;stroke-width:1.5;"/>
   </g>
   <g id="line2d_60">
    <path clip-path="url(#p7f61617d22)" d="M 618.505795 152.00025 
L 628.214081 140.805858 
L 637.922389 134.962354 
L 647.630768 120.564011 
L 667.047291 94.066253 
L 686.463815 85.756317 
L 764.130376 59.428347 
L 841.796705 55.526566 
" style="fill:none;stroke:#ffffff;stroke-linecap:square;stroke-opacity:0.8;stroke-width:1.5;"/>
   </g>
   <g id="line2d_61">
    <path clip-path="url(#p7f61617d22)" d="M 618.505795 152.00025 
L 628.214081 140.805858 
L 637.922389 134.962354 
L 647.630768 120.564011 
L 667.047291 94.066253 
L 686.463815 85.756317 
L 764.130376 59.428347 
L 841.796705 55.526566 
" style="fill:none;stroke:#ff7f0e;stroke-dasharray:1.5,2.475;stroke-dashoffset:0;stroke-width:1.5;"/>
   </g>
   <g id="line2d_62">
    <path clip-path="url(#p7f61617d22)" d="M 618.505795 221.603791 
L 628.214081 219.522862 
L 637.922389 218.08399 
L 647.630768 214.219936 
L 667.047291 201.894532 
L 686.463815 195.593591 
L 764.130376 141.411646 
L 841.796705 106.525135 
" style="fill:none;stroke:#ffffff;stroke-linecap:square;stroke-opacity:0.8;stroke-width:1.5;"/>
   </g>
   <g id="line2d_63">
    <path clip-path="url(#p7f61617d22)" d="M 618.505795 221.603791 
L 628.214081 219.522862 
L 637.922389 218.08399 
L 647.630768 214.219936 
L 667.047291 201.894532 
L 686.463815 195.593591 
L 764.130376 141.411646 
L 841.796705 106.525135 
" style="fill:none;stroke:#2ca02c;stroke-dasharray:1.5,2.475;stroke-dashoffset:0;stroke-width:1.5;"/>
   </g>
   <g id="line2d_64">
    <path clip-path="url(#p7f61617d22)" d="M 618.505795 222.23085 
L 628.214081 220.238471 
L 637.922389 218.860828 
L 647.630768 215.161201 
L 667.047291 203.392147 
L 686.463815 197.36516 
L 764.130376 145.726556 
L 841.796705 115.797603 
" style="fill:none;stroke:#ffffff;stroke-linecap:square;stroke-opacity:0.8;stroke-width:1.5;"/>
   </g>
   <g id="line2d_65">
    <path clip-path="url(#p7f61617d22)" d="M 618.505795 222.23085 
L 628.214081 220.238471 
L 637.922389 218.860828 
L 647.630768 215.161201 
L 667.047291 203.392147 
L 686.463815 197.36516 
L 764.130376 145.726556 
L 841.796705 115.797603 
" style="fill:none;stroke:#9467bd;stroke-dasharray:1.5,2.475;stroke-dashoffset:0;stroke-width:1.5;"/>
   </g>
   <g id="patch_14">
    <path d="M 607.34125 242.918125 
L 607.34125 22.318125 
" style="fill:none;stroke:#000000;stroke-linecap:square;stroke-linejoin:miter;stroke-width:0.8;"/>
   </g>
   <g id="patch_15">
    <path d="M 607.34125 242.918125 
L 852.96125 242.918125 
" style="fill:none;stroke:#000000;stroke-linecap:square;stroke-linejoin:miter;stroke-width:0.8;"/>
   </g>
   <g id="text_51">
    <!-- 50 - 100 -->
    <g transform="translate(705.085312 16.318125)scale(0.12 -0.12)">
     <use xlink:href="#DejaVuSans-53"/>
     <use x="63.623047" xlink:href="#DejaVuSans-48"/>
     <use x="127.246094" xlink:href="#DejaVuSans-32"/>
     <use x="159.033203" xlink:href="#DejaVuSans-45"/>
     <use x="195.117188" xlink:href="#DejaVuSans-32"/>
     <use x="226.904297" xlink:href="#DejaVuSans-49"/>
     <use x="290.527344" xlink:href="#DejaVuSans-48"/>
     <use x="354.150391" xlink:href="#DejaVuSans-48"/>
    </g>
   </g>
  </g>
  <g id="axes_4">
   <g id="patch_16">
    <path d="M 889.12125 242.918125 
L 1134.74125 242.918125 
L 1134.74125 22.318125 
L 889.12125 22.318125 
z
" style="fill:#ffffff;"/>
   </g>
   <g id="PolyCollection_13">
    <defs>
     <path d="M 900.285795 -149.155443 
L 900.285795 -120.910845 
L 909.994081 -133.509345 
L 919.702389 -138.09021 
L 929.410768 -146.603659 
L 948.827291 -168.840609 
L 968.243815 -169.685718 
L 1045.910376 -136.806419 
L 1123.576705 -134.768901 
L 1123.576705 -248.128977 
L 1123.576705 -248.128977 
L 1045.910376 -225.901511 
L 968.243815 -218.354021 
L 948.827291 -214.658743 
L 929.410768 -184.136749 
L 919.702389 -171.666281 
L 909.994081 -166.257811 
L 900.285795 -149.155443 
z
" id="m802308add0" style="stroke:#1f77b4;stroke-opacity:0.6;"/>
    </defs>
    <g clip-path="url(#pfe98ddf0a5)">
     <use style="fill:#1f77b4;fill-opacity:0.6;stroke:#1f77b4;stroke-opacity:0.6;" x="0" xlink:href="#m802308add0" y="280.474375"/>
    </g>
   </g>
   <g id="PolyCollection_14">
    <defs>
     <path d="M 900.285795 -156.759758 
L 900.285795 -144.81012 
L 909.994081 -158.700473 
L 919.702389 -162.264981 
L 929.410768 -173.189598 
L 948.827291 -184.549684 
L 968.243815 -184.433688 
L 1045.910376 -160.793559 
L 1123.576705 -153.662247 
L 1123.576705 -248.128977 
L 1123.576705 -248.128977 
L 1045.910376 -225.901511 
L 968.243815 -212.454832 
L 948.827291 -210.731474 
L 929.410768 -190.392264 
L 919.702389 -177.038452 
L 909.994081 -172.555593 
L 900.285795 -156.759758 
z
" id="m6458f34510" style="stroke:#ff7f0e;stroke-opacity:0.6;"/>
    </defs>
    <g clip-path="url(#pfe98ddf0a5)">
     <use style="fill:#ff7f0e;fill-opacity:0.6;stroke:#ff7f0e;stroke-opacity:0.6;" x="0" xlink:href="#m6458f34510" y="280.474375"/>
    </g>
   </g>
   <g id="PolyCollection_15">
    <defs>
     <path d="M 900.285795 -93.752577 
L 900.285795 -80.716609 
L 909.994081 -88.165314 
L 919.702389 -91.08371 
L 929.410768 -100.469236 
L 948.827291 -120.404297 
L 968.243815 -125.441806 
L 1045.910376 -136.806419 
L 1123.576705 -128.471119 
L 1123.576705 -222.937849 
L 1123.576705 -222.937849 
L 1045.910376 -208.76784 
L 968.243815 -160.836936 
L 948.827291 -151.822446 
L 929.410768 -119.235781 
L 919.702389 -107.200224 
L 909.994081 -103.279991 
L 900.285795 -93.752577 
z
" id="md32e62d6fb" style="stroke:#2ca02c;stroke-opacity:0.6;"/>
    </defs>
    <g clip-path="url(#pfe98ddf0a5)">
     <use style="fill:#2ca02c;fill-opacity:0.6;stroke:#2ca02c;stroke-opacity:0.6;" x="0" xlink:href="#md32e62d6fb" y="280.474375"/>
    </g>
   </g>
   <g id="matplotlib.axis_7">
    <g id="xtick_19">
     <g id="line2d_66">
      <g>
       <use style="stroke:#000000;stroke-width:0.8;" x="890.577487" xlink:href="#m0144347dc1" y="242.918125"/>
      </g>
     </g>
     <g id="text_52">
      <!-- 0.0 -->
      <g transform="translate(882.625924 257.516563)scale(0.1 -0.1)">
       <use xlink:href="#DejaVuSans-48"/>
       <use x="63.623047" xlink:href="#DejaVuSans-46"/>
       <use x="95.410156" xlink:href="#DejaVuSans-48"/>
      </g>
     </g>
    </g>
    <g id="xtick_20">
     <g id="line2d_67">
      <g>
       <use style="stroke:#000000;stroke-width:0.8;" x="937.17733" xlink:href="#m0144347dc1" y="242.918125"/>
      </g>
     </g>
     <g id="text_53">
      <!-- 0.2 -->
      <g transform="translate(929.225768 257.516563)scale(0.1 -0.1)">
       <use xlink:href="#DejaVuSans-48"/>
       <use x="63.623047" xlink:href="#DejaVuSans-46"/>
       <use x="95.410156" xlink:href="#DejaVuSans-50"/>
      </g>
     </g>
    </g>
    <g id="xtick_21">
     <g id="line2d_68">
      <g>
       <use style="stroke:#000000;stroke-width:0.8;" x="983.777174" xlink:href="#m0144347dc1" y="242.918125"/>
      </g>
     </g>
     <g id="text_54">
      <!-- 0.4 -->
      <g transform="translate(975.825611 257.516563)scale(0.1 -0.1)">
       <use xlink:href="#DejaVuSans-48"/>
       <use x="63.623047" xlink:href="#DejaVuSans-46"/>
       <use x="95.410156" xlink:href="#DejaVuSans-52"/>
      </g>
     </g>
    </g>
    <g id="xtick_22">
     <g id="line2d_69">
      <g>
       <use style="stroke:#000000;stroke-width:0.8;" x="1030.377018" xlink:href="#m0144347dc1" y="242.918125"/>
      </g>
     </g>
     <g id="text_55">
      <!-- 0.6 -->
      <g transform="translate(1022.425455 257.516563)scale(0.1 -0.1)">
       <use xlink:href="#DejaVuSans-48"/>
       <use x="63.623047" xlink:href="#DejaVuSans-46"/>
       <use x="95.410156" xlink:href="#DejaVuSans-54"/>
      </g>
     </g>
    </g>
    <g id="xtick_23">
     <g id="line2d_70">
      <g>
       <use style="stroke:#000000;stroke-width:0.8;" x="1076.976861" xlink:href="#m0144347dc1" y="242.918125"/>
      </g>
     </g>
     <g id="text_56">
      <!-- 0.8 -->
      <g transform="translate(1069.025299 257.516563)scale(0.1 -0.1)">
       <use xlink:href="#DejaVuSans-48"/>
       <use x="63.623047" xlink:href="#DejaVuSans-46"/>
       <use x="95.410156" xlink:href="#DejaVuSans-56"/>
      </g>
     </g>
    </g>
    <g id="xtick_24">
     <g id="line2d_71">
      <g>
       <use style="stroke:#000000;stroke-width:0.8;" x="1123.576705" xlink:href="#m0144347dc1" y="242.918125"/>
      </g>
     </g>
     <g id="text_57">
      <!-- 1.0 -->
      <g transform="translate(1115.625142 257.516563)scale(0.1 -0.1)">
       <use xlink:href="#DejaVuSans-49"/>
       <use x="63.623047" xlink:href="#DejaVuSans-46"/>
       <use x="95.410156" xlink:href="#DejaVuSans-48"/>
      </g>
     </g>
    </g>
    <g id="text_58">
     <!-- allele frequency -->
     <g transform="translate(971.770312 271.194687)scale(0.1 -0.1)">
      <use xlink:href="#DejaVuSans-97"/>
      <use x="61.279297" xlink:href="#DejaVuSans-108"/>
      <use x="89.0625" xlink:href="#DejaVuSans-108"/>
      <use x="116.845703" xlink:href="#DejaVuSans-101"/>
      <use x="178.369141" xlink:href="#DejaVuSans-108"/>
      <use x="206.152344" xlink:href="#DejaVuSans-101"/>
      <use x="267.675781" xlink:href="#DejaVuSans-32"/>
      <use x="299.462891" xlink:href="#DejaVuSans-102"/>
      <use x="334.667969" xlink:href="#DejaVuSans-114"/>
      <use x="375.75" xlink:href="#DejaVuSans-101"/>
      <use x="437.273438" xlink:href="#DejaVuSans-113"/>
      <use x="500.75" xlink:href="#DejaVuSans-117"/>
      <use x="564.128906" xlink:href="#DejaVuSans-101"/>
      <use x="625.652344" xlink:href="#DejaVuSans-110"/>
      <use x="689.03125" xlink:href="#DejaVuSans-99"/>
      <use x="744.011719" xlink:href="#DejaVuSans-121"/>
     </g>
    </g>
   </g>
   <g id="matplotlib.axis_8">
    <g id="ytick_18">
     <g id="line2d_72">
      <g>
       <use style="stroke:#000000;stroke-width:0.8;" x="889.12125" xlink:href="#m648920ebb4" y="199.866399"/>
      </g>
     </g>
     <g id="text_59">
      <!-- 0.2 -->
      <g transform="translate(866.218125 203.665618)scale(0.1 -0.1)">
       <use xlink:href="#DejaVuSans-48"/>
       <use x="63.623047" xlink:href="#DejaVuSans-46"/>
       <use x="95.410156" xlink:href="#DejaVuSans-50"/>
      </g>
     </g>
    </g>
    <g id="ytick_19">
     <g id="line2d_73">
      <g>
       <use style="stroke:#000000;stroke-width:0.8;" x="889.12125" xlink:href="#m648920ebb4" y="153.262812"/>
      </g>
     </g>
     <g id="text_60">
      <!-- 0.4 -->
      <g transform="translate(866.218125 157.062031)scale(0.1 -0.1)">
       <use xlink:href="#DejaVuSans-48"/>
       <use x="63.623047" xlink:href="#DejaVuSans-46"/>
       <use x="95.410156" xlink:href="#DejaVuSans-52"/>
      </g>
     </g>
    </g>
    <g id="ytick_20">
     <g id="line2d_74">
      <g>
       <use style="stroke:#000000;stroke-width:0.8;" x="889.12125" xlink:href="#m648920ebb4" y="106.659225"/>
      </g>
     </g>
     <g id="text_61">
      <!-- 0.6 -->
      <g transform="translate(866.218125 110.458444)scale(0.1 -0.1)">
       <use xlink:href="#DejaVuSans-48"/>
       <use x="63.623047" xlink:href="#DejaVuSans-46"/>
       <use x="95.410156" xlink:href="#DejaVuSans-54"/>
      </g>
     </g>
    </g>
    <g id="ytick_21">
     <g id="line2d_75">
      <g>
       <use style="stroke:#000000;stroke-width:0.8;" x="889.12125" xlink:href="#m648920ebb4" y="60.055639"/>
      </g>
     </g>
     <g id="text_62">
      <!-- 0.8 -->
      <g transform="translate(866.218125 63.854857)scale(0.1 -0.1)">
       <use xlink:href="#DejaVuSans-48"/>
       <use x="63.623047" xlink:href="#DejaVuSans-46"/>
       <use x="95.410156" xlink:href="#DejaVuSans-56"/>
      </g>
     </g>
    </g>
   </g>
   <g id="line2d_76">
    <path clip-path="url(#pfe98ddf0a5)" d="M 900.285795 168.254176 
L 909.994081 155.781925 
L 919.702389 149.770901 
L 929.410768 135.434594 
L 948.827291 81.524707 
L 968.243815 68.019543 
L 1045.910376 37.439192 
L 1123.576705 32.345398 
" style="fill:none;stroke:#ffffff;stroke-linecap:square;stroke-opacity:0.8;stroke-width:1.5;"/>
   </g>
   <g id="line2d_77">
    <path clip-path="url(#pfe98ddf0a5)" d="M 900.285795 168.254176 
L 909.994081 155.781925 
L 919.702389 149.770901 
L 929.410768 135.434594 
L 948.827291 81.524707 
L 968.243815 68.019543 
L 1045.910376 37.439192 
L 1123.576705 32.345398 
" style="fill:none;stroke:#1f77b4;stroke-dasharray:1.5,2.475;stroke-dashoffset:0;stroke-width:1.5;"/>
   </g>
   <g id="line2d_78">
    <path clip-path="url(#pfe98ddf0a5)" d="M 900.285795 154.131877 
L 909.994081 141.297026 
L 919.702389 138.355037 
L 929.410768 126.051322 
L 948.827291 102.470139 
L 968.243815 100.465078 
L 1045.910376 57.999598 
L 1123.576705 57.536526 
" style="fill:none;stroke:#ffffff;stroke-linecap:square;stroke-opacity:0.8;stroke-width:1.5;"/>
   </g>
   <g id="line2d_79">
    <path clip-path="url(#pfe98ddf0a5)" d="M 900.285795 154.131877 
L 909.994081 141.297026 
L 919.702389 138.355037 
L 929.410768 126.051322 
L 948.827291 102.470139 
L 968.243815 100.465078 
L 1045.910376 57.999598 
L 1123.576705 57.536526 
" style="fill:none;stroke:#ff7f0e;stroke-dasharray:1.5,2.475;stroke-dashoffset:0;stroke-width:1.5;"/>
   </g>
   <g id="line2d_80">
    <path clip-path="url(#pfe98ddf0a5)" d="M 900.285795 231.261356 
L 909.994081 228.836196 
L 919.702389 227.667386 
L 929.410768 224.575683 
L 948.827291 209.815479 
L 968.243815 205.175669 
L 1045.910376 150.521425 
L 1123.576705 120.514346 
" style="fill:none;stroke:#ffffff;stroke-linecap:square;stroke-opacity:0.8;stroke-width:1.5;"/>
   </g>
   <g id="line2d_81">
    <path clip-path="url(#pfe98ddf0a5)" d="M 900.285795 231.261356 
L 909.994081 228.836196 
L 919.702389 227.667386 
L 929.410768 224.575683 
L 948.827291 209.815479 
L 968.243815 205.175669 
L 1045.910376 150.521425 
L 1123.576705 120.514346 
" style="fill:none;stroke:#2ca02c;stroke-dasharray:1.5,2.475;stroke-dashoffset:0;stroke-width:1.5;"/>
   </g>
   <g id="line2d_82">
    <path clip-path="url(#pfe98ddf0a5)" d="M 900.285795 232.890852 
L 909.994081 230.725531 
L 919.702389 229.68195 
L 929.410768 226.921502 
L 948.827291 213.742748 
L 968.243815 209.60006 
L 1045.910376 160.801628 
L 1123.576705 139.407692 
" style="fill:none;stroke:#ffffff;stroke-linecap:square;stroke-opacity:0.8;stroke-width:1.5;"/>
   </g>
   <g id="line2d_83">
    <path clip-path="url(#pfe98ddf0a5)" d="M 900.285795 232.890852 
L 909.994081 230.725531 
L 919.702389 229.68195 
L 929.410768 226.921502 
L 948.827291 213.742748 
L 968.243815 209.60006 
L 1045.910376 160.801628 
L 1123.576705 139.407692 
" style="fill:none;stroke:#9467bd;stroke-dasharray:1.5,2.475;stroke-dashoffset:0;stroke-width:1.5;"/>
   </g>
   <g id="patch_17">
    <path d="M 889.12125 242.918125 
L 889.12125 22.318125 
" style="fill:none;stroke:#000000;stroke-linecap:square;stroke-linejoin:miter;stroke-width:0.8;"/>
   </g>
   <g id="patch_18">
    <path d="M 889.12125 242.918125 
L 1134.74125 242.918125 
" style="fill:none;stroke:#000000;stroke-linecap:square;stroke-linejoin:miter;stroke-width:0.8;"/>
   </g>
   <g id="text_63">
    <!-- 100 - 250 -->
    <g transform="translate(983.047812 16.318125)scale(0.12 -0.12)">
     <use xlink:href="#DejaVuSans-49"/>
     <use x="63.623047" xlink:href="#DejaVuSans-48"/>
     <use x="127.246094" xlink:href="#DejaVuSans-48"/>
     <use x="190.869141" xlink:href="#DejaVuSans-32"/>
     <use x="222.65625" xlink:href="#DejaVuSans-45"/>
     <use x="258.740234" xlink:href="#DejaVuSans-32"/>
     <use x="290.527344" xlink:href="#DejaVuSans-50"/>
     <use x="354.150391" xlink:href="#DejaVuSans-53"/>
     <use x="417.773438" xlink:href="#DejaVuSans-48"/>
    </g>
   </g>
  </g>
 </g>
 <defs>
  <clipPath id="pe51cc35aca">
   <rect height="220.6" width="245.62" x="43.78125" y="22.318125"/>
  </clipPath>
  <clipPath id="pf2aed5528d">
   <rect height="220.6" width="245.62" x="325.56125" y="22.318125"/>
  </clipPath>
  <clipPath id="p7f61617d22">
   <rect height="220.6" width="245.62" x="607.34125" y="22.318125"/>
  </clipPath>
  <clipPath id="pfe98ddf0a5">
   <rect height="220.6" width="245.62" x="889.12125" y="22.318125"/>
  </clipPath>
 </defs>
</svg>
