<?xml version="1.0" encoding="utf-8" standalone="no"?>
<!DOCTYPE svg PUBLIC "-//W3C//DTD SVG 1.1//EN"
  "http://www.w3.org/Graphics/SVG/1.1/DTD/svg11.dtd">
<!-- Created with matplotlib (https://matplotlib.org/) -->
<svg height="568.474375pt" version="1.1" viewBox="0 0 569.44125 568.474375" width="569.44125pt" xmlns="http://www.w3.org/2000/svg" xmlns:xlink="http://www.w3.org/1999/xlink">
 <defs>
  <style type="text/css">
*{stroke-linecap:butt;stroke-linejoin:round;}
  </style>
 </defs>
 <g id="figure_1">
  <g id="patch_1">
   <path d="M 0 568.474375 
L 569.44125 568.474375 
L 569.44125 0 
L 0 0 
z
" style="fill:#ffffff;"/>
  </g>
  <g id="axes_1">
   <g id="patch_2">
    <path d="M 43.78125 255.358125 
L 279.98625 255.358125 
L 279.98625 22.318125 
L 43.78125 22.318125 
z
" style="fill:#ffffff;"/>
   </g>
   <g id="PolyCollection_1">
    <defs>
     <path d="M 54.517841 -323.744757 
L 54.517841 -323.708977 
L 63.853992 -323.951813 
L 73.190166 -324.079768 
L 82.526407 -324.35515 
L 101.198665 -325.2778 
L 119.870923 -325.50181 
L 194.560403 -326.441309 
L 269.249659 -326.507509 
L 269.249659 -327.047038 
L 269.249659 -327.047038 
L 194.560403 -326.710153 
L 119.870923 -325.609272 
L 101.198665 -325.367336 
L 82.526407 -324.40881 
L 73.190166 -324.124489 
L 63.853992 -323.993085 
L 54.517841 -323.744757 
z
" id="m04cce03e59" style="stroke:#1f77b4;stroke-opacity:0.6;"/>
    </defs>
    <g clip-path="url(#pd0af4ea34a)">
     <use style="fill:#1f77b4;fill-opacity:0.6;stroke:#1f77b4;stroke-opacity:0.6;" x="0" xlink:href="#m04cce03e59" y="568.474375"/>
    </g>
   </g>
   <g id="PolyCollection_2">
    <defs>
     <path d="M 54.517841 -472.529155 
L 54.517841 -471.09965 
L 63.853992 -489.24641 
L 73.190166 -496.204204 
L 82.526407 -505.136088 
L 101.198665 -520.883719 
L 119.870923 -522.730201 
L 194.560403 -523.529554 
L 269.249659 -517.012615 
L 269.249659 -530.141153 
L 269.249659 -530.141153 
L 194.560403 -530.634716 
L 119.870923 -526.209919 
L 101.198665 -523.910882 
L 82.526407 -507.172617 
L 73.190166 -497.965334 
L 63.853992 -490.881589 
L 54.517841 -472.529155 
z
" id="m10ea43430d" style="stroke:#ff7f0e;stroke-opacity:0.6;"/>
    </defs>
    <g clip-path="url(#pd0af4ea34a)">
     <use style="fill:#ff7f0e;fill-opacity:0.6;stroke:#ff7f0e;stroke-opacity:0.6;" x="0" xlink:href="#m10ea43430d" y="568.474375"/>
    </g>
   </g>
   <g id="PolyCollection_3">
    <defs>
     <path d="M 54.517841 -327.459086 
L 54.517841 -327.302334 
L 63.853992 -328.063345 
L 73.190166 -328.466623 
L 82.526407 -329.371094 
L 101.198665 -332.125159 
L 119.870923 -333.003673 
L 194.560403 -337.003037 
L 269.249659 -337.657774 
L 269.249659 -339.558971 
L 269.249659 -339.558971 
L 194.560403 -338.027205 
L 119.870923 -333.45399 
L 101.198665 -332.50462 
L 82.526407 -329.606176 
L 73.190166 -328.662541 
L 63.853992 -328.244158 
L 54.517841 -327.459086 
z
" id="m533b20237e" style="stroke:#2ca02c;stroke-opacity:0.6;"/>
    </defs>
    <g clip-path="url(#pd0af4ea34a)">
     <use style="fill:#2ca02c;fill-opacity:0.6;stroke:#2ca02c;stroke-opacity:0.6;" x="0" xlink:href="#m533b20237e" y="568.474375"/>
    </g>
   </g>
   <g id="PolyCollection_4">
    <defs>
     <path d="M 54.517841 -454.487403 
L 54.517841 -452.654092 
L 63.853992 -471.672165 
L 73.190166 -480.735216 
L 82.526407 -494.759243 
L 101.198665 -521.698068 
L 119.870923 -524.771977 
L 194.560403 -526.435629 
L 269.249659 -519.504725 
L 269.249659 -534.303233 
L 269.249659 -534.303233 
L 194.560403 -534.949022 
L 119.870923 -529.213735 
L 101.198665 -525.637644 
L 82.526407 -497.378368 
L 73.190166 -483.007436 
L 63.853992 -473.77903 
L 54.517841 -454.487403 
z
" id="m8efc5ed9da" style="stroke:#d62728;stroke-opacity:0.6;"/>
    </defs>
    <g clip-path="url(#pd0af4ea34a)">
     <use style="fill:#d62728;fill-opacity:0.6;stroke:#d62728;stroke-opacity:0.6;" x="0" xlink:href="#m8efc5ed9da" y="568.474375"/>
    </g>
   </g>
   <g id="matplotlib.axis_1">
    <g id="xtick_1">
     <g id="line2d_1">
      <defs>
       <path d="M 0 0 
L 0 3.5 
" id="m9cc7b5b5e4" style="stroke:#000000;stroke-width:0.8;"/>
      </defs>
      <g>
       <use style="stroke:#000000;stroke-width:0.8;" x="45.181667" xlink:href="#m9cc7b5b5e4" y="255.358125"/>
      </g>
     </g>
     <g id="text_1">
      <!-- 0.0 -->
      <defs>
       <path d="M 31.78125 66.40625 
Q 24.171875 66.40625 20.328125 58.90625 
Q 16.5 51.421875 16.5 36.375 
Q 16.5 21.390625 20.328125 13.890625 
Q 24.171875 6.390625 31.78125 6.390625 
Q 39.453125 6.390625 43.28125 13.890625 
Q 47.125 21.390625 47.125 36.375 
Q 47.125 51.421875 43.28125 58.90625 
Q 39.453125 66.40625 31.78125 66.40625 
z
M 31.78125 74.21875 
Q 44.046875 74.21875 50.515625 64.515625 
Q 56.984375 54.828125 56.984375 36.375 
Q 56.984375 17.96875 50.515625 8.265625 
Q 44.046875 -1.421875 31.78125 -1.421875 
Q 19.53125 -1.421875 13.0625 8.265625 
Q 6.59375 17.96875 6.59375 36.375 
Q 6.59375 54.828125 13.0625 64.515625 
Q 19.53125 74.21875 31.78125 74.21875 
z
" id="DejaVuSans-48"/>
       <path d="M 10.6875 12.40625 
L 21 12.40625 
L 21 0 
L 10.6875 0 
z
" id="DejaVuSans-46"/>
      </defs>
      <g transform="translate(37.230105 269.956562)scale(0.1 -0.1)">
       <use xlink:href="#DejaVuSans-48"/>
       <use x="63.623047" xlink:href="#DejaVuSans-46"/>
       <use x="95.410156" xlink:href="#DejaVuSans-48"/>
      </g>
     </g>
    </g>
    <g id="xtick_2">
     <g id="line2d_2">
      <g>
       <use style="stroke:#000000;stroke-width:0.8;" x="89.995266" xlink:href="#m9cc7b5b5e4" y="255.358125"/>
      </g>
     </g>
     <g id="text_2">
      <!-- 0.2 -->
      <defs>
       <path d="M 19.1875 8.296875 
L 53.609375 8.296875 
L 53.609375 0 
L 7.328125 0 
L 7.328125 8.296875 
Q 12.9375 14.109375 22.625 23.890625 
Q 32.328125 33.6875 34.8125 36.53125 
Q 39.546875 41.84375 41.421875 45.53125 
Q 43.3125 49.21875 43.3125 52.78125 
Q 43.3125 58.59375 39.234375 62.25 
Q 35.15625 65.921875 28.609375 65.921875 
Q 23.96875 65.921875 18.8125 64.3125 
Q 13.671875 62.703125 7.8125 59.421875 
L 7.8125 69.390625 
Q 13.765625 71.78125 18.9375 73 
Q 24.125 74.21875 28.421875 74.21875 
Q 39.75 74.21875 46.484375 68.546875 
Q 53.21875 62.890625 53.21875 53.421875 
Q 53.21875 48.921875 51.53125 44.890625 
Q 49.859375 40.875 45.40625 35.40625 
Q 44.1875 33.984375 37.640625 27.21875 
Q 31.109375 20.453125 19.1875 8.296875 
z
" id="DejaVuSans-50"/>
      </defs>
      <g transform="translate(82.043703 269.956562)scale(0.1 -0.1)">
       <use xlink:href="#DejaVuSans-48"/>
       <use x="63.623047" xlink:href="#DejaVuSans-46"/>
       <use x="95.410156" xlink:href="#DejaVuSans-50"/>
      </g>
     </g>
    </g>
    <g id="xtick_3">
     <g id="line2d_3">
      <g>
       <use style="stroke:#000000;stroke-width:0.8;" x="134.808864" xlink:href="#m9cc7b5b5e4" y="255.358125"/>
      </g>
     </g>
     <g id="text_3">
      <!-- 0.4 -->
      <defs>
       <path d="M 37.796875 64.3125 
L 12.890625 25.390625 
L 37.796875 25.390625 
z
M 35.203125 72.90625 
L 47.609375 72.90625 
L 47.609375 25.390625 
L 58.015625 25.390625 
L 58.015625 17.1875 
L 47.609375 17.1875 
L 47.609375 0 
L 37.796875 0 
L 37.796875 17.1875 
L 4.890625 17.1875 
L 4.890625 26.703125 
z
" id="DejaVuSans-52"/>
      </defs>
      <g transform="translate(126.857301 269.956562)scale(0.1 -0.1)">
       <use xlink:href="#DejaVuSans-48"/>
       <use x="63.623047" xlink:href="#DejaVuSans-46"/>
       <use x="95.410156" xlink:href="#DejaVuSans-52"/>
      </g>
     </g>
    </g>
    <g id="xtick_4">
     <g id="line2d_4">
      <g>
       <use style="stroke:#000000;stroke-width:0.8;" x="179.622462" xlink:href="#m9cc7b5b5e4" y="255.358125"/>
      </g>
     </g>
     <g id="text_4">
      <!-- 0.6 -->
      <defs>
       <path d="M 33.015625 40.375 
Q 26.375 40.375 22.484375 35.828125 
Q 18.609375 31.296875 18.609375 23.390625 
Q 18.609375 15.53125 22.484375 10.953125 
Q 26.375 6.390625 33.015625 6.390625 
Q 39.65625 6.390625 43.53125 10.953125 
Q 47.40625 15.53125 47.40625 23.390625 
Q 47.40625 31.296875 43.53125 35.828125 
Q 39.65625 40.375 33.015625 40.375 
z
M 52.59375 71.296875 
L 52.59375 62.3125 
Q 48.875 64.0625 45.09375 64.984375 
Q 41.3125 65.921875 37.59375 65.921875 
Q 27.828125 65.921875 22.671875 59.328125 
Q 17.53125 52.734375 16.796875 39.40625 
Q 19.671875 43.65625 24.015625 45.921875 
Q 28.375 48.1875 33.59375 48.1875 
Q 44.578125 48.1875 50.953125 41.515625 
Q 57.328125 34.859375 57.328125 23.390625 
Q 57.328125 12.15625 50.6875 5.359375 
Q 44.046875 -1.421875 33.015625 -1.421875 
Q 20.359375 -1.421875 13.671875 8.265625 
Q 6.984375 17.96875 6.984375 36.375 
Q 6.984375 53.65625 15.1875 63.9375 
Q 23.390625 74.21875 37.203125 74.21875 
Q 40.921875 74.21875 44.703125 73.484375 
Q 48.484375 72.75 52.59375 71.296875 
z
" id="DejaVuSans-54"/>
      </defs>
      <g transform="translate(171.6709 269.956562)scale(0.1 -0.1)">
       <use xlink:href="#DejaVuSans-48"/>
       <use x="63.623047" xlink:href="#DejaVuSans-46"/>
       <use x="95.410156" xlink:href="#DejaVuSans-54"/>
      </g>
     </g>
    </g>
    <g id="xtick_5">
     <g id="line2d_5">
      <g>
       <use style="stroke:#000000;stroke-width:0.8;" x="224.436061" xlink:href="#m9cc7b5b5e4" y="255.358125"/>
      </g>
     </g>
     <g id="text_5">
      <!-- 0.8 -->
      <defs>
       <path d="M 31.78125 34.625 
Q 24.75 34.625 20.71875 30.859375 
Q 16.703125 27.09375 16.703125 20.515625 
Q 16.703125 13.921875 20.71875 10.15625 
Q 24.75 6.390625 31.78125 6.390625 
Q 38.8125 6.390625 42.859375 10.171875 
Q 46.921875 13.96875 46.921875 20.515625 
Q 46.921875 27.09375 42.890625 30.859375 
Q 38.875 34.625 31.78125 34.625 
z
M 21.921875 38.8125 
Q 15.578125 40.375 12.03125 44.71875 
Q 8.5 49.078125 8.5 55.328125 
Q 8.5 64.0625 14.71875 69.140625 
Q 20.953125 74.21875 31.78125 74.21875 
Q 42.671875 74.21875 48.875 69.140625 
Q 55.078125 64.0625 55.078125 55.328125 
Q 55.078125 49.078125 51.53125 44.71875 
Q 48 40.375 41.703125 38.8125 
Q 48.828125 37.15625 52.796875 32.3125 
Q 56.78125 27.484375 56.78125 20.515625 
Q 56.78125 9.90625 50.3125 4.234375 
Q 43.84375 -1.421875 31.78125 -1.421875 
Q 19.734375 -1.421875 13.25 4.234375 
Q 6.78125 9.90625 6.78125 20.515625 
Q 6.78125 27.484375 10.78125 32.3125 
Q 14.796875 37.15625 21.921875 38.8125 
z
M 18.3125 54.390625 
Q 18.3125 48.734375 21.84375 45.5625 
Q 25.390625 42.390625 31.78125 42.390625 
Q 38.140625 42.390625 41.71875 45.5625 
Q 45.3125 48.734375 45.3125 54.390625 
Q 45.3125 60.0625 41.71875 63.234375 
Q 38.140625 66.40625 31.78125 66.40625 
Q 25.390625 66.40625 21.84375 63.234375 
Q 18.3125 60.0625 18.3125 54.390625 
z
" id="DejaVuSans-56"/>
      </defs>
      <g transform="translate(216.484498 269.956562)scale(0.1 -0.1)">
       <use xlink:href="#DejaVuSans-48"/>
       <use x="63.623047" xlink:href="#DejaVuSans-46"/>
       <use x="95.410156" xlink:href="#DejaVuSans-56"/>
      </g>
     </g>
    </g>
    <g id="xtick_6">
     <g id="line2d_6">
      <g>
       <use style="stroke:#000000;stroke-width:0.8;" x="269.249659" xlink:href="#m9cc7b5b5e4" y="255.358125"/>
      </g>
     </g>
     <g id="text_6">
      <!-- 1.0 -->
      <defs>
       <path d="M 12.40625 8.296875 
L 28.515625 8.296875 
L 28.515625 63.921875 
L 10.984375 60.40625 
L 10.984375 69.390625 
L 28.421875 72.90625 
L 38.28125 72.90625 
L 38.28125 8.296875 
L 54.390625 8.296875 
L 54.390625 0 
L 12.40625 0 
z
" id="DejaVuSans-49"/>
      </defs>
      <g transform="translate(261.298097 269.956562)scale(0.1 -0.1)">
       <use xlink:href="#DejaVuSans-49"/>
       <use x="63.623047" xlink:href="#DejaVuSans-46"/>
       <use x="95.410156" xlink:href="#DejaVuSans-48"/>
      </g>
     </g>
    </g>
   </g>
   <g id="matplotlib.axis_2">
    <g id="ytick_1">
     <g id="line2d_7">
      <defs>
       <path d="M 0 0 
L -3.5 0 
" id="me1d1fafa8b" style="stroke:#000000;stroke-width:0.8;"/>
      </defs>
      <g>
       <use style="stroke:#000000;stroke-width:0.8;" x="43.78125" xlink:href="#me1d1fafa8b" y="246.360173"/>
      </g>
     </g>
     <g id="text_7">
      <!-- 0.0 -->
      <g transform="translate(20.878125 250.159392)scale(0.1 -0.1)">
       <use xlink:href="#DejaVuSans-48"/>
       <use x="63.623047" xlink:href="#DejaVuSans-46"/>
       <use x="95.410156" xlink:href="#DejaVuSans-48"/>
      </g>
     </g>
    </g>
    <g id="ytick_2">
     <g id="line2d_8">
      <g>
       <use style="stroke:#000000;stroke-width:0.8;" x="43.78125" xlink:href="#me1d1fafa8b" y="199.837362"/>
      </g>
     </g>
     <g id="text_8">
      <!-- 0.2 -->
      <g transform="translate(20.878125 203.636581)scale(0.1 -0.1)">
       <use xlink:href="#DejaVuSans-48"/>
       <use x="63.623047" xlink:href="#DejaVuSans-46"/>
       <use x="95.410156" xlink:href="#DejaVuSans-50"/>
      </g>
     </g>
    </g>
    <g id="ytick_3">
     <g id="line2d_9">
      <g>
       <use style="stroke:#000000;stroke-width:0.8;" x="43.78125" xlink:href="#me1d1fafa8b" y="153.314551"/>
      </g>
     </g>
     <g id="text_9">
      <!-- 0.4 -->
      <g transform="translate(20.878125 157.11377)scale(0.1 -0.1)">
       <use xlink:href="#DejaVuSans-48"/>
       <use x="63.623047" xlink:href="#DejaVuSans-46"/>
       <use x="95.410156" xlink:href="#DejaVuSans-52"/>
      </g>
     </g>
    </g>
    <g id="ytick_4">
     <g id="line2d_10">
      <g>
       <use style="stroke:#000000;stroke-width:0.8;" x="43.78125" xlink:href="#me1d1fafa8b" y="106.791739"/>
      </g>
     </g>
     <g id="text_10">
      <!-- 0.6 -->
      <g transform="translate(20.878125 110.590958)scale(0.1 -0.1)">
       <use xlink:href="#DejaVuSans-48"/>
       <use x="63.623047" xlink:href="#DejaVuSans-46"/>
       <use x="95.410156" xlink:href="#DejaVuSans-54"/>
      </g>
     </g>
    </g>
    <g id="ytick_5">
     <g id="line2d_11">
      <g>
       <use style="stroke:#000000;stroke-width:0.8;" x="43.78125" xlink:href="#me1d1fafa8b" y="60.268928"/>
      </g>
     </g>
     <g id="text_11">
      <!-- 0.8 -->
      <g transform="translate(20.878125 64.068147)scale(0.1 -0.1)">
       <use xlink:href="#DejaVuSans-48"/>
       <use x="63.623047" xlink:href="#DejaVuSans-46"/>
       <use x="95.410156" xlink:href="#DejaVuSans-56"/>
      </g>
     </g>
    </g>
    <g id="text_12">
     <!-- recall -->
     <defs>
      <path d="M 41.109375 46.296875 
Q 39.59375 47.171875 37.8125 47.578125 
Q 36.03125 48 33.890625 48 
Q 26.265625 48 22.1875 43.046875 
Q 18.109375 38.09375 18.109375 28.8125 
L 18.109375 0 
L 9.078125 0 
L 9.078125 54.6875 
L 18.109375 54.6875 
L 18.109375 46.1875 
Q 20.953125 51.171875 25.484375 53.578125 
Q 30.03125 56 36.53125 56 
Q 37.453125 56 38.578125 55.875 
Q 39.703125 55.765625 41.0625 55.515625 
z
" id="DejaVuSans-114"/>
      <path d="M 56.203125 29.59375 
L 56.203125 25.203125 
L 14.890625 25.203125 
Q 15.484375 15.921875 20.484375 11.0625 
Q 25.484375 6.203125 34.421875 6.203125 
Q 39.59375 6.203125 44.453125 7.46875 
Q 49.3125 8.734375 54.109375 11.28125 
L 54.109375 2.78125 
Q 49.265625 0.734375 44.1875 -0.34375 
Q 39.109375 -1.421875 33.890625 -1.421875 
Q 20.796875 -1.421875 13.15625 6.1875 
Q 5.515625 13.8125 5.515625 26.8125 
Q 5.515625 40.234375 12.765625 48.109375 
Q 20.015625 56 32.328125 56 
Q 43.359375 56 49.78125 48.890625 
Q 56.203125 41.796875 56.203125 29.59375 
z
M 47.21875 32.234375 
Q 47.125 39.59375 43.09375 43.984375 
Q 39.0625 48.390625 32.421875 48.390625 
Q 24.90625 48.390625 20.390625 44.140625 
Q 15.875 39.890625 15.1875 32.171875 
z
" id="DejaVuSans-101"/>
      <path d="M 48.78125 52.59375 
L 48.78125 44.1875 
Q 44.96875 46.296875 41.140625 47.34375 
Q 37.3125 48.390625 33.40625 48.390625 
Q 24.65625 48.390625 19.8125 42.84375 
Q 14.984375 37.3125 14.984375 27.296875 
Q 14.984375 17.28125 19.8125 11.734375 
Q 24.65625 6.203125 33.40625 6.203125 
Q 37.3125 6.203125 41.140625 7.25 
Q 44.96875 8.296875 48.78125 10.40625 
L 48.78125 2.09375 
Q 45.015625 0.34375 40.984375 -0.53125 
Q 36.96875 -1.421875 32.421875 -1.421875 
Q 20.0625 -1.421875 12.78125 6.34375 
Q 5.515625 14.109375 5.515625 27.296875 
Q 5.515625 40.671875 12.859375 48.328125 
Q 20.21875 56 33.015625 56 
Q 37.15625 56 41.109375 55.140625 
Q 45.0625 54.296875 48.78125 52.59375 
z
" id="DejaVuSans-99"/>
      <path d="M 34.28125 27.484375 
Q 23.390625 27.484375 19.1875 25 
Q 14.984375 22.515625 14.984375 16.5 
Q 14.984375 11.71875 18.140625 8.90625 
Q 21.296875 6.109375 26.703125 6.109375 
Q 34.1875 6.109375 38.703125 11.40625 
Q 43.21875 16.703125 43.21875 25.484375 
L 43.21875 27.484375 
z
M 52.203125 31.203125 
L 52.203125 0 
L 43.21875 0 
L 43.21875 8.296875 
Q 40.140625 3.328125 35.546875 0.953125 
Q 30.953125 -1.421875 24.3125 -1.421875 
Q 15.921875 -1.421875 10.953125 3.296875 
Q 6 8.015625 6 15.921875 
Q 6 25.140625 12.171875 29.828125 
Q 18.359375 34.515625 30.609375 34.515625 
L 43.21875 34.515625 
L 43.21875 35.40625 
Q 43.21875 41.609375 39.140625 45 
Q 35.0625 48.390625 27.6875 48.390625 
Q 23 48.390625 18.546875 47.265625 
Q 14.109375 46.140625 10.015625 43.890625 
L 10.015625 52.203125 
Q 14.9375 54.109375 19.578125 55.046875 
Q 24.21875 56 28.609375 56 
Q 40.484375 56 46.34375 49.84375 
Q 52.203125 43.703125 52.203125 31.203125 
z
" id="DejaVuSans-97"/>
      <path d="M 9.421875 75.984375 
L 18.40625 75.984375 
L 18.40625 0 
L 9.421875 0 
z
" id="DejaVuSans-108"/>
     </defs>
     <g transform="translate(14.798438 152.56)rotate(-90)scale(0.1 -0.1)">
      <use xlink:href="#DejaVuSans-114"/>
      <use x="41.082031" xlink:href="#DejaVuSans-101"/>
      <use x="102.605469" xlink:href="#DejaVuSans-99"/>
      <use x="157.585938" xlink:href="#DejaVuSans-97"/>
      <use x="218.865234" xlink:href="#DejaVuSans-108"/>
      <use x="246.648438" xlink:href="#DejaVuSans-108"/>
     </g>
    </g>
   </g>
   <g id="line2d_12">
    <path clip-path="url(#pd0af4ea34a)" d="M 54.517841 150.171002 
L 63.853992 136.252872 
L 73.190166 129.367433 
L 82.526407 116.975408 
L 101.198665 86.155012 
L 119.870923 79.149471 
L 194.560403 52.446848 
L 269.249659 48.019052 
" style="fill:none;stroke:#ffffff;stroke-linecap:square;stroke-opacity:0.8;stroke-width:1.5;"/>
   </g>
   <g id="line2d_13">
    <path clip-path="url(#pd0af4ea34a)" d="M 54.517841 150.171002 
L 63.853992 136.252872 
L 73.190166 129.367433 
L 82.526407 116.975408 
L 101.198665 86.155012 
L 119.870923 79.149471 
L 194.560403 52.446848 
L 269.249659 48.019052 
" style="fill:none;stroke:#ff7f0e;stroke-dasharray:1.5,2.475;stroke-dashoffset:0;stroke-width:1.5;"/>
   </g>
   <g id="line2d_14">
    <path clip-path="url(#pd0af4ea34a)" d="M 54.517841 119.384675 
L 63.853992 100.607146 
L 73.190166 91.201793 
L 82.526407 75.851315 
L 101.198665 44.017751 
L 119.870923 39.700722 
L 194.560403 32.910852 
L 269.249659 33.400386 
" style="fill:none;stroke:#ffffff;stroke-linecap:square;stroke-opacity:0.8;stroke-width:1.5;"/>
   </g>
   <g id="line2d_15">
    <path clip-path="url(#pd0af4ea34a)" d="M 54.517841 119.384675 
L 63.853992 100.607146 
L 73.190166 91.201793 
L 82.526407 75.851315 
L 101.198665 44.017751 
L 119.870923 39.700722 
L 194.560403 32.910852 
L 269.249659 33.400386 
" style="fill:none;stroke:#d62728;stroke-dasharray:1.5,2.475;stroke-dashoffset:0;stroke-width:1.5;"/>
   </g>
   <g id="patch_3">
    <path d="M 43.78125 255.358125 
L 43.78125 22.318125 
" style="fill:none;stroke:#000000;stroke-linecap:square;stroke-linejoin:miter;stroke-width:0.8;"/>
   </g>
   <g id="patch_4">
    <path d="M 43.78125 255.358125 
L 279.98625 255.358125 
" style="fill:none;stroke:#000000;stroke-linecap:square;stroke-linejoin:miter;stroke-width:0.8;"/>
   </g>
   <g id="text_13">
    <!-- 1 - 30 -->
    <defs>
     <path id="DejaVuSans-32"/>
     <path d="M 4.890625 31.390625 
L 31.203125 31.390625 
L 31.203125 23.390625 
L 4.890625 23.390625 
z
" id="DejaVuSans-45"/>
     <path d="M 40.578125 39.3125 
Q 47.65625 37.796875 51.625 33 
Q 55.609375 28.21875 55.609375 21.1875 
Q 55.609375 10.40625 48.1875 4.484375 
Q 40.765625 -1.421875 27.09375 -1.421875 
Q 22.515625 -1.421875 17.65625 -0.515625 
Q 12.796875 0.390625 7.625 2.203125 
L 7.625 11.71875 
Q 11.71875 9.328125 16.59375 8.109375 
Q 21.484375 6.890625 26.8125 6.890625 
Q 36.078125 6.890625 40.9375 10.546875 
Q 45.796875 14.203125 45.796875 21.1875 
Q 45.796875 27.640625 41.28125 31.265625 
Q 36.765625 34.90625 28.71875 34.90625 
L 20.21875 34.90625 
L 20.21875 43.015625 
L 29.109375 43.015625 
Q 36.375 43.015625 40.234375 45.921875 
Q 44.09375 48.828125 44.09375 54.296875 
Q 44.09375 59.90625 40.109375 62.90625 
Q 36.140625 65.921875 28.71875 65.921875 
Q 24.65625 65.921875 20.015625 65.03125 
Q 15.375 64.15625 9.8125 62.3125 
L 9.8125 71.09375 
Q 15.4375 72.65625 20.34375 73.4375 
Q 25.25 74.21875 29.59375 74.21875 
Q 40.828125 74.21875 47.359375 69.109375 
Q 53.90625 64.015625 53.90625 55.328125 
Q 53.90625 49.265625 50.4375 45.09375 
Q 46.96875 40.921875 40.578125 39.3125 
z
" id="DejaVuSans-51"/>
    </defs>
    <g transform="translate(144.452813 16.318125)scale(0.12 -0.12)">
     <use xlink:href="#DejaVuSans-49"/>
     <use x="63.623047" xlink:href="#DejaVuSans-32"/>
     <use x="95.410156" xlink:href="#DejaVuSans-45"/>
     <use x="131.494141" xlink:href="#DejaVuSans-32"/>
     <use x="163.28125" xlink:href="#DejaVuSans-51"/>
     <use x="226.904297" xlink:href="#DejaVuSans-48"/>
    </g>
   </g>
   <g id="legend_1">
    <g id="patch_5">
     <path d="M 50.78125 250.358125 
L 155.307813 250.358125 
Q 157.307813 250.358125 157.307813 248.358125 
L 157.307813 161.289375 
Q 157.307813 159.289375 155.307813 159.289375 
L 50.78125 159.289375 
Q 48.78125 159.289375 48.78125 161.289375 
L 48.78125 248.358125 
Q 48.78125 250.358125 50.78125 250.358125 
z
" style="fill:#ffffff;opacity:0.8;stroke:#cccccc;stroke-linejoin:miter;"/>
    </g>
    <g id="patch_6">
     <path d="M 52.78125 170.887812 
L 72.78125 170.887812 
L 72.78125 163.887812 
L 52.78125 163.887812 
z
" style="fill:#1f77b4;opacity:0.6;stroke:#1f77b4;stroke-linejoin:miter;"/>
    </g>
    <g id="text_14">
     <!-- prosic+delly -->
     <defs>
      <path d="M 18.109375 8.203125 
L 18.109375 -20.796875 
L 9.078125 -20.796875 
L 9.078125 54.6875 
L 18.109375 54.6875 
L 18.109375 46.390625 
Q 20.953125 51.265625 25.265625 53.625 
Q 29.59375 56 35.59375 56 
Q 45.5625 56 51.78125 48.09375 
Q 58.015625 40.1875 58.015625 27.296875 
Q 58.015625 14.40625 51.78125 6.484375 
Q 45.5625 -1.421875 35.59375 -1.421875 
Q 29.59375 -1.421875 25.265625 0.953125 
Q 20.953125 3.328125 18.109375 8.203125 
z
M 48.6875 27.296875 
Q 48.6875 37.203125 44.609375 42.84375 
Q 40.53125 48.484375 33.40625 48.484375 
Q 26.265625 48.484375 22.1875 42.84375 
Q 18.109375 37.203125 18.109375 27.296875 
Q 18.109375 17.390625 22.1875 11.75 
Q 26.265625 6.109375 33.40625 6.109375 
Q 40.53125 6.109375 44.609375 11.75 
Q 48.6875 17.390625 48.6875 27.296875 
z
" id="DejaVuSans-112"/>
      <path d="M 30.609375 48.390625 
Q 23.390625 48.390625 19.1875 42.75 
Q 14.984375 37.109375 14.984375 27.296875 
Q 14.984375 17.484375 19.15625 11.84375 
Q 23.34375 6.203125 30.609375 6.203125 
Q 37.796875 6.203125 41.984375 11.859375 
Q 46.1875 17.53125 46.1875 27.296875 
Q 46.1875 37.015625 41.984375 42.703125 
Q 37.796875 48.390625 30.609375 48.390625 
z
M 30.609375 56 
Q 42.328125 56 49.015625 48.375 
Q 55.71875 40.765625 55.71875 27.296875 
Q 55.71875 13.875 49.015625 6.21875 
Q 42.328125 -1.421875 30.609375 -1.421875 
Q 18.84375 -1.421875 12.171875 6.21875 
Q 5.515625 13.875 5.515625 27.296875 
Q 5.515625 40.765625 12.171875 48.375 
Q 18.84375 56 30.609375 56 
z
" id="DejaVuSans-111"/>
      <path d="M 44.28125 53.078125 
L 44.28125 44.578125 
Q 40.484375 46.53125 36.375 47.5 
Q 32.28125 48.484375 27.875 48.484375 
Q 21.1875 48.484375 17.84375 46.4375 
Q 14.5 44.390625 14.5 40.28125 
Q 14.5 37.15625 16.890625 35.375 
Q 19.28125 33.59375 26.515625 31.984375 
L 29.59375 31.296875 
Q 39.15625 29.25 43.1875 25.515625 
Q 47.21875 21.78125 47.21875 15.09375 
Q 47.21875 7.46875 41.1875 3.015625 
Q 35.15625 -1.421875 24.609375 -1.421875 
Q 20.21875 -1.421875 15.453125 -0.5625 
Q 10.6875 0.296875 5.421875 2 
L 5.421875 11.28125 
Q 10.40625 8.6875 15.234375 7.390625 
Q 20.0625 6.109375 24.8125 6.109375 
Q 31.15625 6.109375 34.5625 8.28125 
Q 37.984375 10.453125 37.984375 14.40625 
Q 37.984375 18.0625 35.515625 20.015625 
Q 33.0625 21.96875 24.703125 23.78125 
L 21.578125 24.515625 
Q 13.234375 26.265625 9.515625 29.90625 
Q 5.8125 33.546875 5.8125 39.890625 
Q 5.8125 47.609375 11.28125 51.796875 
Q 16.75 56 26.8125 56 
Q 31.78125 56 36.171875 55.265625 
Q 40.578125 54.546875 44.28125 53.078125 
z
" id="DejaVuSans-115"/>
      <path d="M 9.421875 54.6875 
L 18.40625 54.6875 
L 18.40625 0 
L 9.421875 0 
z
M 9.421875 75.984375 
L 18.40625 75.984375 
L 18.40625 64.59375 
L 9.421875 64.59375 
z
" id="DejaVuSans-105"/>
      <path d="M 46 62.703125 
L 46 35.5 
L 73.1875 35.5 
L 73.1875 27.203125 
L 46 27.203125 
L 46 0 
L 37.796875 0 
L 37.796875 27.203125 
L 10.59375 27.203125 
L 10.59375 35.5 
L 37.796875 35.5 
L 37.796875 62.703125 
z
" id="DejaVuSans-43"/>
      <path d="M 45.40625 46.390625 
L 45.40625 75.984375 
L 54.390625 75.984375 
L 54.390625 0 
L 45.40625 0 
L 45.40625 8.203125 
Q 42.578125 3.328125 38.25 0.953125 
Q 33.9375 -1.421875 27.875 -1.421875 
Q 17.96875 -1.421875 11.734375 6.484375 
Q 5.515625 14.40625 5.515625 27.296875 
Q 5.515625 40.1875 11.734375 48.09375 
Q 17.96875 56 27.875 56 
Q 33.9375 56 38.25 53.625 
Q 42.578125 51.265625 45.40625 46.390625 
z
M 14.796875 27.296875 
Q 14.796875 17.390625 18.875 11.75 
Q 22.953125 6.109375 30.078125 6.109375 
Q 37.203125 6.109375 41.296875 11.75 
Q 45.40625 17.390625 45.40625 27.296875 
Q 45.40625 37.203125 41.296875 42.84375 
Q 37.203125 48.484375 30.078125 48.484375 
Q 22.953125 48.484375 18.875 42.84375 
Q 14.796875 37.203125 14.796875 27.296875 
z
" id="DejaVuSans-100"/>
      <path d="M 32.171875 -5.078125 
Q 28.375 -14.84375 24.75 -17.8125 
Q 21.140625 -20.796875 15.09375 -20.796875 
L 7.90625 -20.796875 
L 7.90625 -13.28125 
L 13.1875 -13.28125 
Q 16.890625 -13.28125 18.9375 -11.515625 
Q 21 -9.765625 23.484375 -3.21875 
L 25.09375 0.875 
L 2.984375 54.6875 
L 12.5 54.6875 
L 29.59375 11.921875 
L 46.6875 54.6875 
L 56.203125 54.6875 
z
" id="DejaVuSans-121"/>
     </defs>
     <g transform="translate(80.78125 170.887812)scale(0.1 -0.1)">
      <use xlink:href="#DejaVuSans-112"/>
      <use x="63.476562" xlink:href="#DejaVuSans-114"/>
      <use x="104.558594" xlink:href="#DejaVuSans-111"/>
      <use x="165.740234" xlink:href="#DejaVuSans-115"/>
      <use x="217.839844" xlink:href="#DejaVuSans-105"/>
      <use x="245.623047" xlink:href="#DejaVuSans-99"/>
      <use x="300.603516" xlink:href="#DejaVuSans-43"/>
      <use x="384.392578" xlink:href="#DejaVuSans-100"/>
      <use x="447.869141" xlink:href="#DejaVuSans-101"/>
      <use x="509.392578" xlink:href="#DejaVuSans-108"/>
      <use x="537.175781" xlink:href="#DejaVuSans-108"/>
      <use x="564.958984" xlink:href="#DejaVuSans-121"/>
     </g>
    </g>
    <g id="patch_7">
     <path d="M 52.78125 185.565938 
L 72.78125 185.565938 
L 72.78125 178.565938 
L 52.78125 178.565938 
z
" style="fill:#ff7f0e;opacity:0.6;stroke:#ff7f0e;stroke-linejoin:miter;"/>
    </g>
    <g id="text_15">
     <!-- prosic+lancet -->
     <defs>
      <path d="M 54.890625 33.015625 
L 54.890625 0 
L 45.90625 0 
L 45.90625 32.71875 
Q 45.90625 40.484375 42.875 44.328125 
Q 39.84375 48.1875 33.796875 48.1875 
Q 26.515625 48.1875 22.3125 43.546875 
Q 18.109375 38.921875 18.109375 30.90625 
L 18.109375 0 
L 9.078125 0 
L 9.078125 54.6875 
L 18.109375 54.6875 
L 18.109375 46.1875 
Q 21.34375 51.125 25.703125 53.5625 
Q 30.078125 56 35.796875 56 
Q 45.21875 56 50.046875 50.171875 
Q 54.890625 44.34375 54.890625 33.015625 
z
" id="DejaVuSans-110"/>
      <path d="M 18.3125 70.21875 
L 18.3125 54.6875 
L 36.8125 54.6875 
L 36.8125 47.703125 
L 18.3125 47.703125 
L 18.3125 18.015625 
Q 18.3125 11.328125 20.140625 9.421875 
Q 21.96875 7.515625 27.59375 7.515625 
L 36.8125 7.515625 
L 36.8125 0 
L 27.59375 0 
Q 17.1875 0 13.234375 3.875 
Q 9.28125 7.765625 9.28125 18.015625 
L 9.28125 47.703125 
L 2.6875 47.703125 
L 2.6875 54.6875 
L 9.28125 54.6875 
L 9.28125 70.21875 
z
" id="DejaVuSans-116"/>
     </defs>
     <g transform="translate(80.78125 185.565938)scale(0.1 -0.1)">
      <use xlink:href="#DejaVuSans-112"/>
      <use x="63.476562" xlink:href="#DejaVuSans-114"/>
      <use x="104.558594" xlink:href="#DejaVuSans-111"/>
      <use x="165.740234" xlink:href="#DejaVuSans-115"/>
      <use x="217.839844" xlink:href="#DejaVuSans-105"/>
      <use x="245.623047" xlink:href="#DejaVuSans-99"/>
      <use x="300.603516" xlink:href="#DejaVuSans-43"/>
      <use x="384.392578" xlink:href="#DejaVuSans-108"/>
      <use x="412.175781" xlink:href="#DejaVuSans-97"/>
      <use x="473.455078" xlink:href="#DejaVuSans-110"/>
      <use x="536.833984" xlink:href="#DejaVuSans-99"/>
      <use x="591.814453" xlink:href="#DejaVuSans-101"/>
      <use x="653.337891" xlink:href="#DejaVuSans-116"/>
     </g>
    </g>
    <g id="patch_8">
     <path d="M 52.78125 200.244062 
L 72.78125 200.244062 
L 72.78125 193.244062 
L 52.78125 193.244062 
z
" style="fill:#2ca02c;opacity:0.6;stroke:#2ca02c;stroke-linejoin:miter;"/>
    </g>
    <g id="text_16">
     <!-- prosic+manta -->
     <defs>
      <path d="M 52 44.1875 
Q 55.375 50.25 60.0625 53.125 
Q 64.75 56 71.09375 56 
Q 79.640625 56 84.28125 50.015625 
Q 88.921875 44.046875 88.921875 33.015625 
L 88.921875 0 
L 79.890625 0 
L 79.890625 32.71875 
Q 79.890625 40.578125 77.09375 44.375 
Q 74.3125 48.1875 68.609375 48.1875 
Q 61.625 48.1875 57.5625 43.546875 
Q 53.515625 38.921875 53.515625 30.90625 
L 53.515625 0 
L 44.484375 0 
L 44.484375 32.71875 
Q 44.484375 40.625 41.703125 44.40625 
Q 38.921875 48.1875 33.109375 48.1875 
Q 26.21875 48.1875 22.15625 43.53125 
Q 18.109375 38.875 18.109375 30.90625 
L 18.109375 0 
L 9.078125 0 
L 9.078125 54.6875 
L 18.109375 54.6875 
L 18.109375 46.1875 
Q 21.1875 51.21875 25.484375 53.609375 
Q 29.78125 56 35.6875 56 
Q 41.65625 56 45.828125 52.96875 
Q 50 49.953125 52 44.1875 
z
" id="DejaVuSans-109"/>
     </defs>
     <g transform="translate(80.78125 200.244062)scale(0.1 -0.1)">
      <use xlink:href="#DejaVuSans-112"/>
      <use x="63.476562" xlink:href="#DejaVuSans-114"/>
      <use x="104.558594" xlink:href="#DejaVuSans-111"/>
      <use x="165.740234" xlink:href="#DejaVuSans-115"/>
      <use x="217.839844" xlink:href="#DejaVuSans-105"/>
      <use x="245.623047" xlink:href="#DejaVuSans-99"/>
      <use x="300.603516" xlink:href="#DejaVuSans-43"/>
      <use x="384.392578" xlink:href="#DejaVuSans-109"/>
      <use x="481.804688" xlink:href="#DejaVuSans-97"/>
      <use x="543.083984" xlink:href="#DejaVuSans-110"/>
      <use x="606.462891" xlink:href="#DejaVuSans-116"/>
      <use x="645.671875" xlink:href="#DejaVuSans-97"/>
     </g>
    </g>
    <g id="patch_9">
     <path d="M 52.78125 214.922188 
L 72.78125 214.922188 
L 72.78125 207.922188 
L 52.78125 207.922188 
z
" style="fill:#d62728;opacity:0.6;stroke:#d62728;stroke-linejoin:miter;"/>
    </g>
    <g id="text_17">
     <!-- prosic+strelka -->
     <defs>
      <path d="M 9.078125 75.984375 
L 18.109375 75.984375 
L 18.109375 31.109375 
L 44.921875 54.6875 
L 56.390625 54.6875 
L 27.390625 29.109375 
L 57.625 0 
L 45.90625 0 
L 18.109375 26.703125 
L 18.109375 0 
L 9.078125 0 
z
" id="DejaVuSans-107"/>
     </defs>
     <g transform="translate(80.78125 214.922188)scale(0.1 -0.1)">
      <use xlink:href="#DejaVuSans-112"/>
      <use x="63.476562" xlink:href="#DejaVuSans-114"/>
      <use x="104.558594" xlink:href="#DejaVuSans-111"/>
      <use x="165.740234" xlink:href="#DejaVuSans-115"/>
      <use x="217.839844" xlink:href="#DejaVuSans-105"/>
      <use x="245.623047" xlink:href="#DejaVuSans-99"/>
      <use x="300.603516" xlink:href="#DejaVuSans-43"/>
      <use x="384.392578" xlink:href="#DejaVuSans-115"/>
      <use x="436.492188" xlink:href="#DejaVuSans-116"/>
      <use x="475.701172" xlink:href="#DejaVuSans-114"/>
      <use x="516.783203" xlink:href="#DejaVuSans-101"/>
      <use x="578.306641" xlink:href="#DejaVuSans-108"/>
      <use x="606.089844" xlink:href="#DejaVuSans-107"/>
      <use x="663.984375" xlink:href="#DejaVuSans-97"/>
     </g>
    </g>
    <g id="line2d_16">
     <path d="M 52.78125 226.100312 
L 72.78125 226.100312 
" style="fill:none;stroke:#ff7f0e;stroke-dasharray:1.5,2.475;stroke-dashoffset:0;stroke-width:1.5;"/>
    </g>
    <g id="line2d_17"/>
    <g id="text_18">
     <!-- lancet -->
     <g transform="translate(80.78125 229.600312)scale(0.1 -0.1)">
      <use xlink:href="#DejaVuSans-108"/>
      <use x="27.783203" xlink:href="#DejaVuSans-97"/>
      <use x="89.0625" xlink:href="#DejaVuSans-110"/>
      <use x="152.441406" xlink:href="#DejaVuSans-99"/>
      <use x="207.421875" xlink:href="#DejaVuSans-101"/>
      <use x="268.945312" xlink:href="#DejaVuSans-116"/>
     </g>
    </g>
    <g id="line2d_18">
     <path d="M 52.78125 240.778437 
L 72.78125 240.778437 
" style="fill:none;stroke:#d62728;stroke-dasharray:1.5,2.475;stroke-dashoffset:0;stroke-width:1.5;"/>
    </g>
    <g id="line2d_19"/>
    <g id="text_19">
     <!-- strelka -->
     <g transform="translate(80.78125 244.278437)scale(0.1 -0.1)">
      <use xlink:href="#DejaVuSans-115"/>
      <use x="52.099609" xlink:href="#DejaVuSans-116"/>
      <use x="91.308594" xlink:href="#DejaVuSans-114"/>
      <use x="132.390625" xlink:href="#DejaVuSans-101"/>
      <use x="193.914062" xlink:href="#DejaVuSans-108"/>
      <use x="221.697266" xlink:href="#DejaVuSans-107"/>
      <use x="279.591797" xlink:href="#DejaVuSans-97"/>
     </g>
    </g>
   </g>
  </g>
  <g id="axes_2">
   <g id="patch_10">
    <path d="M 322.53625 255.358125 
L 558.74125 255.358125 
L 558.74125 22.318125 
L 322.53625 22.318125 
z
" style="fill:#ffffff;"/>
   </g>
   <g id="PolyCollection_5">
    <defs>
     <path d="M 333.272841 -381.216649 
L 333.272841 -380.689056 
L 342.608992 -393.415223 
L 351.945166 -401.564127 
L 361.281407 -414.050632 
L 379.953665 -452.312917 
L 398.625923 -467.515843 
L 473.315403 -499.122689 
L 548.004659 -488.159816 
L 548.004659 -492.538841 
L 548.004659 -492.538841 
L 473.315403 -501.266267 
L 398.625923 -468.297812 
L 379.953665 -452.960976 
L 361.281407 -414.843728 
L 351.945166 -402.23341 
L 342.608992 -394.021616 
L 333.272841 -381.216649 
z
" id="m48ebb0c5f9" style="stroke:#1f77b4;stroke-opacity:0.6;"/>
    </defs>
    <g clip-path="url(#p64880f6b62)">
     <use style="fill:#1f77b4;fill-opacity:0.6;stroke:#1f77b4;stroke-opacity:0.6;" x="0" xlink:href="#m48ebb0c5f9" y="568.474375"/>
    </g>
   </g>
   <g id="PolyCollection_6">
    <defs>
     <path d="M 333.272841 -422.896522 
L 333.272841 -422.368929 
L 342.608992 -439.804296 
L 351.945166 -450.421803 
L 361.281407 -462.032958 
L 379.953665 -496.380902 
L 398.625923 -514.433964 
L 473.315403 -533.419944 
L 548.004659 -523.192013 
L 548.004659 -527.571037 
L 548.004659 -527.571037 
L 473.315403 -535.563523 
L 398.625923 -515.215932 
L 379.953665 -497.028961 
L 361.281407 -462.826054 
L 351.945166 -451.091086 
L 342.608992 -440.410689 
L 333.272841 -422.896522 
z
" id="m01d9aee41c" style="stroke:#ff7f0e;stroke-opacity:0.6;"/>
    </defs>
    <g clip-path="url(#p64880f6b62)">
     <use style="fill:#ff7f0e;fill-opacity:0.6;stroke:#ff7f0e;stroke-opacity:0.6;" x="0" xlink:href="#m01d9aee41c" y="568.474375"/>
    </g>
   </g>
   <g id="PolyCollection_7">
    <defs>
     <path d="M 333.272841 -323.972774 
L 333.272841 -323.708977 
L 342.608992 -327.924766 
L 351.945166 -331.289387 
L 361.281407 -337.913387 
L 379.953665 -360.936654 
L 398.625923 -370.551727 
L 473.315403 -434.815335 
L 548.004659 -457.506644 
L 548.004659 -461.885669 
L 548.004659 -461.885669 
L 473.315403 -436.958913 
L 398.625923 -371.333696 
L 379.953665 -361.584712 
L 361.281407 -338.309935 
L 351.945166 -331.624029 
L 342.608992 -328.227963 
L 333.272841 -323.972774 
z
" id="mda68c423c5" style="stroke:#2ca02c;stroke-opacity:0.6;"/>
    </defs>
    <g clip-path="url(#p64880f6b62)">
     <use style="fill:#2ca02c;fill-opacity:0.6;stroke:#2ca02c;stroke-opacity:0.6;" x="0" xlink:href="#mda68c423c5" y="568.474375"/>
    </g>
   </g>
   <g id="PolyCollection_8">
    <defs>
     <path d="M 333.272841 -323.972774 
L 333.272841 -323.708977 
L 342.608992 -327.924766 
L 351.945166 -331.289387 
L 361.281407 -337.913387 
L 379.953665 -360.936654 
L 398.625923 -370.551727 
L 473.315403 -434.815335 
L 548.004659 -457.506644 
L 548.004659 -461.885669 
L 548.004659 -461.885669 
L 473.315403 -436.958913 
L 398.625923 -371.333696 
L 379.953665 -361.584712 
L 361.281407 -338.309935 
L 351.945166 -331.624029 
L 342.608992 -328.227963 
L 333.272841 -323.972774 
z
" id="m37cffa21e7" style="stroke:#d62728;stroke-opacity:0.6;"/>
    </defs>
    <g clip-path="url(#p64880f6b62)">
     <use style="fill:#d62728;fill-opacity:0.6;stroke:#d62728;stroke-opacity:0.6;" x="0" xlink:href="#m37cffa21e7" y="568.474375"/>
    </g>
   </g>
   <g id="matplotlib.axis_3">
    <g id="xtick_7">
     <g id="line2d_20">
      <g>
       <use style="stroke:#000000;stroke-width:0.8;" x="323.936667" xlink:href="#m9cc7b5b5e4" y="255.358125"/>
      </g>
     </g>
     <g id="text_20">
      <!-- 0.0 -->
      <g transform="translate(315.985105 269.956562)scale(0.1 -0.1)">
       <use xlink:href="#DejaVuSans-48"/>
       <use x="63.623047" xlink:href="#DejaVuSans-46"/>
       <use x="95.410156" xlink:href="#DejaVuSans-48"/>
      </g>
     </g>
    </g>
    <g id="xtick_8">
     <g id="line2d_21">
      <g>
       <use style="stroke:#000000;stroke-width:0.8;" x="368.750266" xlink:href="#m9cc7b5b5e4" y="255.358125"/>
      </g>
     </g>
     <g id="text_21">
      <!-- 0.2 -->
      <g transform="translate(360.798703 269.956562)scale(0.1 -0.1)">
       <use xlink:href="#DejaVuSans-48"/>
       <use x="63.623047" xlink:href="#DejaVuSans-46"/>
       <use x="95.410156" xlink:href="#DejaVuSans-50"/>
      </g>
     </g>
    </g>
    <g id="xtick_9">
     <g id="line2d_22">
      <g>
       <use style="stroke:#000000;stroke-width:0.8;" x="413.563864" xlink:href="#m9cc7b5b5e4" y="255.358125"/>
      </g>
     </g>
     <g id="text_22">
      <!-- 0.4 -->
      <g transform="translate(405.612301 269.956562)scale(0.1 -0.1)">
       <use xlink:href="#DejaVuSans-48"/>
       <use x="63.623047" xlink:href="#DejaVuSans-46"/>
       <use x="95.410156" xlink:href="#DejaVuSans-52"/>
      </g>
     </g>
    </g>
    <g id="xtick_10">
     <g id="line2d_23">
      <g>
       <use style="stroke:#000000;stroke-width:0.8;" x="458.377462" xlink:href="#m9cc7b5b5e4" y="255.358125"/>
      </g>
     </g>
     <g id="text_23">
      <!-- 0.6 -->
      <g transform="translate(450.4259 269.956562)scale(0.1 -0.1)">
       <use xlink:href="#DejaVuSans-48"/>
       <use x="63.623047" xlink:href="#DejaVuSans-46"/>
       <use x="95.410156" xlink:href="#DejaVuSans-54"/>
      </g>
     </g>
    </g>
    <g id="xtick_11">
     <g id="line2d_24">
      <g>
       <use style="stroke:#000000;stroke-width:0.8;" x="503.191061" xlink:href="#m9cc7b5b5e4" y="255.358125"/>
      </g>
     </g>
     <g id="text_24">
      <!-- 0.8 -->
      <g transform="translate(495.239498 269.956562)scale(0.1 -0.1)">
       <use xlink:href="#DejaVuSans-48"/>
       <use x="63.623047" xlink:href="#DejaVuSans-46"/>
       <use x="95.410156" xlink:href="#DejaVuSans-56"/>
      </g>
     </g>
    </g>
    <g id="xtick_12">
     <g id="line2d_25">
      <g>
       <use style="stroke:#000000;stroke-width:0.8;" x="548.004659" xlink:href="#m9cc7b5b5e4" y="255.358125"/>
      </g>
     </g>
     <g id="text_25">
      <!-- 1.0 -->
      <g transform="translate(540.053097 269.956562)scale(0.1 -0.1)">
       <use xlink:href="#DejaVuSans-49"/>
       <use x="63.623047" xlink:href="#DejaVuSans-46"/>
       <use x="95.410156" xlink:href="#DejaVuSans-48"/>
      </g>
     </g>
    </g>
   </g>
   <g id="matplotlib.axis_4">
    <g id="ytick_6">
     <g id="line2d_26">
      <g>
       <use style="stroke:#000000;stroke-width:0.8;" x="322.53625" xlink:href="#me1d1fafa8b" y="242.338468"/>
      </g>
     </g>
     <g id="text_26">
      <!-- 0.1 -->
      <g transform="translate(299.633125 246.137687)scale(0.1 -0.1)">
       <use xlink:href="#DejaVuSans-48"/>
       <use x="63.623047" xlink:href="#DejaVuSans-46"/>
       <use x="95.410156" xlink:href="#DejaVuSans-49"/>
      </g>
     </g>
    </g>
    <g id="ytick_7">
     <g id="line2d_27">
      <g>
       <use style="stroke:#000000;stroke-width:0.8;" x="322.53625" xlink:href="#me1d1fafa8b" y="211.685296"/>
      </g>
     </g>
     <g id="text_27">
      <!-- 0.2 -->
      <g transform="translate(299.633125 215.484515)scale(0.1 -0.1)">
       <use xlink:href="#DejaVuSans-48"/>
       <use x="63.623047" xlink:href="#DejaVuSans-46"/>
       <use x="95.410156" xlink:href="#DejaVuSans-50"/>
      </g>
     </g>
    </g>
    <g id="ytick_8">
     <g id="line2d_28">
      <g>
       <use style="stroke:#000000;stroke-width:0.8;" x="322.53625" xlink:href="#me1d1fafa8b" y="181.032124"/>
      </g>
     </g>
     <g id="text_28">
      <!-- 0.3 -->
      <g transform="translate(299.633125 184.831343)scale(0.1 -0.1)">
       <use xlink:href="#DejaVuSans-48"/>
       <use x="63.623047" xlink:href="#DejaVuSans-46"/>
       <use x="95.410156" xlink:href="#DejaVuSans-51"/>
      </g>
     </g>
    </g>
    <g id="ytick_9">
     <g id="line2d_29">
      <g>
       <use style="stroke:#000000;stroke-width:0.8;" x="322.53625" xlink:href="#me1d1fafa8b" y="150.378952"/>
      </g>
     </g>
     <g id="text_29">
      <!-- 0.4 -->
      <g transform="translate(299.633125 154.178171)scale(0.1 -0.1)">
       <use xlink:href="#DejaVuSans-48"/>
       <use x="63.623047" xlink:href="#DejaVuSans-46"/>
       <use x="95.410156" xlink:href="#DejaVuSans-52"/>
      </g>
     </g>
    </g>
    <g id="ytick_10">
     <g id="line2d_30">
      <g>
       <use style="stroke:#000000;stroke-width:0.8;" x="322.53625" xlink:href="#me1d1fafa8b" y="119.72578"/>
      </g>
     </g>
     <g id="text_30">
      <!-- 0.5 -->
      <defs>
       <path d="M 10.796875 72.90625 
L 49.515625 72.90625 
L 49.515625 64.59375 
L 19.828125 64.59375 
L 19.828125 46.734375 
Q 21.96875 47.46875 24.109375 47.828125 
Q 26.265625 48.1875 28.421875 48.1875 
Q 40.625 48.1875 47.75 41.5 
Q 54.890625 34.8125 54.890625 23.390625 
Q 54.890625 11.625 47.5625 5.09375 
Q 40.234375 -1.421875 26.90625 -1.421875 
Q 22.3125 -1.421875 17.546875 -0.640625 
Q 12.796875 0.140625 7.71875 1.703125 
L 7.71875 11.625 
Q 12.109375 9.234375 16.796875 8.0625 
Q 21.484375 6.890625 26.703125 6.890625 
Q 35.15625 6.890625 40.078125 11.328125 
Q 45.015625 15.765625 45.015625 23.390625 
Q 45.015625 31 40.078125 35.4375 
Q 35.15625 39.890625 26.703125 39.890625 
Q 22.75 39.890625 18.8125 39.015625 
Q 14.890625 38.140625 10.796875 36.28125 
z
" id="DejaVuSans-53"/>
      </defs>
      <g transform="translate(299.633125 123.524999)scale(0.1 -0.1)">
       <use xlink:href="#DejaVuSans-48"/>
       <use x="63.623047" xlink:href="#DejaVuSans-46"/>
       <use x="95.410156" xlink:href="#DejaVuSans-53"/>
      </g>
     </g>
    </g>
    <g id="ytick_11">
     <g id="line2d_31">
      <g>
       <use style="stroke:#000000;stroke-width:0.8;" x="322.53625" xlink:href="#me1d1fafa8b" y="89.072608"/>
      </g>
     </g>
     <g id="text_31">
      <!-- 0.6 -->
      <g transform="translate(299.633125 92.871827)scale(0.1 -0.1)">
       <use xlink:href="#DejaVuSans-48"/>
       <use x="63.623047" xlink:href="#DejaVuSans-46"/>
       <use x="95.410156" xlink:href="#DejaVuSans-54"/>
      </g>
     </g>
    </g>
    <g id="ytick_12">
     <g id="line2d_32">
      <g>
       <use style="stroke:#000000;stroke-width:0.8;" x="322.53625" xlink:href="#me1d1fafa8b" y="58.419436"/>
      </g>
     </g>
     <g id="text_32">
      <!-- 0.7 -->
      <defs>
       <path d="M 8.203125 72.90625 
L 55.078125 72.90625 
L 55.078125 68.703125 
L 28.609375 0 
L 18.3125 0 
L 43.21875 64.59375 
L 8.203125 64.59375 
z
" id="DejaVuSans-55"/>
      </defs>
      <g transform="translate(299.633125 62.218655)scale(0.1 -0.1)">
       <use xlink:href="#DejaVuSans-48"/>
       <use x="63.623047" xlink:href="#DejaVuSans-46"/>
       <use x="95.410156" xlink:href="#DejaVuSans-55"/>
      </g>
     </g>
    </g>
    <g id="ytick_13">
     <g id="line2d_33">
      <g>
       <use style="stroke:#000000;stroke-width:0.8;" x="322.53625" xlink:href="#me1d1fafa8b" y="27.766264"/>
      </g>
     </g>
     <g id="text_33">
      <!-- 0.8 -->
      <g transform="translate(299.633125 31.565483)scale(0.1 -0.1)">
       <use xlink:href="#DejaVuSans-48"/>
       <use x="63.623047" xlink:href="#DejaVuSans-46"/>
       <use x="95.410156" xlink:href="#DejaVuSans-56"/>
      </g>
     </g>
    </g>
   </g>
   <g id="line2d_34">
    <path clip-path="url(#p64880f6b62)" d="M 333.272841 224.716851 
L 342.608992 217.50667 
L 351.945166 213.425433 
L 361.281407 204.785359 
L 379.953665 173.838674 
L 398.625923 161.17012 
L 473.315403 107.936099 
L 548.004659 75.935534 
" style="fill:none;stroke:#ffffff;stroke-linecap:square;stroke-opacity:0.8;stroke-width:1.5;"/>
   </g>
   <g id="line2d_35">
    <path clip-path="url(#p64880f6b62)" d="M 333.272841 224.716851 
L 342.608992 217.50667 
L 351.945166 213.425433 
L 361.281407 204.785359 
L 379.953665 173.838674 
L 398.625923 161.17012 
L 473.315403 107.936099 
L 548.004659 75.935534 
" style="fill:none;stroke:#ff7f0e;stroke-dasharray:1.5,2.475;stroke-dashoffset:0;stroke-width:1.5;"/>
   </g>
   <g id="line2d_36">
    <path clip-path="url(#p64880f6b62)" d="M 333.272841 244.501601 
L 342.608992 240.246412 
L 351.945166 236.850346 
L 361.281407 230.16444 
L 379.953665 206.889663 
L 398.625923 197.140679 
L 473.315403 131.515462 
L 548.004659 106.588706 
" style="fill:none;stroke:#ffffff;stroke-linecap:square;stroke-opacity:0.8;stroke-width:1.5;"/>
   </g>
   <g id="line2d_37">
    <path clip-path="url(#p64880f6b62)" d="M 333.272841 244.501601 
L 342.608992 240.246412 
L 351.945166 236.850346 
L 361.281407 230.16444 
L 379.953665 206.889663 
L 398.625923 197.140679 
L 473.315403 131.515462 
L 548.004659 106.588706 
" style="fill:none;stroke:#d62728;stroke-dasharray:1.5,2.475;stroke-dashoffset:0;stroke-width:1.5;"/>
   </g>
   <g id="patch_11">
    <path d="M 322.53625 255.358125 
L 322.53625 22.318125 
" style="fill:none;stroke:#000000;stroke-linecap:square;stroke-linejoin:miter;stroke-width:0.8;"/>
   </g>
   <g id="patch_12">
    <path d="M 322.53625 255.358125 
L 558.74125 255.358125 
" style="fill:none;stroke:#000000;stroke-linecap:square;stroke-linejoin:miter;stroke-width:0.8;"/>
   </g>
   <g id="text_34">
    <!-- 30 - 50 -->
    <g transform="translate(419.390312 16.318125)scale(0.12 -0.12)">
     <use xlink:href="#DejaVuSans-51"/>
     <use x="63.623047" xlink:href="#DejaVuSans-48"/>
     <use x="127.246094" xlink:href="#DejaVuSans-32"/>
     <use x="159.033203" xlink:href="#DejaVuSans-45"/>
     <use x="195.117188" xlink:href="#DejaVuSans-32"/>
     <use x="226.904297" xlink:href="#DejaVuSans-53"/>
     <use x="290.527344" xlink:href="#DejaVuSans-48"/>
    </g>
   </g>
  </g>
  <g id="axes_3">
   <g id="patch_13">
    <path d="M 43.78125 530.918125 
L 279.98625 530.918125 
L 279.98625 297.878125 
L 43.78125 297.878125 
z
" style="fill:#ffffff;"/>
   </g>
   <g id="PolyCollection_9">
    <defs>
     <path d="M 54.517841 -48.148977 
L 54.517841 -48.148977 
L 63.853992 -49.668959 
L 73.190166 -50.709197 
L 82.526407 -52.728481 
L 101.198665 -58.478872 
L 119.870923 -59.305892 
L 194.560403 -63.968098 
L 269.249659 -66.858701 
L 269.249659 -66.858701 
L 269.249659 -66.858701 
L 194.560403 -63.968098 
L 119.870923 -59.305892 
L 101.198665 -58.478872 
L 82.526407 -52.728481 
L 73.190166 -50.709197 
L 63.853992 -49.668959 
L 54.517841 -48.148977 
z
" id="m2799158c88" style="stroke:#1f77b4;stroke-opacity:0.6;"/>
    </defs>
    <g clip-path="url(#p474f952761)">
     <use style="fill:#1f77b4;fill-opacity:0.6;stroke:#1f77b4;stroke-opacity:0.6;" x="0" xlink:href="#m2799158c88" y="568.474375"/>
    </g>
   </g>
   <g id="PolyCollection_10">
    <defs>
     <path d="M 54.517841 -117.234264 
L 54.517841 -116.247331 
L 63.853992 -129.420507 
L 73.190166 -137.164498 
L 82.526407 -154.440601 
L 101.198665 -183.358752 
L 119.870923 -199.581049 
L 194.560403 -243.054079 
L 269.249659 -260.003523 
L 269.249659 -260.003523 
L 269.249659 -260.003523 
L 194.560403 -243.054079 
L 119.870923 -199.581049 
L 101.198665 -183.358752 
L 82.526407 -155.936367 
L 73.190166 -138.435899 
L 63.853992 -130.576327 
L 54.517841 -117.234264 
z
" id="mdc6a0e2a1e" style="stroke:#ff7f0e;stroke-opacity:0.6;"/>
    </defs>
    <g clip-path="url(#p474f952761)">
     <use style="fill:#ff7f0e;fill-opacity:0.6;stroke:#ff7f0e;stroke-opacity:0.6;" x="0" xlink:href="#mdc6a0e2a1e" y="568.474375"/>
    </g>
   </g>
   <g id="PolyCollection_11">
    <defs>
     <path d="M 54.517841 -52.096708 
L 54.517841 -52.096708 
L 63.853992 -54.292237 
L 73.190166 -55.794803 
L 82.526407 -58.711547 
L 101.198665 -70.486553 
L 119.870923 -76.482441 
L 194.560403 -101.02037 
L 269.249659 -112.845563 
L 269.249659 -112.845563 
L 269.249659 -112.845563 
L 194.560403 -101.02037 
L 119.870923 -76.482441 
L 101.198665 -70.486553 
L 82.526407 -58.711547 
L 73.190166 -55.794803 
L 63.853992 -54.292237 
L 54.517841 -52.096708 
z
" id="m740e20bbd5" style="stroke:#2ca02c;stroke-opacity:0.6;"/>
    </defs>
    <g clip-path="url(#p474f952761)">
     <use style="fill:#2ca02c;fill-opacity:0.6;stroke:#2ca02c;stroke-opacity:0.6;" x="0" xlink:href="#m740e20bbd5" y="568.474375"/>
    </g>
   </g>
   <g id="matplotlib.axis_5">
    <g id="xtick_13">
     <g id="line2d_38">
      <g>
       <use style="stroke:#000000;stroke-width:0.8;" x="45.181667" xlink:href="#m9cc7b5b5e4" y="530.918125"/>
      </g>
     </g>
     <g id="text_35">
      <!-- 0.0 -->
      <g transform="translate(37.230105 545.516562)scale(0.1 -0.1)">
       <use xlink:href="#DejaVuSans-48"/>
       <use x="63.623047" xlink:href="#DejaVuSans-46"/>
       <use x="95.410156" xlink:href="#DejaVuSans-48"/>
      </g>
     </g>
    </g>
    <g id="xtick_14">
     <g id="line2d_39">
      <g>
       <use style="stroke:#000000;stroke-width:0.8;" x="89.995266" xlink:href="#m9cc7b5b5e4" y="530.918125"/>
      </g>
     </g>
     <g id="text_36">
      <!-- 0.2 -->
      <g transform="translate(82.043703 545.516562)scale(0.1 -0.1)">
       <use xlink:href="#DejaVuSans-48"/>
       <use x="63.623047" xlink:href="#DejaVuSans-46"/>
       <use x="95.410156" xlink:href="#DejaVuSans-50"/>
      </g>
     </g>
    </g>
    <g id="xtick_15">
     <g id="line2d_40">
      <g>
       <use style="stroke:#000000;stroke-width:0.8;" x="134.808864" xlink:href="#m9cc7b5b5e4" y="530.918125"/>
      </g>
     </g>
     <g id="text_37">
      <!-- 0.4 -->
      <g transform="translate(126.857301 545.516562)scale(0.1 -0.1)">
       <use xlink:href="#DejaVuSans-48"/>
       <use x="63.623047" xlink:href="#DejaVuSans-46"/>
       <use x="95.410156" xlink:href="#DejaVuSans-52"/>
      </g>
     </g>
    </g>
    <g id="xtick_16">
     <g id="line2d_41">
      <g>
       <use style="stroke:#000000;stroke-width:0.8;" x="179.622462" xlink:href="#m9cc7b5b5e4" y="530.918125"/>
      </g>
     </g>
     <g id="text_38">
      <!-- 0.6 -->
      <g transform="translate(171.6709 545.516562)scale(0.1 -0.1)">
       <use xlink:href="#DejaVuSans-48"/>
       <use x="63.623047" xlink:href="#DejaVuSans-46"/>
       <use x="95.410156" xlink:href="#DejaVuSans-54"/>
      </g>
     </g>
    </g>
    <g id="xtick_17">
     <g id="line2d_42">
      <g>
       <use style="stroke:#000000;stroke-width:0.8;" x="224.436061" xlink:href="#m9cc7b5b5e4" y="530.918125"/>
      </g>
     </g>
     <g id="text_39">
      <!-- 0.8 -->
      <g transform="translate(216.484498 545.516562)scale(0.1 -0.1)">
       <use xlink:href="#DejaVuSans-48"/>
       <use x="63.623047" xlink:href="#DejaVuSans-46"/>
       <use x="95.410156" xlink:href="#DejaVuSans-56"/>
      </g>
     </g>
    </g>
    <g id="xtick_18">
     <g id="line2d_43">
      <g>
       <use style="stroke:#000000;stroke-width:0.8;" x="269.249659" xlink:href="#m9cc7b5b5e4" y="530.918125"/>
      </g>
     </g>
     <g id="text_40">
      <!-- 1.0 -->
      <g transform="translate(261.298097 545.516562)scale(0.1 -0.1)">
       <use xlink:href="#DejaVuSans-49"/>
       <use x="63.623047" xlink:href="#DejaVuSans-46"/>
       <use x="95.410156" xlink:href="#DejaVuSans-48"/>
      </g>
     </g>
    </g>
    <g id="text_41">
     <!-- allele frequency -->
     <defs>
      <path d="M 37.109375 75.984375 
L 37.109375 68.5 
L 28.515625 68.5 
Q 23.6875 68.5 21.796875 66.546875 
Q 19.921875 64.59375 19.921875 59.515625 
L 19.921875 54.6875 
L 34.71875 54.6875 
L 34.71875 47.703125 
L 19.921875 47.703125 
L 19.921875 0 
L 10.890625 0 
L 10.890625 47.703125 
L 2.296875 47.703125 
L 2.296875 54.6875 
L 10.890625 54.6875 
L 10.890625 58.5 
Q 10.890625 67.625 15.140625 71.796875 
Q 19.390625 75.984375 28.609375 75.984375 
z
" id="DejaVuSans-102"/>
      <path d="M 14.796875 27.296875 
Q 14.796875 17.390625 18.875 11.75 
Q 22.953125 6.109375 30.078125 6.109375 
Q 37.203125 6.109375 41.296875 11.75 
Q 45.40625 17.390625 45.40625 27.296875 
Q 45.40625 37.203125 41.296875 42.84375 
Q 37.203125 48.484375 30.078125 48.484375 
Q 22.953125 48.484375 18.875 42.84375 
Q 14.796875 37.203125 14.796875 27.296875 
z
M 45.40625 8.203125 
Q 42.578125 3.328125 38.25 0.953125 
Q 33.9375 -1.421875 27.875 -1.421875 
Q 17.96875 -1.421875 11.734375 6.484375 
Q 5.515625 14.40625 5.515625 27.296875 
Q 5.515625 40.1875 11.734375 48.09375 
Q 17.96875 56 27.875 56 
Q 33.9375 56 38.25 53.625 
Q 42.578125 51.265625 45.40625 46.390625 
L 45.40625 54.6875 
L 54.390625 54.6875 
L 54.390625 -20.796875 
L 45.40625 -20.796875 
z
" id="DejaVuSans-113"/>
      <path d="M 8.5 21.578125 
L 8.5 54.6875 
L 17.484375 54.6875 
L 17.484375 21.921875 
Q 17.484375 14.15625 20.5 10.265625 
Q 23.53125 6.390625 29.59375 6.390625 
Q 36.859375 6.390625 41.078125 11.03125 
Q 45.3125 15.671875 45.3125 23.6875 
L 45.3125 54.6875 
L 54.296875 54.6875 
L 54.296875 0 
L 45.3125 0 
L 45.3125 8.40625 
Q 42.046875 3.421875 37.71875 1 
Q 33.40625 -1.421875 27.6875 -1.421875 
Q 18.265625 -1.421875 13.375 4.4375 
Q 8.5 10.296875 8.5 21.578125 
z
M 31.109375 56 
z
" id="DejaVuSans-117"/>
     </defs>
     <g transform="translate(121.722813 559.194687)scale(0.1 -0.1)">
      <use xlink:href="#DejaVuSans-97"/>
      <use x="61.279297" xlink:href="#DejaVuSans-108"/>
      <use x="89.0625" xlink:href="#DejaVuSans-108"/>
      <use x="116.845703" xlink:href="#DejaVuSans-101"/>
      <use x="178.369141" xlink:href="#DejaVuSans-108"/>
      <use x="206.152344" xlink:href="#DejaVuSans-101"/>
      <use x="267.675781" xlink:href="#DejaVuSans-32"/>
      <use x="299.462891" xlink:href="#DejaVuSans-102"/>
      <use x="334.667969" xlink:href="#DejaVuSans-114"/>
      <use x="375.75" xlink:href="#DejaVuSans-101"/>
      <use x="437.273438" xlink:href="#DejaVuSans-113"/>
      <use x="500.75" xlink:href="#DejaVuSans-117"/>
      <use x="564.128906" xlink:href="#DejaVuSans-101"/>
      <use x="625.652344" xlink:href="#DejaVuSans-110"/>
      <use x="689.03125" xlink:href="#DejaVuSans-99"/>
      <use x="744.011719" xlink:href="#DejaVuSans-121"/>
     </g>
    </g>
   </g>
   <g id="matplotlib.axis_6">
    <g id="ytick_14">
     <g id="line2d_44">
      <g>
       <use style="stroke:#000000;stroke-width:0.8;" x="43.78125" xlink:href="#me1d1fafa8b" y="529.207792"/>
      </g>
     </g>
     <g id="text_42">
      <!-- 0.0 -->
      <g transform="translate(20.878125 533.00701)scale(0.1 -0.1)">
       <use xlink:href="#DejaVuSans-48"/>
       <use x="63.623047" xlink:href="#DejaVuSans-46"/>
       <use x="95.410156" xlink:href="#DejaVuSans-48"/>
      </g>
     </g>
    </g>
    <g id="ytick_15">
     <g id="line2d_45">
      <g>
       <use style="stroke:#000000;stroke-width:0.8;" x="43.78125" xlink:href="#me1d1fafa8b" y="485.980141"/>
      </g>
     </g>
     <g id="text_43">
      <!-- 0.1 -->
      <g transform="translate(20.878125 489.77936)scale(0.1 -0.1)">
       <use xlink:href="#DejaVuSans-48"/>
       <use x="63.623047" xlink:href="#DejaVuSans-46"/>
       <use x="95.410156" xlink:href="#DejaVuSans-49"/>
      </g>
     </g>
    </g>
    <g id="ytick_16">
     <g id="line2d_46">
      <g>
       <use style="stroke:#000000;stroke-width:0.8;" x="43.78125" xlink:href="#me1d1fafa8b" y="442.75249"/>
      </g>
     </g>
     <g id="text_44">
      <!-- 0.2 -->
      <g transform="translate(20.878125 446.551709)scale(0.1 -0.1)">
       <use xlink:href="#DejaVuSans-48"/>
       <use x="63.623047" xlink:href="#DejaVuSans-46"/>
       <use x="95.410156" xlink:href="#DejaVuSans-50"/>
      </g>
     </g>
    </g>
    <g id="ytick_17">
     <g id="line2d_47">
      <g>
       <use style="stroke:#000000;stroke-width:0.8;" x="43.78125" xlink:href="#me1d1fafa8b" y="399.52484"/>
      </g>
     </g>
     <g id="text_45">
      <!-- 0.3 -->
      <g transform="translate(20.878125 403.324059)scale(0.1 -0.1)">
       <use xlink:href="#DejaVuSans-48"/>
       <use x="63.623047" xlink:href="#DejaVuSans-46"/>
       <use x="95.410156" xlink:href="#DejaVuSans-51"/>
      </g>
     </g>
    </g>
    <g id="ytick_18">
     <g id="line2d_48">
      <g>
       <use style="stroke:#000000;stroke-width:0.8;" x="43.78125" xlink:href="#me1d1fafa8b" y="356.297189"/>
      </g>
     </g>
     <g id="text_46">
      <!-- 0.4 -->
      <g transform="translate(20.878125 360.096408)scale(0.1 -0.1)">
       <use xlink:href="#DejaVuSans-48"/>
       <use x="63.623047" xlink:href="#DejaVuSans-46"/>
       <use x="95.410156" xlink:href="#DejaVuSans-52"/>
      </g>
     </g>
    </g>
    <g id="ytick_19">
     <g id="line2d_49">
      <g>
       <use style="stroke:#000000;stroke-width:0.8;" x="43.78125" xlink:href="#me1d1fafa8b" y="313.069539"/>
      </g>
     </g>
     <g id="text_47">
      <!-- 0.5 -->
      <g transform="translate(20.878125 316.868757)scale(0.1 -0.1)">
       <use xlink:href="#DejaVuSans-48"/>
       <use x="63.623047" xlink:href="#DejaVuSans-46"/>
       <use x="95.410156" xlink:href="#DejaVuSans-53"/>
      </g>
     </g>
    </g>
    <g id="text_48">
     <!-- recall -->
     <g transform="translate(14.798438 428.12)rotate(-90)scale(0.1 -0.1)">
      <use xlink:href="#DejaVuSans-114"/>
      <use x="41.082031" xlink:href="#DejaVuSans-101"/>
      <use x="102.605469" xlink:href="#DejaVuSans-99"/>
      <use x="157.585938" xlink:href="#DejaVuSans-97"/>
      <use x="218.865234" xlink:href="#DejaVuSans-108"/>
      <use x="246.648438" xlink:href="#DejaVuSans-108"/>
     </g>
    </g>
   </g>
   <g id="line2d_50">
    <path clip-path="url(#p474f952761)" d="M 54.517841 500.586744 
L 63.853992 495.689025 
L 73.190166 492.337149 
L 82.526407 485.830564 
L 101.198665 461.96478 
L 119.870923 449.050559 
L 194.560403 399.52484 
L 269.249659 400.444577 
" style="fill:none;stroke:#ffffff;stroke-linecap:square;stroke-opacity:0.8;stroke-width:1.5;"/>
   </g>
   <g id="line2d_51">
    <path clip-path="url(#p474f952761)" d="M 54.517841 500.586744 
L 63.853992 495.689025 
L 73.190166 492.337149 
L 82.526407 485.830564 
L 101.198665 461.96478 
L 119.870923 449.050559 
L 194.560403 399.52484 
L 269.249659 400.444577 
" style="fill:none;stroke:#ff7f0e;stroke-dasharray:1.5,2.475;stroke-dashoffset:0;stroke-width:1.5;"/>
   </g>
   <g id="patch_14">
    <path d="M 43.78125 530.918125 
L 43.78125 297.878125 
" style="fill:none;stroke:#000000;stroke-linecap:square;stroke-linejoin:miter;stroke-width:0.8;"/>
   </g>
   <g id="patch_15">
    <path d="M 43.78125 530.918125 
L 279.98625 530.918125 
" style="fill:none;stroke:#000000;stroke-linecap:square;stroke-linejoin:miter;stroke-width:0.8;"/>
   </g>
   <g id="text_49">
    <!-- 50 - 70 -->
    <g transform="translate(140.635313 291.878125)scale(0.12 -0.12)">
     <use xlink:href="#DejaVuSans-53"/>
     <use x="63.623047" xlink:href="#DejaVuSans-48"/>
     <use x="127.246094" xlink:href="#DejaVuSans-32"/>
     <use x="159.033203" xlink:href="#DejaVuSans-45"/>
     <use x="195.117188" xlink:href="#DejaVuSans-32"/>
     <use x="226.904297" xlink:href="#DejaVuSans-55"/>
     <use x="290.527344" xlink:href="#DejaVuSans-48"/>
    </g>
   </g>
  </g>
  <g id="axes_4">
   <g id="patch_16">
    <path d="M 322.53625 530.918125 
L 558.74125 530.918125 
L 558.74125 297.878125 
L 322.53625 297.878125 
z
" style="fill:#ffffff;"/>
   </g>
   <g id="PolyCollection_12">
    <defs>
     <path d="M 333.272841 -94.020617 
L 333.272841 -94.020617 
L 342.608992 -99.754572 
L 351.945166 -103.083965 
L 361.281407 -112.528234 
L 379.953665 -139.516259 
L 398.625923 -149.483599 
L 473.315403 -260.003523 
L 548.004659 -202.96576 
L 548.004659 -202.96576 
L 548.004659 -202.96576 
L 473.315403 -260.003523 
L 398.625923 -149.483599 
L 379.953665 -139.516259 
L 361.281407 -112.528234 
L 351.945166 -103.083965 
L 342.608992 -99.754572 
L 333.272841 -94.020617 
z
" id="m88f8f7ed5c" style="stroke:#ff7f0e;stroke-opacity:0.6;"/>
    </defs>
    <g clip-path="url(#p6fd73c5a24)">
     <use style="fill:#ff7f0e;fill-opacity:0.6;stroke:#ff7f0e;stroke-opacity:0.6;" x="0" xlink:href="#m88f8f7ed5c" y="568.474375"/>
    </g>
   </g>
   <g id="PolyCollection_13">
    <defs>
     <path d="M 333.272841 -50.234052 
L 333.272841 -50.234052 
L 342.608992 -50.494686 
L 351.945166 -50.646022 
L 361.281407 -51.214656 
L 379.953665 -53.224937 
L 398.625923 -53.778678 
L 473.315403 -64.445481 
L 548.004659 -48.148977 
L 548.004659 -48.148977 
L 548.004659 -48.148977 
L 473.315403 -64.445481 
L 398.625923 -53.778678 
L 379.953665 -53.224937 
L 361.281407 -51.214656 
L 351.945166 -50.646022 
L 342.608992 -50.494686 
L 333.272841 -50.234052 
z
" id="m08f19545f0" style="stroke:#2ca02c;stroke-opacity:0.6;"/>
    </defs>
    <g clip-path="url(#p6fd73c5a24)">
     <use style="fill:#2ca02c;fill-opacity:0.6;stroke:#2ca02c;stroke-opacity:0.6;" x="0" xlink:href="#m08f19545f0" y="568.474375"/>
    </g>
   </g>
   <g id="matplotlib.axis_7">
    <g id="xtick_19">
     <g id="line2d_52">
      <g>
       <use style="stroke:#000000;stroke-width:0.8;" x="323.936667" xlink:href="#m9cc7b5b5e4" y="530.918125"/>
      </g>
     </g>
     <g id="text_50">
      <!-- 0.0 -->
      <g transform="translate(315.985105 545.516562)scale(0.1 -0.1)">
       <use xlink:href="#DejaVuSans-48"/>
       <use x="63.623047" xlink:href="#DejaVuSans-46"/>
       <use x="95.410156" xlink:href="#DejaVuSans-48"/>
      </g>
     </g>
    </g>
    <g id="xtick_20">
     <g id="line2d_53">
      <g>
       <use style="stroke:#000000;stroke-width:0.8;" x="368.750266" xlink:href="#m9cc7b5b5e4" y="530.918125"/>
      </g>
     </g>
     <g id="text_51">
      <!-- 0.2 -->
      <g transform="translate(360.798703 545.516562)scale(0.1 -0.1)">
       <use xlink:href="#DejaVuSans-48"/>
       <use x="63.623047" xlink:href="#DejaVuSans-46"/>
       <use x="95.410156" xlink:href="#DejaVuSans-50"/>
      </g>
     </g>
    </g>
    <g id="xtick_21">
     <g id="line2d_54">
      <g>
       <use style="stroke:#000000;stroke-width:0.8;" x="413.563864" xlink:href="#m9cc7b5b5e4" y="530.918125"/>
      </g>
     </g>
     <g id="text_52">
      <!-- 0.4 -->
      <g transform="translate(405.612301 545.516562)scale(0.1 -0.1)">
       <use xlink:href="#DejaVuSans-48"/>
       <use x="63.623047" xlink:href="#DejaVuSans-46"/>
       <use x="95.410156" xlink:href="#DejaVuSans-52"/>
      </g>
     </g>
    </g>
    <g id="xtick_22">
     <g id="line2d_55">
      <g>
       <use style="stroke:#000000;stroke-width:0.8;" x="458.377462" xlink:href="#m9cc7b5b5e4" y="530.918125"/>
      </g>
     </g>
     <g id="text_53">
      <!-- 0.6 -->
      <g transform="translate(450.4259 545.516562)scale(0.1 -0.1)">
       <use xlink:href="#DejaVuSans-48"/>
       <use x="63.623047" xlink:href="#DejaVuSans-46"/>
       <use x="95.410156" xlink:href="#DejaVuSans-54"/>
      </g>
     </g>
    </g>
    <g id="xtick_23">
     <g id="line2d_56">
      <g>
       <use style="stroke:#000000;stroke-width:0.8;" x="503.191061" xlink:href="#m9cc7b5b5e4" y="530.918125"/>
      </g>
     </g>
     <g id="text_54">
      <!-- 0.8 -->
      <g transform="translate(495.239498 545.516562)scale(0.1 -0.1)">
       <use xlink:href="#DejaVuSans-48"/>
       <use x="63.623047" xlink:href="#DejaVuSans-46"/>
       <use x="95.410156" xlink:href="#DejaVuSans-56"/>
      </g>
     </g>
    </g>
    <g id="xtick_24">
     <g id="line2d_57">
      <g>
       <use style="stroke:#000000;stroke-width:0.8;" x="548.004659" xlink:href="#m9cc7b5b5e4" y="530.918125"/>
      </g>
     </g>
     <g id="text_55">
      <!-- 1.0 -->
      <g transform="translate(540.053097 545.516562)scale(0.1 -0.1)">
       <use xlink:href="#DejaVuSans-49"/>
       <use x="63.623047" xlink:href="#DejaVuSans-46"/>
       <use x="95.410156" xlink:href="#DejaVuSans-48"/>
      </g>
     </g>
    </g>
    <g id="text_56">
     <!-- allele frequency -->
     <g transform="translate(400.477812 559.194687)scale(0.1 -0.1)">
      <use xlink:href="#DejaVuSans-97"/>
      <use x="61.279297" xlink:href="#DejaVuSans-108"/>
      <use x="89.0625" xlink:href="#DejaVuSans-108"/>
      <use x="116.845703" xlink:href="#DejaVuSans-101"/>
      <use x="178.369141" xlink:href="#DejaVuSans-108"/>
      <use x="206.152344" xlink:href="#DejaVuSans-101"/>
      <use x="267.675781" xlink:href="#DejaVuSans-32"/>
      <use x="299.462891" xlink:href="#DejaVuSans-102"/>
      <use x="334.667969" xlink:href="#DejaVuSans-114"/>
      <use x="375.75" xlink:href="#DejaVuSans-101"/>
      <use x="437.273438" xlink:href="#DejaVuSans-113"/>
      <use x="500.75" xlink:href="#DejaVuSans-117"/>
      <use x="564.128906" xlink:href="#DejaVuSans-101"/>
      <use x="625.652344" xlink:href="#DejaVuSans-110"/>
      <use x="689.03125" xlink:href="#DejaVuSans-99"/>
      <use x="744.011719" xlink:href="#DejaVuSans-121"/>
     </g>
    </g>
   </g>
   <g id="matplotlib.axis_8">
    <g id="ytick_20">
     <g id="line2d_58">
      <g>
       <use style="stroke:#000000;stroke-width:0.8;" x="322.53625" xlink:href="#me1d1fafa8b" y="520.325398"/>
      </g>
     </g>
     <g id="text_57">
      <!-- 0.00 -->
      <g transform="translate(293.270625 524.124616)scale(0.1 -0.1)">
       <use xlink:href="#DejaVuSans-48"/>
       <use x="63.623047" xlink:href="#DejaVuSans-46"/>
       <use x="95.410156" xlink:href="#DejaVuSans-48"/>
       <use x="159.033203" xlink:href="#DejaVuSans-48"/>
      </g>
     </g>
    </g>
    <g id="ytick_21">
     <g id="line2d_59">
      <g>
       <use style="stroke:#000000;stroke-width:0.8;" x="322.53625" xlink:href="#me1d1fafa8b" y="489.362041"/>
      </g>
     </g>
     <g id="text_58">
      <!-- 0.05 -->
      <g transform="translate(293.270625 493.16126)scale(0.1 -0.1)">
       <use xlink:href="#DejaVuSans-48"/>
       <use x="63.623047" xlink:href="#DejaVuSans-46"/>
       <use x="95.410156" xlink:href="#DejaVuSans-48"/>
       <use x="159.033203" xlink:href="#DejaVuSans-53"/>
      </g>
     </g>
    </g>
    <g id="ytick_22">
     <g id="line2d_60">
      <g>
       <use style="stroke:#000000;stroke-width:0.8;" x="322.53625" xlink:href="#me1d1fafa8b" y="458.398684"/>
      </g>
     </g>
     <g id="text_59">
      <!-- 0.10 -->
      <g transform="translate(293.270625 462.197903)scale(0.1 -0.1)">
       <use xlink:href="#DejaVuSans-48"/>
       <use x="63.623047" xlink:href="#DejaVuSans-46"/>
       <use x="95.410156" xlink:href="#DejaVuSans-49"/>
       <use x="159.033203" xlink:href="#DejaVuSans-48"/>
      </g>
     </g>
    </g>
    <g id="ytick_23">
     <g id="line2d_61">
      <g>
       <use style="stroke:#000000;stroke-width:0.8;" x="322.53625" xlink:href="#me1d1fafa8b" y="427.435328"/>
      </g>
     </g>
     <g id="text_60">
      <!-- 0.15 -->
      <g transform="translate(293.270625 431.234547)scale(0.1 -0.1)">
       <use xlink:href="#DejaVuSans-48"/>
       <use x="63.623047" xlink:href="#DejaVuSans-46"/>
       <use x="95.410156" xlink:href="#DejaVuSans-49"/>
       <use x="159.033203" xlink:href="#DejaVuSans-53"/>
      </g>
     </g>
    </g>
    <g id="ytick_24">
     <g id="line2d_62">
      <g>
       <use style="stroke:#000000;stroke-width:0.8;" x="322.53625" xlink:href="#me1d1fafa8b" y="396.471971"/>
      </g>
     </g>
     <g id="text_61">
      <!-- 0.20 -->
      <g transform="translate(293.270625 400.27119)scale(0.1 -0.1)">
       <use xlink:href="#DejaVuSans-48"/>
       <use x="63.623047" xlink:href="#DejaVuSans-46"/>
       <use x="95.410156" xlink:href="#DejaVuSans-50"/>
       <use x="159.033203" xlink:href="#DejaVuSans-48"/>
      </g>
     </g>
    </g>
    <g id="ytick_25">
     <g id="line2d_63">
      <g>
       <use style="stroke:#000000;stroke-width:0.8;" x="322.53625" xlink:href="#me1d1fafa8b" y="365.508615"/>
      </g>
     </g>
     <g id="text_62">
      <!-- 0.25 -->
      <g transform="translate(293.270625 369.307833)scale(0.1 -0.1)">
       <use xlink:href="#DejaVuSans-48"/>
       <use x="63.623047" xlink:href="#DejaVuSans-46"/>
       <use x="95.410156" xlink:href="#DejaVuSans-50"/>
       <use x="159.033203" xlink:href="#DejaVuSans-53"/>
      </g>
     </g>
    </g>
    <g id="ytick_26">
     <g id="line2d_64">
      <g>
       <use style="stroke:#000000;stroke-width:0.8;" x="322.53625" xlink:href="#me1d1fafa8b" y="334.545258"/>
      </g>
     </g>
     <g id="text_63">
      <!-- 0.30 -->
      <g transform="translate(293.270625 338.344477)scale(0.1 -0.1)">
       <use xlink:href="#DejaVuSans-48"/>
       <use x="63.623047" xlink:href="#DejaVuSans-46"/>
       <use x="95.410156" xlink:href="#DejaVuSans-51"/>
       <use x="159.033203" xlink:href="#DejaVuSans-48"/>
      </g>
     </g>
    </g>
    <g id="ytick_27">
     <g id="line2d_65">
      <g>
       <use style="stroke:#000000;stroke-width:0.8;" x="322.53625" xlink:href="#me1d1fafa8b" y="303.581901"/>
      </g>
     </g>
     <g id="text_64">
      <!-- 0.35 -->
      <g transform="translate(293.270625 307.38112)scale(0.1 -0.1)">
       <use xlink:href="#DejaVuSans-48"/>
       <use x="63.623047" xlink:href="#DejaVuSans-46"/>
       <use x="95.410156" xlink:href="#DejaVuSans-51"/>
       <use x="159.033203" xlink:href="#DejaVuSans-53"/>
      </g>
     </g>
    </g>
   </g>
   <g id="patch_17">
    <path d="M 322.53625 530.918125 
L 322.53625 297.878125 
" style="fill:none;stroke:#000000;stroke-linecap:square;stroke-linejoin:miter;stroke-width:0.8;"/>
   </g>
   <g id="patch_18">
    <path d="M 322.53625 530.918125 
L 558.74125 530.918125 
" style="fill:none;stroke:#000000;stroke-linecap:square;stroke-linejoin:miter;stroke-width:0.8;"/>
   </g>
   <g id="text_65">
    <!-- 70 - 100 -->
    <g transform="translate(415.572812 291.878125)scale(0.12 -0.12)">
     <use xlink:href="#DejaVuSans-55"/>
     <use x="63.623047" xlink:href="#DejaVuSans-48"/>
     <use x="127.246094" xlink:href="#DejaVuSans-32"/>
     <use x="159.033203" xlink:href="#DejaVuSans-45"/>
     <use x="195.117188" xlink:href="#DejaVuSans-32"/>
     <use x="226.904297" xlink:href="#DejaVuSans-49"/>
     <use x="290.527344" xlink:href="#DejaVuSans-48"/>
     <use x="354.150391" xlink:href="#DejaVuSans-48"/>
    </g>
   </g>
  </g>
 </g>
 <defs>
  <clipPath id="pd0af4ea34a">
   <rect height="233.04" width="236.205" x="43.78125" y="22.318125"/>
  </clipPath>
  <clipPath id="p64880f6b62">
   <rect height="233.04" width="236.205" x="322.53625" y="22.318125"/>
  </clipPath>
  <clipPath id="p474f952761">
   <rect height="233.04" width="236.205" x="43.78125" y="297.878125"/>
  </clipPath>
  <clipPath id="p6fd73c5a24">
   <rect height="233.04" width="236.205" x="322.53625" y="297.878125"/>
  </clipPath>
 </defs>
</svg>
