<?xml version="1.0" encoding="utf-8" standalone="no"?>
<!DOCTYPE svg PUBLIC "-//W3C//DTD SVG 1.1//EN"
  "http://www.w3.org/Graphics/SVG/1.1/DTD/svg11.dtd">
<!-- Created with matplotlib (https://matplotlib.org/) -->
<svg height="280.474375pt" version="1.1" viewBox="0 0 1145.44125 280.474375" width="1145.44125pt" xmlns="http://www.w3.org/2000/svg" xmlns:xlink="http://www.w3.org/1999/xlink">
 <defs>
  <style type="text/css">
*{stroke-linecap:butt;stroke-linejoin:round;}
  </style>
 </defs>
 <g id="figure_1">
  <g id="patch_1">
   <path d="M 0 280.474375 
L 1145.44125 280.474375 
L 1145.44125 0 
L 0 0 
z
" style="fill:#ffffff;"/>
  </g>
  <g id="axes_1">
   <g id="patch_2">
    <path d="M 43.78125 242.918125 
L 289.40125 242.918125 
L 289.40125 22.318125 
L 43.78125 22.318125 
z
" style="fill:#ffffff;"/>
   </g>
   <g id="PolyCollection_1">
    <defs>
     <path d="M 54.945795 -48.875675 
L 54.945795 -47.583523 
L 64.654081 -47.583523 
L 74.362389 -47.583523 
L 84.070768 -47.583523 
L 103.487291 -47.583523 
L 122.903815 -47.583523 
L 200.570376 -47.583523 
L 278.236705 -47.583523 
L 278.236705 -52.353184 
L 278.236705 -52.353184 
L 200.570376 -52.148454 
L 122.903815 -50.638204 
L 103.487291 -50.326338 
L 84.070768 -49.445807 
L 74.362389 -49.1862 
L 64.654081 -49.07074 
L 54.945795 -48.875675 
z
" id="meaad3449e5" style="stroke:#1f77b4;stroke-opacity:0.6;"/>
    </defs>
    <g clip-path="url(#p983fa0ff8e)">
     <use style="fill:#1f77b4;fill-opacity:0.6;stroke:#1f77b4;stroke-opacity:0.6;" x="0" xlink:href="#meaad3449e5" y="280.474375"/>
    </g>
   </g>
   <g id="PolyCollection_2">
    <defs>
     <path d="M 54.945795 -179.594111 
L 54.945795 -47.583523 
L 64.654081 -47.583523 
L 74.362389 -47.583523 
L 84.070768 -47.583523 
L 103.487291 -47.583523 
L 122.903815 -47.583523 
L 200.570376 -47.583523 
L 278.236705 -47.583523 
L 278.236705 -243.3314 
L 278.236705 -243.3314 
L 200.570376 -243.324417 
L 122.903815 -237.132013 
L 103.487291 -233.899032 
L 84.070768 -214.067431 
L 74.362389 -203.816548 
L 64.654081 -196.657674 
L 54.945795 -179.594111 
z
" id="m981323ff1d" style="stroke:#ff7f0e;stroke-opacity:0.6;"/>
    </defs>
    <g clip-path="url(#p983fa0ff8e)">
     <use style="fill:#ff7f0e;fill-opacity:0.6;stroke:#ff7f0e;stroke-opacity:0.6;" x="0" xlink:href="#m981323ff1d" y="280.474375"/>
    </g>
   </g>
   <g id="PolyCollection_3">
    <defs>
     <path d="M 54.945795 -53.935537 
L 54.945795 -47.583523 
L 64.654081 -47.583523 
L 74.362389 -47.583523 
L 84.070768 -47.583523 
L 103.487291 -47.583523 
L 122.903815 -47.583523 
L 200.570376 -47.583523 
L 278.236705 -47.583523 
L 278.236705 -65.295985 
L 278.236705 -65.295985 
L 200.570376 -64.585196 
L 122.903815 -60.305767 
L 103.487291 -59.32645 
L 84.070768 -56.422782 
L 74.362389 -55.375091 
L 64.654081 -54.866459 
L 54.945795 -53.935537 
z
" id="me5d5664059" style="stroke:#2ca02c;stroke-opacity:0.6;"/>
    </defs>
    <g clip-path="url(#p983fa0ff8e)">
     <use style="fill:#2ca02c;fill-opacity:0.6;stroke:#2ca02c;stroke-opacity:0.6;" x="0" xlink:href="#me5d5664059" y="280.474375"/>
    </g>
   </g>
   <g id="PolyCollection_4">
    <defs>
     <path d="M 54.945795 -171.398222 
L 54.945795 -47.583523 
L 64.654081 -47.583523 
L 74.362389 -47.583523 
L 84.070768 -47.583523 
L 103.487291 -47.583523 
L 122.903815 -47.583523 
L 200.570376 -47.583523 
L 278.236705 -47.583523 
L 278.236705 -246.854718 
L 278.236705 -246.854718 
L 200.570376 -247.062629 
L 122.903815 -241.932226 
L 103.487291 -238.30113 
L 84.070768 -211.730588 
L 74.362389 -198.137236 
L 64.654081 -189.422713 
L 54.945795 -171.398222 
z
" id="mb284d797f3" style="stroke:#d62728;stroke-opacity:0.6;"/>
    </defs>
    <g clip-path="url(#p983fa0ff8e)">
     <use style="fill:#d62728;fill-opacity:0.6;stroke:#d62728;stroke-opacity:0.6;" x="0" xlink:href="#mb284d797f3" y="280.474375"/>
    </g>
   </g>
   <g id="matplotlib.axis_1">
    <g id="xtick_1">
     <g id="line2d_1">
      <defs>
       <path d="M 0 0 
L 0 3.5 
" id="m9989629fc0" style="stroke:#000000;stroke-width:0.8;"/>
      </defs>
      <g>
       <use style="stroke:#000000;stroke-width:0.8;" x="45.237487" xlink:href="#m9989629fc0" y="242.918125"/>
      </g>
     </g>
     <g id="text_1">
      <!-- 0.0 -->
      <defs>
       <path d="M 31.78125 66.40625 
Q 24.171875 66.40625 20.328125 58.90625 
Q 16.5 51.421875 16.5 36.375 
Q 16.5 21.390625 20.328125 13.890625 
Q 24.171875 6.390625 31.78125 6.390625 
Q 39.453125 6.390625 43.28125 13.890625 
Q 47.125 21.390625 47.125 36.375 
Q 47.125 51.421875 43.28125 58.90625 
Q 39.453125 66.40625 31.78125 66.40625 
z
M 31.78125 74.21875 
Q 44.046875 74.21875 50.515625 64.515625 
Q 56.984375 54.828125 56.984375 36.375 
Q 56.984375 17.96875 50.515625 8.265625 
Q 44.046875 -1.421875 31.78125 -1.421875 
Q 19.53125 -1.421875 13.0625 8.265625 
Q 6.59375 17.96875 6.59375 36.375 
Q 6.59375 54.828125 13.0625 64.515625 
Q 19.53125 74.21875 31.78125 74.21875 
z
" id="DejaVuSans-48"/>
       <path d="M 10.6875 12.40625 
L 21 12.40625 
L 21 0 
L 10.6875 0 
z
" id="DejaVuSans-46"/>
      </defs>
      <g transform="translate(37.285924 257.516563)scale(0.1 -0.1)">
       <use xlink:href="#DejaVuSans-48"/>
       <use x="63.623047" xlink:href="#DejaVuSans-46"/>
       <use x="95.410156" xlink:href="#DejaVuSans-48"/>
      </g>
     </g>
    </g>
    <g id="xtick_2">
     <g id="line2d_2">
      <g>
       <use style="stroke:#000000;stroke-width:0.8;" x="91.83733" xlink:href="#m9989629fc0" y="242.918125"/>
      </g>
     </g>
     <g id="text_2">
      <!-- 0.2 -->
      <defs>
       <path d="M 19.1875 8.296875 
L 53.609375 8.296875 
L 53.609375 0 
L 7.328125 0 
L 7.328125 8.296875 
Q 12.9375 14.109375 22.625 23.890625 
Q 32.328125 33.6875 34.8125 36.53125 
Q 39.546875 41.84375 41.421875 45.53125 
Q 43.3125 49.21875 43.3125 52.78125 
Q 43.3125 58.59375 39.234375 62.25 
Q 35.15625 65.921875 28.609375 65.921875 
Q 23.96875 65.921875 18.8125 64.3125 
Q 13.671875 62.703125 7.8125 59.421875 
L 7.8125 69.390625 
Q 13.765625 71.78125 18.9375 73 
Q 24.125 74.21875 28.421875 74.21875 
Q 39.75 74.21875 46.484375 68.546875 
Q 53.21875 62.890625 53.21875 53.421875 
Q 53.21875 48.921875 51.53125 44.890625 
Q 49.859375 40.875 45.40625 35.40625 
Q 44.1875 33.984375 37.640625 27.21875 
Q 31.109375 20.453125 19.1875 8.296875 
z
" id="DejaVuSans-50"/>
      </defs>
      <g transform="translate(83.885768 257.516563)scale(0.1 -0.1)">
       <use xlink:href="#DejaVuSans-48"/>
       <use x="63.623047" xlink:href="#DejaVuSans-46"/>
       <use x="95.410156" xlink:href="#DejaVuSans-50"/>
      </g>
     </g>
    </g>
    <g id="xtick_3">
     <g id="line2d_3">
      <g>
       <use style="stroke:#000000;stroke-width:0.8;" x="138.437174" xlink:href="#m9989629fc0" y="242.918125"/>
      </g>
     </g>
     <g id="text_3">
      <!-- 0.4 -->
      <defs>
       <path d="M 37.796875 64.3125 
L 12.890625 25.390625 
L 37.796875 25.390625 
z
M 35.203125 72.90625 
L 47.609375 72.90625 
L 47.609375 25.390625 
L 58.015625 25.390625 
L 58.015625 17.1875 
L 47.609375 17.1875 
L 47.609375 0 
L 37.796875 0 
L 37.796875 17.1875 
L 4.890625 17.1875 
L 4.890625 26.703125 
z
" id="DejaVuSans-52"/>
      </defs>
      <g transform="translate(130.485611 257.516563)scale(0.1 -0.1)">
       <use xlink:href="#DejaVuSans-48"/>
       <use x="63.623047" xlink:href="#DejaVuSans-46"/>
       <use x="95.410156" xlink:href="#DejaVuSans-52"/>
      </g>
     </g>
    </g>
    <g id="xtick_4">
     <g id="line2d_4">
      <g>
       <use style="stroke:#000000;stroke-width:0.8;" x="185.037018" xlink:href="#m9989629fc0" y="242.918125"/>
      </g>
     </g>
     <g id="text_4">
      <!-- 0.6 -->
      <defs>
       <path d="M 33.015625 40.375 
Q 26.375 40.375 22.484375 35.828125 
Q 18.609375 31.296875 18.609375 23.390625 
Q 18.609375 15.53125 22.484375 10.953125 
Q 26.375 6.390625 33.015625 6.390625 
Q 39.65625 6.390625 43.53125 10.953125 
Q 47.40625 15.53125 47.40625 23.390625 
Q 47.40625 31.296875 43.53125 35.828125 
Q 39.65625 40.375 33.015625 40.375 
z
M 52.59375 71.296875 
L 52.59375 62.3125 
Q 48.875 64.0625 45.09375 64.984375 
Q 41.3125 65.921875 37.59375 65.921875 
Q 27.828125 65.921875 22.671875 59.328125 
Q 17.53125 52.734375 16.796875 39.40625 
Q 19.671875 43.65625 24.015625 45.921875 
Q 28.375 48.1875 33.59375 48.1875 
Q 44.578125 48.1875 50.953125 41.515625 
Q 57.328125 34.859375 57.328125 23.390625 
Q 57.328125 12.15625 50.6875 5.359375 
Q 44.046875 -1.421875 33.015625 -1.421875 
Q 20.359375 -1.421875 13.671875 8.265625 
Q 6.984375 17.96875 6.984375 36.375 
Q 6.984375 53.65625 15.1875 63.9375 
Q 23.390625 74.21875 37.203125 74.21875 
Q 40.921875 74.21875 44.703125 73.484375 
Q 48.484375 72.75 52.59375 71.296875 
z
" id="DejaVuSans-54"/>
      </defs>
      <g transform="translate(177.085455 257.516563)scale(0.1 -0.1)">
       <use xlink:href="#DejaVuSans-48"/>
       <use x="63.623047" xlink:href="#DejaVuSans-46"/>
       <use x="95.410156" xlink:href="#DejaVuSans-54"/>
      </g>
     </g>
    </g>
    <g id="xtick_5">
     <g id="line2d_5">
      <g>
       <use style="stroke:#000000;stroke-width:0.8;" x="231.636861" xlink:href="#m9989629fc0" y="242.918125"/>
      </g>
     </g>
     <g id="text_5">
      <!-- 0.8 -->
      <defs>
       <path d="M 31.78125 34.625 
Q 24.75 34.625 20.71875 30.859375 
Q 16.703125 27.09375 16.703125 20.515625 
Q 16.703125 13.921875 20.71875 10.15625 
Q 24.75 6.390625 31.78125 6.390625 
Q 38.8125 6.390625 42.859375 10.171875 
Q 46.921875 13.96875 46.921875 20.515625 
Q 46.921875 27.09375 42.890625 30.859375 
Q 38.875 34.625 31.78125 34.625 
z
M 21.921875 38.8125 
Q 15.578125 40.375 12.03125 44.71875 
Q 8.5 49.078125 8.5 55.328125 
Q 8.5 64.0625 14.71875 69.140625 
Q 20.953125 74.21875 31.78125 74.21875 
Q 42.671875 74.21875 48.875 69.140625 
Q 55.078125 64.0625 55.078125 55.328125 
Q 55.078125 49.078125 51.53125 44.71875 
Q 48 40.375 41.703125 38.8125 
Q 48.828125 37.15625 52.796875 32.3125 
Q 56.78125 27.484375 56.78125 20.515625 
Q 56.78125 9.90625 50.3125 4.234375 
Q 43.84375 -1.421875 31.78125 -1.421875 
Q 19.734375 -1.421875 13.25 4.234375 
Q 6.78125 9.90625 6.78125 20.515625 
Q 6.78125 27.484375 10.78125 32.3125 
Q 14.796875 37.15625 21.921875 38.8125 
z
M 18.3125 54.390625 
Q 18.3125 48.734375 21.84375 45.5625 
Q 25.390625 42.390625 31.78125 42.390625 
Q 38.140625 42.390625 41.71875 45.5625 
Q 45.3125 48.734375 45.3125 54.390625 
Q 45.3125 60.0625 41.71875 63.234375 
Q 38.140625 66.40625 31.78125 66.40625 
Q 25.390625 66.40625 21.84375 63.234375 
Q 18.3125 60.0625 18.3125 54.390625 
z
" id="DejaVuSans-56"/>
      </defs>
      <g transform="translate(223.685299 257.516563)scale(0.1 -0.1)">
       <use xlink:href="#DejaVuSans-48"/>
       <use x="63.623047" xlink:href="#DejaVuSans-46"/>
       <use x="95.410156" xlink:href="#DejaVuSans-56"/>
      </g>
     </g>
    </g>
    <g id="xtick_6">
     <g id="line2d_6">
      <g>
       <use style="stroke:#000000;stroke-width:0.8;" x="278.236705" xlink:href="#m9989629fc0" y="242.918125"/>
      </g>
     </g>
     <g id="text_6">
      <!-- 1.0 -->
      <defs>
       <path d="M 12.40625 8.296875 
L 28.515625 8.296875 
L 28.515625 63.921875 
L 10.984375 60.40625 
L 10.984375 69.390625 
L 28.421875 72.90625 
L 38.28125 72.90625 
L 38.28125 8.296875 
L 54.390625 8.296875 
L 54.390625 0 
L 12.40625 0 
z
" id="DejaVuSans-49"/>
      </defs>
      <g transform="translate(270.285142 257.516563)scale(0.1 -0.1)">
       <use xlink:href="#DejaVuSans-49"/>
       <use x="63.623047" xlink:href="#DejaVuSans-46"/>
       <use x="95.410156" xlink:href="#DejaVuSans-48"/>
      </g>
     </g>
    </g>
    <g id="text_7">
     <!-- allele frequency -->
     <defs>
      <path d="M 34.28125 27.484375 
Q 23.390625 27.484375 19.1875 25 
Q 14.984375 22.515625 14.984375 16.5 
Q 14.984375 11.71875 18.140625 8.90625 
Q 21.296875 6.109375 26.703125 6.109375 
Q 34.1875 6.109375 38.703125 11.40625 
Q 43.21875 16.703125 43.21875 25.484375 
L 43.21875 27.484375 
z
M 52.203125 31.203125 
L 52.203125 0 
L 43.21875 0 
L 43.21875 8.296875 
Q 40.140625 3.328125 35.546875 0.953125 
Q 30.953125 -1.421875 24.3125 -1.421875 
Q 15.921875 -1.421875 10.953125 3.296875 
Q 6 8.015625 6 15.921875 
Q 6 25.140625 12.171875 29.828125 
Q 18.359375 34.515625 30.609375 34.515625 
L 43.21875 34.515625 
L 43.21875 35.40625 
Q 43.21875 41.609375 39.140625 45 
Q 35.0625 48.390625 27.6875 48.390625 
Q 23 48.390625 18.546875 47.265625 
Q 14.109375 46.140625 10.015625 43.890625 
L 10.015625 52.203125 
Q 14.9375 54.109375 19.578125 55.046875 
Q 24.21875 56 28.609375 56 
Q 40.484375 56 46.34375 49.84375 
Q 52.203125 43.703125 52.203125 31.203125 
z
" id="DejaVuSans-97"/>
      <path d="M 9.421875 75.984375 
L 18.40625 75.984375 
L 18.40625 0 
L 9.421875 0 
z
" id="DejaVuSans-108"/>
      <path d="M 56.203125 29.59375 
L 56.203125 25.203125 
L 14.890625 25.203125 
Q 15.484375 15.921875 20.484375 11.0625 
Q 25.484375 6.203125 34.421875 6.203125 
Q 39.59375 6.203125 44.453125 7.46875 
Q 49.3125 8.734375 54.109375 11.28125 
L 54.109375 2.78125 
Q 49.265625 0.734375 44.1875 -0.34375 
Q 39.109375 -1.421875 33.890625 -1.421875 
Q 20.796875 -1.421875 13.15625 6.1875 
Q 5.515625 13.8125 5.515625 26.8125 
Q 5.515625 40.234375 12.765625 48.109375 
Q 20.015625 56 32.328125 56 
Q 43.359375 56 49.78125 48.890625 
Q 56.203125 41.796875 56.203125 29.59375 
z
M 47.21875 32.234375 
Q 47.125 39.59375 43.09375 43.984375 
Q 39.0625 48.390625 32.421875 48.390625 
Q 24.90625 48.390625 20.390625 44.140625 
Q 15.875 39.890625 15.1875 32.171875 
z
" id="DejaVuSans-101"/>
      <path id="DejaVuSans-32"/>
      <path d="M 37.109375 75.984375 
L 37.109375 68.5 
L 28.515625 68.5 
Q 23.6875 68.5 21.796875 66.546875 
Q 19.921875 64.59375 19.921875 59.515625 
L 19.921875 54.6875 
L 34.71875 54.6875 
L 34.71875 47.703125 
L 19.921875 47.703125 
L 19.921875 0 
L 10.890625 0 
L 10.890625 47.703125 
L 2.296875 47.703125 
L 2.296875 54.6875 
L 10.890625 54.6875 
L 10.890625 58.5 
Q 10.890625 67.625 15.140625 71.796875 
Q 19.390625 75.984375 28.609375 75.984375 
z
" id="DejaVuSans-102"/>
      <path d="M 41.109375 46.296875 
Q 39.59375 47.171875 37.8125 47.578125 
Q 36.03125 48 33.890625 48 
Q 26.265625 48 22.1875 43.046875 
Q 18.109375 38.09375 18.109375 28.8125 
L 18.109375 0 
L 9.078125 0 
L 9.078125 54.6875 
L 18.109375 54.6875 
L 18.109375 46.1875 
Q 20.953125 51.171875 25.484375 53.578125 
Q 30.03125 56 36.53125 56 
Q 37.453125 56 38.578125 55.875 
Q 39.703125 55.765625 41.0625 55.515625 
z
" id="DejaVuSans-114"/>
      <path d="M 14.796875 27.296875 
Q 14.796875 17.390625 18.875 11.75 
Q 22.953125 6.109375 30.078125 6.109375 
Q 37.203125 6.109375 41.296875 11.75 
Q 45.40625 17.390625 45.40625 27.296875 
Q 45.40625 37.203125 41.296875 42.84375 
Q 37.203125 48.484375 30.078125 48.484375 
Q 22.953125 48.484375 18.875 42.84375 
Q 14.796875 37.203125 14.796875 27.296875 
z
M 45.40625 8.203125 
Q 42.578125 3.328125 38.25 0.953125 
Q 33.9375 -1.421875 27.875 -1.421875 
Q 17.96875 -1.421875 11.734375 6.484375 
Q 5.515625 14.40625 5.515625 27.296875 
Q 5.515625 40.1875 11.734375 48.09375 
Q 17.96875 56 27.875 56 
Q 33.9375 56 38.25 53.625 
Q 42.578125 51.265625 45.40625 46.390625 
L 45.40625 54.6875 
L 54.390625 54.6875 
L 54.390625 -20.796875 
L 45.40625 -20.796875 
z
" id="DejaVuSans-113"/>
      <path d="M 8.5 21.578125 
L 8.5 54.6875 
L 17.484375 54.6875 
L 17.484375 21.921875 
Q 17.484375 14.15625 20.5 10.265625 
Q 23.53125 6.390625 29.59375 6.390625 
Q 36.859375 6.390625 41.078125 11.03125 
Q 45.3125 15.671875 45.3125 23.6875 
L 45.3125 54.6875 
L 54.296875 54.6875 
L 54.296875 0 
L 45.3125 0 
L 45.3125 8.40625 
Q 42.046875 3.421875 37.71875 1 
Q 33.40625 -1.421875 27.6875 -1.421875 
Q 18.265625 -1.421875 13.375 4.4375 
Q 8.5 10.296875 8.5 21.578125 
z
M 31.109375 56 
z
" id="DejaVuSans-117"/>
      <path d="M 54.890625 33.015625 
L 54.890625 0 
L 45.90625 0 
L 45.90625 32.71875 
Q 45.90625 40.484375 42.875 44.328125 
Q 39.84375 48.1875 33.796875 48.1875 
Q 26.515625 48.1875 22.3125 43.546875 
Q 18.109375 38.921875 18.109375 30.90625 
L 18.109375 0 
L 9.078125 0 
L 9.078125 54.6875 
L 18.109375 54.6875 
L 18.109375 46.1875 
Q 21.34375 51.125 25.703125 53.5625 
Q 30.078125 56 35.796875 56 
Q 45.21875 56 50.046875 50.171875 
Q 54.890625 44.34375 54.890625 33.015625 
z
" id="DejaVuSans-110"/>
      <path d="M 48.78125 52.59375 
L 48.78125 44.1875 
Q 44.96875 46.296875 41.140625 47.34375 
Q 37.3125 48.390625 33.40625 48.390625 
Q 24.65625 48.390625 19.8125 42.84375 
Q 14.984375 37.3125 14.984375 27.296875 
Q 14.984375 17.28125 19.8125 11.734375 
Q 24.65625 6.203125 33.40625 6.203125 
Q 37.3125 6.203125 41.140625 7.25 
Q 44.96875 8.296875 48.78125 10.40625 
L 48.78125 2.09375 
Q 45.015625 0.34375 40.984375 -0.53125 
Q 36.96875 -1.421875 32.421875 -1.421875 
Q 20.0625 -1.421875 12.78125 6.34375 
Q 5.515625 14.109375 5.515625 27.296875 
Q 5.515625 40.671875 12.859375 48.328125 
Q 20.21875 56 33.015625 56 
Q 37.15625 56 41.109375 55.140625 
Q 45.0625 54.296875 48.78125 52.59375 
z
" id="DejaVuSans-99"/>
      <path d="M 32.171875 -5.078125 
Q 28.375 -14.84375 24.75 -17.8125 
Q 21.140625 -20.796875 15.09375 -20.796875 
L 7.90625 -20.796875 
L 7.90625 -13.28125 
L 13.1875 -13.28125 
Q 16.890625 -13.28125 18.9375 -11.515625 
Q 21 -9.765625 23.484375 -3.21875 
L 25.09375 0.875 
L 2.984375 54.6875 
L 12.5 54.6875 
L 29.59375 11.921875 
L 46.6875 54.6875 
L 56.203125 54.6875 
z
" id="DejaVuSans-121"/>
     </defs>
     <g transform="translate(126.430313 271.194687)scale(0.1 -0.1)">
      <use xlink:href="#DejaVuSans-97"/>
      <use x="61.279297" xlink:href="#DejaVuSans-108"/>
      <use x="89.0625" xlink:href="#DejaVuSans-108"/>
      <use x="116.845703" xlink:href="#DejaVuSans-101"/>
      <use x="178.369141" xlink:href="#DejaVuSans-108"/>
      <use x="206.152344" xlink:href="#DejaVuSans-101"/>
      <use x="267.675781" xlink:href="#DejaVuSans-32"/>
      <use x="299.462891" xlink:href="#DejaVuSans-102"/>
      <use x="334.667969" xlink:href="#DejaVuSans-114"/>
      <use x="375.75" xlink:href="#DejaVuSans-101"/>
      <use x="437.273438" xlink:href="#DejaVuSans-113"/>
      <use x="500.75" xlink:href="#DejaVuSans-117"/>
      <use x="564.128906" xlink:href="#DejaVuSans-101"/>
      <use x="625.652344" xlink:href="#DejaVuSans-110"/>
      <use x="689.03125" xlink:href="#DejaVuSans-99"/>
      <use x="744.011719" xlink:href="#DejaVuSans-121"/>
     </g>
    </g>
   </g>
   <g id="matplotlib.axis_2">
    <g id="ytick_1">
     <g id="line2d_7">
      <defs>
       <path d="M 0 0 
L -3.5 0 
" id="mc712086c39" style="stroke:#000000;stroke-width:0.8;"/>
      </defs>
      <g>
       <use style="stroke:#000000;stroke-width:0.8;" x="43.78125" xlink:href="#mc712086c39" y="232.890852"/>
      </g>
     </g>
     <g id="text_8">
      <!-- 0.0 -->
      <g transform="translate(20.878125 236.690071)scale(0.1 -0.1)">
       <use xlink:href="#DejaVuSans-48"/>
       <use x="63.623047" xlink:href="#DejaVuSans-46"/>
       <use x="95.410156" xlink:href="#DejaVuSans-48"/>
      </g>
     </g>
    </g>
    <g id="ytick_2">
     <g id="line2d_8">
      <g>
       <use style="stroke:#000000;stroke-width:0.8;" x="43.78125" xlink:href="#mc712086c39" y="189.182535"/>
      </g>
     </g>
     <g id="text_9">
      <!-- 0.2 -->
      <g transform="translate(20.878125 192.981754)scale(0.1 -0.1)">
       <use xlink:href="#DejaVuSans-48"/>
       <use x="63.623047" xlink:href="#DejaVuSans-46"/>
       <use x="95.410156" xlink:href="#DejaVuSans-50"/>
      </g>
     </g>
    </g>
    <g id="ytick_3">
     <g id="line2d_9">
      <g>
       <use style="stroke:#000000;stroke-width:0.8;" x="43.78125" xlink:href="#mc712086c39" y="145.474217"/>
      </g>
     </g>
     <g id="text_10">
      <!-- 0.4 -->
      <g transform="translate(20.878125 149.273436)scale(0.1 -0.1)">
       <use xlink:href="#DejaVuSans-48"/>
       <use x="63.623047" xlink:href="#DejaVuSans-46"/>
       <use x="95.410156" xlink:href="#DejaVuSans-52"/>
      </g>
     </g>
    </g>
    <g id="ytick_4">
     <g id="line2d_10">
      <g>
       <use style="stroke:#000000;stroke-width:0.8;" x="43.78125" xlink:href="#mc712086c39" y="101.7659"/>
      </g>
     </g>
     <g id="text_11">
      <!-- 0.6 -->
      <g transform="translate(20.878125 105.565119)scale(0.1 -0.1)">
       <use xlink:href="#DejaVuSans-48"/>
       <use x="63.623047" xlink:href="#DejaVuSans-46"/>
       <use x="95.410156" xlink:href="#DejaVuSans-54"/>
      </g>
     </g>
    </g>
    <g id="ytick_5">
     <g id="line2d_11">
      <g>
       <use style="stroke:#000000;stroke-width:0.8;" x="43.78125" xlink:href="#mc712086c39" y="58.057582"/>
      </g>
     </g>
     <g id="text_12">
      <!-- 0.8 -->
      <g transform="translate(20.878125 61.856801)scale(0.1 -0.1)">
       <use xlink:href="#DejaVuSans-48"/>
       <use x="63.623047" xlink:href="#DejaVuSans-46"/>
       <use x="95.410156" xlink:href="#DejaVuSans-56"/>
      </g>
     </g>
    </g>
    <g id="text_13">
     <!-- recall -->
     <g transform="translate(14.798438 146.34)rotate(-90)scale(0.1 -0.1)">
      <use xlink:href="#DejaVuSans-114"/>
      <use x="41.082031" xlink:href="#DejaVuSans-101"/>
      <use x="102.605469" xlink:href="#DejaVuSans-99"/>
      <use x="157.585938" xlink:href="#DejaVuSans-97"/>
      <use x="218.865234" xlink:href="#DejaVuSans-108"/>
      <use x="246.648438" xlink:href="#DejaVuSans-108"/>
     </g>
    </g>
   </g>
   <g id="line2d_12">
    <path clip-path="url(#p983fa0ff8e)" d="M 54.945795 231.731434 
L 64.654081 231.553095 
L 74.362389 231.448043 
L 84.070768 231.191548 
L 103.487291 230.299972 
L 122.903815 229.984829 
L 200.570376 228.433754 
L 278.236705 228.264999 
" style="fill:none;stroke:#ffffff;stroke-linecap:square;stroke-opacity:0.8;stroke-width:1.5;"/>
   </g>
   <g id="line2d_13">
    <path clip-path="url(#p983fa0ff8e)" d="M 54.945795 231.731434 
L 64.654081 231.553095 
L 74.362389 231.448043 
L 84.070768 231.191548 
L 103.487291 230.299972 
L 122.903815 229.984829 
L 200.570376 228.433754 
L 278.236705 228.264999 
" style="fill:none;stroke:#1f77b4;stroke-dasharray:1.5,2.475;stroke-dashoffset:0;stroke-width:1.5;"/>
   </g>
   <g id="line2d_14">
    <path clip-path="url(#p983fa0ff8e)" d="M 54.945795 150.87279 
L 64.654081 139.031947 
L 74.362389 133.089241 
L 84.070768 122.213159 
L 103.487291 94.022845 
L 122.903815 86.573056 
L 200.570376 59.423467 
L 278.236705 53.297508 
" style="fill:none;stroke:#ffffff;stroke-linecap:square;stroke-opacity:0.8;stroke-width:1.5;"/>
   </g>
   <g id="line2d_15">
    <path clip-path="url(#p983fa0ff8e)" d="M 54.945795 150.87279 
L 64.654081 139.031947 
L 74.362389 133.089241 
L 84.070768 122.213159 
L 103.487291 94.022845 
L 122.903815 86.573056 
L 200.570376 59.423467 
L 278.236705 53.297508 
" style="fill:none;stroke:#ff7f0e;stroke-dasharray:1.5,2.475;stroke-dashoffset:0;stroke-width:1.5;"/>
   </g>
   <g id="line2d_16">
    <path clip-path="url(#p983fa0ff8e)" d="M 54.945795 111.390193 
L 64.654081 93.45778 
L 74.362389 84.605266 
L 84.070768 70.359205 
L 103.487291 41.353599 
L 122.903815 37.678974 
L 200.570376 32.345398 
L 278.236705 32.517122 
" style="fill:none;stroke:#ffffff;stroke-linecap:square;stroke-opacity:0.8;stroke-width:1.5;"/>
   </g>
   <g id="line2d_17">
    <path clip-path="url(#p983fa0ff8e)" d="M 54.945795 111.390193 
L 64.654081 93.45778 
L 74.362389 84.605266 
L 84.070768 70.359205 
L 103.487291 41.353599 
L 122.903815 37.678974 
L 200.570376 32.345398 
L 278.236705 32.517122 
" style="fill:none;stroke:#d62728;stroke-dasharray:1.5,2.475;stroke-dashoffset:0;stroke-width:1.5;"/>
   </g>
   <g id="patch_3">
    <path d="M 43.78125 242.918125 
L 43.78125 22.318125 
" style="fill:none;stroke:#000000;stroke-linecap:square;stroke-linejoin:miter;stroke-width:0.8;"/>
   </g>
   <g id="patch_4">
    <path d="M 43.78125 242.918125 
L 289.40125 242.918125 
" style="fill:none;stroke:#000000;stroke-linecap:square;stroke-linejoin:miter;stroke-width:0.8;"/>
   </g>
   <g id="text_14">
    <!-- 1 - 30 -->
    <defs>
     <path d="M 4.890625 31.390625 
L 31.203125 31.390625 
L 31.203125 23.390625 
L 4.890625 23.390625 
z
" id="DejaVuSans-45"/>
     <path d="M 40.578125 39.3125 
Q 47.65625 37.796875 51.625 33 
Q 55.609375 28.21875 55.609375 21.1875 
Q 55.609375 10.40625 48.1875 4.484375 
Q 40.765625 -1.421875 27.09375 -1.421875 
Q 22.515625 -1.421875 17.65625 -0.515625 
Q 12.796875 0.390625 7.625 2.203125 
L 7.625 11.71875 
Q 11.71875 9.328125 16.59375 8.109375 
Q 21.484375 6.890625 26.8125 6.890625 
Q 36.078125 6.890625 40.9375 10.546875 
Q 45.796875 14.203125 45.796875 21.1875 
Q 45.796875 27.640625 41.28125 31.265625 
Q 36.765625 34.90625 28.71875 34.90625 
L 20.21875 34.90625 
L 20.21875 43.015625 
L 29.109375 43.015625 
Q 36.375 43.015625 40.234375 45.921875 
Q 44.09375 48.828125 44.09375 54.296875 
Q 44.09375 59.90625 40.109375 62.90625 
Q 36.140625 65.921875 28.71875 65.921875 
Q 24.65625 65.921875 20.015625 65.03125 
Q 15.375 64.15625 9.8125 62.3125 
L 9.8125 71.09375 
Q 15.4375 72.65625 20.34375 73.4375 
Q 25.25 74.21875 29.59375 74.21875 
Q 40.828125 74.21875 47.359375 69.109375 
Q 53.90625 64.015625 53.90625 55.328125 
Q 53.90625 49.265625 50.4375 45.09375 
Q 46.96875 40.921875 40.578125 39.3125 
z
" id="DejaVuSans-51"/>
    </defs>
    <g transform="translate(149.160313 16.318125)scale(0.12 -0.12)">
     <use xlink:href="#DejaVuSans-49"/>
     <use x="63.623047" xlink:href="#DejaVuSans-32"/>
     <use x="95.410156" xlink:href="#DejaVuSans-45"/>
     <use x="131.494141" xlink:href="#DejaVuSans-32"/>
     <use x="163.28125" xlink:href="#DejaVuSans-51"/>
     <use x="226.904297" xlink:href="#DejaVuSans-48"/>
    </g>
   </g>
   <g id="legend_1">
    <g id="patch_5">
     <path d="M 143.866875 200.169688 
L 282.40125 200.169688 
Q 284.40125 200.169688 284.40125 198.169688 
L 284.40125 67.066563 
Q 284.40125 65.066563 282.40125 65.066563 
L 143.866875 65.066563 
Q 141.866875 65.066563 141.866875 67.066563 
L 141.866875 198.169688 
Q 141.866875 200.169688 143.866875 200.169688 
z
" style="fill:#ffffff;opacity:0.8;stroke:#cccccc;stroke-linejoin:miter;"/>
    </g>
    <g id="patch_6">
     <path d="M 145.866875 76.665 
L 165.866875 76.665 
L 165.866875 69.665 
L 145.866875 69.665 
z
" style="fill:#1f77b4;opacity:0.6;stroke:#1f77b4;stroke-linejoin:miter;"/>
    </g>
    <g id="text_15">
     <!-- varlociraptor+delly -->
     <defs>
      <path d="M 2.984375 54.6875 
L 12.5 54.6875 
L 29.59375 8.796875 
L 46.6875 54.6875 
L 56.203125 54.6875 
L 35.6875 0 
L 23.484375 0 
z
" id="DejaVuSans-118"/>
      <path d="M 30.609375 48.390625 
Q 23.390625 48.390625 19.1875 42.75 
Q 14.984375 37.109375 14.984375 27.296875 
Q 14.984375 17.484375 19.15625 11.84375 
Q 23.34375 6.203125 30.609375 6.203125 
Q 37.796875 6.203125 41.984375 11.859375 
Q 46.1875 17.53125 46.1875 27.296875 
Q 46.1875 37.015625 41.984375 42.703125 
Q 37.796875 48.390625 30.609375 48.390625 
z
M 30.609375 56 
Q 42.328125 56 49.015625 48.375 
Q 55.71875 40.765625 55.71875 27.296875 
Q 55.71875 13.875 49.015625 6.21875 
Q 42.328125 -1.421875 30.609375 -1.421875 
Q 18.84375 -1.421875 12.171875 6.21875 
Q 5.515625 13.875 5.515625 27.296875 
Q 5.515625 40.765625 12.171875 48.375 
Q 18.84375 56 30.609375 56 
z
" id="DejaVuSans-111"/>
      <path d="M 9.421875 54.6875 
L 18.40625 54.6875 
L 18.40625 0 
L 9.421875 0 
z
M 9.421875 75.984375 
L 18.40625 75.984375 
L 18.40625 64.59375 
L 9.421875 64.59375 
z
" id="DejaVuSans-105"/>
      <path d="M 18.109375 8.203125 
L 18.109375 -20.796875 
L 9.078125 -20.796875 
L 9.078125 54.6875 
L 18.109375 54.6875 
L 18.109375 46.390625 
Q 20.953125 51.265625 25.265625 53.625 
Q 29.59375 56 35.59375 56 
Q 45.5625 56 51.78125 48.09375 
Q 58.015625 40.1875 58.015625 27.296875 
Q 58.015625 14.40625 51.78125 6.484375 
Q 45.5625 -1.421875 35.59375 -1.421875 
Q 29.59375 -1.421875 25.265625 0.953125 
Q 20.953125 3.328125 18.109375 8.203125 
z
M 48.6875 27.296875 
Q 48.6875 37.203125 44.609375 42.84375 
Q 40.53125 48.484375 33.40625 48.484375 
Q 26.265625 48.484375 22.1875 42.84375 
Q 18.109375 37.203125 18.109375 27.296875 
Q 18.109375 17.390625 22.1875 11.75 
Q 26.265625 6.109375 33.40625 6.109375 
Q 40.53125 6.109375 44.609375 11.75 
Q 48.6875 17.390625 48.6875 27.296875 
z
" id="DejaVuSans-112"/>
      <path d="M 18.3125 70.21875 
L 18.3125 54.6875 
L 36.8125 54.6875 
L 36.8125 47.703125 
L 18.3125 47.703125 
L 18.3125 18.015625 
Q 18.3125 11.328125 20.140625 9.421875 
Q 21.96875 7.515625 27.59375 7.515625 
L 36.8125 7.515625 
L 36.8125 0 
L 27.59375 0 
Q 17.1875 0 13.234375 3.875 
Q 9.28125 7.765625 9.28125 18.015625 
L 9.28125 47.703125 
L 2.6875 47.703125 
L 2.6875 54.6875 
L 9.28125 54.6875 
L 9.28125 70.21875 
z
" id="DejaVuSans-116"/>
      <path d="M 46 62.703125 
L 46 35.5 
L 73.1875 35.5 
L 73.1875 27.203125 
L 46 27.203125 
L 46 0 
L 37.796875 0 
L 37.796875 27.203125 
L 10.59375 27.203125 
L 10.59375 35.5 
L 37.796875 35.5 
L 37.796875 62.703125 
z
" id="DejaVuSans-43"/>
      <path d="M 45.40625 46.390625 
L 45.40625 75.984375 
L 54.390625 75.984375 
L 54.390625 0 
L 45.40625 0 
L 45.40625 8.203125 
Q 42.578125 3.328125 38.25 0.953125 
Q 33.9375 -1.421875 27.875 -1.421875 
Q 17.96875 -1.421875 11.734375 6.484375 
Q 5.515625 14.40625 5.515625 27.296875 
Q 5.515625 40.1875 11.734375 48.09375 
Q 17.96875 56 27.875 56 
Q 33.9375 56 38.25 53.625 
Q 42.578125 51.265625 45.40625 46.390625 
z
M 14.796875 27.296875 
Q 14.796875 17.390625 18.875 11.75 
Q 22.953125 6.109375 30.078125 6.109375 
Q 37.203125 6.109375 41.296875 11.75 
Q 45.40625 17.390625 45.40625 27.296875 
Q 45.40625 37.203125 41.296875 42.84375 
Q 37.203125 48.484375 30.078125 48.484375 
Q 22.953125 48.484375 18.875 42.84375 
Q 14.796875 37.203125 14.796875 27.296875 
z
" id="DejaVuSans-100"/>
     </defs>
     <g transform="translate(173.866875 76.665)scale(0.1 -0.1)">
      <use xlink:href="#DejaVuSans-118"/>
      <use x="59.179688" xlink:href="#DejaVuSans-97"/>
      <use x="120.458984" xlink:href="#DejaVuSans-114"/>
      <use x="161.572266" xlink:href="#DejaVuSans-108"/>
      <use x="189.355469" xlink:href="#DejaVuSans-111"/>
      <use x="250.537109" xlink:href="#DejaVuSans-99"/>
      <use x="305.517578" xlink:href="#DejaVuSans-105"/>
      <use x="333.300781" xlink:href="#DejaVuSans-114"/>
      <use x="374.414062" xlink:href="#DejaVuSans-97"/>
      <use x="435.693359" xlink:href="#DejaVuSans-112"/>
      <use x="499.169922" xlink:href="#DejaVuSans-116"/>
      <use x="538.378906" xlink:href="#DejaVuSans-111"/>
      <use x="599.560547" xlink:href="#DejaVuSans-114"/>
      <use x="640.673828" xlink:href="#DejaVuSans-43"/>
      <use x="724.462891" xlink:href="#DejaVuSans-100"/>
      <use x="787.939453" xlink:href="#DejaVuSans-101"/>
      <use x="849.462891" xlink:href="#DejaVuSans-108"/>
      <use x="877.246094" xlink:href="#DejaVuSans-108"/>
      <use x="905.029297" xlink:href="#DejaVuSans-121"/>
     </g>
    </g>
    <g id="patch_7">
     <path d="M 145.866875 91.343125 
L 165.866875 91.343125 
L 165.866875 84.343125 
L 145.866875 84.343125 
z
" style="fill:#ff7f0e;opacity:0.6;stroke:#ff7f0e;stroke-linejoin:miter;"/>
    </g>
    <g id="text_16">
     <!-- varlociraptor+lancet -->
     <g transform="translate(173.866875 91.343125)scale(0.1 -0.1)">
      <use xlink:href="#DejaVuSans-118"/>
      <use x="59.179688" xlink:href="#DejaVuSans-97"/>
      <use x="120.458984" xlink:href="#DejaVuSans-114"/>
      <use x="161.572266" xlink:href="#DejaVuSans-108"/>
      <use x="189.355469" xlink:href="#DejaVuSans-111"/>
      <use x="250.537109" xlink:href="#DejaVuSans-99"/>
      <use x="305.517578" xlink:href="#DejaVuSans-105"/>
      <use x="333.300781" xlink:href="#DejaVuSans-114"/>
      <use x="374.414062" xlink:href="#DejaVuSans-97"/>
      <use x="435.693359" xlink:href="#DejaVuSans-112"/>
      <use x="499.169922" xlink:href="#DejaVuSans-116"/>
      <use x="538.378906" xlink:href="#DejaVuSans-111"/>
      <use x="599.560547" xlink:href="#DejaVuSans-114"/>
      <use x="640.673828" xlink:href="#DejaVuSans-43"/>
      <use x="724.462891" xlink:href="#DejaVuSans-108"/>
      <use x="752.246094" xlink:href="#DejaVuSans-97"/>
      <use x="813.525391" xlink:href="#DejaVuSans-110"/>
      <use x="876.904297" xlink:href="#DejaVuSans-99"/>
      <use x="931.884766" xlink:href="#DejaVuSans-101"/>
      <use x="993.408203" xlink:href="#DejaVuSans-116"/>
     </g>
    </g>
    <g id="patch_8">
     <path d="M 145.866875 106.02125 
L 165.866875 106.02125 
L 165.866875 99.02125 
L 145.866875 99.02125 
z
" style="fill:#2ca02c;opacity:0.6;stroke:#2ca02c;stroke-linejoin:miter;"/>
    </g>
    <g id="text_17">
     <!-- varlociraptor+manta -->
     <defs>
      <path d="M 52 44.1875 
Q 55.375 50.25 60.0625 53.125 
Q 64.75 56 71.09375 56 
Q 79.640625 56 84.28125 50.015625 
Q 88.921875 44.046875 88.921875 33.015625 
L 88.921875 0 
L 79.890625 0 
L 79.890625 32.71875 
Q 79.890625 40.578125 77.09375 44.375 
Q 74.3125 48.1875 68.609375 48.1875 
Q 61.625 48.1875 57.5625 43.546875 
Q 53.515625 38.921875 53.515625 30.90625 
L 53.515625 0 
L 44.484375 0 
L 44.484375 32.71875 
Q 44.484375 40.625 41.703125 44.40625 
Q 38.921875 48.1875 33.109375 48.1875 
Q 26.21875 48.1875 22.15625 43.53125 
Q 18.109375 38.875 18.109375 30.90625 
L 18.109375 0 
L 9.078125 0 
L 9.078125 54.6875 
L 18.109375 54.6875 
L 18.109375 46.1875 
Q 21.1875 51.21875 25.484375 53.609375 
Q 29.78125 56 35.6875 56 
Q 41.65625 56 45.828125 52.96875 
Q 50 49.953125 52 44.1875 
z
" id="DejaVuSans-109"/>
     </defs>
     <g transform="translate(173.866875 106.02125)scale(0.1 -0.1)">
      <use xlink:href="#DejaVuSans-118"/>
      <use x="59.179688" xlink:href="#DejaVuSans-97"/>
      <use x="120.458984" xlink:href="#DejaVuSans-114"/>
      <use x="161.572266" xlink:href="#DejaVuSans-108"/>
      <use x="189.355469" xlink:href="#DejaVuSans-111"/>
      <use x="250.537109" xlink:href="#DejaVuSans-99"/>
      <use x="305.517578" xlink:href="#DejaVuSans-105"/>
      <use x="333.300781" xlink:href="#DejaVuSans-114"/>
      <use x="374.414062" xlink:href="#DejaVuSans-97"/>
      <use x="435.693359" xlink:href="#DejaVuSans-112"/>
      <use x="499.169922" xlink:href="#DejaVuSans-116"/>
      <use x="538.378906" xlink:href="#DejaVuSans-111"/>
      <use x="599.560547" xlink:href="#DejaVuSans-114"/>
      <use x="640.673828" xlink:href="#DejaVuSans-43"/>
      <use x="724.462891" xlink:href="#DejaVuSans-109"/>
      <use x="821.875" xlink:href="#DejaVuSans-97"/>
      <use x="883.154297" xlink:href="#DejaVuSans-110"/>
      <use x="946.533203" xlink:href="#DejaVuSans-116"/>
      <use x="985.742188" xlink:href="#DejaVuSans-97"/>
     </g>
    </g>
    <g id="patch_9">
     <path d="M 145.866875 120.699375 
L 165.866875 120.699375 
L 165.866875 113.699375 
L 145.866875 113.699375 
z
" style="fill:#d62728;opacity:0.6;stroke:#d62728;stroke-linejoin:miter;"/>
    </g>
    <g id="text_18">
     <!-- varlociraptor+strelka -->
     <defs>
      <path d="M 44.28125 53.078125 
L 44.28125 44.578125 
Q 40.484375 46.53125 36.375 47.5 
Q 32.28125 48.484375 27.875 48.484375 
Q 21.1875 48.484375 17.84375 46.4375 
Q 14.5 44.390625 14.5 40.28125 
Q 14.5 37.15625 16.890625 35.375 
Q 19.28125 33.59375 26.515625 31.984375 
L 29.59375 31.296875 
Q 39.15625 29.25 43.1875 25.515625 
Q 47.21875 21.78125 47.21875 15.09375 
Q 47.21875 7.46875 41.1875 3.015625 
Q 35.15625 -1.421875 24.609375 -1.421875 
Q 20.21875 -1.421875 15.453125 -0.5625 
Q 10.6875 0.296875 5.421875 2 
L 5.421875 11.28125 
Q 10.40625 8.6875 15.234375 7.390625 
Q 20.0625 6.109375 24.8125 6.109375 
Q 31.15625 6.109375 34.5625 8.28125 
Q 37.984375 10.453125 37.984375 14.40625 
Q 37.984375 18.0625 35.515625 20.015625 
Q 33.0625 21.96875 24.703125 23.78125 
L 21.578125 24.515625 
Q 13.234375 26.265625 9.515625 29.90625 
Q 5.8125 33.546875 5.8125 39.890625 
Q 5.8125 47.609375 11.28125 51.796875 
Q 16.75 56 26.8125 56 
Q 31.78125 56 36.171875 55.265625 
Q 40.578125 54.546875 44.28125 53.078125 
z
" id="DejaVuSans-115"/>
      <path d="M 9.078125 75.984375 
L 18.109375 75.984375 
L 18.109375 31.109375 
L 44.921875 54.6875 
L 56.390625 54.6875 
L 27.390625 29.109375 
L 57.625 0 
L 45.90625 0 
L 18.109375 26.703125 
L 18.109375 0 
L 9.078125 0 
z
" id="DejaVuSans-107"/>
     </defs>
     <g transform="translate(173.866875 120.699375)scale(0.1 -0.1)">
      <use xlink:href="#DejaVuSans-118"/>
      <use x="59.179688" xlink:href="#DejaVuSans-97"/>
      <use x="120.458984" xlink:href="#DejaVuSans-114"/>
      <use x="161.572266" xlink:href="#DejaVuSans-108"/>
      <use x="189.355469" xlink:href="#DejaVuSans-111"/>
      <use x="250.537109" xlink:href="#DejaVuSans-99"/>
      <use x="305.517578" xlink:href="#DejaVuSans-105"/>
      <use x="333.300781" xlink:href="#DejaVuSans-114"/>
      <use x="374.414062" xlink:href="#DejaVuSans-97"/>
      <use x="435.693359" xlink:href="#DejaVuSans-112"/>
      <use x="499.169922" xlink:href="#DejaVuSans-116"/>
      <use x="538.378906" xlink:href="#DejaVuSans-111"/>
      <use x="599.560547" xlink:href="#DejaVuSans-114"/>
      <use x="640.673828" xlink:href="#DejaVuSans-43"/>
      <use x="724.462891" xlink:href="#DejaVuSans-115"/>
      <use x="776.5625" xlink:href="#DejaVuSans-116"/>
      <use x="815.771484" xlink:href="#DejaVuSans-114"/>
      <use x="856.853516" xlink:href="#DejaVuSans-101"/>
      <use x="918.376953" xlink:href="#DejaVuSans-108"/>
      <use x="946.160156" xlink:href="#DejaVuSans-107"/>
      <use x="1004.054688" xlink:href="#DejaVuSans-97"/>
     </g>
    </g>
    <g id="line2d_18">
     <path d="M 145.866875 131.8775 
L 165.866875 131.8775 
" style="fill:none;stroke:#1f77b4;stroke-dasharray:1.5,2.475;stroke-dashoffset:0;stroke-width:1.5;"/>
    </g>
    <g id="line2d_19"/>
    <g id="text_19">
     <!-- delly -->
     <g transform="translate(173.866875 135.3775)scale(0.1 -0.1)">
      <use xlink:href="#DejaVuSans-100"/>
      <use x="63.476562" xlink:href="#DejaVuSans-101"/>
      <use x="125" xlink:href="#DejaVuSans-108"/>
      <use x="152.783203" xlink:href="#DejaVuSans-108"/>
      <use x="180.566406" xlink:href="#DejaVuSans-121"/>
     </g>
    </g>
    <g id="line2d_20">
     <path d="M 145.866875 146.555625 
L 165.866875 146.555625 
" style="fill:none;stroke:#ff7f0e;stroke-dasharray:1.5,2.475;stroke-dashoffset:0;stroke-width:1.5;"/>
    </g>
    <g id="line2d_21"/>
    <g id="text_20">
     <!-- lancet -->
     <g transform="translate(173.866875 150.055625)scale(0.1 -0.1)">
      <use xlink:href="#DejaVuSans-108"/>
      <use x="27.783203" xlink:href="#DejaVuSans-97"/>
      <use x="89.0625" xlink:href="#DejaVuSans-110"/>
      <use x="152.441406" xlink:href="#DejaVuSans-99"/>
      <use x="207.421875" xlink:href="#DejaVuSans-101"/>
      <use x="268.945312" xlink:href="#DejaVuSans-116"/>
     </g>
    </g>
    <g id="line2d_22">
     <path d="M 145.866875 161.23375 
L 165.866875 161.23375 
" style="fill:none;stroke:#d62728;stroke-dasharray:1.5,2.475;stroke-dashoffset:0;stroke-width:1.5;"/>
    </g>
    <g id="line2d_23"/>
    <g id="text_21">
     <!-- strelka -->
     <g transform="translate(173.866875 164.73375)scale(0.1 -0.1)">
      <use xlink:href="#DejaVuSans-115"/>
      <use x="52.099609" xlink:href="#DejaVuSans-116"/>
      <use x="91.308594" xlink:href="#DejaVuSans-114"/>
      <use x="132.390625" xlink:href="#DejaVuSans-101"/>
      <use x="193.914062" xlink:href="#DejaVuSans-108"/>
      <use x="221.697266" xlink:href="#DejaVuSans-107"/>
      <use x="279.591797" xlink:href="#DejaVuSans-97"/>
     </g>
    </g>
    <g id="line2d_24">
     <path d="M 145.866875 175.911875 
L 165.866875 175.911875 
" style="fill:none;stroke:#2ca02c;stroke-dasharray:1.5,2.475;stroke-dashoffset:0;stroke-width:1.5;"/>
    </g>
    <g id="line2d_25"/>
    <g id="text_22">
     <!-- manta -->
     <g transform="translate(173.866875 179.411875)scale(0.1 -0.1)">
      <use xlink:href="#DejaVuSans-109"/>
      <use x="97.412109" xlink:href="#DejaVuSans-97"/>
      <use x="158.691406" xlink:href="#DejaVuSans-110"/>
      <use x="222.070312" xlink:href="#DejaVuSans-116"/>
      <use x="261.279297" xlink:href="#DejaVuSans-97"/>
     </g>
    </g>
    <g id="line2d_26">
     <path d="M 145.866875 190.59 
L 165.866875 190.59 
" style="fill:none;stroke:#9467bd;stroke-dasharray:1.5,2.475;stroke-dashoffset:0;stroke-width:1.5;"/>
    </g>
    <g id="line2d_27"/>
    <g id="text_23">
     <!-- bpi -->
     <defs>
      <path d="M 48.6875 27.296875 
Q 48.6875 37.203125 44.609375 42.84375 
Q 40.53125 48.484375 33.40625 48.484375 
Q 26.265625 48.484375 22.1875 42.84375 
Q 18.109375 37.203125 18.109375 27.296875 
Q 18.109375 17.390625 22.1875 11.75 
Q 26.265625 6.109375 33.40625 6.109375 
Q 40.53125 6.109375 44.609375 11.75 
Q 48.6875 17.390625 48.6875 27.296875 
z
M 18.109375 46.390625 
Q 20.953125 51.265625 25.265625 53.625 
Q 29.59375 56 35.59375 56 
Q 45.5625 56 51.78125 48.09375 
Q 58.015625 40.1875 58.015625 27.296875 
Q 58.015625 14.40625 51.78125 6.484375 
Q 45.5625 -1.421875 35.59375 -1.421875 
Q 29.59375 -1.421875 25.265625 0.953125 
Q 20.953125 3.328125 18.109375 8.203125 
L 18.109375 0 
L 9.078125 0 
L 9.078125 75.984375 
L 18.109375 75.984375 
z
" id="DejaVuSans-98"/>
     </defs>
     <g transform="translate(173.866875 194.09)scale(0.1 -0.1)">
      <use xlink:href="#DejaVuSans-98"/>
      <use x="63.476562" xlink:href="#DejaVuSans-112"/>
      <use x="126.953125" xlink:href="#DejaVuSans-105"/>
     </g>
    </g>
   </g>
  </g>
  <g id="axes_2">
   <g id="patch_10">
    <path d="M 325.56125 242.918125 
L 571.18125 242.918125 
L 571.18125 22.318125 
L 325.56125 22.318125 
z
" style="fill:#ffffff;"/>
   </g>
   <g id="PolyCollection_5">
    <defs>
     <path d="M 336.725795 -134.549175 
L 336.725795 -90.635826 
L 346.434081 -100.255796 
L 356.142389 -105.047991 
L 365.850768 -116.415557 
L 385.267291 -145.013008 
L 404.683815 -148.520172 
L 482.350376 -150.976144 
L 560.016705 -123.412224 
L 560.016705 -246.451173 
L 560.016705 -246.451173 
L 482.350376 -246.610964 
L 404.683815 -229.61251 
L 385.267291 -220.49161 
L 365.850768 -177.371885 
L 356.142389 -159.140029 
L 346.434081 -150.687383 
L 336.725795 -134.549175 
z
" id="m7f75b1525f" style="stroke:#1f77b4;stroke-opacity:0.6;"/>
    </defs>
    <g clip-path="url(#p26562ab8a3)">
     <use style="fill:#1f77b4;fill-opacity:0.6;stroke:#1f77b4;stroke-opacity:0.6;" x="0" xlink:href="#m7f75b1525f" y="280.474375"/>
    </g>
   </g>
   <g id="PolyCollection_6">
    <defs>
     <path d="M 336.725795 -159.734772 
L 336.725795 -113.453546 
L 346.434081 -123.608354 
L 356.142389 -128.612839 
L 365.850768 -136.518176 
L 385.267291 -151.302891 
L 404.683815 -152.321375 
L 482.350376 -152.494157 
L 560.016705 -123.412224 
L 560.016705 -246.451173 
L 560.016705 -246.451173 
L 482.350376 -248.128977 
L 404.683815 -234.680781 
L 385.267291 -228.878122 
L 365.850768 -198.447211 
L 356.142389 -184.847136 
L 346.434081 -176.275823 
L 336.725795 -159.734772 
z
" id="mc13a3caa8b" style="stroke:#ff7f0e;stroke-opacity:0.6;"/>
    </defs>
    <g clip-path="url(#p26562ab8a3)">
     <use style="fill:#ff7f0e;fill-opacity:0.6;stroke:#ff7f0e;stroke-opacity:0.6;" x="0" xlink:href="#mc13a3caa8b" y="280.474375"/>
    </g>
   </g>
   <g id="PolyCollection_7">
    <defs>
     <path d="M 336.725795 -96.232625 
L 336.725795 -71.047028 
L 346.434081 -78.145396 
L 356.142389 -82.28649 
L 365.850768 -89.828222 
L 385.267291 -113.039433 
L 404.683815 -118.744079 
L 482.350376 -138.83204 
L 560.016705 -117.260276 
L 560.016705 -240.299226 
L 560.016705 -240.299226 
L 482.350376 -228.394808 
L 404.683815 -177.662731 
L 385.267291 -163.358501 
L 365.850768 -125.818394 
L 356.142389 -113.617027 
L 346.434081 -107.211877 
L 336.725795 -96.232625 
z
" id="m790b42fde2" style="stroke:#2ca02c;stroke-opacity:0.6;"/>
    </defs>
    <g clip-path="url(#p26562ab8a3)">
     <use style="fill:#2ca02c;fill-opacity:0.6;stroke:#2ca02c;stroke-opacity:0.6;" x="0" xlink:href="#m790b42fde2" y="280.474375"/>
    </g>
   </g>
   <g id="PolyCollection_8">
    <defs>
     <path d="M 336.725795 -102.259947 
L 336.725795 -47.583523 
L 346.434081 -51.066367 
L 356.142389 -53.098212 
L 365.850768 -55.459228 
L 385.267291 -63.244522 
L 404.683815 -68.694902 
L 482.350376 -78.111519 
L 560.016705 -68.044696 
L 560.016705 -243.3752 
L 560.016705 -243.3752 
L 482.350376 -232.948847 
L 404.683815 -189.066341 
L 385.267291 -174.365798 
L 365.850768 -133.924289 
L 356.142389 -120.84715 
L 346.434081 -113.919527 
L 336.725795 -102.259947 
z
" id="mcf5f69d7bb" style="stroke:#d62728;stroke-opacity:0.6;"/>
    </defs>
    <g clip-path="url(#p26562ab8a3)">
     <use style="fill:#d62728;fill-opacity:0.6;stroke:#d62728;stroke-opacity:0.6;" x="0" xlink:href="#mcf5f69d7bb" y="280.474375"/>
    </g>
   </g>
   <g id="matplotlib.axis_3">
    <g id="xtick_7">
     <g id="line2d_28">
      <g>
       <use style="stroke:#000000;stroke-width:0.8;" x="327.017487" xlink:href="#m9989629fc0" y="242.918125"/>
      </g>
     </g>
     <g id="text_24">
      <!-- 0.0 -->
      <g transform="translate(319.065924 257.516563)scale(0.1 -0.1)">
       <use xlink:href="#DejaVuSans-48"/>
       <use x="63.623047" xlink:href="#DejaVuSans-46"/>
       <use x="95.410156" xlink:href="#DejaVuSans-48"/>
      </g>
     </g>
    </g>
    <g id="xtick_8">
     <g id="line2d_29">
      <g>
       <use style="stroke:#000000;stroke-width:0.8;" x="373.61733" xlink:href="#m9989629fc0" y="242.918125"/>
      </g>
     </g>
     <g id="text_25">
      <!-- 0.2 -->
      <g transform="translate(365.665768 257.516563)scale(0.1 -0.1)">
       <use xlink:href="#DejaVuSans-48"/>
       <use x="63.623047" xlink:href="#DejaVuSans-46"/>
       <use x="95.410156" xlink:href="#DejaVuSans-50"/>
      </g>
     </g>
    </g>
    <g id="xtick_9">
     <g id="line2d_30">
      <g>
       <use style="stroke:#000000;stroke-width:0.8;" x="420.217174" xlink:href="#m9989629fc0" y="242.918125"/>
      </g>
     </g>
     <g id="text_26">
      <!-- 0.4 -->
      <g transform="translate(412.265611 257.516563)scale(0.1 -0.1)">
       <use xlink:href="#DejaVuSans-48"/>
       <use x="63.623047" xlink:href="#DejaVuSans-46"/>
       <use x="95.410156" xlink:href="#DejaVuSans-52"/>
      </g>
     </g>
    </g>
    <g id="xtick_10">
     <g id="line2d_31">
      <g>
       <use style="stroke:#000000;stroke-width:0.8;" x="466.817018" xlink:href="#m9989629fc0" y="242.918125"/>
      </g>
     </g>
     <g id="text_27">
      <!-- 0.6 -->
      <g transform="translate(458.865455 257.516563)scale(0.1 -0.1)">
       <use xlink:href="#DejaVuSans-48"/>
       <use x="63.623047" xlink:href="#DejaVuSans-46"/>
       <use x="95.410156" xlink:href="#DejaVuSans-54"/>
      </g>
     </g>
    </g>
    <g id="xtick_11">
     <g id="line2d_32">
      <g>
       <use style="stroke:#000000;stroke-width:0.8;" x="513.416861" xlink:href="#m9989629fc0" y="242.918125"/>
      </g>
     </g>
     <g id="text_28">
      <!-- 0.8 -->
      <g transform="translate(505.465299 257.516563)scale(0.1 -0.1)">
       <use xlink:href="#DejaVuSans-48"/>
       <use x="63.623047" xlink:href="#DejaVuSans-46"/>
       <use x="95.410156" xlink:href="#DejaVuSans-56"/>
      </g>
     </g>
    </g>
    <g id="xtick_12">
     <g id="line2d_33">
      <g>
       <use style="stroke:#000000;stroke-width:0.8;" x="560.016705" xlink:href="#m9989629fc0" y="242.918125"/>
      </g>
     </g>
     <g id="text_29">
      <!-- 1.0 -->
      <g transform="translate(552.065142 257.516563)scale(0.1 -0.1)">
       <use xlink:href="#DejaVuSans-49"/>
       <use x="63.623047" xlink:href="#DejaVuSans-46"/>
       <use x="95.410156" xlink:href="#DejaVuSans-48"/>
      </g>
     </g>
    </g>
    <g id="text_30">
     <!-- allele frequency -->
     <g transform="translate(408.210312 271.194687)scale(0.1 -0.1)">
      <use xlink:href="#DejaVuSans-97"/>
      <use x="61.279297" xlink:href="#DejaVuSans-108"/>
      <use x="89.0625" xlink:href="#DejaVuSans-108"/>
      <use x="116.845703" xlink:href="#DejaVuSans-101"/>
      <use x="178.369141" xlink:href="#DejaVuSans-108"/>
      <use x="206.152344" xlink:href="#DejaVuSans-101"/>
      <use x="267.675781" xlink:href="#DejaVuSans-32"/>
      <use x="299.462891" xlink:href="#DejaVuSans-102"/>
      <use x="334.667969" xlink:href="#DejaVuSans-114"/>
      <use x="375.75" xlink:href="#DejaVuSans-101"/>
      <use x="437.273438" xlink:href="#DejaVuSans-113"/>
      <use x="500.75" xlink:href="#DejaVuSans-117"/>
      <use x="564.128906" xlink:href="#DejaVuSans-101"/>
      <use x="625.652344" xlink:href="#DejaVuSans-110"/>
      <use x="689.03125" xlink:href="#DejaVuSans-99"/>
      <use x="744.011719" xlink:href="#DejaVuSans-121"/>
     </g>
    </g>
   </g>
   <g id="matplotlib.axis_4">
    <g id="ytick_6">
     <g id="line2d_34">
      <g>
       <use style="stroke:#000000;stroke-width:0.8;" x="325.56125" xlink:href="#mc712086c39" y="208.73851"/>
      </g>
     </g>
     <g id="text_31">
      <!-- 0.2 -->
      <g transform="translate(302.658125 212.537729)scale(0.1 -0.1)">
       <use xlink:href="#DejaVuSans-48"/>
       <use x="63.623047" xlink:href="#DejaVuSans-46"/>
       <use x="95.410156" xlink:href="#DejaVuSans-50"/>
      </g>
     </g>
    </g>
    <g id="ytick_7">
     <g id="line2d_35">
      <g>
       <use style="stroke:#000000;stroke-width:0.8;" x="325.56125" xlink:href="#mc712086c39" y="161.983709"/>
      </g>
     </g>
     <g id="text_32">
      <!-- 0.4 -->
      <g transform="translate(302.658125 165.782928)scale(0.1 -0.1)">
       <use xlink:href="#DejaVuSans-48"/>
       <use x="63.623047" xlink:href="#DejaVuSans-46"/>
       <use x="95.410156" xlink:href="#DejaVuSans-52"/>
      </g>
     </g>
    </g>
    <g id="ytick_8">
     <g id="line2d_36">
      <g>
       <use style="stroke:#000000;stroke-width:0.8;" x="325.56125" xlink:href="#mc712086c39" y="115.228908"/>
      </g>
     </g>
     <g id="text_33">
      <!-- 0.6 -->
      <g transform="translate(302.658125 119.028127)scale(0.1 -0.1)">
       <use xlink:href="#DejaVuSans-48"/>
       <use x="63.623047" xlink:href="#DejaVuSans-46"/>
       <use x="95.410156" xlink:href="#DejaVuSans-54"/>
      </g>
     </g>
    </g>
    <g id="ytick_9">
     <g id="line2d_37">
      <g>
       <use style="stroke:#000000;stroke-width:0.8;" x="325.56125" xlink:href="#mc712086c39" y="68.474108"/>
      </g>
     </g>
     <g id="text_34">
      <!-- 0.8 -->
      <g transform="translate(302.658125 72.273326)scale(0.1 -0.1)">
       <use xlink:href="#DejaVuSans-48"/>
       <use x="63.623047" xlink:href="#DejaVuSans-46"/>
       <use x="95.410156" xlink:href="#DejaVuSans-56"/>
      </g>
     </g>
    </g>
   </g>
   <g id="line2d_38">
    <path clip-path="url(#p26562ab8a3)" d="M 336.725795 175.200766 
L 346.434081 162.828376 
L 356.142389 155.610489 
L 365.850768 137.471484 
L 385.267291 82.521514 
L 404.683815 68.600814 
L 482.350376 38.41745 
L 560.016705 40.175149 
" style="fill:none;stroke:#ffffff;stroke-linecap:square;stroke-opacity:0.8;stroke-width:1.5;"/>
   </g>
   <g id="line2d_39">
    <path clip-path="url(#p26562ab8a3)" d="M 336.725795 175.200766 
L 346.434081 162.828376 
L 356.142389 155.610489 
L 365.850768 137.471484 
L 385.267291 82.521514 
L 404.683815 68.600814 
L 482.350376 38.41745 
L 560.016705 40.175149 
" style="fill:none;stroke:#1f77b4;stroke-dasharray:1.5,2.475;stroke-dashoffset:0;stroke-width:1.5;"/>
   </g>
   <g id="line2d_40">
    <path clip-path="url(#p26562ab8a3)" d="M 336.725795 164.652952 
L 346.434081 151.400529 
L 356.142389 143.828065 
L 365.850768 131.635239 
L 385.267291 100.342851 
L 404.683815 93.94217 
L 482.350376 61.187645 
L 560.016705 52.479044 
" style="fill:none;stroke:#ffffff;stroke-linecap:square;stroke-opacity:0.8;stroke-width:1.5;"/>
   </g>
   <g id="line2d_41">
    <path clip-path="url(#p26562ab8a3)" d="M 336.725795 164.652952 
L 346.434081 151.400529 
L 356.142389 143.828065 
L 365.850768 131.635239 
L 385.267291 100.342851 
L 404.683815 93.94217 
L 482.350376 61.187645 
L 560.016705 52.479044 
" style="fill:none;stroke:#ff7f0e;stroke-dasharray:1.5,2.475;stroke-dashoffset:0;stroke-width:1.5;"/>
   </g>
   <g id="line2d_42">
    <path clip-path="url(#p26562ab8a3)" d="M 336.725795 177.353382 
L 346.434081 165.561122 
L 356.142389 158.556095 
L 365.850768 144.604671 
L 385.267291 105.060263 
L 404.683815 90.140967 
L 482.350376 47.525528 
L 560.016705 37.099175 
" style="fill:none;stroke:#ffffff;stroke-linecap:square;stroke-opacity:0.8;stroke-width:1.5;"/>
   </g>
   <g id="line2d_43">
    <path clip-path="url(#p26562ab8a3)" d="M 336.725795 177.353382 
L 346.434081 165.561122 
L 356.142389 158.556095 
L 365.850768 144.604671 
L 385.267291 105.060263 
L 404.683815 90.140967 
L 482.350376 47.525528 
L 560.016705 37.099175 
" style="fill:none;stroke:#d62728;stroke-dasharray:1.5,2.475;stroke-dashoffset:0;stroke-width:1.5;"/>
   </g>
   <g id="patch_11">
    <path d="M 325.56125 242.918125 
L 325.56125 22.318125 
" style="fill:none;stroke:#000000;stroke-linecap:square;stroke-linejoin:miter;stroke-width:0.8;"/>
   </g>
   <g id="patch_12">
    <path d="M 325.56125 242.918125 
L 571.18125 242.918125 
" style="fill:none;stroke:#000000;stroke-linecap:square;stroke-linejoin:miter;stroke-width:0.8;"/>
   </g>
   <g id="text_35">
    <!-- 30 - 50 -->
    <defs>
     <path d="M 10.796875 72.90625 
L 49.515625 72.90625 
L 49.515625 64.59375 
L 19.828125 64.59375 
L 19.828125 46.734375 
Q 21.96875 47.46875 24.109375 47.828125 
Q 26.265625 48.1875 28.421875 48.1875 
Q 40.625 48.1875 47.75 41.5 
Q 54.890625 34.8125 54.890625 23.390625 
Q 54.890625 11.625 47.5625 5.09375 
Q 40.234375 -1.421875 26.90625 -1.421875 
Q 22.3125 -1.421875 17.546875 -0.640625 
Q 12.796875 0.140625 7.71875 1.703125 
L 7.71875 11.625 
Q 12.109375 9.234375 16.796875 8.0625 
Q 21.484375 6.890625 26.703125 6.890625 
Q 35.15625 6.890625 40.078125 11.328125 
Q 45.015625 15.765625 45.015625 23.390625 
Q 45.015625 31 40.078125 35.4375 
Q 35.15625 39.890625 26.703125 39.890625 
Q 22.75 39.890625 18.8125 39.015625 
Q 14.890625 38.140625 10.796875 36.28125 
z
" id="DejaVuSans-53"/>
    </defs>
    <g transform="translate(427.122812 16.318125)scale(0.12 -0.12)">
     <use xlink:href="#DejaVuSans-51"/>
     <use x="63.623047" xlink:href="#DejaVuSans-48"/>
     <use x="127.246094" xlink:href="#DejaVuSans-32"/>
     <use x="159.033203" xlink:href="#DejaVuSans-45"/>
     <use x="195.117188" xlink:href="#DejaVuSans-32"/>
     <use x="226.904297" xlink:href="#DejaVuSans-53"/>
     <use x="290.527344" xlink:href="#DejaVuSans-48"/>
    </g>
   </g>
  </g>
  <g id="axes_3">
   <g id="patch_13">
    <path d="M 607.34125 242.918125 
L 852.96125 242.918125 
L 852.96125 22.318125 
L 607.34125 22.318125 
z
" style="fill:#ffffff;"/>
   </g>
   <g id="PolyCollection_9">
    <defs>
     <path d="M 618.505795 -161.011717 
L 618.505795 -47.583523 
L 628.214081 -47.583523 
L 637.922389 -47.583523 
L 647.630768 -47.583523 
L 667.047291 -47.583523 
L 686.463815 -47.583523 
L 764.130376 -47.583523 
L 841.796705 -47.583523 
L 841.796705 -248.128977 
L 841.796705 -248.128977 
L 764.130376 -244.834689 
L 686.463815 -227.840981 
L 667.047291 -220.578254 
L 647.630768 -199.341265 
L 637.922389 -183.90471 
L 628.214081 -175.974226 
L 618.505795 -161.011717 
z
" id="m32570f8e17" style="stroke:#1f77b4;stroke-opacity:0.6;"/>
    </defs>
    <g clip-path="url(#p49b8be2c0b)">
     <use style="fill:#1f77b4;fill-opacity:0.6;stroke:#1f77b4;stroke-opacity:0.6;" x="0" xlink:href="#m32570f8e17" y="280.474375"/>
    </g>
   </g>
   <g id="PolyCollection_10">
    <defs>
     <path d="M 618.505795 -167.176293 
L 618.505795 -47.583523 
L 628.214081 -47.583523 
L 637.922389 -47.583523 
L 647.630768 -47.583523 
L 667.047291 -47.583523 
L 686.463815 -47.583523 
L 764.130376 -47.583523 
L 841.796705 -47.583523 
L 841.796705 -248.128977 
L 841.796705 -248.128977 
L 764.130376 -242.713708 
L 686.463815 -226.099363 
L 667.047291 -222.786698 
L 647.630768 -203.042673 
L 637.922389 -189.250639 
L 628.214081 -181.954066 
L 618.505795 -167.176293 
z
" id="m89d7f188e0" style="stroke:#ff7f0e;stroke-opacity:0.6;"/>
    </defs>
    <g clip-path="url(#p49b8be2c0b)">
     <use style="fill:#ff7f0e;fill-opacity:0.6;stroke:#ff7f0e;stroke-opacity:0.6;" x="0" xlink:href="#m89d7f188e0" y="280.474375"/>
    </g>
   </g>
   <g id="PolyCollection_11">
    <defs>
     <path d="M 618.505795 -100.907103 
L 618.505795 -47.583523 
L 628.214081 -47.583523 
L 637.922389 -47.583523 
L 647.630768 -47.583523 
L 667.047291 -47.583523 
L 686.463815 -47.583523 
L 764.130376 -47.583523 
L 841.796705 -47.583523 
L 841.796705 -243.571126 
L 841.796705 -243.571126 
L 764.130376 -217.261945 
L 686.463815 -163.401117 
L 667.047291 -154.324953 
L 647.630768 -124.850422 
L 637.922389 -113.262078 
L 628.214081 -108.085443 
L 618.505795 -100.907103 
z
" id="m8647e879d0" style="stroke:#2ca02c;stroke-opacity:0.6;"/>
    </defs>
    <g clip-path="url(#p49b8be2c0b)">
     <use style="fill:#2ca02c;fill-opacity:0.6;stroke:#2ca02c;stroke-opacity:0.6;" x="0" xlink:href="#m8647e879d0" y="280.474375"/>
    </g>
   </g>
   <g id="PolyCollection_12">
    <defs>
     <path d="M 618.505795 -50.974039 
L 618.505795 -47.583523 
L 628.214081 -47.583523 
L 637.922389 -47.583523 
L 647.630768 -47.583523 
L 667.047291 -47.583523 
L 686.463815 -47.583523 
L 764.130376 -47.583523 
L 841.796705 -47.583523 
L 841.796705 -52.141374 
L 841.796705 -52.141374 
L 764.130376 -56.067444 
L 686.463815 -53.679186 
L 667.047291 -52.736557 
L 647.630768 -52.672959 
L 637.922389 -51.783895 
L 628.214081 -51.452832 
L 618.505795 -50.974039 
z
" id="me0c98f8f12" style="stroke:#d62728;stroke-opacity:0.6;"/>
    </defs>
    <g clip-path="url(#p49b8be2c0b)">
     <use style="fill:#d62728;fill-opacity:0.6;stroke:#d62728;stroke-opacity:0.6;" x="0" xlink:href="#me0c98f8f12" y="280.474375"/>
    </g>
   </g>
   <g id="matplotlib.axis_5">
    <g id="xtick_13">
     <g id="line2d_44">
      <g>
       <use style="stroke:#000000;stroke-width:0.8;" x="608.797487" xlink:href="#m9989629fc0" y="242.918125"/>
      </g>
     </g>
     <g id="text_36">
      <!-- 0.0 -->
      <g transform="translate(600.845924 257.516563)scale(0.1 -0.1)">
       <use xlink:href="#DejaVuSans-48"/>
       <use x="63.623047" xlink:href="#DejaVuSans-46"/>
       <use x="95.410156" xlink:href="#DejaVuSans-48"/>
      </g>
     </g>
    </g>
    <g id="xtick_14">
     <g id="line2d_45">
      <g>
       <use style="stroke:#000000;stroke-width:0.8;" x="655.39733" xlink:href="#m9989629fc0" y="242.918125"/>
      </g>
     </g>
     <g id="text_37">
      <!-- 0.2 -->
      <g transform="translate(647.445768 257.516563)scale(0.1 -0.1)">
       <use xlink:href="#DejaVuSans-48"/>
       <use x="63.623047" xlink:href="#DejaVuSans-46"/>
       <use x="95.410156" xlink:href="#DejaVuSans-50"/>
      </g>
     </g>
    </g>
    <g id="xtick_15">
     <g id="line2d_46">
      <g>
       <use style="stroke:#000000;stroke-width:0.8;" x="701.997174" xlink:href="#m9989629fc0" y="242.918125"/>
      </g>
     </g>
     <g id="text_38">
      <!-- 0.4 -->
      <g transform="translate(694.045611 257.516563)scale(0.1 -0.1)">
       <use xlink:href="#DejaVuSans-48"/>
       <use x="63.623047" xlink:href="#DejaVuSans-46"/>
       <use x="95.410156" xlink:href="#DejaVuSans-52"/>
      </g>
     </g>
    </g>
    <g id="xtick_16">
     <g id="line2d_47">
      <g>
       <use style="stroke:#000000;stroke-width:0.8;" x="748.597018" xlink:href="#m9989629fc0" y="242.918125"/>
      </g>
     </g>
     <g id="text_39">
      <!-- 0.6 -->
      <g transform="translate(740.645455 257.516563)scale(0.1 -0.1)">
       <use xlink:href="#DejaVuSans-48"/>
       <use x="63.623047" xlink:href="#DejaVuSans-46"/>
       <use x="95.410156" xlink:href="#DejaVuSans-54"/>
      </g>
     </g>
    </g>
    <g id="xtick_17">
     <g id="line2d_48">
      <g>
       <use style="stroke:#000000;stroke-width:0.8;" x="795.196861" xlink:href="#m9989629fc0" y="242.918125"/>
      </g>
     </g>
     <g id="text_40">
      <!-- 0.8 -->
      <g transform="translate(787.245299 257.516563)scale(0.1 -0.1)">
       <use xlink:href="#DejaVuSans-48"/>
       <use x="63.623047" xlink:href="#DejaVuSans-46"/>
       <use x="95.410156" xlink:href="#DejaVuSans-56"/>
      </g>
     </g>
    </g>
    <g id="xtick_18">
     <g id="line2d_49">
      <g>
       <use style="stroke:#000000;stroke-width:0.8;" x="841.796705" xlink:href="#m9989629fc0" y="242.918125"/>
      </g>
     </g>
     <g id="text_41">
      <!-- 1.0 -->
      <g transform="translate(833.845142 257.516563)scale(0.1 -0.1)">
       <use xlink:href="#DejaVuSans-49"/>
       <use x="63.623047" xlink:href="#DejaVuSans-46"/>
       <use x="95.410156" xlink:href="#DejaVuSans-48"/>
      </g>
     </g>
    </g>
    <g id="text_42">
     <!-- allele frequency -->
     <g transform="translate(689.990312 271.194687)scale(0.1 -0.1)">
      <use xlink:href="#DejaVuSans-97"/>
      <use x="61.279297" xlink:href="#DejaVuSans-108"/>
      <use x="89.0625" xlink:href="#DejaVuSans-108"/>
      <use x="116.845703" xlink:href="#DejaVuSans-101"/>
      <use x="178.369141" xlink:href="#DejaVuSans-108"/>
      <use x="206.152344" xlink:href="#DejaVuSans-101"/>
      <use x="267.675781" xlink:href="#DejaVuSans-32"/>
      <use x="299.462891" xlink:href="#DejaVuSans-102"/>
      <use x="334.667969" xlink:href="#DejaVuSans-114"/>
      <use x="375.75" xlink:href="#DejaVuSans-101"/>
      <use x="437.273438" xlink:href="#DejaVuSans-113"/>
      <use x="500.75" xlink:href="#DejaVuSans-117"/>
      <use x="564.128906" xlink:href="#DejaVuSans-101"/>
      <use x="625.652344" xlink:href="#DejaVuSans-110"/>
      <use x="689.03125" xlink:href="#DejaVuSans-99"/>
      <use x="744.011719" xlink:href="#DejaVuSans-121"/>
     </g>
    </g>
   </g>
   <g id="matplotlib.axis_6">
    <g id="ytick_10">
     <g id="line2d_50">
      <g>
       <use style="stroke:#000000;stroke-width:0.8;" x="607.34125" xlink:href="#mc712086c39" y="232.890852"/>
      </g>
     </g>
     <g id="text_43">
      <!-- 0.0 -->
      <g transform="translate(584.438125 236.690071)scale(0.1 -0.1)">
       <use xlink:href="#DejaVuSans-48"/>
       <use x="63.623047" xlink:href="#DejaVuSans-46"/>
       <use x="95.410156" xlink:href="#DejaVuSans-48"/>
      </g>
     </g>
    </g>
    <g id="ytick_11">
     <g id="line2d_51">
      <g>
       <use style="stroke:#000000;stroke-width:0.8;" x="607.34125" xlink:href="#mc712086c39" y="190.047051"/>
      </g>
     </g>
     <g id="text_44">
      <!-- 0.2 -->
      <g transform="translate(584.438125 193.846269)scale(0.1 -0.1)">
       <use xlink:href="#DejaVuSans-48"/>
       <use x="63.623047" xlink:href="#DejaVuSans-46"/>
       <use x="95.410156" xlink:href="#DejaVuSans-50"/>
      </g>
     </g>
    </g>
    <g id="ytick_12">
     <g id="line2d_52">
      <g>
       <use style="stroke:#000000;stroke-width:0.8;" x="607.34125" xlink:href="#mc712086c39" y="147.203249"/>
      </g>
     </g>
     <g id="text_45">
      <!-- 0.4 -->
      <g transform="translate(584.438125 151.002468)scale(0.1 -0.1)">
       <use xlink:href="#DejaVuSans-48"/>
       <use x="63.623047" xlink:href="#DejaVuSans-46"/>
       <use x="95.410156" xlink:href="#DejaVuSans-52"/>
      </g>
     </g>
    </g>
    <g id="ytick_13">
     <g id="line2d_53">
      <g>
       <use style="stroke:#000000;stroke-width:0.8;" x="607.34125" xlink:href="#mc712086c39" y="104.359447"/>
      </g>
     </g>
     <g id="text_46">
      <!-- 0.6 -->
      <g transform="translate(584.438125 108.158666)scale(0.1 -0.1)">
       <use xlink:href="#DejaVuSans-48"/>
       <use x="63.623047" xlink:href="#DejaVuSans-46"/>
       <use x="95.410156" xlink:href="#DejaVuSans-54"/>
      </g>
     </g>
    </g>
    <g id="ytick_14">
     <g id="line2d_54">
      <g>
       <use style="stroke:#000000;stroke-width:0.8;" x="607.34125" xlink:href="#mc712086c39" y="61.515646"/>
      </g>
     </g>
     <g id="text_47">
      <!-- 0.8 -->
      <g transform="translate(584.438125 65.314864)scale(0.1 -0.1)">
       <use xlink:href="#DejaVuSans-48"/>
       <use x="63.623047" xlink:href="#DejaVuSans-46"/>
       <use x="95.410156" xlink:href="#DejaVuSans-56"/>
      </g>
     </g>
    </g>
   </g>
   <g id="line2d_55">
    <path clip-path="url(#p49b8be2c0b)" d="M 618.505795 164.77229 
L 628.214081 155.15292 
L 637.922389 148.501546 
L 647.630768 132.027475 
L 667.047291 89.342032 
L 686.463815 77.016045 
L 764.130376 37.760667 
L 841.796705 32.345398 
" style="fill:none;stroke:#ffffff;stroke-linecap:square;stroke-opacity:0.8;stroke-width:1.5;"/>
   </g>
   <g id="line2d_56">
    <path clip-path="url(#p49b8be2c0b)" d="M 618.505795 164.77229 
L 628.214081 155.15292 
L 637.922389 148.501546 
L 647.630768 132.027475 
L 667.047291 89.342032 
L 686.463815 77.016045 
L 764.130376 37.760667 
L 841.796705 32.345398 
" style="fill:none;stroke:#1f77b4;stroke-dasharray:1.5,2.475;stroke-dashoffset:0;stroke-width:1.5;"/>
   </g>
   <g id="line2d_57">
    <path clip-path="url(#p49b8be2c0b)" d="M 618.505795 149.977308 
L 628.214081 138.972174 
L 637.922389 133.227463 
L 647.630768 119.072546 
L 667.047291 93.022771 
L 686.463815 84.853326 
L 764.130376 58.970469 
L 841.796705 55.134654 
" style="fill:none;stroke:#ffffff;stroke-linecap:square;stroke-opacity:0.8;stroke-width:1.5;"/>
   </g>
   <g id="line2d_58">
    <path clip-path="url(#p49b8be2c0b)" d="M 618.505795 149.977308 
L 628.214081 138.972174 
L 637.922389 133.227463 
L 647.630768 119.072546 
L 667.047291 93.022771 
L 686.463815 84.853326 
L 764.130376 58.970469 
L 841.796705 55.134654 
" style="fill:none;stroke:#ff7f0e;stroke-dasharray:1.5,2.475;stroke-dashoffset:0;stroke-width:1.5;"/>
   </g>
   <g id="line2d_59">
    <path clip-path="url(#p49b8be2c0b)" d="M 618.505795 218.404099 
L 628.214081 216.358351 
L 637.922389 214.943805 
L 647.630768 211.145078 
L 667.047291 199.028054 
L 686.463815 192.833639 
L 764.130376 139.56772 
L 841.796705 105.271018 
" style="fill:none;stroke:#ffffff;stroke-linecap:square;stroke-opacity:0.8;stroke-width:1.5;"/>
   </g>
   <g id="line2d_60">
    <path clip-path="url(#p49b8be2c0b)" d="M 618.505795 218.404099 
L 628.214081 216.358351 
L 637.922389 214.943805 
L 647.630768 211.145078 
L 667.047291 199.028054 
L 686.463815 192.833639 
L 764.130376 139.56772 
L 841.796705 105.271018 
" style="fill:none;stroke:#2ca02c;stroke-dasharray:1.5,2.475;stroke-dashoffset:0;stroke-width:1.5;"/>
   </g>
   <g id="line2d_61">
    <path clip-path="url(#p49b8be2c0b)" d="M 618.505795 219.020557 
L 628.214081 217.061862 
L 637.922389 215.707509 
L 647.630768 212.07043 
L 667.047291 200.500349 
L 686.463815 194.575257 
L 764.130376 143.809681 
L 841.796705 114.38672 
" style="fill:none;stroke:#ffffff;stroke-linecap:square;stroke-opacity:0.8;stroke-width:1.5;"/>
   </g>
   <g id="line2d_62">
    <path clip-path="url(#p49b8be2c0b)" d="M 618.505795 219.020557 
L 628.214081 217.061862 
L 637.922389 215.707509 
L 647.630768 212.07043 
L 667.047291 200.500349 
L 686.463815 194.575257 
L 764.130376 143.809681 
L 841.796705 114.38672 
" style="fill:none;stroke:#9467bd;stroke-dasharray:1.5,2.475;stroke-dashoffset:0;stroke-width:1.5;"/>
   </g>
   <g id="patch_14">
    <path d="M 607.34125 242.918125 
L 607.34125 22.318125 
" style="fill:none;stroke:#000000;stroke-linecap:square;stroke-linejoin:miter;stroke-width:0.8;"/>
   </g>
   <g id="patch_15">
    <path d="M 607.34125 242.918125 
L 852.96125 242.918125 
" style="fill:none;stroke:#000000;stroke-linecap:square;stroke-linejoin:miter;stroke-width:0.8;"/>
   </g>
   <g id="text_48">
    <!-- 50 - 100 -->
    <g transform="translate(705.085312 16.318125)scale(0.12 -0.12)">
     <use xlink:href="#DejaVuSans-53"/>
     <use x="63.623047" xlink:href="#DejaVuSans-48"/>
     <use x="127.246094" xlink:href="#DejaVuSans-32"/>
     <use x="159.033203" xlink:href="#DejaVuSans-45"/>
     <use x="195.117188" xlink:href="#DejaVuSans-32"/>
     <use x="226.904297" xlink:href="#DejaVuSans-49"/>
     <use x="290.527344" xlink:href="#DejaVuSans-48"/>
     <use x="354.150391" xlink:href="#DejaVuSans-48"/>
    </g>
   </g>
  </g>
  <g id="axes_4">
   <g id="patch_16">
    <path d="M 889.12125 242.918125 
L 1134.74125 242.918125 
L 1134.74125 22.318125 
L 889.12125 22.318125 
z
" style="fill:#ffffff;"/>
   </g>
   <g id="PolyCollection_13">
    <defs>
     <path d="M 900.285795 -155.432045 
L 900.285795 -47.583523 
L 909.994081 -47.583523 
L 919.702389 -47.583523 
L 929.410768 -47.583523 
L 948.827291 -47.583523 
L 968.243815 -47.583523 
L 1045.910376 -47.583523 
L 1123.576705 -47.583523 
L 1123.576705 -242.230582 
L 1123.576705 -242.230582 
L 1045.910376 -227.31111 
L 968.243815 -220.242258 
L 948.827291 -216.781324 
L 929.410768 -188.194943 
L 919.702389 -176.515314 
L 909.994081 -171.449833 
L 900.285795 -155.432045 
z
" id="m543fdf2f2c" style="stroke:#1f77b4;stroke-opacity:0.6;"/>
    </defs>
    <g clip-path="url(#p1e5c485f93)">
     <use style="fill:#1f77b4;fill-opacity:0.6;stroke:#1f77b4;stroke-opacity:0.6;" x="0" xlink:href="#m543fdf2f2c" y="280.474375"/>
    </g>
   </g>
   <g id="PolyCollection_14">
    <defs>
     <path d="M 900.285795 -162.554117 
L 900.285795 -47.583523 
L 909.994081 -47.583523 
L 919.702389 -47.583523 
L 929.410768 -47.583523 
L 948.827291 -47.583523 
L 968.243815 -47.583523 
L 1045.910376 -47.583523 
L 1123.576705 -47.583523 
L 1123.576705 -242.230582 
L 1123.576705 -242.230582 
L 1045.910376 -227.31111 
L 968.243815 -214.717179 
L 948.827291 -213.103111 
L 929.410768 -193.321401 
L 919.702389 -181.546798 
L 909.994081 -177.348229 
L 900.285795 -162.554117 
z
" id="mda56851d4c" style="stroke:#ff7f0e;stroke-opacity:0.6;"/>
    </defs>
    <g clip-path="url(#p1e5c485f93)">
     <use style="fill:#ff7f0e;fill-opacity:0.6;stroke:#ff7f0e;stroke-opacity:0.6;" x="0" xlink:href="#mda56851d4c" y="280.474375"/>
    </g>
   </g>
   <g id="PolyCollection_15">
    <defs>
     <path d="M 900.285795 -104.051381 
L 900.285795 -47.583523 
L 909.994081 -47.583523 
L 919.702389 -47.583523 
L 929.410768 -47.583523 
L 948.827291 -47.583523 
L 968.243815 -47.583523 
L 1045.910376 -47.583523 
L 1123.576705 -47.583523 
L 1123.576705 -224.535394 
L 1123.576705 -224.535394 
L 1045.910376 -214.473425 
L 968.243815 -167.754003 
L 948.827291 -159.155986 
L 929.410768 -128.142149 
L 919.702389 -116.766435 
L 909.994081 -113.055715 
L 900.285795 -104.051381 
z
" id="m581532c8a8" style="stroke:#2ca02c;stroke-opacity:0.6;"/>
    </defs>
    <g clip-path="url(#p1e5c485f93)">
     <use style="fill:#2ca02c;fill-opacity:0.6;stroke:#2ca02c;stroke-opacity:0.6;" x="0" xlink:href="#m581532c8a8" y="280.474375"/>
    </g>
   </g>
   <g id="matplotlib.axis_7">
    <g id="xtick_19">
     <g id="line2d_63">
      <g>
       <use style="stroke:#000000;stroke-width:0.8;" x="890.577487" xlink:href="#m9989629fc0" y="242.918125"/>
      </g>
     </g>
     <g id="text_49">
      <!-- 0.0 -->
      <g transform="translate(882.625924 257.516563)scale(0.1 -0.1)">
       <use xlink:href="#DejaVuSans-48"/>
       <use x="63.623047" xlink:href="#DejaVuSans-46"/>
       <use x="95.410156" xlink:href="#DejaVuSans-48"/>
      </g>
     </g>
    </g>
    <g id="xtick_20">
     <g id="line2d_64">
      <g>
       <use style="stroke:#000000;stroke-width:0.8;" x="937.17733" xlink:href="#m9989629fc0" y="242.918125"/>
      </g>
     </g>
     <g id="text_50">
      <!-- 0.2 -->
      <g transform="translate(929.225768 257.516563)scale(0.1 -0.1)">
       <use xlink:href="#DejaVuSans-48"/>
       <use x="63.623047" xlink:href="#DejaVuSans-46"/>
       <use x="95.410156" xlink:href="#DejaVuSans-50"/>
      </g>
     </g>
    </g>
    <g id="xtick_21">
     <g id="line2d_65">
      <g>
       <use style="stroke:#000000;stroke-width:0.8;" x="983.777174" xlink:href="#m9989629fc0" y="242.918125"/>
      </g>
     </g>
     <g id="text_51">
      <!-- 0.4 -->
      <g transform="translate(975.825611 257.516563)scale(0.1 -0.1)">
       <use xlink:href="#DejaVuSans-48"/>
       <use x="63.623047" xlink:href="#DejaVuSans-46"/>
       <use x="95.410156" xlink:href="#DejaVuSans-52"/>
      </g>
     </g>
    </g>
    <g id="xtick_22">
     <g id="line2d_66">
      <g>
       <use style="stroke:#000000;stroke-width:0.8;" x="1030.377018" xlink:href="#m9989629fc0" y="242.918125"/>
      </g>
     </g>
     <g id="text_52">
      <!-- 0.6 -->
      <g transform="translate(1022.425455 257.516563)scale(0.1 -0.1)">
       <use xlink:href="#DejaVuSans-48"/>
       <use x="63.623047" xlink:href="#DejaVuSans-46"/>
       <use x="95.410156" xlink:href="#DejaVuSans-54"/>
      </g>
     </g>
    </g>
    <g id="xtick_23">
     <g id="line2d_67">
      <g>
       <use style="stroke:#000000;stroke-width:0.8;" x="1076.976861" xlink:href="#m9989629fc0" y="242.918125"/>
      </g>
     </g>
     <g id="text_53">
      <!-- 0.8 -->
      <g transform="translate(1069.025299 257.516563)scale(0.1 -0.1)">
       <use xlink:href="#DejaVuSans-48"/>
       <use x="63.623047" xlink:href="#DejaVuSans-46"/>
       <use x="95.410156" xlink:href="#DejaVuSans-56"/>
      </g>
     </g>
    </g>
    <g id="xtick_24">
     <g id="line2d_68">
      <g>
       <use style="stroke:#000000;stroke-width:0.8;" x="1123.576705" xlink:href="#m9989629fc0" y="242.918125"/>
      </g>
     </g>
     <g id="text_54">
      <!-- 1.0 -->
      <g transform="translate(1115.625142 257.516563)scale(0.1 -0.1)">
       <use xlink:href="#DejaVuSans-49"/>
       <use x="63.623047" xlink:href="#DejaVuSans-46"/>
       <use x="95.410156" xlink:href="#DejaVuSans-48"/>
      </g>
     </g>
    </g>
    <g id="text_55">
     <!-- allele frequency -->
     <g transform="translate(971.770312 271.194687)scale(0.1 -0.1)">
      <use xlink:href="#DejaVuSans-97"/>
      <use x="61.279297" xlink:href="#DejaVuSans-108"/>
      <use x="89.0625" xlink:href="#DejaVuSans-108"/>
      <use x="116.845703" xlink:href="#DejaVuSans-101"/>
      <use x="178.369141" xlink:href="#DejaVuSans-108"/>
      <use x="206.152344" xlink:href="#DejaVuSans-101"/>
      <use x="267.675781" xlink:href="#DejaVuSans-32"/>
      <use x="299.462891" xlink:href="#DejaVuSans-102"/>
      <use x="334.667969" xlink:href="#DejaVuSans-114"/>
      <use x="375.75" xlink:href="#DejaVuSans-101"/>
      <use x="437.273438" xlink:href="#DejaVuSans-113"/>
      <use x="500.75" xlink:href="#DejaVuSans-117"/>
      <use x="564.128906" xlink:href="#DejaVuSans-101"/>
      <use x="625.652344" xlink:href="#DejaVuSans-110"/>
      <use x="689.03125" xlink:href="#DejaVuSans-99"/>
      <use x="744.011719" xlink:href="#DejaVuSans-121"/>
     </g>
    </g>
   </g>
   <g id="matplotlib.axis_8">
    <g id="ytick_15">
     <g id="line2d_69">
      <g>
       <use style="stroke:#000000;stroke-width:0.8;" x="889.12125" xlink:href="#mc712086c39" y="232.890852"/>
      </g>
     </g>
     <g id="text_56">
      <!-- 0.0 -->
      <g transform="translate(866.218125 236.690071)scale(0.1 -0.1)">
       <use xlink:href="#DejaVuSans-48"/>
       <use x="63.623047" xlink:href="#DejaVuSans-46"/>
       <use x="95.410156" xlink:href="#DejaVuSans-48"/>
      </g>
     </g>
    </g>
    <g id="ytick_16">
     <g id="line2d_70">
      <g>
       <use style="stroke:#000000;stroke-width:0.8;" x="889.12125" xlink:href="#mc712086c39" y="189.242724"/>
      </g>
     </g>
     <g id="text_57">
      <!-- 0.2 -->
      <g transform="translate(866.218125 193.041943)scale(0.1 -0.1)">
       <use xlink:href="#DejaVuSans-48"/>
       <use x="63.623047" xlink:href="#DejaVuSans-46"/>
       <use x="95.410156" xlink:href="#DejaVuSans-50"/>
      </g>
     </g>
    </g>
    <g id="ytick_17">
     <g id="line2d_71">
      <g>
       <use style="stroke:#000000;stroke-width:0.8;" x="889.12125" xlink:href="#mc712086c39" y="145.594596"/>
      </g>
     </g>
     <g id="text_58">
      <!-- 0.4 -->
      <g transform="translate(866.218125 149.393814)scale(0.1 -0.1)">
       <use xlink:href="#DejaVuSans-48"/>
       <use x="63.623047" xlink:href="#DejaVuSans-46"/>
       <use x="95.410156" xlink:href="#DejaVuSans-52"/>
      </g>
     </g>
    </g>
    <g id="ytick_18">
     <g id="line2d_72">
      <g>
       <use style="stroke:#000000;stroke-width:0.8;" x="889.12125" xlink:href="#mc712086c39" y="101.946467"/>
      </g>
     </g>
     <g id="text_59">
      <!-- 0.6 -->
      <g transform="translate(866.218125 105.745686)scale(0.1 -0.1)">
       <use xlink:href="#DejaVuSans-48"/>
       <use x="63.623047" xlink:href="#DejaVuSans-46"/>
       <use x="95.410156" xlink:href="#DejaVuSans-54"/>
      </g>
     </g>
    </g>
    <g id="ytick_19">
     <g id="line2d_73">
      <g>
       <use style="stroke:#000000;stroke-width:0.8;" x="889.12125" xlink:href="#mc712086c39" y="58.298339"/>
      </g>
     </g>
     <g id="text_60">
      <!-- 0.8 -->
      <g transform="translate(866.218125 62.097558)scale(0.1 -0.1)">
       <use xlink:href="#DejaVuSans-48"/>
       <use x="63.623047" xlink:href="#DejaVuSans-46"/>
       <use x="95.410156" xlink:href="#DejaVuSans-56"/>
      </g>
     </g>
    </g>
   </g>
   <g id="line2d_74">
    <path clip-path="url(#p1e5c485f93)" d="M 900.285795 159.635252 
L 909.994081 147.953954 
L 919.702389 142.324131 
L 929.410768 128.896989 
L 948.827291 78.405904 
L 968.243815 65.757196 
L 1045.910376 37.116159 
L 1123.576705 32.345398 
" style="fill:none;stroke:#ffffff;stroke-linecap:square;stroke-opacity:0.8;stroke-width:1.5;"/>
   </g>
   <g id="line2d_75">
    <path clip-path="url(#p1e5c485f93)" d="M 900.285795 159.635252 
L 909.994081 147.953954 
L 919.702389 142.324131 
L 929.410768 128.896989 
L 948.827291 78.405904 
L 968.243815 65.757196 
L 1045.910376 37.116159 
L 1123.576705 32.345398 
" style="fill:none;stroke:#1f77b4;stroke-dasharray:1.5,2.475;stroke-dashoffset:0;stroke-width:1.5;"/>
   </g>
   <g id="line2d_76">
    <path clip-path="url(#p1e5c485f93)" d="M 900.285795 146.408547 
L 909.994081 134.387644 
L 919.702389 131.632226 
L 929.410768 120.108776 
L 948.827291 98.02304 
L 968.243815 96.145134 
L 1045.910376 56.372686 
L 1123.576705 55.938981 
" style="fill:none;stroke:#ffffff;stroke-linecap:square;stroke-opacity:0.8;stroke-width:1.5;"/>
   </g>
   <g id="line2d_77">
    <path clip-path="url(#p1e5c485f93)" d="M 900.285795 146.408547 
L 909.994081 134.387644 
L 919.702389 131.632226 
L 929.410768 120.108776 
L 948.827291 98.02304 
L 968.243815 96.145134 
L 1045.910376 56.372686 
L 1123.576705 55.938981 
" style="fill:none;stroke:#ff7f0e;stroke-dasharray:1.5,2.475;stroke-dashoffset:0;stroke-width:1.5;"/>
   </g>
   <g id="line2d_78">
    <path clip-path="url(#p1e5c485f93)" d="M 900.285795 218.646708 
L 909.994081 216.375344 
L 919.702389 215.280656 
L 929.410768 212.38502 
L 948.827291 198.560864 
L 968.243815 194.215296 
L 1045.910376 143.027059 
L 1123.576705 114.922938 
" style="fill:none;stroke:#ffffff;stroke-linecap:square;stroke-opacity:0.8;stroke-width:1.5;"/>
   </g>
   <g id="line2d_79">
    <path clip-path="url(#p1e5c485f93)" d="M 900.285795 218.646708 
L 909.994081 216.375344 
L 919.702389 215.280656 
L 929.410768 212.38502 
L 948.827291 198.560864 
L 968.243815 194.215296 
L 1045.910376 143.027059 
L 1123.576705 114.922938 
" style="fill:none;stroke:#2ca02c;stroke-dasharray:1.5,2.475;stroke-dashoffset:0;stroke-width:1.5;"/>
   </g>
   <g id="line2d_80">
    <path clip-path="url(#p1e5c485f93)" d="M 900.285795 220.172866 
L 909.994081 218.144863 
L 919.702389 217.167463 
L 929.410768 214.582074 
L 948.827291 202.239077 
L 968.243815 198.359105 
L 1045.910376 152.655322 
L 1123.576705 132.618125 
" style="fill:none;stroke:#ffffff;stroke-linecap:square;stroke-opacity:0.8;stroke-width:1.5;"/>
   </g>
   <g id="line2d_81">
    <path clip-path="url(#p1e5c485f93)" d="M 900.285795 220.172866 
L 909.994081 218.144863 
L 919.702389 217.167463 
L 929.410768 214.582074 
L 948.827291 202.239077 
L 968.243815 198.359105 
L 1045.910376 152.655322 
L 1123.576705 132.618125 
" style="fill:none;stroke:#9467bd;stroke-dasharray:1.5,2.475;stroke-dashoffset:0;stroke-width:1.5;"/>
   </g>
   <g id="patch_17">
    <path d="M 889.12125 242.918125 
L 889.12125 22.318125 
" style="fill:none;stroke:#000000;stroke-linecap:square;stroke-linejoin:miter;stroke-width:0.8;"/>
   </g>
   <g id="patch_18">
    <path d="M 889.12125 242.918125 
L 1134.74125 242.918125 
" style="fill:none;stroke:#000000;stroke-linecap:square;stroke-linejoin:miter;stroke-width:0.8;"/>
   </g>
   <g id="text_61">
    <!-- 100 - 250 -->
    <g transform="translate(983.047812 16.318125)scale(0.12 -0.12)">
     <use xlink:href="#DejaVuSans-49"/>
     <use x="63.623047" xlink:href="#DejaVuSans-48"/>
     <use x="127.246094" xlink:href="#DejaVuSans-48"/>
     <use x="190.869141" xlink:href="#DejaVuSans-32"/>
     <use x="222.65625" xlink:href="#DejaVuSans-45"/>
     <use x="258.740234" xlink:href="#DejaVuSans-32"/>
     <use x="290.527344" xlink:href="#DejaVuSans-50"/>
     <use x="354.150391" xlink:href="#DejaVuSans-53"/>
     <use x="417.773438" xlink:href="#DejaVuSans-48"/>
    </g>
   </g>
  </g>
 </g>
 <defs>
  <clipPath id="p983fa0ff8e">
   <rect height="220.6" width="245.62" x="43.78125" y="22.318125"/>
  </clipPath>
  <clipPath id="p26562ab8a3">
   <rect height="220.6" width="245.62" x="325.56125" y="22.318125"/>
  </clipPath>
  <clipPath id="p49b8be2c0b">
   <rect height="220.6" width="245.62" x="607.34125" y="22.318125"/>
  </clipPath>
  <clipPath id="p1e5c485f93">
   <rect height="220.6" width="245.62" x="889.12125" y="22.318125"/>
  </clipPath>
 </defs>
</svg>
