<?xml version="1.0" encoding="utf-8" standalone="no"?>
<!DOCTYPE svg PUBLIC "-//W3C//DTD SVG 1.1//EN"
  "http://www.w3.org/Graphics/SVG/1.1/DTD/svg11.dtd">
<!-- Created with matplotlib (https://matplotlib.org/) -->
<svg height="568.474375pt" version="1.1" viewBox="0 0 569.41375 568.474375" width="569.41375pt" xmlns="http://www.w3.org/2000/svg" xmlns:xlink="http://www.w3.org/1999/xlink">
 <defs>
  <style type="text/css">
*{stroke-linecap:butt;stroke-linejoin:round;}
  </style>
 </defs>
 <g id="figure_1">
  <g id="patch_1">
   <path d="M 0 568.474375 
L 569.41375 568.474375 
L 569.41375 0 
L 0 0 
z
" style="fill:#ffffff;"/>
  </g>
  <g id="axes_1">
   <g id="patch_2">
    <path d="M 50.14375 255.358125 
L 282.682064 255.358125 
L 282.682064 22.318125 
L 50.14375 22.318125 
z
" style="fill:#ffffff;"/>
   </g>
   <g id="matplotlib.axis_1">
    <g id="xtick_1">
     <g id="line2d_1">
      <defs>
       <path d="M 0 0 
L 0 3.5 
" id="mcbdccc98d2" style="stroke:#000000;stroke-width:0.8;"/>
      </defs>
      <g>
       <use style="stroke:#000000;stroke-width:0.8;" x="56.243681" xlink:href="#mcbdccc98d2" y="255.358125"/>
      </g>
     </g>
     <g id="text_1">
      <!-- 5e-05 -->
      <defs>
       <path d="M 10.796875 72.90625 
L 49.515625 72.90625 
L 49.515625 64.59375 
L 19.828125 64.59375 
L 19.828125 46.734375 
Q 21.96875 47.46875 24.109375 47.828125 
Q 26.265625 48.1875 28.421875 48.1875 
Q 40.625 48.1875 47.75 41.5 
Q 54.890625 34.8125 54.890625 23.390625 
Q 54.890625 11.625 47.5625 5.09375 
Q 40.234375 -1.421875 26.90625 -1.421875 
Q 22.3125 -1.421875 17.546875 -0.640625 
Q 12.796875 0.140625 7.71875 1.703125 
L 7.71875 11.625 
Q 12.109375 9.234375 16.796875 8.0625 
Q 21.484375 6.890625 26.703125 6.890625 
Q 35.15625 6.890625 40.078125 11.328125 
Q 45.015625 15.765625 45.015625 23.390625 
Q 45.015625 31 40.078125 35.4375 
Q 35.15625 39.890625 26.703125 39.890625 
Q 22.75 39.890625 18.8125 39.015625 
Q 14.890625 38.140625 10.796875 36.28125 
z
" id="DejaVuSans-53"/>
       <path d="M 56.203125 29.59375 
L 56.203125 25.203125 
L 14.890625 25.203125 
Q 15.484375 15.921875 20.484375 11.0625 
Q 25.484375 6.203125 34.421875 6.203125 
Q 39.59375 6.203125 44.453125 7.46875 
Q 49.3125 8.734375 54.109375 11.28125 
L 54.109375 2.78125 
Q 49.265625 0.734375 44.1875 -0.34375 
Q 39.109375 -1.421875 33.890625 -1.421875 
Q 20.796875 -1.421875 13.15625 6.1875 
Q 5.515625 13.8125 5.515625 26.8125 
Q 5.515625 40.234375 12.765625 48.109375 
Q 20.015625 56 32.328125 56 
Q 43.359375 56 49.78125 48.890625 
Q 56.203125 41.796875 56.203125 29.59375 
z
M 47.21875 32.234375 
Q 47.125 39.59375 43.09375 43.984375 
Q 39.0625 48.390625 32.421875 48.390625 
Q 24.90625 48.390625 20.390625 44.140625 
Q 15.875 39.890625 15.1875 32.171875 
z
" id="DejaVuSans-101"/>
       <path d="M 4.890625 31.390625 
L 31.203125 31.390625 
L 31.203125 23.390625 
L 4.890625 23.390625 
z
" id="DejaVuSans-45"/>
       <path d="M 31.78125 66.40625 
Q 24.171875 66.40625 20.328125 58.90625 
Q 16.5 51.421875 16.5 36.375 
Q 16.5 21.390625 20.328125 13.890625 
Q 24.171875 6.390625 31.78125 6.390625 
Q 39.453125 6.390625 43.28125 13.890625 
Q 47.125 21.390625 47.125 36.375 
Q 47.125 51.421875 43.28125 58.90625 
Q 39.453125 66.40625 31.78125 66.40625 
z
M 31.78125 74.21875 
Q 44.046875 74.21875 50.515625 64.515625 
Q 56.984375 54.828125 56.984375 36.375 
Q 56.984375 17.96875 50.515625 8.265625 
Q 44.046875 -1.421875 31.78125 -1.421875 
Q 19.53125 -1.421875 13.0625 8.265625 
Q 6.59375 17.96875 6.59375 36.375 
Q 6.59375 54.828125 13.0625 64.515625 
Q 19.53125 74.21875 31.78125 74.21875 
z
" id="DejaVuSans-48"/>
      </defs>
      <g transform="translate(41.819462 269.956562)scale(0.1 -0.1)">
       <use xlink:href="#DejaVuSans-53"/>
       <use x="63.623047" xlink:href="#DejaVuSans-101"/>
       <use x="125.146484" xlink:href="#DejaVuSans-45"/>
       <use x="161.230469" xlink:href="#DejaVuSans-48"/>
       <use x="224.853516" xlink:href="#DejaVuSans-53"/>
      </g>
     </g>
    </g>
    <g id="xtick_2">
     <g id="line2d_2">
      <g>
       <use style="stroke:#000000;stroke-width:0.8;" x="110.854434" xlink:href="#mcbdccc98d2" y="255.358125"/>
      </g>
     </g>
     <g id="text_2">
      <!-- 0.007 -->
      <defs>
       <path d="M 10.6875 12.40625 
L 21 12.40625 
L 21 0 
L 10.6875 0 
z
" id="DejaVuSans-46"/>
       <path d="M 8.203125 72.90625 
L 55.078125 72.90625 
L 55.078125 68.703125 
L 28.609375 0 
L 18.3125 0 
L 43.21875 64.59375 
L 8.203125 64.59375 
z
" id="DejaVuSans-55"/>
      </defs>
      <g transform="translate(96.540372 269.956562)scale(0.1 -0.1)">
       <use xlink:href="#DejaVuSans-48"/>
       <use x="63.623047" xlink:href="#DejaVuSans-46"/>
       <use x="95.410156" xlink:href="#DejaVuSans-48"/>
       <use x="159.033203" xlink:href="#DejaVuSans-48"/>
       <use x="222.65625" xlink:href="#DejaVuSans-55"/>
      </g>
     </g>
    </g>
    <g id="xtick_3">
     <g id="line2d_3">
      <g>
       <use style="stroke:#000000;stroke-width:0.8;" x="165.465187" xlink:href="#mcbdccc98d2" y="255.358125"/>
      </g>
     </g>
     <g id="text_3">
      <!-- 1 -->
      <defs>
       <path d="M 12.40625 8.296875 
L 28.515625 8.296875 
L 28.515625 63.921875 
L 10.984375 60.40625 
L 10.984375 69.390625 
L 28.421875 72.90625 
L 38.28125 72.90625 
L 38.28125 8.296875 
L 54.390625 8.296875 
L 54.390625 0 
L 12.40625 0 
z
" id="DejaVuSans-49"/>
      </defs>
      <g transform="translate(162.283937 269.956562)scale(0.1 -0.1)">
       <use xlink:href="#DejaVuSans-49"/>
      </g>
     </g>
    </g>
    <g id="xtick_4">
     <g id="line2d_4">
      <g>
       <use style="stroke:#000000;stroke-width:0.8;" x="220.075941" xlink:href="#mcbdccc98d2" y="255.358125"/>
      </g>
     </g>
     <g id="text_4">
      <!-- 1e+02 -->
      <defs>
       <path d="M 46 62.703125 
L 46 35.5 
L 73.1875 35.5 
L 73.1875 27.203125 
L 46 27.203125 
L 46 0 
L 37.796875 0 
L 37.796875 27.203125 
L 10.59375 27.203125 
L 10.59375 35.5 
L 37.796875 35.5 
L 37.796875 62.703125 
z
" id="DejaVuSans-43"/>
       <path d="M 19.1875 8.296875 
L 53.609375 8.296875 
L 53.609375 0 
L 7.328125 0 
L 7.328125 8.296875 
Q 12.9375 14.109375 22.625 23.890625 
Q 32.328125 33.6875 34.8125 36.53125 
Q 39.546875 41.84375 41.421875 45.53125 
Q 43.3125 49.21875 43.3125 52.78125 
Q 43.3125 58.59375 39.234375 62.25 
Q 35.15625 65.921875 28.609375 65.921875 
Q 23.96875 65.921875 18.8125 64.3125 
Q 13.671875 62.703125 7.8125 59.421875 
L 7.8125 69.390625 
Q 13.765625 71.78125 18.9375 73 
Q 24.125 74.21875 28.421875 74.21875 
Q 39.75 74.21875 46.484375 68.546875 
Q 53.21875 62.890625 53.21875 53.421875 
Q 53.21875 48.921875 51.53125 44.890625 
Q 49.859375 40.875 45.40625 35.40625 
Q 44.1875 33.984375 37.640625 27.21875 
Q 31.109375 20.453125 19.1875 8.296875 
z
" id="DejaVuSans-50"/>
      </defs>
      <g transform="translate(203.265784 269.956562)scale(0.1 -0.1)">
       <use xlink:href="#DejaVuSans-49"/>
       <use x="63.623047" xlink:href="#DejaVuSans-101"/>
       <use x="125.146484" xlink:href="#DejaVuSans-43"/>
       <use x="208.935547" xlink:href="#DejaVuSans-48"/>
       <use x="272.558594" xlink:href="#DejaVuSans-50"/>
      </g>
     </g>
    </g>
    <g id="xtick_5">
     <g id="line2d_5">
      <g>
       <use style="stroke:#000000;stroke-width:0.8;" x="274.686694" xlink:href="#mcbdccc98d2" y="255.358125"/>
      </g>
     </g>
     <g id="text_5">
      <!-- 2e+04 -->
      <defs>
       <path d="M 37.796875 64.3125 
L 12.890625 25.390625 
L 37.796875 25.390625 
z
M 35.203125 72.90625 
L 47.609375 72.90625 
L 47.609375 25.390625 
L 58.015625 25.390625 
L 58.015625 17.1875 
L 47.609375 17.1875 
L 47.609375 0 
L 37.796875 0 
L 37.796875 17.1875 
L 4.890625 17.1875 
L 4.890625 26.703125 
z
" id="DejaVuSans-52"/>
      </defs>
      <g transform="translate(257.876538 269.956562)scale(0.1 -0.1)">
       <use xlink:href="#DejaVuSans-50"/>
       <use x="63.623047" xlink:href="#DejaVuSans-101"/>
       <use x="125.146484" xlink:href="#DejaVuSans-43"/>
       <use x="208.935547" xlink:href="#DejaVuSans-48"/>
       <use x="272.558594" xlink:href="#DejaVuSans-52"/>
      </g>
     </g>
    </g>
   </g>
   <g id="matplotlib.axis_2">
    <g id="ytick_1">
     <g id="line2d_6">
      <defs>
       <path d="M 0 0 
L -3.5 0 
" id="m3f896dd663" style="stroke:#000000;stroke-width:0.8;"/>
      </defs>
      <g>
       <use style="stroke:#000000;stroke-width:0.8;" x="50.14375" xlink:href="#m3f896dd663" y="255.358125"/>
      </g>
     </g>
     <g id="text_6">
      <!-- 0.0 -->
      <g transform="translate(27.240625 259.157344)scale(0.1 -0.1)">
       <use xlink:href="#DejaVuSans-48"/>
       <use x="63.623047" xlink:href="#DejaVuSans-46"/>
       <use x="95.410156" xlink:href="#DejaVuSans-48"/>
      </g>
     </g>
    </g>
    <g id="ytick_2">
     <g id="line2d_7">
      <g>
       <use style="stroke:#000000;stroke-width:0.8;" x="50.14375" xlink:href="#m3f896dd663" y="217.696358"/>
      </g>
     </g>
     <g id="text_7">
      <!-- 0.5 -->
      <g transform="translate(27.240625 221.495576)scale(0.1 -0.1)">
       <use xlink:href="#DejaVuSans-48"/>
       <use x="63.623047" xlink:href="#DejaVuSans-46"/>
       <use x="95.410156" xlink:href="#DejaVuSans-53"/>
      </g>
     </g>
    </g>
    <g id="ytick_3">
     <g id="line2d_8">
      <g>
       <use style="stroke:#000000;stroke-width:0.8;" x="50.14375" xlink:href="#m3f896dd663" y="180.03459"/>
      </g>
     </g>
     <g id="text_8">
      <!-- 1.0 -->
      <g transform="translate(27.240625 183.833809)scale(0.1 -0.1)">
       <use xlink:href="#DejaVuSans-49"/>
       <use x="63.623047" xlink:href="#DejaVuSans-46"/>
       <use x="95.410156" xlink:href="#DejaVuSans-48"/>
      </g>
     </g>
    </g>
    <g id="ytick_4">
     <g id="line2d_9">
      <g>
       <use style="stroke:#000000;stroke-width:0.8;" x="50.14375" xlink:href="#m3f896dd663" y="142.372823"/>
      </g>
     </g>
     <g id="text_9">
      <!-- 1.5 -->
      <g transform="translate(27.240625 146.172042)scale(0.1 -0.1)">
       <use xlink:href="#DejaVuSans-49"/>
       <use x="63.623047" xlink:href="#DejaVuSans-46"/>
       <use x="95.410156" xlink:href="#DejaVuSans-53"/>
      </g>
     </g>
    </g>
    <g id="ytick_5">
     <g id="line2d_10">
      <g>
       <use style="stroke:#000000;stroke-width:0.8;" x="50.14375" xlink:href="#m3f896dd663" y="104.711056"/>
      </g>
     </g>
     <g id="text_10">
      <!-- 2.0 -->
      <g transform="translate(27.240625 108.510275)scale(0.1 -0.1)">
       <use xlink:href="#DejaVuSans-50"/>
       <use x="63.623047" xlink:href="#DejaVuSans-46"/>
       <use x="95.410156" xlink:href="#DejaVuSans-48"/>
      </g>
     </g>
    </g>
    <g id="ytick_6">
     <g id="line2d_11">
      <g>
       <use style="stroke:#000000;stroke-width:0.8;" x="50.14375" xlink:href="#m3f896dd663" y="67.049288"/>
      </g>
     </g>
     <g id="text_11">
      <!-- 2.5 -->
      <g transform="translate(27.240625 70.848507)scale(0.1 -0.1)">
       <use xlink:href="#DejaVuSans-50"/>
       <use x="63.623047" xlink:href="#DejaVuSans-46"/>
       <use x="95.410156" xlink:href="#DejaVuSans-53"/>
      </g>
     </g>
    </g>
    <g id="ytick_7">
     <g id="line2d_12">
      <g>
       <use style="stroke:#000000;stroke-width:0.8;" x="50.14375" xlink:href="#m3f896dd663" y="29.387521"/>
      </g>
     </g>
     <g id="text_12">
      <!-- 3.0 -->
      <defs>
       <path d="M 40.578125 39.3125 
Q 47.65625 37.796875 51.625 33 
Q 55.609375 28.21875 55.609375 21.1875 
Q 55.609375 10.40625 48.1875 4.484375 
Q 40.765625 -1.421875 27.09375 -1.421875 
Q 22.515625 -1.421875 17.65625 -0.515625 
Q 12.796875 0.390625 7.625 2.203125 
L 7.625 11.71875 
Q 11.71875 9.328125 16.59375 8.109375 
Q 21.484375 6.890625 26.8125 6.890625 
Q 36.078125 6.890625 40.9375 10.546875 
Q 45.796875 14.203125 45.796875 21.1875 
Q 45.796875 27.640625 41.28125 31.265625 
Q 36.765625 34.90625 28.71875 34.90625 
L 20.21875 34.90625 
L 20.21875 43.015625 
L 29.109375 43.015625 
Q 36.375 43.015625 40.234375 45.921875 
Q 44.09375 48.828125 44.09375 54.296875 
Q 44.09375 59.90625 40.109375 62.90625 
Q 36.140625 65.921875 28.71875 65.921875 
Q 24.65625 65.921875 20.015625 65.03125 
Q 15.375 64.15625 9.8125 62.3125 
L 9.8125 71.09375 
Q 15.4375 72.65625 20.34375 73.4375 
Q 25.25 74.21875 29.59375 74.21875 
Q 40.828125 74.21875 47.359375 69.109375 
Q 53.90625 64.015625 53.90625 55.328125 
Q 53.90625 49.265625 50.4375 45.09375 
Q 46.96875 40.921875 40.578125 39.3125 
z
" id="DejaVuSans-51"/>
      </defs>
      <g transform="translate(27.240625 33.18674)scale(0.1 -0.1)">
       <use xlink:href="#DejaVuSans-51"/>
       <use x="63.623047" xlink:href="#DejaVuSans-46"/>
       <use x="95.410156" xlink:href="#DejaVuSans-48"/>
      </g>
     </g>
    </g>
    <g id="text_13">
     <!-- density -->
     <defs>
      <path d="M 45.40625 46.390625 
L 45.40625 75.984375 
L 54.390625 75.984375 
L 54.390625 0 
L 45.40625 0 
L 45.40625 8.203125 
Q 42.578125 3.328125 38.25 0.953125 
Q 33.9375 -1.421875 27.875 -1.421875 
Q 17.96875 -1.421875 11.734375 6.484375 
Q 5.515625 14.40625 5.515625 27.296875 
Q 5.515625 40.1875 11.734375 48.09375 
Q 17.96875 56 27.875 56 
Q 33.9375 56 38.25 53.625 
Q 42.578125 51.265625 45.40625 46.390625 
z
M 14.796875 27.296875 
Q 14.796875 17.390625 18.875 11.75 
Q 22.953125 6.109375 30.078125 6.109375 
Q 37.203125 6.109375 41.296875 11.75 
Q 45.40625 17.390625 45.40625 27.296875 
Q 45.40625 37.203125 41.296875 42.84375 
Q 37.203125 48.484375 30.078125 48.484375 
Q 22.953125 48.484375 18.875 42.84375 
Q 14.796875 37.203125 14.796875 27.296875 
z
" id="DejaVuSans-100"/>
      <path d="M 54.890625 33.015625 
L 54.890625 0 
L 45.90625 0 
L 45.90625 32.71875 
Q 45.90625 40.484375 42.875 44.328125 
Q 39.84375 48.1875 33.796875 48.1875 
Q 26.515625 48.1875 22.3125 43.546875 
Q 18.109375 38.921875 18.109375 30.90625 
L 18.109375 0 
L 9.078125 0 
L 9.078125 54.6875 
L 18.109375 54.6875 
L 18.109375 46.1875 
Q 21.34375 51.125 25.703125 53.5625 
Q 30.078125 56 35.796875 56 
Q 45.21875 56 50.046875 50.171875 
Q 54.890625 44.34375 54.890625 33.015625 
z
" id="DejaVuSans-110"/>
      <path d="M 44.28125 53.078125 
L 44.28125 44.578125 
Q 40.484375 46.53125 36.375 47.5 
Q 32.28125 48.484375 27.875 48.484375 
Q 21.1875 48.484375 17.84375 46.4375 
Q 14.5 44.390625 14.5 40.28125 
Q 14.5 37.15625 16.890625 35.375 
Q 19.28125 33.59375 26.515625 31.984375 
L 29.59375 31.296875 
Q 39.15625 29.25 43.1875 25.515625 
Q 47.21875 21.78125 47.21875 15.09375 
Q 47.21875 7.46875 41.1875 3.015625 
Q 35.15625 -1.421875 24.609375 -1.421875 
Q 20.21875 -1.421875 15.453125 -0.5625 
Q 10.6875 0.296875 5.421875 2 
L 5.421875 11.28125 
Q 10.40625 8.6875 15.234375 7.390625 
Q 20.0625 6.109375 24.8125 6.109375 
Q 31.15625 6.109375 34.5625 8.28125 
Q 37.984375 10.453125 37.984375 14.40625 
Q 37.984375 18.0625 35.515625 20.015625 
Q 33.0625 21.96875 24.703125 23.78125 
L 21.578125 24.515625 
Q 13.234375 26.265625 9.515625 29.90625 
Q 5.8125 33.546875 5.8125 39.890625 
Q 5.8125 47.609375 11.28125 51.796875 
Q 16.75 56 26.8125 56 
Q 31.78125 56 36.171875 55.265625 
Q 40.578125 54.546875 44.28125 53.078125 
z
" id="DejaVuSans-115"/>
      <path d="M 9.421875 54.6875 
L 18.40625 54.6875 
L 18.40625 0 
L 9.421875 0 
z
M 9.421875 75.984375 
L 18.40625 75.984375 
L 18.40625 64.59375 
L 9.421875 64.59375 
z
" id="DejaVuSans-105"/>
      <path d="M 18.3125 70.21875 
L 18.3125 54.6875 
L 36.8125 54.6875 
L 36.8125 47.703125 
L 18.3125 47.703125 
L 18.3125 18.015625 
Q 18.3125 11.328125 20.140625 9.421875 
Q 21.96875 7.515625 27.59375 7.515625 
L 36.8125 7.515625 
L 36.8125 0 
L 27.59375 0 
Q 17.1875 0 13.234375 3.875 
Q 9.28125 7.765625 9.28125 18.015625 
L 9.28125 47.703125 
L 2.6875 47.703125 
L 2.6875 54.6875 
L 9.28125 54.6875 
L 9.28125 70.21875 
z
" id="DejaVuSans-116"/>
      <path d="M 32.171875 -5.078125 
Q 28.375 -14.84375 24.75 -17.8125 
Q 21.140625 -20.796875 15.09375 -20.796875 
L 7.90625 -20.796875 
L 7.90625 -13.28125 
L 13.1875 -13.28125 
Q 16.890625 -13.28125 18.9375 -11.515625 
Q 21 -9.765625 23.484375 -3.21875 
L 25.09375 0.875 
L 2.984375 54.6875 
L 12.5 54.6875 
L 29.59375 11.921875 
L 46.6875 54.6875 
L 56.203125 54.6875 
z
" id="DejaVuSans-121"/>
     </defs>
     <g transform="translate(21.160937 157.170937)rotate(-90)scale(0.1 -0.1)">
      <use xlink:href="#DejaVuSans-100"/>
      <use x="63.476562" xlink:href="#DejaVuSans-101"/>
      <use x="125" xlink:href="#DejaVuSans-110"/>
      <use x="188.378906" xlink:href="#DejaVuSans-115"/>
      <use x="240.478516" xlink:href="#DejaVuSans-105"/>
      <use x="268.261719" xlink:href="#DejaVuSans-116"/>
      <use x="307.470703" xlink:href="#DejaVuSans-121"/>
     </g>
    </g>
   </g>
   <g id="line2d_13">
    <path clip-path="url(#p90c9dd7e33)" d="M 133.886778 248.537931 
L 134.795086 255.358125 
L 135.703395 86.933788 
L 136.611704 33.415268 
L 137.520012 163.450785 
L 139.336629 224.830166 
L 140.244938 237.827129 
L 141.153247 246.099092 
L 142.061555 250.662408 
L 142.969864 250.820192 
L 143.878172 253.80067 
L 144.786481 254.589132 
L 145.69479 254.150542 
L 146.603098 255.358125 
L 147.511407 253.573041 
L 148.419716 255.358125 
L 149.328024 254.258156 
L 150.236333 255.358125 
L 151.144641 255.240731 
L 152.05295 255.358125 
L 153.869567 255.358125 
L 161.136036 255.316862 
L 163.860962 255.358125 
L 164.769271 255.226574 
L 165.677579 255.358125 
L 166.585888 254.188347 
L 167.494197 255.358125 
L 168.402505 255.226283 
L 169.310814 255.358125 
L 170.219122 255.287008 
L 171.127431 255.358125 
L 173.852357 255.322555 
L 176.577283 255.358125 
L 181.118826 255.339252 
L 186.568677 255.345126 
L 193.835146 255.358125 
L 197.468381 255.358125 
L 198.376689 254.436215 
L 199.284998 255.301734 
L 207.459776 255.358125 
L 208.368084 255.261197 
L 209.276393 255.358125 
L 210.184701 254.429236 
L 211.09301 255.311271 
L 212.001319 255.277194 
L 212.909627 255.358125 
L 214.726245 255.358125 
L 217.45117 255.321474 
L 220.176096 255.358125 
L 221.992713 255.358125 
L 222.901022 255.12028 
L 223.809331 254.622617 
L 224.717639 255.358125 
L 229.259182 255.358125 
L 230.167491 255.224506 
L 231.0758 255.358125 
L 231.984108 253.646498 
L 232.892417 254.300898 
L 233.800725 255.244105 
L 234.709034 254.598663 
L 235.617343 254.364746 
L 236.525651 255.358125 
L 238.342269 255.042425 
L 239.250577 254.648809 
L 240.158886 255.358125 
L 241.067194 253.494257 
L 241.975503 254.699765 
L 242.883812 254.10592 
L 243.79212 255.358125 
L 244.700429 254.639208 
L 245.608738 255.358125 
L 246.517046 253.821045 
L 247.425355 255.358125 
L 248.333663 251.695159 
L 249.241972 255.358125 
L 249.241972 255.358125 
" style="fill:none;stroke:#1f77b4;stroke-linecap:square;stroke-width:1.5;"/>
   </g>
   <g id="line2d_14">
    <path clip-path="url(#p90c9dd7e33)" d="M 209.880332 255.355224 
L 213.010823 255.24653 
L 215.793482 255.204998 
L 218.228308 255.140378 
L 220.315303 254.654512 
L 221.706632 254.273461 
L 222.750129 253.705969 
L 223.793626 252.816453 
L 225.184955 251.327523 
L 225.88062 250.346924 
L 226.576285 249.054438 
L 227.271949 247.368954 
L 228.315446 244.054784 
L 229.358944 239.8943 
L 230.402441 234.98437 
L 231.445938 229.12047 
L 234.924261 207.647879 
L 235.619926 205.068687 
L 235.967758 204.449465 
L 236.31559 204.371898 
L 236.663423 204.861043 
L 237.011255 205.890289 
L 237.70692 209.174104 
L 238.750417 214.558686 
L 239.098249 215.72871 
L 239.446081 216.361952 
L 239.793914 216.396348 
L 240.141746 215.814208 
L 240.489579 214.63565 
L 241.185243 210.751538 
L 242.924405 199.129838 
L 243.272237 198.009824 
L 243.62007 197.635459 
L 243.967902 198.052711 
L 244.315734 199.257739 
L 244.663567 201.212686 
L 245.359231 207.146252 
L 246.054896 215.321461 
L 248.14189 242.49138 
L 248.837555 248.185828 
L 249.533219 251.659392 
L 250.228884 253.562018 
L 250.924549 254.539874 
L 251.620214 255.01944 
L 252.315878 255.236857 
L 253.707208 255.349502 
L 254.05504 255.353841 
L 254.05504 255.353841 
" style="fill:none;stroke:#1f77b4;stroke-dasharray:1.5,2.475;stroke-dashoffset:0;stroke-width:1.5;"/>
   </g>
   <g id="line2d_15">
    <path clip-path="url(#p90c9dd7e33)" d="M 82.088985 255.355622 
L 87.615199 255.263779 
L 90.378306 255.082645 
L 93.141413 254.626014 
L 94.522966 254.230042 
L 97.286073 252.214916 
L 98.667626 250.499458 
L 100.04918 248.023856 
L 101.430733 245.263511 
L 102.812287 241.96806 
L 105.575394 232.838527 
L 106.956947 227.457623 
L 109.720054 217.802835 
L 111.101607 214.522582 
L 112.483161 212.353369 
L 113.864714 211.96774 
L 115.246268 213.278645 
L 116.627821 216.088878 
L 118.009375 219.37347 
L 119.390928 223.19317 
L 122.154035 233.051371 
L 124.917142 240.902294 
L 126.298695 244.272075 
L 127.680249 247.194662 
L 129.061802 249.310925 
L 130.443356 251.020661 
L 131.824909 252.226414 
L 133.206463 253.215016 
L 134.588016 253.809912 
L 135.96957 254.251622 
L 138.732676 254.717933 
L 141.495783 254.945519 
L 144.25889 255.12559 
L 148.403551 255.213745 
L 160.837532 255.282233 
L 171.889959 255.289724 
L 189.850154 255.210425 
L 195.376368 255.220641 
L 196.757921 255.342405 
L 225.770544 255.278712 
L 235.441418 254.662133 
L 236.822972 254.554613 
L 249.256953 255.082097 
L 252.02006 255.308226 
L 257.546273 255.358125 
L 257.546273 255.358125 
" style="fill:none;stroke:#ff7f0e;stroke-linecap:square;stroke-width:1.5;"/>
   </g>
   <g id="line2d_16">
    <path clip-path="url(#p90c9dd7e33)" d="M 102.969625 255.358125 
L 138.433378 255.305997 
L 148.216482 255.314698 
L 171.451354 255.324235 
L 183.680234 255.141789 
L 184.903122 254.743863 
L 186.12601 253.855452 
L 187.348898 255.031177 
L 191.017562 254.82185 
L 192.24045 254.432108 
L 193.463338 254.226663 
L 194.686226 253.701615 
L 195.909115 254.817652 
L 197.132003 255.137563 
L 198.354891 255.195399 
L 202.023555 255.132321 
L 204.469331 255.04531 
L 214.252435 254.466861 
L 215.475323 254.402069 
L 216.698211 254.159516 
L 217.921099 254.076466 
L 220.366875 253.470739 
L 221.589763 253.011313 
L 222.812651 252.412411 
L 225.258427 250.386752 
L 226.481315 248.649296 
L 227.704203 246.465048 
L 228.927091 243.072162 
L 230.149979 239.191008 
L 231.372867 233.828519 
L 233.818643 220.742427 
L 235.041531 214.444322 
L 236.264419 209.305461 
L 237.487307 206.707043 
L 238.710195 206.6284 
L 239.933083 209.447106 
L 241.155971 213.228931 
L 242.378859 215.926825 
L 244.824635 218.692192 
L 246.047523 219.653004 
L 247.270411 224.280593 
L 248.493299 231.120588 
L 250.939075 246.830731 
L 252.161963 252.020441 
L 253.384851 254.358756 
L 254.607739 255.166582 
L 255.830627 255.323573 
L 258.276403 255.351705 
L 258.276403 255.351705 
" style="fill:none;stroke:#ff7f0e;stroke-dasharray:1.5,2.475;stroke-dashoffset:0;stroke-width:1.5;"/>
   </g>
   <g id="line2d_17">
    <path clip-path="url(#p90c9dd7e33)" d="M 79.517159 255.357206 
L 88.049487 255.242493 
L 93.737705 254.383741 
L 95.15976 253.960961 
L 96.581815 253.064194 
L 98.003869 251.656879 
L 99.425924 249.62226 
L 100.847979 246.693798 
L 103.692088 239.080991 
L 106.536197 231.363411 
L 110.802361 217.536841 
L 112.224416 214.654099 
L 113.64647 213.509768 
L 115.068525 214.716582 
L 119.334689 224.837859 
L 120.756744 229.027522 
L 122.178798 232.726389 
L 123.600853 235.24078 
L 125.022908 238.139107 
L 127.867017 244.813841 
L 129.289072 247.623207 
L 130.711126 249.782473 
L 132.133181 251.232092 
L 133.555235 252.322306 
L 134.97729 253.203807 
L 136.399345 253.803485 
L 139.243454 254.606901 
L 140.665509 254.870778 
L 143.509618 255.023143 
L 153.464001 255.186989 
L 157.730165 255.287886 
L 163.418383 255.358044 
L 176.216875 255.252724 
L 179.060984 255.214035 
L 183.327148 255.355196 
L 211.768241 255.35807 
L 228.832897 255.287601 
L 231.677006 255.093454 
L 234.521116 254.769968 
L 237.365225 254.268862 
L 240.209334 254.091258 
L 243.053444 253.936591 
L 248.741662 254.245533 
L 250.163717 254.554122 
L 251.585772 254.976434 
L 253.007826 255.197945 
L 258.696045 255.35124 
L 260.1181 255.357167 
L 260.1181 255.357167 
" style="fill:none;stroke:#2ca02c;stroke-linecap:square;stroke-width:1.5;"/>
   </g>
   <g id="line2d_18">
    <path clip-path="url(#p90c9dd7e33)" d="M 126.569425 255.357794 
L 165.254153 255.358125 
L 207.075482 255.272642 
L 211.257615 255.035286 
L 213.348681 255.101092 
L 219.621881 254.606499 
L 221.712947 254.127966 
L 223.804013 253.518183 
L 224.849547 252.949256 
L 226.940613 251.242503 
L 227.986146 250.297261 
L 229.031679 248.536477 
L 231.122746 243.259903 
L 232.168279 240.233028 
L 233.213812 235.705315 
L 236.350412 217.841721 
L 238.441478 208.201841 
L 239.487012 205.24875 
L 240.532545 204.589875 
L 241.578078 205.035543 
L 242.623611 206.784879 
L 243.669144 209.842844 
L 244.714678 212.269709 
L 245.760211 212.946231 
L 246.805744 214.24308 
L 247.851277 216.722926 
L 248.89681 220.631401 
L 249.942344 227.202083 
L 252.03341 244.160394 
L 253.078943 250.007731 
L 254.124477 253.226208 
L 255.17001 254.712738 
L 256.215543 255.220973 
L 258.306609 255.354251 
L 259.352143 255.357698 
L 259.352143 255.357698 
" style="fill:none;stroke:#2ca02c;stroke-dasharray:1.5,2.475;stroke-dashoffset:0;stroke-width:1.5;"/>
   </g>
   <g id="line2d_19">
    <path clip-path="url(#p90c9dd7e33)" d="M 82.057889 255.357407 
L 87.470813 255.264104 
L 90.177275 255.103639 
L 92.883737 254.682832 
L 94.236967 254.381744 
L 96.943429 252.528696 
L 98.29666 251.196927 
L 99.649891 249.096053 
L 101.003122 246.435758 
L 102.356353 243.06873 
L 103.709584 239.159363 
L 105.062815 234.641334 
L 109.122508 219.965282 
L 110.475739 216.076164 
L 111.82897 213.195893 
L 113.182201 211.355485 
L 114.535432 212.111452 
L 115.888663 213.844391 
L 117.241894 216.666994 
L 118.595125 220.128448 
L 119.948356 224.101103 
L 121.301587 229.558044 
L 124.008049 237.806013 
L 125.36128 241.351739 
L 126.714511 244.40196 
L 129.420973 249.380487 
L 130.774204 250.931229 
L 132.127435 252.142615 
L 133.480666 253.176513 
L 134.833897 253.486231 
L 136.187128 254.058515 
L 137.540359 254.409412 
L 140.246821 254.739526 
L 144.306514 255.101137 
L 145.659745 255.069971 
L 148.366207 255.142266 
L 152.4259 255.276032 
L 172.724364 255.291975 
L 176.784057 255.280736 
L 206.555139 255.342546 
L 217.380987 255.352627 
L 224.147141 255.344777 
L 253.918223 255.358125 
L 253.918223 255.358125 
" style="fill:none;stroke:#d62728;stroke-linecap:square;stroke-width:1.5;"/>
   </g>
   <g id="line2d_20">
    <path clip-path="url(#p90c9dd7e33)" d="M 60.713673 255.356096 
L 84.017441 255.250589 
L 98.998435 255.064293 
L 113.979429 254.607288 
L 125.631313 254.008262 
L 133.954087 253.612565 
L 138.947752 253.54909 
L 143.941416 253.718727 
L 153.928746 254.216668 
L 160.586965 254.275609 
L 167.245184 254.154141 
L 172.238849 253.843917 
L 175.567959 253.326737 
L 177.232514 252.894096 
L 178.897068 252.30945 
L 180.561623 251.560353 
L 183.890733 249.638586 
L 187.219843 247.560931 
L 188.884398 246.697565 
L 190.548952 246.074477 
L 192.213507 245.745907 
L 193.878062 245.715387 
L 195.542617 245.932159 
L 200.536282 247.034986 
L 202.200836 247.197488 
L 203.865391 247.144552 
L 205.529946 246.865505 
L 207.194501 246.381553 
L 210.523611 244.972625 
L 217.18183 241.717917 
L 218.846385 241.045098 
L 220.51094 240.494282 
L 222.175495 240.094023 
L 223.84005 239.869078 
L 225.504605 239.838288 
L 227.169159 240.012263 
L 228.833714 240.391534 
L 230.498269 240.965641 
L 232.162824 241.713449 
L 235.491934 243.602674 
L 245.479263 249.86259 
L 248.808373 251.568939 
L 252.137482 252.987516 
L 255.466592 254.059984 
L 258.795702 254.755561 
L 262.124811 255.126619 
L 267.118476 255.320703 
L 272.112141 255.354202 
L 272.112141 255.354202 
" style="fill:none;stroke:#d62728;stroke-dasharray:1.5,2.475;stroke-dashoffset:0;stroke-width:1.5;"/>
   </g>
   <g id="patch_3">
    <path d="M 50.14375 255.358125 
L 50.14375 22.318125 
" style="fill:none;stroke:#000000;stroke-linecap:square;stroke-linejoin:miter;stroke-width:0.8;"/>
   </g>
   <g id="patch_4">
    <path d="M 50.14375 255.358125 
L 282.682064 255.358125 
" style="fill:none;stroke:#000000;stroke-linecap:square;stroke-linejoin:miter;stroke-width:0.8;"/>
   </g>
   <g id="text_14">
    <!-- 1 - 30 -->
    <defs>
     <path id="DejaVuSans-32"/>
    </defs>
    <g transform="translate(148.981969 16.318125)scale(0.12 -0.12)">
     <use xlink:href="#DejaVuSans-49"/>
     <use x="63.623047" xlink:href="#DejaVuSans-32"/>
     <use x="95.410156" xlink:href="#DejaVuSans-45"/>
     <use x="131.494141" xlink:href="#DejaVuSans-32"/>
     <use x="163.28125" xlink:href="#DejaVuSans-51"/>
     <use x="226.904297" xlink:href="#DejaVuSans-48"/>
    </g>
   </g>
   <g id="legend_1">
    <g id="patch_5">
     <path d="M 171.155501 89.030625 
L 275.682064 89.030625 
Q 277.682064 89.030625 277.682064 87.030625 
L 277.682064 29.318125 
Q 277.682064 27.318125 275.682064 27.318125 
L 171.155501 27.318125 
Q 169.155501 27.318125 169.155501 29.318125 
L 169.155501 87.030625 
Q 169.155501 89.030625 171.155501 89.030625 
z
" style="fill:#ffffff;opacity:0.8;stroke:#cccccc;stroke-linejoin:miter;"/>
    </g>
    <g id="line2d_21">
     <path d="M 173.155501 35.416562 
L 193.155501 35.416562 
" style="fill:none;stroke:#1f77b4;stroke-linecap:square;stroke-width:1.5;"/>
    </g>
    <g id="line2d_22"/>
    <g id="text_15">
     <!-- prosic+delly -->
     <defs>
      <path d="M 18.109375 8.203125 
L 18.109375 -20.796875 
L 9.078125 -20.796875 
L 9.078125 54.6875 
L 18.109375 54.6875 
L 18.109375 46.390625 
Q 20.953125 51.265625 25.265625 53.625 
Q 29.59375 56 35.59375 56 
Q 45.5625 56 51.78125 48.09375 
Q 58.015625 40.1875 58.015625 27.296875 
Q 58.015625 14.40625 51.78125 6.484375 
Q 45.5625 -1.421875 35.59375 -1.421875 
Q 29.59375 -1.421875 25.265625 0.953125 
Q 20.953125 3.328125 18.109375 8.203125 
z
M 48.6875 27.296875 
Q 48.6875 37.203125 44.609375 42.84375 
Q 40.53125 48.484375 33.40625 48.484375 
Q 26.265625 48.484375 22.1875 42.84375 
Q 18.109375 37.203125 18.109375 27.296875 
Q 18.109375 17.390625 22.1875 11.75 
Q 26.265625 6.109375 33.40625 6.109375 
Q 40.53125 6.109375 44.609375 11.75 
Q 48.6875 17.390625 48.6875 27.296875 
z
" id="DejaVuSans-112"/>
      <path d="M 41.109375 46.296875 
Q 39.59375 47.171875 37.8125 47.578125 
Q 36.03125 48 33.890625 48 
Q 26.265625 48 22.1875 43.046875 
Q 18.109375 38.09375 18.109375 28.8125 
L 18.109375 0 
L 9.078125 0 
L 9.078125 54.6875 
L 18.109375 54.6875 
L 18.109375 46.1875 
Q 20.953125 51.171875 25.484375 53.578125 
Q 30.03125 56 36.53125 56 
Q 37.453125 56 38.578125 55.875 
Q 39.703125 55.765625 41.0625 55.515625 
z
" id="DejaVuSans-114"/>
      <path d="M 30.609375 48.390625 
Q 23.390625 48.390625 19.1875 42.75 
Q 14.984375 37.109375 14.984375 27.296875 
Q 14.984375 17.484375 19.15625 11.84375 
Q 23.34375 6.203125 30.609375 6.203125 
Q 37.796875 6.203125 41.984375 11.859375 
Q 46.1875 17.53125 46.1875 27.296875 
Q 46.1875 37.015625 41.984375 42.703125 
Q 37.796875 48.390625 30.609375 48.390625 
z
M 30.609375 56 
Q 42.328125 56 49.015625 48.375 
Q 55.71875 40.765625 55.71875 27.296875 
Q 55.71875 13.875 49.015625 6.21875 
Q 42.328125 -1.421875 30.609375 -1.421875 
Q 18.84375 -1.421875 12.171875 6.21875 
Q 5.515625 13.875 5.515625 27.296875 
Q 5.515625 40.765625 12.171875 48.375 
Q 18.84375 56 30.609375 56 
z
" id="DejaVuSans-111"/>
      <path d="M 48.78125 52.59375 
L 48.78125 44.1875 
Q 44.96875 46.296875 41.140625 47.34375 
Q 37.3125 48.390625 33.40625 48.390625 
Q 24.65625 48.390625 19.8125 42.84375 
Q 14.984375 37.3125 14.984375 27.296875 
Q 14.984375 17.28125 19.8125 11.734375 
Q 24.65625 6.203125 33.40625 6.203125 
Q 37.3125 6.203125 41.140625 7.25 
Q 44.96875 8.296875 48.78125 10.40625 
L 48.78125 2.09375 
Q 45.015625 0.34375 40.984375 -0.53125 
Q 36.96875 -1.421875 32.421875 -1.421875 
Q 20.0625 -1.421875 12.78125 6.34375 
Q 5.515625 14.109375 5.515625 27.296875 
Q 5.515625 40.671875 12.859375 48.328125 
Q 20.21875 56 33.015625 56 
Q 37.15625 56 41.109375 55.140625 
Q 45.0625 54.296875 48.78125 52.59375 
z
" id="DejaVuSans-99"/>
      <path d="M 9.421875 75.984375 
L 18.40625 75.984375 
L 18.40625 0 
L 9.421875 0 
z
" id="DejaVuSans-108"/>
     </defs>
     <g transform="translate(201.155501 38.916562)scale(0.1 -0.1)">
      <use xlink:href="#DejaVuSans-112"/>
      <use x="63.476562" xlink:href="#DejaVuSans-114"/>
      <use x="104.558594" xlink:href="#DejaVuSans-111"/>
      <use x="165.740234" xlink:href="#DejaVuSans-115"/>
      <use x="217.839844" xlink:href="#DejaVuSans-105"/>
      <use x="245.623047" xlink:href="#DejaVuSans-99"/>
      <use x="300.603516" xlink:href="#DejaVuSans-43"/>
      <use x="384.392578" xlink:href="#DejaVuSans-100"/>
      <use x="447.869141" xlink:href="#DejaVuSans-101"/>
      <use x="509.392578" xlink:href="#DejaVuSans-108"/>
      <use x="537.175781" xlink:href="#DejaVuSans-108"/>
      <use x="564.958984" xlink:href="#DejaVuSans-121"/>
     </g>
    </g>
    <g id="line2d_23">
     <path d="M 173.155501 50.094687 
L 193.155501 50.094687 
" style="fill:none;stroke:#ff7f0e;stroke-linecap:square;stroke-width:1.5;"/>
    </g>
    <g id="line2d_24"/>
    <g id="text_16">
     <!-- prosic+lancet -->
     <defs>
      <path d="M 34.28125 27.484375 
Q 23.390625 27.484375 19.1875 25 
Q 14.984375 22.515625 14.984375 16.5 
Q 14.984375 11.71875 18.140625 8.90625 
Q 21.296875 6.109375 26.703125 6.109375 
Q 34.1875 6.109375 38.703125 11.40625 
Q 43.21875 16.703125 43.21875 25.484375 
L 43.21875 27.484375 
z
M 52.203125 31.203125 
L 52.203125 0 
L 43.21875 0 
L 43.21875 8.296875 
Q 40.140625 3.328125 35.546875 0.953125 
Q 30.953125 -1.421875 24.3125 -1.421875 
Q 15.921875 -1.421875 10.953125 3.296875 
Q 6 8.015625 6 15.921875 
Q 6 25.140625 12.171875 29.828125 
Q 18.359375 34.515625 30.609375 34.515625 
L 43.21875 34.515625 
L 43.21875 35.40625 
Q 43.21875 41.609375 39.140625 45 
Q 35.0625 48.390625 27.6875 48.390625 
Q 23 48.390625 18.546875 47.265625 
Q 14.109375 46.140625 10.015625 43.890625 
L 10.015625 52.203125 
Q 14.9375 54.109375 19.578125 55.046875 
Q 24.21875 56 28.609375 56 
Q 40.484375 56 46.34375 49.84375 
Q 52.203125 43.703125 52.203125 31.203125 
z
" id="DejaVuSans-97"/>
     </defs>
     <g transform="translate(201.155501 53.594687)scale(0.1 -0.1)">
      <use xlink:href="#DejaVuSans-112"/>
      <use x="63.476562" xlink:href="#DejaVuSans-114"/>
      <use x="104.558594" xlink:href="#DejaVuSans-111"/>
      <use x="165.740234" xlink:href="#DejaVuSans-115"/>
      <use x="217.839844" xlink:href="#DejaVuSans-105"/>
      <use x="245.623047" xlink:href="#DejaVuSans-99"/>
      <use x="300.603516" xlink:href="#DejaVuSans-43"/>
      <use x="384.392578" xlink:href="#DejaVuSans-108"/>
      <use x="412.175781" xlink:href="#DejaVuSans-97"/>
      <use x="473.455078" xlink:href="#DejaVuSans-110"/>
      <use x="536.833984" xlink:href="#DejaVuSans-99"/>
      <use x="591.814453" xlink:href="#DejaVuSans-101"/>
      <use x="653.337891" xlink:href="#DejaVuSans-116"/>
     </g>
    </g>
    <g id="line2d_25">
     <path d="M 173.155501 64.772812 
L 193.155501 64.772812 
" style="fill:none;stroke:#2ca02c;stroke-linecap:square;stroke-width:1.5;"/>
    </g>
    <g id="line2d_26"/>
    <g id="text_17">
     <!-- prosic+manta -->
     <defs>
      <path d="M 52 44.1875 
Q 55.375 50.25 60.0625 53.125 
Q 64.75 56 71.09375 56 
Q 79.640625 56 84.28125 50.015625 
Q 88.921875 44.046875 88.921875 33.015625 
L 88.921875 0 
L 79.890625 0 
L 79.890625 32.71875 
Q 79.890625 40.578125 77.09375 44.375 
Q 74.3125 48.1875 68.609375 48.1875 
Q 61.625 48.1875 57.5625 43.546875 
Q 53.515625 38.921875 53.515625 30.90625 
L 53.515625 0 
L 44.484375 0 
L 44.484375 32.71875 
Q 44.484375 40.625 41.703125 44.40625 
Q 38.921875 48.1875 33.109375 48.1875 
Q 26.21875 48.1875 22.15625 43.53125 
Q 18.109375 38.875 18.109375 30.90625 
L 18.109375 0 
L 9.078125 0 
L 9.078125 54.6875 
L 18.109375 54.6875 
L 18.109375 46.1875 
Q 21.1875 51.21875 25.484375 53.609375 
Q 29.78125 56 35.6875 56 
Q 41.65625 56 45.828125 52.96875 
Q 50 49.953125 52 44.1875 
z
" id="DejaVuSans-109"/>
     </defs>
     <g transform="translate(201.155501 68.272812)scale(0.1 -0.1)">
      <use xlink:href="#DejaVuSans-112"/>
      <use x="63.476562" xlink:href="#DejaVuSans-114"/>
      <use x="104.558594" xlink:href="#DejaVuSans-111"/>
      <use x="165.740234" xlink:href="#DejaVuSans-115"/>
      <use x="217.839844" xlink:href="#DejaVuSans-105"/>
      <use x="245.623047" xlink:href="#DejaVuSans-99"/>
      <use x="300.603516" xlink:href="#DejaVuSans-43"/>
      <use x="384.392578" xlink:href="#DejaVuSans-109"/>
      <use x="481.804688" xlink:href="#DejaVuSans-97"/>
      <use x="543.083984" xlink:href="#DejaVuSans-110"/>
      <use x="606.462891" xlink:href="#DejaVuSans-116"/>
      <use x="645.671875" xlink:href="#DejaVuSans-97"/>
     </g>
    </g>
    <g id="line2d_27">
     <path d="M 173.155501 79.450937 
L 193.155501 79.450937 
" style="fill:none;stroke:#d62728;stroke-linecap:square;stroke-width:1.5;"/>
    </g>
    <g id="line2d_28"/>
    <g id="text_18">
     <!-- prosic+strelka -->
     <defs>
      <path d="M 9.078125 75.984375 
L 18.109375 75.984375 
L 18.109375 31.109375 
L 44.921875 54.6875 
L 56.390625 54.6875 
L 27.390625 29.109375 
L 57.625 0 
L 45.90625 0 
L 18.109375 26.703125 
L 18.109375 0 
L 9.078125 0 
z
" id="DejaVuSans-107"/>
     </defs>
     <g transform="translate(201.155501 82.950937)scale(0.1 -0.1)">
      <use xlink:href="#DejaVuSans-112"/>
      <use x="63.476562" xlink:href="#DejaVuSans-114"/>
      <use x="104.558594" xlink:href="#DejaVuSans-111"/>
      <use x="165.740234" xlink:href="#DejaVuSans-115"/>
      <use x="217.839844" xlink:href="#DejaVuSans-105"/>
      <use x="245.623047" xlink:href="#DejaVuSans-99"/>
      <use x="300.603516" xlink:href="#DejaVuSans-43"/>
      <use x="384.392578" xlink:href="#DejaVuSans-115"/>
      <use x="436.492188" xlink:href="#DejaVuSans-116"/>
      <use x="475.701172" xlink:href="#DejaVuSans-114"/>
      <use x="516.783203" xlink:href="#DejaVuSans-101"/>
      <use x="578.306641" xlink:href="#DejaVuSans-108"/>
      <use x="606.089844" xlink:href="#DejaVuSans-107"/>
      <use x="663.984375" xlink:href="#DejaVuSans-97"/>
     </g>
    </g>
   </g>
  </g>
  <g id="axes_2">
   <g id="patch_6">
    <path d="M 326.175436 255.358125 
L 558.71375 255.358125 
L 558.71375 22.318125 
L 326.175436 22.318125 
z
" style="fill:#ffffff;"/>
   </g>
   <g id="matplotlib.axis_3">
    <g id="xtick_6">
     <g id="line2d_29">
      <g>
       <use style="stroke:#000000;stroke-width:0.8;" x="363.267113" xlink:href="#mcbdccc98d2" y="255.358125"/>
      </g>
     </g>
     <g id="text_19">
      <!-- 0.007 -->
      <g transform="translate(348.95305 269.956562)scale(0.1 -0.1)">
       <use xlink:href="#DejaVuSans-48"/>
       <use x="63.623047" xlink:href="#DejaVuSans-46"/>
       <use x="95.410156" xlink:href="#DejaVuSans-48"/>
       <use x="159.033203" xlink:href="#DejaVuSans-48"/>
       <use x="222.65625" xlink:href="#DejaVuSans-55"/>
      </g>
     </g>
    </g>
    <g id="xtick_7">
     <g id="line2d_30">
      <g>
       <use style="stroke:#000000;stroke-width:0.8;" x="416.914186" xlink:href="#mcbdccc98d2" y="255.358125"/>
      </g>
     </g>
     <g id="text_20">
      <!-- 1 -->
      <g transform="translate(413.732936 269.956562)scale(0.1 -0.1)">
       <use xlink:href="#DejaVuSans-49"/>
      </g>
     </g>
    </g>
    <g id="xtick_8">
     <g id="line2d_31">
      <g>
       <use style="stroke:#000000;stroke-width:0.8;" x="470.561259" xlink:href="#mcbdccc98d2" y="255.358125"/>
      </g>
     </g>
     <g id="text_21">
      <!-- 1e+02 -->
      <g transform="translate(453.751103 269.956562)scale(0.1 -0.1)">
       <use xlink:href="#DejaVuSans-49"/>
       <use x="63.623047" xlink:href="#DejaVuSans-101"/>
       <use x="125.146484" xlink:href="#DejaVuSans-43"/>
       <use x="208.935547" xlink:href="#DejaVuSans-48"/>
       <use x="272.558594" xlink:href="#DejaVuSans-50"/>
      </g>
     </g>
    </g>
    <g id="xtick_9">
     <g id="line2d_32">
      <g>
       <use style="stroke:#000000;stroke-width:0.8;" x="524.208332" xlink:href="#mcbdccc98d2" y="255.358125"/>
      </g>
     </g>
     <g id="text_22">
      <!-- 2e+04 -->
      <g transform="translate(507.398176 269.956562)scale(0.1 -0.1)">
       <use xlink:href="#DejaVuSans-50"/>
       <use x="63.623047" xlink:href="#DejaVuSans-101"/>
       <use x="125.146484" xlink:href="#DejaVuSans-43"/>
       <use x="208.935547" xlink:href="#DejaVuSans-48"/>
       <use x="272.558594" xlink:href="#DejaVuSans-52"/>
      </g>
     </g>
    </g>
   </g>
   <g id="matplotlib.axis_4">
    <g id="ytick_8">
     <g id="line2d_33">
      <g>
       <use style="stroke:#000000;stroke-width:0.8;" x="326.175436" xlink:href="#m3f896dd663" y="255.358125"/>
      </g>
     </g>
     <g id="text_23">
      <!-- 0.0 -->
      <g transform="translate(303.272311 259.157344)scale(0.1 -0.1)">
       <use xlink:href="#DejaVuSans-48"/>
       <use x="63.623047" xlink:href="#DejaVuSans-46"/>
       <use x="95.410156" xlink:href="#DejaVuSans-48"/>
      </g>
     </g>
    </g>
    <g id="ytick_9">
     <g id="line2d_34">
      <g>
       <use style="stroke:#000000;stroke-width:0.8;" x="326.175436" xlink:href="#m3f896dd663" y="227.483746"/>
      </g>
     </g>
     <g id="text_24">
      <!-- 0.5 -->
      <g transform="translate(303.272311 231.282965)scale(0.1 -0.1)">
       <use xlink:href="#DejaVuSans-48"/>
       <use x="63.623047" xlink:href="#DejaVuSans-46"/>
       <use x="95.410156" xlink:href="#DejaVuSans-53"/>
      </g>
     </g>
    </g>
    <g id="ytick_10">
     <g id="line2d_35">
      <g>
       <use style="stroke:#000000;stroke-width:0.8;" x="326.175436" xlink:href="#m3f896dd663" y="199.609367"/>
      </g>
     </g>
     <g id="text_25">
      <!-- 1.0 -->
      <g transform="translate(303.272311 203.408585)scale(0.1 -0.1)">
       <use xlink:href="#DejaVuSans-49"/>
       <use x="63.623047" xlink:href="#DejaVuSans-46"/>
       <use x="95.410156" xlink:href="#DejaVuSans-48"/>
      </g>
     </g>
    </g>
    <g id="ytick_11">
     <g id="line2d_36">
      <g>
       <use style="stroke:#000000;stroke-width:0.8;" x="326.175436" xlink:href="#m3f896dd663" y="171.734987"/>
      </g>
     </g>
     <g id="text_26">
      <!-- 1.5 -->
      <g transform="translate(303.272311 175.534206)scale(0.1 -0.1)">
       <use xlink:href="#DejaVuSans-49"/>
       <use x="63.623047" xlink:href="#DejaVuSans-46"/>
       <use x="95.410156" xlink:href="#DejaVuSans-53"/>
      </g>
     </g>
    </g>
    <g id="ytick_12">
     <g id="line2d_37">
      <g>
       <use style="stroke:#000000;stroke-width:0.8;" x="326.175436" xlink:href="#m3f896dd663" y="143.860608"/>
      </g>
     </g>
     <g id="text_27">
      <!-- 2.0 -->
      <g transform="translate(303.272311 147.659827)scale(0.1 -0.1)">
       <use xlink:href="#DejaVuSans-50"/>
       <use x="63.623047" xlink:href="#DejaVuSans-46"/>
       <use x="95.410156" xlink:href="#DejaVuSans-48"/>
      </g>
     </g>
    </g>
    <g id="ytick_13">
     <g id="line2d_38">
      <g>
       <use style="stroke:#000000;stroke-width:0.8;" x="326.175436" xlink:href="#m3f896dd663" y="115.986229"/>
      </g>
     </g>
     <g id="text_28">
      <!-- 2.5 -->
      <g transform="translate(303.272311 119.785448)scale(0.1 -0.1)">
       <use xlink:href="#DejaVuSans-50"/>
       <use x="63.623047" xlink:href="#DejaVuSans-46"/>
       <use x="95.410156" xlink:href="#DejaVuSans-53"/>
      </g>
     </g>
    </g>
    <g id="ytick_14">
     <g id="line2d_39">
      <g>
       <use style="stroke:#000000;stroke-width:0.8;" x="326.175436" xlink:href="#m3f896dd663" y="88.11185"/>
      </g>
     </g>
     <g id="text_29">
      <!-- 3.0 -->
      <g transform="translate(303.272311 91.911068)scale(0.1 -0.1)">
       <use xlink:href="#DejaVuSans-51"/>
       <use x="63.623047" xlink:href="#DejaVuSans-46"/>
       <use x="95.410156" xlink:href="#DejaVuSans-48"/>
      </g>
     </g>
    </g>
    <g id="ytick_15">
     <g id="line2d_40">
      <g>
       <use style="stroke:#000000;stroke-width:0.8;" x="326.175436" xlink:href="#m3f896dd663" y="60.23747"/>
      </g>
     </g>
     <g id="text_30">
      <!-- 3.5 -->
      <g transform="translate(303.272311 64.036689)scale(0.1 -0.1)">
       <use xlink:href="#DejaVuSans-51"/>
       <use x="63.623047" xlink:href="#DejaVuSans-46"/>
       <use x="95.410156" xlink:href="#DejaVuSans-53"/>
      </g>
     </g>
    </g>
    <g id="ytick_16">
     <g id="line2d_41">
      <g>
       <use style="stroke:#000000;stroke-width:0.8;" x="326.175436" xlink:href="#m3f896dd663" y="32.363091"/>
      </g>
     </g>
     <g id="text_31">
      <!-- 4.0 -->
      <g transform="translate(303.272311 36.16231)scale(0.1 -0.1)">
       <use xlink:href="#DejaVuSans-52"/>
       <use x="63.623047" xlink:href="#DejaVuSans-46"/>
       <use x="95.410156" xlink:href="#DejaVuSans-48"/>
      </g>
     </g>
    </g>
   </g>
   <g id="line2d_42">
    <path clip-path="url(#p1a6fc48119)" d="M 385.817764 251.924579 
L 386.60924 255.358125 
L 387.400716 111.830913 
L 388.192192 33.415268 
L 388.983667 130.936329 
L 389.775143 204.986844 
L 390.566619 232.371055 
L 391.358095 238.956107 
L 392.149571 251.168864 
L 392.941047 245.37252 
L 393.732523 247.37156 
L 394.523999 251.268218 
L 395.315475 254.465168 
L 396.106951 255.358125 
L 396.898427 253.704465 
L 397.689903 254.324632 
L 398.481379 251.824305 
L 399.272855 254.658602 
L 400.064331 255.328114 
L 400.855806 255.272732 
L 401.647282 255.358125 
L 402.438758 252.911194 
L 403.230234 255.358125 
L 404.02171 255.208814 
L 404.813186 255.358125 
L 405.604662 255.294049 
L 407.187614 255.326743 
L 410.353518 255.35045 
L 421.434181 255.358125 
L 436.472224 255.350426 
L 448.344363 255.358125 
L 457.050598 255.341919 
L 462.590929 255.358125 
L 466.548309 255.325433 
L 468.922737 255.358125 
L 471.297165 255.303826 
L 472.088641 255.358125 
L 472.880117 255.291585 
L 473.671592 255.358125 
L 474.463068 255.274783 
L 475.254544 255.358125 
L 476.04602 255.250995 
L 476.837496 255.358125 
L 477.628972 255.21602 
L 478.420448 255.358125 
L 479.211924 255.162125 
L 480.0034 255.358125 
L 480.794876 255.073949 
L 481.586352 255.358125 
L 482.377828 254.9178 
L 483.169304 255.358125 
L 483.96078 254.595856 
L 484.752256 255.358125 
L 485.543731 252.184796 
L 486.335207 255.358125 
L 486.335207 255.358125 
" style="fill:none;stroke:#1f77b4;stroke-linecap:square;stroke-width:1.5;"/>
   </g>
   <g id="line2d_43">
    <path clip-path="url(#p1a6fc48119)" d="M 440.188751 255.346122 
L 443.438796 255.224595 
L 447.772189 254.842338 
L 449.938885 255.042147 
L 452.647255 255.30071 
L 456.438974 255.357439 
L 469.439152 255.274264 
L 471.064174 255.053446 
L 472.689197 254.567966 
L 474.314219 253.820273 
L 476.480915 252.581983 
L 477.564263 251.699526 
L 478.105937 251.072927 
L 478.647611 250.25228 
L 479.189286 249.185331 
L 479.73096 247.831794 
L 480.814308 244.222492 
L 482.43933 237.236399 
L 483.522678 232.672626 
L 484.606026 229.159319 
L 485.1477 227.935331 
L 485.689375 227.063109 
L 486.231049 226.496019 
L 486.772723 226.164503 
L 487.856071 225.900096 
L 489.481093 225.66048 
L 490.564441 225.338708 
L 491.64779 224.775354 
L 492.731138 223.780344 
L 494.897834 220.998129 
L 495.439508 220.718216 
L 495.981182 220.907537 
L 496.522856 221.690775 
L 497.06453 223.1337 
L 497.606204 225.22744 
L 498.689553 230.966335 
L 500.856249 243.80484 
L 501.939597 248.584052 
L 503.022945 251.779287 
L 503.564619 252.858095 
L 504.106293 253.659111 
L 504.647968 254.236173 
L 505.731316 254.911927 
L 506.814664 255.202773 
L 508.439686 255.33246 
L 508.98136 255.342953 
L 508.98136 255.342953 
" style="fill:none;stroke:#1f77b4;stroke-dasharray:1.5,2.475;stroke-dashoffset:0;stroke-width:1.5;"/>
   </g>
   <g id="line2d_44">
    <path clip-path="url(#p1a6fc48119)" d="M 336.745359 255.354843 
L 339.428693 255.298032 
L 342.112026 254.995774 
L 347.478693 253.958039 
L 348.82036 253.129353 
L 351.503693 250.497973 
L 352.84536 248.946479 
L 354.187027 246.785886 
L 358.212027 237.954525 
L 360.89536 234.087743 
L 363.578694 229.184732 
L 366.262027 224.013486 
L 367.603694 222.226672 
L 368.945361 222.277208 
L 370.287027 224.772982 
L 371.628694 229.296772 
L 374.312027 239.567211 
L 375.653694 243.422908 
L 376.995361 246.225511 
L 378.337027 248.19604 
L 379.678694 249.359919 
L 382.362028 250.542811 
L 383.703694 251.681915 
L 385.045361 253.00518 
L 386.387028 253.878902 
L 387.728694 254.145676 
L 390.412028 254.204829 
L 393.095361 254.836849 
L 394.437028 255.129452 
L 397.120361 255.341639 
L 409.195362 255.358125 
L 418.587029 255.263112 
L 421.270362 255.150525 
L 430.662029 255.358115 
L 484.328698 255.31939 
L 487.012031 255.069312 
L 489.695365 254.739688 
L 491.037031 254.74421 
L 497.745365 255.255785 
L 501.770365 255.180416 
L 507.137032 255.355174 
L 507.137032 255.355174 
" style="fill:none;stroke:#ff7f0e;stroke-linecap:square;stroke-width:1.5;"/>
   </g>
   <g id="line2d_45">
    <path clip-path="url(#p1a6fc48119)" d="M 348.686858 255.356749 
L 352.566404 255.22838 
L 361.618677 254.360893 
L 362.911858 254.40213 
L 365.498222 254.800537 
L 366.791404 254.826621 
L 369.377768 254.721499 
L 373.257313 254.872949 
L 381.016404 255.241417 
L 383.602768 255.334258 
L 390.068677 255.290616 
L 393.948222 255.306132 
L 399.12095 255.358106 
L 431.450496 255.286785 
L 434.036859 255.148001 
L 436.623223 254.777723 
L 437.916405 254.84012 
L 439.209587 255.020318 
L 440.502769 255.026859 
L 443.089132 254.658014 
L 444.382314 254.637622 
L 446.968678 255.071362 
L 448.26186 255.264349 
L 450.848223 255.355944 
L 456.020951 255.283212 
L 462.48686 255.126834 
L 467.659587 255.083265 
L 468.952769 254.957436 
L 470.245951 254.706988 
L 474.125496 253.684828 
L 475.418678 253.382775 
L 476.71186 252.856661 
L 478.005042 251.768619 
L 480.591405 248.289911 
L 481.884587 246.435558 
L 483.177769 244.004957 
L 484.470951 240.345587 
L 488.350496 227.28437 
L 489.643678 223.840222 
L 490.93686 221.819491 
L 492.230042 221.040714 
L 493.523224 221.147615 
L 494.816406 222.122313 
L 496.109587 223.93105 
L 497.402769 226.849753 
L 499.989133 235.448062 
L 502.575497 244.360888 
L 503.868678 248.822323 
L 505.16186 252.102534 
L 506.455042 253.914456 
L 507.748224 254.73644 
L 509.041406 255.111932 
L 510.334588 255.284649 
L 512.920951 255.356318 
L 512.920951 255.356318 
" style="fill:none;stroke:#ff7f0e;stroke-dasharray:1.5,2.475;stroke-dashoffset:0;stroke-width:1.5;"/>
   </g>
   <g id="line2d_46">
    <path clip-path="url(#p1a6fc48119)" d="M 337.975974 255.346829 
L 340.673382 255.262273 
L 343.370789 254.928108 
L 347.416901 254.03539 
L 348.765605 253.529752 
L 350.114309 252.766375 
L 354.16042 249.739274 
L 355.509124 248.670688 
L 356.857828 247.149595 
L 358.206532 244.749227 
L 359.555236 241.270476 
L 363.601348 227.822448 
L 364.950051 224.495587 
L 366.298755 222.619307 
L 367.647459 222.366718 
L 368.996163 223.718912 
L 370.344867 226.479897 
L 371.693571 230.262017 
L 374.390979 238.567701 
L 375.739682 241.883526 
L 377.088386 244.207066 
L 378.43709 245.688164 
L 385.18061 250.898671 
L 386.529313 251.651239 
L 387.878017 252.098704 
L 390.575425 252.763505 
L 393.272833 253.899436 
L 394.621537 254.487126 
L 395.970241 254.924088 
L 397.318945 255.180014 
L 400.016352 255.341904 
L 413.503391 255.358125 
L 467.451546 255.316245 
L 470.148954 255.096764 
L 472.846362 254.694671 
L 474.195066 254.603913 
L 475.54377 254.673174 
L 479.589881 255.223417 
L 482.287289 255.342951 
L 493.07692 255.334044 
L 495.774328 255.181177 
L 499.820439 254.650075 
L 501.169143 254.627013 
L 503.866551 254.95111 
L 506.563959 255.263246 
L 509.261367 255.346846 
L 509.261367 255.346846 
" style="fill:none;stroke:#2ca02c;stroke-linecap:square;stroke-width:1.5;"/>
   </g>
   <g id="line2d_47">
    <path clip-path="url(#p1a6fc48119)" d="M 439.207263 255.354828 
L 442.684747 255.231138 
L 445.00307 255.156211 
L 450.798878 255.357808 
L 467.606721 255.270887 
L 472.822948 254.767075 
L 476.300433 254.287111 
L 477.459594 253.710524 
L 480.357498 251.579564 
L 481.51666 250.706012 
L 482.096241 250.117221 
L 482.675822 249.351944 
L 483.255402 248.376794 
L 484.414564 245.727638 
L 485.573725 242.090494 
L 486.732887 237.524055 
L 488.471629 229.334353 
L 489.630791 224.033672 
L 490.210372 222.042855 
L 490.789953 220.747908 
L 491.369533 220.190139 
L 491.949114 220.252426 
L 493.687856 221.501662 
L 494.267437 221.420686 
L 494.847018 220.928765 
L 496.00618 219.350979 
L 496.58576 218.802793 
L 497.165341 218.750664 
L 497.744922 219.313227 
L 498.324503 220.468653 
L 499.483664 224.036205 
L 500.642826 228.519353 
L 501.801987 233.774945 
L 504.699891 247.868416 
L 505.279472 249.889356 
L 505.859053 251.486023 
L 506.438634 252.692229 
L 507.018215 253.570128 
L 507.597795 254.190067 
L 508.177376 254.616894 
L 509.336538 255.091126 
L 510.495699 255.280035 
L 512.814022 255.354621 
L 512.814022 255.354621 
" style="fill:none;stroke:#2ca02c;stroke-dasharray:1.5,2.475;stroke-dashoffset:0;stroke-width:1.5;"/>
   </g>
   <g id="line2d_48">
    <path clip-path="url(#p1a6fc48119)" d="M 337.999487 255.341787 
L 340.946259 255.241591 
L 343.401902 254.912131 
L 346.839803 254.155791 
L 348.313189 253.676034 
L 349.786575 252.911799 
L 351.259961 251.844852 
L 356.171247 247.781421 
L 357.153504 246.449539 
L 358.135761 244.601155 
L 359.118019 242.165271 
L 360.100276 239.181738 
L 362.555919 230.531856 
L 364.029305 225.888959 
L 365.011562 223.57516 
L 365.502691 222.72361 
L 365.99382 222.095953 
L 366.484948 221.701568 
L 366.976077 221.545329 
L 367.467206 221.627638 
L 367.958334 221.944339 
L 368.449463 222.486596 
L 369.43172 224.189001 
L 370.413977 226.574904 
L 371.887363 230.963214 
L 374.343006 238.460787 
L 375.325264 240.90657 
L 376.307521 242.843259 
L 377.289778 244.274655 
L 378.272036 245.301198 
L 379.745421 246.423187 
L 381.709936 247.851729 
L 386.130094 251.36053 
L 387.112351 251.791787 
L 388.585737 252.194077 
L 390.550251 252.698657 
L 392.023637 253.276534 
L 395.461538 254.760921 
L 396.934924 255.11276 
L 398.899438 255.305304 
L 400.372824 255.340492 
L 400.372824 255.340492 
" style="fill:none;stroke:#d62728;stroke-linecap:square;stroke-width:1.5;"/>
   </g>
   <g id="line2d_49">
    <path clip-path="url(#p1a6fc48119)" d="M 391.97642 255.211992 
L 399.354407 255.084518 
L 405.50273 254.763793 
L 410.421389 254.306318 
L 415.340047 253.626874 
L 420.258706 252.718976 
L 427.636694 251.061949 
L 433.785017 249.710772 
L 437.474011 249.073729 
L 441.163004 248.652452 
L 444.851998 248.487306 
L 448.540992 248.580371 
L 452.229986 248.891931 
L 459.607974 249.842404 
L 464.526632 250.39265 
L 468.215626 250.611614 
L 471.90462 250.611614 
L 475.593614 250.39265 
L 480.512272 249.842404 
L 489.119925 248.76787 
L 492.808919 248.522271 
L 496.497912 248.512904 
L 500.186906 248.765703 
L 503.8759 249.26502 
L 508.794559 250.222564 
L 523.550534 253.420446 
L 528.469193 254.158302 
L 533.387851 254.668374 
L 539.536174 255.038743 
L 546.914162 255.206267 
L 548.143827 255.211992 
L 548.143827 255.211992 
" style="fill:none;stroke:#d62728;stroke-dasharray:1.5,2.475;stroke-dashoffset:0;stroke-width:1.5;"/>
   </g>
   <g id="patch_7">
    <path d="M 326.175436 255.358125 
L 326.175436 22.318125 
" style="fill:none;stroke:#000000;stroke-linecap:square;stroke-linejoin:miter;stroke-width:0.8;"/>
   </g>
   <g id="patch_8">
    <path d="M 326.175436 255.358125 
L 558.71375 255.358125 
" style="fill:none;stroke:#000000;stroke-linecap:square;stroke-linejoin:miter;stroke-width:0.8;"/>
   </g>
   <g id="text_32">
    <!-- 30 - 50 -->
    <g transform="translate(421.196156 16.318125)scale(0.12 -0.12)">
     <use xlink:href="#DejaVuSans-51"/>
     <use x="63.623047" xlink:href="#DejaVuSans-48"/>
     <use x="127.246094" xlink:href="#DejaVuSans-32"/>
     <use x="159.033203" xlink:href="#DejaVuSans-45"/>
     <use x="195.117188" xlink:href="#DejaVuSans-32"/>
     <use x="226.904297" xlink:href="#DejaVuSans-53"/>
     <use x="290.527344" xlink:href="#DejaVuSans-48"/>
    </g>
   </g>
  </g>
  <g id="axes_3">
   <g id="patch_9">
    <path d="M 50.14375 530.918125 
L 282.682064 530.918125 
L 282.682064 297.878125 
L 50.14375 297.878125 
z
" style="fill:#ffffff;"/>
   </g>
   <g id="matplotlib.axis_5">
    <g id="xtick_10">
     <g id="line2d_50">
      <g>
       <use style="stroke:#000000;stroke-width:0.8;" x="89.240785" xlink:href="#mcbdccc98d2" y="530.918125"/>
      </g>
     </g>
     <g id="text_33">
      <!-- 0.007 -->
      <g transform="translate(74.926723 545.516562)scale(0.1 -0.1)">
       <use xlink:href="#DejaVuSans-48"/>
       <use x="63.623047" xlink:href="#DejaVuSans-46"/>
       <use x="95.410156" xlink:href="#DejaVuSans-48"/>
       <use x="159.033203" xlink:href="#DejaVuSans-48"/>
       <use x="222.65625" xlink:href="#DejaVuSans-55"/>
      </g>
     </g>
    </g>
    <g id="xtick_11">
     <g id="line2d_51">
      <g>
       <use style="stroke:#000000;stroke-width:0.8;" x="154.396587" xlink:href="#mcbdccc98d2" y="530.918125"/>
      </g>
     </g>
     <g id="text_34">
      <!-- 1 -->
      <g transform="translate(151.215337 545.516562)scale(0.1 -0.1)">
       <use xlink:href="#DejaVuSans-49"/>
      </g>
     </g>
    </g>
    <g id="xtick_12">
     <g id="line2d_52">
      <g>
       <use style="stroke:#000000;stroke-width:0.8;" x="219.552389" xlink:href="#mcbdccc98d2" y="530.918125"/>
      </g>
     </g>
     <g id="text_35">
      <!-- 1e+02 -->
      <g transform="translate(202.742232 545.516562)scale(0.1 -0.1)">
       <use xlink:href="#DejaVuSans-49"/>
       <use x="63.623047" xlink:href="#DejaVuSans-101"/>
       <use x="125.146484" xlink:href="#DejaVuSans-43"/>
       <use x="208.935547" xlink:href="#DejaVuSans-48"/>
       <use x="272.558594" xlink:href="#DejaVuSans-50"/>
      </g>
     </g>
    </g>
    <g id="text_36">
     <!-- Pr(somatic) (PHRED) -->
     <defs>
      <path d="M 19.671875 64.796875 
L 19.671875 37.40625 
L 32.078125 37.40625 
Q 38.96875 37.40625 42.71875 40.96875 
Q 46.484375 44.53125 46.484375 51.125 
Q 46.484375 57.671875 42.71875 61.234375 
Q 38.96875 64.796875 32.078125 64.796875 
z
M 9.8125 72.90625 
L 32.078125 72.90625 
Q 44.34375 72.90625 50.609375 67.359375 
Q 56.890625 61.8125 56.890625 51.125 
Q 56.890625 40.328125 50.609375 34.8125 
Q 44.34375 29.296875 32.078125 29.296875 
L 19.671875 29.296875 
L 19.671875 0 
L 9.8125 0 
z
" id="DejaVuSans-80"/>
      <path d="M 31 75.875 
Q 24.46875 64.65625 21.28125 53.65625 
Q 18.109375 42.671875 18.109375 31.390625 
Q 18.109375 20.125 21.3125 9.0625 
Q 24.515625 -2 31 -13.1875 
L 23.1875 -13.1875 
Q 15.875 -1.703125 12.234375 9.375 
Q 8.59375 20.453125 8.59375 31.390625 
Q 8.59375 42.28125 12.203125 53.3125 
Q 15.828125 64.359375 23.1875 75.875 
z
" id="DejaVuSans-40"/>
      <path d="M 8.015625 75.875 
L 15.828125 75.875 
Q 23.140625 64.359375 26.78125 53.3125 
Q 30.421875 42.28125 30.421875 31.390625 
Q 30.421875 20.453125 26.78125 9.375 
Q 23.140625 -1.703125 15.828125 -13.1875 
L 8.015625 -13.1875 
Q 14.5 -2 17.703125 9.0625 
Q 20.90625 20.125 20.90625 31.390625 
Q 20.90625 42.671875 17.703125 53.65625 
Q 14.5 64.65625 8.015625 75.875 
z
" id="DejaVuSans-41"/>
      <path d="M 9.8125 72.90625 
L 19.671875 72.90625 
L 19.671875 43.015625 
L 55.515625 43.015625 
L 55.515625 72.90625 
L 65.375 72.90625 
L 65.375 0 
L 55.515625 0 
L 55.515625 34.71875 
L 19.671875 34.71875 
L 19.671875 0 
L 9.8125 0 
z
" id="DejaVuSans-72"/>
      <path d="M 44.390625 34.1875 
Q 47.5625 33.109375 50.5625 29.59375 
Q 53.5625 26.078125 56.59375 19.921875 
L 66.609375 0 
L 56 0 
L 46.6875 18.703125 
Q 43.0625 26.03125 39.671875 28.421875 
Q 36.28125 30.8125 30.421875 30.8125 
L 19.671875 30.8125 
L 19.671875 0 
L 9.8125 0 
L 9.8125 72.90625 
L 32.078125 72.90625 
Q 44.578125 72.90625 50.734375 67.671875 
Q 56.890625 62.453125 56.890625 51.90625 
Q 56.890625 45.015625 53.6875 40.46875 
Q 50.484375 35.9375 44.390625 34.1875 
z
M 19.671875 64.796875 
L 19.671875 38.921875 
L 32.078125 38.921875 
Q 39.203125 38.921875 42.84375 42.21875 
Q 46.484375 45.515625 46.484375 51.90625 
Q 46.484375 58.296875 42.84375 61.546875 
Q 39.203125 64.796875 32.078125 64.796875 
z
" id="DejaVuSans-82"/>
      <path d="M 9.8125 72.90625 
L 55.90625 72.90625 
L 55.90625 64.59375 
L 19.671875 64.59375 
L 19.671875 43.015625 
L 54.390625 43.015625 
L 54.390625 34.71875 
L 19.671875 34.71875 
L 19.671875 8.296875 
L 56.78125 8.296875 
L 56.78125 0 
L 9.8125 0 
z
" id="DejaVuSans-69"/>
      <path d="M 19.671875 64.796875 
L 19.671875 8.109375 
L 31.59375 8.109375 
Q 46.6875 8.109375 53.6875 14.9375 
Q 60.6875 21.78125 60.6875 36.53125 
Q 60.6875 51.171875 53.6875 57.984375 
Q 46.6875 64.796875 31.59375 64.796875 
z
M 9.8125 72.90625 
L 30.078125 72.90625 
Q 51.265625 72.90625 61.171875 64.09375 
Q 71.09375 55.28125 71.09375 36.53125 
Q 71.09375 17.671875 61.125 8.828125 
Q 51.171875 0 30.078125 0 
L 9.8125 0 
z
" id="DejaVuSans-68"/>
     </defs>
     <g transform="translate(114.995719 559.194687)scale(0.1 -0.1)">
      <use xlink:href="#DejaVuSans-80"/>
      <use x="60.287109" xlink:href="#DejaVuSans-114"/>
      <use x="101.400391" xlink:href="#DejaVuSans-40"/>
      <use x="140.414062" xlink:href="#DejaVuSans-115"/>
      <use x="192.513672" xlink:href="#DejaVuSans-111"/>
      <use x="253.695312" xlink:href="#DejaVuSans-109"/>
      <use x="351.107422" xlink:href="#DejaVuSans-97"/>
      <use x="412.386719" xlink:href="#DejaVuSans-116"/>
      <use x="451.595703" xlink:href="#DejaVuSans-105"/>
      <use x="479.378906" xlink:href="#DejaVuSans-99"/>
      <use x="534.359375" xlink:href="#DejaVuSans-41"/>
      <use x="573.373047" xlink:href="#DejaVuSans-32"/>
      <use x="605.160156" xlink:href="#DejaVuSans-40"/>
      <use x="644.173828" xlink:href="#DejaVuSans-80"/>
      <use x="704.476562" xlink:href="#DejaVuSans-72"/>
      <use x="779.671875" xlink:href="#DejaVuSans-82"/>
      <use x="849.154297" xlink:href="#DejaVuSans-69"/>
      <use x="912.337891" xlink:href="#DejaVuSans-68"/>
      <use x="989.339844" xlink:href="#DejaVuSans-41"/>
     </g>
    </g>
   </g>
   <g id="matplotlib.axis_6">
    <g id="ytick_17">
     <g id="line2d_53">
      <g>
       <use style="stroke:#000000;stroke-width:0.8;" x="50.14375" xlink:href="#m3f896dd663" y="530.918125"/>
      </g>
     </g>
     <g id="text_37">
      <!-- 0.00 -->
      <g transform="translate(20.878125 534.717344)scale(0.1 -0.1)">
       <use xlink:href="#DejaVuSans-48"/>
       <use x="63.623047" xlink:href="#DejaVuSans-46"/>
       <use x="95.410156" xlink:href="#DejaVuSans-48"/>
       <use x="159.033203" xlink:href="#DejaVuSans-48"/>
      </g>
     </g>
    </g>
    <g id="ytick_18">
     <g id="line2d_54">
      <g>
       <use style="stroke:#000000;stroke-width:0.8;" x="50.14375" xlink:href="#m3f896dd663" y="500.835046"/>
      </g>
     </g>
     <g id="text_38">
      <!-- 0.25 -->
      <g transform="translate(20.878125 504.634265)scale(0.1 -0.1)">
       <use xlink:href="#DejaVuSans-48"/>
       <use x="63.623047" xlink:href="#DejaVuSans-46"/>
       <use x="95.410156" xlink:href="#DejaVuSans-50"/>
       <use x="159.033203" xlink:href="#DejaVuSans-53"/>
      </g>
     </g>
    </g>
    <g id="ytick_19">
     <g id="line2d_55">
      <g>
       <use style="stroke:#000000;stroke-width:0.8;" x="50.14375" xlink:href="#m3f896dd663" y="470.751967"/>
      </g>
     </g>
     <g id="text_39">
      <!-- 0.50 -->
      <g transform="translate(20.878125 474.551186)scale(0.1 -0.1)">
       <use xlink:href="#DejaVuSans-48"/>
       <use x="63.623047" xlink:href="#DejaVuSans-46"/>
       <use x="95.410156" xlink:href="#DejaVuSans-53"/>
       <use x="159.033203" xlink:href="#DejaVuSans-48"/>
      </g>
     </g>
    </g>
    <g id="ytick_20">
     <g id="line2d_56">
      <g>
       <use style="stroke:#000000;stroke-width:0.8;" x="50.14375" xlink:href="#m3f896dd663" y="440.668889"/>
      </g>
     </g>
     <g id="text_40">
      <!-- 0.75 -->
      <g transform="translate(20.878125 444.468107)scale(0.1 -0.1)">
       <use xlink:href="#DejaVuSans-48"/>
       <use x="63.623047" xlink:href="#DejaVuSans-46"/>
       <use x="95.410156" xlink:href="#DejaVuSans-55"/>
       <use x="159.033203" xlink:href="#DejaVuSans-53"/>
      </g>
     </g>
    </g>
    <g id="ytick_21">
     <g id="line2d_57">
      <g>
       <use style="stroke:#000000;stroke-width:0.8;" x="50.14375" xlink:href="#m3f896dd663" y="410.58581"/>
      </g>
     </g>
     <g id="text_41">
      <!-- 1.00 -->
      <g transform="translate(20.878125 414.385029)scale(0.1 -0.1)">
       <use xlink:href="#DejaVuSans-49"/>
       <use x="63.623047" xlink:href="#DejaVuSans-46"/>
       <use x="95.410156" xlink:href="#DejaVuSans-48"/>
       <use x="159.033203" xlink:href="#DejaVuSans-48"/>
      </g>
     </g>
    </g>
    <g id="ytick_22">
     <g id="line2d_58">
      <g>
       <use style="stroke:#000000;stroke-width:0.8;" x="50.14375" xlink:href="#m3f896dd663" y="380.502731"/>
      </g>
     </g>
     <g id="text_42">
      <!-- 1.25 -->
      <g transform="translate(20.878125 384.30195)scale(0.1 -0.1)">
       <use xlink:href="#DejaVuSans-49"/>
       <use x="63.623047" xlink:href="#DejaVuSans-46"/>
       <use x="95.410156" xlink:href="#DejaVuSans-50"/>
       <use x="159.033203" xlink:href="#DejaVuSans-53"/>
      </g>
     </g>
    </g>
    <g id="ytick_23">
     <g id="line2d_59">
      <g>
       <use style="stroke:#000000;stroke-width:0.8;" x="50.14375" xlink:href="#m3f896dd663" y="350.419652"/>
      </g>
     </g>
     <g id="text_43">
      <!-- 1.50 -->
      <g transform="translate(20.878125 354.218871)scale(0.1 -0.1)">
       <use xlink:href="#DejaVuSans-49"/>
       <use x="63.623047" xlink:href="#DejaVuSans-46"/>
       <use x="95.410156" xlink:href="#DejaVuSans-53"/>
       <use x="159.033203" xlink:href="#DejaVuSans-48"/>
      </g>
     </g>
    </g>
    <g id="ytick_24">
     <g id="line2d_60">
      <g>
       <use style="stroke:#000000;stroke-width:0.8;" x="50.14375" xlink:href="#m3f896dd663" y="320.336574"/>
      </g>
     </g>
     <g id="text_44">
      <!-- 1.75 -->
      <g transform="translate(20.878125 324.135792)scale(0.1 -0.1)">
       <use xlink:href="#DejaVuSans-49"/>
       <use x="63.623047" xlink:href="#DejaVuSans-46"/>
       <use x="95.410156" xlink:href="#DejaVuSans-55"/>
       <use x="159.033203" xlink:href="#DejaVuSans-53"/>
      </g>
     </g>
    </g>
    <g id="text_45">
     <!-- density -->
     <g transform="translate(14.798438 432.730937)rotate(-90)scale(0.1 -0.1)">
      <use xlink:href="#DejaVuSans-100"/>
      <use x="63.476562" xlink:href="#DejaVuSans-101"/>
      <use x="125" xlink:href="#DejaVuSans-110"/>
      <use x="188.378906" xlink:href="#DejaVuSans-115"/>
      <use x="240.478516" xlink:href="#DejaVuSans-105"/>
      <use x="268.261719" xlink:href="#DejaVuSans-116"/>
      <use x="307.470703" xlink:href="#DejaVuSans-121"/>
     </g>
    </g>
   </g>
   <g id="line2d_61">
    <path clip-path="url(#p1bc269576d)" d="M 113.396875 530.021482 
L 113.772854 529.684251 
L 114.148833 528.89207 
L 114.524813 527.463674 
L 114.900792 525.123842 
L 115.276771 521.504516 
L 115.65275 516.159469 
L 116.216719 503.836547 
L 116.780688 485.030209 
L 117.344657 459.000085 
L 118.284605 402.644634 
L 119.412543 336.074359 
L 119.976512 315.742574 
L 120.352491 309.666364 
L 120.540481 308.975268 
L 120.72847 309.78743 
L 121.10445 315.486384 
L 121.668419 331.817321 
L 126.368159 498.284863 
L 126.932128 510.624221 
L 127.496097 518.564033 
L 127.872076 521.488899 
L 128.248055 522.674926 
L 128.436045 522.664524 
L 128.624035 522.278169 
L 129.000014 520.459566 
L 129.563983 515.478788 
L 130.503931 503.6293 
L 131.255889 495.026153 
L 131.631869 492.429745 
L 131.819858 491.73342 
L 132.007848 491.474838 
L 132.195838 491.663144 
L 132.383827 492.292199 
L 132.759806 494.774756 
L 133.323775 500.878324 
L 135.015682 521.585493 
L 135.579651 525.758181 
L 136.14362 528.31167 
L 136.519599 529.302868 
L 136.895578 529.858112 
L 137.271557 530.051967 
L 137.271557 530.051967 
" style="fill:none;stroke:#1f77b4;stroke-linecap:square;stroke-width:1.5;"/>
   </g>
   <g id="line2d_62">
    <path clip-path="url(#p1bc269576d)" d="M 207.903428 530.624792 
L 208.811 530.554269 
L 209.718572 530.327451 
L 210.626144 529.909338 
L 211.533716 529.247041 
L 212.441288 528.288499 
L 213.34886 527.006255 
L 214.710218 524.543954 
L 216.979148 520.13455 
L 217.88672 518.887158 
L 218.340506 518.482055 
L 218.794292 518.247205 
L 219.248078 518.192611 
L 219.701864 518.320618 
L 220.15565 518.625748 
L 221.063222 519.709201 
L 221.970794 521.269631 
L 225.147295 527.28959 
L 226.054867 528.503201 
L 226.962439 529.390568 
L 227.870011 529.980374 
L 228.777583 530.315194 
L 229.685155 530.424976 
L 230.592727 530.305215 
L 231.500299 529.900662 
L 232.407871 529.0956 
L 233.315443 527.714067 
L 234.223015 525.535904 
L 235.130587 522.334477 
L 236.038159 517.936926 
L 236.94573 512.297431 
L 238.307088 501.886882 
L 241.029804 479.776456 
L 241.937376 473.866063 
L 243.298734 466.819747 
L 245.567664 456.127385 
L 246.929022 447.88658 
L 248.744166 436.470408 
L 249.197952 434.340116 
L 249.651738 432.790295 
L 250.105524 431.950518 
L 250.55931 431.925183 
L 251.013096 432.785882 
L 251.466881 434.566346 
L 251.920667 437.260295 
L 252.828239 445.170902 
L 253.735811 455.761188 
L 257.366099 502.650599 
L 258.273671 511.160754 
L 259.181243 517.726282 
L 260.088815 522.505898 
L 260.996387 525.796302 
L 261.903959 527.940575 
L 262.811531 529.262184 
L 263.719103 530.027621 
L 264.626675 530.432672 
L 265.534247 530.603978 
L 265.534247 530.603978 
" style="fill:none;stroke:#1f77b4;stroke-dasharray:1.5,2.475;stroke-dashoffset:0;stroke-width:1.5;"/>
   </g>
   <g id="line2d_63">
    <path clip-path="url(#p1bc269576d)" d="M 62.138526 530.853625 
L 65.037411 530.572149 
L 66.486854 530.175744 
L 67.936296 529.451182 
L 69.385739 528.242085 
L 70.835182 526.39104 
L 72.284625 523.777623 
L 73.734067 520.354905 
L 75.18351 516.172629 
L 78.082396 506.237744 
L 80.981281 496.224593 
L 82.430724 492.049763 
L 83.880166 488.724347 
L 85.329609 486.208426 
L 89.677937 480.363019 
L 92.576823 475.673692 
L 94.026266 473.727838 
L 95.475708 472.790432 
L 96.925151 473.351233 
L 98.374594 475.671365 
L 99.824037 479.722794 
L 101.273479 485.199965 
L 107.07125 510.366046 
L 108.520693 515.109586 
L 109.970136 518.871553 
L 111.419578 521.739728 
L 112.869021 523.848587 
L 114.318464 525.324872 
L 115.767907 526.271561 
L 117.217349 526.782239 
L 118.666792 526.964216 
L 124.464563 526.981781 
L 125.914006 527.258157 
L 128.812891 528.176535 
L 133.161219 529.76414 
L 136.060105 530.469901 
L 138.95899 530.795523 
L 143.307318 530.909529 
L 173.745616 530.918125 
L 221.577226 530.830305 
L 224.476111 530.590961 
L 227.374997 530.099233 
L 230.273882 529.541355 
L 231.723325 529.380605 
L 233.172768 529.363908 
L 234.62221 529.496088 
L 241.869424 530.713586 
L 244.768309 530.864908 
L 246.217752 530.878555 
L 246.217752 530.878555 
" style="fill:none;stroke:#ff7f0e;stroke-linecap:square;stroke-width:1.5;"/>
   </g>
   <g id="line2d_64">
    <path clip-path="url(#p1bc269576d)" d="M 69.829064 530.907949 
L 73.013839 530.760856 
L 74.606227 530.504618 
L 77.791002 529.617476 
L 80.975777 528.719548 
L 82.568165 528.507234 
L 88.937715 528.773669 
L 90.530102 528.927481 
L 92.12249 528.907843 
L 95.307265 528.312219 
L 96.899652 528.495336 
L 100.084427 529.470973 
L 101.676815 529.77047 
L 104.86159 529.950122 
L 106.453978 530.044753 
L 112.823528 530.880357 
L 119.193078 530.918117 
L 144.671279 530.857742 
L 146.263666 530.695635 
L 147.856054 530.330019 
L 149.448441 529.801433 
L 151.040829 529.392483 
L 152.633216 529.41604 
L 157.410379 530.71604 
L 160.595154 530.907815 
L 181.296192 530.918125 
L 190.850517 530.878402 
L 192.442905 530.777291 
L 197.220068 530.121145 
L 198.812455 530.201241 
L 201.99723 530.704652 
L 205.182005 530.898433 
L 208.36678 530.856948 
L 209.959168 530.725709 
L 214.736331 529.992071 
L 217.921106 529.730804 
L 222.698268 528.401619 
L 224.290656 528.233053 
L 225.883043 528.199749 
L 227.475431 528.031958 
L 229.067818 527.40106 
L 230.660206 526.146919 
L 232.252593 524.380747 
L 233.844981 522.070365 
L 235.437369 518.307298 
L 237.029756 511.578089 
L 238.622144 501.606901 
L 240.214531 490.397731 
L 241.806919 480.434041 
L 243.399306 472.600373 
L 244.991694 466.617353 
L 246.584081 462.152756 
L 248.176469 459.029348 
L 249.768856 457.466625 
L 251.361244 457.851675 
L 252.953632 460.220188 
L 254.546019 464.840037 
L 256.138407 472.337151 
L 257.730794 482.574183 
L 260.915569 506.152514 
L 262.507957 516.287553 
L 264.100344 523.569724 
L 265.692732 527.829969 
L 267.285119 529.845011 
L 268.877507 530.615084 
L 270.469894 530.850252 
L 272.062282 530.905241 
L 272.062282 530.905241 
" style="fill:none;stroke:#ff7f0e;stroke-dasharray:1.5,2.475;stroke-dashoffset:0;stroke-width:1.5;"/>
   </g>
   <g id="line2d_65">
    <path clip-path="url(#p1bc269576d)" d="M 60.713673 530.747004 
L 62.552866 530.631116 
L 64.392058 530.306383 
L 65.618186 529.914681 
L 66.844314 529.324432 
L 68.070442 528.47756 
L 69.29657 527.316271 
L 70.522698 525.792512 
L 71.748826 523.878855 
L 72.974954 521.579013 
L 74.814147 517.509997 
L 79.718659 505.76999 
L 80.944787 503.384471 
L 82.170915 501.397049 
L 83.397043 499.777438 
L 87.075428 495.548021 
L 88.301556 493.558452 
L 89.527684 490.915219 
L 90.753812 487.540287 
L 91.97994 483.517431 
L 95.04526 472.730844 
L 96.271388 469.41735 
L 96.884452 468.244404 
L 97.497516 467.471392 
L 98.11058 467.143943 
L 98.723644 467.294935 
L 99.336709 467.942816 
L 99.949773 469.090604 
L 100.562837 470.72564 
L 101.175901 472.820098 
L 102.402029 478.208174 
L 103.628157 484.790792 
L 107.306541 505.980351 
L 108.532669 511.846587 
L 109.758797 516.593469 
L 110.984926 520.138004 
L 111.59799 521.470148 
L 112.211054 522.528061 
L 112.824118 523.332514 
L 113.437182 523.908042 
L 114.050246 524.281888 
L 114.66331 524.483057 
L 115.276374 524.541464 
L 116.502502 524.349674 
L 120.180886 523.217032 
L 121.407014 523.176747 
L 122.633142 523.432246 
L 123.859271 523.974431 
L 125.085399 524.748443 
L 128.150719 527.127626 
L 129.989911 528.439091 
L 131.829103 529.449714 
L 133.668295 530.128082 
L 135.507488 530.524258 
L 137.34668 530.712806 
L 138.572808 530.751284 
L 138.572808 530.751284 
" style="fill:none;stroke:#2ca02c;stroke-linecap:square;stroke-width:1.5;"/>
   </g>
   <g id="line2d_66">
    <path clip-path="url(#p1bc269576d)" d="M 227.387675 530.859039 
L 228.79632 530.745998 
L 229.852803 530.486236 
L 230.909287 529.944252 
L 231.613609 529.344899 
L 232.317931 528.491842 
L 233.022254 527.331153 
L 233.726576 525.812439 
L 234.430898 523.890777 
L 235.487382 520.17495 
L 236.543865 515.408729 
L 237.600349 509.657532 
L 239.713315 496.401844 
L 241.12196 487.899534 
L 242.178443 482.611537 
L 243.234927 478.634107 
L 243.939249 476.740892 
L 244.643571 475.392801 
L 245.347894 474.484279 
L 246.404377 473.625184 
L 247.460861 472.811834 
L 248.165183 471.928864 
L 248.869505 470.504892 
L 249.573827 468.34803 
L 250.27815 465.358697 
L 251.334633 459.467464 
L 253.095439 448.672883 
L 253.799761 445.491879 
L 254.151922 444.395574 
L 254.504083 443.687988 
L 254.856245 443.397784 
L 255.208406 443.540345 
L 255.560567 444.118444 
L 255.912728 445.123786 
L 256.61705 448.34077 
L 257.321373 452.988777 
L 258.377856 462.110807 
L 259.786501 476.948356 
L 262.251629 503.572722 
L 263.308112 512.627709 
L 264.364595 519.486844 
L 265.068918 522.871872 
L 265.77324 525.427097 
L 266.477562 527.290132 
L 267.181885 528.60234 
L 267.886207 529.493975 
L 268.590529 530.076878 
L 269.647013 530.565768 
L 270.703496 530.781955 
L 272.112141 530.862166 
L 272.112141 530.862166 
" style="fill:none;stroke:#2ca02c;stroke-dasharray:1.5,2.475;stroke-dashoffset:0;stroke-width:1.5;"/>
   </g>
   <g id="line2d_67">
    <path clip-path="url(#p1bc269576d)" d="M 0 0 
" style="fill:none;stroke:#d62728;stroke-linecap:square;stroke-width:1.5;"/>
   </g>
   <g id="patch_10">
    <path d="M 50.14375 530.918125 
L 50.14375 297.878125 
" style="fill:none;stroke:#000000;stroke-linecap:square;stroke-linejoin:miter;stroke-width:0.8;"/>
   </g>
   <g id="patch_11">
    <path d="M 50.14375 530.918125 
L 282.682064 530.918125 
" style="fill:none;stroke:#000000;stroke-linecap:square;stroke-linejoin:miter;stroke-width:0.8;"/>
   </g>
   <g id="text_46">
    <!-- 50 - 70 -->
    <g transform="translate(145.164469 291.878125)scale(0.12 -0.12)">
     <use xlink:href="#DejaVuSans-53"/>
     <use x="63.623047" xlink:href="#DejaVuSans-48"/>
     <use x="127.246094" xlink:href="#DejaVuSans-32"/>
     <use x="159.033203" xlink:href="#DejaVuSans-45"/>
     <use x="195.117188" xlink:href="#DejaVuSans-32"/>
     <use x="226.904297" xlink:href="#DejaVuSans-55"/>
     <use x="290.527344" xlink:href="#DejaVuSans-48"/>
    </g>
   </g>
  </g>
  <g id="axes_4">
   <g id="patch_12">
    <path d="M 326.175436 530.918125 
L 558.71375 530.918125 
L 558.71375 297.878125 
L 326.175436 297.878125 
z
" style="fill:#ffffff;"/>
   </g>
   <g id="matplotlib.axis_7">
    <g id="xtick_13">
     <g id="line2d_68">
      <g>
       <use style="stroke:#000000;stroke-width:0.8;" x="374.259885" xlink:href="#mcbdccc98d2" y="530.918125"/>
      </g>
     </g>
     <g id="text_47">
      <!-- 0.007 -->
      <g transform="translate(359.945822 545.516562)scale(0.1 -0.1)">
       <use xlink:href="#DejaVuSans-48"/>
       <use x="63.623047" xlink:href="#DejaVuSans-46"/>
       <use x="95.410156" xlink:href="#DejaVuSans-48"/>
       <use x="159.033203" xlink:href="#DejaVuSans-48"/>
       <use x="222.65625" xlink:href="#DejaVuSans-55"/>
      </g>
     </g>
    </g>
    <g id="xtick_14">
     <g id="line2d_69">
      <g>
       <use style="stroke:#000000;stroke-width:0.8;" x="435.935029" xlink:href="#mcbdccc98d2" y="530.918125"/>
      </g>
     </g>
     <g id="text_48">
      <!-- 1 -->
      <g transform="translate(432.753779 545.516562)scale(0.1 -0.1)">
       <use xlink:href="#DejaVuSans-49"/>
      </g>
     </g>
    </g>
    <g id="xtick_15">
     <g id="line2d_70">
      <g>
       <use style="stroke:#000000;stroke-width:0.8;" x="497.610173" xlink:href="#mcbdccc98d2" y="530.918125"/>
      </g>
     </g>
     <g id="text_49">
      <!-- 1e+02 -->
      <g transform="translate(480.800017 545.516562)scale(0.1 -0.1)">
       <use xlink:href="#DejaVuSans-49"/>
       <use x="63.623047" xlink:href="#DejaVuSans-101"/>
       <use x="125.146484" xlink:href="#DejaVuSans-43"/>
       <use x="208.935547" xlink:href="#DejaVuSans-48"/>
       <use x="272.558594" xlink:href="#DejaVuSans-50"/>
      </g>
     </g>
    </g>
    <g id="text_50">
     <!-- Pr(somatic) (PHRED) -->
     <g transform="translate(391.027406 559.194687)scale(0.1 -0.1)">
      <use xlink:href="#DejaVuSans-80"/>
      <use x="60.287109" xlink:href="#DejaVuSans-114"/>
      <use x="101.400391" xlink:href="#DejaVuSans-40"/>
      <use x="140.414062" xlink:href="#DejaVuSans-115"/>
      <use x="192.513672" xlink:href="#DejaVuSans-111"/>
      <use x="253.695312" xlink:href="#DejaVuSans-109"/>
      <use x="351.107422" xlink:href="#DejaVuSans-97"/>
      <use x="412.386719" xlink:href="#DejaVuSans-116"/>
      <use x="451.595703" xlink:href="#DejaVuSans-105"/>
      <use x="479.378906" xlink:href="#DejaVuSans-99"/>
      <use x="534.359375" xlink:href="#DejaVuSans-41"/>
      <use x="573.373047" xlink:href="#DejaVuSans-32"/>
      <use x="605.160156" xlink:href="#DejaVuSans-40"/>
      <use x="644.173828" xlink:href="#DejaVuSans-80"/>
      <use x="704.476562" xlink:href="#DejaVuSans-72"/>
      <use x="779.671875" xlink:href="#DejaVuSans-82"/>
      <use x="849.154297" xlink:href="#DejaVuSans-69"/>
      <use x="912.337891" xlink:href="#DejaVuSans-68"/>
      <use x="989.339844" xlink:href="#DejaVuSans-41"/>
     </g>
    </g>
   </g>
   <g id="matplotlib.axis_8">
    <g id="ytick_25">
     <g id="line2d_71">
      <g>
       <use style="stroke:#000000;stroke-width:0.8;" x="326.175436" xlink:href="#m3f896dd663" y="530.918125"/>
      </g>
     </g>
     <g id="text_51">
      <!-- 0.0 -->
      <g transform="translate(303.272311 534.717344)scale(0.1 -0.1)">
       <use xlink:href="#DejaVuSans-48"/>
       <use x="63.623047" xlink:href="#DejaVuSans-46"/>
       <use x="95.410156" xlink:href="#DejaVuSans-48"/>
      </g>
     </g>
    </g>
    <g id="ytick_26">
     <g id="line2d_72">
      <g>
       <use style="stroke:#000000;stroke-width:0.8;" x="326.175436" xlink:href="#m3f896dd663" y="503.294841"/>
      </g>
     </g>
     <g id="text_52">
      <!-- 0.1 -->
      <g transform="translate(303.272311 507.09406)scale(0.1 -0.1)">
       <use xlink:href="#DejaVuSans-48"/>
       <use x="63.623047" xlink:href="#DejaVuSans-46"/>
       <use x="95.410156" xlink:href="#DejaVuSans-49"/>
      </g>
     </g>
    </g>
    <g id="ytick_27">
     <g id="line2d_73">
      <g>
       <use style="stroke:#000000;stroke-width:0.8;" x="326.175436" xlink:href="#m3f896dd663" y="475.671557"/>
      </g>
     </g>
     <g id="text_53">
      <!-- 0.2 -->
      <g transform="translate(303.272311 479.470776)scale(0.1 -0.1)">
       <use xlink:href="#DejaVuSans-48"/>
       <use x="63.623047" xlink:href="#DejaVuSans-46"/>
       <use x="95.410156" xlink:href="#DejaVuSans-50"/>
      </g>
     </g>
    </g>
    <g id="ytick_28">
     <g id="line2d_74">
      <g>
       <use style="stroke:#000000;stroke-width:0.8;" x="326.175436" xlink:href="#m3f896dd663" y="448.048273"/>
      </g>
     </g>
     <g id="text_54">
      <!-- 0.3 -->
      <g transform="translate(303.272311 451.847492)scale(0.1 -0.1)">
       <use xlink:href="#DejaVuSans-48"/>
       <use x="63.623047" xlink:href="#DejaVuSans-46"/>
       <use x="95.410156" xlink:href="#DejaVuSans-51"/>
      </g>
     </g>
    </g>
    <g id="ytick_29">
     <g id="line2d_75">
      <g>
       <use style="stroke:#000000;stroke-width:0.8;" x="326.175436" xlink:href="#m3f896dd663" y="420.424989"/>
      </g>
     </g>
     <g id="text_55">
      <!-- 0.4 -->
      <g transform="translate(303.272311 424.224208)scale(0.1 -0.1)">
       <use xlink:href="#DejaVuSans-48"/>
       <use x="63.623047" xlink:href="#DejaVuSans-46"/>
       <use x="95.410156" xlink:href="#DejaVuSans-52"/>
      </g>
     </g>
    </g>
    <g id="ytick_30">
     <g id="line2d_76">
      <g>
       <use style="stroke:#000000;stroke-width:0.8;" x="326.175436" xlink:href="#m3f896dd663" y="392.801705"/>
      </g>
     </g>
     <g id="text_56">
      <!-- 0.5 -->
      <g transform="translate(303.272311 396.600924)scale(0.1 -0.1)">
       <use xlink:href="#DejaVuSans-48"/>
       <use x="63.623047" xlink:href="#DejaVuSans-46"/>
       <use x="95.410156" xlink:href="#DejaVuSans-53"/>
      </g>
     </g>
    </g>
    <g id="ytick_31">
     <g id="line2d_77">
      <g>
       <use style="stroke:#000000;stroke-width:0.8;" x="326.175436" xlink:href="#m3f896dd663" y="365.178421"/>
      </g>
     </g>
     <g id="text_57">
      <!-- 0.6 -->
      <defs>
       <path d="M 33.015625 40.375 
Q 26.375 40.375 22.484375 35.828125 
Q 18.609375 31.296875 18.609375 23.390625 
Q 18.609375 15.53125 22.484375 10.953125 
Q 26.375 6.390625 33.015625 6.390625 
Q 39.65625 6.390625 43.53125 10.953125 
Q 47.40625 15.53125 47.40625 23.390625 
Q 47.40625 31.296875 43.53125 35.828125 
Q 39.65625 40.375 33.015625 40.375 
z
M 52.59375 71.296875 
L 52.59375 62.3125 
Q 48.875 64.0625 45.09375 64.984375 
Q 41.3125 65.921875 37.59375 65.921875 
Q 27.828125 65.921875 22.671875 59.328125 
Q 17.53125 52.734375 16.796875 39.40625 
Q 19.671875 43.65625 24.015625 45.921875 
Q 28.375 48.1875 33.59375 48.1875 
Q 44.578125 48.1875 50.953125 41.515625 
Q 57.328125 34.859375 57.328125 23.390625 
Q 57.328125 12.15625 50.6875 5.359375 
Q 44.046875 -1.421875 33.015625 -1.421875 
Q 20.359375 -1.421875 13.671875 8.265625 
Q 6.984375 17.96875 6.984375 36.375 
Q 6.984375 53.65625 15.1875 63.9375 
Q 23.390625 74.21875 37.203125 74.21875 
Q 40.921875 74.21875 44.703125 73.484375 
Q 48.484375 72.75 52.59375 71.296875 
z
" id="DejaVuSans-54"/>
      </defs>
      <g transform="translate(303.272311 368.97764)scale(0.1 -0.1)">
       <use xlink:href="#DejaVuSans-48"/>
       <use x="63.623047" xlink:href="#DejaVuSans-46"/>
       <use x="95.410156" xlink:href="#DejaVuSans-54"/>
      </g>
     </g>
    </g>
    <g id="ytick_32">
     <g id="line2d_78">
      <g>
       <use style="stroke:#000000;stroke-width:0.8;" x="326.175436" xlink:href="#m3f896dd663" y="337.555137"/>
      </g>
     </g>
     <g id="text_58">
      <!-- 0.7 -->
      <g transform="translate(303.272311 341.354356)scale(0.1 -0.1)">
       <use xlink:href="#DejaVuSans-48"/>
       <use x="63.623047" xlink:href="#DejaVuSans-46"/>
       <use x="95.410156" xlink:href="#DejaVuSans-55"/>
      </g>
     </g>
    </g>
    <g id="ytick_33">
     <g id="line2d_79">
      <g>
       <use style="stroke:#000000;stroke-width:0.8;" x="326.175436" xlink:href="#m3f896dd663" y="309.931853"/>
      </g>
     </g>
     <g id="text_59">
      <!-- 0.8 -->
      <defs>
       <path d="M 31.78125 34.625 
Q 24.75 34.625 20.71875 30.859375 
Q 16.703125 27.09375 16.703125 20.515625 
Q 16.703125 13.921875 20.71875 10.15625 
Q 24.75 6.390625 31.78125 6.390625 
Q 38.8125 6.390625 42.859375 10.171875 
Q 46.921875 13.96875 46.921875 20.515625 
Q 46.921875 27.09375 42.890625 30.859375 
Q 38.875 34.625 31.78125 34.625 
z
M 21.921875 38.8125 
Q 15.578125 40.375 12.03125 44.71875 
Q 8.5 49.078125 8.5 55.328125 
Q 8.5 64.0625 14.71875 69.140625 
Q 20.953125 74.21875 31.78125 74.21875 
Q 42.671875 74.21875 48.875 69.140625 
Q 55.078125 64.0625 55.078125 55.328125 
Q 55.078125 49.078125 51.53125 44.71875 
Q 48 40.375 41.703125 38.8125 
Q 48.828125 37.15625 52.796875 32.3125 
Q 56.78125 27.484375 56.78125 20.515625 
Q 56.78125 9.90625 50.3125 4.234375 
Q 43.84375 -1.421875 31.78125 -1.421875 
Q 19.734375 -1.421875 13.25 4.234375 
Q 6.78125 9.90625 6.78125 20.515625 
Q 6.78125 27.484375 10.78125 32.3125 
Q 14.796875 37.15625 21.921875 38.8125 
z
M 18.3125 54.390625 
Q 18.3125 48.734375 21.84375 45.5625 
Q 25.390625 42.390625 31.78125 42.390625 
Q 38.140625 42.390625 41.71875 45.5625 
Q 45.3125 48.734375 45.3125 54.390625 
Q 45.3125 60.0625 41.71875 63.234375 
Q 38.140625 66.40625 31.78125 66.40625 
Q 25.390625 66.40625 21.84375 63.234375 
Q 18.3125 60.0625 18.3125 54.390625 
z
" id="DejaVuSans-56"/>
      </defs>
      <g transform="translate(303.272311 313.731072)scale(0.1 -0.1)">
       <use xlink:href="#DejaVuSans-48"/>
       <use x="63.623047" xlink:href="#DejaVuSans-46"/>
       <use x="95.410156" xlink:href="#DejaVuSans-56"/>
      </g>
     </g>
    </g>
   </g>
   <g id="line2d_80">
    <path clip-path="url(#p03a195c2be)" d="M 336.745359 530.665498 
L 338.107553 530.534749 
L 339.469747 530.191513 
L 340.831941 529.554186 
L 342.194135 528.525946 
L 343.556329 527.040969 
L 344.918523 525.12251 
L 348.324007 519.822598 
L 349.005104 519.030914 
L 349.686201 518.438707 
L 350.367298 518.080004 
L 351.048395 517.975566 
L 351.729492 518.13067 
L 352.410589 518.534339 
L 353.091686 519.160079 
L 354.45388 520.907848 
L 357.178267 524.826253 
L 357.859364 525.559798 
L 358.540461 526.092952 
L 359.221558 526.382138 
L 359.902655 526.38682 
L 360.583752 526.068207 
L 361.264849 525.388084 
L 361.945946 524.30811 
L 362.627043 522.789781 
L 363.30814 520.795181 
L 363.989237 518.28849 
L 364.670334 515.238157 
L 366.032528 507.417683 
L 367.394721 497.270453 
L 368.756915 484.972721 
L 370.800206 463.601695 
L 373.524594 434.166749 
L 374.886788 421.293844 
L 376.248982 410.725333 
L 377.611175 402.831723 
L 378.292272 399.897857 
L 378.973369 397.608041 
L 379.654466 395.927781 
L 380.335563 394.823114 
L 381.01666 394.267702 
L 381.697757 394.24804 
L 382.378854 394.765901 
L 383.059951 395.837552 
L 383.741048 397.489765 
L 384.422145 399.753156 
L 385.103242 402.653869 
L 385.784339 406.204862 
L 387.146532 415.199695 
L 388.508726 426.348824 
L 393.957502 474.994514 
L 395.319696 484.56419 
L 396.68189 492.734545 
L 398.044083 499.66968 
L 399.406277 505.465266 
L 400.768471 510.087425 
L 401.449568 511.926777 
L 402.130665 513.438527 
L 402.811762 514.623486 
L 403.492859 515.495499 
L 404.173956 516.083403 
L 404.855053 516.431047 
L 405.53615 516.595276 
L 408.260537 516.764931 
L 408.941634 516.997759 
L 409.622731 517.393103 
L 410.303828 517.965299 
L 411.666022 519.610362 
L 413.028216 521.734925 
L 415.752604 526.117509 
L 417.114798 527.83795 
L 418.476991 529.093247 
L 419.839185 529.915426 
L 421.201379 530.39394 
L 422.563573 530.623028 
L 423.24467 530.665493 
L 423.24467 530.665493 
" style="fill:none;stroke:#ff7f0e;stroke-linecap:square;stroke-width:1.5;"/>
   </g>
   <g id="line2d_81">
    <path clip-path="url(#p03a195c2be)" d="M 385.730628 530.822459 
L 386.973708 530.673089 
L 388.216787 530.176973 
L 389.459867 529.17759 
L 390.702947 527.802516 
L 391.946027 526.673067 
L 393.189107 526.52113 
L 394.432187 527.461114 
L 395.675267 528.858166 
L 396.918347 529.989002 
L 398.161427 530.601208 
L 399.404507 530.836422 
L 401.890667 530.915782 
L 460.315424 530.915939 
L 462.801583 530.841126 
L 464.044663 530.617337 
L 465.287743 530.028595 
L 466.530823 528.925274 
L 467.773903 527.532831 
L 469.016983 526.553046 
L 470.260063 526.641151 
L 471.503143 527.730802 
L 472.746223 529.110522 
L 473.989303 530.13789 
L 475.232383 530.661863 
L 476.475463 530.854114 
L 480.204703 530.917933 
L 492.635502 530.892997 
L 493.878582 530.786232 
L 495.121662 530.392327 
L 496.364742 529.325042 
L 497.607822 527.247264 
L 498.850902 524.480344 
L 500.093981 522.308331 
L 501.337061 522.051904 
L 502.580141 523.523705 
L 503.823221 524.781858 
L 505.066301 523.69214 
L 506.309381 519.846394 
L 507.552461 515.278264 
L 508.795541 513.057419 
L 510.038621 514.37413 
L 511.281701 516.984283 
L 512.524781 516.872264 
L 513.767861 511.022897 
L 515.010941 498.349542 
L 516.254021 478.647337 
L 517.497101 451.490753 
L 518.74018 417.054597 
L 521.22634 343.652421 
L 522.46942 319.35131 
L 523.7125 308.975268 
L 524.95558 311.52497 
L 526.19866 324.603184 
L 529.9279 385.392172 
L 533.65714 428.397627 
L 534.90022 448.468473 
L 537.386379 493.082015 
L 538.629459 510.541234 
L 539.872539 521.848243 
L 541.115619 527.65718 
L 542.358699 529.9856 
L 543.601779 530.698419 
L 543.601779 530.698419 
" style="fill:none;stroke:#ff7f0e;stroke-dasharray:1.5,2.475;stroke-dashoffset:0;stroke-width:1.5;"/>
   </g>
   <g id="line2d_82">
    <path clip-path="url(#p03a195c2be)" d="M 0 0 
" style="fill:none;stroke:#2ca02c;stroke-linecap:square;stroke-width:1.5;"/>
   </g>
   <g id="line2d_83">
    <path clip-path="url(#p03a195c2be)" d="M 496.863669 530.632052 
L 497.671231 530.546906 
L 498.478792 530.301169 
L 499.286354 529.847494 
L 500.093915 529.110399 
L 500.901477 527.997824 
L 501.709038 526.417376 
L 502.5166 524.296947 
L 503.324161 521.60668 
L 504.535504 516.58909 
L 508.573311 498.304901 
L 509.380873 496.127319 
L 509.784654 495.383619 
L 510.188434 494.879722 
L 510.592215 494.611904 
L 510.995996 494.566144 
L 511.399777 494.717165 
L 512.207338 495.449228 
L 513.418681 496.72451 
L 513.822461 496.893099 
L 514.226242 496.790808 
L 514.630023 496.331291 
L 515.033804 495.43276 
L 515.437584 494.02167 
L 515.841365 492.036146 
L 516.648927 486.169852 
L 517.456488 477.668006 
L 518.26405 466.664963 
L 519.475392 446.447429 
L 522.705638 388.451795 
L 523.5132 377.272664 
L 524.320761 368.629466 
L 525.128323 362.7807 
L 525.532104 360.911346 
L 525.935884 359.713607 
L 526.339665 359.142285 
L 526.743446 359.137013 
L 527.147227 359.624959 
L 527.551007 360.524406 
L 528.358569 363.212847 
L 530.377473 371.734421 
L 531.992596 378.770495 
L 532.800157 383.194451 
L 533.607719 389.054867 
L 534.41528 396.915909 
L 535.222842 407.081832 
L 536.434184 426.402128 
L 540.471992 497.504835 
L 541.279554 507.372202 
L 542.087115 515.038089 
L 542.894677 520.678106 
L 543.702238 524.609789 
L 544.5098 527.207105 
L 545.317361 528.831966 
L 546.124923 529.791047 
L 546.932484 530.316943 
L 547.740046 530.567067 
L 548.143827 530.619339 
L 548.143827 530.619339 
" style="fill:none;stroke:#2ca02c;stroke-dasharray:1.5,2.475;stroke-dashoffset:0;stroke-width:1.5;"/>
   </g>
   <g id="patch_13">
    <path d="M 326.175436 530.918125 
L 326.175436 297.878125 
" style="fill:none;stroke:#000000;stroke-linecap:square;stroke-linejoin:miter;stroke-width:0.8;"/>
   </g>
   <g id="patch_14">
    <path d="M 326.175436 530.918125 
L 558.71375 530.918125 
" style="fill:none;stroke:#000000;stroke-linecap:square;stroke-linejoin:miter;stroke-width:0.8;"/>
   </g>
   <g id="text_60">
    <!-- 70 - 100 -->
    <g transform="translate(417.378656 291.878125)scale(0.12 -0.12)">
     <use xlink:href="#DejaVuSans-55"/>
     <use x="63.623047" xlink:href="#DejaVuSans-48"/>
     <use x="127.246094" xlink:href="#DejaVuSans-32"/>
     <use x="159.033203" xlink:href="#DejaVuSans-45"/>
     <use x="195.117188" xlink:href="#DejaVuSans-32"/>
     <use x="226.904297" xlink:href="#DejaVuSans-49"/>
     <use x="290.527344" xlink:href="#DejaVuSans-48"/>
     <use x="354.150391" xlink:href="#DejaVuSans-48"/>
    </g>
   </g>
  </g>
 </g>
 <defs>
  <clipPath id="p90c9dd7e33">
   <rect height="233.04" width="232.538314" x="50.14375" y="22.318125"/>
  </clipPath>
  <clipPath id="p1a6fc48119">
   <rect height="233.04" width="232.538314" x="326.175436" y="22.318125"/>
  </clipPath>
  <clipPath id="p1bc269576d">
   <rect height="233.04" width="232.538314" x="50.14375" y="297.878125"/>
  </clipPath>
  <clipPath id="p03a195c2be">
   <rect height="233.04" width="232.538314" x="326.175436" y="297.878125"/>
  </clipPath>
 </defs>
</svg>
