<?xml version="1.0" encoding="utf-8" standalone="no"?>
<!DOCTYPE svg PUBLIC "-//W3C//DTD SVG 1.1//EN"
  "http://www.w3.org/Graphics/SVG/1.1/DTD/svg11.dtd">
<!-- Created with matplotlib (https://matplotlib.org/) -->
<svg height="277.61625pt" version="1.1" viewBox="0 0 590.430519 277.61625" width="590.430519pt" xmlns="http://www.w3.org/2000/svg" xmlns:xlink="http://www.w3.org/1999/xlink">
 <defs>
  <style type="text/css">
*{stroke-linecap:butt;stroke-linejoin:round;}
  </style>
 </defs>
 <g id="figure_1">
  <g id="patch_1">
   <path d="M 0 277.61625 
L 590.430519 277.61625 
L 590.430519 0 
L 0 0 
z
" style="fill:#ffffff;"/>
  </g>
  <g id="axes_1">
   <g id="patch_2">
    <path d="M 43.78125 240.038125 
L 288.077917 240.038125 
L 288.077917 22.318125 
L 43.78125 22.318125 
z
" style="fill:#ffffff;"/>
   </g>
   <g id="matplotlib.axis_1">
    <g id="xtick_1">
     <g id="line2d_1">
      <defs>
       <path d="M 0 0 
L 0 3.5 
" id="mb4c9807733" style="stroke:#000000;stroke-width:0.8;"/>
      </defs>
      <g>
       <use style="stroke:#000000;stroke-width:0.8;" x="51.07225" xlink:href="#mb4c9807733" y="240.038125"/>
      </g>
     </g>
     <g id="text_1">
      <!-- 0.08 -->
      <defs>
       <path d="M 31.78125 66.40625 
Q 24.171875 66.40625 20.328125 58.90625 
Q 16.5 51.421875 16.5 36.375 
Q 16.5 21.390625 20.328125 13.890625 
Q 24.171875 6.390625 31.78125 6.390625 
Q 39.453125 6.390625 43.28125 13.890625 
Q 47.125 21.390625 47.125 36.375 
Q 47.125 51.421875 43.28125 58.90625 
Q 39.453125 66.40625 31.78125 66.40625 
z
M 31.78125 74.21875 
Q 44.046875 74.21875 50.515625 64.515625 
Q 56.984375 54.828125 56.984375 36.375 
Q 56.984375 17.96875 50.515625 8.265625 
Q 44.046875 -1.421875 31.78125 -1.421875 
Q 19.53125 -1.421875 13.0625 8.265625 
Q 6.59375 17.96875 6.59375 36.375 
Q 6.59375 54.828125 13.0625 64.515625 
Q 19.53125 74.21875 31.78125 74.21875 
z
" id="DejaVuSans-48"/>
       <path d="M 10.6875 12.40625 
L 21 12.40625 
L 21 0 
L 10.6875 0 
z
" id="DejaVuSans-46"/>
       <path d="M 31.78125 34.625 
Q 24.75 34.625 20.71875 30.859375 
Q 16.703125 27.09375 16.703125 20.515625 
Q 16.703125 13.921875 20.71875 10.15625 
Q 24.75 6.390625 31.78125 6.390625 
Q 38.8125 6.390625 42.859375 10.171875 
Q 46.921875 13.96875 46.921875 20.515625 
Q 46.921875 27.09375 42.890625 30.859375 
Q 38.875 34.625 31.78125 34.625 
z
M 21.921875 38.8125 
Q 15.578125 40.375 12.03125 44.71875 
Q 8.5 49.078125 8.5 55.328125 
Q 8.5 64.0625 14.71875 69.140625 
Q 20.953125 74.21875 31.78125 74.21875 
Q 42.671875 74.21875 48.875 69.140625 
Q 55.078125 64.0625 55.078125 55.328125 
Q 55.078125 49.078125 51.53125 44.71875 
Q 48 40.375 41.703125 38.8125 
Q 48.828125 37.15625 52.796875 32.3125 
Q 56.78125 27.484375 56.78125 20.515625 
Q 56.78125 9.90625 50.3125 4.234375 
Q 43.84375 -1.421875 31.78125 -1.421875 
Q 19.734375 -1.421875 13.25 4.234375 
Q 6.78125 9.90625 6.78125 20.515625 
Q 6.78125 27.484375 10.78125 32.3125 
Q 14.796875 37.15625 21.921875 38.8125 
z
M 18.3125 54.390625 
Q 18.3125 48.734375 21.84375 45.5625 
Q 25.390625 42.390625 31.78125 42.390625 
Q 38.140625 42.390625 41.71875 45.5625 
Q 45.3125 48.734375 45.3125 54.390625 
Q 45.3125 60.0625 41.71875 63.234375 
Q 38.140625 66.40625 31.78125 66.40625 
Q 25.390625 66.40625 21.84375 63.234375 
Q 18.3125 60.0625 18.3125 54.390625 
z
" id="DejaVuSans-56"/>
      </defs>
      <g transform="translate(39.939437 254.636563)scale(0.1 -0.1)">
       <use xlink:href="#DejaVuSans-48"/>
       <use x="63.623047" xlink:href="#DejaVuSans-46"/>
       <use x="95.410156" xlink:href="#DejaVuSans-48"/>
       <use x="159.033203" xlink:href="#DejaVuSans-56"/>
      </g>
     </g>
    </g>
    <g id="xtick_2">
     <g id="line2d_2">
      <g>
       <use style="stroke:#000000;stroke-width:0.8;" x="85.124539" xlink:href="#mb4c9807733" y="240.038125"/>
      </g>
     </g>
     <g id="text_2">
      <!-- 1 -->
      <defs>
       <path d="M 12.40625 8.296875 
L 28.515625 8.296875 
L 28.515625 63.921875 
L 10.984375 60.40625 
L 10.984375 69.390625 
L 28.421875 72.90625 
L 38.28125 72.90625 
L 38.28125 8.296875 
L 54.390625 8.296875 
L 54.390625 0 
L 12.40625 0 
z
" id="DejaVuSans-49"/>
      </defs>
      <g transform="translate(81.943289 254.636563)scale(0.1 -0.1)">
       <use xlink:href="#DejaVuSans-49"/>
      </g>
     </g>
    </g>
    <g id="xtick_3">
     <g id="line2d_3">
      <g>
       <use style="stroke:#000000;stroke-width:0.8;" x="119.176828" xlink:href="#mb4c9807733" y="240.038125"/>
      </g>
     </g>
     <g id="text_3">
      <!-- 1e+01 -->
      <defs>
       <path d="M 56.203125 29.59375 
L 56.203125 25.203125 
L 14.890625 25.203125 
Q 15.484375 15.921875 20.484375 11.0625 
Q 25.484375 6.203125 34.421875 6.203125 
Q 39.59375 6.203125 44.453125 7.46875 
Q 49.3125 8.734375 54.109375 11.28125 
L 54.109375 2.78125 
Q 49.265625 0.734375 44.1875 -0.34375 
Q 39.109375 -1.421875 33.890625 -1.421875 
Q 20.796875 -1.421875 13.15625 6.1875 
Q 5.515625 13.8125 5.515625 26.8125 
Q 5.515625 40.234375 12.765625 48.109375 
Q 20.015625 56 32.328125 56 
Q 43.359375 56 49.78125 48.890625 
Q 56.203125 41.796875 56.203125 29.59375 
z
M 47.21875 32.234375 
Q 47.125 39.59375 43.09375 43.984375 
Q 39.0625 48.390625 32.421875 48.390625 
Q 24.90625 48.390625 20.390625 44.140625 
Q 15.875 39.890625 15.1875 32.171875 
z
" id="DejaVuSans-101"/>
       <path d="M 46 62.703125 
L 46 35.5 
L 73.1875 35.5 
L 73.1875 27.203125 
L 46 27.203125 
L 46 0 
L 37.796875 0 
L 37.796875 27.203125 
L 10.59375 27.203125 
L 10.59375 35.5 
L 37.796875 35.5 
L 37.796875 62.703125 
z
" id="DejaVuSans-43"/>
      </defs>
      <g transform="translate(102.366671 254.636563)scale(0.1 -0.1)">
       <use xlink:href="#DejaVuSans-49"/>
       <use x="63.623047" xlink:href="#DejaVuSans-101"/>
       <use x="125.146484" xlink:href="#DejaVuSans-43"/>
       <use x="208.935547" xlink:href="#DejaVuSans-48"/>
       <use x="272.558594" xlink:href="#DejaVuSans-49"/>
      </g>
     </g>
    </g>
    <g id="xtick_4">
     <g id="line2d_4">
      <g>
       <use style="stroke:#000000;stroke-width:0.8;" x="153.229117" xlink:href="#mb4c9807733" y="240.038125"/>
      </g>
     </g>
     <g id="text_4">
      <!-- 1e+02 -->
      <defs>
       <path d="M 19.1875 8.296875 
L 53.609375 8.296875 
L 53.609375 0 
L 7.328125 0 
L 7.328125 8.296875 
Q 12.9375 14.109375 22.625 23.890625 
Q 32.328125 33.6875 34.8125 36.53125 
Q 39.546875 41.84375 41.421875 45.53125 
Q 43.3125 49.21875 43.3125 52.78125 
Q 43.3125 58.59375 39.234375 62.25 
Q 35.15625 65.921875 28.609375 65.921875 
Q 23.96875 65.921875 18.8125 64.3125 
Q 13.671875 62.703125 7.8125 59.421875 
L 7.8125 69.390625 
Q 13.765625 71.78125 18.9375 73 
Q 24.125 74.21875 28.421875 74.21875 
Q 39.75 74.21875 46.484375 68.546875 
Q 53.21875 62.890625 53.21875 53.421875 
Q 53.21875 48.921875 51.53125 44.890625 
Q 49.859375 40.875 45.40625 35.40625 
Q 44.1875 33.984375 37.640625 27.21875 
Q 31.109375 20.453125 19.1875 8.296875 
z
" id="DejaVuSans-50"/>
      </defs>
      <g transform="translate(136.41896 254.636563)scale(0.1 -0.1)">
       <use xlink:href="#DejaVuSans-49"/>
       <use x="63.623047" xlink:href="#DejaVuSans-101"/>
       <use x="125.146484" xlink:href="#DejaVuSans-43"/>
       <use x="208.935547" xlink:href="#DejaVuSans-48"/>
       <use x="272.558594" xlink:href="#DejaVuSans-50"/>
      </g>
     </g>
    </g>
    <g id="xtick_5">
     <g id="line2d_5">
      <g>
       <use style="stroke:#000000;stroke-width:0.8;" x="187.281406" xlink:href="#mb4c9807733" y="240.038125"/>
      </g>
     </g>
     <g id="text_5">
      <!-- 2e+03 -->
      <defs>
       <path d="M 40.578125 39.3125 
Q 47.65625 37.796875 51.625 33 
Q 55.609375 28.21875 55.609375 21.1875 
Q 55.609375 10.40625 48.1875 4.484375 
Q 40.765625 -1.421875 27.09375 -1.421875 
Q 22.515625 -1.421875 17.65625 -0.515625 
Q 12.796875 0.390625 7.625 2.203125 
L 7.625 11.71875 
Q 11.71875 9.328125 16.59375 8.109375 
Q 21.484375 6.890625 26.8125 6.890625 
Q 36.078125 6.890625 40.9375 10.546875 
Q 45.796875 14.203125 45.796875 21.1875 
Q 45.796875 27.640625 41.28125 31.265625 
Q 36.765625 34.90625 28.71875 34.90625 
L 20.21875 34.90625 
L 20.21875 43.015625 
L 29.109375 43.015625 
Q 36.375 43.015625 40.234375 45.921875 
Q 44.09375 48.828125 44.09375 54.296875 
Q 44.09375 59.90625 40.109375 62.90625 
Q 36.140625 65.921875 28.71875 65.921875 
Q 24.65625 65.921875 20.015625 65.03125 
Q 15.375 64.15625 9.8125 62.3125 
L 9.8125 71.09375 
Q 15.4375 72.65625 20.34375 73.4375 
Q 25.25 74.21875 29.59375 74.21875 
Q 40.828125 74.21875 47.359375 69.109375 
Q 53.90625 64.015625 53.90625 55.328125 
Q 53.90625 49.265625 50.4375 45.09375 
Q 46.96875 40.921875 40.578125 39.3125 
z
" id="DejaVuSans-51"/>
      </defs>
      <g transform="translate(170.471249 254.636563)scale(0.1 -0.1)">
       <use xlink:href="#DejaVuSans-50"/>
       <use x="63.623047" xlink:href="#DejaVuSans-101"/>
       <use x="125.146484" xlink:href="#DejaVuSans-43"/>
       <use x="208.935547" xlink:href="#DejaVuSans-48"/>
       <use x="272.558594" xlink:href="#DejaVuSans-51"/>
      </g>
     </g>
    </g>
    <g id="xtick_6">
     <g id="line2d_6">
      <g>
       <use style="stroke:#000000;stroke-width:0.8;" x="221.333695" xlink:href="#mb4c9807733" y="240.038125"/>
      </g>
     </g>
     <g id="text_6">
      <!-- 2e+04 -->
      <defs>
       <path d="M 37.796875 64.3125 
L 12.890625 25.390625 
L 37.796875 25.390625 
z
M 35.203125 72.90625 
L 47.609375 72.90625 
L 47.609375 25.390625 
L 58.015625 25.390625 
L 58.015625 17.1875 
L 47.609375 17.1875 
L 47.609375 0 
L 37.796875 0 
L 37.796875 17.1875 
L 4.890625 17.1875 
L 4.890625 26.703125 
z
" id="DejaVuSans-52"/>
      </defs>
      <g transform="translate(204.523538 254.636563)scale(0.1 -0.1)">
       <use xlink:href="#DejaVuSans-50"/>
       <use x="63.623047" xlink:href="#DejaVuSans-101"/>
       <use x="125.146484" xlink:href="#DejaVuSans-43"/>
       <use x="208.935547" xlink:href="#DejaVuSans-48"/>
       <use x="272.558594" xlink:href="#DejaVuSans-52"/>
      </g>
     </g>
    </g>
    <g id="xtick_7">
     <g id="line2d_7">
      <g>
       <use style="stroke:#000000;stroke-width:0.8;" x="255.385984" xlink:href="#mb4c9807733" y="240.038125"/>
      </g>
     </g>
    </g>
    <g id="text_7">
     <!-- $-10 \log_10 Pr(somatic)$ -->
     <defs>
      <path d="M 10.59375 35.5 
L 73.1875 35.5 
L 73.1875 27.203125 
L 10.59375 27.203125 
z
" id="DejaVuSans-8722"/>
      <path d="M 9.421875 75.984375 
L 18.40625 75.984375 
L 18.40625 0 
L 9.421875 0 
z
" id="DejaVuSans-108"/>
      <path d="M 30.609375 48.390625 
Q 23.390625 48.390625 19.1875 42.75 
Q 14.984375 37.109375 14.984375 27.296875 
Q 14.984375 17.484375 19.15625 11.84375 
Q 23.34375 6.203125 30.609375 6.203125 
Q 37.796875 6.203125 41.984375 11.859375 
Q 46.1875 17.53125 46.1875 27.296875 
Q 46.1875 37.015625 41.984375 42.703125 
Q 37.796875 48.390625 30.609375 48.390625 
z
M 30.609375 56 
Q 42.328125 56 49.015625 48.375 
Q 55.71875 40.765625 55.71875 27.296875 
Q 55.71875 13.875 49.015625 6.21875 
Q 42.328125 -1.421875 30.609375 -1.421875 
Q 18.84375 -1.421875 12.171875 6.21875 
Q 5.515625 13.875 5.515625 27.296875 
Q 5.515625 40.765625 12.171875 48.375 
Q 18.84375 56 30.609375 56 
z
" id="DejaVuSans-111"/>
      <path d="M 45.40625 27.984375 
Q 45.40625 37.75 41.375 43.109375 
Q 37.359375 48.484375 30.078125 48.484375 
Q 22.859375 48.484375 18.828125 43.109375 
Q 14.796875 37.75 14.796875 27.984375 
Q 14.796875 18.265625 18.828125 12.890625 
Q 22.859375 7.515625 30.078125 7.515625 
Q 37.359375 7.515625 41.375 12.890625 
Q 45.40625 18.265625 45.40625 27.984375 
z
M 54.390625 6.78125 
Q 54.390625 -7.171875 48.1875 -13.984375 
Q 42 -20.796875 29.203125 -20.796875 
Q 24.46875 -20.796875 20.265625 -20.09375 
Q 16.0625 -19.390625 12.109375 -17.921875 
L 12.109375 -9.1875 
Q 16.0625 -11.328125 19.921875 -12.34375 
Q 23.78125 -13.375 27.78125 -13.375 
Q 36.625 -13.375 41.015625 -8.765625 
Q 45.40625 -4.15625 45.40625 5.171875 
L 45.40625 9.625 
Q 42.625 4.78125 38.28125 2.390625 
Q 33.9375 0 27.875 0 
Q 17.828125 0 11.671875 7.65625 
Q 5.515625 15.328125 5.515625 27.984375 
Q 5.515625 40.671875 11.671875 48.328125 
Q 17.828125 56 27.875 56 
Q 33.9375 56 38.28125 53.609375 
Q 42.625 51.21875 45.40625 46.390625 
L 45.40625 54.6875 
L 54.390625 54.6875 
z
" id="DejaVuSans-103"/>
      <path d="M 16.890625 72.90625 
L 39.703125 72.90625 
Q 49.65625 72.90625 54.875 68.265625 
Q 60.109375 63.625 60.109375 54.6875 
Q 60.109375 42.671875 52.390625 35.984375 
Q 44.671875 29.296875 30.71875 29.296875 
L 18.3125 29.296875 
L 12.59375 0 
L 2.6875 0 
z
M 25.203125 64.796875 
L 19.921875 37.40625 
L 32.328125 37.40625 
Q 40.71875 37.40625 45.203125 41.703125 
Q 49.703125 46 49.703125 54 
Q 49.703125 59.125 46.65625 61.953125 
Q 43.609375 64.796875 38.09375 64.796875 
z
" id="DejaVuSans-Oblique-80"/>
      <path d="M 44.578125 46.390625 
Q 43.21875 47.125 41.453125 47.515625 
Q 39.703125 47.90625 37.703125 47.90625 
Q 30.515625 47.90625 25.140625 42.453125 
Q 19.78125 37.015625 18.015625 27.875 
L 12.5 0 
L 3.515625 0 
L 14.203125 54.6875 
L 23.1875 54.6875 
L 21.484375 46.1875 
Q 25.046875 50.921875 30 53.453125 
Q 34.96875 56 40.578125 56 
Q 42.046875 56 43.453125 55.828125 
Q 44.875 55.671875 46.296875 55.28125 
z
" id="DejaVuSans-Oblique-114"/>
      <path d="M 31 75.875 
Q 24.46875 64.65625 21.28125 53.65625 
Q 18.109375 42.671875 18.109375 31.390625 
Q 18.109375 20.125 21.3125 9.0625 
Q 24.515625 -2 31 -13.1875 
L 23.1875 -13.1875 
Q 15.875 -1.703125 12.234375 9.375 
Q 8.59375 20.453125 8.59375 31.390625 
Q 8.59375 42.28125 12.203125 53.3125 
Q 15.828125 64.359375 23.1875 75.875 
z
" id="DejaVuSans-40"/>
      <path d="M 50 53.078125 
L 48.296875 44.578125 
Q 44.734375 46.53125 40.765625 47.5 
Q 36.8125 48.484375 32.625 48.484375 
Q 25.53125 48.484375 21.453125 46.0625 
Q 17.390625 43.65625 17.390625 39.5 
Q 17.390625 34.671875 26.859375 32.078125 
Q 27.59375 31.890625 27.9375 31.78125 
L 30.8125 30.90625 
Q 39.796875 28.421875 42.796875 25.6875 
Q 45.796875 22.953125 45.796875 18.21875 
Q 45.796875 9.515625 38.890625 4.046875 
Q 31.984375 -1.421875 20.796875 -1.421875 
Q 16.453125 -1.421875 11.671875 -0.578125 
Q 6.890625 0.25 1.125 2 
L 2.875 11.28125 
Q 7.8125 8.734375 12.59375 7.421875 
Q 17.390625 6.109375 21.78125 6.109375 
Q 28.375 6.109375 32.5 8.9375 
Q 36.625 11.765625 36.625 16.109375 
Q 36.625 20.796875 25.78125 23.6875 
L 24.859375 23.921875 
L 21.78125 24.703125 
Q 14.9375 26.515625 11.765625 29.46875 
Q 8.59375 32.421875 8.59375 37.015625 
Q 8.59375 45.75 15.15625 50.875 
Q 21.734375 56 33.015625 56 
Q 37.453125 56 41.671875 55.265625 
Q 45.90625 54.546875 50 53.078125 
z
" id="DejaVuSans-Oblique-115"/>
      <path d="M 25.390625 -1.421875 
Q 15.765625 -1.421875 10.171875 4.515625 
Q 4.59375 10.453125 4.59375 20.703125 
Q 4.59375 26.65625 6.515625 32.828125 
Q 8.453125 39.015625 11.53125 43.21875 
Q 16.359375 49.75 22.3125 52.875 
Q 28.265625 56 35.796875 56 
Q 45.125 56 50.859375 50.1875 
Q 56.59375 44.390625 56.59375 35.015625 
Q 56.59375 28.515625 54.6875 22.0625 
Q 52.78125 15.625 49.703125 11.375 
Q 44.921875 4.828125 38.96875 1.703125 
Q 33.015625 -1.421875 25.390625 -1.421875 
z
M 13.921875 21 
Q 13.921875 13.578125 17.015625 9.890625 
Q 20.125 6.203125 26.421875 6.203125 
Q 35.453125 6.203125 41.375 14.078125 
Q 47.3125 21.96875 47.3125 34.078125 
Q 47.3125 41.15625 44.140625 44.765625 
Q 40.96875 48.390625 34.8125 48.390625 
Q 29.734375 48.390625 25.78125 46.015625 
Q 21.828125 43.65625 18.703125 38.8125 
Q 16.40625 35.203125 15.15625 30.5625 
Q 13.921875 25.921875 13.921875 21 
z
" id="DejaVuSans-Oblique-111"/>
      <path d="M 89.796875 33.015625 
L 83.40625 0 
L 74.421875 0 
L 80.71875 32.71875 
Q 81.109375 34.8125 81.296875 36.328125 
Q 81.5 37.84375 81.5 38.921875 
Q 81.5 43.3125 79.046875 45.75 
Q 76.609375 48.1875 72.21875 48.1875 
Q 65.671875 48.1875 60.546875 43.28125 
Q 55.421875 38.375 53.90625 30.515625 
L 47.90625 0 
L 38.921875 0 
L 45.3125 32.71875 
Q 45.703125 34.515625 45.890625 36.046875 
Q 46.09375 37.59375 46.09375 38.8125 
Q 46.09375 43.265625 43.65625 45.71875 
Q 41.21875 48.1875 36.921875 48.1875 
Q 30.28125 48.1875 25.140625 43.28125 
Q 20.015625 38.375 18.5 30.515625 
L 12.5 0 
L 3.515625 0 
L 14.203125 54.6875 
L 23.1875 54.6875 
L 21.484375 46.1875 
Q 25.140625 50.984375 30.046875 53.484375 
Q 34.96875 56 40.578125 56 
Q 46.53125 56 50.359375 52.875 
Q 54.203125 49.75 54.984375 44.1875 
Q 59.078125 49.953125 64.46875 52.96875 
Q 69.875 56 75.875 56 
Q 82.90625 56 86.734375 51.953125 
Q 90.578125 47.90625 90.578125 40.484375 
Q 90.578125 38.875 90.375 36.9375 
Q 90.1875 35.015625 89.796875 33.015625 
z
" id="DejaVuSans-Oblique-109"/>
      <path d="M 53.71875 31.203125 
L 47.609375 0 
L 38.625 0 
L 40.28125 8.296875 
Q 36.328125 3.421875 31.265625 1 
Q 26.21875 -1.421875 20.015625 -1.421875 
Q 13.03125 -1.421875 8.5625 2.84375 
Q 4.109375 7.125 4.109375 13.8125 
Q 4.109375 23.390625 11.75 28.953125 
Q 19.390625 34.515625 32.8125 34.515625 
L 45.3125 34.515625 
L 45.796875 36.921875 
Q 45.90625 37.3125 45.953125 37.765625 
Q 46 38.234375 46 39.203125 
Q 46 43.5625 42.453125 45.96875 
Q 38.921875 48.390625 32.515625 48.390625 
Q 28.125 48.390625 23.5 47.265625 
Q 18.890625 46.140625 14.015625 43.890625 
L 15.578125 52.203125 
Q 20.65625 54.109375 25.515625 55.046875 
Q 30.375 56 34.90625 56 
Q 44.578125 56 49.625 51.796875 
Q 54.6875 47.609375 54.6875 39.59375 
Q 54.6875 37.984375 54.4375 35.8125 
Q 54.203125 33.640625 53.71875 31.203125 
z
M 44 27.484375 
L 35.015625 27.484375 
Q 23.96875 27.484375 18.671875 24.53125 
Q 13.375 21.578125 13.375 15.375 
Q 13.375 11.078125 16.078125 8.640625 
Q 18.796875 6.203125 23.578125 6.203125 
Q 30.90625 6.203125 36.375 11.453125 
Q 41.84375 16.703125 43.609375 25.484375 
z
" id="DejaVuSans-Oblique-97"/>
      <path d="M 42.28125 54.6875 
L 40.921875 47.703125 
L 23 47.703125 
L 17.1875 18.015625 
Q 16.890625 16.359375 16.75 15.234375 
Q 16.609375 14.109375 16.609375 13.484375 
Q 16.609375 10.359375 18.484375 8.9375 
Q 20.359375 7.515625 24.515625 7.515625 
L 33.59375 7.515625 
L 32.078125 0 
L 23.484375 0 
Q 15.484375 0 11.546875 3.125 
Q 7.625 6.25 7.625 12.59375 
Q 7.625 13.71875 7.765625 15.0625 
Q 7.90625 16.40625 8.203125 18.015625 
L 14.015625 47.703125 
L 6.390625 47.703125 
L 7.8125 54.6875 
L 15.28125 54.6875 
L 18.3125 70.21875 
L 27.296875 70.21875 
L 24.3125 54.6875 
z
" id="DejaVuSans-Oblique-116"/>
      <path d="M 18.3125 75.984375 
L 27.296875 75.984375 
L 25.09375 64.59375 
L 16.109375 64.59375 
z
M 14.203125 54.6875 
L 23.1875 54.6875 
L 12.5 0 
L 3.515625 0 
z
" id="DejaVuSans-Oblique-105"/>
      <path d="M 53.609375 52.59375 
L 51.8125 43.703125 
Q 48.578125 46.046875 44.9375 47.21875 
Q 41.3125 48.390625 37.40625 48.390625 
Q 33.109375 48.390625 29.21875 46.875 
Q 25.34375 45.359375 22.703125 42.578125 
Q 18.5 38.328125 16.203125 32.609375 
Q 13.921875 26.90625 13.921875 20.796875 
Q 13.921875 13.421875 17.609375 9.8125 
Q 21.296875 6.203125 28.8125 6.203125 
Q 32.515625 6.203125 36.6875 7.328125 
Q 40.875 8.453125 45.40625 10.6875 
L 43.703125 1.8125 
Q 39.796875 0.203125 35.671875 -0.609375 
Q 31.546875 -1.421875 27.203125 -1.421875 
Q 16.3125 -1.421875 10.453125 4.015625 
Q 4.59375 9.46875 4.59375 19.578125 
Q 4.59375 28.078125 7.640625 35.234375 
Q 10.6875 42.390625 16.703125 48.09375 
Q 20.796875 52 26.3125 54 
Q 31.84375 56 38.375 56 
Q 42.1875 56 45.9375 55.140625 
Q 49.703125 54.296875 53.609375 52.59375 
z
" id="DejaVuSans-Oblique-99"/>
      <path d="M 8.015625 75.875 
L 15.828125 75.875 
Q 23.140625 64.359375 26.78125 53.3125 
Q 30.421875 42.28125 30.421875 31.390625 
Q 30.421875 20.453125 26.78125 9.375 
Q 23.140625 -1.703125 15.828125 -13.1875 
L 8.015625 -13.1875 
Q 14.5 -2 17.703125 9.0625 
Q 20.90625 20.125 20.90625 31.390625 
Q 20.90625 42.671875 17.703125 53.65625 
Q 14.5 64.65625 8.015625 75.875 
z
" id="DejaVuSans-41"/>
     </defs>
     <g transform="translate(113.479583 268.31625)scale(0.1 -0.1)">
      <use transform="translate(0 0.015625)" xlink:href="#DejaVuSans-8722"/>
      <use transform="translate(83.789062 0.015625)" xlink:href="#DejaVuSans-49"/>
      <use transform="translate(147.412109 0.015625)" xlink:href="#DejaVuSans-48"/>
      <use transform="translate(211.035156 0.015625)" xlink:href="#DejaVuSans-108"/>
      <use transform="translate(238.818359 0.015625)" xlink:href="#DejaVuSans-111"/>
      <use transform="translate(300 0.015625)" xlink:href="#DejaVuSans-103"/>
      <use transform="translate(364.433594 -16.390625)scale(0.7)" xlink:href="#DejaVuSans-49"/>
      <use transform="translate(411.704102 0.015625)" xlink:href="#DejaVuSans-48"/>
      <use transform="translate(475.327148 0.015625)" xlink:href="#DejaVuSans-Oblique-80"/>
      <use transform="translate(535.629883 0.015625)" xlink:href="#DejaVuSans-Oblique-114"/>
      <use transform="translate(576.743164 0.015625)" xlink:href="#DejaVuSans-40"/>
      <use transform="translate(615.756836 0.015625)" xlink:href="#DejaVuSans-Oblique-115"/>
      <use transform="translate(667.856445 0.015625)" xlink:href="#DejaVuSans-Oblique-111"/>
      <use transform="translate(729.038086 0.015625)" xlink:href="#DejaVuSans-Oblique-109"/>
      <use transform="translate(826.450195 0.015625)" xlink:href="#DejaVuSans-Oblique-97"/>
      <use transform="translate(887.729492 0.015625)" xlink:href="#DejaVuSans-Oblique-116"/>
      <use transform="translate(926.938477 0.015625)" xlink:href="#DejaVuSans-Oblique-105"/>
      <use transform="translate(954.72168 0.015625)" xlink:href="#DejaVuSans-Oblique-99"/>
      <use transform="translate(1009.702148 0.015625)" xlink:href="#DejaVuSans-41"/>
     </g>
    </g>
   </g>
   <g id="matplotlib.axis_2">
    <g id="ytick_1">
     <g id="line2d_8">
      <defs>
       <path d="M 0 0 
L -3.5 0 
" id="mec01eef5d8" style="stroke:#000000;stroke-width:0.8;"/>
      </defs>
      <g>
       <use style="stroke:#000000;stroke-width:0.8;" x="43.78125" xlink:href="#mec01eef5d8" y="240.038125"/>
      </g>
     </g>
     <g id="text_8">
      <!-- 0.0 -->
      <g transform="translate(20.878125 243.837344)scale(0.1 -0.1)">
       <use xlink:href="#DejaVuSans-48"/>
       <use x="63.623047" xlink:href="#DejaVuSans-46"/>
       <use x="95.410156" xlink:href="#DejaVuSans-48"/>
      </g>
     </g>
    </g>
    <g id="ytick_2">
     <g id="line2d_9">
      <g>
       <use style="stroke:#000000;stroke-width:0.8;" x="43.78125" xlink:href="#mec01eef5d8" y="214.170809"/>
      </g>
     </g>
     <g id="text_9">
      <!-- 0.5 -->
      <defs>
       <path d="M 10.796875 72.90625 
L 49.515625 72.90625 
L 49.515625 64.59375 
L 19.828125 64.59375 
L 19.828125 46.734375 
Q 21.96875 47.46875 24.109375 47.828125 
Q 26.265625 48.1875 28.421875 48.1875 
Q 40.625 48.1875 47.75 41.5 
Q 54.890625 34.8125 54.890625 23.390625 
Q 54.890625 11.625 47.5625 5.09375 
Q 40.234375 -1.421875 26.90625 -1.421875 
Q 22.3125 -1.421875 17.546875 -0.640625 
Q 12.796875 0.140625 7.71875 1.703125 
L 7.71875 11.625 
Q 12.109375 9.234375 16.796875 8.0625 
Q 21.484375 6.890625 26.703125 6.890625 
Q 35.15625 6.890625 40.078125 11.328125 
Q 45.015625 15.765625 45.015625 23.390625 
Q 45.015625 31 40.078125 35.4375 
Q 35.15625 39.890625 26.703125 39.890625 
Q 22.75 39.890625 18.8125 39.015625 
Q 14.890625 38.140625 10.796875 36.28125 
z
" id="DejaVuSans-53"/>
      </defs>
      <g transform="translate(20.878125 217.970028)scale(0.1 -0.1)">
       <use xlink:href="#DejaVuSans-48"/>
       <use x="63.623047" xlink:href="#DejaVuSans-46"/>
       <use x="95.410156" xlink:href="#DejaVuSans-53"/>
      </g>
     </g>
    </g>
    <g id="ytick_3">
     <g id="line2d_10">
      <g>
       <use style="stroke:#000000;stroke-width:0.8;" x="43.78125" xlink:href="#mec01eef5d8" y="188.303493"/>
      </g>
     </g>
     <g id="text_10">
      <!-- 1.0 -->
      <g transform="translate(20.878125 192.102712)scale(0.1 -0.1)">
       <use xlink:href="#DejaVuSans-49"/>
       <use x="63.623047" xlink:href="#DejaVuSans-46"/>
       <use x="95.410156" xlink:href="#DejaVuSans-48"/>
      </g>
     </g>
    </g>
    <g id="ytick_4">
     <g id="line2d_11">
      <g>
       <use style="stroke:#000000;stroke-width:0.8;" x="43.78125" xlink:href="#mec01eef5d8" y="162.436178"/>
      </g>
     </g>
     <g id="text_11">
      <!-- 1.5 -->
      <g transform="translate(20.878125 166.235396)scale(0.1 -0.1)">
       <use xlink:href="#DejaVuSans-49"/>
       <use x="63.623047" xlink:href="#DejaVuSans-46"/>
       <use x="95.410156" xlink:href="#DejaVuSans-53"/>
      </g>
     </g>
    </g>
    <g id="ytick_5">
     <g id="line2d_12">
      <g>
       <use style="stroke:#000000;stroke-width:0.8;" x="43.78125" xlink:href="#mec01eef5d8" y="136.568862"/>
      </g>
     </g>
     <g id="text_12">
      <!-- 2.0 -->
      <g transform="translate(20.878125 140.368081)scale(0.1 -0.1)">
       <use xlink:href="#DejaVuSans-50"/>
       <use x="63.623047" xlink:href="#DejaVuSans-46"/>
       <use x="95.410156" xlink:href="#DejaVuSans-48"/>
      </g>
     </g>
    </g>
    <g id="ytick_6">
     <g id="line2d_13">
      <g>
       <use style="stroke:#000000;stroke-width:0.8;" x="43.78125" xlink:href="#mec01eef5d8" y="110.701546"/>
      </g>
     </g>
     <g id="text_13">
      <!-- 2.5 -->
      <g transform="translate(20.878125 114.500765)scale(0.1 -0.1)">
       <use xlink:href="#DejaVuSans-50"/>
       <use x="63.623047" xlink:href="#DejaVuSans-46"/>
       <use x="95.410156" xlink:href="#DejaVuSans-53"/>
      </g>
     </g>
    </g>
    <g id="ytick_7">
     <g id="line2d_14">
      <g>
       <use style="stroke:#000000;stroke-width:0.8;" x="43.78125" xlink:href="#mec01eef5d8" y="84.83423"/>
      </g>
     </g>
     <g id="text_14">
      <!-- 3.0 -->
      <g transform="translate(20.878125 88.633449)scale(0.1 -0.1)">
       <use xlink:href="#DejaVuSans-51"/>
       <use x="63.623047" xlink:href="#DejaVuSans-46"/>
       <use x="95.410156" xlink:href="#DejaVuSans-48"/>
      </g>
     </g>
    </g>
    <g id="ytick_8">
     <g id="line2d_15">
      <g>
       <use style="stroke:#000000;stroke-width:0.8;" x="43.78125" xlink:href="#mec01eef5d8" y="58.966914"/>
      </g>
     </g>
     <g id="text_15">
      <!-- 3.5 -->
      <g transform="translate(20.878125 62.766133)scale(0.1 -0.1)">
       <use xlink:href="#DejaVuSans-51"/>
       <use x="63.623047" xlink:href="#DejaVuSans-46"/>
       <use x="95.410156" xlink:href="#DejaVuSans-53"/>
      </g>
     </g>
    </g>
    <g id="ytick_9">
     <g id="line2d_16">
      <g>
       <use style="stroke:#000000;stroke-width:0.8;" x="43.78125" xlink:href="#mec01eef5d8" y="33.099599"/>
      </g>
     </g>
     <g id="text_16">
      <!-- 4.0 -->
      <g transform="translate(20.878125 36.898817)scale(0.1 -0.1)">
       <use xlink:href="#DejaVuSans-52"/>
       <use x="63.623047" xlink:href="#DejaVuSans-46"/>
       <use x="95.410156" xlink:href="#DejaVuSans-48"/>
      </g>
     </g>
    </g>
    <g id="text_17">
     <!-- density -->
     <defs>
      <path d="M 45.40625 46.390625 
L 45.40625 75.984375 
L 54.390625 75.984375 
L 54.390625 0 
L 45.40625 0 
L 45.40625 8.203125 
Q 42.578125 3.328125 38.25 0.953125 
Q 33.9375 -1.421875 27.875 -1.421875 
Q 17.96875 -1.421875 11.734375 6.484375 
Q 5.515625 14.40625 5.515625 27.296875 
Q 5.515625 40.1875 11.734375 48.09375 
Q 17.96875 56 27.875 56 
Q 33.9375 56 38.25 53.625 
Q 42.578125 51.265625 45.40625 46.390625 
z
M 14.796875 27.296875 
Q 14.796875 17.390625 18.875 11.75 
Q 22.953125 6.109375 30.078125 6.109375 
Q 37.203125 6.109375 41.296875 11.75 
Q 45.40625 17.390625 45.40625 27.296875 
Q 45.40625 37.203125 41.296875 42.84375 
Q 37.203125 48.484375 30.078125 48.484375 
Q 22.953125 48.484375 18.875 42.84375 
Q 14.796875 37.203125 14.796875 27.296875 
z
" id="DejaVuSans-100"/>
      <path d="M 54.890625 33.015625 
L 54.890625 0 
L 45.90625 0 
L 45.90625 32.71875 
Q 45.90625 40.484375 42.875 44.328125 
Q 39.84375 48.1875 33.796875 48.1875 
Q 26.515625 48.1875 22.3125 43.546875 
Q 18.109375 38.921875 18.109375 30.90625 
L 18.109375 0 
L 9.078125 0 
L 9.078125 54.6875 
L 18.109375 54.6875 
L 18.109375 46.1875 
Q 21.34375 51.125 25.703125 53.5625 
Q 30.078125 56 35.796875 56 
Q 45.21875 56 50.046875 50.171875 
Q 54.890625 44.34375 54.890625 33.015625 
z
" id="DejaVuSans-110"/>
      <path d="M 44.28125 53.078125 
L 44.28125 44.578125 
Q 40.484375 46.53125 36.375 47.5 
Q 32.28125 48.484375 27.875 48.484375 
Q 21.1875 48.484375 17.84375 46.4375 
Q 14.5 44.390625 14.5 40.28125 
Q 14.5 37.15625 16.890625 35.375 
Q 19.28125 33.59375 26.515625 31.984375 
L 29.59375 31.296875 
Q 39.15625 29.25 43.1875 25.515625 
Q 47.21875 21.78125 47.21875 15.09375 
Q 47.21875 7.46875 41.1875 3.015625 
Q 35.15625 -1.421875 24.609375 -1.421875 
Q 20.21875 -1.421875 15.453125 -0.5625 
Q 10.6875 0.296875 5.421875 2 
L 5.421875 11.28125 
Q 10.40625 8.6875 15.234375 7.390625 
Q 20.0625 6.109375 24.8125 6.109375 
Q 31.15625 6.109375 34.5625 8.28125 
Q 37.984375 10.453125 37.984375 14.40625 
Q 37.984375 18.0625 35.515625 20.015625 
Q 33.0625 21.96875 24.703125 23.78125 
L 21.578125 24.515625 
Q 13.234375 26.265625 9.515625 29.90625 
Q 5.8125 33.546875 5.8125 39.890625 
Q 5.8125 47.609375 11.28125 51.796875 
Q 16.75 56 26.8125 56 
Q 31.78125 56 36.171875 55.265625 
Q 40.578125 54.546875 44.28125 53.078125 
z
" id="DejaVuSans-115"/>
      <path d="M 9.421875 54.6875 
L 18.40625 54.6875 
L 18.40625 0 
L 9.421875 0 
z
M 9.421875 75.984375 
L 18.40625 75.984375 
L 18.40625 64.59375 
L 9.421875 64.59375 
z
" id="DejaVuSans-105"/>
      <path d="M 18.3125 70.21875 
L 18.3125 54.6875 
L 36.8125 54.6875 
L 36.8125 47.703125 
L 18.3125 47.703125 
L 18.3125 18.015625 
Q 18.3125 11.328125 20.140625 9.421875 
Q 21.96875 7.515625 27.59375 7.515625 
L 36.8125 7.515625 
L 36.8125 0 
L 27.59375 0 
Q 17.1875 0 13.234375 3.875 
Q 9.28125 7.765625 9.28125 18.015625 
L 9.28125 47.703125 
L 2.6875 47.703125 
L 2.6875 54.6875 
L 9.28125 54.6875 
L 9.28125 70.21875 
z
" id="DejaVuSans-116"/>
      <path d="M 32.171875 -5.078125 
Q 28.375 -14.84375 24.75 -17.8125 
Q 21.140625 -20.796875 15.09375 -20.796875 
L 7.90625 -20.796875 
L 7.90625 -13.28125 
L 13.1875 -13.28125 
Q 16.890625 -13.28125 18.9375 -11.515625 
Q 21 -9.765625 23.484375 -3.21875 
L 25.09375 0.875 
L 2.984375 54.6875 
L 12.5 54.6875 
L 29.59375 11.921875 
L 46.6875 54.6875 
L 56.203125 54.6875 
z
" id="DejaVuSans-121"/>
     </defs>
     <g transform="translate(14.798438 149.510938)rotate(-90)scale(0.1 -0.1)">
      <use xlink:href="#DejaVuSans-100"/>
      <use x="63.476562" xlink:href="#DejaVuSans-101"/>
      <use x="125" xlink:href="#DejaVuSans-110"/>
      <use x="188.378906" xlink:href="#DejaVuSans-115"/>
      <use x="240.478516" xlink:href="#DejaVuSans-105"/>
      <use x="268.261719" xlink:href="#DejaVuSans-116"/>
      <use x="307.470703" xlink:href="#DejaVuSans-121"/>
     </g>
    </g>
   </g>
   <g id="line2d_17">
    <path clip-path="url(#pf2d1a02abd)" d="M 70.193105 232.316945 
L 71.73015 240.038125 
L 73.267194 150.168903 
L 74.804239 167.591777 
L 76.341284 198.446985 
L 77.878329 226.762884 
L 79.415374 229.650336 
L 80.952418 238.169971 
L 82.489463 236.058385 
L 84.026508 240.038125 
L 85.563553 238.790249 
L 87.100598 240.038125 
L 88.637642 239.340264 
L 90.174687 240.038125 
L 91.711732 238.308298 
L 93.248777 240.038125 
L 94.785821 239.53678 
L 96.322866 240.038125 
L 97.859911 239.666327 
L 99.396956 240.038125 
L 100.934001 239.74811 
L 102.471045 240.038125 
L 104.00809 239.810856 
L 105.545135 240.038125 
L 107.08218 239.753058 
L 108.619224 239.664986 
L 110.156269 239.964272 
L 111.693314 240.038125 
L 113.230359 239.914386 
L 114.767404 240.038125 
L 116.304448 239.912182 
L 117.841493 240.038125 
L 119.378538 239.917772 
L 120.915583 240.038125 
L 122.452627 239.924694 
L 123.989672 240.038125 
L 125.526717 239.931271 
L 127.063762 240.038125 
L 128.600807 239.937002 
L 130.137851 240.038125 
L 131.674896 239.941733 
L 133.211941 240.038125 
L 134.748986 239.945406 
L 136.28603 240.038125 
L 137.823075 239.947958 
L 139.36012 240.038125 
L 140.897165 239.949261 
L 142.43421 240.038125 
L 143.971254 239.949057 
L 145.508299 240.038125 
L 147.045344 239.946849 
L 148.582389 240.038125 
L 150.119433 239.941686 
L 151.656478 240.038125 
L 153.193523 239.931716 
L 154.730568 240.038125 
L 156.267613 239.913475 
L 157.804657 240.038125 
L 159.341702 239.887328 
L 160.878747 239.980665 
L 162.415792 239.360846 
L 163.952837 240.038125 
L 165.489881 237.686598 
L 167.026926 240.038125 
L 168.563971 239.880695 
L 170.101016 239.556118 
L 171.63806 240.027589 
L 173.175105 239.060285 
L 174.71215 239.748335 
L 176.249195 239.877684 
L 177.78624 239.551305 
L 179.323284 240.038125 
L 180.860329 239.935331 
L 182.397374 240.038125 
L 183.934419 239.951684 
L 185.471463 240.038125 
L 187.008508 239.954998 
L 188.545553 240.038125 
L 190.082598 239.954038 
L 191.619643 240.038125 
L 193.156687 239.949772 
L 194.693732 240.038125 
L 196.230777 239.940156 
L 197.767822 240.038125 
L 199.304866 239.914322 
L 200.841911 240.038125 
L 202.378956 239.503483 
L 203.916001 239.931792 
L 213.138269 240.038125 
L 214.675314 239.926967 
L 216.212359 240.038125 
L 217.749404 239.919349 
L 219.286449 240.038125 
L 220.823493 239.910424 
L 222.360538 240.038125 
L 223.897583 239.901931 
L 225.434628 240.038125 
L 226.971673 239.909369 
L 228.508717 239.922253 
L 230.045762 239.50246 
L 231.582807 240.038125 
L 233.119852 239.823585 
L 234.656896 240.038125 
L 237.730986 239.584181 
L 239.268031 239.207909 
L 240.805076 240.038125 
L 242.34212 238.934147 
L 243.879165 239.934621 
L 245.41621 239.028964 
L 246.953255 240.030193 
L 248.490299 239.109312 
L 250.027344 240.038125 
L 251.564389 238.491669 
L 253.101434 239.914989 
L 254.638479 239.130236 
L 256.175523 240.038125 
L 257.712568 238.793017 
L 259.249613 240.038125 
L 260.786658 237.968436 
L 262.323702 240.038125 
L 263.860747 236.128911 
L 265.397792 240.038125 
L 265.397792 240.038125 
" style="fill:none;stroke:#1f77b4;stroke-linecap:square;stroke-width:1.5;"/>
   </g>
   <g id="line2d_18">
    <path clip-path="url(#pf2d1a02abd)" d="M 204.449682 240.036286 
L 208.798929 239.937277 
L 212.060865 239.898365 
L 215.866456 239.934115 
L 220.215703 239.755018 
L 225.108606 239.411331 
L 226.195917 239.076544 
L 227.283229 238.478355 
L 228.370541 237.59849 
L 230.545164 235.327984 
L 232.176132 233.735288 
L 233.807099 232.144921 
L 234.894411 230.671057 
L 235.981723 228.75642 
L 237.612691 225.294462 
L 239.243658 221.151692 
L 240.874626 216.22148 
L 244.136561 206.142434 
L 245.223873 203.107794 
L 246.311184 200.802086 
L 246.85484 200.09298 
L 247.398496 199.704383 
L 247.942152 199.604831 
L 248.485808 199.741174 
L 249.029464 200.057234 
L 250.116776 201.031782 
L 251.747743 202.577313 
L 252.291399 202.900887 
L 253.378711 203.17366 
L 254.466023 203.289995 
L 255.009678 203.461077 
L 255.553334 203.77345 
L 256.09699 204.253892 
L 256.640646 204.926092 
L 257.184302 205.826289 
L 257.727958 207.008547 
L 258.271614 208.533381 
L 259.358925 212.73191 
L 260.989893 220.973152 
L 262.077205 226.284753 
L 263.164516 230.702622 
L 264.251828 234.206783 
L 265.33914 236.805902 
L 265.882796 237.744685 
L 266.426452 238.450807 
L 266.970108 238.953626 
L 268.057419 239.524859 
L 269.144731 239.788407 
L 271.319355 239.998918 
L 273.493978 240.035738 
L 273.493978 240.035738 
" style="fill:none;stroke:#1f77b4;stroke-dasharray:1.5,2.475;stroke-dashoffset:0;stroke-width:1.5;"/>
   </g>
   <g id="line2d_19">
    <path clip-path="url(#pf2d1a02abd)" d="M 68.896564 217.805924 
L 70.438062 240.038125 
L 71.97956 32.685744 
L 73.521058 83.97529 
L 75.062555 199.25017 
L 76.604053 225.756319 
L 78.145551 232.204755 
L 79.687049 239.20291 
L 81.228546 236.767317 
L 82.770044 240.038125 
L 84.311542 238.094882 
L 85.85304 240.038125 
L 87.394537 238.646724 
L 88.936035 240.038125 
L 90.477533 238.914107 
L 92.019031 240.038125 
L 93.560529 239.132626 
L 95.102026 240.038125 
L 96.643524 239.301818 
L 98.185022 240.038125 
L 99.72652 239.391884 
L 101.268017 240.038125 
L 102.809515 239.412646 
L 104.351013 240.038125 
L 105.892511 239.492203 
L 107.434008 240.038125 
L 108.975506 239.528092 
L 110.517004 240.038125 
L 112.058502 239.615748 
L 113.599999 240.038125 
L 115.141497 239.628407 
L 116.682995 240.038125 
L 118.224493 239.665957 
L 119.765991 240.038125 
L 121.307488 239.66828 
L 122.848986 240.038125 
L 124.390484 239.654487 
L 125.931982 240.038125 
L 127.473479 239.634339 
L 129.014977 240.038125 
L 130.556475 239.609439 
L 132.097973 240.038125 
L 133.63947 239.573569 
L 135.180968 240.038125 
L 136.722466 239.508316 
L 138.263964 240.038125 
L 139.805461 239.392493 
L 141.346959 240.038125 
L 142.888457 239.166935 
L 144.429955 240.038125 
L 145.971453 238.746572 
L 147.51295 240.038125 
L 149.054448 237.713335 
L 150.595946 240.038125 
L 152.137444 226.279499 
L 153.678941 240.038125 
L 155.220439 238.453275 
L 156.761937 237.260353 
L 158.303435 229.46934 
L 159.844932 240.038125 
L 161.38643 232.391835 
L 162.927928 238.131746 
L 164.469426 238.68383 
L 166.010923 236.938459 
L 167.552421 239.698209 
L 169.093919 238.790529 
L 170.635417 239.424163 
L 172.176915 239.852165 
L 173.718412 239.470505 
L 175.25991 240.038125 
L 176.801408 239.692554 
L 178.342906 240.038125 
L 179.884403 239.763127 
L 181.425901 240.038125 
L 182.967399 239.791284 
L 184.508897 240.038125 
L 186.050394 239.800402 
L 187.591892 240.038125 
L 189.13339 239.807955 
L 190.674888 240.038125 
L 192.216386 239.806955 
L 193.757883 240.038125 
L 195.299381 239.806384 
L 196.840879 240.038125 
L 198.382377 239.788454 
L 199.923874 240.038125 
L 201.465372 239.794761 
L 203.00687 240.038125 
L 204.548368 239.769628 
L 206.089865 240.038125 
L 207.631363 239.778063 
L 209.172861 240.038125 
L 210.714359 239.760371 
L 212.255856 240.038125 
L 213.797354 239.741048 
L 215.338852 240.038125 
L 216.88035 239.677649 
L 218.421848 240.038125 
L 219.963345 239.6165 
L 221.504843 240.038125 
L 223.046341 239.502357 
L 224.587839 240.038125 
L 226.129336 239.445002 
L 227.670834 240.038125 
L 229.212332 239.322905 
L 230.75383 240.038125 
L 232.295327 239.165122 
L 233.836825 240.038125 
L 235.378323 239.04207 
L 236.919821 240.038125 
L 238.461318 238.90383 
L 240.002816 240.038125 
L 241.544314 238.742908 
L 243.085812 240.038125 
L 244.62731 238.51733 
L 246.168807 240.038125 
L 247.710305 238.431897 
L 249.251803 240.038125 
L 250.793301 238.057043 
L 252.334798 240.038125 
L 253.876296 237.592802 
L 255.417794 240.038125 
L 256.959292 236.654047 
L 258.500789 240.038125 
L 260.042287 234.812344 
L 261.583785 240.038125 
L 263.125283 230.680682 
L 264.66678 240.038125 
L 264.66678 240.038125 
" style="fill:none;stroke:#ff7f0e;stroke-linecap:square;stroke-width:1.5;"/>
   </g>
   <g id="line2d_20">
    <path clip-path="url(#pf2d1a02abd)" d="M 68.290141 240.038125 
L 130.505818 240.031517 
L 151.244377 240.009427 
L 157.625472 239.888099 
L 159.220745 239.386721 
L 160.816019 239.886435 
L 164.006567 239.908631 
L 168.792388 239.421089 
L 170.387662 239.879204 
L 173.578209 239.978565 
L 186.340399 239.934637 
L 203.888411 239.643478 
L 208.674232 239.284577 
L 211.86478 238.839276 
L 215.055327 237.940486 
L 218.245875 236.341182 
L 219.841148 234.989224 
L 223.031696 231.002897 
L 224.62697 228.330904 
L 227.817517 222.538436 
L 229.412791 219.254428 
L 231.008065 216.683213 
L 234.198612 212.480247 
L 235.793886 210.71559 
L 238.984434 208.410725 
L 240.579707 206.856273 
L 242.174981 206.756224 
L 243.770255 207.734221 
L 245.365529 210.180239 
L 246.960802 213.399951 
L 250.15135 218.855594 
L 251.746624 221.074266 
L 254.937171 225.796642 
L 256.532445 228.679575 
L 259.722993 235.205684 
L 261.318266 237.753061 
L 262.91354 239.158031 
L 264.508814 239.801255 
L 266.104088 239.996826 
L 270.889909 240.036731 
L 270.889909 240.036731 
" style="fill:none;stroke:#ff7f0e;stroke-dasharray:1.5,2.475;stroke-dashoffset:0;stroke-width:1.5;"/>
   </g>
   <g id="line2d_21">
    <path clip-path="url(#pf2d1a02abd)" d="M 69.603889 230.399194 
L 71.14463 240.038125 
L 72.685372 128.200393 
L 74.226113 143.44746 
L 75.766855 192.388525 
L 77.307596 221.749723 
L 78.848338 227.007939 
L 80.389079 234.879361 
L 81.92982 235.859415 
L 83.470562 239.50424 
L 85.011303 238.20683 
L 86.552045 240.038125 
L 88.092786 238.532507 
L 89.633528 240.038125 
L 91.174269 239.270963 
L 92.715011 240.038125 
L 94.255752 239.604393 
L 95.796493 240.038125 
L 97.337235 239.772983 
L 98.877976 240.038125 
L 100.418718 239.859981 
L 101.959459 240.038125 
L 103.500201 239.840614 
L 105.040942 240.038125 
L 106.581683 239.90592 
L 108.122425 239.984739 
L 109.663166 239.905678 
L 111.203908 240.038125 
L 112.744649 239.838672 
L 114.285391 240.038125 
L 115.826132 239.929003 
L 117.366873 240.038125 
L 118.907615 239.920459 
L 120.448356 240.038125 
L 121.989098 239.923847 
L 123.529839 240.038125 
L 125.070581 239.928695 
L 126.611322 240.038125 
L 128.152063 239.93322 
L 129.692805 240.038125 
L 131.233546 239.936844 
L 132.774288 240.038125 
L 134.315029 239.939081 
L 135.855771 240.038125 
L 137.396512 239.938136 
L 138.937254 240.038125 
L 140.477995 239.844632 
L 142.018736 239.945437 
L 143.559478 239.867515 
L 145.100219 240.038125 
L 146.640961 239.940742 
L 148.181702 240.038125 
L 149.722444 239.940785 
L 151.263185 240.038125 
L 152.803926 239.833779 
L 154.344668 240.009075 
L 155.885409 240.007191 
L 157.426151 238.095376 
L 158.966892 239.367114 
L 160.507634 240.038125 
L 162.048375 236.72147 
L 163.589116 240.038125 
L 165.129858 238.498517 
L 166.670599 240.038125 
L 168.211341 238.31546 
L 169.752082 239.699885 
L 174.374307 239.509474 
L 175.915048 239.829486 
L 177.455789 239.60801 
L 178.996531 240.038125 
L 180.537272 239.932698 
L 182.078014 240.004474 
L 183.618755 239.887568 
L 185.159497 240.038125 
L 186.700238 239.941193 
L 188.240979 240.038125 
L 189.781721 239.944876 
L 191.322462 240.038125 
L 192.863204 239.946074 
L 194.403945 240.038125 
L 195.944687 239.945708 
L 197.485428 240.038125 
L 199.026169 239.946644 
L 200.566911 240.038125 
L 202.107652 239.80543 
L 203.648394 240.038125 
L 205.189135 239.924766 
L 206.729877 240.038125 
L 208.270618 239.922449 
L 209.81136 240.038125 
L 211.352101 239.809814 
L 212.892842 240.038125 
L 214.433584 239.931154 
L 215.974325 240.038125 
L 217.515067 239.918214 
L 219.055808 240.038125 
L 220.59655 239.905275 
L 222.137291 240.038125 
L 223.678032 239.784529 
L 225.218774 240.038125 
L 229.840998 239.794318 
L 231.38174 240.038125 
L 232.922481 239.699705 
L 234.463222 240.038125 
L 237.544705 239.460954 
L 239.085447 238.610678 
L 240.626188 238.932122 
L 242.16693 238.686241 
L 243.707671 239.345892 
L 245.248413 238.737489 
L 246.789154 239.192693 
L 248.329895 238.94263 
L 251.411378 239.105292 
L 252.95212 239.545838 
L 254.492861 238.546665 
L 256.033603 240.038125 
L 257.574344 238.549947 
L 259.115085 240.038125 
L 260.655827 237.617205 
L 262.196568 240.038125 
L 263.73731 235.819904 
L 265.278051 240.038125 
L 265.278051 240.038125 
" style="fill:none;stroke:#2ca02c;stroke-linecap:square;stroke-width:1.5;"/>
   </g>
   <g id="line2d_22">
    <path clip-path="url(#pf2d1a02abd)" d="M 183.639593 240.037881 
L 210.013249 239.92281 
L 213.483467 239.824887 
L 215.565598 239.777562 
L 219.035816 239.438422 
L 221.117946 238.962474 
L 223.200077 238.737787 
L 223.894121 238.530836 
L 225.282208 237.711918 
L 227.364339 236.10503 
L 228.752426 234.581118 
L 230.140513 232.827666 
L 231.5286 230.450604 
L 232.916687 227.370769 
L 234.304774 223.656051 
L 239.16308 209.137555 
L 241.24521 203.877139 
L 241.939254 202.510454 
L 242.633297 201.61068 
L 243.327341 201.207279 
L 244.021385 201.197891 
L 245.409472 201.699118 
L 246.103515 202.151606 
L 246.797559 202.926893 
L 248.87969 206.471983 
L 249.573733 207.185687 
L 250.267777 207.50092 
L 252.349908 207.812341 
L 253.043951 208.222913 
L 253.737995 208.889298 
L 254.432038 209.810832 
L 255.126082 211.0126 
L 255.820125 212.5457 
L 256.514169 214.45826 
L 257.902256 219.322727 
L 261.372474 232.949043 
L 262.066518 234.920826 
L 262.760561 236.455069 
L 263.454605 237.617683 
L 264.148648 238.488284 
L 264.842692 239.114676 
L 265.536736 239.526962 
L 266.924823 239.890604 
L 269.700997 240.024443 
L 271.783128 240.037784 
L 271.783128 240.037784 
" style="fill:none;stroke:#2ca02c;stroke-dasharray:1.5,2.475;stroke-dashoffset:0;stroke-width:1.5;"/>
   </g>
   <g id="line2d_23">
    <path clip-path="url(#pf2d1a02abd)" d="M 70.721621 234.114679 
L 72.209876 240.038125 
L 73.69813 182.9119 
L 75.186384 190.982699 
L 76.674638 223.747587 
L 78.162892 233.072953 
L 79.651146 236.542111 
L 81.1394 238.640573 
L 82.627654 238.572259 
L 84.115908 239.794175 
L 85.604162 239.347673 
L 87.092416 240.038125 
L 88.58067 239.507241 
L 90.068924 240.038125 
L 91.557178 239.632075 
L 93.045432 240.038125 
L 94.533686 239.712152 
L 96.02194 240.038125 
L 97.510194 239.787885 
L 98.998448 240.038125 
L 100.486702 239.81452 
L 101.974956 240.038125 
L 103.46321 239.804136 
L 104.951464 240.038125 
L 106.439718 239.804246 
L 107.927972 240.038125 
L 109.416226 239.871916 
L 110.90448 240.038125 
L 112.392734 239.90754 
L 113.880988 240.007036 
L 115.369242 239.9229 
L 116.857496 240.038125 
L 118.34575 239.940422 
L 119.834005 240.038125 
L 121.322259 239.957843 
L 122.810513 240.030412 
L 124.298767 239.933466 
L 125.787021 240.038125 
L 127.275275 239.920166 
L 128.763529 240.038125 
L 130.251783 239.947494 
L 131.740037 240.038125 
L 133.228291 239.958309 
L 134.716545 240.038125 
L 137.693053 240.01252 
L 145.134323 239.975119 
L 152.575593 240.018702 
L 154.063847 239.872432 
L 155.552101 240.038125 
L 157.040355 237.697481 
L 158.528609 237.518174 
L 160.016863 240.038125 
L 161.505117 233.274597 
L 162.993371 237.683149 
L 164.481625 239.398401 
L 165.969879 235.52529 
L 167.458134 240.038125 
L 168.946388 237.494507 
L 170.434642 240.038125 
L 171.922896 239.036227 
L 173.41115 239.775071 
L 174.899404 239.639247 
L 176.387658 240.028885 
L 177.875912 239.83305 
L 179.364166 240.038125 
L 180.85242 239.892745 
L 182.340674 240.038125 
L 183.828928 239.934119 
L 185.317182 240.038125 
L 186.805436 239.944101 
L 188.29369 240.038125 
L 189.781944 239.957198 
L 191.270198 240.038125 
L 192.758452 239.951999 
L 194.246706 240.038125 
L 195.73496 239.945733 
L 197.223214 240.038125 
L 198.711468 239.977239 
L 200.199722 240.038125 
L 201.687976 239.977794 
L 203.17623 240.038125 
L 204.664484 239.965635 
L 206.152738 240.038125 
L 207.640992 239.975327 
L 209.129246 240.038125 
L 210.6175 239.967783 
L 212.105754 240.038125 
L 213.594008 239.950473 
L 215.082263 240.038125 
L 216.570517 239.894043 
L 218.058771 240.038125 
L 219.547025 239.919524 
L 221.035279 240.038125 
L 222.523533 239.929471 
L 224.011787 240.038125 
L 225.500041 239.905553 
L 226.988295 240.038125 
L 228.476549 239.903109 
L 229.964803 240.038125 
L 231.453057 239.889558 
L 232.941311 240.038125 
L 234.429565 239.869315 
L 235.917819 240.038125 
L 237.406073 239.829993 
L 238.894327 240.038125 
L 240.382581 239.754212 
L 241.870835 240.038125 
L 243.359089 239.707868 
L 244.847343 240.038125 
L 246.335597 239.602491 
L 247.823851 240.038125 
L 249.312105 239.42682 
L 250.800359 240.038125 
L 252.288613 239.155086 
L 253.776867 240.038125 
L 255.265121 238.669174 
L 256.753375 240.038125 
L 258.241629 237.56962 
L 259.729883 240.038125 
L 259.729883 240.038125 
" style="fill:none;stroke:#d62728;stroke-linecap:square;stroke-width:1.5;"/>
   </g>
   <g id="line2d_24">
    <path clip-path="url(#pf2d1a02abd)" d="M 54.885644 240.031624 
L 61.880538 239.919194 
L 67.126708 239.549685 
L 72.372878 239.108115 
L 75.870325 239.061966 
L 81.116496 239.35747 
L 88.11139 239.720486 
L 96.855007 239.890343 
L 130.080753 239.836155 
L 142.321817 239.63182 
L 152.814157 239.256422 
L 159.809051 239.071883 
L 166.803945 238.565676 
L 170.301392 238.393174 
L 177.296286 238.273312 
L 180.793733 237.933471 
L 184.29118 237.282863 
L 187.788627 236.394976 
L 191.286073 235.320951 
L 194.78352 233.961371 
L 198.280967 232.202592 
L 207.024585 227.316381 
L 208.773308 226.563161 
L 210.522031 225.955451 
L 212.270755 225.506747 
L 214.019478 225.212329 
L 217.516925 224.971875 
L 224.511819 224.954366 
L 228.009266 225.190904 
L 229.757989 225.479 
L 233.255436 226.427404 
L 240.25033 228.730769 
L 245.496501 230.015543 
L 248.993947 230.935307 
L 250.742671 231.56366 
L 252.491394 232.36205 
L 254.240118 233.33491 
L 261.235012 237.698939 
L 262.983735 238.493531 
L 264.732459 239.083852 
L 266.481182 239.487497 
L 269.978629 239.889742 
L 275.224799 240.025642 
L 276.973523 240.031944 
L 276.973523 240.031944 
" style="fill:none;stroke:#d62728;stroke-dasharray:1.5,2.475;stroke-dashoffset:0;stroke-width:1.5;"/>
   </g>
   <g id="patch_3">
    <path d="M 43.78125 240.038125 
L 43.78125 22.318125 
" style="fill:none;stroke:#000000;stroke-linecap:square;stroke-linejoin:miter;stroke-width:0.8;"/>
   </g>
   <g id="patch_4">
    <path d="M 43.78125 240.038125 
L 288.077917 240.038125 
" style="fill:none;stroke:#000000;stroke-linecap:square;stroke-linejoin:miter;stroke-width:0.8;"/>
   </g>
   <g id="text_18">
    <!-- 1 - 30 -->
    <defs>
     <path id="DejaVuSans-32"/>
     <path d="M 4.890625 31.390625 
L 31.203125 31.390625 
L 31.203125 23.390625 
L 4.890625 23.390625 
z
" id="DejaVuSans-45"/>
    </defs>
    <g transform="translate(148.498646 16.318125)scale(0.12 -0.12)">
     <use xlink:href="#DejaVuSans-49"/>
     <use x="63.623047" xlink:href="#DejaVuSans-32"/>
     <use x="95.410156" xlink:href="#DejaVuSans-45"/>
     <use x="131.494141" xlink:href="#DejaVuSans-32"/>
     <use x="163.28125" xlink:href="#DejaVuSans-51"/>
     <use x="226.904297" xlink:href="#DejaVuSans-48"/>
    </g>
   </g>
   <g id="legend_1">
    <g id="patch_5">
     <path d="M 142.543542 89.030625 
L 281.077917 89.030625 
Q 283.077917 89.030625 283.077917 87.030625 
L 283.077917 29.318125 
Q 283.077917 27.318125 281.077917 27.318125 
L 142.543542 27.318125 
Q 140.543542 27.318125 140.543542 29.318125 
L 140.543542 87.030625 
Q 140.543542 89.030625 142.543542 89.030625 
z
" style="fill:#ffffff;opacity:0.8;stroke:#cccccc;stroke-linejoin:miter;"/>
    </g>
    <g id="line2d_25">
     <path d="M 144.543542 35.416563 
L 164.543542 35.416563 
" style="fill:none;stroke:#1f77b4;stroke-linecap:square;stroke-width:1.5;"/>
    </g>
    <g id="line2d_26"/>
    <g id="text_19">
     <!-- varlociraptor+delly -->
     <defs>
      <path d="M 2.984375 54.6875 
L 12.5 54.6875 
L 29.59375 8.796875 
L 46.6875 54.6875 
L 56.203125 54.6875 
L 35.6875 0 
L 23.484375 0 
z
" id="DejaVuSans-118"/>
      <path d="M 34.28125 27.484375 
Q 23.390625 27.484375 19.1875 25 
Q 14.984375 22.515625 14.984375 16.5 
Q 14.984375 11.71875 18.140625 8.90625 
Q 21.296875 6.109375 26.703125 6.109375 
Q 34.1875 6.109375 38.703125 11.40625 
Q 43.21875 16.703125 43.21875 25.484375 
L 43.21875 27.484375 
z
M 52.203125 31.203125 
L 52.203125 0 
L 43.21875 0 
L 43.21875 8.296875 
Q 40.140625 3.328125 35.546875 0.953125 
Q 30.953125 -1.421875 24.3125 -1.421875 
Q 15.921875 -1.421875 10.953125 3.296875 
Q 6 8.015625 6 15.921875 
Q 6 25.140625 12.171875 29.828125 
Q 18.359375 34.515625 30.609375 34.515625 
L 43.21875 34.515625 
L 43.21875 35.40625 
Q 43.21875 41.609375 39.140625 45 
Q 35.0625 48.390625 27.6875 48.390625 
Q 23 48.390625 18.546875 47.265625 
Q 14.109375 46.140625 10.015625 43.890625 
L 10.015625 52.203125 
Q 14.9375 54.109375 19.578125 55.046875 
Q 24.21875 56 28.609375 56 
Q 40.484375 56 46.34375 49.84375 
Q 52.203125 43.703125 52.203125 31.203125 
z
" id="DejaVuSans-97"/>
      <path d="M 41.109375 46.296875 
Q 39.59375 47.171875 37.8125 47.578125 
Q 36.03125 48 33.890625 48 
Q 26.265625 48 22.1875 43.046875 
Q 18.109375 38.09375 18.109375 28.8125 
L 18.109375 0 
L 9.078125 0 
L 9.078125 54.6875 
L 18.109375 54.6875 
L 18.109375 46.1875 
Q 20.953125 51.171875 25.484375 53.578125 
Q 30.03125 56 36.53125 56 
Q 37.453125 56 38.578125 55.875 
Q 39.703125 55.765625 41.0625 55.515625 
z
" id="DejaVuSans-114"/>
      <path d="M 48.78125 52.59375 
L 48.78125 44.1875 
Q 44.96875 46.296875 41.140625 47.34375 
Q 37.3125 48.390625 33.40625 48.390625 
Q 24.65625 48.390625 19.8125 42.84375 
Q 14.984375 37.3125 14.984375 27.296875 
Q 14.984375 17.28125 19.8125 11.734375 
Q 24.65625 6.203125 33.40625 6.203125 
Q 37.3125 6.203125 41.140625 7.25 
Q 44.96875 8.296875 48.78125 10.40625 
L 48.78125 2.09375 
Q 45.015625 0.34375 40.984375 -0.53125 
Q 36.96875 -1.421875 32.421875 -1.421875 
Q 20.0625 -1.421875 12.78125 6.34375 
Q 5.515625 14.109375 5.515625 27.296875 
Q 5.515625 40.671875 12.859375 48.328125 
Q 20.21875 56 33.015625 56 
Q 37.15625 56 41.109375 55.140625 
Q 45.0625 54.296875 48.78125 52.59375 
z
" id="DejaVuSans-99"/>
      <path d="M 18.109375 8.203125 
L 18.109375 -20.796875 
L 9.078125 -20.796875 
L 9.078125 54.6875 
L 18.109375 54.6875 
L 18.109375 46.390625 
Q 20.953125 51.265625 25.265625 53.625 
Q 29.59375 56 35.59375 56 
Q 45.5625 56 51.78125 48.09375 
Q 58.015625 40.1875 58.015625 27.296875 
Q 58.015625 14.40625 51.78125 6.484375 
Q 45.5625 -1.421875 35.59375 -1.421875 
Q 29.59375 -1.421875 25.265625 0.953125 
Q 20.953125 3.328125 18.109375 8.203125 
z
M 48.6875 27.296875 
Q 48.6875 37.203125 44.609375 42.84375 
Q 40.53125 48.484375 33.40625 48.484375 
Q 26.265625 48.484375 22.1875 42.84375 
Q 18.109375 37.203125 18.109375 27.296875 
Q 18.109375 17.390625 22.1875 11.75 
Q 26.265625 6.109375 33.40625 6.109375 
Q 40.53125 6.109375 44.609375 11.75 
Q 48.6875 17.390625 48.6875 27.296875 
z
" id="DejaVuSans-112"/>
     </defs>
     <g transform="translate(172.543542 38.916563)scale(0.1 -0.1)">
      <use xlink:href="#DejaVuSans-118"/>
      <use x="59.179688" xlink:href="#DejaVuSans-97"/>
      <use x="120.458984" xlink:href="#DejaVuSans-114"/>
      <use x="161.572266" xlink:href="#DejaVuSans-108"/>
      <use x="189.355469" xlink:href="#DejaVuSans-111"/>
      <use x="250.537109" xlink:href="#DejaVuSans-99"/>
      <use x="305.517578" xlink:href="#DejaVuSans-105"/>
      <use x="333.300781" xlink:href="#DejaVuSans-114"/>
      <use x="374.414062" xlink:href="#DejaVuSans-97"/>
      <use x="435.693359" xlink:href="#DejaVuSans-112"/>
      <use x="499.169922" xlink:href="#DejaVuSans-116"/>
      <use x="538.378906" xlink:href="#DejaVuSans-111"/>
      <use x="599.560547" xlink:href="#DejaVuSans-114"/>
      <use x="640.673828" xlink:href="#DejaVuSans-43"/>
      <use x="724.462891" xlink:href="#DejaVuSans-100"/>
      <use x="787.939453" xlink:href="#DejaVuSans-101"/>
      <use x="849.462891" xlink:href="#DejaVuSans-108"/>
      <use x="877.246094" xlink:href="#DejaVuSans-108"/>
      <use x="905.029297" xlink:href="#DejaVuSans-121"/>
     </g>
    </g>
    <g id="line2d_27">
     <path d="M 144.543542 50.094688 
L 164.543542 50.094688 
" style="fill:none;stroke:#ff7f0e;stroke-linecap:square;stroke-width:1.5;"/>
    </g>
    <g id="line2d_28"/>
    <g id="text_20">
     <!-- varlociraptor+lancet -->
     <g transform="translate(172.543542 53.594688)scale(0.1 -0.1)">
      <use xlink:href="#DejaVuSans-118"/>
      <use x="59.179688" xlink:href="#DejaVuSans-97"/>
      <use x="120.458984" xlink:href="#DejaVuSans-114"/>
      <use x="161.572266" xlink:href="#DejaVuSans-108"/>
      <use x="189.355469" xlink:href="#DejaVuSans-111"/>
      <use x="250.537109" xlink:href="#DejaVuSans-99"/>
      <use x="305.517578" xlink:href="#DejaVuSans-105"/>
      <use x="333.300781" xlink:href="#DejaVuSans-114"/>
      <use x="374.414062" xlink:href="#DejaVuSans-97"/>
      <use x="435.693359" xlink:href="#DejaVuSans-112"/>
      <use x="499.169922" xlink:href="#DejaVuSans-116"/>
      <use x="538.378906" xlink:href="#DejaVuSans-111"/>
      <use x="599.560547" xlink:href="#DejaVuSans-114"/>
      <use x="640.673828" xlink:href="#DejaVuSans-43"/>
      <use x="724.462891" xlink:href="#DejaVuSans-108"/>
      <use x="752.246094" xlink:href="#DejaVuSans-97"/>
      <use x="813.525391" xlink:href="#DejaVuSans-110"/>
      <use x="876.904297" xlink:href="#DejaVuSans-99"/>
      <use x="931.884766" xlink:href="#DejaVuSans-101"/>
      <use x="993.408203" xlink:href="#DejaVuSans-116"/>
     </g>
    </g>
    <g id="line2d_29">
     <path d="M 144.543542 64.772813 
L 164.543542 64.772813 
" style="fill:none;stroke:#2ca02c;stroke-linecap:square;stroke-width:1.5;"/>
    </g>
    <g id="line2d_30"/>
    <g id="text_21">
     <!-- varlociraptor+manta -->
     <defs>
      <path d="M 52 44.1875 
Q 55.375 50.25 60.0625 53.125 
Q 64.75 56 71.09375 56 
Q 79.640625 56 84.28125 50.015625 
Q 88.921875 44.046875 88.921875 33.015625 
L 88.921875 0 
L 79.890625 0 
L 79.890625 32.71875 
Q 79.890625 40.578125 77.09375 44.375 
Q 74.3125 48.1875 68.609375 48.1875 
Q 61.625 48.1875 57.5625 43.546875 
Q 53.515625 38.921875 53.515625 30.90625 
L 53.515625 0 
L 44.484375 0 
L 44.484375 32.71875 
Q 44.484375 40.625 41.703125 44.40625 
Q 38.921875 48.1875 33.109375 48.1875 
Q 26.21875 48.1875 22.15625 43.53125 
Q 18.109375 38.875 18.109375 30.90625 
L 18.109375 0 
L 9.078125 0 
L 9.078125 54.6875 
L 18.109375 54.6875 
L 18.109375 46.1875 
Q 21.1875 51.21875 25.484375 53.609375 
Q 29.78125 56 35.6875 56 
Q 41.65625 56 45.828125 52.96875 
Q 50 49.953125 52 44.1875 
z
" id="DejaVuSans-109"/>
     </defs>
     <g transform="translate(172.543542 68.272813)scale(0.1 -0.1)">
      <use xlink:href="#DejaVuSans-118"/>
      <use x="59.179688" xlink:href="#DejaVuSans-97"/>
      <use x="120.458984" xlink:href="#DejaVuSans-114"/>
      <use x="161.572266" xlink:href="#DejaVuSans-108"/>
      <use x="189.355469" xlink:href="#DejaVuSans-111"/>
      <use x="250.537109" xlink:href="#DejaVuSans-99"/>
      <use x="305.517578" xlink:href="#DejaVuSans-105"/>
      <use x="333.300781" xlink:href="#DejaVuSans-114"/>
      <use x="374.414062" xlink:href="#DejaVuSans-97"/>
      <use x="435.693359" xlink:href="#DejaVuSans-112"/>
      <use x="499.169922" xlink:href="#DejaVuSans-116"/>
      <use x="538.378906" xlink:href="#DejaVuSans-111"/>
      <use x="599.560547" xlink:href="#DejaVuSans-114"/>
      <use x="640.673828" xlink:href="#DejaVuSans-43"/>
      <use x="724.462891" xlink:href="#DejaVuSans-109"/>
      <use x="821.875" xlink:href="#DejaVuSans-97"/>
      <use x="883.154297" xlink:href="#DejaVuSans-110"/>
      <use x="946.533203" xlink:href="#DejaVuSans-116"/>
      <use x="985.742188" xlink:href="#DejaVuSans-97"/>
     </g>
    </g>
    <g id="line2d_31">
     <path d="M 144.543542 79.450938 
L 164.543542 79.450938 
" style="fill:none;stroke:#d62728;stroke-linecap:square;stroke-width:1.5;"/>
    </g>
    <g id="line2d_32"/>
    <g id="text_22">
     <!-- varlociraptor+strelka -->
     <defs>
      <path d="M 9.078125 75.984375 
L 18.109375 75.984375 
L 18.109375 31.109375 
L 44.921875 54.6875 
L 56.390625 54.6875 
L 27.390625 29.109375 
L 57.625 0 
L 45.90625 0 
L 18.109375 26.703125 
L 18.109375 0 
L 9.078125 0 
z
" id="DejaVuSans-107"/>
     </defs>
     <g transform="translate(172.543542 82.950938)scale(0.1 -0.1)">
      <use xlink:href="#DejaVuSans-118"/>
      <use x="59.179688" xlink:href="#DejaVuSans-97"/>
      <use x="120.458984" xlink:href="#DejaVuSans-114"/>
      <use x="161.572266" xlink:href="#DejaVuSans-108"/>
      <use x="189.355469" xlink:href="#DejaVuSans-111"/>
      <use x="250.537109" xlink:href="#DejaVuSans-99"/>
      <use x="305.517578" xlink:href="#DejaVuSans-105"/>
      <use x="333.300781" xlink:href="#DejaVuSans-114"/>
      <use x="374.414062" xlink:href="#DejaVuSans-97"/>
      <use x="435.693359" xlink:href="#DejaVuSans-112"/>
      <use x="499.169922" xlink:href="#DejaVuSans-116"/>
      <use x="538.378906" xlink:href="#DejaVuSans-111"/>
      <use x="599.560547" xlink:href="#DejaVuSans-114"/>
      <use x="640.673828" xlink:href="#DejaVuSans-43"/>
      <use x="724.462891" xlink:href="#DejaVuSans-115"/>
      <use x="776.5625" xlink:href="#DejaVuSans-116"/>
      <use x="815.771484" xlink:href="#DejaVuSans-114"/>
      <use x="856.853516" xlink:href="#DejaVuSans-101"/>
      <use x="918.376953" xlink:href="#DejaVuSans-108"/>
      <use x="946.160156" xlink:href="#DejaVuSans-107"/>
      <use x="1004.054688" xlink:href="#DejaVuSans-97"/>
     </g>
    </g>
   </g>
  </g>
  <g id="axes_2">
   <g id="patch_6">
    <path d="M 324.327917 240.038125 
L 568.624583 240.038125 
L 568.624583 22.318125 
L 324.327917 22.318125 
z
" style="fill:#ffffff;"/>
   </g>
   <g id="matplotlib.axis_3">
    <g id="xtick_8">
     <g id="line2d_33">
      <g>
       <use style="stroke:#000000;stroke-width:0.8;" x="356.93203" xlink:href="#mb4c9807733" y="240.038125"/>
      </g>
     </g>
     <g id="text_23">
      <!-- 0.08 -->
      <g transform="translate(345.799217 254.636563)scale(0.1 -0.1)">
       <use xlink:href="#DejaVuSans-48"/>
       <use x="63.623047" xlink:href="#DejaVuSans-46"/>
       <use x="95.410156" xlink:href="#DejaVuSans-48"/>
       <use x="159.033203" xlink:href="#DejaVuSans-56"/>
      </g>
     </g>
    </g>
    <g id="xtick_9">
     <g id="line2d_34">
      <g>
       <use style="stroke:#000000;stroke-width:0.8;" x="391.846752" xlink:href="#mb4c9807733" y="240.038125"/>
      </g>
     </g>
     <g id="text_24">
      <!-- 1 -->
      <g transform="translate(388.665502 254.636563)scale(0.1 -0.1)">
       <use xlink:href="#DejaVuSans-49"/>
      </g>
     </g>
    </g>
    <g id="xtick_10">
     <g id="line2d_35">
      <g>
       <use style="stroke:#000000;stroke-width:0.8;" x="426.761474" xlink:href="#mb4c9807733" y="240.038125"/>
      </g>
     </g>
     <g id="text_25">
      <!-- 1e+01 -->
      <g transform="translate(409.951318 254.636563)scale(0.1 -0.1)">
       <use xlink:href="#DejaVuSans-49"/>
       <use x="63.623047" xlink:href="#DejaVuSans-101"/>
       <use x="125.146484" xlink:href="#DejaVuSans-43"/>
       <use x="208.935547" xlink:href="#DejaVuSans-48"/>
       <use x="272.558594" xlink:href="#DejaVuSans-49"/>
      </g>
     </g>
    </g>
    <g id="xtick_11">
     <g id="line2d_36">
      <g>
       <use style="stroke:#000000;stroke-width:0.8;" x="461.676196" xlink:href="#mb4c9807733" y="240.038125"/>
      </g>
     </g>
     <g id="text_26">
      <!-- 1e+02 -->
      <g transform="translate(444.86604 254.636563)scale(0.1 -0.1)">
       <use xlink:href="#DejaVuSans-49"/>
       <use x="63.623047" xlink:href="#DejaVuSans-101"/>
       <use x="125.146484" xlink:href="#DejaVuSans-43"/>
       <use x="208.935547" xlink:href="#DejaVuSans-48"/>
       <use x="272.558594" xlink:href="#DejaVuSans-50"/>
      </g>
     </g>
    </g>
    <g id="xtick_12">
     <g id="line2d_37">
      <g>
       <use style="stroke:#000000;stroke-width:0.8;" x="496.590918" xlink:href="#mb4c9807733" y="240.038125"/>
      </g>
     </g>
     <g id="text_27">
      <!-- 2e+03 -->
      <g transform="translate(479.780762 254.636563)scale(0.1 -0.1)">
       <use xlink:href="#DejaVuSans-50"/>
       <use x="63.623047" xlink:href="#DejaVuSans-101"/>
       <use x="125.146484" xlink:href="#DejaVuSans-43"/>
       <use x="208.935547" xlink:href="#DejaVuSans-48"/>
       <use x="272.558594" xlink:href="#DejaVuSans-51"/>
      </g>
     </g>
    </g>
    <g id="xtick_13">
     <g id="line2d_38">
      <g>
       <use style="stroke:#000000;stroke-width:0.8;" x="531.50564" xlink:href="#mb4c9807733" y="240.038125"/>
      </g>
     </g>
     <g id="text_28">
      <!-- 2e+04 -->
      <g transform="translate(514.695484 254.636563)scale(0.1 -0.1)">
       <use xlink:href="#DejaVuSans-50"/>
       <use x="63.623047" xlink:href="#DejaVuSans-101"/>
       <use x="125.146484" xlink:href="#DejaVuSans-43"/>
       <use x="208.935547" xlink:href="#DejaVuSans-48"/>
       <use x="272.558594" xlink:href="#DejaVuSans-52"/>
      </g>
     </g>
    </g>
    <g id="xtick_14">
     <g id="line2d_39">
      <g>
       <use style="stroke:#000000;stroke-width:0.8;" x="566.420362" xlink:href="#mb4c9807733" y="240.038125"/>
      </g>
     </g>
     <g id="text_29">
      <!-- 3e+05 -->
      <g transform="translate(549.610206 254.636563)scale(0.1 -0.1)">
       <use xlink:href="#DejaVuSans-51"/>
       <use x="63.623047" xlink:href="#DejaVuSans-101"/>
       <use x="125.146484" xlink:href="#DejaVuSans-43"/>
       <use x="208.935547" xlink:href="#DejaVuSans-48"/>
       <use x="272.558594" xlink:href="#DejaVuSans-53"/>
      </g>
     </g>
    </g>
    <g id="text_30">
     <!-- $-10 \log_10 Pr(somatic)$ -->
     <g transform="translate(394.02625 268.31625)scale(0.1 -0.1)">
      <use transform="translate(0 0.015625)" xlink:href="#DejaVuSans-8722"/>
      <use transform="translate(83.789062 0.015625)" xlink:href="#DejaVuSans-49"/>
      <use transform="translate(147.412109 0.015625)" xlink:href="#DejaVuSans-48"/>
      <use transform="translate(211.035156 0.015625)" xlink:href="#DejaVuSans-108"/>
      <use transform="translate(238.818359 0.015625)" xlink:href="#DejaVuSans-111"/>
      <use transform="translate(300 0.015625)" xlink:href="#DejaVuSans-103"/>
      <use transform="translate(364.433594 -16.390625)scale(0.7)" xlink:href="#DejaVuSans-49"/>
      <use transform="translate(411.704102 0.015625)" xlink:href="#DejaVuSans-48"/>
      <use transform="translate(475.327148 0.015625)" xlink:href="#DejaVuSans-Oblique-80"/>
      <use transform="translate(535.629883 0.015625)" xlink:href="#DejaVuSans-Oblique-114"/>
      <use transform="translate(576.743164 0.015625)" xlink:href="#DejaVuSans-40"/>
      <use transform="translate(615.756836 0.015625)" xlink:href="#DejaVuSans-Oblique-115"/>
      <use transform="translate(667.856445 0.015625)" xlink:href="#DejaVuSans-Oblique-111"/>
      <use transform="translate(729.038086 0.015625)" xlink:href="#DejaVuSans-Oblique-109"/>
      <use transform="translate(826.450195 0.015625)" xlink:href="#DejaVuSans-Oblique-97"/>
      <use transform="translate(887.729492 0.015625)" xlink:href="#DejaVuSans-Oblique-116"/>
      <use transform="translate(926.938477 0.015625)" xlink:href="#DejaVuSans-Oblique-105"/>
      <use transform="translate(954.72168 0.015625)" xlink:href="#DejaVuSans-Oblique-99"/>
      <use transform="translate(1009.702148 0.015625)" xlink:href="#DejaVuSans-41"/>
     </g>
    </g>
   </g>
   <g id="matplotlib.axis_4">
    <g id="ytick_10">
     <g id="line2d_40">
      <g>
       <use style="stroke:#000000;stroke-width:0.8;" x="324.327917" xlink:href="#mec01eef5d8" y="240.038125"/>
      </g>
     </g>
     <g id="text_31">
      <!-- 0.0 -->
      <g transform="translate(301.424792 243.837344)scale(0.1 -0.1)">
       <use xlink:href="#DejaVuSans-48"/>
       <use x="63.623047" xlink:href="#DejaVuSans-46"/>
       <use x="95.410156" xlink:href="#DejaVuSans-48"/>
      </g>
     </g>
    </g>
    <g id="ytick_11">
     <g id="line2d_41">
      <g>
       <use style="stroke:#000000;stroke-width:0.8;" x="324.327917" xlink:href="#mec01eef5d8" y="210.048094"/>
      </g>
     </g>
     <g id="text_32">
      <!-- 0.5 -->
      <g transform="translate(301.424792 213.847312)scale(0.1 -0.1)">
       <use xlink:href="#DejaVuSans-48"/>
       <use x="63.623047" xlink:href="#DejaVuSans-46"/>
       <use x="95.410156" xlink:href="#DejaVuSans-53"/>
      </g>
     </g>
    </g>
    <g id="ytick_12">
     <g id="line2d_42">
      <g>
       <use style="stroke:#000000;stroke-width:0.8;" x="324.327917" xlink:href="#mec01eef5d8" y="180.058062"/>
      </g>
     </g>
     <g id="text_33">
      <!-- 1.0 -->
      <g transform="translate(301.424792 183.857281)scale(0.1 -0.1)">
       <use xlink:href="#DejaVuSans-49"/>
       <use x="63.623047" xlink:href="#DejaVuSans-46"/>
       <use x="95.410156" xlink:href="#DejaVuSans-48"/>
      </g>
     </g>
    </g>
    <g id="ytick_13">
     <g id="line2d_43">
      <g>
       <use style="stroke:#000000;stroke-width:0.8;" x="324.327917" xlink:href="#mec01eef5d8" y="150.068031"/>
      </g>
     </g>
     <g id="text_34">
      <!-- 1.5 -->
      <g transform="translate(301.424792 153.867249)scale(0.1 -0.1)">
       <use xlink:href="#DejaVuSans-49"/>
       <use x="63.623047" xlink:href="#DejaVuSans-46"/>
       <use x="95.410156" xlink:href="#DejaVuSans-53"/>
      </g>
     </g>
    </g>
    <g id="ytick_14">
     <g id="line2d_44">
      <g>
       <use style="stroke:#000000;stroke-width:0.8;" x="324.327917" xlink:href="#mec01eef5d8" y="120.077999"/>
      </g>
     </g>
     <g id="text_35">
      <!-- 2.0 -->
      <g transform="translate(301.424792 123.877218)scale(0.1 -0.1)">
       <use xlink:href="#DejaVuSans-50"/>
       <use x="63.623047" xlink:href="#DejaVuSans-46"/>
       <use x="95.410156" xlink:href="#DejaVuSans-48"/>
      </g>
     </g>
    </g>
    <g id="ytick_15">
     <g id="line2d_45">
      <g>
       <use style="stroke:#000000;stroke-width:0.8;" x="324.327917" xlink:href="#mec01eef5d8" y="90.087968"/>
      </g>
     </g>
     <g id="text_36">
      <!-- 2.5 -->
      <g transform="translate(301.424792 93.887186)scale(0.1 -0.1)">
       <use xlink:href="#DejaVuSans-50"/>
       <use x="63.623047" xlink:href="#DejaVuSans-46"/>
       <use x="95.410156" xlink:href="#DejaVuSans-53"/>
      </g>
     </g>
    </g>
    <g id="ytick_16">
     <g id="line2d_46">
      <g>
       <use style="stroke:#000000;stroke-width:0.8;" x="324.327917" xlink:href="#mec01eef5d8" y="60.097936"/>
      </g>
     </g>
     <g id="text_37">
      <!-- 3.0 -->
      <g transform="translate(301.424792 63.897155)scale(0.1 -0.1)">
       <use xlink:href="#DejaVuSans-51"/>
       <use x="63.623047" xlink:href="#DejaVuSans-46"/>
       <use x="95.410156" xlink:href="#DejaVuSans-48"/>
      </g>
     </g>
    </g>
    <g id="ytick_17">
     <g id="line2d_47">
      <g>
       <use style="stroke:#000000;stroke-width:0.8;" x="324.327917" xlink:href="#mec01eef5d8" y="30.107905"/>
      </g>
     </g>
     <g id="text_38">
      <!-- 3.5 -->
      <g transform="translate(301.424792 33.907123)scale(0.1 -0.1)">
       <use xlink:href="#DejaVuSans-51"/>
       <use x="63.623047" xlink:href="#DejaVuSans-46"/>
       <use x="95.410156" xlink:href="#DejaVuSans-53"/>
      </g>
     </g>
    </g>
   </g>
   <g id="line2d_48">
    <path clip-path="url(#p640d2ca4a5)" d="M 341.429354 228.918043 
L 342.840651 240.038125 
L 344.251949 77.301259 
L 345.663247 115.83558 
L 347.074544 184.136005 
L 348.485842 223.439494 
L 349.897139 228.122459 
L 351.308437 230.700559 
L 352.719735 231.844852 
L 354.131032 236.334659 
L 355.54233 237.93358 
L 356.953627 235.373341 
L 358.364925 238.155462 
L 359.776223 237.324763 
L 361.18752 240.038125 
L 362.598818 240.038125 
L 364.010115 239.842871 
L 365.421413 240.038125 
L 366.832711 239.801356 
L 368.244008 240.038125 
L 369.655306 239.806251 
L 371.066603 240.038125 
L 372.477901 239.823054 
L 373.889199 240.038125 
L 375.300496 239.842018 
L 376.711794 240.038125 
L 378.123091 239.860058 
L 379.534389 240.038125 
L 380.945687 239.876263 
L 382.356984 240.038125 
L 383.768282 239.890498 
L 385.179579 240.038125 
L 386.590877 239.902903 
L 388.002174 240.038125 
L 389.413472 239.913701 
L 390.82477 240.038125 
L 392.236067 239.923132 
L 393.647365 240.038125 
L 395.058662 239.93142 
L 396.46996 240.038125 
L 397.881258 239.938775 
L 399.292555 240.038125 
L 400.703853 239.945389 
L 402.11515 240.038125 
L 403.526448 239.95145 
L 404.937746 240.038125 
L 406.349043 239.957151 
L 407.760341 240.038125 
L 409.171638 239.962712 
L 410.582936 240.038125 
L 411.994234 239.968406 
L 413.405531 240.038125 
L 414.816829 239.974614 
L 416.228126 240.038125 
L 417.639424 239.981917 
L 420.462019 239.991284 
L 424.695912 240.038125 
L 433.163698 239.879798 
L 434.574995 239.466235 
L 435.986293 236.194787 
L 437.39759 240.038125 
L 438.808888 238.439673 
L 440.220186 239.216824 
L 441.631483 239.258032 
L 443.042781 238.47927 
L 444.454078 240.038125 
L 445.865376 239.911631 
L 447.276674 240.038125 
L 448.687971 239.952789 
L 450.099269 240.038125 
L 451.510566 239.959422 
L 452.921864 240.038125 
L 454.333161 239.95791 
L 455.744459 240.038125 
L 457.155757 239.953672 
L 458.567054 240.038125 
L 459.978352 239.948142 
L 461.389649 240.038125 
L 462.800947 239.941687 
L 464.212245 240.038125 
L 465.623542 239.934319 
L 467.03484 240.038125 
L 468.446137 239.925899 
L 469.857435 240.038125 
L 471.268733 239.916199 
L 472.68003 240.038125 
L 474.091328 239.904913 
L 475.502625 240.038125 
L 476.913923 239.891641 
L 478.325221 240.038125 
L 479.736518 239.875862 
L 481.147816 240.038125 
L 482.559113 239.856886 
L 483.970411 240.038125 
L 485.381709 239.833783 
L 486.793006 240.038125 
L 488.204304 239.805275 
L 489.615601 240.038125 
L 491.026899 239.769566 
L 492.438197 240.038125 
L 493.849494 239.724061 
L 495.260792 240.038125 
L 496.672089 239.664913 
L 498.083387 240.038125 
L 499.494685 239.586219 
L 500.905982 240.038125 
L 502.31728 239.478558 
L 503.728577 240.038125 
L 505.139875 239.326164 
L 506.551173 240.038125 
L 507.96247 239.101017 
L 509.373768 240.038125 
L 510.785065 238.749264 
L 512.196363 240.038125 
L 513.607661 238.155384 
L 515.018958 240.038125 
L 516.430256 237.023239 
L 517.841553 240.038125 
L 519.252851 232.436673 
L 520.664148 240.038125 
L 520.664148 240.038125 
" style="fill:none;stroke:#1f77b4;stroke-linecap:square;stroke-width:1.5;"/>
   </g>
   <g id="line2d_49">
    <path clip-path="url(#p640d2ca4a5)" d="M 431.422439 240.026458 
L 435.394021 239.932909 
L 443.337187 239.491555 
L 451.280352 240.018571 
L 463.1951 240.038125 
L 486.031701 239.971199 
L 490.003283 239.671515 
L 492.98197 239.456724 
L 494.967762 239.498718 
L 499.93224 239.765697 
L 501.918032 239.566362 
L 503.903823 239.110241 
L 507.875406 237.814001 
L 509.861197 236.902418 
L 510.854093 236.183517 
L 511.846988 235.155474 
L 512.839884 233.717951 
L 513.83278 231.790884 
L 514.825675 229.330142 
L 515.818571 226.341744 
L 517.804362 219.121596 
L 519.790154 211.425587 
L 520.783049 207.966649 
L 521.775945 205.036804 
L 522.768841 202.759371 
L 523.761736 201.17835 
L 524.754632 200.265283 
L 525.747528 199.934681 
L 526.740423 200.058363 
L 529.71911 201.41585 
L 530.712006 201.557007 
L 531.704902 201.300466 
L 532.697797 200.648643 
L 534.683589 198.939266 
L 535.676485 198.587828 
L 536.66938 199.094505 
L 537.662276 200.728164 
L 538.655172 203.55417 
L 539.648067 207.411675 
L 543.61965 225.607458 
L 544.612546 229.160684 
L 545.605441 232.034619 
L 546.598337 234.278055 
L 547.591233 235.98523 
L 548.584128 237.259064 
L 549.577024 238.191096 
L 550.56992 238.856098 
L 551.562815 239.314627 
L 553.548607 239.806452 
L 555.534398 239.979308 
L 557.520189 240.023783 
L 557.520189 240.023783 
" style="fill:none;stroke:#1f77b4;stroke-dasharray:1.5,2.475;stroke-dashoffset:0;stroke-width:1.5;"/>
   </g>
   <g id="line2d_50">
    <path clip-path="url(#p640d2ca4a5)" d="M 341.130378 228.637193 
L 342.65743 240.038125 
L 344.184482 95.846428 
L 345.711534 117.205736 
L 347.238586 194.081664 
L 348.765638 224.261214 
L 350.29269 230.58511 
L 351.819742 234.529859 
L 353.346794 234.009716 
L 354.873846 240.038125 
L 356.400898 234.776441 
L 357.92795 240.038125 
L 359.455002 236.68405 
L 360.982054 240.038125 
L 362.509106 239.025011 
L 364.036158 240.038125 
L 365.56321 239.327815 
L 367.090262 240.038125 
L 368.617314 239.468083 
L 370.144366 240.038125 
L 371.671418 239.517013 
L 373.19847 240.038125 
L 374.725522 238.507988 
L 376.252573 240.038125 
L 377.779625 239.608787 
L 379.306677 240.038125 
L 380.833729 239.722304 
L 382.360781 240.038125 
L 383.887833 239.780267 
L 385.414885 240.038125 
L 386.941937 239.817773 
L 388.468989 240.038125 
L 389.996041 239.844739 
L 391.523093 240.038125 
L 393.050145 239.865289 
L 394.577197 240.038125 
L 396.104249 239.88156 
L 397.631301 240.038125 
L 399.158353 239.894841 
L 400.685405 240.038125 
L 402.212457 239.906026 
L 403.739509 240.038125 
L 405.266561 239.915855 
L 406.793613 240.038125 
L 408.320665 239.925115 
L 409.847717 240.038125 
L 411.374769 239.934933 
L 412.901821 240.038125 
L 414.428873 239.947466 
L 415.955925 240.038125 
L 417.482977 239.968033 
L 420.537081 240.014473 
L 423.591185 240.038125 
L 425.118237 238.33976 
L 426.645289 238.371261 
L 428.17234 240.038125 
L 429.699392 240.038125 
L 431.226444 236.615972 
L 432.753496 239.859879 
L 434.280548 240.038125 
L 435.8076 235.795609 
L 437.334652 240.038125 
L 438.861704 237.706526 
L 440.388756 240.038125 
L 441.915808 236.872779 
L 443.44286 238.610874 
L 444.969912 239.930666 
L 446.496964 240.038125 
L 448.024016 239.877345 
L 449.551068 240.038125 
L 451.07812 239.891054 
L 452.605172 240.038125 
L 454.132224 239.903989 
L 455.659276 240.038125 
L 457.186328 239.912547 
L 458.71338 240.038125 
L 460.240432 239.917547 
L 461.767484 240.038125 
L 463.294536 239.919879 
L 464.821588 240.038125 
L 466.34864 239.920139 
L 467.875692 240.038125 
L 469.402744 239.918677 
L 470.929796 240.038125 
L 472.456848 239.915676 
L 473.9839 240.038125 
L 475.510952 239.911191 
L 477.038004 240.038125 
L 478.565056 239.905182 
L 480.092107 240.038125 
L 481.619159 239.89752 
L 483.146211 240.038125 
L 484.673263 239.887985 
L 486.200315 240.038125 
L 487.727367 239.876258 
L 489.254419 240.038125 
L 490.781471 239.861888 
L 492.308523 240.038125 
L 493.835575 239.844262 
L 495.362627 240.038125 
L 496.889679 239.822536 
L 498.416731 240.038125 
L 499.943783 239.795547 
L 501.470835 240.038125 
L 502.997887 239.761674 
L 504.524939 240.038125 
L 506.051991 239.718615 
L 507.579043 240.038125 
L 509.106095 239.663037 
L 510.633147 240.038125 
L 512.160199 239.589826 
L 513.687251 240.038125 
L 515.214303 239.487937 
L 516.741355 240.038125 
L 518.268407 238.761226 
L 519.795459 239.147985 
L 521.322511 239.324267 
L 522.849563 240.038125 
L 524.376615 238.678349 
L 525.903667 240.038125 
L 527.430719 236.799983 
L 528.957771 240.038125 
L 530.484822 235.681376 
L 532.011874 240.038125 
L 533.538926 232.58797 
L 535.065978 240.038125 
L 535.065978 240.038125 
" style="fill:none;stroke:#ff7f0e;stroke-linecap:square;stroke-width:1.5;"/>
   </g>
   <g id="line2d_51">
    <path clip-path="url(#p640d2ca4a5)" d="M 335.432311 240.025649 
L 337.154647 239.943148 
L 338.876983 239.56092 
L 340.599319 238.501312 
L 342.321655 236.861426 
L 344.043991 235.821909 
L 345.766327 236.401749 
L 347.488663 237.926323 
L 349.210999 239.153466 
L 350.933335 239.726227 
L 352.655671 239.894127 
L 364.712024 240.038125 
L 423.271449 239.948112 
L 426.716122 239.853294 
L 433.605466 239.931854 
L 437.050138 239.849128 
L 440.49481 239.705818 
L 450.828826 240.037998 
L 483.553211 239.952957 
L 488.72022 239.727971 
L 495.609564 239.050242 
L 499.054236 238.44701 
L 500.776572 237.846529 
L 502.498908 236.794234 
L 504.221244 235.26655 
L 505.94358 233.349495 
L 507.665916 230.987905 
L 509.388252 228.132802 
L 512.832924 221.915013 
L 514.55526 218.557507 
L 516.277596 214.687935 
L 519.722269 205.865406 
L 521.444605 202.141391 
L 523.166941 199.603424 
L 524.889277 198.26254 
L 526.611613 198.735395 
L 528.333949 201.122073 
L 530.056285 204.012349 
L 531.778621 206.058726 
L 533.500957 207.774092 
L 535.223293 210.870142 
L 536.945629 216.023585 
L 540.390301 228.196082 
L 542.112637 232.863594 
L 543.834973 235.992104 
L 545.557309 237.818682 
L 547.279645 238.876153 
L 549.001981 239.529737 
L 550.724318 239.876943 
L 554.16899 240.032609 
L 554.16899 240.032609 
" style="fill:none;stroke:#ff7f0e;stroke-dasharray:1.5,2.475;stroke-dashoffset:0;stroke-width:1.5;"/>
   </g>
   <g id="line2d_52">
    <path clip-path="url(#p640d2ca4a5)" d="M 339.741193 239.939248 
L 341.293979 221.545289 
L 342.846766 117.970756 
L 344.399553 51.6 
L 347.505126 159.870346 
L 349.057913 201.600982 
L 350.6107 209.840719 
L 352.163487 221.764748 
L 353.716273 229.014878 
L 355.26906 233.585572 
L 356.821847 230.044433 
L 358.374634 235.701497 
L 359.92742 237.350293 
L 361.480207 239.786166 
L 364.585781 240.038125 
L 366.138567 239.944611 
L 367.691354 240.038125 
L 369.244141 239.968425 
L 370.796928 240.038125 
L 373.902501 240.038125 
L 378.560861 240.003158 
L 383.219222 240.038125 
L 390.983156 240.019328 
L 400.299876 240.024593 
L 414.274957 240.038125 
L 431.355611 240.030624 
L 454.647413 240.038125 
L 477.939214 240.029694 
L 498.125442 240.038125 
L 508.994949 240.0169 
L 516.758883 240.038125 
L 518.31167 239.99598 
L 519.864457 239.594458 
L 521.417243 237.268613 
L 522.97003 238.223393 
L 524.522817 239.718492 
L 526.075604 240.038125 
L 530.733964 239.964003 
L 532.286751 239.284705 
L 533.839537 236.208646 
L 535.392324 239.349909 
L 536.945111 239.954528 
L 536.945111 239.954528 
" style="fill:none;stroke:#2ca02c;stroke-linecap:square;stroke-width:1.5;"/>
   </g>
   <g id="line2d_53">
    <path clip-path="url(#p640d2ca4a5)" d="M 489.651961 240.032565 
L 493.218809 239.938531 
L 499.333406 239.385019 
L 500.862056 239.028757 
L 501.881155 238.560606 
L 502.900255 237.846701 
L 503.919354 236.858604 
L 505.448003 234.92353 
L 507.486202 232.170879 
L 508.505302 231.073187 
L 511.562601 228.160801 
L 512.5817 226.524381 
L 513.6008 224.346698 
L 515.129449 220.315222 
L 518.186747 211.22136 
L 519.715397 206.804751 
L 520.734496 204.352221 
L 521.753596 202.476743 
L 522.772695 201.079193 
L 524.810894 198.860078 
L 525.829994 197.979506 
L 526.339544 197.680054 
L 526.849093 197.516599 
L 527.358643 197.512021 
L 527.868193 197.676951 
L 528.377743 198.007608 
L 529.396842 199.080102 
L 531.944591 202.354864 
L 532.963691 203.273826 
L 534.49234 204.521389 
L 535.00189 205.100657 
L 535.511439 205.852312 
L 536.020989 206.818456 
L 537.040089 209.476995 
L 538.059188 213.041495 
L 542.135586 228.986774 
L 543.154686 231.825282 
L 544.173785 234.055398 
L 545.192885 235.781686 
L 546.211985 237.119033 
L 547.231084 238.147794 
L 548.250184 238.908229 
L 549.269283 239.427019 
L 550.288383 239.743482 
L 551.817032 239.96025 
L 554.364781 240.032049 
L 554.364781 240.032049 
" style="fill:none;stroke:#2ca02c;stroke-dasharray:1.5,2.475;stroke-dashoffset:0;stroke-width:1.5;"/>
   </g>
   <g id="line2d_54">
    <path clip-path="url(#p640d2ca4a5)" d="M 339.94587 239.646212 
L 340.261798 239.043839 
L 340.577725 237.570925 
L 340.893653 234.40397 
L 341.20958 228.277233 
L 341.525508 217.586497 
L 341.999399 189.778592 
L 342.631254 130.517556 
L 343.421073 54.139296 
L 343.737001 37.459309 
L 343.894964 33.58218 
L 344.052928 32.685744 
L 344.210892 34.549552 
L 344.526819 44.969625 
L 346.264421 123.22834 
L 348.949805 202.572616 
L 349.423696 208.057993 
L 349.739623 209.307038 
L 349.897587 209.409157 
L 350.213515 209.036967 
L 350.529442 208.541292 
L 350.687406 208.460947 
L 350.84537 208.578295 
L 351.161297 209.551853 
L 351.477225 211.553106 
L 352.10908 217.631384 
L 352.898899 224.79521 
L 353.37279 227.411467 
L 354.004645 229.668919 
L 354.6365 231.380369 
L 354.952427 231.78017 
L 355.110391 231.786627 
L 355.426319 231.384457 
L 356.532065 228.950482 
L 356.690029 229.071295 
L 357.005956 229.907467 
L 357.479848 232.332527 
L 358.42763 237.571038 
L 358.901521 239.008943 
L 359.375413 239.673159 
L 359.69134 239.823773 
L 360.007268 239.77235 
L 360.007268 239.77235 
" style="fill:none;stroke:#d62728;stroke-linecap:square;stroke-width:1.5;"/>
   </g>
   <g id="line2d_55">
    <path clip-path="url(#p640d2ca4a5)" d="M 467.049683 239.590899 
L 469.863155 239.410877 
L 471.973258 239.060689 
L 474.083362 238.476257 
L 476.193465 237.597917 
L 477.600201 236.819172 
L 479.006937 235.869024 
L 481.11704 234.108048 
L 483.227144 231.961269 
L 486.040616 228.642889 
L 490.260823 223.517285 
L 492.370926 221.390776 
L 493.777662 220.293997 
L 495.184398 219.516072 
L 496.591133 219.088998 
L 497.997869 219.021202 
L 499.404605 219.295473 
L 500.811341 219.869298 
L 502.218076 220.677633 
L 505.031548 222.656686 
L 507.141651 224.084959 
L 508.548387 224.841778 
L 509.955123 225.358918 
L 511.361858 225.589264 
L 512.768594 225.511894 
L 514.17533 225.13383 
L 515.582066 224.489455 
L 517.692169 223.157804 
L 521.912376 220.248974 
L 523.319112 219.548527 
L 524.725848 219.117664 
L 526.132583 219.010657 
L 527.539319 219.257564 
L 528.946055 219.862665 
L 530.352791 220.80535 
L 531.759526 222.04327 
L 533.86963 224.321246 
L 538.089837 229.506239 
L 540.903309 232.716363 
L 543.013412 234.739801 
L 545.123516 236.366184 
L 547.233619 237.597917 
L 549.343723 238.476257 
L 551.453826 239.060689 
L 553.56393 239.410877 
L 555.674034 239.573377 
L 556.377401 239.590899 
L 556.377401 239.590899 
" style="fill:none;stroke:#d62728;stroke-dasharray:1.5,2.475;stroke-dashoffset:0;stroke-width:1.5;"/>
   </g>
   <g id="patch_7">
    <path d="M 324.327917 240.038125 
L 324.327917 22.318125 
" style="fill:none;stroke:#000000;stroke-linecap:square;stroke-linejoin:miter;stroke-width:0.8;"/>
   </g>
   <g id="patch_8">
    <path d="M 324.327917 240.038125 
L 568.624583 240.038125 
" style="fill:none;stroke:#000000;stroke-linecap:square;stroke-linejoin:miter;stroke-width:0.8;"/>
   </g>
   <g id="text_39">
    <!-- 30 - 100 -->
    <g transform="translate(421.410313 16.318125)scale(0.12 -0.12)">
     <use xlink:href="#DejaVuSans-51"/>
     <use x="63.623047" xlink:href="#DejaVuSans-48"/>
     <use x="127.246094" xlink:href="#DejaVuSans-32"/>
     <use x="159.033203" xlink:href="#DejaVuSans-45"/>
     <use x="195.117188" xlink:href="#DejaVuSans-32"/>
     <use x="226.904297" xlink:href="#DejaVuSans-49"/>
     <use x="290.527344" xlink:href="#DejaVuSans-48"/>
     <use x="354.150391" xlink:href="#DejaVuSans-48"/>
    </g>
   </g>
  </g>
 </g>
 <defs>
  <clipPath id="pf2d1a02abd">
   <rect height="217.72" width="244.296667" x="43.78125" y="22.318125"/>
  </clipPath>
  <clipPath id="p640d2ca4a5">
   <rect height="217.72" width="244.296667" x="324.327917" y="22.318125"/>
  </clipPath>
 </defs>
</svg>
