<?xml version="1.0" encoding="utf-8" standalone="no"?>
<!DOCTYPE svg PUBLIC "-//W3C//DTD SVG 1.1//EN"
  "http://www.w3.org/Graphics/SVG/1.1/DTD/svg11.dtd">
<!-- Created with matplotlib (https://matplotlib.org/) -->
<svg height="277.61625pt" version="1.1" viewBox="0 0 568.168199 277.61625" width="568.168199pt" xmlns="http://www.w3.org/2000/svg" xmlns:xlink="http://www.w3.org/1999/xlink">
 <defs>
  <style type="text/css">
*{stroke-linecap:butt;stroke-linejoin:round;}
  </style>
 </defs>
 <g id="figure_1">
  <g id="patch_1">
   <path d="M 0 277.61625 
L 568.168199 277.61625 
L 568.168199 0 
L 0 0 
z
" style="fill:#ffffff;"/>
  </g>
  <g id="axes_1">
   <g id="patch_2">
    <path d="M 43.78125 240.038125 
L 276.970273 240.038125 
L 276.970273 22.318125 
L 43.78125 22.318125 
z
" style="fill:#ffffff;"/>
   </g>
   <g id="matplotlib.axis_1">
    <g id="xtick_1">
     <g id="line2d_1">
      <defs>
       <path d="M 0 0 
L 0 3.5 
" id="m100c1ec3a7" style="stroke:#000000;stroke-width:0.8;"/>
      </defs>
      <g>
       <use style="stroke:#000000;stroke-width:0.8;" x="50.733054" xlink:href="#m100c1ec3a7" y="240.038125"/>
      </g>
     </g>
     <g id="text_1">
      <!-- 0.007 -->
      <defs>
       <path d="M 31.78125 66.40625 
Q 24.171875 66.40625 20.328125 58.90625 
Q 16.5 51.421875 16.5 36.375 
Q 16.5 21.390625 20.328125 13.890625 
Q 24.171875 6.390625 31.78125 6.390625 
Q 39.453125 6.390625 43.28125 13.890625 
Q 47.125 21.390625 47.125 36.375 
Q 47.125 51.421875 43.28125 58.90625 
Q 39.453125 66.40625 31.78125 66.40625 
z
M 31.78125 74.21875 
Q 44.046875 74.21875 50.515625 64.515625 
Q 56.984375 54.828125 56.984375 36.375 
Q 56.984375 17.96875 50.515625 8.265625 
Q 44.046875 -1.421875 31.78125 -1.421875 
Q 19.53125 -1.421875 13.0625 8.265625 
Q 6.59375 17.96875 6.59375 36.375 
Q 6.59375 54.828125 13.0625 64.515625 
Q 19.53125 74.21875 31.78125 74.21875 
z
" id="DejaVuSans-48"/>
       <path d="M 10.6875 12.40625 
L 21 12.40625 
L 21 0 
L 10.6875 0 
z
" id="DejaVuSans-46"/>
       <path d="M 8.203125 72.90625 
L 55.078125 72.90625 
L 55.078125 68.703125 
L 28.609375 0 
L 18.3125 0 
L 43.21875 64.59375 
L 8.203125 64.59375 
z
" id="DejaVuSans-55"/>
      </defs>
      <g transform="translate(36.418992 254.636563)scale(0.1 -0.1)">
       <use xlink:href="#DejaVuSans-48"/>
       <use x="63.623047" xlink:href="#DejaVuSans-46"/>
       <use x="95.410156" xlink:href="#DejaVuSans-48"/>
       <use x="159.033203" xlink:href="#DejaVuSans-48"/>
       <use x="222.65625" xlink:href="#DejaVuSans-55"/>
      </g>
     </g>
    </g>
    <g id="xtick_2">
     <g id="line2d_2">
      <g>
       <use style="stroke:#000000;stroke-width:0.8;" x="86.307964" xlink:href="#m100c1ec3a7" y="240.038125"/>
      </g>
     </g>
     <g id="text_2">
      <!-- 1 -->
      <defs>
       <path d="M 12.40625 8.296875 
L 28.515625 8.296875 
L 28.515625 63.921875 
L 10.984375 60.40625 
L 10.984375 69.390625 
L 28.421875 72.90625 
L 38.28125 72.90625 
L 38.28125 8.296875 
L 54.390625 8.296875 
L 54.390625 0 
L 12.40625 0 
z
" id="DejaVuSans-49"/>
      </defs>
      <g transform="translate(83.126714 254.636563)scale(0.1 -0.1)">
       <use xlink:href="#DejaVuSans-49"/>
      </g>
     </g>
    </g>
    <g id="xtick_3">
     <g id="line2d_3">
      <g>
       <use style="stroke:#000000;stroke-width:0.8;" x="121.882873" xlink:href="#m100c1ec3a7" y="240.038125"/>
      </g>
     </g>
     <g id="text_3">
      <!-- 1e+02 -->
      <defs>
       <path d="M 56.203125 29.59375 
L 56.203125 25.203125 
L 14.890625 25.203125 
Q 15.484375 15.921875 20.484375 11.0625 
Q 25.484375 6.203125 34.421875 6.203125 
Q 39.59375 6.203125 44.453125 7.46875 
Q 49.3125 8.734375 54.109375 11.28125 
L 54.109375 2.78125 
Q 49.265625 0.734375 44.1875 -0.34375 
Q 39.109375 -1.421875 33.890625 -1.421875 
Q 20.796875 -1.421875 13.15625 6.1875 
Q 5.515625 13.8125 5.515625 26.8125 
Q 5.515625 40.234375 12.765625 48.109375 
Q 20.015625 56 32.328125 56 
Q 43.359375 56 49.78125 48.890625 
Q 56.203125 41.796875 56.203125 29.59375 
z
M 47.21875 32.234375 
Q 47.125 39.59375 43.09375 43.984375 
Q 39.0625 48.390625 32.421875 48.390625 
Q 24.90625 48.390625 20.390625 44.140625 
Q 15.875 39.890625 15.1875 32.171875 
z
" id="DejaVuSans-101"/>
       <path d="M 46 62.703125 
L 46 35.5 
L 73.1875 35.5 
L 73.1875 27.203125 
L 46 27.203125 
L 46 0 
L 37.796875 0 
L 37.796875 27.203125 
L 10.59375 27.203125 
L 10.59375 35.5 
L 37.796875 35.5 
L 37.796875 62.703125 
z
" id="DejaVuSans-43"/>
       <path d="M 19.1875 8.296875 
L 53.609375 8.296875 
L 53.609375 0 
L 7.328125 0 
L 7.328125 8.296875 
Q 12.9375 14.109375 22.625 23.890625 
Q 32.328125 33.6875 34.8125 36.53125 
Q 39.546875 41.84375 41.421875 45.53125 
Q 43.3125 49.21875 43.3125 52.78125 
Q 43.3125 58.59375 39.234375 62.25 
Q 35.15625 65.921875 28.609375 65.921875 
Q 23.96875 65.921875 18.8125 64.3125 
Q 13.671875 62.703125 7.8125 59.421875 
L 7.8125 69.390625 
Q 13.765625 71.78125 18.9375 73 
Q 24.125 74.21875 28.421875 74.21875 
Q 39.75 74.21875 46.484375 68.546875 
Q 53.21875 62.890625 53.21875 53.421875 
Q 53.21875 48.921875 51.53125 44.890625 
Q 49.859375 40.875 45.40625 35.40625 
Q 44.1875 33.984375 37.640625 27.21875 
Q 31.109375 20.453125 19.1875 8.296875 
z
" id="DejaVuSans-50"/>
      </defs>
      <g transform="translate(105.072717 254.636563)scale(0.1 -0.1)">
       <use xlink:href="#DejaVuSans-49"/>
       <use x="63.623047" xlink:href="#DejaVuSans-101"/>
       <use x="125.146484" xlink:href="#DejaVuSans-43"/>
       <use x="208.935547" xlink:href="#DejaVuSans-48"/>
       <use x="272.558594" xlink:href="#DejaVuSans-50"/>
      </g>
     </g>
    </g>
    <g id="xtick_4">
     <g id="line2d_4">
      <g>
       <use style="stroke:#000000;stroke-width:0.8;" x="157.457782" xlink:href="#m100c1ec3a7" y="240.038125"/>
      </g>
     </g>
     <g id="text_4">
      <!-- 2e+04 -->
      <defs>
       <path d="M 37.796875 64.3125 
L 12.890625 25.390625 
L 37.796875 25.390625 
z
M 35.203125 72.90625 
L 47.609375 72.90625 
L 47.609375 25.390625 
L 58.015625 25.390625 
L 58.015625 17.1875 
L 47.609375 17.1875 
L 47.609375 0 
L 37.796875 0 
L 37.796875 17.1875 
L 4.890625 17.1875 
L 4.890625 26.703125 
z
" id="DejaVuSans-52"/>
      </defs>
      <g transform="translate(140.647626 254.636563)scale(0.1 -0.1)">
       <use xlink:href="#DejaVuSans-50"/>
       <use x="63.623047" xlink:href="#DejaVuSans-101"/>
       <use x="125.146484" xlink:href="#DejaVuSans-43"/>
       <use x="208.935547" xlink:href="#DejaVuSans-48"/>
       <use x="272.558594" xlink:href="#DejaVuSans-52"/>
      </g>
     </g>
    </g>
    <g id="xtick_5">
     <g id="line2d_5">
      <g>
       <use style="stroke:#000000;stroke-width:0.8;" x="193.032692" xlink:href="#m100c1ec3a7" y="240.038125"/>
      </g>
     </g>
     <g id="text_5">
      <!-- 3e+06 -->
      <defs>
       <path d="M 40.578125 39.3125 
Q 47.65625 37.796875 51.625 33 
Q 55.609375 28.21875 55.609375 21.1875 
Q 55.609375 10.40625 48.1875 4.484375 
Q 40.765625 -1.421875 27.09375 -1.421875 
Q 22.515625 -1.421875 17.65625 -0.515625 
Q 12.796875 0.390625 7.625 2.203125 
L 7.625 11.71875 
Q 11.71875 9.328125 16.59375 8.109375 
Q 21.484375 6.890625 26.8125 6.890625 
Q 36.078125 6.890625 40.9375 10.546875 
Q 45.796875 14.203125 45.796875 21.1875 
Q 45.796875 27.640625 41.28125 31.265625 
Q 36.765625 34.90625 28.71875 34.90625 
L 20.21875 34.90625 
L 20.21875 43.015625 
L 29.109375 43.015625 
Q 36.375 43.015625 40.234375 45.921875 
Q 44.09375 48.828125 44.09375 54.296875 
Q 44.09375 59.90625 40.109375 62.90625 
Q 36.140625 65.921875 28.71875 65.921875 
Q 24.65625 65.921875 20.015625 65.03125 
Q 15.375 64.15625 9.8125 62.3125 
L 9.8125 71.09375 
Q 15.4375 72.65625 20.34375 73.4375 
Q 25.25 74.21875 29.59375 74.21875 
Q 40.828125 74.21875 47.359375 69.109375 
Q 53.90625 64.015625 53.90625 55.328125 
Q 53.90625 49.265625 50.4375 45.09375 
Q 46.96875 40.921875 40.578125 39.3125 
z
" id="DejaVuSans-51"/>
       <path d="M 33.015625 40.375 
Q 26.375 40.375 22.484375 35.828125 
Q 18.609375 31.296875 18.609375 23.390625 
Q 18.609375 15.53125 22.484375 10.953125 
Q 26.375 6.390625 33.015625 6.390625 
Q 39.65625 6.390625 43.53125 10.953125 
Q 47.40625 15.53125 47.40625 23.390625 
Q 47.40625 31.296875 43.53125 35.828125 
Q 39.65625 40.375 33.015625 40.375 
z
M 52.59375 71.296875 
L 52.59375 62.3125 
Q 48.875 64.0625 45.09375 64.984375 
Q 41.3125 65.921875 37.59375 65.921875 
Q 27.828125 65.921875 22.671875 59.328125 
Q 17.53125 52.734375 16.796875 39.40625 
Q 19.671875 43.65625 24.015625 45.921875 
Q 28.375 48.1875 33.59375 48.1875 
Q 44.578125 48.1875 50.953125 41.515625 
Q 57.328125 34.859375 57.328125 23.390625 
Q 57.328125 12.15625 50.6875 5.359375 
Q 44.046875 -1.421875 33.015625 -1.421875 
Q 20.359375 -1.421875 13.671875 8.265625 
Q 6.984375 17.96875 6.984375 36.375 
Q 6.984375 53.65625 15.1875 63.9375 
Q 23.390625 74.21875 37.203125 74.21875 
Q 40.921875 74.21875 44.703125 73.484375 
Q 48.484375 72.75 52.59375 71.296875 
z
" id="DejaVuSans-54"/>
      </defs>
      <g transform="translate(176.222535 254.636563)scale(0.1 -0.1)">
       <use xlink:href="#DejaVuSans-51"/>
       <use x="63.623047" xlink:href="#DejaVuSans-101"/>
       <use x="125.146484" xlink:href="#DejaVuSans-43"/>
       <use x="208.935547" xlink:href="#DejaVuSans-48"/>
       <use x="272.558594" xlink:href="#DejaVuSans-54"/>
      </g>
     </g>
    </g>
    <g id="xtick_6">
     <g id="line2d_6">
      <g>
       <use style="stroke:#000000;stroke-width:0.8;" x="228.607601" xlink:href="#m100c1ec3a7" y="240.038125"/>
      </g>
     </g>
    </g>
    <g id="xtick_7">
     <g id="line2d_7">
      <g>
       <use style="stroke:#000000;stroke-width:0.8;" x="264.18251" xlink:href="#m100c1ec3a7" y="240.038125"/>
      </g>
     </g>
    </g>
    <g id="text_6">
     <!-- $-10 \log_{10}$ Pr(somatic) -->
     <defs>
      <path d="M 10.59375 35.5 
L 73.1875 35.5 
L 73.1875 27.203125 
L 10.59375 27.203125 
z
" id="DejaVuSans-8722"/>
      <path d="M 9.421875 75.984375 
L 18.40625 75.984375 
L 18.40625 0 
L 9.421875 0 
z
" id="DejaVuSans-108"/>
      <path d="M 30.609375 48.390625 
Q 23.390625 48.390625 19.1875 42.75 
Q 14.984375 37.109375 14.984375 27.296875 
Q 14.984375 17.484375 19.15625 11.84375 
Q 23.34375 6.203125 30.609375 6.203125 
Q 37.796875 6.203125 41.984375 11.859375 
Q 46.1875 17.53125 46.1875 27.296875 
Q 46.1875 37.015625 41.984375 42.703125 
Q 37.796875 48.390625 30.609375 48.390625 
z
M 30.609375 56 
Q 42.328125 56 49.015625 48.375 
Q 55.71875 40.765625 55.71875 27.296875 
Q 55.71875 13.875 49.015625 6.21875 
Q 42.328125 -1.421875 30.609375 -1.421875 
Q 18.84375 -1.421875 12.171875 6.21875 
Q 5.515625 13.875 5.515625 27.296875 
Q 5.515625 40.765625 12.171875 48.375 
Q 18.84375 56 30.609375 56 
z
" id="DejaVuSans-111"/>
      <path d="M 45.40625 27.984375 
Q 45.40625 37.75 41.375 43.109375 
Q 37.359375 48.484375 30.078125 48.484375 
Q 22.859375 48.484375 18.828125 43.109375 
Q 14.796875 37.75 14.796875 27.984375 
Q 14.796875 18.265625 18.828125 12.890625 
Q 22.859375 7.515625 30.078125 7.515625 
Q 37.359375 7.515625 41.375 12.890625 
Q 45.40625 18.265625 45.40625 27.984375 
z
M 54.390625 6.78125 
Q 54.390625 -7.171875 48.1875 -13.984375 
Q 42 -20.796875 29.203125 -20.796875 
Q 24.46875 -20.796875 20.265625 -20.09375 
Q 16.0625 -19.390625 12.109375 -17.921875 
L 12.109375 -9.1875 
Q 16.0625 -11.328125 19.921875 -12.34375 
Q 23.78125 -13.375 27.78125 -13.375 
Q 36.625 -13.375 41.015625 -8.765625 
Q 45.40625 -4.15625 45.40625 5.171875 
L 45.40625 9.625 
Q 42.625 4.78125 38.28125 2.390625 
Q 33.9375 0 27.875 0 
Q 17.828125 0 11.671875 7.65625 
Q 5.515625 15.328125 5.515625 27.984375 
Q 5.515625 40.671875 11.671875 48.328125 
Q 17.828125 56 27.875 56 
Q 33.9375 56 38.28125 53.609375 
Q 42.625 51.21875 45.40625 46.390625 
L 45.40625 54.6875 
L 54.390625 54.6875 
z
" id="DejaVuSans-103"/>
      <path id="DejaVuSans-32"/>
      <path d="M 19.671875 64.796875 
L 19.671875 37.40625 
L 32.078125 37.40625 
Q 38.96875 37.40625 42.71875 40.96875 
Q 46.484375 44.53125 46.484375 51.125 
Q 46.484375 57.671875 42.71875 61.234375 
Q 38.96875 64.796875 32.078125 64.796875 
z
M 9.8125 72.90625 
L 32.078125 72.90625 
Q 44.34375 72.90625 50.609375 67.359375 
Q 56.890625 61.8125 56.890625 51.125 
Q 56.890625 40.328125 50.609375 34.8125 
Q 44.34375 29.296875 32.078125 29.296875 
L 19.671875 29.296875 
L 19.671875 0 
L 9.8125 0 
z
" id="DejaVuSans-80"/>
      <path d="M 41.109375 46.296875 
Q 39.59375 47.171875 37.8125 47.578125 
Q 36.03125 48 33.890625 48 
Q 26.265625 48 22.1875 43.046875 
Q 18.109375 38.09375 18.109375 28.8125 
L 18.109375 0 
L 9.078125 0 
L 9.078125 54.6875 
L 18.109375 54.6875 
L 18.109375 46.1875 
Q 20.953125 51.171875 25.484375 53.578125 
Q 30.03125 56 36.53125 56 
Q 37.453125 56 38.578125 55.875 
Q 39.703125 55.765625 41.0625 55.515625 
z
" id="DejaVuSans-114"/>
      <path d="M 31 75.875 
Q 24.46875 64.65625 21.28125 53.65625 
Q 18.109375 42.671875 18.109375 31.390625 
Q 18.109375 20.125 21.3125 9.0625 
Q 24.515625 -2 31 -13.1875 
L 23.1875 -13.1875 
Q 15.875 -1.703125 12.234375 9.375 
Q 8.59375 20.453125 8.59375 31.390625 
Q 8.59375 42.28125 12.203125 53.3125 
Q 15.828125 64.359375 23.1875 75.875 
z
" id="DejaVuSans-40"/>
      <path d="M 44.28125 53.078125 
L 44.28125 44.578125 
Q 40.484375 46.53125 36.375 47.5 
Q 32.28125 48.484375 27.875 48.484375 
Q 21.1875 48.484375 17.84375 46.4375 
Q 14.5 44.390625 14.5 40.28125 
Q 14.5 37.15625 16.890625 35.375 
Q 19.28125 33.59375 26.515625 31.984375 
L 29.59375 31.296875 
Q 39.15625 29.25 43.1875 25.515625 
Q 47.21875 21.78125 47.21875 15.09375 
Q 47.21875 7.46875 41.1875 3.015625 
Q 35.15625 -1.421875 24.609375 -1.421875 
Q 20.21875 -1.421875 15.453125 -0.5625 
Q 10.6875 0.296875 5.421875 2 
L 5.421875 11.28125 
Q 10.40625 8.6875 15.234375 7.390625 
Q 20.0625 6.109375 24.8125 6.109375 
Q 31.15625 6.109375 34.5625 8.28125 
Q 37.984375 10.453125 37.984375 14.40625 
Q 37.984375 18.0625 35.515625 20.015625 
Q 33.0625 21.96875 24.703125 23.78125 
L 21.578125 24.515625 
Q 13.234375 26.265625 9.515625 29.90625 
Q 5.8125 33.546875 5.8125 39.890625 
Q 5.8125 47.609375 11.28125 51.796875 
Q 16.75 56 26.8125 56 
Q 31.78125 56 36.171875 55.265625 
Q 40.578125 54.546875 44.28125 53.078125 
z
" id="DejaVuSans-115"/>
      <path d="M 52 44.1875 
Q 55.375 50.25 60.0625 53.125 
Q 64.75 56 71.09375 56 
Q 79.640625 56 84.28125 50.015625 
Q 88.921875 44.046875 88.921875 33.015625 
L 88.921875 0 
L 79.890625 0 
L 79.890625 32.71875 
Q 79.890625 40.578125 77.09375 44.375 
Q 74.3125 48.1875 68.609375 48.1875 
Q 61.625 48.1875 57.5625 43.546875 
Q 53.515625 38.921875 53.515625 30.90625 
L 53.515625 0 
L 44.484375 0 
L 44.484375 32.71875 
Q 44.484375 40.625 41.703125 44.40625 
Q 38.921875 48.1875 33.109375 48.1875 
Q 26.21875 48.1875 22.15625 43.53125 
Q 18.109375 38.875 18.109375 30.90625 
L 18.109375 0 
L 9.078125 0 
L 9.078125 54.6875 
L 18.109375 54.6875 
L 18.109375 46.1875 
Q 21.1875 51.21875 25.484375 53.609375 
Q 29.78125 56 35.6875 56 
Q 41.65625 56 45.828125 52.96875 
Q 50 49.953125 52 44.1875 
z
" id="DejaVuSans-109"/>
      <path d="M 34.28125 27.484375 
Q 23.390625 27.484375 19.1875 25 
Q 14.984375 22.515625 14.984375 16.5 
Q 14.984375 11.71875 18.140625 8.90625 
Q 21.296875 6.109375 26.703125 6.109375 
Q 34.1875 6.109375 38.703125 11.40625 
Q 43.21875 16.703125 43.21875 25.484375 
L 43.21875 27.484375 
z
M 52.203125 31.203125 
L 52.203125 0 
L 43.21875 0 
L 43.21875 8.296875 
Q 40.140625 3.328125 35.546875 0.953125 
Q 30.953125 -1.421875 24.3125 -1.421875 
Q 15.921875 -1.421875 10.953125 3.296875 
Q 6 8.015625 6 15.921875 
Q 6 25.140625 12.171875 29.828125 
Q 18.359375 34.515625 30.609375 34.515625 
L 43.21875 34.515625 
L 43.21875 35.40625 
Q 43.21875 41.609375 39.140625 45 
Q 35.0625 48.390625 27.6875 48.390625 
Q 23 48.390625 18.546875 47.265625 
Q 14.109375 46.140625 10.015625 43.890625 
L 10.015625 52.203125 
Q 14.9375 54.109375 19.578125 55.046875 
Q 24.21875 56 28.609375 56 
Q 40.484375 56 46.34375 49.84375 
Q 52.203125 43.703125 52.203125 31.203125 
z
" id="DejaVuSans-97"/>
      <path d="M 18.3125 70.21875 
L 18.3125 54.6875 
L 36.8125 54.6875 
L 36.8125 47.703125 
L 18.3125 47.703125 
L 18.3125 18.015625 
Q 18.3125 11.328125 20.140625 9.421875 
Q 21.96875 7.515625 27.59375 7.515625 
L 36.8125 7.515625 
L 36.8125 0 
L 27.59375 0 
Q 17.1875 0 13.234375 3.875 
Q 9.28125 7.765625 9.28125 18.015625 
L 9.28125 47.703125 
L 2.6875 47.703125 
L 2.6875 54.6875 
L 9.28125 54.6875 
L 9.28125 70.21875 
z
" id="DejaVuSans-116"/>
      <path d="M 9.421875 54.6875 
L 18.40625 54.6875 
L 18.40625 0 
L 9.421875 0 
z
M 9.421875 75.984375 
L 18.40625 75.984375 
L 18.40625 64.59375 
L 9.421875 64.59375 
z
" id="DejaVuSans-105"/>
      <path d="M 48.78125 52.59375 
L 48.78125 44.1875 
Q 44.96875 46.296875 41.140625 47.34375 
Q 37.3125 48.390625 33.40625 48.390625 
Q 24.65625 48.390625 19.8125 42.84375 
Q 14.984375 37.3125 14.984375 27.296875 
Q 14.984375 17.28125 19.8125 11.734375 
Q 24.65625 6.203125 33.40625 6.203125 
Q 37.3125 6.203125 41.140625 7.25 
Q 44.96875 8.296875 48.78125 10.40625 
L 48.78125 2.09375 
Q 45.015625 0.34375 40.984375 -0.53125 
Q 36.96875 -1.421875 32.421875 -1.421875 
Q 20.0625 -1.421875 12.78125 6.34375 
Q 5.515625 14.109375 5.515625 27.296875 
Q 5.515625 40.671875 12.859375 48.328125 
Q 20.21875 56 33.015625 56 
Q 37.15625 56 41.109375 55.140625 
Q 45.0625 54.296875 48.78125 52.59375 
z
" id="DejaVuSans-99"/>
      <path d="M 8.015625 75.875 
L 15.828125 75.875 
Q 23.140625 64.359375 26.78125 53.3125 
Q 30.421875 42.28125 30.421875 31.390625 
Q 30.421875 20.453125 26.78125 9.375 
Q 23.140625 -1.703125 15.828125 -13.1875 
L 8.015625 -13.1875 
Q 14.5 -2 17.703125 9.0625 
Q 20.90625 20.125 20.90625 31.390625 
Q 20.90625 42.671875 17.703125 53.65625 
Q 14.5 64.65625 8.015625 75.875 
z
" id="DejaVuSans-41"/>
     </defs>
     <g transform="translate(107.275761 268.31625)scale(0.1 -0.1)">
      <use transform="translate(0 0.015625)" xlink:href="#DejaVuSans-8722"/>
      <use transform="translate(83.789062 0.015625)" xlink:href="#DejaVuSans-49"/>
      <use transform="translate(147.412109 0.015625)" xlink:href="#DejaVuSans-48"/>
      <use transform="translate(211.035156 0.015625)" xlink:href="#DejaVuSans-108"/>
      <use transform="translate(238.818359 0.015625)" xlink:href="#DejaVuSans-111"/>
      <use transform="translate(300 0.015625)" xlink:href="#DejaVuSans-103"/>
      <use transform="translate(364.433594 -16.390625)scale(0.7)" xlink:href="#DejaVuSans-49"/>
      <use transform="translate(408.969727 -16.390625)scale(0.7)" xlink:href="#DejaVuSans-48"/>
      <use transform="translate(456.240234 0.015625)" xlink:href="#DejaVuSans-32"/>
      <use transform="translate(488.027344 0.015625)" xlink:href="#DejaVuSans-80"/>
      <use transform="translate(548.330078 0.015625)" xlink:href="#DejaVuSans-114"/>
      <use transform="translate(589.443359 0.015625)" xlink:href="#DejaVuSans-40"/>
      <use transform="translate(628.457031 0.015625)" xlink:href="#DejaVuSans-115"/>
      <use transform="translate(680.556641 0.015625)" xlink:href="#DejaVuSans-111"/>
      <use transform="translate(741.738281 0.015625)" xlink:href="#DejaVuSans-109"/>
      <use transform="translate(839.150391 0.015625)" xlink:href="#DejaVuSans-97"/>
      <use transform="translate(900.429688 0.015625)" xlink:href="#DejaVuSans-116"/>
      <use transform="translate(939.638672 0.015625)" xlink:href="#DejaVuSans-105"/>
      <use transform="translate(967.421875 0.015625)" xlink:href="#DejaVuSans-99"/>
      <use transform="translate(1022.402344 0.015625)" xlink:href="#DejaVuSans-41"/>
     </g>
    </g>
   </g>
   <g id="matplotlib.axis_2">
    <g id="ytick_1">
     <g id="line2d_8">
      <defs>
       <path d="M 0 0 
L -3.5 0 
" id="m626e4a72f8" style="stroke:#000000;stroke-width:0.8;"/>
      </defs>
      <g>
       <use style="stroke:#000000;stroke-width:0.8;" x="43.78125" xlink:href="#m626e4a72f8" y="240.038125"/>
      </g>
     </g>
     <g id="text_7">
      <!-- 0.0 -->
      <g transform="translate(20.878125 243.837344)scale(0.1 -0.1)">
       <use xlink:href="#DejaVuSans-48"/>
       <use x="63.623047" xlink:href="#DejaVuSans-46"/>
       <use x="95.410156" xlink:href="#DejaVuSans-48"/>
      </g>
     </g>
    </g>
    <g id="ytick_2">
     <g id="line2d_9">
      <g>
       <use style="stroke:#000000;stroke-width:0.8;" x="43.78125" xlink:href="#m626e4a72f8" y="214.766648"/>
      </g>
     </g>
     <g id="text_8">
      <!-- 0.5 -->
      <defs>
       <path d="M 10.796875 72.90625 
L 49.515625 72.90625 
L 49.515625 64.59375 
L 19.828125 64.59375 
L 19.828125 46.734375 
Q 21.96875 47.46875 24.109375 47.828125 
Q 26.265625 48.1875 28.421875 48.1875 
Q 40.625 48.1875 47.75 41.5 
Q 54.890625 34.8125 54.890625 23.390625 
Q 54.890625 11.625 47.5625 5.09375 
Q 40.234375 -1.421875 26.90625 -1.421875 
Q 22.3125 -1.421875 17.546875 -0.640625 
Q 12.796875 0.140625 7.71875 1.703125 
L 7.71875 11.625 
Q 12.109375 9.234375 16.796875 8.0625 
Q 21.484375 6.890625 26.703125 6.890625 
Q 35.15625 6.890625 40.078125 11.328125 
Q 45.015625 15.765625 45.015625 23.390625 
Q 45.015625 31 40.078125 35.4375 
Q 35.15625 39.890625 26.703125 39.890625 
Q 22.75 39.890625 18.8125 39.015625 
Q 14.890625 38.140625 10.796875 36.28125 
z
" id="DejaVuSans-53"/>
      </defs>
      <g transform="translate(20.878125 218.565867)scale(0.1 -0.1)">
       <use xlink:href="#DejaVuSans-48"/>
       <use x="63.623047" xlink:href="#DejaVuSans-46"/>
       <use x="95.410156" xlink:href="#DejaVuSans-53"/>
      </g>
     </g>
    </g>
    <g id="ytick_3">
     <g id="line2d_10">
      <g>
       <use style="stroke:#000000;stroke-width:0.8;" x="43.78125" xlink:href="#m626e4a72f8" y="189.495172"/>
      </g>
     </g>
     <g id="text_9">
      <!-- 1.0 -->
      <g transform="translate(20.878125 193.29439)scale(0.1 -0.1)">
       <use xlink:href="#DejaVuSans-49"/>
       <use x="63.623047" xlink:href="#DejaVuSans-46"/>
       <use x="95.410156" xlink:href="#DejaVuSans-48"/>
      </g>
     </g>
    </g>
    <g id="ytick_4">
     <g id="line2d_11">
      <g>
       <use style="stroke:#000000;stroke-width:0.8;" x="43.78125" xlink:href="#m626e4a72f8" y="164.223695"/>
      </g>
     </g>
     <g id="text_10">
      <!-- 1.5 -->
      <g transform="translate(20.878125 168.022914)scale(0.1 -0.1)">
       <use xlink:href="#DejaVuSans-49"/>
       <use x="63.623047" xlink:href="#DejaVuSans-46"/>
       <use x="95.410156" xlink:href="#DejaVuSans-53"/>
      </g>
     </g>
    </g>
    <g id="ytick_5">
     <g id="line2d_12">
      <g>
       <use style="stroke:#000000;stroke-width:0.8;" x="43.78125" xlink:href="#m626e4a72f8" y="138.952218"/>
      </g>
     </g>
     <g id="text_11">
      <!-- 2.0 -->
      <g transform="translate(20.878125 142.751437)scale(0.1 -0.1)">
       <use xlink:href="#DejaVuSans-50"/>
       <use x="63.623047" xlink:href="#DejaVuSans-46"/>
       <use x="95.410156" xlink:href="#DejaVuSans-48"/>
      </g>
     </g>
    </g>
    <g id="ytick_6">
     <g id="line2d_13">
      <g>
       <use style="stroke:#000000;stroke-width:0.8;" x="43.78125" xlink:href="#m626e4a72f8" y="113.680741"/>
      </g>
     </g>
     <g id="text_12">
      <!-- 2.5 -->
      <g transform="translate(20.878125 117.47996)scale(0.1 -0.1)">
       <use xlink:href="#DejaVuSans-50"/>
       <use x="63.623047" xlink:href="#DejaVuSans-46"/>
       <use x="95.410156" xlink:href="#DejaVuSans-53"/>
      </g>
     </g>
    </g>
    <g id="ytick_7">
     <g id="line2d_14">
      <g>
       <use style="stroke:#000000;stroke-width:0.8;" x="43.78125" xlink:href="#m626e4a72f8" y="88.409265"/>
      </g>
     </g>
     <g id="text_13">
      <!-- 3.0 -->
      <g transform="translate(20.878125 92.208483)scale(0.1 -0.1)">
       <use xlink:href="#DejaVuSans-51"/>
       <use x="63.623047" xlink:href="#DejaVuSans-46"/>
       <use x="95.410156" xlink:href="#DejaVuSans-48"/>
      </g>
     </g>
    </g>
    <g id="ytick_8">
     <g id="line2d_15">
      <g>
       <use style="stroke:#000000;stroke-width:0.8;" x="43.78125" xlink:href="#m626e4a72f8" y="63.137788"/>
      </g>
     </g>
     <g id="text_14">
      <!-- 3.5 -->
      <g transform="translate(20.878125 66.937007)scale(0.1 -0.1)">
       <use xlink:href="#DejaVuSans-51"/>
       <use x="63.623047" xlink:href="#DejaVuSans-46"/>
       <use x="95.410156" xlink:href="#DejaVuSans-53"/>
      </g>
     </g>
    </g>
    <g id="ytick_9">
     <g id="line2d_16">
      <g>
       <use style="stroke:#000000;stroke-width:0.8;" x="43.78125" xlink:href="#m626e4a72f8" y="37.866311"/>
      </g>
     </g>
     <g id="text_15">
      <!-- 4.0 -->
      <g transform="translate(20.878125 41.66553)scale(0.1 -0.1)">
       <use xlink:href="#DejaVuSans-52"/>
       <use x="63.623047" xlink:href="#DejaVuSans-46"/>
       <use x="95.410156" xlink:href="#DejaVuSans-48"/>
      </g>
     </g>
    </g>
    <g id="text_16">
     <!-- density -->
     <defs>
      <path d="M 45.40625 46.390625 
L 45.40625 75.984375 
L 54.390625 75.984375 
L 54.390625 0 
L 45.40625 0 
L 45.40625 8.203125 
Q 42.578125 3.328125 38.25 0.953125 
Q 33.9375 -1.421875 27.875 -1.421875 
Q 17.96875 -1.421875 11.734375 6.484375 
Q 5.515625 14.40625 5.515625 27.296875 
Q 5.515625 40.1875 11.734375 48.09375 
Q 17.96875 56 27.875 56 
Q 33.9375 56 38.25 53.625 
Q 42.578125 51.265625 45.40625 46.390625 
z
M 14.796875 27.296875 
Q 14.796875 17.390625 18.875 11.75 
Q 22.953125 6.109375 30.078125 6.109375 
Q 37.203125 6.109375 41.296875 11.75 
Q 45.40625 17.390625 45.40625 27.296875 
Q 45.40625 37.203125 41.296875 42.84375 
Q 37.203125 48.484375 30.078125 48.484375 
Q 22.953125 48.484375 18.875 42.84375 
Q 14.796875 37.203125 14.796875 27.296875 
z
" id="DejaVuSans-100"/>
      <path d="M 54.890625 33.015625 
L 54.890625 0 
L 45.90625 0 
L 45.90625 32.71875 
Q 45.90625 40.484375 42.875 44.328125 
Q 39.84375 48.1875 33.796875 48.1875 
Q 26.515625 48.1875 22.3125 43.546875 
Q 18.109375 38.921875 18.109375 30.90625 
L 18.109375 0 
L 9.078125 0 
L 9.078125 54.6875 
L 18.109375 54.6875 
L 18.109375 46.1875 
Q 21.34375 51.125 25.703125 53.5625 
Q 30.078125 56 35.796875 56 
Q 45.21875 56 50.046875 50.171875 
Q 54.890625 44.34375 54.890625 33.015625 
z
" id="DejaVuSans-110"/>
      <path d="M 32.171875 -5.078125 
Q 28.375 -14.84375 24.75 -17.8125 
Q 21.140625 -20.796875 15.09375 -20.796875 
L 7.90625 -20.796875 
L 7.90625 -13.28125 
L 13.1875 -13.28125 
Q 16.890625 -13.28125 18.9375 -11.515625 
Q 21 -9.765625 23.484375 -3.21875 
L 25.09375 0.875 
L 2.984375 54.6875 
L 12.5 54.6875 
L 29.59375 11.921875 
L 46.6875 54.6875 
L 56.203125 54.6875 
z
" id="DejaVuSans-121"/>
     </defs>
     <g transform="translate(14.798438 149.510938)rotate(-90)scale(0.1 -0.1)">
      <use xlink:href="#DejaVuSans-100"/>
      <use x="63.476562" xlink:href="#DejaVuSans-101"/>
      <use x="125" xlink:href="#DejaVuSans-110"/>
      <use x="188.378906" xlink:href="#DejaVuSans-115"/>
      <use x="240.478516" xlink:href="#DejaVuSans-105"/>
      <use x="268.261719" xlink:href="#DejaVuSans-116"/>
      <use x="307.470703" xlink:href="#DejaVuSans-121"/>
     </g>
    </g>
   </g>
   <g id="line2d_17">
    <path clip-path="url(#peb1c638697)" d="M 80.004636 219.183206 
L 81.200366 240.038125 
L 82.396097 32.685744 
L 83.591827 59.298673 
L 84.787558 196.976819 
L 85.983288 222.39238 
L 87.179018 233.112093 
L 88.374749 237.969106 
L 89.570479 237.750825 
L 90.76621 240.038125 
L 91.96194 238.598808 
L 93.157671 240.038125 
L 94.353401 239.094263 
L 95.549132 240.038125 
L 96.744862 239.202291 
L 97.940593 240.038125 
L 99.136323 239.361719 
L 100.332054 240.038125 
L 101.527784 239.437729 
L 102.723515 240.038125 
L 103.919245 239.501398 
L 105.114976 240.038125 
L 106.310706 239.601261 
L 107.506437 240.038125 
L 108.702167 239.548139 
L 109.897898 240.038125 
L 111.093628 239.62044 
L 112.289359 240.038125 
L 113.485089 239.6261 
L 114.68082 240.038125 
L 115.87655 239.706068 
L 117.072281 240.038125 
L 118.268011 239.706497 
L 119.463742 240.038125 
L 120.659472 239.709145 
L 121.855203 240.038125 
L 123.050933 239.74299 
L 124.246664 240.038125 
L 125.442394 239.683161 
L 126.638125 240.038125 
L 127.833855 239.695819 
L 129.029586 240.038125 
L 130.225316 239.691445 
L 131.421047 240.038125 
L 132.616777 239.662091 
L 133.812508 240.038125 
L 135.008238 239.599259 
L 136.203969 240.038125 
L 137.399699 239.457262 
L 138.59543 240.038125 
L 139.79116 239.330133 
L 140.986891 240.038125 
L 142.182621 238.988497 
L 143.378352 240.038125 
L 144.574082 237.586849 
L 145.769813 240.038125 
L 146.965543 237.294782 
L 148.161274 240.038125 
L 149.357004 225.569647 
L 150.552735 240.038125 
L 151.748465 237.045574 
L 152.944196 240.038125 
L 154.139926 222.627086 
L 155.335657 240.038125 
L 156.531387 239.18679 
L 157.727118 230.344943 
L 158.922848 240.038125 
L 160.118579 236.746713 
L 161.314309 238.451849 
L 162.51004 239.220031 
L 163.70577 238.840446 
L 164.901501 239.710643 
L 166.097231 239.485464 
L 167.292962 239.855839 
L 168.488692 239.696265 
L 169.684423 240.038125 
L 170.880153 239.817308 
L 172.075884 240.038125 
L 173.271614 239.831372 
L 174.467345 240.038125 
L 175.663075 239.841978 
L 176.858806 240.038125 
L 178.054536 239.836707 
L 179.250267 240.038125 
L 180.445997 239.835403 
L 181.641728 240.038125 
L 182.837458 239.833075 
L 184.033189 240.038125 
L 185.228919 239.825255 
L 186.42465 240.038125 
L 187.62038 239.803179 
L 188.816111 240.038125 
L 190.011841 239.811684 
L 191.207572 240.038125 
L 192.403302 239.797362 
L 193.599033 240.038125 
L 194.794763 239.777594 
L 195.990494 240.038125 
L 197.186224 239.721567 
L 198.381955 240.038125 
L 199.577685 239.724367 
L 200.773416 240.038125 
L 201.969146 239.703761 
L 203.164877 240.038125 
L 204.360607 239.657974 
L 205.556338 240.038125 
L 206.752068 239.61603 
L 207.947799 240.038125 
L 209.143529 239.546913 
L 210.33926 240.038125 
L 211.53499 239.460179 
L 212.730721 240.038125 
L 213.926451 239.327975 
L 215.122182 240.038125 
L 216.317912 239.17569 
L 217.513643 240.038125 
L 218.709373 238.954827 
L 219.905104 240.038125 
L 221.100834 238.602861 
L 222.296565 240.038125 
L 223.492295 238.059835 
L 224.688026 240.038125 
L 225.883756 237.139444 
L 227.079486 240.038125 
L 228.275217 235.400119 
L 229.470947 240.038125 
L 230.666678 231.488655 
L 231.862408 240.038125 
L 231.862408 240.038125 
" style="fill:none;stroke:#1f77b4;stroke-linecap:square;stroke-width:1.5;"/>
   </g>
   <g id="line2d_18">
    <path clip-path="url(#peb1c638697)" d="M 54.380751 240.031044 
L 66.06524 239.925956 
L 74.411304 239.604147 
L 84.426581 239.147372 
L 89.434219 239.119211 
L 96.11107 239.310942 
L 109.464772 239.737387 
L 124.487687 239.911268 
L 131.164538 239.758707 
L 136.172176 239.419873 
L 141.179815 238.833631 
L 146.187453 237.995925 
L 157.871942 235.767824 
L 161.210368 235.450155 
L 164.548793 235.410426 
L 167.887219 235.60652 
L 174.56407 236.130694 
L 177.902495 236.114363 
L 181.240921 235.746131 
L 184.579346 234.988867 
L 187.917772 233.882076 
L 192.92541 231.818109 
L 197.933048 229.753782 
L 201.271474 228.632064 
L 204.6099 227.832248 
L 207.948325 227.401286 
L 211.286751 227.349176 
L 214.625176 227.661779 
L 217.963602 228.312525 
L 221.302027 229.272054 
L 224.640453 230.508603 
L 227.978878 231.972944 
L 237.994155 236.661201 
L 241.33258 237.871439 
L 244.671006 238.764282 
L 248.009431 239.354303 
L 251.347857 239.703672 
L 256.355495 239.942285 
L 264.701559 240.02926 
L 266.370772 240.031285 
L 266.370772 240.031285 
" style="fill:none;stroke:#1f77b4;stroke-dasharray:1.5,2.475;stroke-dashoffset:0;stroke-width:1.5;"/>
   </g>
   <g id="line2d_19">
    <path clip-path="url(#peb1c638697)" d="M 80.943681 232.494798 
L 82.228299 240.038125 
L 83.512917 152.23899 
L 84.797535 169.260538 
L 87.366771 227.068672 
L 88.651389 229.889613 
L 89.936007 238.213003 
L 91.220625 236.150056 
L 92.505243 240.038125 
L 93.789861 238.818993 
L 95.074479 240.038125 
L 96.359097 239.356339 
L 97.643715 240.038125 
L 98.928333 238.348144 
L 100.212951 240.038125 
L 101.497569 239.548328 
L 102.782187 240.038125 
L 104.066805 239.674891 
L 105.351423 240.038125 
L 106.636041 239.75479 
L 107.920659 240.038125 
L 109.205277 239.816091 
L 110.489895 240.038125 
L 111.774513 239.759625 
L 113.059131 239.673581 
L 114.343749 239.965973 
L 115.628367 240.038125 
L 116.912985 239.917236 
L 118.197603 240.038125 
L 119.482221 239.915083 
L 120.766839 240.038125 
L 122.051457 239.920544 
L 123.336075 240.038125 
L 124.620693 239.927306 
L 125.905311 240.038125 
L 127.189929 239.933732 
L 128.474547 240.038125 
L 129.759165 239.939331 
L 131.043783 240.038125 
L 132.328401 239.943953 
L 133.613019 240.038125 
L 134.897637 239.947541 
L 136.182255 240.038125 
L 137.466873 239.950035 
L 138.751491 240.038125 
L 140.036109 239.951308 
L 141.320727 240.038125 
L 142.605344 239.951109 
L 143.889962 240.038125 
L 145.17458 239.948952 
L 146.459198 240.038125 
L 147.743816 239.943907 
L 149.028434 240.038125 
L 150.313052 239.934167 
L 151.59767 240.038125 
L 152.882288 239.916347 
L 154.166906 240.038125 
L 155.451524 239.890802 
L 156.736142 239.981988 
L 158.02076 239.376447 
L 159.305378 240.038125 
L 160.589996 237.740764 
L 161.874614 240.038125 
L 163.159232 239.884321 
L 164.44385 239.56722 
L 165.728468 240.027832 
L 167.013086 239.082809 
L 168.297704 239.75501 
L 169.582322 239.881379 
L 170.86694 239.562518 
L 172.151558 240.038125 
L 173.436176 239.937699 
L 174.720794 240.038125 
L 176.005412 239.953675 
L 177.29003 240.038125 
L 178.574648 239.956913 
L 179.859266 240.038125 
L 181.143884 239.955975 
L 182.428502 240.038125 
L 183.71312 239.951808 
L 184.997738 240.038125 
L 186.282356 239.942413 
L 187.566974 240.038125 
L 188.851592 239.917174 
L 190.13621 240.038125 
L 191.420828 239.515799 
L 192.705446 239.934241 
L 200.413154 240.038125 
L 201.697772 239.929527 
L 202.98239 240.038125 
L 204.267008 239.922085 
L 205.551626 240.038125 
L 206.836244 239.913366 
L 208.120862 240.038125 
L 209.40548 239.905069 
L 210.690098 240.038125 
L 211.974716 239.912335 
L 213.259334 239.924922 
L 214.543952 239.514799 
L 215.82857 240.038125 
L 217.113188 239.828526 
L 218.397806 240.038125 
L 220.967042 239.594638 
L 222.25166 239.227032 
L 223.536278 240.038125 
L 224.820896 238.959576 
L 226.105514 239.937005 
L 227.390132 239.052209 
L 228.67475 240.030376 
L 229.959368 239.130707 
L 231.243986 240.038125 
L 232.528604 238.527291 
L 233.813221 239.917825 
L 235.097839 239.151148 
L 236.382457 240.038125 
L 237.667075 238.821697 
L 238.951693 240.038125 
L 240.236311 238.01611 
L 241.520929 240.038125 
L 242.805547 236.218958 
L 244.090165 240.038125 
L 244.090165 240.038125 
" style="fill:none;stroke:#ff7f0e;stroke-linecap:square;stroke-width:1.5;"/>
   </g>
   <g id="line2d_20">
    <path clip-path="url(#peb1c638697)" d="M 193.151482 240.036329 
L 196.786458 239.9396 
L 199.51269 239.901584 
L 202.693294 239.93651 
L 206.782642 239.728163 
L 210.417618 239.425768 
L 211.326362 239.098694 
L 212.235106 238.514284 
L 213.14385 237.654685 
L 214.961338 235.43648 
L 216.778826 233.400044 
L 217.68757 232.326737 
L 218.596314 230.886822 
L 219.505058 229.016287 
L 220.868174 225.634074 
L 222.23129 221.58673 
L 223.594406 216.770083 
L 226.320638 206.923202 
L 227.683754 202.704233 
L 228.138126 201.705866 
L 228.592498 201.013094 
L 229.04687 200.633448 
L 229.501242 200.536189 
L 229.955614 200.669391 
L 230.864358 201.413631 
L 232.681846 203.440202 
L 233.59059 203.940485 
L 235.408078 204.303609 
L 235.86245 204.608786 
L 236.316822 205.078162 
L 236.771194 205.734878 
L 237.225566 206.61434 
L 237.679938 207.769364 
L 238.588682 211.124346 
L 239.497426 215.904214 
L 241.314914 226.601554 
L 242.223658 230.91766 
L 243.132402 234.341104 
L 244.041146 236.880354 
L 244.94989 238.48737 
L 245.858634 239.313289 
L 246.767378 239.687762 
L 248.130494 239.929905 
L 250.402354 240.033393 
L 250.856726 240.035792 
L 250.856726 240.035792 
" style="fill:none;stroke:#ff7f0e;stroke-dasharray:1.5,2.475;stroke-dashoffset:0;stroke-width:1.5;"/>
   </g>
   <g id="line2d_21">
    <path clip-path="url(#peb1c638697)" d="M 79.86007 218.31803 
L 81.148409 240.038125 
L 82.436749 37.46199 
L 83.725089 87.57011 
L 85.013428 200.189697 
L 86.301768 226.085292 
L 88.878447 239.222149 
L 90.166787 236.842658 
L 91.455127 240.038125 
L 92.743466 238.139644 
L 94.031806 240.038125 
L 95.320146 238.678774 
L 96.608485 240.038125 
L 97.896825 238.939999 
L 99.185165 240.038125 
L 100.473504 239.153483 
L 101.761844 240.038125 
L 103.050184 239.318779 
L 104.338523 240.038125 
L 105.626863 239.406769 
L 106.915203 240.038125 
L 108.203542 239.427053 
L 109.491882 240.038125 
L 110.780222 239.504778 
L 112.068561 240.038125 
L 113.356901 239.539841 
L 114.645241 240.038125 
L 115.93358 239.625477 
L 117.22192 240.038125 
L 118.51026 239.637845 
L 119.798599 240.038125 
L 121.086939 239.67453 
L 122.375279 240.038125 
L 123.663618 239.676799 
L 124.951958 240.038125 
L 126.240298 239.663324 
L 127.528637 240.038125 
L 128.816977 239.64364 
L 130.105317 240.038125 
L 131.393656 239.619313 
L 132.681996 240.038125 
L 133.970336 239.58427 
L 135.258675 240.038125 
L 136.547015 239.52052 
L 137.835355 240.038125 
L 139.123694 239.407365 
L 140.412034 240.038125 
L 141.700373 239.187002 
L 142.988713 240.038125 
L 144.277053 238.776322 
L 145.565392 240.038125 
L 146.853732 237.766885 
L 148.142072 240.038125 
L 149.430411 226.596421 
L 150.718751 240.038125 
L 152.007091 238.489781 
L 153.29543 237.324337 
L 154.58377 229.712786 
L 155.87211 240.038125 
L 157.160449 232.567963 
L 158.448789 238.175658 
L 159.737129 238.715026 
L 161.025468 237.009858 
L 162.313808 239.706039 
L 163.602148 238.819266 
L 164.890487 239.438305 
L 166.178827 239.856448 
L 167.467167 239.48358 
L 168.755506 240.038125 
L 170.043846 239.700514 
L 171.332186 240.038125 
L 172.620525 239.769461 
L 173.908865 240.038125 
L 175.197205 239.79697 
L 176.485544 240.038125 
L 177.773884 239.805878 
L 179.062224 240.038125 
L 180.350563 239.813257 
L 181.638903 240.038125 
L 182.927243 239.812279 
L 184.215582 240.038125 
L 185.503922 239.811722 
L 186.792262 240.038125 
L 188.080601 239.794205 
L 189.368941 240.038125 
L 190.657281 239.800367 
L 191.94562 240.038125 
L 193.23396 239.775813 
L 194.5223 240.038125 
L 195.810639 239.784053 
L 197.098979 240.038125 
L 198.387319 239.766769 
L 199.675658 240.038125 
L 200.963998 239.747891 
L 202.252338 240.038125 
L 203.540677 239.685953 
L 204.829017 240.038125 
L 206.117357 239.626212 
L 207.405696 240.038125 
L 208.694036 239.514698 
L 209.982376 240.038125 
L 211.270715 239.458664 
L 212.559055 240.038125 
L 213.847395 239.339379 
L 215.135734 240.038125 
L 216.424074 239.185231 
L 217.712414 240.038125 
L 219.000753 239.065014 
L 220.289093 240.038125 
L 221.577433 238.929958 
L 222.865772 240.038125 
L 224.154112 238.772743 
L 225.442452 240.038125 
L 226.730791 238.55236 
L 228.019131 240.038125 
L 229.307471 238.468895 
L 230.59581 240.038125 
L 231.88415 238.102676 
L 233.17249 240.038125 
L 234.460829 237.649129 
L 235.749169 240.038125 
L 237.037509 236.731997 
L 238.325848 240.038125 
L 239.614188 234.932717 
L 240.902528 240.038125 
L 242.190867 230.896226 
L 243.479207 240.038125 
L 243.479207 240.038125 
" style="fill:none;stroke:#2ca02c;stroke-linecap:square;stroke-width:1.5;"/>
   </g>
   <g id="line2d_22">
    <path clip-path="url(#peb1c638697)" d="M 79.353238 240.038125 
L 131.351318 240.031669 
L 148.684012 240.010088 
L 154.017148 239.891555 
L 155.350432 239.401726 
L 156.683716 239.889929 
L 159.350284 239.911613 
L 163.350137 239.435302 
L 164.683421 239.882865 
L 167.349989 239.979937 
L 178.016262 239.93702 
L 192.682387 239.652569 
L 196.682239 239.301935 
L 199.348808 238.866891 
L 202.015376 237.988804 
L 204.681944 236.426339 
L 206.015228 235.105522 
L 208.681796 231.211018 
L 210.01508 228.600573 
L 215.348217 217.221181 
L 218.014785 213.115027 
L 219.348069 211.391018 
L 222.014637 209.139244 
L 223.347921 207.620599 
L 224.681205 207.522854 
L 226.01449 208.478323 
L 227.347774 210.867998 
L 228.681058 214.013547 
L 231.347626 219.343522 
L 234.014194 223.882804 
L 235.347478 226.124687 
L 236.680762 228.941213 
L 239.347331 235.316996 
L 240.680615 237.805696 
L 242.013899 239.178303 
L 243.347183 239.806711 
L 244.680467 239.997778 
L 248.680319 240.036763 
L 248.680319 240.036763 
" style="fill:none;stroke:#2ca02c;stroke-dasharray:1.5,2.475;stroke-dashoffset:0;stroke-width:1.5;"/>
   </g>
   <g id="line2d_23">
    <path clip-path="url(#peb1c638697)" d="M 80.451231 230.621221 
L 81.738939 240.038125 
L 83.026646 130.776513 
L 84.314354 145.672372 
L 85.602062 193.486107 
L 86.889769 222.170986 
L 88.177477 227.308082 
L 89.465184 234.99819 
L 90.752892 235.95567 
L 92.040599 239.516538 
L 93.328307 238.249013 
L 94.616014 240.038125 
L 95.903722 238.567188 
L 97.191429 240.038125 
L 98.479137 239.288634 
L 99.766845 240.038125 
L 101.054552 239.614384 
L 102.34226 240.038125 
L 103.629967 239.779091 
L 104.917675 240.038125 
L 106.205382 239.864085 
L 107.49309 240.038125 
L 108.780797 239.845164 
L 110.068505 240.038125 
L 111.356212 239.908965 
L 112.64392 239.985969 
L 113.931628 239.908729 
L 115.219335 240.038125 
L 116.507043 239.843266 
L 117.79475 240.038125 
L 119.082458 239.931517 
L 120.370165 240.038125 
L 121.657873 239.923169 
L 122.94558 240.038125 
L 124.233288 239.92648 
L 125.520995 240.038125 
L 126.808703 239.931216 
L 128.09641 240.038125 
L 129.384118 239.935637 
L 130.671826 240.038125 
L 131.959533 239.939177 
L 133.247241 240.038125 
L 134.534948 239.941362 
L 135.822656 240.038125 
L 137.110363 239.940439 
L 138.398071 240.038125 
L 139.685778 239.849089 
L 140.973486 239.947572 
L 142.261193 239.871444 
L 143.548901 240.038125 
L 144.836609 239.942986 
L 146.124316 240.038125 
L 147.412024 239.943027 
L 148.699731 240.038125 
L 149.987439 239.838486 
L 151.275146 240.009744 
L 152.562854 240.007904 
L 153.850561 238.140126 
L 155.138269 239.38257 
L 156.425976 240.038125 
L 157.713684 236.797868 
L 159.001392 240.038125 
L 160.289099 238.533981 
L 161.576807 240.038125 
L 162.864514 238.355141 
L 164.152222 239.707676 
L 168.015344 239.521651 
L 169.303052 239.834292 
L 170.590759 239.617917 
L 171.878467 240.038125 
L 173.166175 239.935126 
L 174.453882 240.005249 
L 175.74159 239.891036 
L 177.029297 240.038125 
L 178.317005 239.943426 
L 179.604712 240.038125 
L 180.89242 239.947024 
L 182.180127 240.038125 
L 183.467835 239.948195 
L 184.755542 240.038125 
L 186.04325 239.947837 
L 187.330957 240.038125 
L 188.618665 239.948751 
L 189.906373 240.038125 
L 191.19408 239.81079 
L 192.481788 240.038125 
L 193.769495 239.927377 
L 195.057203 240.038125 
L 196.34491 239.925113 
L 197.632618 240.038125 
L 198.920325 239.815073 
L 200.208033 240.038125 
L 201.49574 239.933618 
L 202.783448 240.038125 
L 204.071156 239.920976 
L 205.358863 240.038125 
L 206.646571 239.908336 
L 207.934278 240.038125 
L 209.221986 239.790371 
L 210.509693 240.038125 
L 214.372816 239.799934 
L 215.660523 240.038125 
L 216.948231 239.7075 
L 218.235939 240.038125 
L 220.811354 239.474249 
L 222.099061 238.643559 
L 223.386769 238.957598 
L 224.674476 238.717381 
L 225.962184 239.361837 
L 227.249891 238.767448 
L 228.537599 239.212167 
L 229.825306 238.967864 
L 232.400722 239.12678 
L 233.688429 239.557178 
L 234.976137 238.58102 
L 236.263844 240.038125 
L 237.551552 238.584226 
L 238.839259 240.038125 
L 240.126967 237.672969 
L 241.414674 240.038125 
L 242.702382 235.917068 
L 243.990089 240.038125 
L 243.990089 240.038125 
" style="fill:none;stroke:#d62728;stroke-linecap:square;stroke-width:1.5;"/>
   </g>
   <g id="line2d_24">
    <path clip-path="url(#peb1c638697)" d="M 175.759005 240.037886 
L 197.801351 239.925466 
L 200.70166 239.829799 
L 202.441845 239.783564 
L 205.342154 239.452235 
L 207.082339 238.987251 
L 208.822524 238.767739 
L 209.402586 238.565556 
L 210.56271 237.765501 
L 212.302895 236.195626 
L 213.463018 234.706817 
L 214.623142 232.993755 
L 215.783265 230.671447 
L 216.943389 227.662554 
L 218.103512 224.033403 
L 222.163944 209.849332 
L 223.90413 204.710087 
L 224.484191 203.374883 
L 225.064253 202.495835 
L 225.644315 202.101726 
L 226.224377 202.092554 
L 227.3845 202.582236 
L 227.964562 203.0243 
L 228.544624 203.781729 
L 230.284809 207.24516 
L 230.86487 207.942425 
L 231.444932 208.250396 
L 233.185117 208.554644 
L 233.765179 208.955758 
L 234.345241 209.606794 
L 234.925303 210.507101 
L 235.505364 211.681187 
L 236.085426 213.178973 
L 237.24555 217.281709 
L 238.985735 225.307599 
L 240.145858 230.770294 
L 241.305982 235.038701 
L 241.886044 236.537603 
L 242.466105 237.673436 
L 243.046167 238.523984 
L 243.626229 239.135948 
L 244.20629 239.538736 
L 245.366414 239.894002 
L 247.686661 240.024758 
L 249.426846 240.037792 
L 249.426846 240.037792 
" style="fill:none;stroke:#d62728;stroke-dasharray:1.5,2.475;stroke-dashoffset:0;stroke-width:1.5;"/>
   </g>
   <g id="line2d_25">
    <path clip-path="url(#peb1c638697)" d="M 81.3854 234.251122 
L 82.62924 240.038125 
L 83.87308 184.22777 
L 85.11692 192.112664 
L 86.36076 224.122831 
L 87.604601 233.233392 
L 88.848441 236.622639 
L 90.092281 238.672765 
L 91.336121 238.606024 
L 92.579961 239.799795 
L 93.823801 239.363577 
L 95.067641 240.038125 
L 96.311481 239.519469 
L 97.555321 240.038125 
L 98.799161 239.641429 
L 100.043001 240.038125 
L 101.286841 239.719661 
L 102.530681 240.038125 
L 103.774522 239.79365 
L 105.018362 240.038125 
L 106.262202 239.819671 
L 107.506042 240.038125 
L 108.749882 239.809526 
L 109.993722 240.038125 
L 111.237562 239.809633 
L 112.481402 240.038125 
L 113.725242 239.875744 
L 114.969082 240.038125 
L 116.212922 239.910548 
L 117.456762 240.007752 
L 118.700602 239.925555 
L 119.944443 240.038125 
L 121.188283 239.942672 
L 122.432123 240.038125 
L 123.675963 239.959692 
L 124.919803 240.03059 
L 126.163643 239.935877 
L 127.407483 240.038125 
L 128.651323 239.922883 
L 129.895163 240.038125 
L 131.139003 239.949581 
L 132.382843 240.038125 
L 133.626683 239.960148 
L 134.870523 240.038125 
L 137.358204 240.013109 
L 143.577404 239.97657 
L 149.796604 240.01915 
L 151.040444 239.876249 
L 152.284285 240.038125 
L 153.528125 237.751396 
L 154.771965 237.576219 
L 156.015805 240.038125 
L 157.259645 233.430391 
L 158.503485 237.737394 
L 159.747325 239.413136 
L 160.991165 235.62924 
L 162.235005 240.038125 
L 163.478845 237.553098 
L 164.722685 240.038125 
L 165.966525 239.059306 
L 167.210365 239.781131 
L 168.454205 239.648435 
L 169.698046 240.029098 
L 170.941886 239.837774 
L 172.185726 240.038125 
L 173.429566 239.896094 
L 174.673406 240.038125 
L 175.917246 239.936515 
L 177.161086 240.038125 
L 178.404926 239.946267 
L 179.648766 240.038125 
L 180.892606 239.959062 
L 182.136446 240.038125 
L 183.380286 239.953983 
L 184.624126 240.038125 
L 185.867967 239.947861 
L 187.111807 240.038125 
L 188.355647 239.978642 
L 189.599487 240.038125 
L 190.843327 239.979184 
L 192.087167 240.038125 
L 193.331007 239.967305 
L 194.574847 240.038125 
L 195.818687 239.976774 
L 197.062527 240.038125 
L 198.306367 239.969403 
L 199.550207 240.038125 
L 200.794047 239.952492 
L 202.037888 240.038125 
L 203.281728 239.897361 
L 204.525568 240.038125 
L 205.769408 239.922256 
L 207.013248 240.038125 
L 208.257088 239.931974 
L 209.500928 240.038125 
L 210.744768 239.908607 
L 211.988608 240.038125 
L 213.232448 239.906219 
L 214.476288 240.038125 
L 215.720128 239.89298 
L 216.963968 240.038125 
L 218.207809 239.873204 
L 219.451649 240.038125 
L 220.695489 239.834787 
L 221.939329 240.038125 
L 223.183169 239.760752 
L 224.427009 240.038125 
L 225.670849 239.715475 
L 226.914689 240.038125 
L 228.158529 239.612525 
L 229.402369 240.038125 
L 230.646209 239.440901 
L 231.890049 240.038125 
L 233.133889 239.175427 
L 234.37773 240.038125 
L 235.62157 238.700707 
L 236.86541 240.038125 
L 238.10925 237.62648 
L 239.35309 240.038125 
L 239.35309 240.038125 
" style="fill:none;stroke:#9467bd;stroke-linecap:square;stroke-width:1.5;"/>
   </g>
   <g id="line2d_26">
    <path clip-path="url(#peb1c638697)" d="M 68.150144 240.031773 
L 73.996276 239.921934 
L 78.380875 239.560936 
L 82.765473 239.129537 
L 85.688539 239.084451 
L 90.073138 239.373148 
L 95.91927 239.727803 
L 103.226935 239.893747 
L 130.996061 239.840807 
L 141.226792 239.641179 
L 149.995989 239.274428 
L 155.842121 239.09414 
L 161.688253 238.599593 
L 164.611319 238.431064 
L 170.457451 238.313963 
L 173.380517 237.98195 
L 176.303583 237.346329 
L 179.226649 236.478894 
L 182.149715 235.429609 
L 185.07278 234.101345 
L 187.995846 232.383079 
L 195.303511 227.609419 
L 196.765044 226.873549 
L 198.226577 226.279837 
L 199.68811 225.84147 
L 201.149643 225.553833 
L 204.072709 225.318918 
L 209.918841 225.301812 
L 212.841907 225.532901 
L 214.30344 225.814361 
L 217.226506 226.740919 
L 223.072637 228.991227 
L 227.457236 230.246408 
L 230.380302 231.144985 
L 231.841835 231.758864 
L 233.303368 232.538864 
L 236.226434 234.570247 
L 239.1495 236.792691 
L 240.611033 237.752821 
L 242.072566 238.52911 
L 243.534099 239.105833 
L 244.995632 239.50018 
L 247.918698 239.89316 
L 252.303296 240.025929 
L 253.764829 240.032086 
L 253.764829 240.032086 
" style="fill:none;stroke:#9467bd;stroke-dasharray:1.5,2.475;stroke-dashoffset:0;stroke-width:1.5;"/>
   </g>
   <g id="patch_3">
    <path d="M 43.78125 240.038125 
L 43.78125 22.318125 
" style="fill:none;stroke:#000000;stroke-linecap:square;stroke-linejoin:miter;stroke-width:0.8;"/>
   </g>
   <g id="patch_4">
    <path d="M 43.78125 240.038125 
L 276.970273 240.038125 
" style="fill:none;stroke:#000000;stroke-linecap:square;stroke-linejoin:miter;stroke-width:0.8;"/>
   </g>
   <g id="text_17">
    <!-- 1 - 30 -->
    <defs>
     <path d="M 4.890625 31.390625 
L 31.203125 31.390625 
L 31.203125 23.390625 
L 4.890625 23.390625 
z
" id="DejaVuSans-45"/>
    </defs>
    <g transform="translate(142.944824 16.318125)scale(0.12 -0.12)">
     <use xlink:href="#DejaVuSans-49"/>
     <use x="63.623047" xlink:href="#DejaVuSans-32"/>
     <use x="95.410156" xlink:href="#DejaVuSans-45"/>
     <use x="131.494141" xlink:href="#DejaVuSans-32"/>
     <use x="163.28125" xlink:href="#DejaVuSans-51"/>
     <use x="226.904297" xlink:href="#DejaVuSans-48"/>
    </g>
   </g>
   <g id="legend_1">
    <g id="patch_5">
     <path d="M 107.29996 103.70875 
L 269.970273 103.70875 
Q 271.970273 103.70875 271.970273 101.70875 
L 271.970273 29.318125 
Q 271.970273 27.318125 269.970273 27.318125 
L 107.29996 27.318125 
Q 105.29996 27.318125 105.29996 29.318125 
L 105.29996 101.70875 
Q 105.29996 103.70875 107.29996 103.70875 
z
" style="fill:#ffffff;opacity:0.8;stroke:#cccccc;stroke-linejoin:miter;"/>
    </g>
    <g id="line2d_27">
     <path d="M 109.29996 35.416563 
L 129.29996 35.416563 
" style="fill:none;stroke:#1f77b4;stroke-linecap:square;stroke-width:1.5;"/>
    </g>
    <g id="line2d_28"/>
    <g id="text_18">
     <!-- varlociraptor+neusomatic -->
     <defs>
      <path d="M 2.984375 54.6875 
L 12.5 54.6875 
L 29.59375 8.796875 
L 46.6875 54.6875 
L 56.203125 54.6875 
L 35.6875 0 
L 23.484375 0 
z
" id="DejaVuSans-118"/>
      <path d="M 18.109375 8.203125 
L 18.109375 -20.796875 
L 9.078125 -20.796875 
L 9.078125 54.6875 
L 18.109375 54.6875 
L 18.109375 46.390625 
Q 20.953125 51.265625 25.265625 53.625 
Q 29.59375 56 35.59375 56 
Q 45.5625 56 51.78125 48.09375 
Q 58.015625 40.1875 58.015625 27.296875 
Q 58.015625 14.40625 51.78125 6.484375 
Q 45.5625 -1.421875 35.59375 -1.421875 
Q 29.59375 -1.421875 25.265625 0.953125 
Q 20.953125 3.328125 18.109375 8.203125 
z
M 48.6875 27.296875 
Q 48.6875 37.203125 44.609375 42.84375 
Q 40.53125 48.484375 33.40625 48.484375 
Q 26.265625 48.484375 22.1875 42.84375 
Q 18.109375 37.203125 18.109375 27.296875 
Q 18.109375 17.390625 22.1875 11.75 
Q 26.265625 6.109375 33.40625 6.109375 
Q 40.53125 6.109375 44.609375 11.75 
Q 48.6875 17.390625 48.6875 27.296875 
z
" id="DejaVuSans-112"/>
      <path d="M 8.5 21.578125 
L 8.5 54.6875 
L 17.484375 54.6875 
L 17.484375 21.921875 
Q 17.484375 14.15625 20.5 10.265625 
Q 23.53125 6.390625 29.59375 6.390625 
Q 36.859375 6.390625 41.078125 11.03125 
Q 45.3125 15.671875 45.3125 23.6875 
L 45.3125 54.6875 
L 54.296875 54.6875 
L 54.296875 0 
L 45.3125 0 
L 45.3125 8.40625 
Q 42.046875 3.421875 37.71875 1 
Q 33.40625 -1.421875 27.6875 -1.421875 
Q 18.265625 -1.421875 13.375 4.4375 
Q 8.5 10.296875 8.5 21.578125 
z
M 31.109375 56 
z
" id="DejaVuSans-117"/>
     </defs>
     <g transform="translate(137.29996 38.916563)scale(0.1 -0.1)">
      <use xlink:href="#DejaVuSans-118"/>
      <use x="59.179688" xlink:href="#DejaVuSans-97"/>
      <use x="120.458984" xlink:href="#DejaVuSans-114"/>
      <use x="161.572266" xlink:href="#DejaVuSans-108"/>
      <use x="189.355469" xlink:href="#DejaVuSans-111"/>
      <use x="250.537109" xlink:href="#DejaVuSans-99"/>
      <use x="305.517578" xlink:href="#DejaVuSans-105"/>
      <use x="333.300781" xlink:href="#DejaVuSans-114"/>
      <use x="374.414062" xlink:href="#DejaVuSans-97"/>
      <use x="435.693359" xlink:href="#DejaVuSans-112"/>
      <use x="499.169922" xlink:href="#DejaVuSans-116"/>
      <use x="538.378906" xlink:href="#DejaVuSans-111"/>
      <use x="599.560547" xlink:href="#DejaVuSans-114"/>
      <use x="640.673828" xlink:href="#DejaVuSans-43"/>
      <use x="724.462891" xlink:href="#DejaVuSans-110"/>
      <use x="787.841797" xlink:href="#DejaVuSans-101"/>
      <use x="849.365234" xlink:href="#DejaVuSans-117"/>
      <use x="912.744141" xlink:href="#DejaVuSans-115"/>
      <use x="964.84375" xlink:href="#DejaVuSans-111"/>
      <use x="1026.025391" xlink:href="#DejaVuSans-109"/>
      <use x="1123.4375" xlink:href="#DejaVuSans-97"/>
      <use x="1184.716797" xlink:href="#DejaVuSans-116"/>
      <use x="1223.925781" xlink:href="#DejaVuSans-105"/>
      <use x="1251.708984" xlink:href="#DejaVuSans-99"/>
     </g>
    </g>
    <g id="line2d_29">
     <path d="M 109.29996 50.094688 
L 129.29996 50.094688 
" style="fill:none;stroke:#ff7f0e;stroke-linecap:square;stroke-width:1.5;"/>
    </g>
    <g id="line2d_30"/>
    <g id="text_19">
     <!-- varlociraptor+delly -->
     <g transform="translate(137.29996 53.594688)scale(0.1 -0.1)">
      <use xlink:href="#DejaVuSans-118"/>
      <use x="59.179688" xlink:href="#DejaVuSans-97"/>
      <use x="120.458984" xlink:href="#DejaVuSans-114"/>
      <use x="161.572266" xlink:href="#DejaVuSans-108"/>
      <use x="189.355469" xlink:href="#DejaVuSans-111"/>
      <use x="250.537109" xlink:href="#DejaVuSans-99"/>
      <use x="305.517578" xlink:href="#DejaVuSans-105"/>
      <use x="333.300781" xlink:href="#DejaVuSans-114"/>
      <use x="374.414062" xlink:href="#DejaVuSans-97"/>
      <use x="435.693359" xlink:href="#DejaVuSans-112"/>
      <use x="499.169922" xlink:href="#DejaVuSans-116"/>
      <use x="538.378906" xlink:href="#DejaVuSans-111"/>
      <use x="599.560547" xlink:href="#DejaVuSans-114"/>
      <use x="640.673828" xlink:href="#DejaVuSans-43"/>
      <use x="724.462891" xlink:href="#DejaVuSans-100"/>
      <use x="787.939453" xlink:href="#DejaVuSans-101"/>
      <use x="849.462891" xlink:href="#DejaVuSans-108"/>
      <use x="877.246094" xlink:href="#DejaVuSans-108"/>
      <use x="905.029297" xlink:href="#DejaVuSans-121"/>
     </g>
    </g>
    <g id="line2d_31">
     <path d="M 109.29996 64.772813 
L 129.29996 64.772813 
" style="fill:none;stroke:#2ca02c;stroke-linecap:square;stroke-width:1.5;"/>
    </g>
    <g id="line2d_32"/>
    <g id="text_20">
     <!-- varlociraptor+lancet -->
     <g transform="translate(137.29996 68.272813)scale(0.1 -0.1)">
      <use xlink:href="#DejaVuSans-118"/>
      <use x="59.179688" xlink:href="#DejaVuSans-97"/>
      <use x="120.458984" xlink:href="#DejaVuSans-114"/>
      <use x="161.572266" xlink:href="#DejaVuSans-108"/>
      <use x="189.355469" xlink:href="#DejaVuSans-111"/>
      <use x="250.537109" xlink:href="#DejaVuSans-99"/>
      <use x="305.517578" xlink:href="#DejaVuSans-105"/>
      <use x="333.300781" xlink:href="#DejaVuSans-114"/>
      <use x="374.414062" xlink:href="#DejaVuSans-97"/>
      <use x="435.693359" xlink:href="#DejaVuSans-112"/>
      <use x="499.169922" xlink:href="#DejaVuSans-116"/>
      <use x="538.378906" xlink:href="#DejaVuSans-111"/>
      <use x="599.560547" xlink:href="#DejaVuSans-114"/>
      <use x="640.673828" xlink:href="#DejaVuSans-43"/>
      <use x="724.462891" xlink:href="#DejaVuSans-108"/>
      <use x="752.246094" xlink:href="#DejaVuSans-97"/>
      <use x="813.525391" xlink:href="#DejaVuSans-110"/>
      <use x="876.904297" xlink:href="#DejaVuSans-99"/>
      <use x="931.884766" xlink:href="#DejaVuSans-101"/>
      <use x="993.408203" xlink:href="#DejaVuSans-116"/>
     </g>
    </g>
    <g id="line2d_33">
     <path d="M 109.29996 79.450938 
L 129.29996 79.450938 
" style="fill:none;stroke:#d62728;stroke-linecap:square;stroke-width:1.5;"/>
    </g>
    <g id="line2d_34"/>
    <g id="text_21">
     <!-- varlociraptor+manta -->
     <g transform="translate(137.29996 82.950938)scale(0.1 -0.1)">
      <use xlink:href="#DejaVuSans-118"/>
      <use x="59.179688" xlink:href="#DejaVuSans-97"/>
      <use x="120.458984" xlink:href="#DejaVuSans-114"/>
      <use x="161.572266" xlink:href="#DejaVuSans-108"/>
      <use x="189.355469" xlink:href="#DejaVuSans-111"/>
      <use x="250.537109" xlink:href="#DejaVuSans-99"/>
      <use x="305.517578" xlink:href="#DejaVuSans-105"/>
      <use x="333.300781" xlink:href="#DejaVuSans-114"/>
      <use x="374.414062" xlink:href="#DejaVuSans-97"/>
      <use x="435.693359" xlink:href="#DejaVuSans-112"/>
      <use x="499.169922" xlink:href="#DejaVuSans-116"/>
      <use x="538.378906" xlink:href="#DejaVuSans-111"/>
      <use x="599.560547" xlink:href="#DejaVuSans-114"/>
      <use x="640.673828" xlink:href="#DejaVuSans-43"/>
      <use x="724.462891" xlink:href="#DejaVuSans-109"/>
      <use x="821.875" xlink:href="#DejaVuSans-97"/>
      <use x="883.154297" xlink:href="#DejaVuSans-110"/>
      <use x="946.533203" xlink:href="#DejaVuSans-116"/>
      <use x="985.742188" xlink:href="#DejaVuSans-97"/>
     </g>
    </g>
    <g id="line2d_35">
     <path d="M 109.29996 94.129063 
L 129.29996 94.129063 
" style="fill:none;stroke:#9467bd;stroke-linecap:square;stroke-width:1.5;"/>
    </g>
    <g id="line2d_36"/>
    <g id="text_22">
     <!-- varlociraptor+strelka -->
     <defs>
      <path d="M 9.078125 75.984375 
L 18.109375 75.984375 
L 18.109375 31.109375 
L 44.921875 54.6875 
L 56.390625 54.6875 
L 27.390625 29.109375 
L 57.625 0 
L 45.90625 0 
L 18.109375 26.703125 
L 18.109375 0 
L 9.078125 0 
z
" id="DejaVuSans-107"/>
     </defs>
     <g transform="translate(137.29996 97.629063)scale(0.1 -0.1)">
      <use xlink:href="#DejaVuSans-118"/>
      <use x="59.179688" xlink:href="#DejaVuSans-97"/>
      <use x="120.458984" xlink:href="#DejaVuSans-114"/>
      <use x="161.572266" xlink:href="#DejaVuSans-108"/>
      <use x="189.355469" xlink:href="#DejaVuSans-111"/>
      <use x="250.537109" xlink:href="#DejaVuSans-99"/>
      <use x="305.517578" xlink:href="#DejaVuSans-105"/>
      <use x="333.300781" xlink:href="#DejaVuSans-114"/>
      <use x="374.414062" xlink:href="#DejaVuSans-97"/>
      <use x="435.693359" xlink:href="#DejaVuSans-112"/>
      <use x="499.169922" xlink:href="#DejaVuSans-116"/>
      <use x="538.378906" xlink:href="#DejaVuSans-111"/>
      <use x="599.560547" xlink:href="#DejaVuSans-114"/>
      <use x="640.673828" xlink:href="#DejaVuSans-43"/>
      <use x="724.462891" xlink:href="#DejaVuSans-115"/>
      <use x="776.5625" xlink:href="#DejaVuSans-116"/>
      <use x="815.771484" xlink:href="#DejaVuSans-114"/>
      <use x="856.853516" xlink:href="#DejaVuSans-101"/>
      <use x="918.376953" xlink:href="#DejaVuSans-108"/>
      <use x="946.160156" xlink:href="#DejaVuSans-107"/>
      <use x="1004.054688" xlink:href="#DejaVuSans-97"/>
     </g>
    </g>
   </g>
  </g>
  <g id="axes_2">
   <g id="patch_6">
    <path d="M 313.07302 240.038125 
L 546.262042 240.038125 
L 546.262042 22.318125 
L 313.07302 22.318125 
z
" style="fill:#ffffff;"/>
   </g>
   <g id="matplotlib.axis_3">
    <g id="xtick_8">
     <g id="line2d_37">
      <g>
       <use style="stroke:#000000;stroke-width:0.8;" x="344.194694" xlink:href="#m100c1ec3a7" y="240.038125"/>
      </g>
     </g>
     <g id="text_23">
      <!-- 0.08 -->
      <defs>
       <path d="M 31.78125 34.625 
Q 24.75 34.625 20.71875 30.859375 
Q 16.703125 27.09375 16.703125 20.515625 
Q 16.703125 13.921875 20.71875 10.15625 
Q 24.75 6.390625 31.78125 6.390625 
Q 38.8125 6.390625 42.859375 10.171875 
Q 46.921875 13.96875 46.921875 20.515625 
Q 46.921875 27.09375 42.890625 30.859375 
Q 38.875 34.625 31.78125 34.625 
z
M 21.921875 38.8125 
Q 15.578125 40.375 12.03125 44.71875 
Q 8.5 49.078125 8.5 55.328125 
Q 8.5 64.0625 14.71875 69.140625 
Q 20.953125 74.21875 31.78125 74.21875 
Q 42.671875 74.21875 48.875 69.140625 
Q 55.078125 64.0625 55.078125 55.328125 
Q 55.078125 49.078125 51.53125 44.71875 
Q 48 40.375 41.703125 38.8125 
Q 48.828125 37.15625 52.796875 32.3125 
Q 56.78125 27.484375 56.78125 20.515625 
Q 56.78125 9.90625 50.3125 4.234375 
Q 43.84375 -1.421875 31.78125 -1.421875 
Q 19.734375 -1.421875 13.25 4.234375 
Q 6.78125 9.90625 6.78125 20.515625 
Q 6.78125 27.484375 10.78125 32.3125 
Q 14.796875 37.15625 21.921875 38.8125 
z
M 18.3125 54.390625 
Q 18.3125 48.734375 21.84375 45.5625 
Q 25.390625 42.390625 31.78125 42.390625 
Q 38.140625 42.390625 41.71875 45.5625 
Q 45.3125 48.734375 45.3125 54.390625 
Q 45.3125 60.0625 41.71875 63.234375 
Q 38.140625 66.40625 31.78125 66.40625 
Q 25.390625 66.40625 21.84375 63.234375 
Q 18.3125 60.0625 18.3125 54.390625 
z
" id="DejaVuSans-56"/>
      </defs>
      <g transform="translate(333.061881 254.636563)scale(0.1 -0.1)">
       <use xlink:href="#DejaVuSans-48"/>
       <use x="63.623047" xlink:href="#DejaVuSans-46"/>
       <use x="95.410156" xlink:href="#DejaVuSans-48"/>
       <use x="159.033203" xlink:href="#DejaVuSans-56"/>
      </g>
     </g>
    </g>
    <g id="xtick_9">
     <g id="line2d_38">
      <g>
       <use style="stroke:#000000;stroke-width:0.8;" x="377.521919" xlink:href="#m100c1ec3a7" y="240.038125"/>
      </g>
     </g>
     <g id="text_24">
      <!-- 1 -->
      <g transform="translate(374.340669 254.636563)scale(0.1 -0.1)">
       <use xlink:href="#DejaVuSans-49"/>
      </g>
     </g>
    </g>
    <g id="xtick_10">
     <g id="line2d_39">
      <g>
       <use style="stroke:#000000;stroke-width:0.8;" x="410.849143" xlink:href="#m100c1ec3a7" y="240.038125"/>
      </g>
     </g>
     <g id="text_25">
      <!-- 1e+01 -->
      <g transform="translate(394.038987 254.636563)scale(0.1 -0.1)">
       <use xlink:href="#DejaVuSans-49"/>
       <use x="63.623047" xlink:href="#DejaVuSans-101"/>
       <use x="125.146484" xlink:href="#DejaVuSans-43"/>
       <use x="208.935547" xlink:href="#DejaVuSans-48"/>
       <use x="272.558594" xlink:href="#DejaVuSans-49"/>
      </g>
     </g>
    </g>
    <g id="xtick_11">
     <g id="line2d_40">
      <g>
       <use style="stroke:#000000;stroke-width:0.8;" x="444.176368" xlink:href="#m100c1ec3a7" y="240.038125"/>
      </g>
     </g>
     <g id="text_26">
      <!-- 1e+02 -->
      <g transform="translate(427.366212 254.636563)scale(0.1 -0.1)">
       <use xlink:href="#DejaVuSans-49"/>
       <use x="63.623047" xlink:href="#DejaVuSans-101"/>
       <use x="125.146484" xlink:href="#DejaVuSans-43"/>
       <use x="208.935547" xlink:href="#DejaVuSans-48"/>
       <use x="272.558594" xlink:href="#DejaVuSans-50"/>
      </g>
     </g>
    </g>
    <g id="xtick_12">
     <g id="line2d_41">
      <g>
       <use style="stroke:#000000;stroke-width:0.8;" x="477.503593" xlink:href="#m100c1ec3a7" y="240.038125"/>
      </g>
     </g>
     <g id="text_27">
      <!-- 2e+03 -->
      <g transform="translate(460.693437 254.636563)scale(0.1 -0.1)">
       <use xlink:href="#DejaVuSans-50"/>
       <use x="63.623047" xlink:href="#DejaVuSans-101"/>
       <use x="125.146484" xlink:href="#DejaVuSans-43"/>
       <use x="208.935547" xlink:href="#DejaVuSans-48"/>
       <use x="272.558594" xlink:href="#DejaVuSans-51"/>
      </g>
     </g>
    </g>
    <g id="xtick_13">
     <g id="line2d_42">
      <g>
       <use style="stroke:#000000;stroke-width:0.8;" x="510.830818" xlink:href="#m100c1ec3a7" y="240.038125"/>
      </g>
     </g>
     <g id="text_28">
      <!-- 2e+04 -->
      <g transform="translate(494.020662 254.636563)scale(0.1 -0.1)">
       <use xlink:href="#DejaVuSans-50"/>
       <use x="63.623047" xlink:href="#DejaVuSans-101"/>
       <use x="125.146484" xlink:href="#DejaVuSans-43"/>
       <use x="208.935547" xlink:href="#DejaVuSans-48"/>
       <use x="272.558594" xlink:href="#DejaVuSans-52"/>
      </g>
     </g>
    </g>
    <g id="xtick_14">
     <g id="line2d_43">
      <g>
       <use style="stroke:#000000;stroke-width:0.8;" x="544.158043" xlink:href="#m100c1ec3a7" y="240.038125"/>
      </g>
     </g>
     <g id="text_29">
      <!-- 3e+05 -->
      <g transform="translate(527.347886 254.636563)scale(0.1 -0.1)">
       <use xlink:href="#DejaVuSans-51"/>
       <use x="63.623047" xlink:href="#DejaVuSans-101"/>
       <use x="125.146484" xlink:href="#DejaVuSans-43"/>
       <use x="208.935547" xlink:href="#DejaVuSans-48"/>
       <use x="272.558594" xlink:href="#DejaVuSans-53"/>
      </g>
     </g>
    </g>
    <g id="text_30">
     <!-- $-10 \log_{10}$ Pr(somatic) -->
     <g transform="translate(376.567531 268.31625)scale(0.1 -0.1)">
      <use transform="translate(0 0.015625)" xlink:href="#DejaVuSans-8722"/>
      <use transform="translate(83.789062 0.015625)" xlink:href="#DejaVuSans-49"/>
      <use transform="translate(147.412109 0.015625)" xlink:href="#DejaVuSans-48"/>
      <use transform="translate(211.035156 0.015625)" xlink:href="#DejaVuSans-108"/>
      <use transform="translate(238.818359 0.015625)" xlink:href="#DejaVuSans-111"/>
      <use transform="translate(300 0.015625)" xlink:href="#DejaVuSans-103"/>
      <use transform="translate(364.433594 -16.390625)scale(0.7)" xlink:href="#DejaVuSans-49"/>
      <use transform="translate(408.969727 -16.390625)scale(0.7)" xlink:href="#DejaVuSans-48"/>
      <use transform="translate(456.240234 0.015625)" xlink:href="#DejaVuSans-32"/>
      <use transform="translate(488.027344 0.015625)" xlink:href="#DejaVuSans-80"/>
      <use transform="translate(548.330078 0.015625)" xlink:href="#DejaVuSans-114"/>
      <use transform="translate(589.443359 0.015625)" xlink:href="#DejaVuSans-40"/>
      <use transform="translate(628.457031 0.015625)" xlink:href="#DejaVuSans-115"/>
      <use transform="translate(680.556641 0.015625)" xlink:href="#DejaVuSans-111"/>
      <use transform="translate(741.738281 0.015625)" xlink:href="#DejaVuSans-109"/>
      <use transform="translate(839.150391 0.015625)" xlink:href="#DejaVuSans-97"/>
      <use transform="translate(900.429688 0.015625)" xlink:href="#DejaVuSans-116"/>
      <use transform="translate(939.638672 0.015625)" xlink:href="#DejaVuSans-105"/>
      <use transform="translate(967.421875 0.015625)" xlink:href="#DejaVuSans-99"/>
      <use transform="translate(1022.402344 0.015625)" xlink:href="#DejaVuSans-41"/>
     </g>
    </g>
   </g>
   <g id="matplotlib.axis_4">
    <g id="ytick_10">
     <g id="line2d_44">
      <g>
       <use style="stroke:#000000;stroke-width:0.8;" x="313.07302" xlink:href="#m626e4a72f8" y="240.038125"/>
      </g>
     </g>
     <g id="text_31">
      <!-- 0 -->
      <g transform="translate(299.71052 243.837344)scale(0.1 -0.1)">
       <use xlink:href="#DejaVuSans-48"/>
      </g>
     </g>
    </g>
    <g id="ytick_11">
     <g id="line2d_45">
      <g>
       <use style="stroke:#000000;stroke-width:0.8;" x="313.07302" xlink:href="#m626e4a72f8" y="202.206692"/>
      </g>
     </g>
     <g id="text_32">
      <!-- 2 -->
      <g transform="translate(299.71052 206.005911)scale(0.1 -0.1)">
       <use xlink:href="#DejaVuSans-50"/>
      </g>
     </g>
    </g>
    <g id="ytick_12">
     <g id="line2d_46">
      <g>
       <use style="stroke:#000000;stroke-width:0.8;" x="313.07302" xlink:href="#m626e4a72f8" y="164.375259"/>
      </g>
     </g>
     <g id="text_33">
      <!-- 4 -->
      <g transform="translate(299.71052 168.174478)scale(0.1 -0.1)">
       <use xlink:href="#DejaVuSans-52"/>
      </g>
     </g>
    </g>
    <g id="ytick_13">
     <g id="line2d_47">
      <g>
       <use style="stroke:#000000;stroke-width:0.8;" x="313.07302" xlink:href="#m626e4a72f8" y="126.543826"/>
      </g>
     </g>
     <g id="text_34">
      <!-- 6 -->
      <g transform="translate(299.71052 130.343044)scale(0.1 -0.1)">
       <use xlink:href="#DejaVuSans-54"/>
      </g>
     </g>
    </g>
    <g id="ytick_14">
     <g id="line2d_48">
      <g>
       <use style="stroke:#000000;stroke-width:0.8;" x="313.07302" xlink:href="#m626e4a72f8" y="88.712393"/>
      </g>
     </g>
     <g id="text_35">
      <!-- 8 -->
      <g transform="translate(299.71052 92.511611)scale(0.1 -0.1)">
       <use xlink:href="#DejaVuSans-56"/>
      </g>
     </g>
    </g>
    <g id="ytick_15">
     <g id="line2d_49">
      <g>
       <use style="stroke:#000000;stroke-width:0.8;" x="313.07302" xlink:href="#m626e4a72f8" y="50.88096"/>
      </g>
     </g>
     <g id="text_36">
      <!-- 10 -->
      <g transform="translate(293.34802 54.680178)scale(0.1 -0.1)">
       <use xlink:href="#DejaVuSans-49"/>
       <use x="63.623047" xlink:href="#DejaVuSans-48"/>
      </g>
     </g>
    </g>
   </g>
   <g id="line2d_50">
    <path clip-path="url(#p6069c3ac22)" d="M 330.782867 235.628015 
L 330.847282 234.57547 
L 330.976112 226.849072 
L 331.147886 198.926521 
L 331.405547 110.385143 
L 331.706151 32.685744 
L 331.727622 32.789729 
L 331.813509 41.152827 
L 332.157057 97.557553 
L 332.221472 93.066501 
L 332.414718 53.72707 
L 332.586491 32.685744 
L 332.607963 33.458269 
L 332.69385 45.340791 
L 332.908567 119.044426 
L 333.273587 222.10196 
L 333.488304 235.455234 
L 333.509776 235.628015 
L 333.509776 235.628015 
" style="fill:none;stroke:#1f77b4;stroke-linecap:square;stroke-width:1.5;"/>
   </g>
   <g id="line2d_51">
    <path clip-path="url(#p6069c3ac22)" d="M 329.396891 236.531221 
L 330.74402 240.038125 
L 332.091149 188.716331 
L 333.438278 200.868774 
L 334.785407 222.408456 
L 336.132536 234.803469 
L 337.479665 236.28032 
L 338.826794 237.093367 
L 340.173923 237.454239 
L 341.521052 238.870175 
L 342.868181 239.374421 
L 344.21531 238.567007 
L 345.562438 239.444396 
L 346.909567 239.182421 
L 348.256696 240.038125 
L 416.960272 239.988194 
L 418.307401 239.85777 
L 419.65453 238.826064 
L 421.001659 240.038125 
L 422.348787 239.534027 
L 423.695916 239.779114 
L 425.043045 239.79211 
L 426.390174 239.546514 
L 427.737303 240.038125 
L 431.77869 240.011213 
L 438.514335 240.038125 
L 445.249979 240.007712 
L 449.291366 240.038125 
L 453.332753 239.999674 
L 457.37414 240.038125 
L 461.415526 239.986953 
L 465.456913 240.038125 
L 466.804042 239.973682 
L 468.151171 240.038125 
L 469.4983 239.964692 
L 470.845429 240.038125 
L 472.192558 239.95343 
L 473.539687 240.038125 
L 474.886816 239.93908 
L 476.233945 240.038125 
L 477.581074 239.920426 
L 478.928202 240.038125 
L 480.275331 239.895609 
L 481.62246 240.038125 
L 482.969589 239.861656 
L 484.316718 240.038125 
L 485.663847 239.813596 
L 487.010976 240.038125 
L 488.358105 239.742592 
L 489.705234 240.038125 
L 491.052363 239.631661 
L 492.399492 240.038125 
L 493.746621 239.444371 
L 495.09375 240.038125 
L 496.440879 239.08733 
L 497.788008 240.038125 
L 499.135136 237.64088 
L 500.482265 240.038125 
L 500.482265 240.038125 
" style="fill:none;stroke:#ff7f0e;stroke-linecap:square;stroke-width:1.5;"/>
   </g>
   <g id="line2d_52">
    <path clip-path="url(#p6069c3ac22)" d="M 415.298184 240.034446 
L 421.93244 239.927968 
L 426.671194 239.865755 
L 438.044204 240.037946 
L 470.267733 239.953217 
L 475.954238 239.868014 
L 481.640743 239.931344 
L 484.483996 239.745501 
L 489.22275 239.21113 
L 491.118252 238.82251 
L 492.066002 238.498299 
L 493.013753 238.044952 
L 493.961504 237.437219 
L 494.909255 236.661183 
L 496.804757 234.631349 
L 500.59576 229.923848 
L 501.543511 228.999873 
L 502.491262 228.281646 
L 503.439013 227.783045 
L 504.386763 227.495094 
L 505.334514 227.390833 
L 507.230016 227.561035 
L 509.125518 227.857944 
L 510.073269 227.90246 
L 511.021019 227.821556 
L 512.916521 227.335472 
L 513.864272 227.076912 
L 514.812023 226.96608 
L 515.759774 227.125869 
L 516.707524 227.641071 
L 517.655275 228.532299 
L 518.603026 229.748828 
L 522.39403 235.487173 
L 523.34178 236.607742 
L 524.289531 237.514085 
L 525.237282 238.22159 
L 526.185033 238.759977 
L 528.080535 239.455634 
L 529.976036 239.809958 
L 532.819289 240.000226 
L 535.662541 240.033602 
L 535.662541 240.033602 
" style="fill:none;stroke:#ff7f0e;stroke-dasharray:1.5,2.475;stroke-dashoffset:0;stroke-width:1.5;"/>
   </g>
   <g id="line2d_53">
    <path clip-path="url(#p6069c3ac22)" d="M 329.111509 236.44265 
L 330.56913 240.038125 
L 332.02675 194.564861 
L 333.48437 201.300876 
L 334.94199 225.544986 
L 336.39961 235.062612 
L 337.857231 237.056958 
L 339.314851 238.301001 
L 340.772471 238.136965 
L 342.230091 240.038125 
L 343.687711 238.378765 
L 345.145332 240.038125 
L 346.602952 238.980361 
L 348.060572 240.038125 
L 349.518192 239.718623 
L 350.975812 240.038125 
L 352.433433 239.814117 
L 353.891053 240.038125 
L 355.348673 239.858353 
L 356.806293 240.038125 
L 358.263913 239.873783 
L 359.721534 240.038125 
L 361.179154 239.555571 
L 362.636774 240.038125 
L 364.094394 239.902726 
L 365.552014 240.038125 
L 367.009635 239.938525 
L 368.467255 240.038125 
L 369.924875 239.956805 
L 371.382495 240.038125 
L 372.840115 239.968633 
L 374.297736 240.038125 
L 375.755356 239.977137 
L 377.212976 240.038125 
L 380.128216 240.038125 
L 384.501077 239.992938 
L 388.873938 240.038125 
L 393.246798 240.002485 
L 397.619659 240.038125 
L 401.99252 240.01602 
L 407.823 240.038125 
L 409.280621 239.502517 
L 410.738241 239.512452 
L 412.195861 240.038125 
L 413.653481 240.038125 
L 415.111101 238.958892 
L 416.568722 239.981912 
L 418.026342 240.038125 
L 419.483962 238.700176 
L 420.941582 240.038125 
L 422.399202 239.302816 
L 423.856823 240.038125 
L 425.314443 239.03988 
L 426.772063 239.588018 
L 428.229683 240.004236 
L 432.602544 240.038125 
L 436.975404 239.995823 
L 441.348265 240.038125 
L 445.721126 240.000834 
L 450.093986 240.038125 
L 454.466847 239.999509 
L 458.839707 240.038125 
L 463.212568 239.993783 
L 467.585429 240.038125 
L 471.958289 239.982546 
L 473.415909 240.038125 
L 474.87353 239.976987 
L 476.33115 240.038125 
L 477.78877 239.970135 
L 479.24639 240.038125 
L 480.70401 239.961624 
L 482.161631 240.038125 
L 483.619251 239.950941 
L 485.076871 240.038125 
L 486.534491 239.937362 
L 487.992111 240.038125 
L 489.449732 239.919835 
L 490.907352 240.038125 
L 492.364972 239.896746 
L 493.822592 240.038125 
L 495.280212 239.864614 
L 496.737833 240.038125 
L 498.195453 239.635434 
L 502.568313 240.038125 
L 504.025934 239.609297 
L 505.483554 240.038125 
L 506.941174 239.016923 
L 508.398794 240.038125 
L 509.856414 238.664151 
L 511.314035 240.038125 
L 512.771655 237.688594 
L 514.229275 240.038125 
L 514.229275 240.038125 
" style="fill:none;stroke:#2ca02c;stroke-linecap:square;stroke-width:1.5;"/>
   </g>
   <g id="line2d_54">
    <path clip-path="url(#p6069c3ac22)" d="M 323.672521 240.03419 
L 326.960571 239.88763 
L 328.604596 239.553465 
L 330.248621 239.0363 
L 331.892646 238.708471 
L 333.536672 238.891333 
L 336.824722 239.759133 
L 338.468747 239.939763 
L 343.400822 240.015381 
L 359.841074 240.038123 
L 469.990758 239.940313 
L 478.210884 239.645784 
L 481.498934 239.346969 
L 483.142959 239.01511 
L 484.786984 238.533329 
L 486.43101 237.928754 
L 488.075035 237.183987 
L 491.363085 235.306115 
L 494.651135 233.263853 
L 496.29516 232.043519 
L 499.583211 229.261186 
L 501.227236 228.086756 
L 502.871261 227.286366 
L 504.515286 226.863495 
L 506.159311 227.012618 
L 507.803336 227.765297 
L 509.447361 228.676794 
L 512.735412 229.863122 
L 514.379437 230.839513 
L 516.023462 232.464738 
L 519.311512 236.303539 
L 520.955537 237.775516 
L 522.599563 238.762144 
L 524.243588 239.338186 
L 525.887613 239.671678 
L 529.175663 239.987294 
L 532.463713 240.036385 
L 532.463713 240.036385 
" style="fill:none;stroke:#2ca02c;stroke-dasharray:1.5,2.475;stroke-dashoffset:0;stroke-width:1.5;"/>
   </g>
   <g id="line2d_55">
    <path clip-path="url(#p6069c3ac22)" d="M 327.785487 240.006942 
L 329.267672 234.2061 
L 330.749857 201.542137 
L 332.232042 180.611009 
L 335.196412 214.755874 
L 336.678596 227.916329 
L 338.160781 230.514868 
L 339.642966 234.27531 
L 341.125151 236.56176 
L 342.607336 238.003205 
L 344.089521 236.886447 
L 345.571706 238.670497 
L 347.053891 239.190472 
L 348.536075 239.958665 
L 354.464815 240.038125 
L 361.875739 240.024628 
L 375.215403 240.038125 
L 403.376916 240.035348 
L 464.146496 240.038125 
L 499.718934 239.898207 
L 501.201119 239.164713 
L 502.683303 239.465819 
L 504.165488 239.937323 
L 505.647673 240.038125 
L 510.094228 240.01475 
L 511.576413 239.800521 
L 513.058598 238.830435 
L 514.540783 239.821085 
L 516.022967 240.011761 
L 516.022967 240.011761 
" style="fill:none;stroke:#d62728;stroke-linecap:square;stroke-width:1.5;"/>
   </g>
   <g id="line2d_56">
    <path clip-path="url(#p6069c3ac22)" d="M 470.880135 240.036372 
L 476.716715 239.931131 
L 482.066913 239.654787 
L 483.526058 239.347023 
L 484.985202 238.848138 
L 489.362637 237.065357 
L 491.794545 236.292412 
L 492.767309 235.77634 
L 494.226453 234.691206 
L 496.17198 232.885779 
L 500.063033 229.149132 
L 501.522178 228.192515 
L 502.981323 227.564072 
L 505.413231 226.774236 
L 506.385994 226.62825 
L 507.358757 226.67882 
L 508.331521 226.933865 
L 513.195337 228.69228 
L 514.1681 229.02001 
L 515.140864 229.561747 
L 516.113627 230.400161 
L 517.08639 231.524286 
L 520.977443 236.552897 
L 522.436588 237.821944 
L 523.895733 238.695786 
L 525.354878 239.290904 
L 526.814023 239.681793 
L 528.759549 239.945204 
L 531.677839 240.033196 
L 532.650602 240.036209 
L 532.650602 240.036209 
" style="fill:none;stroke:#d62728;stroke-dasharray:1.5,2.475;stroke-dashoffset:0;stroke-width:1.5;"/>
   </g>
   <g id="line2d_57">
    <path clip-path="url(#p6069c3ac22)" d="M 327.980859 239.914529 
L 328.282422 239.72456 
L 328.583985 239.260052 
L 328.885548 238.2613 
L 329.187111 236.329131 
L 329.488674 232.957628 
L 329.941018 224.18794 
L 330.544144 205.498981 
L 331.298051 181.411819 
L 331.599614 176.151505 
L 331.750396 174.928788 
L 331.901177 174.646082 
L 332.051959 175.233865 
L 332.353522 178.520009 
L 334.012118 203.200205 
L 336.575403 228.22275 
L 337.027748 229.952655 
L 337.329311 230.346563 
L 337.630874 230.339957 
L 338.234 230.079734 
L 338.535563 230.22918 
L 338.837126 230.70087 
L 339.28947 231.946581 
L 340.344941 235.231017 
L 340.948066 236.259175 
L 341.852755 237.197068 
L 342.3051 237.433841 
L 342.606663 237.393438 
L 343.059007 237.047766 
L 343.662133 236.563969 
L 343.963696 236.579552 
L 344.265259 236.843253 
L 344.717604 237.608036 
L 345.622293 239.260088 
L 346.074637 239.713555 
L 346.677763 239.954475 
L 347.130107 239.954308 
L 347.130107 239.954308 
" style="fill:none;stroke:#9467bd;stroke-linecap:square;stroke-width:1.5;"/>
   </g>
   <g id="line2d_58">
    <path clip-path="url(#p6069c3ac22)" d="M 449.305535 239.897085 
L 453.333858 239.774053 
L 456.690794 239.464506 
L 459.376343 239.022974 
L 462.061892 238.36721 
L 464.747441 237.490953 
L 468.775764 235.891676 
L 472.132701 234.587588 
L 474.146862 233.972747 
L 476.161024 233.566152 
L 478.175186 233.406761 
L 480.189347 233.496583 
L 482.203509 233.797285 
L 486.231833 234.714633 
L 488.917381 235.245703 
L 490.931543 235.457035 
L 492.945705 235.457035 
L 494.959867 235.245703 
L 497.645416 234.714633 
L 502.345126 233.677548 
L 504.359288 233.440508 
L 506.37345 233.431467 
L 508.387611 233.675456 
L 510.401773 234.157371 
L 513.087322 235.081544 
L 521.143969 238.167976 
L 523.829518 238.880117 
L 526.515067 239.372413 
L 529.872003 239.729874 
L 533.900326 239.891559 
L 534.571714 239.897085 
L 534.571714 239.897085 
" style="fill:none;stroke:#9467bd;stroke-dasharray:1.5,2.475;stroke-dashoffset:0;stroke-width:1.5;"/>
   </g>
   <g id="patch_7">
    <path d="M 313.07302 240.038125 
L 313.07302 22.318125 
" style="fill:none;stroke:#000000;stroke-linecap:square;stroke-linejoin:miter;stroke-width:0.8;"/>
   </g>
   <g id="patch_8">
    <path d="M 313.07302 240.038125 
L 546.262042 240.038125 
" style="fill:none;stroke:#000000;stroke-linecap:square;stroke-linejoin:miter;stroke-width:0.8;"/>
   </g>
   <g id="text_37">
    <!-- 30 - 100 -->
    <g transform="translate(404.601594 16.318125)scale(0.12 -0.12)">
     <use xlink:href="#DejaVuSans-51"/>
     <use x="63.623047" xlink:href="#DejaVuSans-48"/>
     <use x="127.246094" xlink:href="#DejaVuSans-32"/>
     <use x="159.033203" xlink:href="#DejaVuSans-45"/>
     <use x="195.117188" xlink:href="#DejaVuSans-32"/>
     <use x="226.904297" xlink:href="#DejaVuSans-49"/>
     <use x="290.527344" xlink:href="#DejaVuSans-48"/>
     <use x="354.150391" xlink:href="#DejaVuSans-48"/>
    </g>
   </g>
  </g>
 </g>
 <defs>
  <clipPath id="peb1c638697">
   <rect height="217.72" width="233.189023" x="43.78125" y="22.318125"/>
  </clipPath>
  <clipPath id="p6069c3ac22">
   <rect height="217.72" width="233.189023" x="313.07302" y="22.318125"/>
  </clipPath>
 </defs>
</svg>
