<?xml version="1.0" encoding="utf-8" standalone="no"?>
<!DOCTYPE svg PUBLIC "-//W3C//DTD SVG 1.1//EN"
  "http://www.w3.org/Graphics/SVG/1.1/DTD/svg11.dtd">
<!-- Created with matplotlib (https://matplotlib.org/) -->
<svg height="280.474375pt" version="1.1" viewBox="0 0 579.324583 280.474375" width="579.324583pt" xmlns="http://www.w3.org/2000/svg" xmlns:xlink="http://www.w3.org/1999/xlink">
 <defs>
  <style type="text/css">
*{stroke-linecap:butt;stroke-linejoin:round;}
  </style>
 </defs>
 <g id="figure_1">
  <g id="patch_1">
   <path d="M 0 280.474375 
L 579.324583 280.474375 
L 579.324583 0 
L 0 0 
z
" style="fill:#ffffff;"/>
  </g>
  <g id="axes_1">
   <g id="patch_2">
    <path d="M 43.78125 242.918125 
L 288.077917 242.918125 
L 288.077917 22.318125 
L 43.78125 22.318125 
z
" style="fill:#ffffff;"/>
   </g>
   <g id="matplotlib.axis_1">
    <g id="xtick_1">
     <g id="line2d_1">
      <defs>
       <path d="M 0 0 
L 0 3.5 
" id="mb7ca51de4f" style="stroke:#000000;stroke-width:0.8;"/>
      </defs>
      <g>
       <use style="stroke:#000000;stroke-width:0.8;" x="67.651045" xlink:href="#mb7ca51de4f" y="242.918125"/>
      </g>
     </g>
     <g id="text_1">
      <!-- 0.007 -->
      <defs>
       <path d="M 31.78125 66.40625 
Q 24.171875 66.40625 20.328125 58.90625 
Q 16.5 51.421875 16.5 36.375 
Q 16.5 21.390625 20.328125 13.890625 
Q 24.171875 6.390625 31.78125 6.390625 
Q 39.453125 6.390625 43.28125 13.890625 
Q 47.125 21.390625 47.125 36.375 
Q 47.125 51.421875 43.28125 58.90625 
Q 39.453125 66.40625 31.78125 66.40625 
z
M 31.78125 74.21875 
Q 44.046875 74.21875 50.515625 64.515625 
Q 56.984375 54.828125 56.984375 36.375 
Q 56.984375 17.96875 50.515625 8.265625 
Q 44.046875 -1.421875 31.78125 -1.421875 
Q 19.53125 -1.421875 13.0625 8.265625 
Q 6.59375 17.96875 6.59375 36.375 
Q 6.59375 54.828125 13.0625 64.515625 
Q 19.53125 74.21875 31.78125 74.21875 
z
" id="DejaVuSans-48"/>
       <path d="M 10.6875 12.40625 
L 21 12.40625 
L 21 0 
L 10.6875 0 
z
" id="DejaVuSans-46"/>
       <path d="M 8.203125 72.90625 
L 55.078125 72.90625 
L 55.078125 68.703125 
L 28.609375 0 
L 18.3125 0 
L 43.21875 64.59375 
L 8.203125 64.59375 
z
" id="DejaVuSans-55"/>
      </defs>
      <g transform="translate(53.336983 257.516563)scale(0.1 -0.1)">
       <use xlink:href="#DejaVuSans-48"/>
       <use x="63.623047" xlink:href="#DejaVuSans-46"/>
       <use x="95.410156" xlink:href="#DejaVuSans-48"/>
       <use x="159.033203" xlink:href="#DejaVuSans-48"/>
       <use x="222.65625" xlink:href="#DejaVuSans-55"/>
      </g>
     </g>
    </g>
    <g id="xtick_2">
     <g id="line2d_2">
      <g>
       <use style="stroke:#000000;stroke-width:0.8;" x="99.259157" xlink:href="#mb7ca51de4f" y="242.918125"/>
      </g>
     </g>
     <g id="text_2">
      <!-- 1 -->
      <defs>
       <path d="M 12.40625 8.296875 
L 28.515625 8.296875 
L 28.515625 63.921875 
L 10.984375 60.40625 
L 10.984375 69.390625 
L 28.421875 72.90625 
L 38.28125 72.90625 
L 38.28125 8.296875 
L 54.390625 8.296875 
L 54.390625 0 
L 12.40625 0 
z
" id="DejaVuSans-49"/>
      </defs>
      <g transform="translate(96.077907 257.516563)scale(0.1 -0.1)">
       <use xlink:href="#DejaVuSans-49"/>
      </g>
     </g>
    </g>
    <g id="xtick_3">
     <g id="line2d_3">
      <g>
       <use style="stroke:#000000;stroke-width:0.8;" x="130.867268" xlink:href="#mb7ca51de4f" y="242.918125"/>
      </g>
     </g>
     <g id="text_3">
      <!-- 1e+02 -->
      <defs>
       <path d="M 56.203125 29.59375 
L 56.203125 25.203125 
L 14.890625 25.203125 
Q 15.484375 15.921875 20.484375 11.0625 
Q 25.484375 6.203125 34.421875 6.203125 
Q 39.59375 6.203125 44.453125 7.46875 
Q 49.3125 8.734375 54.109375 11.28125 
L 54.109375 2.78125 
Q 49.265625 0.734375 44.1875 -0.34375 
Q 39.109375 -1.421875 33.890625 -1.421875 
Q 20.796875 -1.421875 13.15625 6.1875 
Q 5.515625 13.8125 5.515625 26.8125 
Q 5.515625 40.234375 12.765625 48.109375 
Q 20.015625 56 32.328125 56 
Q 43.359375 56 49.78125 48.890625 
Q 56.203125 41.796875 56.203125 29.59375 
z
M 47.21875 32.234375 
Q 47.125 39.59375 43.09375 43.984375 
Q 39.0625 48.390625 32.421875 48.390625 
Q 24.90625 48.390625 20.390625 44.140625 
Q 15.875 39.890625 15.1875 32.171875 
z
" id="DejaVuSans-101"/>
       <path d="M 46 62.703125 
L 46 35.5 
L 73.1875 35.5 
L 73.1875 27.203125 
L 46 27.203125 
L 46 0 
L 37.796875 0 
L 37.796875 27.203125 
L 10.59375 27.203125 
L 10.59375 35.5 
L 37.796875 35.5 
L 37.796875 62.703125 
z
" id="DejaVuSans-43"/>
       <path d="M 19.1875 8.296875 
L 53.609375 8.296875 
L 53.609375 0 
L 7.328125 0 
L 7.328125 8.296875 
Q 12.9375 14.109375 22.625 23.890625 
Q 32.328125 33.6875 34.8125 36.53125 
Q 39.546875 41.84375 41.421875 45.53125 
Q 43.3125 49.21875 43.3125 52.78125 
Q 43.3125 58.59375 39.234375 62.25 
Q 35.15625 65.921875 28.609375 65.921875 
Q 23.96875 65.921875 18.8125 64.3125 
Q 13.671875 62.703125 7.8125 59.421875 
L 7.8125 69.390625 
Q 13.765625 71.78125 18.9375 73 
Q 24.125 74.21875 28.421875 74.21875 
Q 39.75 74.21875 46.484375 68.546875 
Q 53.21875 62.890625 53.21875 53.421875 
Q 53.21875 48.921875 51.53125 44.890625 
Q 49.859375 40.875 45.40625 35.40625 
Q 44.1875 33.984375 37.640625 27.21875 
Q 31.109375 20.453125 19.1875 8.296875 
z
" id="DejaVuSans-50"/>
      </defs>
      <g transform="translate(114.057112 257.516563)scale(0.1 -0.1)">
       <use xlink:href="#DejaVuSans-49"/>
       <use x="63.623047" xlink:href="#DejaVuSans-101"/>
       <use x="125.146484" xlink:href="#DejaVuSans-43"/>
       <use x="208.935547" xlink:href="#DejaVuSans-48"/>
       <use x="272.558594" xlink:href="#DejaVuSans-50"/>
      </g>
     </g>
    </g>
    <g id="xtick_4">
     <g id="line2d_4">
      <g>
       <use style="stroke:#000000;stroke-width:0.8;" x="162.47538" xlink:href="#mb7ca51de4f" y="242.918125"/>
      </g>
     </g>
     <g id="text_4">
      <!-- 2e+04 -->
      <defs>
       <path d="M 37.796875 64.3125 
L 12.890625 25.390625 
L 37.796875 25.390625 
z
M 35.203125 72.90625 
L 47.609375 72.90625 
L 47.609375 25.390625 
L 58.015625 25.390625 
L 58.015625 17.1875 
L 47.609375 17.1875 
L 47.609375 0 
L 37.796875 0 
L 37.796875 17.1875 
L 4.890625 17.1875 
L 4.890625 26.703125 
z
" id="DejaVuSans-52"/>
      </defs>
      <g transform="translate(145.665223 257.516563)scale(0.1 -0.1)">
       <use xlink:href="#DejaVuSans-50"/>
       <use x="63.623047" xlink:href="#DejaVuSans-101"/>
       <use x="125.146484" xlink:href="#DejaVuSans-43"/>
       <use x="208.935547" xlink:href="#DejaVuSans-48"/>
       <use x="272.558594" xlink:href="#DejaVuSans-52"/>
      </g>
     </g>
    </g>
    <g id="xtick_5">
     <g id="line2d_5">
      <g>
       <use style="stroke:#000000;stroke-width:0.8;" x="194.083491" xlink:href="#mb7ca51de4f" y="242.918125"/>
      </g>
     </g>
    </g>
    <g id="xtick_6">
     <g id="line2d_6">
      <g>
       <use style="stroke:#000000;stroke-width:0.8;" x="225.691603" xlink:href="#mb7ca51de4f" y="242.918125"/>
      </g>
     </g>
    </g>
    <g id="xtick_7">
     <g id="line2d_7">
      <g>
       <use style="stroke:#000000;stroke-width:0.8;" x="257.299714" xlink:href="#mb7ca51de4f" y="242.918125"/>
      </g>
     </g>
    </g>
    <g id="text_5">
     <!-- Pr(somatic) (PHRED) -->
     <defs>
      <path d="M 19.671875 64.796875 
L 19.671875 37.40625 
L 32.078125 37.40625 
Q 38.96875 37.40625 42.71875 40.96875 
Q 46.484375 44.53125 46.484375 51.125 
Q 46.484375 57.671875 42.71875 61.234375 
Q 38.96875 64.796875 32.078125 64.796875 
z
M 9.8125 72.90625 
L 32.078125 72.90625 
Q 44.34375 72.90625 50.609375 67.359375 
Q 56.890625 61.8125 56.890625 51.125 
Q 56.890625 40.328125 50.609375 34.8125 
Q 44.34375 29.296875 32.078125 29.296875 
L 19.671875 29.296875 
L 19.671875 0 
L 9.8125 0 
z
" id="DejaVuSans-80"/>
      <path d="M 41.109375 46.296875 
Q 39.59375 47.171875 37.8125 47.578125 
Q 36.03125 48 33.890625 48 
Q 26.265625 48 22.1875 43.046875 
Q 18.109375 38.09375 18.109375 28.8125 
L 18.109375 0 
L 9.078125 0 
L 9.078125 54.6875 
L 18.109375 54.6875 
L 18.109375 46.1875 
Q 20.953125 51.171875 25.484375 53.578125 
Q 30.03125 56 36.53125 56 
Q 37.453125 56 38.578125 55.875 
Q 39.703125 55.765625 41.0625 55.515625 
z
" id="DejaVuSans-114"/>
      <path d="M 31 75.875 
Q 24.46875 64.65625 21.28125 53.65625 
Q 18.109375 42.671875 18.109375 31.390625 
Q 18.109375 20.125 21.3125 9.0625 
Q 24.515625 -2 31 -13.1875 
L 23.1875 -13.1875 
Q 15.875 -1.703125 12.234375 9.375 
Q 8.59375 20.453125 8.59375 31.390625 
Q 8.59375 42.28125 12.203125 53.3125 
Q 15.828125 64.359375 23.1875 75.875 
z
" id="DejaVuSans-40"/>
      <path d="M 44.28125 53.078125 
L 44.28125 44.578125 
Q 40.484375 46.53125 36.375 47.5 
Q 32.28125 48.484375 27.875 48.484375 
Q 21.1875 48.484375 17.84375 46.4375 
Q 14.5 44.390625 14.5 40.28125 
Q 14.5 37.15625 16.890625 35.375 
Q 19.28125 33.59375 26.515625 31.984375 
L 29.59375 31.296875 
Q 39.15625 29.25 43.1875 25.515625 
Q 47.21875 21.78125 47.21875 15.09375 
Q 47.21875 7.46875 41.1875 3.015625 
Q 35.15625 -1.421875 24.609375 -1.421875 
Q 20.21875 -1.421875 15.453125 -0.5625 
Q 10.6875 0.296875 5.421875 2 
L 5.421875 11.28125 
Q 10.40625 8.6875 15.234375 7.390625 
Q 20.0625 6.109375 24.8125 6.109375 
Q 31.15625 6.109375 34.5625 8.28125 
Q 37.984375 10.453125 37.984375 14.40625 
Q 37.984375 18.0625 35.515625 20.015625 
Q 33.0625 21.96875 24.703125 23.78125 
L 21.578125 24.515625 
Q 13.234375 26.265625 9.515625 29.90625 
Q 5.8125 33.546875 5.8125 39.890625 
Q 5.8125 47.609375 11.28125 51.796875 
Q 16.75 56 26.8125 56 
Q 31.78125 56 36.171875 55.265625 
Q 40.578125 54.546875 44.28125 53.078125 
z
" id="DejaVuSans-115"/>
      <path d="M 30.609375 48.390625 
Q 23.390625 48.390625 19.1875 42.75 
Q 14.984375 37.109375 14.984375 27.296875 
Q 14.984375 17.484375 19.15625 11.84375 
Q 23.34375 6.203125 30.609375 6.203125 
Q 37.796875 6.203125 41.984375 11.859375 
Q 46.1875 17.53125 46.1875 27.296875 
Q 46.1875 37.015625 41.984375 42.703125 
Q 37.796875 48.390625 30.609375 48.390625 
z
M 30.609375 56 
Q 42.328125 56 49.015625 48.375 
Q 55.71875 40.765625 55.71875 27.296875 
Q 55.71875 13.875 49.015625 6.21875 
Q 42.328125 -1.421875 30.609375 -1.421875 
Q 18.84375 -1.421875 12.171875 6.21875 
Q 5.515625 13.875 5.515625 27.296875 
Q 5.515625 40.765625 12.171875 48.375 
Q 18.84375 56 30.609375 56 
z
" id="DejaVuSans-111"/>
      <path d="M 52 44.1875 
Q 55.375 50.25 60.0625 53.125 
Q 64.75 56 71.09375 56 
Q 79.640625 56 84.28125 50.015625 
Q 88.921875 44.046875 88.921875 33.015625 
L 88.921875 0 
L 79.890625 0 
L 79.890625 32.71875 
Q 79.890625 40.578125 77.09375 44.375 
Q 74.3125 48.1875 68.609375 48.1875 
Q 61.625 48.1875 57.5625 43.546875 
Q 53.515625 38.921875 53.515625 30.90625 
L 53.515625 0 
L 44.484375 0 
L 44.484375 32.71875 
Q 44.484375 40.625 41.703125 44.40625 
Q 38.921875 48.1875 33.109375 48.1875 
Q 26.21875 48.1875 22.15625 43.53125 
Q 18.109375 38.875 18.109375 30.90625 
L 18.109375 0 
L 9.078125 0 
L 9.078125 54.6875 
L 18.109375 54.6875 
L 18.109375 46.1875 
Q 21.1875 51.21875 25.484375 53.609375 
Q 29.78125 56 35.6875 56 
Q 41.65625 56 45.828125 52.96875 
Q 50 49.953125 52 44.1875 
z
" id="DejaVuSans-109"/>
      <path d="M 34.28125 27.484375 
Q 23.390625 27.484375 19.1875 25 
Q 14.984375 22.515625 14.984375 16.5 
Q 14.984375 11.71875 18.140625 8.90625 
Q 21.296875 6.109375 26.703125 6.109375 
Q 34.1875 6.109375 38.703125 11.40625 
Q 43.21875 16.703125 43.21875 25.484375 
L 43.21875 27.484375 
z
M 52.203125 31.203125 
L 52.203125 0 
L 43.21875 0 
L 43.21875 8.296875 
Q 40.140625 3.328125 35.546875 0.953125 
Q 30.953125 -1.421875 24.3125 -1.421875 
Q 15.921875 -1.421875 10.953125 3.296875 
Q 6 8.015625 6 15.921875 
Q 6 25.140625 12.171875 29.828125 
Q 18.359375 34.515625 30.609375 34.515625 
L 43.21875 34.515625 
L 43.21875 35.40625 
Q 43.21875 41.609375 39.140625 45 
Q 35.0625 48.390625 27.6875 48.390625 
Q 23 48.390625 18.546875 47.265625 
Q 14.109375 46.140625 10.015625 43.890625 
L 10.015625 52.203125 
Q 14.9375 54.109375 19.578125 55.046875 
Q 24.21875 56 28.609375 56 
Q 40.484375 56 46.34375 49.84375 
Q 52.203125 43.703125 52.203125 31.203125 
z
" id="DejaVuSans-97"/>
      <path d="M 18.3125 70.21875 
L 18.3125 54.6875 
L 36.8125 54.6875 
L 36.8125 47.703125 
L 18.3125 47.703125 
L 18.3125 18.015625 
Q 18.3125 11.328125 20.140625 9.421875 
Q 21.96875 7.515625 27.59375 7.515625 
L 36.8125 7.515625 
L 36.8125 0 
L 27.59375 0 
Q 17.1875 0 13.234375 3.875 
Q 9.28125 7.765625 9.28125 18.015625 
L 9.28125 47.703125 
L 2.6875 47.703125 
L 2.6875 54.6875 
L 9.28125 54.6875 
L 9.28125 70.21875 
z
" id="DejaVuSans-116"/>
      <path d="M 9.421875 54.6875 
L 18.40625 54.6875 
L 18.40625 0 
L 9.421875 0 
z
M 9.421875 75.984375 
L 18.40625 75.984375 
L 18.40625 64.59375 
L 9.421875 64.59375 
z
" id="DejaVuSans-105"/>
      <path d="M 48.78125 52.59375 
L 48.78125 44.1875 
Q 44.96875 46.296875 41.140625 47.34375 
Q 37.3125 48.390625 33.40625 48.390625 
Q 24.65625 48.390625 19.8125 42.84375 
Q 14.984375 37.3125 14.984375 27.296875 
Q 14.984375 17.28125 19.8125 11.734375 
Q 24.65625 6.203125 33.40625 6.203125 
Q 37.3125 6.203125 41.140625 7.25 
Q 44.96875 8.296875 48.78125 10.40625 
L 48.78125 2.09375 
Q 45.015625 0.34375 40.984375 -0.53125 
Q 36.96875 -1.421875 32.421875 -1.421875 
Q 20.0625 -1.421875 12.78125 6.34375 
Q 5.515625 14.109375 5.515625 27.296875 
Q 5.515625 40.671875 12.859375 48.328125 
Q 20.21875 56 33.015625 56 
Q 37.15625 56 41.109375 55.140625 
Q 45.0625 54.296875 48.78125 52.59375 
z
" id="DejaVuSans-99"/>
      <path d="M 8.015625 75.875 
L 15.828125 75.875 
Q 23.140625 64.359375 26.78125 53.3125 
Q 30.421875 42.28125 30.421875 31.390625 
Q 30.421875 20.453125 26.78125 9.375 
Q 23.140625 -1.703125 15.828125 -13.1875 
L 8.015625 -13.1875 
Q 14.5 -2 17.703125 9.0625 
Q 20.90625 20.125 20.90625 31.390625 
Q 20.90625 42.671875 17.703125 53.65625 
Q 14.5 64.65625 8.015625 75.875 
z
" id="DejaVuSans-41"/>
      <path id="DejaVuSans-32"/>
      <path d="M 9.8125 72.90625 
L 19.671875 72.90625 
L 19.671875 43.015625 
L 55.515625 43.015625 
L 55.515625 72.90625 
L 65.375 72.90625 
L 65.375 0 
L 55.515625 0 
L 55.515625 34.71875 
L 19.671875 34.71875 
L 19.671875 0 
L 9.8125 0 
z
" id="DejaVuSans-72"/>
      <path d="M 44.390625 34.1875 
Q 47.5625 33.109375 50.5625 29.59375 
Q 53.5625 26.078125 56.59375 19.921875 
L 66.609375 0 
L 56 0 
L 46.6875 18.703125 
Q 43.0625 26.03125 39.671875 28.421875 
Q 36.28125 30.8125 30.421875 30.8125 
L 19.671875 30.8125 
L 19.671875 0 
L 9.8125 0 
L 9.8125 72.90625 
L 32.078125 72.90625 
Q 44.578125 72.90625 50.734375 67.671875 
Q 56.890625 62.453125 56.890625 51.90625 
Q 56.890625 45.015625 53.6875 40.46875 
Q 50.484375 35.9375 44.390625 34.1875 
z
M 19.671875 64.796875 
L 19.671875 38.921875 
L 32.078125 38.921875 
Q 39.203125 38.921875 42.84375 42.21875 
Q 46.484375 45.515625 46.484375 51.90625 
Q 46.484375 58.296875 42.84375 61.546875 
Q 39.203125 64.796875 32.078125 64.796875 
z
" id="DejaVuSans-82"/>
      <path d="M 9.8125 72.90625 
L 55.90625 72.90625 
L 55.90625 64.59375 
L 19.671875 64.59375 
L 19.671875 43.015625 
L 54.390625 43.015625 
L 54.390625 34.71875 
L 19.671875 34.71875 
L 19.671875 8.296875 
L 56.78125 8.296875 
L 56.78125 0 
L 9.8125 0 
z
" id="DejaVuSans-69"/>
      <path d="M 19.671875 64.796875 
L 19.671875 8.109375 
L 31.59375 8.109375 
Q 46.6875 8.109375 53.6875 14.9375 
Q 60.6875 21.78125 60.6875 36.53125 
Q 60.6875 51.171875 53.6875 57.984375 
Q 46.6875 64.796875 31.59375 64.796875 
z
M 9.8125 72.90625 
L 30.078125 72.90625 
Q 51.265625 72.90625 61.171875 64.09375 
Q 71.09375 55.28125 71.09375 36.53125 
Q 71.09375 17.671875 61.125 8.828125 
Q 51.171875 0 30.078125 0 
L 9.8125 0 
z
" id="DejaVuSans-68"/>
     </defs>
     <g transform="translate(114.512396 271.194687)scale(0.1 -0.1)">
      <use xlink:href="#DejaVuSans-80"/>
      <use x="60.287109" xlink:href="#DejaVuSans-114"/>
      <use x="101.400391" xlink:href="#DejaVuSans-40"/>
      <use x="140.414062" xlink:href="#DejaVuSans-115"/>
      <use x="192.513672" xlink:href="#DejaVuSans-111"/>
      <use x="253.695312" xlink:href="#DejaVuSans-109"/>
      <use x="351.107422" xlink:href="#DejaVuSans-97"/>
      <use x="412.386719" xlink:href="#DejaVuSans-116"/>
      <use x="451.595703" xlink:href="#DejaVuSans-105"/>
      <use x="479.378906" xlink:href="#DejaVuSans-99"/>
      <use x="534.359375" xlink:href="#DejaVuSans-41"/>
      <use x="573.373047" xlink:href="#DejaVuSans-32"/>
      <use x="605.160156" xlink:href="#DejaVuSans-40"/>
      <use x="644.173828" xlink:href="#DejaVuSans-80"/>
      <use x="704.476562" xlink:href="#DejaVuSans-72"/>
      <use x="779.671875" xlink:href="#DejaVuSans-82"/>
      <use x="849.154297" xlink:href="#DejaVuSans-69"/>
      <use x="912.337891" xlink:href="#DejaVuSans-68"/>
      <use x="989.339844" xlink:href="#DejaVuSans-41"/>
     </g>
    </g>
   </g>
   <g id="matplotlib.axis_2">
    <g id="ytick_1">
     <g id="line2d_8">
      <defs>
       <path d="M 0 0 
L -3.5 0 
" id="m145441fb60" style="stroke:#000000;stroke-width:0.8;"/>
      </defs>
      <g>
       <use style="stroke:#000000;stroke-width:0.8;" x="43.78125" xlink:href="#m145441fb60" y="242.918125"/>
      </g>
     </g>
     <g id="text_6">
      <!-- 0.0 -->
      <g transform="translate(20.878125 246.717344)scale(0.1 -0.1)">
       <use xlink:href="#DejaVuSans-48"/>
       <use x="63.623047" xlink:href="#DejaVuSans-46"/>
       <use x="95.410156" xlink:href="#DejaVuSans-48"/>
      </g>
     </g>
    </g>
    <g id="ytick_2">
     <g id="line2d_9">
      <g>
       <use style="stroke:#000000;stroke-width:0.8;" x="43.78125" xlink:href="#m145441fb60" y="216.426403"/>
      </g>
     </g>
     <g id="text_7">
      <!-- 0.5 -->
      <defs>
       <path d="M 10.796875 72.90625 
L 49.515625 72.90625 
L 49.515625 64.59375 
L 19.828125 64.59375 
L 19.828125 46.734375 
Q 21.96875 47.46875 24.109375 47.828125 
Q 26.265625 48.1875 28.421875 48.1875 
Q 40.625 48.1875 47.75 41.5 
Q 54.890625 34.8125 54.890625 23.390625 
Q 54.890625 11.625 47.5625 5.09375 
Q 40.234375 -1.421875 26.90625 -1.421875 
Q 22.3125 -1.421875 17.546875 -0.640625 
Q 12.796875 0.140625 7.71875 1.703125 
L 7.71875 11.625 
Q 12.109375 9.234375 16.796875 8.0625 
Q 21.484375 6.890625 26.703125 6.890625 
Q 35.15625 6.890625 40.078125 11.328125 
Q 45.015625 15.765625 45.015625 23.390625 
Q 45.015625 31 40.078125 35.4375 
Q 35.15625 39.890625 26.703125 39.890625 
Q 22.75 39.890625 18.8125 39.015625 
Q 14.890625 38.140625 10.796875 36.28125 
z
" id="DejaVuSans-53"/>
      </defs>
      <g transform="translate(20.878125 220.225622)scale(0.1 -0.1)">
       <use xlink:href="#DejaVuSans-48"/>
       <use x="63.623047" xlink:href="#DejaVuSans-46"/>
       <use x="95.410156" xlink:href="#DejaVuSans-53"/>
      </g>
     </g>
    </g>
    <g id="ytick_3">
     <g id="line2d_10">
      <g>
       <use style="stroke:#000000;stroke-width:0.8;" x="43.78125" xlink:href="#m145441fb60" y="189.934681"/>
      </g>
     </g>
     <g id="text_8">
      <!-- 1.0 -->
      <g transform="translate(20.878125 193.7339)scale(0.1 -0.1)">
       <use xlink:href="#DejaVuSans-49"/>
       <use x="63.623047" xlink:href="#DejaVuSans-46"/>
       <use x="95.410156" xlink:href="#DejaVuSans-48"/>
      </g>
     </g>
    </g>
    <g id="ytick_4">
     <g id="line2d_11">
      <g>
       <use style="stroke:#000000;stroke-width:0.8;" x="43.78125" xlink:href="#m145441fb60" y="163.442959"/>
      </g>
     </g>
     <g id="text_9">
      <!-- 1.5 -->
      <g transform="translate(20.878125 167.242178)scale(0.1 -0.1)">
       <use xlink:href="#DejaVuSans-49"/>
       <use x="63.623047" xlink:href="#DejaVuSans-46"/>
       <use x="95.410156" xlink:href="#DejaVuSans-53"/>
      </g>
     </g>
    </g>
    <g id="ytick_5">
     <g id="line2d_12">
      <g>
       <use style="stroke:#000000;stroke-width:0.8;" x="43.78125" xlink:href="#m145441fb60" y="136.951237"/>
      </g>
     </g>
     <g id="text_10">
      <!-- 2.0 -->
      <g transform="translate(20.878125 140.750456)scale(0.1 -0.1)">
       <use xlink:href="#DejaVuSans-50"/>
       <use x="63.623047" xlink:href="#DejaVuSans-46"/>
       <use x="95.410156" xlink:href="#DejaVuSans-48"/>
      </g>
     </g>
    </g>
    <g id="ytick_6">
     <g id="line2d_13">
      <g>
       <use style="stroke:#000000;stroke-width:0.8;" x="43.78125" xlink:href="#m145441fb60" y="110.459515"/>
      </g>
     </g>
     <g id="text_11">
      <!-- 2.5 -->
      <g transform="translate(20.878125 114.258734)scale(0.1 -0.1)">
       <use xlink:href="#DejaVuSans-50"/>
       <use x="63.623047" xlink:href="#DejaVuSans-46"/>
       <use x="95.410156" xlink:href="#DejaVuSans-53"/>
      </g>
     </g>
    </g>
    <g id="ytick_7">
     <g id="line2d_14">
      <g>
       <use style="stroke:#000000;stroke-width:0.8;" x="43.78125" xlink:href="#m145441fb60" y="83.967794"/>
      </g>
     </g>
     <g id="text_12">
      <!-- 3.0 -->
      <defs>
       <path d="M 40.578125 39.3125 
Q 47.65625 37.796875 51.625 33 
Q 55.609375 28.21875 55.609375 21.1875 
Q 55.609375 10.40625 48.1875 4.484375 
Q 40.765625 -1.421875 27.09375 -1.421875 
Q 22.515625 -1.421875 17.65625 -0.515625 
Q 12.796875 0.390625 7.625 2.203125 
L 7.625 11.71875 
Q 11.71875 9.328125 16.59375 8.109375 
Q 21.484375 6.890625 26.8125 6.890625 
Q 36.078125 6.890625 40.9375 10.546875 
Q 45.796875 14.203125 45.796875 21.1875 
Q 45.796875 27.640625 41.28125 31.265625 
Q 36.765625 34.90625 28.71875 34.90625 
L 20.21875 34.90625 
L 20.21875 43.015625 
L 29.109375 43.015625 
Q 36.375 43.015625 40.234375 45.921875 
Q 44.09375 48.828125 44.09375 54.296875 
Q 44.09375 59.90625 40.109375 62.90625 
Q 36.140625 65.921875 28.71875 65.921875 
Q 24.65625 65.921875 20.015625 65.03125 
Q 15.375 64.15625 9.8125 62.3125 
L 9.8125 71.09375 
Q 15.4375 72.65625 20.34375 73.4375 
Q 25.25 74.21875 29.59375 74.21875 
Q 40.828125 74.21875 47.359375 69.109375 
Q 53.90625 64.015625 53.90625 55.328125 
Q 53.90625 49.265625 50.4375 45.09375 
Q 46.96875 40.921875 40.578125 39.3125 
z
" id="DejaVuSans-51"/>
      </defs>
      <g transform="translate(20.878125 87.767012)scale(0.1 -0.1)">
       <use xlink:href="#DejaVuSans-51"/>
       <use x="63.623047" xlink:href="#DejaVuSans-46"/>
       <use x="95.410156" xlink:href="#DejaVuSans-48"/>
      </g>
     </g>
    </g>
    <g id="ytick_8">
     <g id="line2d_15">
      <g>
       <use style="stroke:#000000;stroke-width:0.8;" x="43.78125" xlink:href="#m145441fb60" y="57.476072"/>
      </g>
     </g>
     <g id="text_13">
      <!-- 3.5 -->
      <g transform="translate(20.878125 61.27529)scale(0.1 -0.1)">
       <use xlink:href="#DejaVuSans-51"/>
       <use x="63.623047" xlink:href="#DejaVuSans-46"/>
       <use x="95.410156" xlink:href="#DejaVuSans-53"/>
      </g>
     </g>
    </g>
    <g id="ytick_9">
     <g id="line2d_16">
      <g>
       <use style="stroke:#000000;stroke-width:0.8;" x="43.78125" xlink:href="#m145441fb60" y="30.98435"/>
      </g>
     </g>
     <g id="text_14">
      <!-- 4.0 -->
      <g transform="translate(20.878125 34.783568)scale(0.1 -0.1)">
       <use xlink:href="#DejaVuSans-52"/>
       <use x="63.623047" xlink:href="#DejaVuSans-46"/>
       <use x="95.410156" xlink:href="#DejaVuSans-48"/>
      </g>
     </g>
    </g>
    <g id="text_15">
     <!-- density -->
     <defs>
      <path d="M 45.40625 46.390625 
L 45.40625 75.984375 
L 54.390625 75.984375 
L 54.390625 0 
L 45.40625 0 
L 45.40625 8.203125 
Q 42.578125 3.328125 38.25 0.953125 
Q 33.9375 -1.421875 27.875 -1.421875 
Q 17.96875 -1.421875 11.734375 6.484375 
Q 5.515625 14.40625 5.515625 27.296875 
Q 5.515625 40.1875 11.734375 48.09375 
Q 17.96875 56 27.875 56 
Q 33.9375 56 38.25 53.625 
Q 42.578125 51.265625 45.40625 46.390625 
z
M 14.796875 27.296875 
Q 14.796875 17.390625 18.875 11.75 
Q 22.953125 6.109375 30.078125 6.109375 
Q 37.203125 6.109375 41.296875 11.75 
Q 45.40625 17.390625 45.40625 27.296875 
Q 45.40625 37.203125 41.296875 42.84375 
Q 37.203125 48.484375 30.078125 48.484375 
Q 22.953125 48.484375 18.875 42.84375 
Q 14.796875 37.203125 14.796875 27.296875 
z
" id="DejaVuSans-100"/>
      <path d="M 54.890625 33.015625 
L 54.890625 0 
L 45.90625 0 
L 45.90625 32.71875 
Q 45.90625 40.484375 42.875 44.328125 
Q 39.84375 48.1875 33.796875 48.1875 
Q 26.515625 48.1875 22.3125 43.546875 
Q 18.109375 38.921875 18.109375 30.90625 
L 18.109375 0 
L 9.078125 0 
L 9.078125 54.6875 
L 18.109375 54.6875 
L 18.109375 46.1875 
Q 21.34375 51.125 25.703125 53.5625 
Q 30.078125 56 35.796875 56 
Q 45.21875 56 50.046875 50.171875 
Q 54.890625 44.34375 54.890625 33.015625 
z
" id="DejaVuSans-110"/>
      <path d="M 32.171875 -5.078125 
Q 28.375 -14.84375 24.75 -17.8125 
Q 21.140625 -20.796875 15.09375 -20.796875 
L 7.90625 -20.796875 
L 7.90625 -13.28125 
L 13.1875 -13.28125 
Q 16.890625 -13.28125 18.9375 -11.515625 
Q 21 -9.765625 23.484375 -3.21875 
L 25.09375 0.875 
L 2.984375 54.6875 
L 12.5 54.6875 
L 29.59375 11.921875 
L 46.6875 54.6875 
L 56.203125 54.6875 
z
" id="DejaVuSans-121"/>
     </defs>
     <g transform="translate(14.798438 150.950938)rotate(-90)scale(0.1 -0.1)">
      <use xlink:href="#DejaVuSans-100"/>
      <use x="63.476562" xlink:href="#DejaVuSans-101"/>
      <use x="125" xlink:href="#DejaVuSans-110"/>
      <use x="188.378906" xlink:href="#DejaVuSans-115"/>
      <use x="240.478516" xlink:href="#DejaVuSans-105"/>
      <use x="268.261719" xlink:href="#DejaVuSans-116"/>
      <use x="307.470703" xlink:href="#DejaVuSans-121"/>
     </g>
    </g>
   </g>
   <g id="line2d_17">
    <path clip-path="url(#p284d8f5180)" d="M 68.187508 241.707715 
L 69.752275 242.918125 
L 71.317042 218.263608 
L 72.881808 199.235597 
L 74.446575 216.06992 
L 76.011342 229.023713 
L 77.576108 234.739538 
L 79.140875 237.30062 
L 80.705642 240.989006 
L 82.270408 239.069756 
L 83.835175 242.833675 
L 85.399942 241.380161 
L 86.964708 242.121949 
L 88.529475 242.419397 
L 90.094242 242.918125 
L 91.659008 242.918125 
L 93.223775 241.908613 
L 94.788542 242.14216 
L 96.353309 242.918125 
L 97.918075 242.830729 
L 99.482842 242.918125 
L 101.047609 242.57631 
L 102.612375 242.647522 
L 104.177142 242.918125 
L 168.332576 242.918125 
L 169.897342 242.538017 
L 171.462109 242.735712 
L 173.026876 242.201474 
L 174.591643 241.818493 
L 176.156409 242.918125 
L 177.721176 242.724505 
L 179.285943 242.918125 
L 180.850709 241.89747 
L 182.415476 242.745508 
L 183.980243 242.526164 
L 187.109776 242.914748 
L 198.063143 242.915069 
L 199.627909 242.786151 
L 201.192676 242.445309 
L 202.757443 242.918125 
L 207.451743 242.780648 
L 209.016509 242.445093 
L 210.581276 242.918125 
L 215.275576 242.910404 
L 227.79371 242.918125 
L 229.358476 242.843019 
L 230.923243 242.918125 
L 232.48801 242.377366 
L 234.052776 242.858856 
L 238.747076 242.858911 
L 240.311843 242.655767 
L 241.87661 241.944528 
L 243.441376 242.918125 
L 245.006143 242.118064 
L 246.57091 242.510228 
L 248.135676 242.247009 
L 249.700443 242.666127 
L 251.26521 242.197946 
L 252.829976 242.868613 
L 254.394743 241.597389 
L 255.95951 242.59386 
L 257.524277 242.918125 
L 259.089043 242.862431 
L 260.65381 242.918125 
L 262.218577 242.584524 
L 263.783343 242.785862 
L 265.34811 242.101288 
L 266.912877 242.918125 
L 266.912877 242.918125 
" style="fill:none;stroke:#1f77b4;stroke-linecap:square;stroke-width:1.5;"/>
   </g>
   <g id="line2d_18">
    <path clip-path="url(#p284d8f5180)" d="M 208.905971 242.916286 
L 214.034915 242.799714 
L 217.625177 242.826961 
L 221.728332 242.869319 
L 224.292805 242.611462 
L 226.857277 242.384803 
L 228.908855 242.268428 
L 229.934644 241.974958 
L 230.960433 241.410466 
L 231.986222 240.573862 
L 233.524905 238.921862 
L 236.089378 236.076773 
L 237.115167 234.909137 
L 238.140956 233.368665 
L 239.166745 231.37242 
L 240.705428 227.811508 
L 242.244111 223.619195 
L 244.295689 216.95786 
L 247.373056 207.010226 
L 248.398845 204.360082 
L 248.91174 203.428038 
L 249.424634 202.816833 
L 249.937529 202.518323 
L 250.450423 202.492006 
L 250.963318 202.685188 
L 251.989107 203.536048 
L 254.040684 205.636515 
L 254.553579 205.90256 
L 255.066473 206.006869 
L 256.092262 205.867787 
L 257.118051 205.705272 
L 257.630946 205.80548 
L 258.14384 206.121686 
L 258.656735 206.715333 
L 259.169629 207.638524 
L 259.682524 208.931704 
L 260.195418 210.618169 
L 261.221207 215.125195 
L 264.811468 233.869762 
L 265.837257 237.542344 
L 266.863046 240.090399 
L 267.375941 240.952171 
L 267.888835 241.576585 
L 268.914624 242.30205 
L 269.940413 242.633606 
L 271.479097 242.844277 
L 274.043569 242.915642 
L 274.043569 242.915642 
" style="fill:none;stroke:#1f77b4;stroke-dasharray:1.5,2.475;stroke-dashoffset:0;stroke-width:1.5;"/>
   </g>
   <g id="line2d_19">
    <path clip-path="url(#p284d8f5180)" d="M 64.621309 242.918125 
L 66.20937 223.999722 
L 67.797431 242.918125 
L 69.385492 32.822887 
L 70.973553 35.239101 
L 72.561614 200.438577 
L 74.149675 219.732637 
L 75.737736 234.309258 
L 77.325797 237.282359 
L 78.913858 239.783284 
L 80.501919 241.350685 
L 82.08998 241.416814 
L 83.678041 242.627832 
L 85.266102 242.084909 
L 86.854163 242.912956 
L 88.442224 242.253436 
L 90.030285 242.918125 
L 91.618346 242.389073 
L 93.206407 242.918125 
L 94.794468 242.512757 
L 96.382529 242.918125 
L 97.97059 242.509206 
L 99.558651 242.918125 
L 101.146712 242.552237 
L 102.734773 242.918125 
L 104.322834 242.585843 
L 105.910895 242.918125 
L 107.498956 242.588495 
L 109.087017 242.918125 
L 110.675078 242.619336 
L 112.263139 242.918125 
L 113.8512 242.651139 
L 115.439261 242.918125 
L 117.027322 242.666298 
L 118.615383 242.918125 
L 120.203444 242.650457 
L 121.791505 242.918125 
L 123.379566 242.68958 
L 124.967627 242.918125 
L 126.555688 242.701535 
L 128.143749 242.918125 
L 129.731811 242.678861 
L 131.319872 242.918125 
L 132.907933 242.6821 
L 134.495994 242.918125 
L 136.084055 242.701325 
L 137.672116 242.918125 
L 139.260177 242.694012 
L 140.848238 242.918125 
L 142.436299 242.654159 
L 144.02436 242.918125 
L 145.612421 242.595591 
L 147.200482 242.918125 
L 148.788543 242.505832 
L 150.376604 242.918125 
L 151.964665 242.369888 
L 153.552726 242.918125 
L 155.140787 242.076907 
L 156.728848 242.918125 
L 158.316909 241.218959 
L 159.90497 242.918125 
L 161.493031 230.147899 
L 163.081092 242.918125 
L 164.669153 242.918125 
L 166.257214 232.094043 
L 167.845275 241.841782 
L 169.433336 241.457756 
L 171.021397 235.758233 
L 172.609458 242.918125 
L 174.197519 238.048159 
L 175.78558 242.918125 
L 177.373641 241.014036 
L 178.961702 242.917133 
L 180.549763 242.094996 
L 182.137824 242.918125 
L 183.725885 242.415781 
L 185.313946 242.918125 
L 186.902007 242.612376 
L 188.490068 242.918125 
L 190.078129 242.675651 
L 191.66619 242.918125 
L 193.254251 242.701122 
L 194.842312 242.918125 
L 196.430373 242.740379 
L 198.018434 242.918125 
L 199.606495 242.71898 
L 201.194556 242.918125 
L 202.782617 242.702457 
L 204.370678 242.918125 
L 205.958739 242.725796 
L 207.5468 242.918125 
L 209.134861 242.732764 
L 210.722922 242.918125 
L 212.310983 242.739228 
L 213.899044 242.918125 
L 215.487105 242.695126 
L 217.075166 242.918125 
L 218.663227 242.684907 
L 220.251288 242.918125 
L 221.839349 242.619379 
L 223.42741 242.918125 
L 225.015471 242.576317 
L 226.603532 242.918125 
L 228.191593 242.443465 
L 229.779654 242.918125 
L 231.367715 242.368361 
L 232.955776 242.918125 
L 234.543837 242.173585 
L 236.131898 242.869624 
L 237.719959 242.101093 
L 239.308021 242.910093 
L 240.896082 241.923715 
L 242.484143 242.918125 
L 244.072204 241.792389 
L 245.660265 242.918125 
L 247.248326 241.710422 
L 248.836387 242.918125 
L 250.424448 241.63741 
L 252.012509 242.918125 
L 253.60057 241.360252 
L 255.188631 242.918125 
L 256.776692 241.013952 
L 258.364753 242.918125 
L 259.952814 240.326785 
L 261.540875 242.918125 
L 263.128936 238.915571 
L 264.716997 242.918125 
L 266.305058 235.395009 
L 266.305058 235.395009 
" style="fill:none;stroke:#ff7f0e;stroke-linecap:square;stroke-width:1.5;"/>
   </g>
   <g id="line2d_20">
    <path clip-path="url(#p284d8f5180)" d="M 66.563862 242.918125 
L 139.280234 242.910229 
L 160.287185 242.885028 
L 166.750863 242.786924 
L 168.366782 242.330398 
L 169.982702 242.849159 
L 174.83046 242.746621 
L 176.446379 242.648025 
L 178.062298 242.417052 
L 179.678218 242.352868 
L 181.294137 242.798043 
L 184.525976 242.869847 
L 208.764766 242.591327 
L 215.228444 242.050109 
L 218.460283 241.409735 
L 220.076202 240.799812 
L 221.692121 240.005532 
L 223.308041 238.942777 
L 224.92396 237.349649 
L 228.155799 232.568447 
L 229.771718 228.952882 
L 231.387637 226.013657 
L 233.003557 222.052829 
L 234.619476 219.355885 
L 236.235396 216.90693 
L 237.851315 215.066554 
L 239.467234 213.401253 
L 241.083154 212.580384 
L 242.699073 211.390509 
L 244.314992 209.863466 
L 245.930912 209.396458 
L 247.546831 210.865959 
L 249.16275 213.498617 
L 250.77867 217.067314 
L 252.394589 220.208468 
L 257.242347 228.283309 
L 258.858267 231.391367 
L 262.090105 238.908584 
L 263.706025 241.320144 
L 265.321944 242.484531 
L 266.937864 242.838315 
L 270.169702 242.916971 
L 271.785622 242.916754 
L 271.785622 242.916754 
" style="fill:none;stroke:#ff7f0e;stroke-dasharray:1.5,2.475;stroke-dashoffset:0;stroke-width:1.5;"/>
   </g>
   <g id="line2d_21">
    <path clip-path="url(#p284d8f5180)" d="M 67.21496 234.858057 
L 68.786558 242.918125 
L 70.358156 156.708607 
L 71.929755 177.689352 
L 73.501353 211.864254 
L 75.072951 223.36915 
L 76.644549 227.495489 
L 78.216147 236.766763 
L 79.787746 237.080305 
L 81.359344 239.357059 
L 82.930942 241.163027 
L 84.50254 242.276679 
L 86.074138 241.698963 
L 87.645737 242.918125 
L 89.217335 242.170928 
L 90.788933 242.918125 
L 92.360531 242.47793 
L 93.932129 242.918125 
L 95.503728 242.335849 
L 97.075326 242.918125 
L 98.646924 242.671974 
L 100.218522 242.918125 
L 101.79012 242.493505 
L 103.361719 242.918125 
L 104.933317 242.722118 
L 106.504915 242.918125 
L 108.076513 242.761798 
L 109.648111 242.918125 
L 111.21971 242.786278 
L 112.791308 242.918125 
L 114.362906 242.7066 
L 115.934504 242.918125 
L 117.506103 242.906404 
L 119.077701 242.594348 
L 120.649299 242.91722 
L 122.220897 242.790831 
L 125.364094 242.839914 
L 126.935692 242.81083 
L 128.50729 242.918125 
L 130.078888 242.856119 
L 131.650486 242.918125 
L 133.222085 242.810093 
L 141.080076 242.918125 
L 142.651674 242.85923 
L 144.223272 242.918125 
L 145.79487 242.859083 
L 147.366468 242.918125 
L 148.938067 242.86066 
L 150.509665 242.918125 
L 153.652861 242.918125 
L 158.367656 242.891988 
L 161.510852 242.918125 
L 163.082451 242.813416 
L 164.654049 242.918125 
L 166.225647 240.739511 
L 167.797245 242.589159 
L 169.368843 242.694522 
L 170.940442 240.133342 
L 172.51204 242.918125 
L 174.083638 241.356409 
L 175.655236 242.918125 
L 177.226834 241.193258 
L 178.798433 242.918125 
L 180.370031 242.209096 
L 181.941629 242.688745 
L 183.513227 242.420124 
L 185.084825 242.810745 
L 188.228022 242.918125 
L 189.79962 242.666911 
L 191.371218 242.918125 
L 192.942816 242.814308 
L 194.514415 242.918125 
L 196.086013 242.836476 
L 197.657611 242.918125 
L 200.800807 242.79388 
L 203.944004 242.918125 
L 205.515602 242.722613 
L 207.0872 242.918125 
L 208.658798 242.839933 
L 210.230397 242.918125 
L 211.801995 242.831263 
L 213.373593 242.918125 
L 214.945191 242.829443 
L 216.51679 242.918125 
L 218.088388 242.820372 
L 225.946379 242.918125 
L 227.517977 242.672515 
L 229.089575 242.918125 
L 230.661173 242.75282 
L 232.232772 242.827151 
L 233.80437 242.693187 
L 235.375968 242.918125 
L 236.947566 242.524822 
L 238.519164 242.918125 
L 240.090763 242.252582 
L 241.662361 241.968768 
L 243.233959 241.167862 
L 244.805557 242.129621 
L 246.377155 241.443922 
L 247.948754 242.717237 
L 249.520352 240.950995 
L 251.09195 242.789146 
L 252.663548 241.029154 
L 254.235146 242.918125 
L 255.806745 241.101942 
L 257.378343 242.918125 
L 258.949941 241.255526 
L 260.521539 242.918125 
L 262.093137 240.538932 
L 263.664736 242.918125 
L 265.236334 239.315106 
L 266.807932 242.918125 
L 266.807932 242.918125 
" style="fill:none;stroke:#2ca02c;stroke-linecap:square;stroke-width:1.5;"/>
   </g>
   <g id="line2d_22">
    <path clip-path="url(#p284d8f5180)" d="M 126.4992 242.917961 
L 216.139027 242.724704 
L 218.437484 242.680005 
L 220.735941 242.638914 
L 223.034398 242.440238 
L 226.482084 241.70911 
L 227.631313 241.593176 
L 228.780541 241.084344 
L 231.078998 239.165993 
L 232.228227 237.841118 
L 233.377455 236.278162 
L 234.526684 234.486691 
L 235.675913 232.024103 
L 236.825141 229.000754 
L 239.123598 221.473051 
L 241.422055 213.545817 
L 243.720512 207.383819 
L 244.869741 204.794737 
L 246.01897 203.558844 
L 247.168198 203.747805 
L 248.317427 204.680913 
L 249.466655 206.381545 
L 250.615884 208.645899 
L 251.765112 210.215521 
L 252.914341 210.670278 
L 254.063569 210.499071 
L 255.212798 210.500884 
L 256.362027 211.399415 
L 257.511255 213.206485 
L 258.660484 216.257015 
L 259.809712 220.861128 
L 262.108169 231.614905 
L 263.257398 236.140727 
L 264.406626 239.309891 
L 265.555855 241.2853 
L 266.705084 242.311816 
L 267.854312 242.718754 
L 270.152769 242.895686 
L 272.451226 242.917871 
L 272.451226 242.917871 
" style="fill:none;stroke:#2ca02c;stroke-dasharray:1.5,2.475;stroke-dashoffset:0;stroke-width:1.5;"/>
   </g>
   <g id="line2d_23">
    <path clip-path="url(#p284d8f5180)" d="M 67.767979 233.347923 
L 69.29595 242.918125 
L 70.823922 151.392357 
L 72.351894 168.631334 
L 73.879865 219.033868 
L 75.407837 229.61345 
L 76.935808 235.683472 
L 78.46378 239.08489 
L 79.991751 240.135106 
L 81.519723 241.724942 
L 83.047694 241.620067 
L 84.575666 242.69146 
L 86.103637 242.106873 
L 87.631609 242.918125 
L 89.15958 242.321975 
L 90.687552 242.918125 
L 92.215524 242.459636 
L 93.743495 242.918125 
L 95.271467 242.583419 
L 96.799438 242.918125 
L 98.32741 242.666229 
L 99.855381 242.918125 
L 101.383353 242.669488 
L 102.911324 242.918125 
L 104.439296 242.713798 
L 105.967267 242.918125 
L 107.495239 242.73235 
L 109.02321 242.895487 
L 110.551182 242.729078 
L 112.079154 242.910378 
L 113.607125 242.763719 
L 115.135097 242.918125 
L 116.663068 242.798358 
L 118.19104 242.918125 
L 119.719011 242.762601 
L 121.246983 242.918125 
L 122.774954 242.800534 
L 124.302926 242.918125 
L 125.830897 242.850036 
L 127.358869 242.902799 
L 128.88684 242.814241 
L 130.414812 242.917749 
L 134.998727 242.871396 
L 147.222499 242.907044 
L 148.75047 242.784379 
L 150.278442 242.918125 
L 151.806414 242.785132 
L 153.334385 242.918125 
L 154.862357 242.725943 
L 156.390328 242.918125 
L 157.9183 242.684993 
L 159.446271 242.918125 
L 160.974243 242.494955 
L 162.502214 242.918125 
L 164.030186 242.301287 
L 165.558157 242.678814 
L 167.086129 238.524853 
L 168.614101 242.918125 
L 170.142072 234.776349 
L 171.670044 242.891319 
L 173.198015 239.1572 
L 174.725987 241.971883 
L 176.253958 240.672685 
L 177.78193 242.891897 
L 179.309901 241.532653 
L 180.837873 242.905134 
L 182.365844 242.335555 
L 183.893816 242.918125 
L 185.421787 242.672166 
L 186.949759 242.918125 
L 188.477731 242.756709 
L 190.005702 242.918125 
L 191.533674 242.829734 
L 193.061645 242.918125 
L 194.589617 242.847246 
L 197.64556 242.884047 
L 203.757446 242.889583 
L 228.204991 242.918125 
L 229.732962 242.722529 
L 231.260934 242.918125 
L 232.788905 242.689167 
L 234.316877 242.918125 
L 235.844848 242.628983 
L 237.37282 242.918125 
L 238.900791 242.593439 
L 240.428763 242.918125 
L 241.956734 242.519773 
L 243.484706 242.918125 
L 245.012677 242.40659 
L 246.540649 242.918125 
L 248.068621 242.24285 
L 249.596592 242.918125 
L 251.124564 241.96383 
L 252.652535 242.918125 
L 254.180507 241.522935 
L 255.708478 242.918125 
L 257.23645 240.724591 
L 258.764421 242.918125 
L 260.292393 238.934702 
L 261.820364 242.918125 
L 261.820364 242.918125 
" style="fill:none;stroke:#d62728;stroke-linecap:square;stroke-width:1.5;"/>
   </g>
   <g id="line2d_24">
    <path clip-path="url(#p284d8f5180)" d="M 54.885644 242.91253 
L 60.131814 242.841011 
L 63.629261 242.63578 
L 72.372878 241.831665 
L 75.870325 241.935901 
L 86.362666 242.748661 
L 91.608836 242.759478 
L 98.60373 242.680232 
L 114.342241 242.87926 
L 144.07054 242.775412 
L 154.562881 242.755719 
L 159.809051 242.532566 
L 177.296286 241.484436 
L 182.542456 241.397594 
L 186.039903 241.283494 
L 187.788627 241.090141 
L 191.286073 240.359109 
L 196.532244 238.751417 
L 200.029691 237.491987 
L 201.778414 236.728138 
L 205.275861 234.82583 
L 214.019478 229.331407 
L 215.768202 228.522892 
L 217.516925 227.938015 
L 219.265649 227.571897 
L 229.757989 226.287562 
L 231.506713 226.342212 
L 233.255436 226.683469 
L 235.00416 227.301053 
L 238.501607 229.029029 
L 241.999054 230.723787 
L 243.747777 231.394511 
L 247.245224 232.392472 
L 250.742671 233.277902 
L 252.491394 233.870577 
L 254.240118 234.665879 
L 255.988841 235.697056 
L 259.486288 238.260447 
L 261.235012 239.548133 
L 262.983735 240.663502 
L 264.732459 241.529348 
L 266.481182 242.133021 
L 268.229905 242.511836 
L 271.727352 242.835468 
L 276.973523 242.913083 
L 276.973523 242.913083 
" style="fill:none;stroke:#d62728;stroke-dasharray:1.5,2.475;stroke-dashoffset:0;stroke-width:1.5;"/>
   </g>
   <g id="patch_3">
    <path d="M 43.78125 242.918125 
L 43.78125 22.318125 
" style="fill:none;stroke:#000000;stroke-linecap:square;stroke-linejoin:miter;stroke-width:0.8;"/>
   </g>
   <g id="patch_4">
    <path d="M 43.78125 242.918125 
L 288.077917 242.918125 
" style="fill:none;stroke:#000000;stroke-linecap:square;stroke-linejoin:miter;stroke-width:0.8;"/>
   </g>
   <g id="text_16">
    <!-- 1 - 30 -->
    <defs>
     <path d="M 4.890625 31.390625 
L 31.203125 31.390625 
L 31.203125 23.390625 
L 4.890625 23.390625 
z
" id="DejaVuSans-45"/>
    </defs>
    <g transform="translate(148.498646 16.318125)scale(0.12 -0.12)">
     <use xlink:href="#DejaVuSans-49"/>
     <use x="63.623047" xlink:href="#DejaVuSans-32"/>
     <use x="95.410156" xlink:href="#DejaVuSans-45"/>
     <use x="131.494141" xlink:href="#DejaVuSans-32"/>
     <use x="163.28125" xlink:href="#DejaVuSans-51"/>
     <use x="226.904297" xlink:href="#DejaVuSans-48"/>
    </g>
   </g>
   <g id="legend_1">
    <g id="patch_5">
     <path d="M 142.543542 89.030625 
L 281.077917 89.030625 
Q 283.077917 89.030625 283.077917 87.030625 
L 283.077917 29.318125 
Q 283.077917 27.318125 281.077917 27.318125 
L 142.543542 27.318125 
Q 140.543542 27.318125 140.543542 29.318125 
L 140.543542 87.030625 
Q 140.543542 89.030625 142.543542 89.030625 
z
" style="fill:#ffffff;opacity:0.8;stroke:#cccccc;stroke-linejoin:miter;"/>
    </g>
    <g id="line2d_25">
     <path d="M 144.543542 35.416562 
L 164.543542 35.416562 
" style="fill:none;stroke:#1f77b4;stroke-linecap:square;stroke-width:1.5;"/>
    </g>
    <g id="line2d_26"/>
    <g id="text_17">
     <!-- varlociraptor+delly -->
     <defs>
      <path d="M 2.984375 54.6875 
L 12.5 54.6875 
L 29.59375 8.796875 
L 46.6875 54.6875 
L 56.203125 54.6875 
L 35.6875 0 
L 23.484375 0 
z
" id="DejaVuSans-118"/>
      <path d="M 9.421875 75.984375 
L 18.40625 75.984375 
L 18.40625 0 
L 9.421875 0 
z
" id="DejaVuSans-108"/>
      <path d="M 18.109375 8.203125 
L 18.109375 -20.796875 
L 9.078125 -20.796875 
L 9.078125 54.6875 
L 18.109375 54.6875 
L 18.109375 46.390625 
Q 20.953125 51.265625 25.265625 53.625 
Q 29.59375 56 35.59375 56 
Q 45.5625 56 51.78125 48.09375 
Q 58.015625 40.1875 58.015625 27.296875 
Q 58.015625 14.40625 51.78125 6.484375 
Q 45.5625 -1.421875 35.59375 -1.421875 
Q 29.59375 -1.421875 25.265625 0.953125 
Q 20.953125 3.328125 18.109375 8.203125 
z
M 48.6875 27.296875 
Q 48.6875 37.203125 44.609375 42.84375 
Q 40.53125 48.484375 33.40625 48.484375 
Q 26.265625 48.484375 22.1875 42.84375 
Q 18.109375 37.203125 18.109375 27.296875 
Q 18.109375 17.390625 22.1875 11.75 
Q 26.265625 6.109375 33.40625 6.109375 
Q 40.53125 6.109375 44.609375 11.75 
Q 48.6875 17.390625 48.6875 27.296875 
z
" id="DejaVuSans-112"/>
     </defs>
     <g transform="translate(172.543542 38.916562)scale(0.1 -0.1)">
      <use xlink:href="#DejaVuSans-118"/>
      <use x="59.179688" xlink:href="#DejaVuSans-97"/>
      <use x="120.458984" xlink:href="#DejaVuSans-114"/>
      <use x="161.572266" xlink:href="#DejaVuSans-108"/>
      <use x="189.355469" xlink:href="#DejaVuSans-111"/>
      <use x="250.537109" xlink:href="#DejaVuSans-99"/>
      <use x="305.517578" xlink:href="#DejaVuSans-105"/>
      <use x="333.300781" xlink:href="#DejaVuSans-114"/>
      <use x="374.414062" xlink:href="#DejaVuSans-97"/>
      <use x="435.693359" xlink:href="#DejaVuSans-112"/>
      <use x="499.169922" xlink:href="#DejaVuSans-116"/>
      <use x="538.378906" xlink:href="#DejaVuSans-111"/>
      <use x="599.560547" xlink:href="#DejaVuSans-114"/>
      <use x="640.673828" xlink:href="#DejaVuSans-43"/>
      <use x="724.462891" xlink:href="#DejaVuSans-100"/>
      <use x="787.939453" xlink:href="#DejaVuSans-101"/>
      <use x="849.462891" xlink:href="#DejaVuSans-108"/>
      <use x="877.246094" xlink:href="#DejaVuSans-108"/>
      <use x="905.029297" xlink:href="#DejaVuSans-121"/>
     </g>
    </g>
    <g id="line2d_27">
     <path d="M 144.543542 50.094687 
L 164.543542 50.094687 
" style="fill:none;stroke:#ff7f0e;stroke-linecap:square;stroke-width:1.5;"/>
    </g>
    <g id="line2d_28"/>
    <g id="text_18">
     <!-- varlociraptor+lancet -->
     <g transform="translate(172.543542 53.594687)scale(0.1 -0.1)">
      <use xlink:href="#DejaVuSans-118"/>
      <use x="59.179688" xlink:href="#DejaVuSans-97"/>
      <use x="120.458984" xlink:href="#DejaVuSans-114"/>
      <use x="161.572266" xlink:href="#DejaVuSans-108"/>
      <use x="189.355469" xlink:href="#DejaVuSans-111"/>
      <use x="250.537109" xlink:href="#DejaVuSans-99"/>
      <use x="305.517578" xlink:href="#DejaVuSans-105"/>
      <use x="333.300781" xlink:href="#DejaVuSans-114"/>
      <use x="374.414062" xlink:href="#DejaVuSans-97"/>
      <use x="435.693359" xlink:href="#DejaVuSans-112"/>
      <use x="499.169922" xlink:href="#DejaVuSans-116"/>
      <use x="538.378906" xlink:href="#DejaVuSans-111"/>
      <use x="599.560547" xlink:href="#DejaVuSans-114"/>
      <use x="640.673828" xlink:href="#DejaVuSans-43"/>
      <use x="724.462891" xlink:href="#DejaVuSans-108"/>
      <use x="752.246094" xlink:href="#DejaVuSans-97"/>
      <use x="813.525391" xlink:href="#DejaVuSans-110"/>
      <use x="876.904297" xlink:href="#DejaVuSans-99"/>
      <use x="931.884766" xlink:href="#DejaVuSans-101"/>
      <use x="993.408203" xlink:href="#DejaVuSans-116"/>
     </g>
    </g>
    <g id="line2d_29">
     <path d="M 144.543542 64.772812 
L 164.543542 64.772812 
" style="fill:none;stroke:#2ca02c;stroke-linecap:square;stroke-width:1.5;"/>
    </g>
    <g id="line2d_30"/>
    <g id="text_19">
     <!-- varlociraptor+manta -->
     <g transform="translate(172.543542 68.272812)scale(0.1 -0.1)">
      <use xlink:href="#DejaVuSans-118"/>
      <use x="59.179688" xlink:href="#DejaVuSans-97"/>
      <use x="120.458984" xlink:href="#DejaVuSans-114"/>
      <use x="161.572266" xlink:href="#DejaVuSans-108"/>
      <use x="189.355469" xlink:href="#DejaVuSans-111"/>
      <use x="250.537109" xlink:href="#DejaVuSans-99"/>
      <use x="305.517578" xlink:href="#DejaVuSans-105"/>
      <use x="333.300781" xlink:href="#DejaVuSans-114"/>
      <use x="374.414062" xlink:href="#DejaVuSans-97"/>
      <use x="435.693359" xlink:href="#DejaVuSans-112"/>
      <use x="499.169922" xlink:href="#DejaVuSans-116"/>
      <use x="538.378906" xlink:href="#DejaVuSans-111"/>
      <use x="599.560547" xlink:href="#DejaVuSans-114"/>
      <use x="640.673828" xlink:href="#DejaVuSans-43"/>
      <use x="724.462891" xlink:href="#DejaVuSans-109"/>
      <use x="821.875" xlink:href="#DejaVuSans-97"/>
      <use x="883.154297" xlink:href="#DejaVuSans-110"/>
      <use x="946.533203" xlink:href="#DejaVuSans-116"/>
      <use x="985.742188" xlink:href="#DejaVuSans-97"/>
     </g>
    </g>
    <g id="line2d_31">
     <path d="M 144.543542 79.450938 
L 164.543542 79.450938 
" style="fill:none;stroke:#d62728;stroke-linecap:square;stroke-width:1.5;"/>
    </g>
    <g id="line2d_32"/>
    <g id="text_20">
     <!-- varlociraptor+strelka -->
     <defs>
      <path d="M 9.078125 75.984375 
L 18.109375 75.984375 
L 18.109375 31.109375 
L 44.921875 54.6875 
L 56.390625 54.6875 
L 27.390625 29.109375 
L 57.625 0 
L 45.90625 0 
L 18.109375 26.703125 
L 18.109375 0 
L 9.078125 0 
z
" id="DejaVuSans-107"/>
     </defs>
     <g transform="translate(172.543542 82.950938)scale(0.1 -0.1)">
      <use xlink:href="#DejaVuSans-118"/>
      <use x="59.179688" xlink:href="#DejaVuSans-97"/>
      <use x="120.458984" xlink:href="#DejaVuSans-114"/>
      <use x="161.572266" xlink:href="#DejaVuSans-108"/>
      <use x="189.355469" xlink:href="#DejaVuSans-111"/>
      <use x="250.537109" xlink:href="#DejaVuSans-99"/>
      <use x="305.517578" xlink:href="#DejaVuSans-105"/>
      <use x="333.300781" xlink:href="#DejaVuSans-114"/>
      <use x="374.414062" xlink:href="#DejaVuSans-97"/>
      <use x="435.693359" xlink:href="#DejaVuSans-112"/>
      <use x="499.169922" xlink:href="#DejaVuSans-116"/>
      <use x="538.378906" xlink:href="#DejaVuSans-111"/>
      <use x="599.560547" xlink:href="#DejaVuSans-114"/>
      <use x="640.673828" xlink:href="#DejaVuSans-43"/>
      <use x="724.462891" xlink:href="#DejaVuSans-115"/>
      <use x="776.5625" xlink:href="#DejaVuSans-116"/>
      <use x="815.771484" xlink:href="#DejaVuSans-114"/>
      <use x="856.853516" xlink:href="#DejaVuSans-101"/>
      <use x="918.376953" xlink:href="#DejaVuSans-108"/>
      <use x="946.160156" xlink:href="#DejaVuSans-107"/>
      <use x="1004.054688" xlink:href="#DejaVuSans-97"/>
     </g>
    </g>
   </g>
  </g>
  <g id="axes_2">
   <g id="patch_6">
    <path d="M 324.327917 242.918125 
L 568.624583 242.918125 
L 568.624583 22.318125 
L 324.327917 22.318125 
z
" style="fill:#ffffff;"/>
   </g>
   <g id="matplotlib.axis_3">
    <g id="xtick_8">
     <g id="line2d_33">
      <g>
       <use style="stroke:#000000;stroke-width:0.8;" x="340.237928" xlink:href="#mb7ca51de4f" y="242.918125"/>
      </g>
     </g>
     <g id="text_21">
      <!-- 1 -->
      <g transform="translate(337.056678 257.516563)scale(0.1 -0.1)">
       <use xlink:href="#DejaVuSans-49"/>
      </g>
     </g>
    </g>
    <g id="xtick_9">
     <g id="line2d_34">
      <g>
       <use style="stroke:#000000;stroke-width:0.8;" x="372.47503" xlink:href="#mb7ca51de4f" y="242.918125"/>
      </g>
     </g>
     <g id="text_22">
      <!-- 1e+02 -->
      <g transform="translate(355.664873 257.516563)scale(0.1 -0.1)">
       <use xlink:href="#DejaVuSans-49"/>
       <use x="63.623047" xlink:href="#DejaVuSans-101"/>
       <use x="125.146484" xlink:href="#DejaVuSans-43"/>
       <use x="208.935547" xlink:href="#DejaVuSans-48"/>
       <use x="272.558594" xlink:href="#DejaVuSans-50"/>
      </g>
     </g>
    </g>
    <g id="xtick_10">
     <g id="line2d_35">
      <g>
       <use style="stroke:#000000;stroke-width:0.8;" x="404.712131" xlink:href="#mb7ca51de4f" y="242.918125"/>
      </g>
     </g>
     <g id="text_23">
      <!-- 2e+04 -->
      <g transform="translate(387.901975 257.516563)scale(0.1 -0.1)">
       <use xlink:href="#DejaVuSans-50"/>
       <use x="63.623047" xlink:href="#DejaVuSans-101"/>
       <use x="125.146484" xlink:href="#DejaVuSans-43"/>
       <use x="208.935547" xlink:href="#DejaVuSans-48"/>
       <use x="272.558594" xlink:href="#DejaVuSans-52"/>
      </g>
     </g>
    </g>
    <g id="xtick_11">
     <g id="line2d_36">
      <g>
       <use style="stroke:#000000;stroke-width:0.8;" x="436.949233" xlink:href="#mb7ca51de4f" y="242.918125"/>
      </g>
     </g>
     <g id="text_24">
      <!-- 3e+06 -->
      <defs>
       <path d="M 33.015625 40.375 
Q 26.375 40.375 22.484375 35.828125 
Q 18.609375 31.296875 18.609375 23.390625 
Q 18.609375 15.53125 22.484375 10.953125 
Q 26.375 6.390625 33.015625 6.390625 
Q 39.65625 6.390625 43.53125 10.953125 
Q 47.40625 15.53125 47.40625 23.390625 
Q 47.40625 31.296875 43.53125 35.828125 
Q 39.65625 40.375 33.015625 40.375 
z
M 52.59375 71.296875 
L 52.59375 62.3125 
Q 48.875 64.0625 45.09375 64.984375 
Q 41.3125 65.921875 37.59375 65.921875 
Q 27.828125 65.921875 22.671875 59.328125 
Q 17.53125 52.734375 16.796875 39.40625 
Q 19.671875 43.65625 24.015625 45.921875 
Q 28.375 48.1875 33.59375 48.1875 
Q 44.578125 48.1875 50.953125 41.515625 
Q 57.328125 34.859375 57.328125 23.390625 
Q 57.328125 12.15625 50.6875 5.359375 
Q 44.046875 -1.421875 33.015625 -1.421875 
Q 20.359375 -1.421875 13.671875 8.265625 
Q 6.984375 17.96875 6.984375 36.375 
Q 6.984375 53.65625 15.1875 63.9375 
Q 23.390625 74.21875 37.203125 74.21875 
Q 40.921875 74.21875 44.703125 73.484375 
Q 48.484375 72.75 52.59375 71.296875 
z
" id="DejaVuSans-54"/>
      </defs>
      <g transform="translate(420.139076 257.516563)scale(0.1 -0.1)">
       <use xlink:href="#DejaVuSans-51"/>
       <use x="63.623047" xlink:href="#DejaVuSans-101"/>
       <use x="125.146484" xlink:href="#DejaVuSans-43"/>
       <use x="208.935547" xlink:href="#DejaVuSans-48"/>
       <use x="272.558594" xlink:href="#DejaVuSans-54"/>
      </g>
     </g>
    </g>
    <g id="xtick_12">
     <g id="line2d_37">
      <g>
       <use style="stroke:#000000;stroke-width:0.8;" x="469.186334" xlink:href="#mb7ca51de4f" y="242.918125"/>
      </g>
     </g>
    </g>
    <g id="xtick_13">
     <g id="line2d_38">
      <g>
       <use style="stroke:#000000;stroke-width:0.8;" x="501.423436" xlink:href="#mb7ca51de4f" y="242.918125"/>
      </g>
     </g>
    </g>
    <g id="xtick_14">
     <g id="line2d_39">
      <g>
       <use style="stroke:#000000;stroke-width:0.8;" x="533.660537" xlink:href="#mb7ca51de4f" y="242.918125"/>
      </g>
     </g>
    </g>
    <g id="xtick_15">
     <g id="line2d_40">
      <g>
       <use style="stroke:#000000;stroke-width:0.8;" x="565.897639" xlink:href="#mb7ca51de4f" y="242.918125"/>
      </g>
     </g>
    </g>
    <g id="text_25">
     <!-- Pr(somatic) (PHRED) -->
     <g transform="translate(395.059063 271.194687)scale(0.1 -0.1)">
      <use xlink:href="#DejaVuSans-80"/>
      <use x="60.287109" xlink:href="#DejaVuSans-114"/>
      <use x="101.400391" xlink:href="#DejaVuSans-40"/>
      <use x="140.414062" xlink:href="#DejaVuSans-115"/>
      <use x="192.513672" xlink:href="#DejaVuSans-111"/>
      <use x="253.695312" xlink:href="#DejaVuSans-109"/>
      <use x="351.107422" xlink:href="#DejaVuSans-97"/>
      <use x="412.386719" xlink:href="#DejaVuSans-116"/>
      <use x="451.595703" xlink:href="#DejaVuSans-105"/>
      <use x="479.378906" xlink:href="#DejaVuSans-99"/>
      <use x="534.359375" xlink:href="#DejaVuSans-41"/>
      <use x="573.373047" xlink:href="#DejaVuSans-32"/>
      <use x="605.160156" xlink:href="#DejaVuSans-40"/>
      <use x="644.173828" xlink:href="#DejaVuSans-80"/>
      <use x="704.476562" xlink:href="#DejaVuSans-72"/>
      <use x="779.671875" xlink:href="#DejaVuSans-82"/>
      <use x="849.154297" xlink:href="#DejaVuSans-69"/>
      <use x="912.337891" xlink:href="#DejaVuSans-68"/>
      <use x="989.339844" xlink:href="#DejaVuSans-41"/>
     </g>
    </g>
   </g>
   <g id="matplotlib.axis_4">
    <g id="ytick_10">
     <g id="line2d_41">
      <g>
       <use style="stroke:#000000;stroke-width:0.8;" x="324.327917" xlink:href="#m145441fb60" y="242.918125"/>
      </g>
     </g>
     <g id="text_26">
      <!-- 0.0 -->
      <g transform="translate(301.424792 246.717344)scale(0.1 -0.1)">
       <use xlink:href="#DejaVuSans-48"/>
       <use x="63.623047" xlink:href="#DejaVuSans-46"/>
       <use x="95.410156" xlink:href="#DejaVuSans-48"/>
      </g>
     </g>
    </g>
    <g id="ytick_11">
     <g id="line2d_42">
      <g>
       <use style="stroke:#000000;stroke-width:0.8;" x="324.327917" xlink:href="#m145441fb60" y="206.039681"/>
      </g>
     </g>
     <g id="text_27">
      <!-- 0.5 -->
      <g transform="translate(301.424792 209.838899)scale(0.1 -0.1)">
       <use xlink:href="#DejaVuSans-48"/>
       <use x="63.623047" xlink:href="#DejaVuSans-46"/>
       <use x="95.410156" xlink:href="#DejaVuSans-53"/>
      </g>
     </g>
    </g>
    <g id="ytick_12">
     <g id="line2d_43">
      <g>
       <use style="stroke:#000000;stroke-width:0.8;" x="324.327917" xlink:href="#m145441fb60" y="169.161236"/>
      </g>
     </g>
     <g id="text_28">
      <!-- 1.0 -->
      <g transform="translate(301.424792 172.960455)scale(0.1 -0.1)">
       <use xlink:href="#DejaVuSans-49"/>
       <use x="63.623047" xlink:href="#DejaVuSans-46"/>
       <use x="95.410156" xlink:href="#DejaVuSans-48"/>
      </g>
     </g>
    </g>
    <g id="ytick_13">
     <g id="line2d_44">
      <g>
       <use style="stroke:#000000;stroke-width:0.8;" x="324.327917" xlink:href="#m145441fb60" y="132.282792"/>
      </g>
     </g>
     <g id="text_29">
      <!-- 1.5 -->
      <g transform="translate(301.424792 136.08201)scale(0.1 -0.1)">
       <use xlink:href="#DejaVuSans-49"/>
       <use x="63.623047" xlink:href="#DejaVuSans-46"/>
       <use x="95.410156" xlink:href="#DejaVuSans-53"/>
      </g>
     </g>
    </g>
    <g id="ytick_14">
     <g id="line2d_45">
      <g>
       <use style="stroke:#000000;stroke-width:0.8;" x="324.327917" xlink:href="#m145441fb60" y="95.404347"/>
      </g>
     </g>
     <g id="text_30">
      <!-- 2.0 -->
      <g transform="translate(301.424792 99.203566)scale(0.1 -0.1)">
       <use xlink:href="#DejaVuSans-50"/>
       <use x="63.623047" xlink:href="#DejaVuSans-46"/>
       <use x="95.410156" xlink:href="#DejaVuSans-48"/>
      </g>
     </g>
    </g>
    <g id="ytick_15">
     <g id="line2d_46">
      <g>
       <use style="stroke:#000000;stroke-width:0.8;" x="324.327917" xlink:href="#m145441fb60" y="58.525903"/>
      </g>
     </g>
     <g id="text_31">
      <!-- 2.5 -->
      <g transform="translate(301.424792 62.325122)scale(0.1 -0.1)">
       <use xlink:href="#DejaVuSans-50"/>
       <use x="63.623047" xlink:href="#DejaVuSans-46"/>
       <use x="95.410156" xlink:href="#DejaVuSans-53"/>
      </g>
     </g>
    </g>
   </g>
   <g id="line2d_47">
    <path clip-path="url(#pacafcc668f)" d="M 340.935929 240.845859 
L 342.369186 242.918125 
L 343.802443 207.306024 
L 345.2357 183.32753 
L 346.668957 215.360564 
L 348.102214 230.12458 
L 349.535471 229.96649 
L 350.968728 237.692737 
L 352.401985 235.703709 
L 353.835242 239.775452 
L 355.268499 229.901105 
L 356.701756 241.585231 
L 358.135013 240.818386 
L 359.568271 239.313019 
L 361.001528 241.62471 
L 362.434785 242.918125 
L 363.868042 242.706429 
L 365.301299 242.918125 
L 366.734556 242.770522 
L 368.167813 242.918125 
L 369.60107 242.808479 
L 371.034327 242.918125 
L 372.467584 242.834396 
L 373.900841 242.918125 
L 375.334098 242.853036 
L 376.767355 242.918125 
L 379.63387 242.918125 
L 383.933641 242.886364 
L 388.233412 242.918125 
L 395.399697 242.909706 
L 412.598782 242.918125 
L 419.765068 242.87496 
L 424.064839 242.918125 
L 425.498096 242.845478 
L 426.931353 242.918125 
L 428.36461 242.822378 
L 429.797867 242.918125 
L 431.231124 242.789198 
L 432.664381 242.918125 
L 434.097638 242.738935 
L 435.530895 242.918125 
L 436.964152 242.657416 
L 438.39741 242.918125 
L 439.830667 242.512828 
L 441.263924 242.918125 
L 442.697181 242.24178 
L 444.130438 242.918125 
L 445.563695 237.21356 
L 446.996952 242.918125 
L 448.430209 238.703797 
L 449.863466 242.918125 
L 451.296723 239.012123 
L 452.72998 242.918125 
L 454.163237 242.169181 
L 455.596494 242.918125 
L 457.029751 242.50675 
L 458.463009 242.918125 
L 459.896266 242.659189 
L 461.329523 242.918125 
L 462.76278 242.74272 
L 464.196037 242.918125 
L 465.629294 242.794002 
L 467.062551 242.918125 
L 468.495808 242.828073 
L 469.929065 242.918125 
L 471.362322 242.852154 
L 472.795579 242.918125 
L 477.095351 242.884174 
L 481.395122 242.918125 
L 495.727692 242.887602 
L 500.027464 242.918125 
L 501.460721 242.859183 
L 502.893978 242.918125 
L 504.327235 242.838378 
L 505.760492 242.918125 
L 507.193749 242.809355 
L 508.627006 242.918125 
L 510.060263 242.766148 
L 511.49352 242.918125 
L 512.926777 242.696301 
L 514.360034 242.918125 
L 515.793291 242.569183 
L 517.226549 242.918125 
L 518.659806 242.282767 
L 520.093063 242.918125 
L 521.52632 240.006447 
L 522.959577 242.918125 
L 522.959577 242.918125 
" style="fill:none;stroke:#1f77b4;stroke-linecap:square;stroke-width:1.5;"/>
   </g>
   <g id="line2d_48">
    <path clip-path="url(#pacafcc668f)" d="M 444.100332 242.903829 
L 447.672611 242.794352 
L 451.24489 242.382904 
L 453.03103 242.209276 
L 454.817169 242.223663 
L 458.389448 242.648616 
L 461.068657 242.858169 
L 465.534006 242.917045 
L 491.433029 242.851233 
L 494.112238 242.628876 
L 497.684517 242.211086 
L 499.470656 242.213482 
L 504.829075 242.538814 
L 506.615214 242.229332 
L 508.401354 241.643674 
L 511.080563 240.497307 
L 512.866702 239.524116 
L 513.759772 238.827565 
L 514.652842 237.865638 
L 515.545912 236.530462 
L 516.438981 234.721149 
L 517.332051 232.358518 
L 518.225121 229.398671 
L 519.118191 225.846814 
L 520.90433 217.314053 
L 523.583539 203.992582 
L 524.476609 200.435768 
L 525.369679 197.648364 
L 526.262748 195.698257 
L 527.155818 194.560829 
L 528.048888 194.136361 
L 528.941958 194.271296 
L 529.835027 194.774975 
L 531.621167 196.008617 
L 532.514237 196.289116 
L 533.407306 196.106442 
L 534.300376 195.404377 
L 536.979585 192.081561 
L 537.872655 191.903287 
L 538.765725 192.916906 
L 539.658795 195.353463 
L 540.551864 199.191226 
L 541.444934 204.158755 
L 545.017213 226.072077 
L 545.910283 230.208715 
L 546.803352 233.543594 
L 547.696422 236.148172 
L 548.589492 238.136594 
L 549.482562 239.627217 
L 550.375631 240.723211 
L 551.268701 241.508651 
L 552.161771 242.052294 
L 553.054841 242.412251 
L 554.84098 242.77209 
L 557.520189 242.900316 
L 557.520189 242.900316 
" style="fill:none;stroke:#1f77b4;stroke-dasharray:1.5,2.475;stroke-dashoffset:0;stroke-width:1.5;"/>
   </g>
   <g id="line2d_49">
    <path clip-path="url(#pacafcc668f)" d="M 341.050406 238.385335 
L 342.591683 242.918125 
L 344.13296 200.150108 
L 345.674237 205.325602 
L 347.215514 215.300827 
L 348.756791 231.524104 
L 350.298068 230.848557 
L 351.839345 238.491966 
L 353.380622 237.74055 
L 354.921899 234.976801 
L 356.463176 240.681079 
L 358.004453 242.501395 
L 359.54573 240.557145 
L 361.087007 242.8156 
L 362.628284 242.647736 
L 364.169561 242.918125 
L 365.710838 242.691773 
L 367.252115 242.918125 
L 368.793391 242.732758 
L 370.334668 242.918125 
L 371.875945 242.762888 
L 373.417222 242.918125 
L 374.958499 242.785631 
L 376.499776 242.918125 
L 378.041053 242.803242 
L 379.58233 242.918125 
L 381.123607 242.817156 
L 382.664884 242.918125 
L 384.206161 242.828328 
L 385.747438 242.918125 
L 387.288715 242.83742 
L 388.829992 242.918125 
L 390.371269 242.844908 
L 391.912546 242.918125 
L 393.453823 242.851139 
L 394.9951 242.918125 
L 396.536377 242.856377 
L 398.077653 242.918125 
L 399.61893 242.860823 
L 402.701484 242.864643 
L 407.325315 242.918125 
L 411.949146 242.873664 
L 416.572977 242.918125 
L 421.196808 242.882233 
L 425.820639 242.918125 
L 431.985746 242.90753 
L 433.527023 242.918125 
L 435.0683 241.864508 
L 436.609577 240.106344 
L 438.150854 242.918125 
L 439.692131 242.918125 
L 441.233408 238.470604 
L 442.774685 242.918125 
L 444.315962 240.850923 
L 445.857239 240.760629 
L 447.398516 242.918125 
L 448.939793 240.435438 
L 450.48107 241.772489 
L 452.022347 239.046586 
L 453.563624 242.918125 
L 455.104901 242.391341 
L 456.646177 242.918125 
L 458.187454 242.660128 
L 459.728731 242.918125 
L 461.270008 242.755254 
L 462.811285 242.918125 
L 464.352562 242.799363 
L 465.893839 242.918125 
L 467.435116 242.822573 
L 468.976393 242.918125 
L 470.51767 242.835533 
L 472.058947 242.918125 
L 473.600224 242.842795 
L 475.141501 242.918125 
L 476.682778 242.846541 
L 478.224055 242.918125 
L 479.765332 242.847896 
L 481.306609 242.918125 
L 482.847886 242.847451 
L 484.389163 242.918125 
L 485.930439 242.845506 
L 487.471716 242.918125 
L 489.012993 242.842183 
L 490.55427 242.918125 
L 492.095547 242.83748 
L 493.636824 242.918125 
L 495.178101 242.8313 
L 496.719378 242.918125 
L 498.260655 242.823465 
L 499.801932 242.918125 
L 501.343209 242.81374 
L 502.884486 242.918125 
L 504.425763 242.801881 
L 505.96704 242.918125 
L 507.508317 242.787823 
L 509.049594 242.918125 
L 510.590871 242.772299 
L 512.132148 242.918125 
L 513.673425 242.759273 
L 515.214701 242.918125 
L 516.755978 242.768057 
L 518.297255 242.918125 
L 519.838532 242.918125 
L 521.379809 241.455659 
L 522.921086 241.658462 
L 524.462363 242.918125 
L 526.00364 242.214912 
L 527.544917 242.918125 
L 529.086194 241.126563 
L 530.627471 242.918125 
L 532.168748 240.374344 
L 533.710025 242.918125 
L 535.251302 238.451885 
L 536.792579 242.918125 
L 536.792579 242.918125 
" style="fill:none;stroke:#ff7f0e;stroke-linecap:square;stroke-width:1.5;"/>
   </g>
   <g id="line2d_50">
    <path clip-path="url(#pacafcc668f)" d="M 335.432311 242.891943 
L 337.155988 242.690556 
L 338.879666 241.766008 
L 342.32702 237.583971 
L 344.050698 238.060009 
L 345.774375 240.279915 
L 347.498053 241.929108 
L 349.22173 242.559751 
L 350.945408 242.779716 
L 354.392763 242.911497 
L 387.142634 242.918125 
L 431.958248 242.877421 
L 437.129281 242.70764 
L 440.576635 242.813964 
L 449.195023 242.697387 
L 450.9187 242.532375 
L 452.642378 242.517704 
L 457.81341 242.888624 
L 466.431797 242.918114 
L 487.115927 242.823892 
L 490.563282 242.836433 
L 494.010637 242.814809 
L 497.457991 242.436153 
L 502.629024 241.414777 
L 504.352701 240.987449 
L 506.076379 239.939783 
L 507.800056 237.99886 
L 509.523734 235.551766 
L 511.247411 232.830144 
L 512.971089 229.453003 
L 514.694766 225.279569 
L 518.142121 215.867204 
L 519.865798 210.909009 
L 521.589476 205.164302 
L 523.313153 198.894431 
L 525.036831 194.072342 
L 526.760508 191.262508 
L 528.484186 190.908608 
L 530.207863 193.699726 
L 531.931541 197.799749 
L 533.655218 200.666564 
L 535.378896 202.787562 
L 537.102573 206.924355 
L 538.82625 214.014711 
L 540.549928 222.4252 
L 542.273605 230.033461 
L 543.997283 235.629594 
L 545.72096 239.034169 
L 547.444638 240.926606 
L 549.168315 242.050051 
L 550.891993 242.646419 
L 552.61567 242.863084 
L 554.339348 242.909172 
L 554.339348 242.909172 
" style="fill:none;stroke:#ff7f0e;stroke-dasharray:1.5,2.475;stroke-dashoffset:0;stroke-width:1.5;"/>
   </g>
   <g id="line2d_51">
    <path clip-path="url(#pacafcc668f)" d="M 337.941764 241.694302 
L 339.532379 224.971339 
L 341.122994 141.985347 
L 342.713609 39.140626 
L 344.304224 106.169798 
L 345.894839 162.387001 
L 349.076068 206.471513 
L 350.666683 218.37651 
L 352.257298 226.874744 
L 353.847913 227.207362 
L 355.438528 224.196943 
L 357.029143 232.506387 
L 358.619758 236.620102 
L 360.210373 236.904957 
L 361.800988 240.820494 
L 363.391603 242.758268 
L 366.572832 242.918125 
L 374.525907 242.903711 
L 387.250826 242.909326 
L 407.92882 242.918125 
L 441.331734 242.914238 
L 487.459566 242.918125 
L 514.50002 242.903666 
L 519.271864 242.918125 
L 520.862479 242.839747 
L 522.453094 242.084893 
L 524.043709 240.315419 
L 525.634324 241.018931 
L 527.224939 242.413252 
L 528.815554 242.916005 
L 531.996784 242.906919 
L 533.587399 242.190776 
L 535.178014 240.665923 
L 536.768629 240.667998 
L 538.359243 242.304713 
L 539.949858 242.847024 
L 539.949858 242.847024 
" style="fill:none;stroke:#2ca02c;stroke-linecap:square;stroke-width:1.5;"/>
   </g>
   <g id="line2d_52">
    <path clip-path="url(#pacafcc668f)" d="M 494.378599 242.911534 
L 497.704459 242.80698 
L 502.930809 242.244963 
L 504.356177 241.952782 
L 505.306423 241.527194 
L 506.256668 240.840247 
L 507.206914 239.856285 
L 508.157159 238.574838 
L 511.958142 232.797613 
L 514.333755 230.064924 
L 515.284001 228.302813 
L 516.234246 225.88507 
L 517.659615 221.269127 
L 520.510351 210.780696 
L 522.885965 202.067602 
L 523.836211 199.266685 
L 524.786456 197.100094 
L 526.211824 194.612099 
L 527.637193 192.469949 
L 528.587438 191.424201 
L 529.062561 191.132502 
L 529.537684 191.036413 
L 530.012806 191.147755 
L 530.487929 191.459755 
L 531.438175 192.57469 
L 534.288911 196.706069 
L 536.664525 199.289573 
L 537.139648 200.14682 
L 537.614771 201.255397 
L 538.565016 204.350488 
L 539.515262 208.590594 
L 541.415753 218.986307 
L 542.841121 226.435153 
L 543.791367 230.544766 
L 544.741612 233.833918 
L 545.691858 236.369993 
L 546.642103 238.309503 
L 547.592349 239.806547 
L 548.542594 240.953008 
L 549.49284 241.785916 
L 550.443085 242.334654 
L 551.393331 242.652776 
L 552.818699 242.854784 
L 554.71919 242.910462 
L 554.71919 242.910462 
" style="fill:none;stroke:#2ca02c;stroke-dasharray:1.5,2.475;stroke-dashoffset:0;stroke-width:1.5;"/>
   </g>
   <g id="line2d_53">
    <path clip-path="url(#pacafcc668f)" d="M 338.068809 242.104094 
L 338.46702 240.883273 
L 338.865231 238.157057 
L 339.263442 232.691256 
L 339.661653 222.801383 
L 340.059864 206.67939 
L 340.65718 168.524737 
L 342.250024 43.035778 
L 342.648235 32.822887 
L 342.84734 33.099878 
L 343.046446 36.728929 
L 343.444657 52.196069 
L 345.435711 152.650467 
L 346.033028 167.169979 
L 346.82945 180.066031 
L 348.223188 198.259195 
L 349.01961 206.613245 
L 350.214243 216.188591 
L 351.607981 226.160347 
L 352.006192 227.984584 
L 352.404403 228.974386 
L 352.603509 229.137732 
L 352.802614 229.085883 
L 353.00172 228.832102 
L 353.399931 227.803519 
L 354.992774 222.292413 
L 355.19188 222.211345 
L 355.390985 222.384512 
L 355.789196 223.489318 
L 356.386513 226.626837 
L 357.581146 233.593598 
L 358.178462 235.744483 
L 358.775778 237.070925 
L 361.762361 242.178594 
L 362.359677 242.597645 
L 362.757888 242.684766 
L 363.156099 242.574561 
L 363.355204 242.401884 
L 363.355204 242.401884 
" style="fill:none;stroke:#d62728;stroke-linecap:square;stroke-width:1.5;"/>
   </g>
   <g id="line2d_54">
    <path clip-path="url(#pacafcc668f)" d="M 472.99955 242.379044 
L 474.987109 242.250383 
L 476.974669 241.908795 
L 478.962228 241.305927 
L 480.287267 240.725652 
L 481.612307 239.976728 
L 482.937346 239.038039 
L 484.262386 237.892742 
L 485.587425 236.53159 
L 487.574984 234.092563 
L 489.562544 231.241582 
L 496.187741 221.227347 
L 497.51278 219.735173 
L 498.83782 218.598872 
L 500.162859 217.869492 
L 501.487899 217.571873 
L 502.812938 217.700858 
L 504.137978 218.220215 
L 505.463017 219.064525 
L 507.450576 220.738711 
L 510.763175 223.688374 
L 512.088215 224.600634 
L 513.413254 225.223988 
L 514.738294 225.501646 
L 516.063333 225.408384 
L 517.388372 224.95267 
L 518.713412 224.175949 
L 520.038451 223.149158 
L 525.338609 218.606869 
L 526.663649 217.915187 
L 527.988688 217.584584 
L 529.313728 217.666304 
L 530.638767 218.181093 
L 531.963807 219.118795 
L 533.288846 220.440839 
L 534.613886 222.085204 
L 536.601445 224.981281 
L 541.901603 233.182382 
L 543.889162 235.770082 
L 545.876721 237.892742 
L 547.201761 239.038039 
L 548.5268 239.976728 
L 549.851839 240.725652 
L 551.839399 241.539839 
L 553.826958 242.048794 
L 555.814517 242.315294 
L 557.139557 242.379044 
L 557.139557 242.379044 
" style="fill:none;stroke:#d62728;stroke-dasharray:1.5,2.475;stroke-dashoffset:0;stroke-width:1.5;"/>
   </g>
   <g id="patch_7">
    <path d="M 324.327917 242.918125 
L 324.327917 22.318125 
" style="fill:none;stroke:#000000;stroke-linecap:square;stroke-linejoin:miter;stroke-width:0.8;"/>
   </g>
   <g id="patch_8">
    <path d="M 324.327917 242.918125 
L 568.624583 242.918125 
" style="fill:none;stroke:#000000;stroke-linecap:square;stroke-linejoin:miter;stroke-width:0.8;"/>
   </g>
   <g id="text_32">
    <!-- 30 - 100 -->
    <g transform="translate(421.410313 16.318125)scale(0.12 -0.12)">
     <use xlink:href="#DejaVuSans-51"/>
     <use x="63.623047" xlink:href="#DejaVuSans-48"/>
     <use x="127.246094" xlink:href="#DejaVuSans-32"/>
     <use x="159.033203" xlink:href="#DejaVuSans-45"/>
     <use x="195.117188" xlink:href="#DejaVuSans-32"/>
     <use x="226.904297" xlink:href="#DejaVuSans-49"/>
     <use x="290.527344" xlink:href="#DejaVuSans-48"/>
     <use x="354.150391" xlink:href="#DejaVuSans-48"/>
    </g>
   </g>
  </g>
 </g>
 <defs>
  <clipPath id="p284d8f5180">
   <rect height="220.6" width="244.296667" x="43.78125" y="22.318125"/>
  </clipPath>
  <clipPath id="pacafcc668f">
   <rect height="220.6" width="244.296667" x="324.327917" y="22.318125"/>
  </clipPath>
 </defs>
</svg>
