<?xml version="1.0" encoding="utf-8" standalone="no"?>
<!DOCTYPE svg PUBLIC "-//W3C//DTD SVG 1.1//EN"
  "http://www.w3.org/Graphics/SVG/1.1/DTD/svg11.dtd">
<!-- Created with matplotlib (https://matplotlib.org/) -->
<svg height="280.474375pt" version="1.1" viewBox="0 0 590.430519 280.474375" width="590.430519pt" xmlns="http://www.w3.org/2000/svg" xmlns:xlink="http://www.w3.org/1999/xlink">
 <defs>
  <style type="text/css">
*{stroke-linecap:butt;stroke-linejoin:round;}
  </style>
 </defs>
 <g id="figure_1">
  <g id="patch_1">
   <path d="M 0 280.474375 
L 590.430519 280.474375 
L 590.430519 0 
L 0 0 
z
" style="fill:#ffffff;"/>
  </g>
  <g id="axes_1">
   <g id="patch_2">
    <path d="M 43.78125 242.918125 
L 288.077917 242.918125 
L 288.077917 22.318125 
L 43.78125 22.318125 
z
" style="fill:#ffffff;"/>
   </g>
   <g id="matplotlib.axis_1">
    <g id="xtick_1">
     <g id="line2d_1">
      <defs>
       <path d="M 0 0 
L 0 3.5 
" id="m2eb62651ed" style="stroke:#000000;stroke-width:0.8;"/>
      </defs>
      <g>
       <use style="stroke:#000000;stroke-width:0.8;" x="51.07225" xlink:href="#m2eb62651ed" y="242.918125"/>
      </g>
     </g>
     <g id="text_1">
      <!-- 0.08 -->
      <defs>
       <path d="M 31.78125 66.40625 
Q 24.171875 66.40625 20.328125 58.90625 
Q 16.5 51.421875 16.5 36.375 
Q 16.5 21.390625 20.328125 13.890625 
Q 24.171875 6.390625 31.78125 6.390625 
Q 39.453125 6.390625 43.28125 13.890625 
Q 47.125 21.390625 47.125 36.375 
Q 47.125 51.421875 43.28125 58.90625 
Q 39.453125 66.40625 31.78125 66.40625 
z
M 31.78125 74.21875 
Q 44.046875 74.21875 50.515625 64.515625 
Q 56.984375 54.828125 56.984375 36.375 
Q 56.984375 17.96875 50.515625 8.265625 
Q 44.046875 -1.421875 31.78125 -1.421875 
Q 19.53125 -1.421875 13.0625 8.265625 
Q 6.59375 17.96875 6.59375 36.375 
Q 6.59375 54.828125 13.0625 64.515625 
Q 19.53125 74.21875 31.78125 74.21875 
z
" id="DejaVuSans-48"/>
       <path d="M 10.6875 12.40625 
L 21 12.40625 
L 21 0 
L 10.6875 0 
z
" id="DejaVuSans-46"/>
       <path d="M 31.78125 34.625 
Q 24.75 34.625 20.71875 30.859375 
Q 16.703125 27.09375 16.703125 20.515625 
Q 16.703125 13.921875 20.71875 10.15625 
Q 24.75 6.390625 31.78125 6.390625 
Q 38.8125 6.390625 42.859375 10.171875 
Q 46.921875 13.96875 46.921875 20.515625 
Q 46.921875 27.09375 42.890625 30.859375 
Q 38.875 34.625 31.78125 34.625 
z
M 21.921875 38.8125 
Q 15.578125 40.375 12.03125 44.71875 
Q 8.5 49.078125 8.5 55.328125 
Q 8.5 64.0625 14.71875 69.140625 
Q 20.953125 74.21875 31.78125 74.21875 
Q 42.671875 74.21875 48.875 69.140625 
Q 55.078125 64.0625 55.078125 55.328125 
Q 55.078125 49.078125 51.53125 44.71875 
Q 48 40.375 41.703125 38.8125 
Q 48.828125 37.15625 52.796875 32.3125 
Q 56.78125 27.484375 56.78125 20.515625 
Q 56.78125 9.90625 50.3125 4.234375 
Q 43.84375 -1.421875 31.78125 -1.421875 
Q 19.734375 -1.421875 13.25 4.234375 
Q 6.78125 9.90625 6.78125 20.515625 
Q 6.78125 27.484375 10.78125 32.3125 
Q 14.796875 37.15625 21.921875 38.8125 
z
M 18.3125 54.390625 
Q 18.3125 48.734375 21.84375 45.5625 
Q 25.390625 42.390625 31.78125 42.390625 
Q 38.140625 42.390625 41.71875 45.5625 
Q 45.3125 48.734375 45.3125 54.390625 
Q 45.3125 60.0625 41.71875 63.234375 
Q 38.140625 66.40625 31.78125 66.40625 
Q 25.390625 66.40625 21.84375 63.234375 
Q 18.3125 60.0625 18.3125 54.390625 
z
" id="DejaVuSans-56"/>
      </defs>
      <g transform="translate(39.939437 257.516563)scale(0.1 -0.1)">
       <use xlink:href="#DejaVuSans-48"/>
       <use x="63.623047" xlink:href="#DejaVuSans-46"/>
       <use x="95.410156" xlink:href="#DejaVuSans-48"/>
       <use x="159.033203" xlink:href="#DejaVuSans-56"/>
      </g>
     </g>
    </g>
    <g id="xtick_2">
     <g id="line2d_2">
      <g>
       <use style="stroke:#000000;stroke-width:0.8;" x="85.124539" xlink:href="#m2eb62651ed" y="242.918125"/>
      </g>
     </g>
     <g id="text_2">
      <!-- 1 -->
      <defs>
       <path d="M 12.40625 8.296875 
L 28.515625 8.296875 
L 28.515625 63.921875 
L 10.984375 60.40625 
L 10.984375 69.390625 
L 28.421875 72.90625 
L 38.28125 72.90625 
L 38.28125 8.296875 
L 54.390625 8.296875 
L 54.390625 0 
L 12.40625 0 
z
" id="DejaVuSans-49"/>
      </defs>
      <g transform="translate(81.943289 257.516563)scale(0.1 -0.1)">
       <use xlink:href="#DejaVuSans-49"/>
      </g>
     </g>
    </g>
    <g id="xtick_3">
     <g id="line2d_3">
      <g>
       <use style="stroke:#000000;stroke-width:0.8;" x="119.176828" xlink:href="#m2eb62651ed" y="242.918125"/>
      </g>
     </g>
     <g id="text_3">
      <!-- 1e+01 -->
      <defs>
       <path d="M 56.203125 29.59375 
L 56.203125 25.203125 
L 14.890625 25.203125 
Q 15.484375 15.921875 20.484375 11.0625 
Q 25.484375 6.203125 34.421875 6.203125 
Q 39.59375 6.203125 44.453125 7.46875 
Q 49.3125 8.734375 54.109375 11.28125 
L 54.109375 2.78125 
Q 49.265625 0.734375 44.1875 -0.34375 
Q 39.109375 -1.421875 33.890625 -1.421875 
Q 20.796875 -1.421875 13.15625 6.1875 
Q 5.515625 13.8125 5.515625 26.8125 
Q 5.515625 40.234375 12.765625 48.109375 
Q 20.015625 56 32.328125 56 
Q 43.359375 56 49.78125 48.890625 
Q 56.203125 41.796875 56.203125 29.59375 
z
M 47.21875 32.234375 
Q 47.125 39.59375 43.09375 43.984375 
Q 39.0625 48.390625 32.421875 48.390625 
Q 24.90625 48.390625 20.390625 44.140625 
Q 15.875 39.890625 15.1875 32.171875 
z
" id="DejaVuSans-101"/>
       <path d="M 46 62.703125 
L 46 35.5 
L 73.1875 35.5 
L 73.1875 27.203125 
L 46 27.203125 
L 46 0 
L 37.796875 0 
L 37.796875 27.203125 
L 10.59375 27.203125 
L 10.59375 35.5 
L 37.796875 35.5 
L 37.796875 62.703125 
z
" id="DejaVuSans-43"/>
      </defs>
      <g transform="translate(102.366671 257.516563)scale(0.1 -0.1)">
       <use xlink:href="#DejaVuSans-49"/>
       <use x="63.623047" xlink:href="#DejaVuSans-101"/>
       <use x="125.146484" xlink:href="#DejaVuSans-43"/>
       <use x="208.935547" xlink:href="#DejaVuSans-48"/>
       <use x="272.558594" xlink:href="#DejaVuSans-49"/>
      </g>
     </g>
    </g>
    <g id="xtick_4">
     <g id="line2d_4">
      <g>
       <use style="stroke:#000000;stroke-width:0.8;" x="153.229117" xlink:href="#m2eb62651ed" y="242.918125"/>
      </g>
     </g>
     <g id="text_4">
      <!-- 1e+02 -->
      <defs>
       <path d="M 19.1875 8.296875 
L 53.609375 8.296875 
L 53.609375 0 
L 7.328125 0 
L 7.328125 8.296875 
Q 12.9375 14.109375 22.625 23.890625 
Q 32.328125 33.6875 34.8125 36.53125 
Q 39.546875 41.84375 41.421875 45.53125 
Q 43.3125 49.21875 43.3125 52.78125 
Q 43.3125 58.59375 39.234375 62.25 
Q 35.15625 65.921875 28.609375 65.921875 
Q 23.96875 65.921875 18.8125 64.3125 
Q 13.671875 62.703125 7.8125 59.421875 
L 7.8125 69.390625 
Q 13.765625 71.78125 18.9375 73 
Q 24.125 74.21875 28.421875 74.21875 
Q 39.75 74.21875 46.484375 68.546875 
Q 53.21875 62.890625 53.21875 53.421875 
Q 53.21875 48.921875 51.53125 44.890625 
Q 49.859375 40.875 45.40625 35.40625 
Q 44.1875 33.984375 37.640625 27.21875 
Q 31.109375 20.453125 19.1875 8.296875 
z
" id="DejaVuSans-50"/>
      </defs>
      <g transform="translate(136.41896 257.516563)scale(0.1 -0.1)">
       <use xlink:href="#DejaVuSans-49"/>
       <use x="63.623047" xlink:href="#DejaVuSans-101"/>
       <use x="125.146484" xlink:href="#DejaVuSans-43"/>
       <use x="208.935547" xlink:href="#DejaVuSans-48"/>
       <use x="272.558594" xlink:href="#DejaVuSans-50"/>
      </g>
     </g>
    </g>
    <g id="xtick_5">
     <g id="line2d_5">
      <g>
       <use style="stroke:#000000;stroke-width:0.8;" x="187.281406" xlink:href="#m2eb62651ed" y="242.918125"/>
      </g>
     </g>
     <g id="text_5">
      <!-- 2e+03 -->
      <defs>
       <path d="M 40.578125 39.3125 
Q 47.65625 37.796875 51.625 33 
Q 55.609375 28.21875 55.609375 21.1875 
Q 55.609375 10.40625 48.1875 4.484375 
Q 40.765625 -1.421875 27.09375 -1.421875 
Q 22.515625 -1.421875 17.65625 -0.515625 
Q 12.796875 0.390625 7.625 2.203125 
L 7.625 11.71875 
Q 11.71875 9.328125 16.59375 8.109375 
Q 21.484375 6.890625 26.8125 6.890625 
Q 36.078125 6.890625 40.9375 10.546875 
Q 45.796875 14.203125 45.796875 21.1875 
Q 45.796875 27.640625 41.28125 31.265625 
Q 36.765625 34.90625 28.71875 34.90625 
L 20.21875 34.90625 
L 20.21875 43.015625 
L 29.109375 43.015625 
Q 36.375 43.015625 40.234375 45.921875 
Q 44.09375 48.828125 44.09375 54.296875 
Q 44.09375 59.90625 40.109375 62.90625 
Q 36.140625 65.921875 28.71875 65.921875 
Q 24.65625 65.921875 20.015625 65.03125 
Q 15.375 64.15625 9.8125 62.3125 
L 9.8125 71.09375 
Q 15.4375 72.65625 20.34375 73.4375 
Q 25.25 74.21875 29.59375 74.21875 
Q 40.828125 74.21875 47.359375 69.109375 
Q 53.90625 64.015625 53.90625 55.328125 
Q 53.90625 49.265625 50.4375 45.09375 
Q 46.96875 40.921875 40.578125 39.3125 
z
" id="DejaVuSans-51"/>
      </defs>
      <g transform="translate(170.471249 257.516563)scale(0.1 -0.1)">
       <use xlink:href="#DejaVuSans-50"/>
       <use x="63.623047" xlink:href="#DejaVuSans-101"/>
       <use x="125.146484" xlink:href="#DejaVuSans-43"/>
       <use x="208.935547" xlink:href="#DejaVuSans-48"/>
       <use x="272.558594" xlink:href="#DejaVuSans-51"/>
      </g>
     </g>
    </g>
    <g id="xtick_6">
     <g id="line2d_6">
      <g>
       <use style="stroke:#000000;stroke-width:0.8;" x="221.333695" xlink:href="#m2eb62651ed" y="242.918125"/>
      </g>
     </g>
     <g id="text_6">
      <!-- 2e+04 -->
      <defs>
       <path d="M 37.796875 64.3125 
L 12.890625 25.390625 
L 37.796875 25.390625 
z
M 35.203125 72.90625 
L 47.609375 72.90625 
L 47.609375 25.390625 
L 58.015625 25.390625 
L 58.015625 17.1875 
L 47.609375 17.1875 
L 47.609375 0 
L 37.796875 0 
L 37.796875 17.1875 
L 4.890625 17.1875 
L 4.890625 26.703125 
z
" id="DejaVuSans-52"/>
      </defs>
      <g transform="translate(204.523538 257.516563)scale(0.1 -0.1)">
       <use xlink:href="#DejaVuSans-50"/>
       <use x="63.623047" xlink:href="#DejaVuSans-101"/>
       <use x="125.146484" xlink:href="#DejaVuSans-43"/>
       <use x="208.935547" xlink:href="#DejaVuSans-48"/>
       <use x="272.558594" xlink:href="#DejaVuSans-52"/>
      </g>
     </g>
    </g>
    <g id="xtick_7">
     <g id="line2d_7">
      <g>
       <use style="stroke:#000000;stroke-width:0.8;" x="255.385984" xlink:href="#m2eb62651ed" y="242.918125"/>
      </g>
     </g>
    </g>
    <g id="text_7">
     <!-- Pr(somatic) (PHRED) -->
     <defs>
      <path d="M 19.671875 64.796875 
L 19.671875 37.40625 
L 32.078125 37.40625 
Q 38.96875 37.40625 42.71875 40.96875 
Q 46.484375 44.53125 46.484375 51.125 
Q 46.484375 57.671875 42.71875 61.234375 
Q 38.96875 64.796875 32.078125 64.796875 
z
M 9.8125 72.90625 
L 32.078125 72.90625 
Q 44.34375 72.90625 50.609375 67.359375 
Q 56.890625 61.8125 56.890625 51.125 
Q 56.890625 40.328125 50.609375 34.8125 
Q 44.34375 29.296875 32.078125 29.296875 
L 19.671875 29.296875 
L 19.671875 0 
L 9.8125 0 
z
" id="DejaVuSans-80"/>
      <path d="M 41.109375 46.296875 
Q 39.59375 47.171875 37.8125 47.578125 
Q 36.03125 48 33.890625 48 
Q 26.265625 48 22.1875 43.046875 
Q 18.109375 38.09375 18.109375 28.8125 
L 18.109375 0 
L 9.078125 0 
L 9.078125 54.6875 
L 18.109375 54.6875 
L 18.109375 46.1875 
Q 20.953125 51.171875 25.484375 53.578125 
Q 30.03125 56 36.53125 56 
Q 37.453125 56 38.578125 55.875 
Q 39.703125 55.765625 41.0625 55.515625 
z
" id="DejaVuSans-114"/>
      <path d="M 31 75.875 
Q 24.46875 64.65625 21.28125 53.65625 
Q 18.109375 42.671875 18.109375 31.390625 
Q 18.109375 20.125 21.3125 9.0625 
Q 24.515625 -2 31 -13.1875 
L 23.1875 -13.1875 
Q 15.875 -1.703125 12.234375 9.375 
Q 8.59375 20.453125 8.59375 31.390625 
Q 8.59375 42.28125 12.203125 53.3125 
Q 15.828125 64.359375 23.1875 75.875 
z
" id="DejaVuSans-40"/>
      <path d="M 44.28125 53.078125 
L 44.28125 44.578125 
Q 40.484375 46.53125 36.375 47.5 
Q 32.28125 48.484375 27.875 48.484375 
Q 21.1875 48.484375 17.84375 46.4375 
Q 14.5 44.390625 14.5 40.28125 
Q 14.5 37.15625 16.890625 35.375 
Q 19.28125 33.59375 26.515625 31.984375 
L 29.59375 31.296875 
Q 39.15625 29.25 43.1875 25.515625 
Q 47.21875 21.78125 47.21875 15.09375 
Q 47.21875 7.46875 41.1875 3.015625 
Q 35.15625 -1.421875 24.609375 -1.421875 
Q 20.21875 -1.421875 15.453125 -0.5625 
Q 10.6875 0.296875 5.421875 2 
L 5.421875 11.28125 
Q 10.40625 8.6875 15.234375 7.390625 
Q 20.0625 6.109375 24.8125 6.109375 
Q 31.15625 6.109375 34.5625 8.28125 
Q 37.984375 10.453125 37.984375 14.40625 
Q 37.984375 18.0625 35.515625 20.015625 
Q 33.0625 21.96875 24.703125 23.78125 
L 21.578125 24.515625 
Q 13.234375 26.265625 9.515625 29.90625 
Q 5.8125 33.546875 5.8125 39.890625 
Q 5.8125 47.609375 11.28125 51.796875 
Q 16.75 56 26.8125 56 
Q 31.78125 56 36.171875 55.265625 
Q 40.578125 54.546875 44.28125 53.078125 
z
" id="DejaVuSans-115"/>
      <path d="M 30.609375 48.390625 
Q 23.390625 48.390625 19.1875 42.75 
Q 14.984375 37.109375 14.984375 27.296875 
Q 14.984375 17.484375 19.15625 11.84375 
Q 23.34375 6.203125 30.609375 6.203125 
Q 37.796875 6.203125 41.984375 11.859375 
Q 46.1875 17.53125 46.1875 27.296875 
Q 46.1875 37.015625 41.984375 42.703125 
Q 37.796875 48.390625 30.609375 48.390625 
z
M 30.609375 56 
Q 42.328125 56 49.015625 48.375 
Q 55.71875 40.765625 55.71875 27.296875 
Q 55.71875 13.875 49.015625 6.21875 
Q 42.328125 -1.421875 30.609375 -1.421875 
Q 18.84375 -1.421875 12.171875 6.21875 
Q 5.515625 13.875 5.515625 27.296875 
Q 5.515625 40.765625 12.171875 48.375 
Q 18.84375 56 30.609375 56 
z
" id="DejaVuSans-111"/>
      <path d="M 52 44.1875 
Q 55.375 50.25 60.0625 53.125 
Q 64.75 56 71.09375 56 
Q 79.640625 56 84.28125 50.015625 
Q 88.921875 44.046875 88.921875 33.015625 
L 88.921875 0 
L 79.890625 0 
L 79.890625 32.71875 
Q 79.890625 40.578125 77.09375 44.375 
Q 74.3125 48.1875 68.609375 48.1875 
Q 61.625 48.1875 57.5625 43.546875 
Q 53.515625 38.921875 53.515625 30.90625 
L 53.515625 0 
L 44.484375 0 
L 44.484375 32.71875 
Q 44.484375 40.625 41.703125 44.40625 
Q 38.921875 48.1875 33.109375 48.1875 
Q 26.21875 48.1875 22.15625 43.53125 
Q 18.109375 38.875 18.109375 30.90625 
L 18.109375 0 
L 9.078125 0 
L 9.078125 54.6875 
L 18.109375 54.6875 
L 18.109375 46.1875 
Q 21.1875 51.21875 25.484375 53.609375 
Q 29.78125 56 35.6875 56 
Q 41.65625 56 45.828125 52.96875 
Q 50 49.953125 52 44.1875 
z
" id="DejaVuSans-109"/>
      <path d="M 34.28125 27.484375 
Q 23.390625 27.484375 19.1875 25 
Q 14.984375 22.515625 14.984375 16.5 
Q 14.984375 11.71875 18.140625 8.90625 
Q 21.296875 6.109375 26.703125 6.109375 
Q 34.1875 6.109375 38.703125 11.40625 
Q 43.21875 16.703125 43.21875 25.484375 
L 43.21875 27.484375 
z
M 52.203125 31.203125 
L 52.203125 0 
L 43.21875 0 
L 43.21875 8.296875 
Q 40.140625 3.328125 35.546875 0.953125 
Q 30.953125 -1.421875 24.3125 -1.421875 
Q 15.921875 -1.421875 10.953125 3.296875 
Q 6 8.015625 6 15.921875 
Q 6 25.140625 12.171875 29.828125 
Q 18.359375 34.515625 30.609375 34.515625 
L 43.21875 34.515625 
L 43.21875 35.40625 
Q 43.21875 41.609375 39.140625 45 
Q 35.0625 48.390625 27.6875 48.390625 
Q 23 48.390625 18.546875 47.265625 
Q 14.109375 46.140625 10.015625 43.890625 
L 10.015625 52.203125 
Q 14.9375 54.109375 19.578125 55.046875 
Q 24.21875 56 28.609375 56 
Q 40.484375 56 46.34375 49.84375 
Q 52.203125 43.703125 52.203125 31.203125 
z
" id="DejaVuSans-97"/>
      <path d="M 18.3125 70.21875 
L 18.3125 54.6875 
L 36.8125 54.6875 
L 36.8125 47.703125 
L 18.3125 47.703125 
L 18.3125 18.015625 
Q 18.3125 11.328125 20.140625 9.421875 
Q 21.96875 7.515625 27.59375 7.515625 
L 36.8125 7.515625 
L 36.8125 0 
L 27.59375 0 
Q 17.1875 0 13.234375 3.875 
Q 9.28125 7.765625 9.28125 18.015625 
L 9.28125 47.703125 
L 2.6875 47.703125 
L 2.6875 54.6875 
L 9.28125 54.6875 
L 9.28125 70.21875 
z
" id="DejaVuSans-116"/>
      <path d="M 9.421875 54.6875 
L 18.40625 54.6875 
L 18.40625 0 
L 9.421875 0 
z
M 9.421875 75.984375 
L 18.40625 75.984375 
L 18.40625 64.59375 
L 9.421875 64.59375 
z
" id="DejaVuSans-105"/>
      <path d="M 48.78125 52.59375 
L 48.78125 44.1875 
Q 44.96875 46.296875 41.140625 47.34375 
Q 37.3125 48.390625 33.40625 48.390625 
Q 24.65625 48.390625 19.8125 42.84375 
Q 14.984375 37.3125 14.984375 27.296875 
Q 14.984375 17.28125 19.8125 11.734375 
Q 24.65625 6.203125 33.40625 6.203125 
Q 37.3125 6.203125 41.140625 7.25 
Q 44.96875 8.296875 48.78125 10.40625 
L 48.78125 2.09375 
Q 45.015625 0.34375 40.984375 -0.53125 
Q 36.96875 -1.421875 32.421875 -1.421875 
Q 20.0625 -1.421875 12.78125 6.34375 
Q 5.515625 14.109375 5.515625 27.296875 
Q 5.515625 40.671875 12.859375 48.328125 
Q 20.21875 56 33.015625 56 
Q 37.15625 56 41.109375 55.140625 
Q 45.0625 54.296875 48.78125 52.59375 
z
" id="DejaVuSans-99"/>
      <path d="M 8.015625 75.875 
L 15.828125 75.875 
Q 23.140625 64.359375 26.78125 53.3125 
Q 30.421875 42.28125 30.421875 31.390625 
Q 30.421875 20.453125 26.78125 9.375 
Q 23.140625 -1.703125 15.828125 -13.1875 
L 8.015625 -13.1875 
Q 14.5 -2 17.703125 9.0625 
Q 20.90625 20.125 20.90625 31.390625 
Q 20.90625 42.671875 17.703125 53.65625 
Q 14.5 64.65625 8.015625 75.875 
z
" id="DejaVuSans-41"/>
      <path id="DejaVuSans-32"/>
      <path d="M 9.8125 72.90625 
L 19.671875 72.90625 
L 19.671875 43.015625 
L 55.515625 43.015625 
L 55.515625 72.90625 
L 65.375 72.90625 
L 65.375 0 
L 55.515625 0 
L 55.515625 34.71875 
L 19.671875 34.71875 
L 19.671875 0 
L 9.8125 0 
z
" id="DejaVuSans-72"/>
      <path d="M 44.390625 34.1875 
Q 47.5625 33.109375 50.5625 29.59375 
Q 53.5625 26.078125 56.59375 19.921875 
L 66.609375 0 
L 56 0 
L 46.6875 18.703125 
Q 43.0625 26.03125 39.671875 28.421875 
Q 36.28125 30.8125 30.421875 30.8125 
L 19.671875 30.8125 
L 19.671875 0 
L 9.8125 0 
L 9.8125 72.90625 
L 32.078125 72.90625 
Q 44.578125 72.90625 50.734375 67.671875 
Q 56.890625 62.453125 56.890625 51.90625 
Q 56.890625 45.015625 53.6875 40.46875 
Q 50.484375 35.9375 44.390625 34.1875 
z
M 19.671875 64.796875 
L 19.671875 38.921875 
L 32.078125 38.921875 
Q 39.203125 38.921875 42.84375 42.21875 
Q 46.484375 45.515625 46.484375 51.90625 
Q 46.484375 58.296875 42.84375 61.546875 
Q 39.203125 64.796875 32.078125 64.796875 
z
" id="DejaVuSans-82"/>
      <path d="M 9.8125 72.90625 
L 55.90625 72.90625 
L 55.90625 64.59375 
L 19.671875 64.59375 
L 19.671875 43.015625 
L 54.390625 43.015625 
L 54.390625 34.71875 
L 19.671875 34.71875 
L 19.671875 8.296875 
L 56.78125 8.296875 
L 56.78125 0 
L 9.8125 0 
z
" id="DejaVuSans-69"/>
      <path d="M 19.671875 64.796875 
L 19.671875 8.109375 
L 31.59375 8.109375 
Q 46.6875 8.109375 53.6875 14.9375 
Q 60.6875 21.78125 60.6875 36.53125 
Q 60.6875 51.171875 53.6875 57.984375 
Q 46.6875 64.796875 31.59375 64.796875 
z
M 9.8125 72.90625 
L 30.078125 72.90625 
Q 51.265625 72.90625 61.171875 64.09375 
Q 71.09375 55.28125 71.09375 36.53125 
Q 71.09375 17.671875 61.125 8.828125 
Q 51.171875 0 30.078125 0 
L 9.8125 0 
z
" id="DejaVuSans-68"/>
     </defs>
     <g transform="translate(114.512396 271.194687)scale(0.1 -0.1)">
      <use xlink:href="#DejaVuSans-80"/>
      <use x="60.287109" xlink:href="#DejaVuSans-114"/>
      <use x="101.400391" xlink:href="#DejaVuSans-40"/>
      <use x="140.414062" xlink:href="#DejaVuSans-115"/>
      <use x="192.513672" xlink:href="#DejaVuSans-111"/>
      <use x="253.695312" xlink:href="#DejaVuSans-109"/>
      <use x="351.107422" xlink:href="#DejaVuSans-97"/>
      <use x="412.386719" xlink:href="#DejaVuSans-116"/>
      <use x="451.595703" xlink:href="#DejaVuSans-105"/>
      <use x="479.378906" xlink:href="#DejaVuSans-99"/>
      <use x="534.359375" xlink:href="#DejaVuSans-41"/>
      <use x="573.373047" xlink:href="#DejaVuSans-32"/>
      <use x="605.160156" xlink:href="#DejaVuSans-40"/>
      <use x="644.173828" xlink:href="#DejaVuSans-80"/>
      <use x="704.476562" xlink:href="#DejaVuSans-72"/>
      <use x="779.671875" xlink:href="#DejaVuSans-82"/>
      <use x="849.154297" xlink:href="#DejaVuSans-69"/>
      <use x="912.337891" xlink:href="#DejaVuSans-68"/>
      <use x="989.339844" xlink:href="#DejaVuSans-41"/>
     </g>
    </g>
   </g>
   <g id="matplotlib.axis_2">
    <g id="ytick_1">
     <g id="line2d_8">
      <defs>
       <path d="M 0 0 
L -3.5 0 
" id="m536bc21768" style="stroke:#000000;stroke-width:0.8;"/>
      </defs>
      <g>
       <use style="stroke:#000000;stroke-width:0.8;" x="43.78125" xlink:href="#m536bc21768" y="242.918125"/>
      </g>
     </g>
     <g id="text_8">
      <!-- 0.0 -->
      <g transform="translate(20.878125 246.717344)scale(0.1 -0.1)">
       <use xlink:href="#DejaVuSans-48"/>
       <use x="63.623047" xlink:href="#DejaVuSans-46"/>
       <use x="95.410156" xlink:href="#DejaVuSans-48"/>
      </g>
     </g>
    </g>
    <g id="ytick_2">
     <g id="line2d_9">
      <g>
       <use style="stroke:#000000;stroke-width:0.8;" x="43.78125" xlink:href="#m536bc21768" y="216.708636"/>
      </g>
     </g>
     <g id="text_9">
      <!-- 0.5 -->
      <defs>
       <path d="M 10.796875 72.90625 
L 49.515625 72.90625 
L 49.515625 64.59375 
L 19.828125 64.59375 
L 19.828125 46.734375 
Q 21.96875 47.46875 24.109375 47.828125 
Q 26.265625 48.1875 28.421875 48.1875 
Q 40.625 48.1875 47.75 41.5 
Q 54.890625 34.8125 54.890625 23.390625 
Q 54.890625 11.625 47.5625 5.09375 
Q 40.234375 -1.421875 26.90625 -1.421875 
Q 22.3125 -1.421875 17.546875 -0.640625 
Q 12.796875 0.140625 7.71875 1.703125 
L 7.71875 11.625 
Q 12.109375 9.234375 16.796875 8.0625 
Q 21.484375 6.890625 26.703125 6.890625 
Q 35.15625 6.890625 40.078125 11.328125 
Q 45.015625 15.765625 45.015625 23.390625 
Q 45.015625 31 40.078125 35.4375 
Q 35.15625 39.890625 26.703125 39.890625 
Q 22.75 39.890625 18.8125 39.015625 
Q 14.890625 38.140625 10.796875 36.28125 
z
" id="DejaVuSans-53"/>
      </defs>
      <g transform="translate(20.878125 220.507855)scale(0.1 -0.1)">
       <use xlink:href="#DejaVuSans-48"/>
       <use x="63.623047" xlink:href="#DejaVuSans-46"/>
       <use x="95.410156" xlink:href="#DejaVuSans-53"/>
      </g>
     </g>
    </g>
    <g id="ytick_3">
     <g id="line2d_10">
      <g>
       <use style="stroke:#000000;stroke-width:0.8;" x="43.78125" xlink:href="#m536bc21768" y="190.499148"/>
      </g>
     </g>
     <g id="text_10">
      <!-- 1.0 -->
      <g transform="translate(20.878125 194.298366)scale(0.1 -0.1)">
       <use xlink:href="#DejaVuSans-49"/>
       <use x="63.623047" xlink:href="#DejaVuSans-46"/>
       <use x="95.410156" xlink:href="#DejaVuSans-48"/>
      </g>
     </g>
    </g>
    <g id="ytick_4">
     <g id="line2d_11">
      <g>
       <use style="stroke:#000000;stroke-width:0.8;" x="43.78125" xlink:href="#m536bc21768" y="164.289659"/>
      </g>
     </g>
     <g id="text_11">
      <!-- 1.5 -->
      <g transform="translate(20.878125 168.088878)scale(0.1 -0.1)">
       <use xlink:href="#DejaVuSans-49"/>
       <use x="63.623047" xlink:href="#DejaVuSans-46"/>
       <use x="95.410156" xlink:href="#DejaVuSans-53"/>
      </g>
     </g>
    </g>
    <g id="ytick_5">
     <g id="line2d_12">
      <g>
       <use style="stroke:#000000;stroke-width:0.8;" x="43.78125" xlink:href="#m536bc21768" y="138.08017"/>
      </g>
     </g>
     <g id="text_12">
      <!-- 2.0 -->
      <g transform="translate(20.878125 141.879389)scale(0.1 -0.1)">
       <use xlink:href="#DejaVuSans-50"/>
       <use x="63.623047" xlink:href="#DejaVuSans-46"/>
       <use x="95.410156" xlink:href="#DejaVuSans-48"/>
      </g>
     </g>
    </g>
    <g id="ytick_6">
     <g id="line2d_13">
      <g>
       <use style="stroke:#000000;stroke-width:0.8;" x="43.78125" xlink:href="#m536bc21768" y="111.870682"/>
      </g>
     </g>
     <g id="text_13">
      <!-- 2.5 -->
      <g transform="translate(20.878125 115.669901)scale(0.1 -0.1)">
       <use xlink:href="#DejaVuSans-50"/>
       <use x="63.623047" xlink:href="#DejaVuSans-46"/>
       <use x="95.410156" xlink:href="#DejaVuSans-53"/>
      </g>
     </g>
    </g>
    <g id="ytick_7">
     <g id="line2d_14">
      <g>
       <use style="stroke:#000000;stroke-width:0.8;" x="43.78125" xlink:href="#m536bc21768" y="85.661193"/>
      </g>
     </g>
     <g id="text_14">
      <!-- 3.0 -->
      <g transform="translate(20.878125 89.460412)scale(0.1 -0.1)">
       <use xlink:href="#DejaVuSans-51"/>
       <use x="63.623047" xlink:href="#DejaVuSans-46"/>
       <use x="95.410156" xlink:href="#DejaVuSans-48"/>
      </g>
     </g>
    </g>
    <g id="ytick_8">
     <g id="line2d_15">
      <g>
       <use style="stroke:#000000;stroke-width:0.8;" x="43.78125" xlink:href="#m536bc21768" y="59.451704"/>
      </g>
     </g>
     <g id="text_15">
      <!-- 3.5 -->
      <g transform="translate(20.878125 63.250923)scale(0.1 -0.1)">
       <use xlink:href="#DejaVuSans-51"/>
       <use x="63.623047" xlink:href="#DejaVuSans-46"/>
       <use x="95.410156" xlink:href="#DejaVuSans-53"/>
      </g>
     </g>
    </g>
    <g id="ytick_9">
     <g id="line2d_16">
      <g>
       <use style="stroke:#000000;stroke-width:0.8;" x="43.78125" xlink:href="#m536bc21768" y="33.242216"/>
      </g>
     </g>
     <g id="text_16">
      <!-- 4.0 -->
      <g transform="translate(20.878125 37.041435)scale(0.1 -0.1)">
       <use xlink:href="#DejaVuSans-52"/>
       <use x="63.623047" xlink:href="#DejaVuSans-46"/>
       <use x="95.410156" xlink:href="#DejaVuSans-48"/>
      </g>
     </g>
    </g>
    <g id="text_17">
     <!-- density -->
     <defs>
      <path d="M 45.40625 46.390625 
L 45.40625 75.984375 
L 54.390625 75.984375 
L 54.390625 0 
L 45.40625 0 
L 45.40625 8.203125 
Q 42.578125 3.328125 38.25 0.953125 
Q 33.9375 -1.421875 27.875 -1.421875 
Q 17.96875 -1.421875 11.734375 6.484375 
Q 5.515625 14.40625 5.515625 27.296875 
Q 5.515625 40.1875 11.734375 48.09375 
Q 17.96875 56 27.875 56 
Q 33.9375 56 38.25 53.625 
Q 42.578125 51.265625 45.40625 46.390625 
z
M 14.796875 27.296875 
Q 14.796875 17.390625 18.875 11.75 
Q 22.953125 6.109375 30.078125 6.109375 
Q 37.203125 6.109375 41.296875 11.75 
Q 45.40625 17.390625 45.40625 27.296875 
Q 45.40625 37.203125 41.296875 42.84375 
Q 37.203125 48.484375 30.078125 48.484375 
Q 22.953125 48.484375 18.875 42.84375 
Q 14.796875 37.203125 14.796875 27.296875 
z
" id="DejaVuSans-100"/>
      <path d="M 54.890625 33.015625 
L 54.890625 0 
L 45.90625 0 
L 45.90625 32.71875 
Q 45.90625 40.484375 42.875 44.328125 
Q 39.84375 48.1875 33.796875 48.1875 
Q 26.515625 48.1875 22.3125 43.546875 
Q 18.109375 38.921875 18.109375 30.90625 
L 18.109375 0 
L 9.078125 0 
L 9.078125 54.6875 
L 18.109375 54.6875 
L 18.109375 46.1875 
Q 21.34375 51.125 25.703125 53.5625 
Q 30.078125 56 35.796875 56 
Q 45.21875 56 50.046875 50.171875 
Q 54.890625 44.34375 54.890625 33.015625 
z
" id="DejaVuSans-110"/>
      <path d="M 32.171875 -5.078125 
Q 28.375 -14.84375 24.75 -17.8125 
Q 21.140625 -20.796875 15.09375 -20.796875 
L 7.90625 -20.796875 
L 7.90625 -13.28125 
L 13.1875 -13.28125 
Q 16.890625 -13.28125 18.9375 -11.515625 
Q 21 -9.765625 23.484375 -3.21875 
L 25.09375 0.875 
L 2.984375 54.6875 
L 12.5 54.6875 
L 29.59375 11.921875 
L 46.6875 54.6875 
L 56.203125 54.6875 
z
" id="DejaVuSans-121"/>
     </defs>
     <g transform="translate(14.798438 150.950938)rotate(-90)scale(0.1 -0.1)">
      <use xlink:href="#DejaVuSans-100"/>
      <use x="63.476562" xlink:href="#DejaVuSans-101"/>
      <use x="125" xlink:href="#DejaVuSans-110"/>
      <use x="188.378906" xlink:href="#DejaVuSans-115"/>
      <use x="240.478516" xlink:href="#DejaVuSans-105"/>
      <use x="268.261719" xlink:href="#DejaVuSans-116"/>
      <use x="307.470703" xlink:href="#DejaVuSans-121"/>
     </g>
    </g>
   </g>
   <g id="line2d_17">
    <path clip-path="url(#pc9cb6004e2)" d="M 70.193105 235.094809 
L 71.73015 242.918125 
L 73.267194 151.860113 
L 74.804239 169.513456 
L 76.341284 200.776818 
L 77.878329 229.467279 
L 79.415374 232.392926 
L 80.952418 241.025259 
L 82.489463 238.885741 
L 84.026508 242.918125 
L 85.563553 241.653742 
L 87.100598 242.918125 
L 88.637642 242.211033 
L 90.174687 242.918125 
L 91.711732 241.165416 
L 93.248777 242.918125 
L 94.785821 242.410148 
L 96.322866 242.918125 
L 97.859911 242.541409 
L 99.396956 242.918125 
L 100.934001 242.624273 
L 102.471045 242.918125 
L 104.00809 242.68785 
L 105.545135 242.918125 
L 107.08218 242.629287 
L 108.619224 242.54005 
L 110.156269 242.843295 
L 111.693314 242.918125 
L 113.230359 242.792749 
L 114.767404 242.918125 
L 116.304448 242.790516 
L 117.841493 242.918125 
L 119.378538 242.79618 
L 120.915583 242.918125 
L 122.452627 242.803193 
L 123.989672 242.918125 
L 125.526717 242.809858 
L 127.063762 242.918125 
L 128.600807 242.815664 
L 130.137851 242.918125 
L 131.674896 242.820458 
L 133.211941 242.918125 
L 134.748986 242.824179 
L 136.28603 242.918125 
L 137.823075 242.826765 
L 139.36012 242.918125 
L 140.897165 242.828085 
L 142.43421 242.918125 
L 143.971254 242.827879 
L 145.508299 242.918125 
L 147.045344 242.825642 
L 148.582389 242.918125 
L 150.119433 242.82041 
L 151.656478 242.918125 
L 153.193523 242.810309 
L 154.730568 242.918125 
L 156.267613 242.791826 
L 157.804657 242.918125 
L 159.341702 242.765334 
L 160.878747 242.859905 
L 162.415792 242.231887 
L 163.952837 242.918125 
L 165.489881 240.535492 
L 167.026926 242.918125 
L 168.563971 242.758612 
L 170.101016 242.429742 
L 171.63806 242.90745 
L 173.175105 241.92735 
L 174.71215 242.624502 
L 176.249195 242.755562 
L 177.78624 242.424865 
L 179.323284 242.918125 
L 180.860329 242.813971 
L 182.397374 242.918125 
L 183.934419 242.83054 
L 185.471463 242.918125 
L 187.008508 242.833899 
L 188.545553 242.918125 
L 190.082598 242.832926 
L 191.619643 242.918125 
L 193.156687 242.828604 
L 194.693732 242.918125 
L 196.230777 242.818861 
L 197.767822 242.918125 
L 199.304866 242.792685 
L 200.841911 242.918125 
L 202.378956 242.376411 
L 203.916001 242.810385 
L 213.138269 242.918125 
L 214.675314 242.805496 
L 216.212359 242.918125 
L 217.749404 242.797777 
L 219.286449 242.918125 
L 220.823493 242.788735 
L 222.360538 242.918125 
L 223.897583 242.78013 
L 225.434628 242.918125 
L 226.971673 242.787666 
L 228.508717 242.80072 
L 230.045762 242.375375 
L 231.582807 242.918125 
L 233.119852 242.700747 
L 234.656896 242.918125 
L 237.730986 242.458177 
L 239.268031 242.076927 
L 240.805076 242.918125 
L 242.34212 241.799543 
L 243.879165 242.813252 
L 245.41621 241.895615 
L 246.953255 242.910088 
L 248.490299 241.977026 
L 250.027344 242.918125 
L 251.564389 241.351212 
L 253.101434 242.79336 
L 254.638479 241.998226 
L 256.175523 242.918125 
L 257.712568 241.656546 
L 259.249613 242.918125 
L 260.786658 240.821058 
L 262.323702 242.918125 
L 263.860747 238.9572 
L 265.397792 242.918125 
L 265.397792 242.918125 
" style="fill:none;stroke:#1f77b4;stroke-linecap:square;stroke-width:1.5;"/>
   </g>
   <g id="line2d_18">
    <path clip-path="url(#pc9cb6004e2)" d="M 204.449682 242.916262 
L 208.798929 242.815943 
L 211.517209 242.761627 
L 216.410112 242.801303 
L 220.759359 242.596658 
L 225.108606 242.283039 
L 226.195917 241.943825 
L 227.283229 241.337722 
L 228.370541 240.446218 
L 230.545164 238.145678 
L 232.176132 236.531914 
L 233.807099 234.92051 
L 234.894411 233.427149 
L 235.981723 231.487185 
L 237.612691 227.979433 
L 239.243658 223.781862 
L 240.874626 218.786433 
L 244.136561 208.574061 
L 245.223873 205.49928 
L 246.311184 203.163072 
L 246.85484 202.444585 
L 247.398496 202.050848 
L 247.942152 201.949979 
L 248.485808 202.088125 
L 249.029464 202.408367 
L 250.116776 203.395806 
L 251.747743 204.961782 
L 252.291399 205.289636 
L 253.378711 205.566017 
L 254.466023 205.683891 
L 255.009678 205.857236 
L 255.553334 206.173741 
L 256.09699 206.660538 
L 256.640646 207.34163 
L 257.184302 208.253735 
L 257.727958 209.451631 
L 258.271614 210.996637 
L 259.358925 215.250703 
L 260.989893 223.600961 
L 262.077205 228.982824 
L 263.164516 233.459132 
L 264.251828 237.009646 
L 265.33914 239.643146 
L 265.882796 240.594347 
L 266.426452 241.30981 
L 266.970108 241.81928 
L 268.057419 242.398069 
L 269.144731 242.665104 
L 271.319355 242.878399 
L 273.493978 242.915706 
L 273.493978 242.915706 
" style="fill:none;stroke:#1f77b4;stroke-dasharray:1.5,2.475;stroke-dashoffset:0;stroke-width:1.5;"/>
   </g>
   <g id="line2d_19">
    <path clip-path="url(#pc9cb6004e2)" d="M 68.896564 220.391836 
L 70.438062 242.918125 
L 71.97956 32.822887 
L 73.521058 84.790891 
L 75.062555 201.590627 
L 76.604053 228.447399 
L 78.145551 234.981135 
L 79.687049 242.071862 
L 81.228546 239.604051 
L 82.770044 242.918125 
L 84.311542 240.949177 
L 85.85304 242.918125 
L 87.394537 241.508319 
L 88.936035 242.918125 
L 90.477533 241.779239 
L 92.019031 242.918125 
L 93.560529 242.000648 
L 95.102026 242.918125 
L 96.643524 242.172079 
L 98.185022 242.918125 
L 99.72652 242.263335 
L 101.268017 242.918125 
L 102.809515 242.284372 
L 104.351013 242.918125 
L 105.892511 242.364982 
L 107.434008 242.918125 
L 108.975506 242.401346 
L 110.517004 242.918125 
L 112.058502 242.490161 
L 113.599999 242.918125 
L 115.141497 242.502987 
L 116.682995 242.918125 
L 118.224493 242.541034 
L 119.765991 242.918125 
L 121.307488 242.543387 
L 122.848986 242.918125 
L 124.390484 242.529413 
L 125.931982 242.918125 
L 127.473479 242.508998 
L 129.014977 242.918125 
L 130.556475 242.483768 
L 132.097973 242.918125 
L 133.63947 242.447424 
L 135.180968 242.918125 
L 136.722466 242.381308 
L 138.263964 242.918125 
L 139.805461 242.263953 
L 141.346959 242.918125 
L 142.888457 242.035411 
L 144.429955 242.918125 
L 145.971453 241.609487 
L 147.51295 242.918125 
L 149.054448 240.562583 
L 150.595946 242.918125 
L 152.137444 228.9775 
L 153.678941 242.918125 
L 155.220439 241.312311 
L 156.761937 240.103609 
L 158.303435 232.209536 
L 159.844932 242.918125 
L 161.38643 235.17069 
L 162.927928 240.986528 
L 164.469426 241.545916 
L 166.010923 239.777457 
L 167.552421 242.573712 
L 169.093919 241.654026 
L 170.635417 242.296041 
L 172.176915 242.729705 
L 173.718412 242.342996 
L 175.25991 242.918125 
L 176.801408 242.567982 
L 178.342906 242.918125 
L 179.884403 242.639489 
L 181.425901 242.918125 
L 182.967399 242.668019 
L 184.508897 242.918125 
L 186.050394 242.677257 
L 187.591892 242.918125 
L 189.13339 242.68491 
L 190.674888 242.918125 
L 192.216386 242.683897 
L 193.757883 242.918125 
L 195.299381 242.683318 
L 196.840879 242.918125 
L 198.382377 242.665152 
L 199.923874 242.918125 
L 201.465372 242.671542 
L 203.00687 242.918125 
L 204.548368 242.646076 
L 206.089865 242.918125 
L 207.631363 242.654623 
L 209.172861 242.918125 
L 210.714359 242.636697 
L 212.255856 242.918125 
L 213.797354 242.617119 
L 215.338852 242.918125 
L 216.88035 242.552881 
L 218.421848 242.918125 
L 219.963345 242.490923 
L 221.504843 242.918125 
L 223.046341 242.37527 
L 224.587839 242.918125 
L 226.129336 242.317156 
L 227.670834 242.918125 
L 229.212332 242.193444 
L 230.75383 242.918125 
L 232.295327 242.033574 
L 233.836825 242.918125 
L 235.378323 241.908895 
L 236.919821 242.918125 
L 238.461318 241.768826 
L 240.002816 242.918125 
L 241.544314 241.605775 
L 243.085812 242.918125 
L 244.62731 241.377213 
L 246.168807 242.918125 
L 247.710305 241.290649 
L 249.251803 242.918125 
L 250.793301 240.910837 
L 252.334798 242.918125 
L 253.876296 240.440456 
L 255.417794 242.918125 
L 256.959292 239.489282 
L 258.500789 242.918125 
L 260.042287 237.623218 
L 261.583785 242.918125 
L 263.125283 233.436902 
L 264.66678 242.918125 
L 264.66678 242.918125 
" style="fill:none;stroke:#ff7f0e;stroke-linecap:square;stroke-width:1.5;"/>
   </g>
   <g id="line2d_20">
    <path clip-path="url(#pc9cb6004e2)" d="M 68.290141 242.918125 
L 130.505818 242.911429 
L 151.244377 242.889048 
L 157.625472 242.766114 
L 159.220745 242.258105 
L 160.816019 242.764428 
L 164.006567 242.786918 
L 168.792388 242.292927 
L 170.387662 242.757102 
L 173.578209 242.857777 
L 186.340399 242.813268 
L 203.888411 242.518258 
L 208.674232 242.154609 
L 211.86478 241.703418 
L 215.055327 240.792739 
L 218.245875 239.172279 
L 219.841148 237.802437 
L 223.031696 233.763379 
L 224.62697 231.056041 
L 227.817517 225.186951 
L 229.412791 221.859501 
L 231.008065 219.254274 
L 234.198612 214.995711 
L 235.793886 213.207712 
L 238.984434 210.872358 
L 240.579707 209.297344 
L 242.174981 209.195971 
L 243.770255 210.186904 
L 245.365529 212.665278 
L 246.960802 215.927582 
L 250.15135 221.455392 
L 251.746624 223.703412 
L 254.937171 228.488256 
L 256.532445 231.409324 
L 259.722993 238.02176 
L 261.318266 240.602834 
L 262.91354 242.026389 
L 264.508814 242.678121 
L 266.104088 242.87628 
L 270.889909 242.916713 
L 270.889909 242.916713 
" style="fill:none;stroke:#ff7f0e;stroke-dasharray:1.5,2.475;stroke-dashoffset:0;stroke-width:1.5;"/>
   </g>
   <g id="line2d_21">
    <path clip-path="url(#pc9cb6004e2)" d="M 69.603889 233.15169 
L 71.14463 242.918125 
L 72.685372 129.601004 
L 74.226113 145.049759 
L 75.766855 194.638216 
L 77.307596 224.387804 
L 78.848338 229.715575 
L 80.389079 237.691121 
L 81.92982 238.684139 
L 83.470562 242.377178 
L 85.011303 241.062606 
L 86.552045 242.918125 
L 88.092786 241.392591 
L 89.633528 242.918125 
L 91.174269 242.140815 
L 92.715011 242.918125 
L 94.255752 242.478656 
L 95.796493 242.918125 
L 97.337235 242.649476 
L 98.877976 242.918125 
L 100.418718 242.737625 
L 101.959459 242.918125 
L 103.500201 242.718002 
L 105.040942 242.918125 
L 106.581683 242.784171 
L 108.122425 242.864033 
L 109.663166 242.783926 
L 111.203908 242.918125 
L 112.744649 242.716034 
L 114.285391 242.918125 
L 115.826132 242.80756 
L 117.366873 242.918125 
L 118.907615 242.798903 
L 120.448356 242.918125 
L 121.989098 242.802336 
L 123.529839 242.918125 
L 125.070581 242.807247 
L 126.611322 242.918125 
L 128.152063 242.811833 
L 129.692805 242.918125 
L 131.233546 242.815504 
L 132.774288 242.918125 
L 134.315029 242.81777 
L 135.855771 242.918125 
L 137.396512 242.816813 
L 138.937254 242.918125 
L 140.477995 242.722073 
L 142.018736 242.824211 
L 143.559478 242.745258 
L 145.100219 242.918125 
L 146.640961 242.819454 
L 148.181702 242.918125 
L 149.722444 242.819497 
L 151.263185 242.918125 
L 152.803926 242.711076 
L 154.344668 242.888691 
L 155.885409 242.886782 
L 157.426151 240.949677 
L 158.966892 242.238238 
L 160.507634 242.918125 
L 162.048375 239.557598 
L 163.589116 242.918125 
L 165.129858 241.358151 
L 166.670599 242.918125 
L 168.211341 241.172673 
L 169.752082 242.57541 
L 174.374307 242.382481 
L 175.915048 242.706726 
L 177.455789 242.48232 
L 178.996531 242.918125 
L 180.537272 242.811303 
L 182.078014 242.884029 
L 183.618755 242.765576 
L 185.159497 242.918125 
L 186.700238 242.819911 
L 188.240979 242.918125 
L 189.781721 242.823643 
L 191.322462 242.918125 
L 192.863204 242.824857 
L 194.403945 242.918125 
L 195.944687 242.824486 
L 197.485428 242.918125 
L 199.026169 242.825433 
L 200.566911 242.918125 
L 202.107652 242.682352 
L 203.648394 242.918125 
L 205.189135 242.803267 
L 206.729877 242.918125 
L 208.270618 242.800919 
L 209.81136 242.918125 
L 211.352101 242.686794 
L 212.892842 242.918125 
L 214.433584 242.809739 
L 215.974325 242.918125 
L 217.515067 242.796628 
L 219.055808 242.918125 
L 220.59655 242.783518 
L 222.137291 242.918125 
L 223.678032 242.661175 
L 225.218774 242.918125 
L 229.840998 242.671093 
L 231.38174 242.918125 
L 232.922481 242.575228 
L 234.463222 242.918125 
L 237.544705 242.333319 
L 239.085447 241.471796 
L 240.626188 241.797492 
L 242.16693 241.548358 
L 243.707671 242.216735 
L 245.248413 241.600284 
L 246.789154 242.061509 
L 248.329895 241.808138 
L 251.411378 241.972953 
L 252.95212 242.419326 
L 254.492861 241.406936 
L 256.033603 242.918125 
L 257.574344 241.410261 
L 259.115085 242.918125 
L 260.655827 240.465181 
L 262.196568 242.918125 
L 263.73731 238.644105 
L 265.278051 242.918125 
L 265.278051 242.918125 
" style="fill:none;stroke:#2ca02c;stroke-linecap:square;stroke-width:1.5;"/>
   </g>
   <g id="line2d_22">
    <path clip-path="url(#pc9cb6004e2)" d="M 183.639593 242.917877 
L 210.013249 242.801285 
L 213.483467 242.702066 
L 215.565598 242.654115 
L 219.035816 242.310489 
L 221.117946 241.828245 
L 223.200077 241.600586 
L 223.894121 241.390898 
L 225.282208 240.561147 
L 227.364339 238.933003 
L 228.752426 237.388932 
L 230.140513 235.612286 
L 231.5286 233.20378 
L 232.916687 230.083205 
L 234.304774 226.319349 
L 239.16308 211.608802 
L 241.24521 206.278802 
L 241.939254 204.894038 
L 242.633297 203.982362 
L 243.327341 203.573624 
L 244.021385 203.564113 
L 245.409472 204.07197 
L 246.103515 204.530443 
L 246.797559 205.315985 
L 248.87969 208.90797 
L 249.573733 209.631115 
L 250.267777 209.950518 
L 252.349908 210.266059 
L 253.043951 210.682061 
L 253.737995 211.357261 
L 254.432038 212.290986 
L 255.126082 213.508651 
L 255.820125 215.06203 
L 256.514169 216.99989 
L 257.902256 221.928703 
L 261.372474 235.735268 
L 262.066518 237.733135 
L 262.760561 239.287673 
L 263.454605 240.465665 
L 264.148648 241.347783 
L 264.842692 241.982461 
L 265.536736 242.4002 
L 266.230779 242.643448 
L 267.618866 242.82993 
L 271.089084 242.916683 
L 271.783128 242.91778 
L 271.783128 242.91778 
" style="fill:none;stroke:#2ca02c;stroke-dasharray:1.5,2.475;stroke-dashoffset:0;stroke-width:1.5;"/>
   </g>
   <g id="line2d_23">
    <path clip-path="url(#pc9cb6004e2)" d="M 70.721621 236.916324 
L 72.209876 242.918125 
L 73.69813 185.036234 
L 75.186384 193.213794 
L 76.674638 226.412096 
L 78.162892 235.860818 
L 79.651146 239.375865 
L 81.1394 241.502086 
L 82.627654 241.432868 
L 84.115908 242.670949 
L 85.604162 242.21854 
L 87.092416 242.918125 
L 88.58067 242.380218 
L 90.068924 242.918125 
L 91.557178 242.506704 
L 93.045432 242.918125 
L 94.533686 242.58784 
L 96.02194 242.918125 
L 97.510194 242.664575 
L 98.998448 242.918125 
L 100.486702 242.691562 
L 101.974956 242.918125 
L 103.46321 242.681041 
L 104.951464 242.918125 
L 106.439718 242.681152 
L 107.927972 242.918125 
L 109.416226 242.749717 
L 110.90448 242.918125 
L 112.392734 242.785813 
L 113.880988 242.886625 
L 115.369242 242.801376 
L 116.857496 242.918125 
L 118.34575 242.819129 
L 119.834005 242.918125 
L 121.322259 242.836781 
L 122.810513 242.91031 
L 124.298767 242.812082 
L 125.787021 242.918125 
L 127.275275 242.798606 
L 128.763529 242.918125 
L 130.251783 242.826295 
L 131.740037 242.918125 
L 133.228291 242.837254 
L 134.716545 242.918125 
L 137.693053 242.892181 
L 145.134323 242.854286 
L 152.575593 242.898445 
L 154.063847 242.75024 
L 155.552101 242.918125 
L 157.040355 240.546519 
L 158.528609 240.36484 
L 160.016863 242.918125 
L 161.505117 236.065129 
L 162.993371 240.531997 
L 164.481625 242.269938 
L 165.969879 238.345594 
L 167.458134 242.918125 
L 168.946388 240.34086 
L 170.434642 242.918125 
L 171.922896 241.902974 
L 173.41115 242.651592 
L 174.899404 242.513971 
L 176.387658 242.908763 
L 177.875912 242.710337 
L 179.364166 242.918125 
L 180.85242 242.770822 
L 182.340674 242.918125 
L 183.828928 242.812743 
L 185.317182 242.918125 
L 186.805436 242.822857 
L 188.29369 242.918125 
L 189.781944 242.836127 
L 191.270198 242.918125 
L 192.758452 242.83086 
L 194.246706 242.918125 
L 195.73496 242.824511 
L 197.223214 242.918125 
L 198.711468 242.856434 
L 200.199722 242.918125 
L 201.687976 242.856996 
L 203.17623 242.918125 
L 204.664484 242.844676 
L 206.152738 242.918125 
L 207.640992 242.854497 
L 209.129246 242.918125 
L 210.6175 242.846852 
L 212.105754 242.918125 
L 213.594008 242.829314 
L 215.082263 242.918125 
L 216.570517 242.772137 
L 218.058771 242.918125 
L 219.547025 242.797955 
L 221.035279 242.918125 
L 222.523533 242.808034 
L 224.011787 242.918125 
L 225.500041 242.783799 
L 226.988295 242.918125 
L 228.476549 242.781323 
L 229.964803 242.918125 
L 231.453057 242.767593 
L 232.941311 242.918125 
L 234.429565 242.747082 
L 235.917819 242.918125 
L 237.406073 242.707239 
L 238.894327 242.918125 
L 240.382581 242.630456 
L 241.870835 242.918125 
L 243.359089 242.583499 
L 244.847343 242.918125 
L 246.335597 242.476728 
L 247.823851 242.918125 
L 249.312105 242.298733 
L 250.800359 242.918125 
L 252.288613 242.023405 
L 253.776867 242.918125 
L 255.265121 241.531065 
L 256.753375 242.918125 
L 258.241629 240.416966 
L 259.729883 242.918125 
L 259.729883 242.918125 
" style="fill:none;stroke:#d62728;stroke-linecap:square;stroke-width:1.5;"/>
   </g>
   <g id="line2d_24">
    <path clip-path="url(#pc9cb6004e2)" d="M 54.885644 242.911538 
L 61.880538 242.797621 
L 67.126708 242.423224 
L 72.372878 241.975813 
L 75.870325 241.929054 
L 81.116496 242.228466 
L 88.11139 242.596284 
L 96.855007 242.768388 
L 130.080753 242.713483 
L 142.321817 242.506446 
L 152.814157 242.126082 
L 159.809051 241.939102 
L 165.055222 241.564496 
L 170.301392 241.251414 
L 177.296286 241.129967 
L 180.793733 240.78563 
L 184.29118 240.126417 
L 187.788627 239.226784 
L 191.286073 238.138553 
L 194.78352 236.760987 
L 198.280967 234.978943 
L 207.024585 230.028098 
L 208.773308 229.264914 
L 210.522031 228.649165 
L 212.270755 228.194526 
L 214.019478 227.896214 
L 217.516925 227.652579 
L 224.511819 227.634838 
L 228.009266 227.874505 
L 229.757989 228.166412 
L 233.255436 229.127361 
L 240.25033 231.461195 
L 245.496501 232.762965 
L 248.993947 233.694894 
L 250.742671 234.331559 
L 252.491394 235.140511 
L 254.240118 236.12624 
L 261.235012 240.547997 
L 262.983735 241.353099 
L 264.732459 241.951228 
L 266.481182 242.360213 
L 269.978629 242.767779 
L 275.224799 242.905477 
L 276.973523 242.911862 
L 276.973523 242.911862 
" style="fill:none;stroke:#d62728;stroke-dasharray:1.5,2.475;stroke-dashoffset:0;stroke-width:1.5;"/>
   </g>
   <g id="patch_3">
    <path d="M 43.78125 242.918125 
L 43.78125 22.318125 
" style="fill:none;stroke:#000000;stroke-linecap:square;stroke-linejoin:miter;stroke-width:0.8;"/>
   </g>
   <g id="patch_4">
    <path d="M 43.78125 242.918125 
L 288.077917 242.918125 
" style="fill:none;stroke:#000000;stroke-linecap:square;stroke-linejoin:miter;stroke-width:0.8;"/>
   </g>
   <g id="text_18">
    <!-- 1 - 30 -->
    <defs>
     <path d="M 4.890625 31.390625 
L 31.203125 31.390625 
L 31.203125 23.390625 
L 4.890625 23.390625 
z
" id="DejaVuSans-45"/>
    </defs>
    <g transform="translate(148.498646 16.318125)scale(0.12 -0.12)">
     <use xlink:href="#DejaVuSans-49"/>
     <use x="63.623047" xlink:href="#DejaVuSans-32"/>
     <use x="95.410156" xlink:href="#DejaVuSans-45"/>
     <use x="131.494141" xlink:href="#DejaVuSans-32"/>
     <use x="163.28125" xlink:href="#DejaVuSans-51"/>
     <use x="226.904297" xlink:href="#DejaVuSans-48"/>
    </g>
   </g>
   <g id="legend_1">
    <g id="patch_5">
     <path d="M 142.543542 89.030625 
L 281.077917 89.030625 
Q 283.077917 89.030625 283.077917 87.030625 
L 283.077917 29.318125 
Q 283.077917 27.318125 281.077917 27.318125 
L 142.543542 27.318125 
Q 140.543542 27.318125 140.543542 29.318125 
L 140.543542 87.030625 
Q 140.543542 89.030625 142.543542 89.030625 
z
" style="fill:#ffffff;opacity:0.8;stroke:#cccccc;stroke-linejoin:miter;"/>
    </g>
    <g id="line2d_25">
     <path d="M 144.543542 35.416562 
L 164.543542 35.416562 
" style="fill:none;stroke:#1f77b4;stroke-linecap:square;stroke-width:1.5;"/>
    </g>
    <g id="line2d_26"/>
    <g id="text_19">
     <!-- varlociraptor+delly -->
     <defs>
      <path d="M 2.984375 54.6875 
L 12.5 54.6875 
L 29.59375 8.796875 
L 46.6875 54.6875 
L 56.203125 54.6875 
L 35.6875 0 
L 23.484375 0 
z
" id="DejaVuSans-118"/>
      <path d="M 9.421875 75.984375 
L 18.40625 75.984375 
L 18.40625 0 
L 9.421875 0 
z
" id="DejaVuSans-108"/>
      <path d="M 18.109375 8.203125 
L 18.109375 -20.796875 
L 9.078125 -20.796875 
L 9.078125 54.6875 
L 18.109375 54.6875 
L 18.109375 46.390625 
Q 20.953125 51.265625 25.265625 53.625 
Q 29.59375 56 35.59375 56 
Q 45.5625 56 51.78125 48.09375 
Q 58.015625 40.1875 58.015625 27.296875 
Q 58.015625 14.40625 51.78125 6.484375 
Q 45.5625 -1.421875 35.59375 -1.421875 
Q 29.59375 -1.421875 25.265625 0.953125 
Q 20.953125 3.328125 18.109375 8.203125 
z
M 48.6875 27.296875 
Q 48.6875 37.203125 44.609375 42.84375 
Q 40.53125 48.484375 33.40625 48.484375 
Q 26.265625 48.484375 22.1875 42.84375 
Q 18.109375 37.203125 18.109375 27.296875 
Q 18.109375 17.390625 22.1875 11.75 
Q 26.265625 6.109375 33.40625 6.109375 
Q 40.53125 6.109375 44.609375 11.75 
Q 48.6875 17.390625 48.6875 27.296875 
z
" id="DejaVuSans-112"/>
     </defs>
     <g transform="translate(172.543542 38.916562)scale(0.1 -0.1)">
      <use xlink:href="#DejaVuSans-118"/>
      <use x="59.179688" xlink:href="#DejaVuSans-97"/>
      <use x="120.458984" xlink:href="#DejaVuSans-114"/>
      <use x="161.572266" xlink:href="#DejaVuSans-108"/>
      <use x="189.355469" xlink:href="#DejaVuSans-111"/>
      <use x="250.537109" xlink:href="#DejaVuSans-99"/>
      <use x="305.517578" xlink:href="#DejaVuSans-105"/>
      <use x="333.300781" xlink:href="#DejaVuSans-114"/>
      <use x="374.414062" xlink:href="#DejaVuSans-97"/>
      <use x="435.693359" xlink:href="#DejaVuSans-112"/>
      <use x="499.169922" xlink:href="#DejaVuSans-116"/>
      <use x="538.378906" xlink:href="#DejaVuSans-111"/>
      <use x="599.560547" xlink:href="#DejaVuSans-114"/>
      <use x="640.673828" xlink:href="#DejaVuSans-43"/>
      <use x="724.462891" xlink:href="#DejaVuSans-100"/>
      <use x="787.939453" xlink:href="#DejaVuSans-101"/>
      <use x="849.462891" xlink:href="#DejaVuSans-108"/>
      <use x="877.246094" xlink:href="#DejaVuSans-108"/>
      <use x="905.029297" xlink:href="#DejaVuSans-121"/>
     </g>
    </g>
    <g id="line2d_27">
     <path d="M 144.543542 50.094687 
L 164.543542 50.094687 
" style="fill:none;stroke:#ff7f0e;stroke-linecap:square;stroke-width:1.5;"/>
    </g>
    <g id="line2d_28"/>
    <g id="text_20">
     <!-- varlociraptor+lancet -->
     <g transform="translate(172.543542 53.594687)scale(0.1 -0.1)">
      <use xlink:href="#DejaVuSans-118"/>
      <use x="59.179688" xlink:href="#DejaVuSans-97"/>
      <use x="120.458984" xlink:href="#DejaVuSans-114"/>
      <use x="161.572266" xlink:href="#DejaVuSans-108"/>
      <use x="189.355469" xlink:href="#DejaVuSans-111"/>
      <use x="250.537109" xlink:href="#DejaVuSans-99"/>
      <use x="305.517578" xlink:href="#DejaVuSans-105"/>
      <use x="333.300781" xlink:href="#DejaVuSans-114"/>
      <use x="374.414062" xlink:href="#DejaVuSans-97"/>
      <use x="435.693359" xlink:href="#DejaVuSans-112"/>
      <use x="499.169922" xlink:href="#DejaVuSans-116"/>
      <use x="538.378906" xlink:href="#DejaVuSans-111"/>
      <use x="599.560547" xlink:href="#DejaVuSans-114"/>
      <use x="640.673828" xlink:href="#DejaVuSans-43"/>
      <use x="724.462891" xlink:href="#DejaVuSans-108"/>
      <use x="752.246094" xlink:href="#DejaVuSans-97"/>
      <use x="813.525391" xlink:href="#DejaVuSans-110"/>
      <use x="876.904297" xlink:href="#DejaVuSans-99"/>
      <use x="931.884766" xlink:href="#DejaVuSans-101"/>
      <use x="993.408203" xlink:href="#DejaVuSans-116"/>
     </g>
    </g>
    <g id="line2d_29">
     <path d="M 144.543542 64.772812 
L 164.543542 64.772812 
" style="fill:none;stroke:#2ca02c;stroke-linecap:square;stroke-width:1.5;"/>
    </g>
    <g id="line2d_30"/>
    <g id="text_21">
     <!-- varlociraptor+manta -->
     <g transform="translate(172.543542 68.272812)scale(0.1 -0.1)">
      <use xlink:href="#DejaVuSans-118"/>
      <use x="59.179688" xlink:href="#DejaVuSans-97"/>
      <use x="120.458984" xlink:href="#DejaVuSans-114"/>
      <use x="161.572266" xlink:href="#DejaVuSans-108"/>
      <use x="189.355469" xlink:href="#DejaVuSans-111"/>
      <use x="250.537109" xlink:href="#DejaVuSans-99"/>
      <use x="305.517578" xlink:href="#DejaVuSans-105"/>
      <use x="333.300781" xlink:href="#DejaVuSans-114"/>
      <use x="374.414062" xlink:href="#DejaVuSans-97"/>
      <use x="435.693359" xlink:href="#DejaVuSans-112"/>
      <use x="499.169922" xlink:href="#DejaVuSans-116"/>
      <use x="538.378906" xlink:href="#DejaVuSans-111"/>
      <use x="599.560547" xlink:href="#DejaVuSans-114"/>
      <use x="640.673828" xlink:href="#DejaVuSans-43"/>
      <use x="724.462891" xlink:href="#DejaVuSans-109"/>
      <use x="821.875" xlink:href="#DejaVuSans-97"/>
      <use x="883.154297" xlink:href="#DejaVuSans-110"/>
      <use x="946.533203" xlink:href="#DejaVuSans-116"/>
      <use x="985.742188" xlink:href="#DejaVuSans-97"/>
     </g>
    </g>
    <g id="line2d_31">
     <path d="M 144.543542 79.450938 
L 164.543542 79.450938 
" style="fill:none;stroke:#d62728;stroke-linecap:square;stroke-width:1.5;"/>
    </g>
    <g id="line2d_32"/>
    <g id="text_22">
     <!-- varlociraptor+strelka -->
     <defs>
      <path d="M 9.078125 75.984375 
L 18.109375 75.984375 
L 18.109375 31.109375 
L 44.921875 54.6875 
L 56.390625 54.6875 
L 27.390625 29.109375 
L 57.625 0 
L 45.90625 0 
L 18.109375 26.703125 
L 18.109375 0 
L 9.078125 0 
z
" id="DejaVuSans-107"/>
     </defs>
     <g transform="translate(172.543542 82.950938)scale(0.1 -0.1)">
      <use xlink:href="#DejaVuSans-118"/>
      <use x="59.179688" xlink:href="#DejaVuSans-97"/>
      <use x="120.458984" xlink:href="#DejaVuSans-114"/>
      <use x="161.572266" xlink:href="#DejaVuSans-108"/>
      <use x="189.355469" xlink:href="#DejaVuSans-111"/>
      <use x="250.537109" xlink:href="#DejaVuSans-99"/>
      <use x="305.517578" xlink:href="#DejaVuSans-105"/>
      <use x="333.300781" xlink:href="#DejaVuSans-114"/>
      <use x="374.414062" xlink:href="#DejaVuSans-97"/>
      <use x="435.693359" xlink:href="#DejaVuSans-112"/>
      <use x="499.169922" xlink:href="#DejaVuSans-116"/>
      <use x="538.378906" xlink:href="#DejaVuSans-111"/>
      <use x="599.560547" xlink:href="#DejaVuSans-114"/>
      <use x="640.673828" xlink:href="#DejaVuSans-43"/>
      <use x="724.462891" xlink:href="#DejaVuSans-115"/>
      <use x="776.5625" xlink:href="#DejaVuSans-116"/>
      <use x="815.771484" xlink:href="#DejaVuSans-114"/>
      <use x="856.853516" xlink:href="#DejaVuSans-101"/>
      <use x="918.376953" xlink:href="#DejaVuSans-108"/>
      <use x="946.160156" xlink:href="#DejaVuSans-107"/>
      <use x="1004.054688" xlink:href="#DejaVuSans-97"/>
     </g>
    </g>
   </g>
  </g>
  <g id="axes_2">
   <g id="patch_6">
    <path d="M 324.327917 242.918125 
L 568.624583 242.918125 
L 568.624583 22.318125 
L 324.327917 22.318125 
z
" style="fill:#ffffff;"/>
   </g>
   <g id="matplotlib.axis_3">
    <g id="xtick_8">
     <g id="line2d_33">
      <g>
       <use style="stroke:#000000;stroke-width:0.8;" x="356.93203" xlink:href="#m2eb62651ed" y="242.918125"/>
      </g>
     </g>
     <g id="text_23">
      <!-- 0.08 -->
      <g transform="translate(345.799217 257.516563)scale(0.1 -0.1)">
       <use xlink:href="#DejaVuSans-48"/>
       <use x="63.623047" xlink:href="#DejaVuSans-46"/>
       <use x="95.410156" xlink:href="#DejaVuSans-48"/>
       <use x="159.033203" xlink:href="#DejaVuSans-56"/>
      </g>
     </g>
    </g>
    <g id="xtick_9">
     <g id="line2d_34">
      <g>
       <use style="stroke:#000000;stroke-width:0.8;" x="391.846752" xlink:href="#m2eb62651ed" y="242.918125"/>
      </g>
     </g>
     <g id="text_24">
      <!-- 1 -->
      <g transform="translate(388.665502 257.516563)scale(0.1 -0.1)">
       <use xlink:href="#DejaVuSans-49"/>
      </g>
     </g>
    </g>
    <g id="xtick_10">
     <g id="line2d_35">
      <g>
       <use style="stroke:#000000;stroke-width:0.8;" x="426.761474" xlink:href="#m2eb62651ed" y="242.918125"/>
      </g>
     </g>
     <g id="text_25">
      <!-- 1e+01 -->
      <g transform="translate(409.951318 257.516563)scale(0.1 -0.1)">
       <use xlink:href="#DejaVuSans-49"/>
       <use x="63.623047" xlink:href="#DejaVuSans-101"/>
       <use x="125.146484" xlink:href="#DejaVuSans-43"/>
       <use x="208.935547" xlink:href="#DejaVuSans-48"/>
       <use x="272.558594" xlink:href="#DejaVuSans-49"/>
      </g>
     </g>
    </g>
    <g id="xtick_11">
     <g id="line2d_36">
      <g>
       <use style="stroke:#000000;stroke-width:0.8;" x="461.676196" xlink:href="#m2eb62651ed" y="242.918125"/>
      </g>
     </g>
     <g id="text_26">
      <!-- 1e+02 -->
      <g transform="translate(444.86604 257.516563)scale(0.1 -0.1)">
       <use xlink:href="#DejaVuSans-49"/>
       <use x="63.623047" xlink:href="#DejaVuSans-101"/>
       <use x="125.146484" xlink:href="#DejaVuSans-43"/>
       <use x="208.935547" xlink:href="#DejaVuSans-48"/>
       <use x="272.558594" xlink:href="#DejaVuSans-50"/>
      </g>
     </g>
    </g>
    <g id="xtick_12">
     <g id="line2d_37">
      <g>
       <use style="stroke:#000000;stroke-width:0.8;" x="496.590918" xlink:href="#m2eb62651ed" y="242.918125"/>
      </g>
     </g>
     <g id="text_27">
      <!-- 2e+03 -->
      <g transform="translate(479.780762 257.516563)scale(0.1 -0.1)">
       <use xlink:href="#DejaVuSans-50"/>
       <use x="63.623047" xlink:href="#DejaVuSans-101"/>
       <use x="125.146484" xlink:href="#DejaVuSans-43"/>
       <use x="208.935547" xlink:href="#DejaVuSans-48"/>
       <use x="272.558594" xlink:href="#DejaVuSans-51"/>
      </g>
     </g>
    </g>
    <g id="xtick_13">
     <g id="line2d_38">
      <g>
       <use style="stroke:#000000;stroke-width:0.8;" x="531.50564" xlink:href="#m2eb62651ed" y="242.918125"/>
      </g>
     </g>
     <g id="text_28">
      <!-- 2e+04 -->
      <g transform="translate(514.695484 257.516563)scale(0.1 -0.1)">
       <use xlink:href="#DejaVuSans-50"/>
       <use x="63.623047" xlink:href="#DejaVuSans-101"/>
       <use x="125.146484" xlink:href="#DejaVuSans-43"/>
       <use x="208.935547" xlink:href="#DejaVuSans-48"/>
       <use x="272.558594" xlink:href="#DejaVuSans-52"/>
      </g>
     </g>
    </g>
    <g id="xtick_14">
     <g id="line2d_39">
      <g>
       <use style="stroke:#000000;stroke-width:0.8;" x="566.420362" xlink:href="#m2eb62651ed" y="242.918125"/>
      </g>
     </g>
     <g id="text_29">
      <!-- 3e+05 -->
      <g transform="translate(549.610206 257.516563)scale(0.1 -0.1)">
       <use xlink:href="#DejaVuSans-51"/>
       <use x="63.623047" xlink:href="#DejaVuSans-101"/>
       <use x="125.146484" xlink:href="#DejaVuSans-43"/>
       <use x="208.935547" xlink:href="#DejaVuSans-48"/>
       <use x="272.558594" xlink:href="#DejaVuSans-53"/>
      </g>
     </g>
    </g>
    <g id="text_30">
     <!-- Pr(somatic) (PHRED) -->
     <g transform="translate(395.059063 271.194687)scale(0.1 -0.1)">
      <use xlink:href="#DejaVuSans-80"/>
      <use x="60.287109" xlink:href="#DejaVuSans-114"/>
      <use x="101.400391" xlink:href="#DejaVuSans-40"/>
      <use x="140.414062" xlink:href="#DejaVuSans-115"/>
      <use x="192.513672" xlink:href="#DejaVuSans-111"/>
      <use x="253.695312" xlink:href="#DejaVuSans-109"/>
      <use x="351.107422" xlink:href="#DejaVuSans-97"/>
      <use x="412.386719" xlink:href="#DejaVuSans-116"/>
      <use x="451.595703" xlink:href="#DejaVuSans-105"/>
      <use x="479.378906" xlink:href="#DejaVuSans-99"/>
      <use x="534.359375" xlink:href="#DejaVuSans-41"/>
      <use x="573.373047" xlink:href="#DejaVuSans-32"/>
      <use x="605.160156" xlink:href="#DejaVuSans-40"/>
      <use x="644.173828" xlink:href="#DejaVuSans-80"/>
      <use x="704.476562" xlink:href="#DejaVuSans-72"/>
      <use x="779.671875" xlink:href="#DejaVuSans-82"/>
      <use x="849.154297" xlink:href="#DejaVuSans-69"/>
      <use x="912.337891" xlink:href="#DejaVuSans-68"/>
      <use x="989.339844" xlink:href="#DejaVuSans-41"/>
     </g>
    </g>
   </g>
   <g id="matplotlib.axis_4">
    <g id="ytick_10">
     <g id="line2d_40">
      <g>
       <use style="stroke:#000000;stroke-width:0.8;" x="324.327917" xlink:href="#m536bc21768" y="242.918125"/>
      </g>
     </g>
     <g id="text_31">
      <!-- 0.0 -->
      <g transform="translate(301.424792 246.717344)scale(0.1 -0.1)">
       <use xlink:href="#DejaVuSans-48"/>
       <use x="63.623047" xlink:href="#DejaVuSans-46"/>
       <use x="95.410156" xlink:href="#DejaVuSans-48"/>
      </g>
     </g>
    </g>
    <g id="ytick_11">
     <g id="line2d_41">
      <g>
       <use style="stroke:#000000;stroke-width:0.8;" x="324.327917" xlink:href="#m536bc21768" y="212.531385"/>
      </g>
     </g>
     <g id="text_32">
      <!-- 0.5 -->
      <g transform="translate(301.424792 216.330604)scale(0.1 -0.1)">
       <use xlink:href="#DejaVuSans-48"/>
       <use x="63.623047" xlink:href="#DejaVuSans-46"/>
       <use x="95.410156" xlink:href="#DejaVuSans-53"/>
      </g>
     </g>
    </g>
    <g id="ytick_12">
     <g id="line2d_42">
      <g>
       <use style="stroke:#000000;stroke-width:0.8;" x="324.327917" xlink:href="#m536bc21768" y="182.144646"/>
      </g>
     </g>
     <g id="text_33">
      <!-- 1.0 -->
      <g transform="translate(301.424792 185.943865)scale(0.1 -0.1)">
       <use xlink:href="#DejaVuSans-49"/>
       <use x="63.623047" xlink:href="#DejaVuSans-46"/>
       <use x="95.410156" xlink:href="#DejaVuSans-48"/>
      </g>
     </g>
    </g>
    <g id="ytick_13">
     <g id="line2d_43">
      <g>
       <use style="stroke:#000000;stroke-width:0.8;" x="324.327917" xlink:href="#m536bc21768" y="151.757906"/>
      </g>
     </g>
     <g id="text_34">
      <!-- 1.5 -->
      <g transform="translate(301.424792 155.557125)scale(0.1 -0.1)">
       <use xlink:href="#DejaVuSans-49"/>
       <use x="63.623047" xlink:href="#DejaVuSans-46"/>
       <use x="95.410156" xlink:href="#DejaVuSans-53"/>
      </g>
     </g>
    </g>
    <g id="ytick_14">
     <g id="line2d_44">
      <g>
       <use style="stroke:#000000;stroke-width:0.8;" x="324.327917" xlink:href="#m536bc21768" y="121.371167"/>
      </g>
     </g>
     <g id="text_35">
      <!-- 2.0 -->
      <g transform="translate(301.424792 125.170385)scale(0.1 -0.1)">
       <use xlink:href="#DejaVuSans-50"/>
       <use x="63.623047" xlink:href="#DejaVuSans-46"/>
       <use x="95.410156" xlink:href="#DejaVuSans-48"/>
      </g>
     </g>
    </g>
    <g id="ytick_15">
     <g id="line2d_45">
      <g>
       <use style="stroke:#000000;stroke-width:0.8;" x="324.327917" xlink:href="#m536bc21768" y="90.984427"/>
      </g>
     </g>
     <g id="text_36">
      <!-- 2.5 -->
      <g transform="translate(301.424792 94.783646)scale(0.1 -0.1)">
       <use xlink:href="#DejaVuSans-50"/>
       <use x="63.623047" xlink:href="#DejaVuSans-46"/>
       <use x="95.410156" xlink:href="#DejaVuSans-53"/>
      </g>
     </g>
    </g>
    <g id="ytick_16">
     <g id="line2d_46">
      <g>
       <use style="stroke:#000000;stroke-width:0.8;" x="324.327917" xlink:href="#m536bc21768" y="60.597687"/>
      </g>
     </g>
     <g id="text_37">
      <!-- 3.0 -->
      <g transform="translate(301.424792 64.396906)scale(0.1 -0.1)">
       <use xlink:href="#DejaVuSans-51"/>
       <use x="63.623047" xlink:href="#DejaVuSans-46"/>
       <use x="95.410156" xlink:href="#DejaVuSans-48"/>
      </g>
     </g>
    </g>
    <g id="ytick_17">
     <g id="line2d_47">
      <g>
       <use style="stroke:#000000;stroke-width:0.8;" x="324.327917" xlink:href="#m536bc21768" y="30.210948"/>
      </g>
     </g>
     <g id="text_38">
      <!-- 3.5 -->
      <g transform="translate(301.424792 34.010167)scale(0.1 -0.1)">
       <use xlink:href="#DejaVuSans-51"/>
       <use x="63.623047" xlink:href="#DejaVuSans-46"/>
       <use x="95.410156" xlink:href="#DejaVuSans-53"/>
      </g>
     </g>
    </g>
   </g>
   <g id="line2d_48">
    <path clip-path="url(#p37a90646b3)" d="M 341.429354 231.650946 
L 342.840651 242.918125 
L 344.251949 78.028575 
L 345.663247 117.072629 
L 347.074544 186.276532 
L 348.485842 226.099927 
L 349.897139 230.844838 
L 351.308437 233.457041 
L 352.719735 234.616471 
L 354.131032 239.16567 
L 355.54233 240.785741 
L 356.953627 238.191635 
L 358.364925 241.010558 
L 359.776223 240.168871 
L 361.18752 242.918125 
L 362.598818 242.918125 
L 364.010115 242.720289 
L 365.421413 242.918125 
L 366.832711 242.678224 
L 368.244008 242.918125 
L 369.655306 242.683183 
L 371.066603 242.918125 
L 372.477901 242.700209 
L 373.889199 242.918125 
L 375.300496 242.719424 
L 376.711794 242.918125 
L 378.123091 242.737702 
L 379.534389 242.918125 
L 380.945687 242.754122 
L 382.356984 242.918125 
L 383.768282 242.768545 
L 385.179579 242.918125 
L 386.590877 242.781114 
L 388.002174 242.918125 
L 389.413472 242.792055 
L 390.82477 242.918125 
L 392.236067 242.801611 
L 393.647365 242.918125 
L 395.058662 242.810009 
L 396.46996 242.918125 
L 397.881258 242.817461 
L 399.292555 242.918125 
L 400.703853 242.824162 
L 402.11515 242.918125 
L 403.526448 242.830304 
L 404.937746 242.918125 
L 406.349043 242.83608 
L 407.760341 242.918125 
L 409.171638 242.841714 
L 410.582936 242.918125 
L 411.994234 242.847484 
L 413.405531 242.918125 
L 414.816829 242.853774 
L 416.228126 242.918125 
L 417.639424 242.861174 
L 420.462019 242.870664 
L 424.695912 242.918125 
L 433.163698 242.757703 
L 434.574995 242.33867 
L 435.986293 239.023948 
L 437.39759 242.918125 
L 438.808888 241.298529 
L 440.220186 242.08596 
L 441.631483 242.127713 
L 443.042781 241.33865 
L 444.454078 242.918125 
L 445.865376 242.789957 
L 447.276674 242.918125 
L 448.687971 242.83166 
L 450.099269 242.918125 
L 451.510566 242.838381 
L 452.921864 242.918125 
L 454.333161 242.836849 
L 455.744459 242.918125 
L 457.155757 242.832555 
L 458.567054 242.918125 
L 459.978352 242.826952 
L 461.389649 242.918125 
L 462.800947 242.820412 
L 464.212245 242.918125 
L 465.623542 242.812946 
L 467.03484 242.918125 
L 468.446137 242.804414 
L 469.857435 242.918125 
L 471.268733 242.794586 
L 472.68003 242.918125 
L 474.091328 242.783151 
L 475.502625 242.918125 
L 476.913923 242.769704 
L 478.325221 242.918125 
L 479.736518 242.753716 
L 481.147816 242.918125 
L 482.559113 242.734488 
L 483.970411 242.918125 
L 485.381709 242.71108 
L 486.793006 242.918125 
L 488.204304 242.682195 
L 489.615601 242.918125 
L 491.026899 242.646013 
L 492.438197 242.918125 
L 493.849494 242.599906 
L 495.260792 242.918125 
L 496.672089 242.539976 
L 498.083387 242.918125 
L 499.494685 242.460241 
L 500.905982 242.918125 
L 502.31728 242.351156 
L 503.728577 242.918125 
L 505.139875 242.196747 
L 506.551173 242.918125 
L 507.96247 241.968621 
L 509.373768 242.918125 
L 510.785065 241.612215 
L 512.196363 242.918125 
L 513.607661 241.010479 
L 515.018958 242.918125 
L 516.430256 239.863358 
L 517.841553 242.918125 
L 519.252851 235.216121 
L 520.664148 242.918125 
L 520.664148 242.918125 
" style="fill:none;stroke:#1f77b4;stroke-linecap:square;stroke-width:1.5;"/>
   </g>
   <g id="line2d_49">
    <path clip-path="url(#p37a90646b3)" d="M 431.422439 242.906304 
L 435.394021 242.811517 
L 443.337187 242.364324 
L 451.280352 242.898312 
L 463.1951 242.918125 
L 486.031701 242.850314 
L 490.003283 242.546666 
L 492.98197 242.329034 
L 494.967762 242.371583 
L 499.93224 242.642094 
L 501.918032 242.440122 
L 503.903823 241.977967 
L 507.875406 240.66458 
L 509.861197 239.740939 
L 510.854093 239.012528 
L 511.846988 237.970886 
L 512.839884 236.514348 
L 513.83278 234.561789 
L 514.825675 232.068496 
L 515.818571 229.040568 
L 517.804362 221.724912 
L 519.790154 213.9271 
L 520.783049 210.422407 
L 521.775945 207.453807 
L 522.768841 205.146248 
L 523.761736 203.544313 
L 524.754632 202.619168 
L 525.747528 202.284192 
L 526.740423 202.409511 
L 529.71911 203.784955 
L 530.712006 203.927978 
L 531.704902 203.668044 
L 532.697797 203.007598 
L 534.683589 201.27561 
L 535.676485 200.919524 
L 536.66938 201.432903 
L 537.662276 203.088172 
L 538.655172 205.95156 
L 539.648067 209.860092 
L 543.61965 228.296569 
L 544.612546 231.896797 
L 545.605441 234.808749 
L 546.598337 237.08186 
L 547.591233 238.811619 
L 548.584128 240.102303 
L 549.577024 241.046664 
L 550.56992 241.720463 
L 551.562815 242.185057 
L 553.548607 242.683387 
L 555.534398 242.85853 
L 557.520189 242.903593 
L 557.520189 242.903593 
" style="fill:none;stroke:#1f77b4;stroke-dasharray:1.5,2.475;stroke-dashoffset:0;stroke-width:1.5;"/>
   </g>
   <g id="line2d_50">
    <path clip-path="url(#p37a90646b3)" d="M 341.130378 231.366381 
L 342.65743 242.918125 
L 344.184482 96.819061 
L 345.711534 118.460909 
L 347.238586 196.353752 
L 348.765638 226.932517 
L 350.29269 233.340065 
L 351.819742 237.336996 
L 353.346794 236.809972 
L 354.873846 242.918125 
L 356.400898 237.58684 
L 357.92795 242.918125 
L 359.455002 239.519682 
L 360.982054 242.918125 
L 362.509106 241.89161 
L 364.036158 242.918125 
L 365.56321 242.198419 
L 367.090262 242.918125 
L 368.617314 242.340542 
L 370.144366 242.918125 
L 371.671418 242.390119 
L 373.19847 242.918125 
L 374.725522 241.367748 
L 376.252573 242.918125 
L 377.779625 242.483107 
L 379.306677 242.918125 
L 380.833729 242.598126 
L 382.360781 242.918125 
L 383.887833 242.656856 
L 385.414885 242.918125 
L 386.941937 242.694858 
L 388.468989 242.918125 
L 389.996041 242.722181 
L 391.523093 242.918125 
L 393.050145 242.743003 
L 394.577197 242.918125 
L 396.104249 242.759489 
L 397.631301 242.918125 
L 399.158353 242.772946 
L 400.685405 242.918125 
L 402.212457 242.784279 
L 403.739509 242.918125 
L 405.266561 242.794238 
L 406.793613 242.918125 
L 408.320665 242.80362 
L 409.847717 242.918125 
L 411.374769 242.813568 
L 412.901821 242.918125 
L 414.428873 242.826266 
L 415.955925 242.918125 
L 417.482977 242.847106 
L 420.537081 242.89416 
L 423.591185 242.918125 
L 425.118237 241.197294 
L 426.645289 241.229212 
L 428.17234 242.918125 
L 429.699392 242.918125 
L 431.226444 239.450704 
L 432.753496 242.737522 
L 434.280548 242.918125 
L 435.8076 238.619489 
L 437.334652 242.918125 
L 438.861704 240.555684 
L 440.388756 242.918125 
L 441.915808 239.710907 
L 443.44286 241.471994 
L 444.969912 242.809245 
L 446.496964 242.918125 
L 448.024016 242.755218 
L 449.551068 242.918125 
L 451.07812 242.769108 
L 452.605172 242.918125 
L 454.132224 242.782214 
L 455.659276 242.918125 
L 457.186328 242.790886 
L 458.71338 242.918125 
L 460.240432 242.795952 
L 461.767484 242.918125 
L 463.294536 242.798315 
L 464.821588 242.918125 
L 466.34864 242.798578 
L 467.875692 242.918125 
L 469.402744 242.797097 
L 470.929796 242.918125 
L 472.456848 242.794056 
L 473.9839 242.918125 
L 475.510952 242.789512 
L 477.038004 242.918125 
L 478.565056 242.783423 
L 480.092107 242.918125 
L 481.619159 242.77566 
L 483.146211 242.918125 
L 484.673263 242.765999 
L 486.200315 242.918125 
L 487.727367 242.754116 
L 489.254419 242.918125 
L 490.781471 242.739557 
L 492.308523 242.918125 
L 493.835575 242.721697 
L 495.362627 242.918125 
L 496.889679 242.699684 
L 498.416731 242.918125 
L 499.943783 242.672338 
L 501.470835 242.918125 
L 502.997887 242.638017 
L 504.524939 242.918125 
L 506.051991 242.594388 
L 507.579043 242.918125 
L 509.106095 242.538076 
L 510.633147 242.918125 
L 512.160199 242.463896 
L 513.687251 242.918125 
L 515.214303 242.360659 
L 516.741355 242.918125 
L 518.268407 241.624335 
L 519.795459 242.01621 
L 521.322511 242.194824 
L 522.849563 242.918125 
L 524.376615 241.540362 
L 525.903667 242.918125 
L 527.430719 239.637148 
L 528.957771 242.918125 
L 530.484822 238.503745 
L 532.011874 242.918125 
L 533.538926 235.36942 
L 535.065978 242.918125 
L 535.065978 242.918125 
" style="fill:none;stroke:#ff7f0e;stroke-linecap:square;stroke-width:1.5;"/>
   </g>
   <g id="line2d_51">
    <path clip-path="url(#p37a90646b3)" d="M 335.432311 242.905484 
L 337.154647 242.821892 
L 338.876983 242.434607 
L 340.599319 241.360983 
L 342.321655 239.699405 
L 344.043991 238.646137 
L 345.766327 239.233647 
L 347.488663 240.778388 
L 349.210999 242.021764 
L 350.933335 242.602101 
L 352.655671 242.772222 
L 364.712024 242.918125 
L 423.271449 242.826922 
L 426.716122 242.730849 
L 433.605466 242.810449 
L 437.050138 242.726628 
L 440.49481 242.581422 
L 450.828826 242.917997 
L 483.553211 242.83183 
L 488.72022 242.603868 
L 493.887228 242.132779 
L 497.3319 241.657589 
L 499.054236 241.305963 
L 500.776572 240.697539 
L 502.498908 239.631324 
L 504.221244 238.083432 
L 505.94358 236.141018 
L 507.665916 233.748188 
L 509.388252 230.855318 
L 512.832924 224.55528 
L 514.55526 221.153361 
L 516.277596 217.232603 
L 519.722269 208.29337 
L 521.444605 204.520093 
L 523.166941 201.948554 
L 524.889277 200.589932 
L 526.611613 201.069042 
L 528.333949 203.487291 
L 530.056285 206.4158 
L 531.778621 208.489247 
L 533.500957 210.227304 
L 535.223293 213.364308 
L 536.945629 218.585921 
L 540.390301 230.919435 
L 542.112637 235.648689 
L 543.834973 238.818583 
L 545.557309 240.669323 
L 547.279645 241.740782 
L 549.001981 242.403012 
L 550.724318 242.754811 
L 554.16899 242.912536 
L 554.16899 242.912536 
" style="fill:none;stroke:#ff7f0e;stroke-dasharray:1.5,2.475;stroke-dashoffset:0;stroke-width:1.5;"/>
   </g>
   <g id="line2d_52">
    <path clip-path="url(#p37a90646b3)" d="M 339.741193 242.81794 
L 341.293979 224.180666 
L 342.846766 119.236048 
L 344.399553 51.987341 
L 347.505126 161.689887 
L 349.057913 203.972535 
L 350.6107 212.321268 
L 352.163487 224.403028 
L 353.716273 231.749062 
L 355.26906 236.380218 
L 356.821847 232.792237 
L 358.374634 238.524132 
L 359.92742 240.194738 
L 361.480207 242.662833 
L 364.585781 242.918125 
L 366.138567 242.823374 
L 367.691354 242.918125 
L 369.244141 242.847503 
L 370.796928 242.918125 
L 373.902501 242.918125 
L 378.560861 242.882696 
L 383.219222 242.918125 
L 390.983156 242.899079 
L 400.299876 242.904414 
L 414.274957 242.918125 
L 431.355611 242.910525 
L 454.647413 242.918125 
L 477.939214 242.909582 
L 498.125442 242.918125 
L 508.994949 242.89662 
L 516.758883 242.918125 
L 518.31167 242.875422 
L 519.864457 242.468589 
L 521.417243 240.111978 
L 522.97003 241.079388 
L 524.522817 242.594264 
L 526.075604 242.918125 
L 530.733964 242.843023 
L 532.286751 242.154738 
L 533.839537 239.037989 
L 535.392324 242.220806 
L 536.945111 242.833422 
L 536.945111 242.833422 
" style="fill:none;stroke:#2ca02c;stroke-linecap:square;stroke-width:1.5;"/>
   </g>
   <g id="line2d_53">
    <path clip-path="url(#p37a90646b3)" d="M 489.651961 242.912492 
L 493.218809 242.817213 
L 499.333406 242.25638 
L 500.862056 241.895405 
L 501.881155 241.421062 
L 502.900255 240.697713 
L 503.919354 239.696546 
L 505.448003 237.735874 
L 507.486202 234.946811 
L 508.505302 233.834599 
L 511.562601 230.883688 
L 512.5817 229.225621 
L 513.6008 227.019131 
L 515.129449 222.934328 
L 518.186747 213.720172 
L 519.715397 209.24514 
L 520.734496 206.760168 
L 521.753596 204.859881 
L 522.772695 203.443844 
L 524.810894 201.195375 
L 525.829994 200.303155 
L 526.339544 199.999742 
L 526.849093 199.834124 
L 527.358643 199.829486 
L 527.868193 199.996597 
L 528.377743 200.331629 
L 529.396842 201.418309 
L 531.944591 204.73639 
L 532.963691 205.667508 
L 534.49234 206.931574 
L 535.00189 207.518504 
L 535.511439 208.280102 
L 536.020989 209.259026 
L 537.040089 211.952732 
L 538.059188 215.564384 
L 542.135586 231.720587 
L 543.154686 234.596642 
L 544.173785 236.856258 
L 545.192885 238.605382 
L 546.211985 239.960419 
L 547.231084 241.002789 
L 548.250184 241.773282 
L 549.269283 242.298935 
L 550.288383 242.619584 
L 551.817032 242.83922 
L 554.364781 242.911969 
L 554.364781 242.911969 
" style="fill:none;stroke:#2ca02c;stroke-dasharray:1.5,2.475;stroke-dashoffset:0;stroke-width:1.5;"/>
   </g>
   <g id="line2d_54">
    <path clip-path="url(#p37a90646b3)" d="M 339.94587 242.521028 
L 340.261798 241.910687 
L 340.577725 240.418289 
L 340.893653 237.209441 
L 341.20958 231.00166 
L 341.525508 220.169507 
L 341.999399 191.993759 
L 342.631254 131.948818 
L 343.421073 54.560227 
L 343.737001 37.659596 
L 343.894964 33.731181 
L 344.052928 32.822887 
L 344.210892 34.711349 
L 344.526819 45.269259 
L 346.264421 124.56318 
L 348.949805 204.957022 
L 349.423696 210.51496 
L 349.739623 211.780527 
L 349.897587 211.883997 
L 350.213515 211.506883 
L 350.529442 211.004652 
L 350.687406 210.923244 
L 350.84537 211.042144 
L 351.161297 212.02858 
L 351.477225 214.056306 
L 352.10908 220.214988 
L 352.898899 227.473577 
L 353.37279 230.124442 
L 354.004645 232.411755 
L 354.6365 234.145844 
L 354.952427 234.550934 
L 355.110391 234.557476 
L 355.426319 234.149987 
L 356.532065 231.683814 
L 356.690029 231.806225 
L 357.005956 232.653459 
L 357.479848 235.110597 
L 358.42763 240.418403 
L 358.901521 241.875329 
L 359.375413 242.548331 
L 359.69134 242.700937 
L 360.007268 242.648834 
L 360.007268 242.648834 
" style="fill:none;stroke:#d62728;stroke-linecap:square;stroke-width:1.5;"/>
   </g>
   <g id="line2d_55">
    <path clip-path="url(#p37a90646b3)" d="M 467.049683 242.464983 
L 469.159787 242.356833 
L 471.26989 242.0697 
L 473.379994 241.562939 
L 475.490098 240.779287 
L 477.600201 239.656592 
L 479.006937 238.693876 
L 481.11704 236.909605 
L 483.227144 234.734429 
L 486.040616 231.372152 
L 490.260823 226.178747 
L 492.370926 224.024109 
L 493.777662 222.912822 
L 495.184398 222.124606 
L 496.591133 221.691883 
L 497.997869 221.62319 
L 499.404605 221.90109 
L 500.811341 222.482505 
L 502.218076 223.301532 
L 505.031548 225.306765 
L 507.141651 226.753931 
L 508.548387 227.52076 
L 509.955123 228.044741 
L 511.361858 228.278135 
L 512.768594 228.199741 
L 514.17533 227.816676 
L 515.582066 227.163777 
L 517.692169 225.814511 
L 521.912376 222.867203 
L 523.319112 222.157491 
L 524.725848 221.720928 
L 526.132583 221.612506 
L 527.539319 221.862679 
L 528.946055 222.475784 
L 530.352791 223.430938 
L 531.759526 224.685234 
L 533.86963 226.993343 
L 538.089837 232.246923 
L 540.903309 235.499511 
L 543.013412 237.549714 
L 545.123516 239.197612 
L 547.233619 240.445638 
L 549.343723 241.335597 
L 551.453826 241.927759 
L 553.56393 242.28258 
L 555.674034 242.447229 
L 556.377401 242.464983 
L 556.377401 242.464983 
" style="fill:none;stroke:#d62728;stroke-dasharray:1.5,2.475;stroke-dashoffset:0;stroke-width:1.5;"/>
   </g>
   <g id="patch_7">
    <path d="M 324.327917 242.918125 
L 324.327917 22.318125 
" style="fill:none;stroke:#000000;stroke-linecap:square;stroke-linejoin:miter;stroke-width:0.8;"/>
   </g>
   <g id="patch_8">
    <path d="M 324.327917 242.918125 
L 568.624583 242.918125 
" style="fill:none;stroke:#000000;stroke-linecap:square;stroke-linejoin:miter;stroke-width:0.8;"/>
   </g>
   <g id="text_39">
    <!-- 30 - 100 -->
    <g transform="translate(421.410313 16.318125)scale(0.12 -0.12)">
     <use xlink:href="#DejaVuSans-51"/>
     <use x="63.623047" xlink:href="#DejaVuSans-48"/>
     <use x="127.246094" xlink:href="#DejaVuSans-32"/>
     <use x="159.033203" xlink:href="#DejaVuSans-45"/>
     <use x="195.117188" xlink:href="#DejaVuSans-32"/>
     <use x="226.904297" xlink:href="#DejaVuSans-49"/>
     <use x="290.527344" xlink:href="#DejaVuSans-48"/>
     <use x="354.150391" xlink:href="#DejaVuSans-48"/>
    </g>
   </g>
  </g>
 </g>
 <defs>
  <clipPath id="pc9cb6004e2">
   <rect height="220.6" width="244.296667" x="43.78125" y="22.318125"/>
  </clipPath>
  <clipPath id="p37a90646b3">
   <rect height="220.6" width="244.296667" x="324.327917" y="22.318125"/>
  </clipPath>
 </defs>
</svg>
