<?xml version="1.0" encoding="utf-8" standalone="no"?>
<!DOCTYPE svg PUBLIC "-//W3C//DTD SVG 1.1//EN"
  "http://www.w3.org/Graphics/SVG/1.1/DTD/svg11.dtd">
<!-- Created with matplotlib (https://matplotlib.org/) -->
<svg height="568.474375pt" version="1.1" viewBox="0 0 568.084791 568.474375" width="568.084791pt" xmlns="http://www.w3.org/2000/svg" xmlns:xlink="http://www.w3.org/1999/xlink">
 <defs>
  <style type="text/css">
*{stroke-linecap:butt;stroke-linejoin:round;}
  </style>
 </defs>
 <g id="figure_1">
  <g id="patch_1">
   <path d="M 0 568.474375 
L 568.084791 568.474375 
L 568.084791 0 
L 0 0 
z
" style="fill:#ffffff;"/>
  </g>
  <g id="axes_1">
   <g id="patch_2">
    <path d="M 43.78125 255.358125 
L 275.456525 255.358125 
L 275.456525 22.318125 
L 43.78125 22.318125 
z
" style="fill:#ffffff;"/>
   </g>
   <g id="matplotlib.axis_1">
    <g id="xtick_1">
     <g id="line2d_1">
      <defs>
       <path d="M 0 0 
L 0 3.5 
" id="m4c44e1c480" style="stroke:#000000;stroke-width:0.8;"/>
      </defs>
      <g>
       <use style="stroke:#000000;stroke-width:0.8;" x="74.136247" xlink:href="#m4c44e1c480" y="255.358125"/>
      </g>
     </g>
     <g id="text_1">
      <!-- 0.08 -->
      <defs>
       <path d="M 31.78125 66.40625 
Q 24.171875 66.40625 20.328125 58.90625 
Q 16.5 51.421875 16.5 36.375 
Q 16.5 21.390625 20.328125 13.890625 
Q 24.171875 6.390625 31.78125 6.390625 
Q 39.453125 6.390625 43.28125 13.890625 
Q 47.125 21.390625 47.125 36.375 
Q 47.125 51.421875 43.28125 58.90625 
Q 39.453125 66.40625 31.78125 66.40625 
z
M 31.78125 74.21875 
Q 44.046875 74.21875 50.515625 64.515625 
Q 56.984375 54.828125 56.984375 36.375 
Q 56.984375 17.96875 50.515625 8.265625 
Q 44.046875 -1.421875 31.78125 -1.421875 
Q 19.53125 -1.421875 13.0625 8.265625 
Q 6.59375 17.96875 6.59375 36.375 
Q 6.59375 54.828125 13.0625 64.515625 
Q 19.53125 74.21875 31.78125 74.21875 
z
" id="DejaVuSans-48"/>
       <path d="M 10.6875 12.40625 
L 21 12.40625 
L 21 0 
L 10.6875 0 
z
" id="DejaVuSans-46"/>
       <path d="M 31.78125 34.625 
Q 24.75 34.625 20.71875 30.859375 
Q 16.703125 27.09375 16.703125 20.515625 
Q 16.703125 13.921875 20.71875 10.15625 
Q 24.75 6.390625 31.78125 6.390625 
Q 38.8125 6.390625 42.859375 10.171875 
Q 46.921875 13.96875 46.921875 20.515625 
Q 46.921875 27.09375 42.890625 30.859375 
Q 38.875 34.625 31.78125 34.625 
z
M 21.921875 38.8125 
Q 15.578125 40.375 12.03125 44.71875 
Q 8.5 49.078125 8.5 55.328125 
Q 8.5 64.0625 14.71875 69.140625 
Q 20.953125 74.21875 31.78125 74.21875 
Q 42.671875 74.21875 48.875 69.140625 
Q 55.078125 64.0625 55.078125 55.328125 
Q 55.078125 49.078125 51.53125 44.71875 
Q 48 40.375 41.703125 38.8125 
Q 48.828125 37.15625 52.796875 32.3125 
Q 56.78125 27.484375 56.78125 20.515625 
Q 56.78125 9.90625 50.3125 4.234375 
Q 43.84375 -1.421875 31.78125 -1.421875 
Q 19.734375 -1.421875 13.25 4.234375 
Q 6.78125 9.90625 6.78125 20.515625 
Q 6.78125 27.484375 10.78125 32.3125 
Q 14.796875 37.15625 21.921875 38.8125 
z
M 18.3125 54.390625 
Q 18.3125 48.734375 21.84375 45.5625 
Q 25.390625 42.390625 31.78125 42.390625 
Q 38.140625 42.390625 41.71875 45.5625 
Q 45.3125 48.734375 45.3125 54.390625 
Q 45.3125 60.0625 41.71875 63.234375 
Q 38.140625 66.40625 31.78125 66.40625 
Q 25.390625 66.40625 21.84375 63.234375 
Q 18.3125 60.0625 18.3125 54.390625 
z
" id="DejaVuSans-56"/>
      </defs>
      <g transform="translate(63.003434 269.956562)scale(0.1 -0.1)">
       <use xlink:href="#DejaVuSans-48"/>
       <use x="63.623047" xlink:href="#DejaVuSans-46"/>
       <use x="95.410156" xlink:href="#DejaVuSans-48"/>
       <use x="159.033203" xlink:href="#DejaVuSans-56"/>
      </g>
     </g>
    </g>
    <g id="xtick_2">
     <g id="line2d_2">
      <g>
       <use style="stroke:#000000;stroke-width:0.8;" x="114.635753" xlink:href="#m4c44e1c480" y="255.358125"/>
      </g>
     </g>
     <g id="text_2">
      <!-- 1 -->
      <defs>
       <path d="M 12.40625 8.296875 
L 28.515625 8.296875 
L 28.515625 63.921875 
L 10.984375 60.40625 
L 10.984375 69.390625 
L 28.421875 72.90625 
L 38.28125 72.90625 
L 38.28125 8.296875 
L 54.390625 8.296875 
L 54.390625 0 
L 12.40625 0 
z
" id="DejaVuSans-49"/>
      </defs>
      <g transform="translate(111.454503 269.956562)scale(0.1 -0.1)">
       <use xlink:href="#DejaVuSans-49"/>
      </g>
     </g>
    </g>
    <g id="xtick_3">
     <g id="line2d_3">
      <g>
       <use style="stroke:#000000;stroke-width:0.8;" x="155.13526" xlink:href="#m4c44e1c480" y="255.358125"/>
      </g>
     </g>
     <g id="text_3">
      <!-- 1e+01 -->
      <defs>
       <path d="M 56.203125 29.59375 
L 56.203125 25.203125 
L 14.890625 25.203125 
Q 15.484375 15.921875 20.484375 11.0625 
Q 25.484375 6.203125 34.421875 6.203125 
Q 39.59375 6.203125 44.453125 7.46875 
Q 49.3125 8.734375 54.109375 11.28125 
L 54.109375 2.78125 
Q 49.265625 0.734375 44.1875 -0.34375 
Q 39.109375 -1.421875 33.890625 -1.421875 
Q 20.796875 -1.421875 13.15625 6.1875 
Q 5.515625 13.8125 5.515625 26.8125 
Q 5.515625 40.234375 12.765625 48.109375 
Q 20.015625 56 32.328125 56 
Q 43.359375 56 49.78125 48.890625 
Q 56.203125 41.796875 56.203125 29.59375 
z
M 47.21875 32.234375 
Q 47.125 39.59375 43.09375 43.984375 
Q 39.0625 48.390625 32.421875 48.390625 
Q 24.90625 48.390625 20.390625 44.140625 
Q 15.875 39.890625 15.1875 32.171875 
z
" id="DejaVuSans-101"/>
       <path d="M 46 62.703125 
L 46 35.5 
L 73.1875 35.5 
L 73.1875 27.203125 
L 46 27.203125 
L 46 0 
L 37.796875 0 
L 37.796875 27.203125 
L 10.59375 27.203125 
L 10.59375 35.5 
L 37.796875 35.5 
L 37.796875 62.703125 
z
" id="DejaVuSans-43"/>
      </defs>
      <g transform="translate(138.325103 269.956562)scale(0.1 -0.1)">
       <use xlink:href="#DejaVuSans-49"/>
       <use x="63.623047" xlink:href="#DejaVuSans-101"/>
       <use x="125.146484" xlink:href="#DejaVuSans-43"/>
       <use x="208.935547" xlink:href="#DejaVuSans-48"/>
       <use x="272.558594" xlink:href="#DejaVuSans-49"/>
      </g>
     </g>
    </g>
    <g id="xtick_4">
     <g id="line2d_4">
      <g>
       <use style="stroke:#000000;stroke-width:0.8;" x="195.634766" xlink:href="#m4c44e1c480" y="255.358125"/>
      </g>
     </g>
     <g id="text_4">
      <!-- 1e+02 -->
      <defs>
       <path d="M 19.1875 8.296875 
L 53.609375 8.296875 
L 53.609375 0 
L 7.328125 0 
L 7.328125 8.296875 
Q 12.9375 14.109375 22.625 23.890625 
Q 32.328125 33.6875 34.8125 36.53125 
Q 39.546875 41.84375 41.421875 45.53125 
Q 43.3125 49.21875 43.3125 52.78125 
Q 43.3125 58.59375 39.234375 62.25 
Q 35.15625 65.921875 28.609375 65.921875 
Q 23.96875 65.921875 18.8125 64.3125 
Q 13.671875 62.703125 7.8125 59.421875 
L 7.8125 69.390625 
Q 13.765625 71.78125 18.9375 73 
Q 24.125 74.21875 28.421875 74.21875 
Q 39.75 74.21875 46.484375 68.546875 
Q 53.21875 62.890625 53.21875 53.421875 
Q 53.21875 48.921875 51.53125 44.890625 
Q 49.859375 40.875 45.40625 35.40625 
Q 44.1875 33.984375 37.640625 27.21875 
Q 31.109375 20.453125 19.1875 8.296875 
z
" id="DejaVuSans-50"/>
      </defs>
      <g transform="translate(178.82461 269.956562)scale(0.1 -0.1)">
       <use xlink:href="#DejaVuSans-49"/>
       <use x="63.623047" xlink:href="#DejaVuSans-101"/>
       <use x="125.146484" xlink:href="#DejaVuSans-43"/>
       <use x="208.935547" xlink:href="#DejaVuSans-48"/>
       <use x="272.558594" xlink:href="#DejaVuSans-50"/>
      </g>
     </g>
    </g>
    <g id="xtick_5">
     <g id="line2d_5">
      <g>
       <use style="stroke:#000000;stroke-width:0.8;" x="236.134272" xlink:href="#m4c44e1c480" y="255.358125"/>
      </g>
     </g>
     <g id="text_5">
      <!-- 2e+03 -->
      <defs>
       <path d="M 40.578125 39.3125 
Q 47.65625 37.796875 51.625 33 
Q 55.609375 28.21875 55.609375 21.1875 
Q 55.609375 10.40625 48.1875 4.484375 
Q 40.765625 -1.421875 27.09375 -1.421875 
Q 22.515625 -1.421875 17.65625 -0.515625 
Q 12.796875 0.390625 7.625 2.203125 
L 7.625 11.71875 
Q 11.71875 9.328125 16.59375 8.109375 
Q 21.484375 6.890625 26.8125 6.890625 
Q 36.078125 6.890625 40.9375 10.546875 
Q 45.796875 14.203125 45.796875 21.1875 
Q 45.796875 27.640625 41.28125 31.265625 
Q 36.765625 34.90625 28.71875 34.90625 
L 20.21875 34.90625 
L 20.21875 43.015625 
L 29.109375 43.015625 
Q 36.375 43.015625 40.234375 45.921875 
Q 44.09375 48.828125 44.09375 54.296875 
Q 44.09375 59.90625 40.109375 62.90625 
Q 36.140625 65.921875 28.71875 65.921875 
Q 24.65625 65.921875 20.015625 65.03125 
Q 15.375 64.15625 9.8125 62.3125 
L 9.8125 71.09375 
Q 15.4375 72.65625 20.34375 73.4375 
Q 25.25 74.21875 29.59375 74.21875 
Q 40.828125 74.21875 47.359375 69.109375 
Q 53.90625 64.015625 53.90625 55.328125 
Q 53.90625 49.265625 50.4375 45.09375 
Q 46.96875 40.921875 40.578125 39.3125 
z
" id="DejaVuSans-51"/>
      </defs>
      <g transform="translate(219.324116 269.956562)scale(0.1 -0.1)">
       <use xlink:href="#DejaVuSans-50"/>
       <use x="63.623047" xlink:href="#DejaVuSans-101"/>
       <use x="125.146484" xlink:href="#DejaVuSans-43"/>
       <use x="208.935547" xlink:href="#DejaVuSans-48"/>
       <use x="272.558594" xlink:href="#DejaVuSans-51"/>
      </g>
     </g>
    </g>
   </g>
   <g id="matplotlib.axis_2">
    <g id="ytick_1">
     <g id="line2d_6">
      <defs>
       <path d="M 0 0 
L -3.5 0 
" id="m3d3bebf22a" style="stroke:#000000;stroke-width:0.8;"/>
      </defs>
      <g>
       <use style="stroke:#000000;stroke-width:0.8;" x="43.78125" xlink:href="#m3d3bebf22a" y="255.358125"/>
      </g>
     </g>
     <g id="text_6">
      <!-- 0 -->
      <g transform="translate(30.41875 259.157344)scale(0.1 -0.1)">
       <use xlink:href="#DejaVuSans-48"/>
      </g>
     </g>
    </g>
    <g id="ytick_2">
     <g id="line2d_7">
      <g>
       <use style="stroke:#000000;stroke-width:0.8;" x="43.78125" xlink:href="#m3d3bebf22a" y="215.743361"/>
      </g>
     </g>
     <g id="text_7">
      <!-- 1 -->
      <g transform="translate(30.41875 219.542579)scale(0.1 -0.1)">
       <use xlink:href="#DejaVuSans-49"/>
      </g>
     </g>
    </g>
    <g id="ytick_3">
     <g id="line2d_8">
      <g>
       <use style="stroke:#000000;stroke-width:0.8;" x="43.78125" xlink:href="#m3d3bebf22a" y="176.128596"/>
      </g>
     </g>
     <g id="text_8">
      <!-- 2 -->
      <g transform="translate(30.41875 179.927815)scale(0.1 -0.1)">
       <use xlink:href="#DejaVuSans-50"/>
      </g>
     </g>
    </g>
    <g id="ytick_4">
     <g id="line2d_9">
      <g>
       <use style="stroke:#000000;stroke-width:0.8;" x="43.78125" xlink:href="#m3d3bebf22a" y="136.513832"/>
      </g>
     </g>
     <g id="text_9">
      <!-- 3 -->
      <g transform="translate(30.41875 140.31305)scale(0.1 -0.1)">
       <use xlink:href="#DejaVuSans-51"/>
      </g>
     </g>
    </g>
    <g id="ytick_5">
     <g id="line2d_10">
      <g>
       <use style="stroke:#000000;stroke-width:0.8;" x="43.78125" xlink:href="#m3d3bebf22a" y="96.899067"/>
      </g>
     </g>
     <g id="text_10">
      <!-- 4 -->
      <defs>
       <path d="M 37.796875 64.3125 
L 12.890625 25.390625 
L 37.796875 25.390625 
z
M 35.203125 72.90625 
L 47.609375 72.90625 
L 47.609375 25.390625 
L 58.015625 25.390625 
L 58.015625 17.1875 
L 47.609375 17.1875 
L 47.609375 0 
L 37.796875 0 
L 37.796875 17.1875 
L 4.890625 17.1875 
L 4.890625 26.703125 
z
" id="DejaVuSans-52"/>
      </defs>
      <g transform="translate(30.41875 100.698286)scale(0.1 -0.1)">
       <use xlink:href="#DejaVuSans-52"/>
      </g>
     </g>
    </g>
    <g id="ytick_6">
     <g id="line2d_11">
      <g>
       <use style="stroke:#000000;stroke-width:0.8;" x="43.78125" xlink:href="#m3d3bebf22a" y="57.284303"/>
      </g>
     </g>
     <g id="text_11">
      <!-- 5 -->
      <defs>
       <path d="M 10.796875 72.90625 
L 49.515625 72.90625 
L 49.515625 64.59375 
L 19.828125 64.59375 
L 19.828125 46.734375 
Q 21.96875 47.46875 24.109375 47.828125 
Q 26.265625 48.1875 28.421875 48.1875 
Q 40.625 48.1875 47.75 41.5 
Q 54.890625 34.8125 54.890625 23.390625 
Q 54.890625 11.625 47.5625 5.09375 
Q 40.234375 -1.421875 26.90625 -1.421875 
Q 22.3125 -1.421875 17.546875 -0.640625 
Q 12.796875 0.140625 7.71875 1.703125 
L 7.71875 11.625 
Q 12.109375 9.234375 16.796875 8.0625 
Q 21.484375 6.890625 26.703125 6.890625 
Q 35.15625 6.890625 40.078125 11.328125 
Q 45.015625 15.765625 45.015625 23.390625 
Q 45.015625 31 40.078125 35.4375 
Q 35.15625 39.890625 26.703125 39.890625 
Q 22.75 39.890625 18.8125 39.015625 
Q 14.890625 38.140625 10.796875 36.28125 
z
" id="DejaVuSans-53"/>
      </defs>
      <g transform="translate(30.41875 61.083521)scale(0.1 -0.1)">
       <use xlink:href="#DejaVuSans-53"/>
      </g>
     </g>
    </g>
    <g id="text_12">
     <!-- density -->
     <defs>
      <path d="M 45.40625 46.390625 
L 45.40625 75.984375 
L 54.390625 75.984375 
L 54.390625 0 
L 45.40625 0 
L 45.40625 8.203125 
Q 42.578125 3.328125 38.25 0.953125 
Q 33.9375 -1.421875 27.875 -1.421875 
Q 17.96875 -1.421875 11.734375 6.484375 
Q 5.515625 14.40625 5.515625 27.296875 
Q 5.515625 40.1875 11.734375 48.09375 
Q 17.96875 56 27.875 56 
Q 33.9375 56 38.25 53.625 
Q 42.578125 51.265625 45.40625 46.390625 
z
M 14.796875 27.296875 
Q 14.796875 17.390625 18.875 11.75 
Q 22.953125 6.109375 30.078125 6.109375 
Q 37.203125 6.109375 41.296875 11.75 
Q 45.40625 17.390625 45.40625 27.296875 
Q 45.40625 37.203125 41.296875 42.84375 
Q 37.203125 48.484375 30.078125 48.484375 
Q 22.953125 48.484375 18.875 42.84375 
Q 14.796875 37.203125 14.796875 27.296875 
z
" id="DejaVuSans-100"/>
      <path d="M 54.890625 33.015625 
L 54.890625 0 
L 45.90625 0 
L 45.90625 32.71875 
Q 45.90625 40.484375 42.875 44.328125 
Q 39.84375 48.1875 33.796875 48.1875 
Q 26.515625 48.1875 22.3125 43.546875 
Q 18.109375 38.921875 18.109375 30.90625 
L 18.109375 0 
L 9.078125 0 
L 9.078125 54.6875 
L 18.109375 54.6875 
L 18.109375 46.1875 
Q 21.34375 51.125 25.703125 53.5625 
Q 30.078125 56 35.796875 56 
Q 45.21875 56 50.046875 50.171875 
Q 54.890625 44.34375 54.890625 33.015625 
z
" id="DejaVuSans-110"/>
      <path d="M 44.28125 53.078125 
L 44.28125 44.578125 
Q 40.484375 46.53125 36.375 47.5 
Q 32.28125 48.484375 27.875 48.484375 
Q 21.1875 48.484375 17.84375 46.4375 
Q 14.5 44.390625 14.5 40.28125 
Q 14.5 37.15625 16.890625 35.375 
Q 19.28125 33.59375 26.515625 31.984375 
L 29.59375 31.296875 
Q 39.15625 29.25 43.1875 25.515625 
Q 47.21875 21.78125 47.21875 15.09375 
Q 47.21875 7.46875 41.1875 3.015625 
Q 35.15625 -1.421875 24.609375 -1.421875 
Q 20.21875 -1.421875 15.453125 -0.5625 
Q 10.6875 0.296875 5.421875 2 
L 5.421875 11.28125 
Q 10.40625 8.6875 15.234375 7.390625 
Q 20.0625 6.109375 24.8125 6.109375 
Q 31.15625 6.109375 34.5625 8.28125 
Q 37.984375 10.453125 37.984375 14.40625 
Q 37.984375 18.0625 35.515625 20.015625 
Q 33.0625 21.96875 24.703125 23.78125 
L 21.578125 24.515625 
Q 13.234375 26.265625 9.515625 29.90625 
Q 5.8125 33.546875 5.8125 39.890625 
Q 5.8125 47.609375 11.28125 51.796875 
Q 16.75 56 26.8125 56 
Q 31.78125 56 36.171875 55.265625 
Q 40.578125 54.546875 44.28125 53.078125 
z
" id="DejaVuSans-115"/>
      <path d="M 9.421875 54.6875 
L 18.40625 54.6875 
L 18.40625 0 
L 9.421875 0 
z
M 9.421875 75.984375 
L 18.40625 75.984375 
L 18.40625 64.59375 
L 9.421875 64.59375 
z
" id="DejaVuSans-105"/>
      <path d="M 18.3125 70.21875 
L 18.3125 54.6875 
L 36.8125 54.6875 
L 36.8125 47.703125 
L 18.3125 47.703125 
L 18.3125 18.015625 
Q 18.3125 11.328125 20.140625 9.421875 
Q 21.96875 7.515625 27.59375 7.515625 
L 36.8125 7.515625 
L 36.8125 0 
L 27.59375 0 
Q 17.1875 0 13.234375 3.875 
Q 9.28125 7.765625 9.28125 18.015625 
L 9.28125 47.703125 
L 2.6875 47.703125 
L 2.6875 54.6875 
L 9.28125 54.6875 
L 9.28125 70.21875 
z
" id="DejaVuSans-116"/>
      <path d="M 32.171875 -5.078125 
Q 28.375 -14.84375 24.75 -17.8125 
Q 21.140625 -20.796875 15.09375 -20.796875 
L 7.90625 -20.796875 
L 7.90625 -13.28125 
L 13.1875 -13.28125 
Q 16.890625 -13.28125 18.9375 -11.515625 
Q 21 -9.765625 23.484375 -3.21875 
L 25.09375 0.875 
L 2.984375 54.6875 
L 12.5 54.6875 
L 29.59375 11.921875 
L 46.6875 54.6875 
L 56.203125 54.6875 
z
" id="DejaVuSans-121"/>
     </defs>
     <g transform="translate(24.339063 157.170937)rotate(-90)scale(0.1 -0.1)">
      <use xlink:href="#DejaVuSans-100"/>
      <use x="63.476562" xlink:href="#DejaVuSans-101"/>
      <use x="125" xlink:href="#DejaVuSans-110"/>
      <use x="188.378906" xlink:href="#DejaVuSans-115"/>
      <use x="240.478516" xlink:href="#DejaVuSans-105"/>
      <use x="268.261719" xlink:href="#DejaVuSans-116"/>
      <use x="307.470703" xlink:href="#DejaVuSans-121"/>
     </g>
    </g>
   </g>
   <g id="line2d_12">
    <path clip-path="url(#p9984f1caab)" d="M 67.793375 250.812951 
L 69.265845 255.358125 
L 70.738315 178.551752 
L 72.210785 173.712527 
L 73.683256 220.809363 
L 75.155726 234.108632 
L 76.628196 243.99227 
L 78.100666 250.21466 
L 79.573136 252.646162 
L 81.045606 253.458249 
L 83.990546 255.265826 
L 85.463016 254.987551 
L 86.935487 255.358125 
L 88.407957 254.086651 
L 89.880427 255.358125 
L 91.352897 255.173395 
L 92.825367 255.358125 
L 94.297837 255.229682 
L 95.770307 255.358125 
L 97.242777 255.258575 
L 98.715247 255.358125 
L 100.187718 255.277223 
L 101.660188 255.358125 
L 103.132658 255.291022 
L 104.605128 255.358125 
L 106.077598 255.302495 
L 109.022538 255.313541 
L 113.439949 255.358125 
L 114.912419 255.25673 
L 116.384889 254.979337 
L 117.857359 255.358125 
L 166.448873 255.358125 
L 167.921343 255.005325 
L 169.393813 255.233679 
L 172.338753 255.358125 
L 176.756163 255.308812 
L 178.228633 255.358125 
L 179.701104 255.026085 
L 182.646044 255.33728 
L 190.008394 255.358125 
L 191.480864 255.347306 
L 194.425805 255.07699 
L 195.898275 255.358125 
L 200.315685 255.318156 
L 204.733095 255.358125 
L 209.150506 255.317478 
L 213.567916 255.358125 
L 217.985326 255.263284 
L 219.457797 254.978807 
L 220.930267 255.358125 
L 225.347677 255.358125 
L 228.292617 255.07157 
L 229.765087 255.072442 
L 231.237557 255.265372 
L 232.710028 254.479336 
L 234.182498 255.32215 
L 235.654968 255.107572 
L 237.127438 255.0493 
L 238.599908 254.47131 
L 240.072378 255.358125 
L 241.544848 254.833079 
L 243.017318 254.98745 
L 244.489788 254.494053 
L 245.962259 255.358125 
L 247.434729 254.665835 
L 248.907199 255.358125 
L 250.379669 253.945514 
L 251.852139 255.358125 
L 253.324609 252.949846 
L 254.797079 255.358125 
L 254.797079 255.358125 
" style="fill:none;stroke:#1f77b4;stroke-linecap:square;stroke-width:1.5;"/>
   </g>
   <g id="line2d_13">
    <path clip-path="url(#p9984f1caab)" d="M 198.622073 255.35664 
L 203.601676 255.246622 
L 206.589438 255.28378 
L 209.577199 255.291223 
L 217.046604 254.819778 
L 218.042524 254.497937 
L 219.038445 253.945867 
L 220.532326 252.743083 
L 222.026206 251.530596 
L 224.516008 249.697866 
L 225.511928 248.463133 
L 226.507849 246.818068 
L 229.495611 241.054116 
L 230.989492 237.84919 
L 232.483372 234.130113 
L 234.475214 228.935197 
L 235.471134 226.979568 
L 235.969094 226.343955 
L 236.467055 225.955201 
L 236.965015 225.785757 
L 237.462975 225.786099 
L 238.458896 226.101508 
L 239.454816 226.668374 
L 240.948697 227.670354 
L 241.446658 227.87345 
L 241.944618 227.927158 
L 242.442578 227.809177 
L 243.438499 227.132275 
L 244.434419 226.271436 
L 244.93238 225.975953 
L 245.43034 225.872094 
L 245.9283 226.014794 
L 246.42626 226.439411 
L 246.924221 227.166171 
L 247.422181 228.205725 
L 248.418102 231.221645 
L 249.414022 235.310672 
L 251.903824 246.271468 
L 252.899744 249.557786 
L 253.895665 251.993149 
L 254.891585 253.600015 
L 255.887506 254.505295 
L 256.883426 254.950541 
L 258.377307 255.22984 
L 260.867109 255.350491 
L 261.863029 255.356263 
L 261.863029 255.356263 
" style="fill:none;stroke:#1f77b4;stroke-dasharray:1.5,2.475;stroke-dashoffset:0;stroke-width:1.5;"/>
   </g>
   <g id="line2d_14">
    <path clip-path="url(#p9984f1caab)" d="M 65.337878 255.358125 
L 66.82215 236.294018 
L 68.306423 255.358125 
L 69.790695 33.415268 
L 71.274967 127.703772 
L 72.759239 201.142031 
L 74.243511 243.215517 
L 75.727784 243.134732 
L 77.212056 255.358125 
L 78.696328 250.402584 
L 80.1806 255.358125 
L 81.664873 252.546269 
L 83.149145 255.358125 
L 84.633417 253.386314 
L 86.117689 255.358125 
L 87.601961 253.868179 
L 89.086234 255.358125 
L 90.570506 254.199619 
L 92.054778 255.358125 
L 93.53905 254.435597 
L 95.023322 255.358125 
L 96.507595 254.601557 
L 97.991867 255.358125 
L 99.476139 254.709755 
L 100.960411 255.358125 
L 102.444684 254.825217 
L 103.928956 255.358125 
L 105.413228 254.890211 
L 106.8975 255.358125 
L 108.381772 254.938821 
L 109.866045 255.358125 
L 111.350317 254.955727 
L 112.834589 255.358125 
L 114.318861 254.991988 
L 115.803133 255.358125 
L 117.287406 255.050193 
L 118.771678 255.358125 
L 120.25595 255.052224 
L 121.740222 255.358125 
L 123.224495 255.060543 
L 124.708767 255.358125 
L 126.193039 255.12078 
L 127.677311 255.358125 
L 129.161583 255.100074 
L 130.645856 255.358125 
L 132.130128 255.124351 
L 133.6144 255.358125 
L 135.098672 255.132583 
L 136.582944 255.358125 
L 138.067217 255.15598 
L 139.551489 255.358125 
L 141.035761 255.154985 
L 142.520033 255.358125 
L 144.004306 255.139897 
L 145.488578 255.358125 
L 146.97285 255.132446 
L 148.457122 255.358125 
L 149.941394 255.172916 
L 151.425667 255.358125 
L 152.909939 255.150365 
L 154.394211 255.358125 
L 155.878483 255.183958 
L 157.362755 255.358125 
L 158.847028 255.191999 
L 160.3313 255.358125 
L 161.815572 255.152387 
L 163.299844 255.358125 
L 164.784117 255.183236 
L 166.268389 255.358125 
L 167.752661 255.184861 
L 169.236933 255.358125 
L 170.721205 255.167895 
L 172.205478 255.358125 
L 173.68975 255.148387 
L 175.174022 255.358125 
L 176.658294 255.183094 
L 178.142566 255.358125 
L 179.626839 255.169742 
L 181.111111 255.358125 
L 182.595383 255.165025 
L 184.079655 255.358125 
L 185.563927 255.15451 
L 187.0482 255.358125 
L 188.532472 255.161253 
L 190.016744 255.358125 
L 191.501016 255.127353 
L 192.985289 255.358125 
L 194.469561 255.121487 
L 195.953833 255.358125 
L 197.438105 255.121617 
L 198.922377 255.358125 
L 200.40665 255.119143 
L 201.890922 255.358125 
L 203.375194 255.068988 
L 204.859466 255.358125 
L 206.343738 255.052817 
L 207.828011 255.358125 
L 209.312283 255.001949 
L 210.796555 255.358125 
L 212.280827 254.955577 
L 213.7651 255.358125 
L 215.249372 254.816809 
L 216.733644 255.358125 
L 218.217916 254.789143 
L 219.702188 255.358125 
L 221.186461 254.660759 
L 222.670733 255.358125 
L 224.155005 254.568253 
L 225.639277 255.358125 
L 227.123549 254.407345 
L 228.607822 255.358125 
L 230.092094 254.285944 
L 231.576366 255.358125 
L 233.060638 254.126413 
L 234.544911 255.358125 
L 236.029183 253.925248 
L 237.513455 255.358125 
L 238.997727 253.76286 
L 240.481999 255.358125 
L 241.966272 253.391031 
L 243.450544 255.358125 
L 244.934816 252.790457 
L 246.419088 255.358125 
L 247.90336 251.887749 
L 249.387633 255.358125 
L 250.871905 250.171724 
L 252.356177 255.358125 
L 253.840449 246.379027 
L 253.840449 246.379027 
" style="fill:none;stroke:#ff7f0e;stroke-linecap:square;stroke-width:1.5;"/>
   </g>
   <g id="line2d_15">
    <path clip-path="url(#p9984f1caab)" d="M 63.48255 255.357709 
L 142.195242 255.318491 
L 143.738628 255.209986 
L 145.282014 254.927386 
L 146.8254 255.293401 
L 154.542331 255.288598 
L 159.172489 255.168559 
L 160.715876 255.003824 
L 162.259262 255.096465 
L 163.802648 255.301149 
L 171.519578 255.323678 
L 197.757142 255.023165 
L 202.387301 254.744493 
L 205.474073 254.211859 
L 207.017459 253.794597 
L 208.560845 253.262231 
L 210.104231 252.586128 
L 211.647618 251.513978 
L 214.73439 248.292853 
L 216.277776 245.867948 
L 217.821162 243.682345 
L 219.364548 240.942291 
L 222.45132 236.372199 
L 227.081479 232.659525 
L 228.624865 232.171263 
L 231.711637 230.555363 
L 233.255023 230.233549 
L 234.798409 231.17653 
L 236.341795 232.876861 
L 237.885182 235.391271 
L 239.428568 237.554985 
L 245.602112 245.381811 
L 247.145498 247.950949 
L 248.688884 250.763379 
L 250.232271 253.126119 
L 251.775657 254.490035 
L 253.319043 255.132192 
L 254.862429 255.312999 
L 259.492587 255.358125 
L 259.492587 255.358125 
" style="fill:none;stroke:#ff7f0e;stroke-dasharray:1.5,2.475;stroke-dashoffset:0;stroke-width:1.5;"/>
   </g>
   <g id="line2d_16">
    <path clip-path="url(#p9984f1caab)" d="M 67.666984 249.15494 
L 69.13853 255.358125 
L 70.610076 171.011065 
L 72.081622 170.914992 
L 73.553169 217.516245 
L 75.024715 234.952452 
L 76.496261 244.397196 
L 77.967807 249.480705 
L 79.439353 251.031926 
L 80.9109 253.82362 
L 82.382446 253.980632 
L 83.853992 255.358125 
L 85.325538 253.593583 
L 86.797084 255.358125 
L 88.268631 254.23855 
L 89.740177 255.358125 
L 91.211723 255.08588 
L 92.683269 255.358125 
L 94.154815 255.167097 
L 95.626362 255.358125 
L 97.097908 255.037867 
L 98.569454 255.358125 
L 100.041 255.201394 
L 101.512546 255.358125 
L 102.984093 255.160787 
L 104.455639 255.358125 
L 105.927185 255.14696 
L 107.398731 255.358125 
L 108.870277 255.286701 
L 110.341824 255.358125 
L 111.81337 255.294045 
L 113.284916 255.358125 
L 116.228008 255.266019 
L 119.171101 255.358125 
L 123.585739 255.310668 
L 128.000378 255.358125 
L 132.415017 255.314305 
L 136.829655 255.358125 
L 144.187386 255.176611 
L 145.658932 255.358125 
L 150.073571 255.316931 
L 151.545117 255.358125 
L 153.016663 255.211488 
L 154.48821 255.358125 
L 158.902848 255.317887 
L 163.317487 255.358125 
L 167.732125 255.321499 
L 172.146764 255.358125 
L 176.561402 255.317291 
L 178.032949 255.358125 
L 179.504495 255.254715 
L 183.919133 255.358125 
L 188.333772 255.308719 
L 189.805318 255.358125 
L 191.276864 255.295011 
L 192.748411 255.358125 
L 194.219957 255.150447 
L 195.691503 255.358125 
L 197.163049 255.290711 
L 198.634595 255.358125 
L 200.106142 255.29268 
L 201.577688 255.358125 
L 203.049234 255.282989 
L 204.52078 255.358125 
L 205.992326 255.147136 
L 207.463873 255.358125 
L 208.935419 255.281017 
L 210.406965 255.358125 
L 211.878511 255.280129 
L 213.350057 255.358125 
L 214.821604 255.190874 
L 216.29315 255.358125 
L 220.707788 255.155097 
L 222.179335 255.358125 
L 223.650881 255.139012 
L 225.122427 255.358125 
L 226.593973 255.253188 
L 228.065519 254.618854 
L 229.537066 254.305767 
L 231.008612 254.397822 
L 232.480158 254.355216 
L 233.951704 254.906702 
L 235.42325 254.826738 
L 236.894797 254.14851 
L 238.366343 254.749571 
L 239.837889 254.494154 
L 241.309435 254.778625 
L 242.780981 254.912519 
L 244.252528 254.314761 
L 245.724074 255.071548 
L 247.19562 254.473424 
L 248.667166 255.358125 
L 250.138712 253.837145 
L 251.610259 255.358125 
L 253.081805 252.698348 
L 254.553351 255.358125 
L 254.553351 255.358125 
" style="fill:none;stroke:#2ca02c;stroke-linecap:square;stroke-width:1.5;"/>
   </g>
   <g id="line2d_17">
    <path clip-path="url(#p9984f1caab)" d="M 172.782886 255.357957 
L 203.10046 255.237163 
L 206.545639 255.187858 
L 210.679853 254.94033 
L 213.435996 254.491975 
L 214.814068 254.370127 
L 215.503104 254.165721 
L 217.570211 253.072619 
L 218.259247 252.630418 
L 219.637318 251.349572 
L 221.704426 248.926411 
L 223.082497 246.753952 
L 224.460569 243.933854 
L 225.83864 240.538386 
L 228.594783 233.406977 
L 229.972855 230.496324 
L 231.350926 227.979673 
L 232.039962 226.944742 
L 232.728998 226.244928 
L 233.418034 225.957388 
L 234.107069 226.028984 
L 234.796105 226.340004 
L 235.485141 226.827087 
L 236.174177 227.524923 
L 238.241284 230.355567 
L 238.93032 230.907002 
L 239.619355 231.1771 
L 240.308391 231.276578 
L 240.997427 231.220255 
L 242.375498 230.818233 
L 243.064534 230.806681 
L 243.75357 231.067632 
L 244.442606 231.600967 
L 245.131642 232.427755 
L 245.820677 233.635462 
L 246.509713 235.316885 
L 247.887785 239.85805 
L 249.954892 247.27167 
L 250.643928 249.409927 
L 251.332963 251.170857 
L 252.021999 252.52446 
L 252.711035 253.526563 
L 253.400071 254.247805 
L 254.089106 254.735408 
L 254.778142 255.031786 
L 256.156214 255.269334 
L 259.601393 255.35699 
L 260.290428 255.357877 
L 260.290428 255.357877 
" style="fill:none;stroke:#2ca02c;stroke-dasharray:1.5,2.475;stroke-dashoffset:0;stroke-width:1.5;"/>
   </g>
   <g id="line2d_18">
    <path clip-path="url(#p9984f1caab)" d="M 67.58854 243.557269 
L 69.019749 255.358125 
L 70.450957 139.676259 
L 71.882165 152.275693 
L 73.313373 220.799918 
L 74.744582 240.674705 
L 76.17579 248.126803 
L 77.606998 252.752933 
L 79.038206 252.779568 
L 80.469415 254.961575 
L 81.900623 254.111599 
L 83.331831 255.358125 
L 84.763039 254.516203 
L 86.194248 255.358125 
L 87.625456 254.700751 
L 89.056664 255.358125 
L 90.487872 254.86464 
L 91.919081 255.358125 
L 93.350289 254.950202 
L 94.781497 255.358125 
L 96.212705 255.022046 
L 97.643914 255.358125 
L 99.075122 255.107048 
L 100.50633 255.358125 
L 101.937538 255.155536 
L 103.368746 255.358125 
L 104.799955 255.146765 
L 106.231163 255.358125 
L 107.662371 255.202308 
L 109.093579 255.358125 
L 110.524788 255.167749 
L 111.955996 255.358125 
L 113.387204 255.21079 
L 114.818412 255.358125 
L 116.249621 255.217383 
L 117.680829 255.358125 
L 119.112037 255.228361 
L 120.543245 255.358125 
L 121.974454 255.238979 
L 123.405662 255.358125 
L 124.83687 255.245894 
L 126.268078 255.358125 
L 127.699287 255.246261 
L 129.130495 255.358125 
L 130.561703 255.261525 
L 131.992911 255.358125 
L 133.424119 255.262172 
L 134.855328 255.358125 
L 136.286536 255.233792 
L 137.717744 255.358125 
L 139.148952 255.24321 
L 140.580161 255.358125 
L 142.011369 255.208611 
L 143.442577 255.358125 
L 144.873785 255.223123 
L 146.304994 255.358125 
L 147.736202 255.25365 
L 149.16741 255.358125 
L 150.598618 255.270187 
L 152.029827 255.358125 
L 153.461035 255.245734 
L 154.892243 255.358125 
L 156.323451 255.281811 
L 157.75466 255.358125 
L 159.185868 255.292867 
L 160.617076 255.358125 
L 162.048284 255.272025 
L 163.479492 255.358125 
L 164.910701 255.285068 
L 166.341909 255.358125 
L 167.773117 255.286817 
L 169.204325 255.358125 
L 170.635534 255.275606 
L 172.066742 255.358125 
L 173.49795 255.247018 
L 174.929158 255.358125 
L 176.360367 255.285577 
L 177.791575 255.358125 
L 179.222783 255.266578 
L 180.653991 255.358125 
L 182.0852 255.268704 
L 183.516408 255.358125 
L 184.947616 255.274782 
L 186.378824 255.358125 
L 187.810033 255.256225 
L 189.241241 255.358125 
L 190.672449 255.232946 
L 192.103657 255.358125 
L 193.534865 255.259438 
L 194.966074 255.358125 
L 196.397282 255.247498 
L 197.82849 255.358125 
L 199.259698 255.249263 
L 200.690907 255.358125 
L 202.122115 255.211482 
L 203.553323 255.358125 
L 204.984531 255.222337 
L 206.41574 255.358125 
L 207.846948 255.203465 
L 209.278156 255.358125 
L 210.709364 255.188547 
L 212.140573 255.358125 
L 213.571781 255.179081 
L 215.002989 255.358125 
L 216.434197 255.125805 
L 217.865406 255.358125 
L 219.296614 255.110259 
L 220.727822 255.358125 
L 222.15903 255.076316 
L 223.590238 255.358125 
L 225.021447 255.041539 
L 226.452655 255.358125 
L 227.883863 254.965545 
L 229.315071 255.358125 
L 230.74628 254.833276 
L 232.177488 255.358125 
L 233.608696 254.705661 
L 235.039904 255.358125 
L 236.471113 254.513813 
L 237.902321 255.358125 
L 239.333529 254.187661 
L 240.764737 255.358125 
L 242.195946 253.663682 
L 243.627154 255.358125 
L 245.058362 252.684022 
L 246.48957 255.358125 
L 247.920779 250.47606 
L 249.351987 255.358125 
L 249.351987 255.358125 
" style="fill:none;stroke:#d62728;stroke-linecap:square;stroke-width:1.5;"/>
   </g>
   <g id="line2d_19">
    <path clip-path="url(#p9984f1caab)" d="M 54.311944 255.352791 
L 60.945453 255.23059 
L 64.262207 254.984042 
L 70.895715 254.274712 
L 74.212469 254.186009 
L 79.1876 254.409761 
L 92.454617 255.154459 
L 100.746502 255.241429 
L 123.963781 255.260924 
L 143.864306 255.183661 
L 150.497814 255.190532 
L 155.472945 254.957202 
L 162.106453 254.5882 
L 170.398338 254.389012 
L 173.715093 254.073446 
L 178.690224 253.289985 
L 182.006978 252.599759 
L 185.323732 251.714895 
L 188.640486 250.540799 
L 193.615617 248.358894 
L 198.590748 246.16583 
L 201.907503 244.891902 
L 205.224257 243.959164 
L 208.541011 243.454746 
L 215.174519 242.978286 
L 216.832896 242.950519 
L 218.491273 243.035414 
L 220.14965 243.265762 
L 221.808027 243.644913 
L 225.124781 244.723264 
L 230.099913 246.430648 
L 233.416667 247.269676 
L 240.050175 248.63583 
L 241.708552 249.177001 
L 243.366929 249.874585 
L 246.683683 251.629739 
L 250.000437 253.369974 
L 251.658814 254.048528 
L 253.317191 254.556099 
L 254.975569 254.902534 
L 258.292323 255.241829 
L 263.267454 255.349624 
L 264.925831 255.353861 
L 264.925831 255.353861 
" style="fill:none;stroke:#d62728;stroke-dasharray:1.5,2.475;stroke-dashoffset:0;stroke-width:1.5;"/>
   </g>
   <g id="patch_3">
    <path d="M 43.78125 255.358125 
L 43.78125 22.318125 
" style="fill:none;stroke:#000000;stroke-linecap:square;stroke-linejoin:miter;stroke-width:0.8;"/>
   </g>
   <g id="patch_4">
    <path d="M 43.78125 255.358125 
L 275.456525 255.358125 
" style="fill:none;stroke:#000000;stroke-linecap:square;stroke-linejoin:miter;stroke-width:0.8;"/>
   </g>
   <g id="text_13">
    <!-- 1 - 30 -->
    <defs>
     <path id="DejaVuSans-32"/>
     <path d="M 4.890625 31.390625 
L 31.203125 31.390625 
L 31.203125 23.390625 
L 4.890625 23.390625 
z
" id="DejaVuSans-45"/>
    </defs>
    <g transform="translate(142.18795 16.318125)scale(0.12 -0.12)">
     <use xlink:href="#DejaVuSans-49"/>
     <use x="63.623047" xlink:href="#DejaVuSans-32"/>
     <use x="95.410156" xlink:href="#DejaVuSans-45"/>
     <use x="131.494141" xlink:href="#DejaVuSans-32"/>
     <use x="163.28125" xlink:href="#DejaVuSans-51"/>
     <use x="226.904297" xlink:href="#DejaVuSans-48"/>
    </g>
   </g>
   <g id="legend_1">
    <g id="patch_5">
     <path d="M 163.929963 89.030625 
L 268.456525 89.030625 
Q 270.456525 89.030625 270.456525 87.030625 
L 270.456525 29.318125 
Q 270.456525 27.318125 268.456525 27.318125 
L 163.929963 27.318125 
Q 161.929963 27.318125 161.929963 29.318125 
L 161.929963 87.030625 
Q 161.929963 89.030625 163.929963 89.030625 
z
" style="fill:#ffffff;opacity:0.8;stroke:#cccccc;stroke-linejoin:miter;"/>
    </g>
    <g id="line2d_20">
     <path d="M 165.929963 35.416562 
L 185.929963 35.416562 
" style="fill:none;stroke:#1f77b4;stroke-linecap:square;stroke-width:1.5;"/>
    </g>
    <g id="line2d_21"/>
    <g id="text_14">
     <!-- prosic+delly -->
     <defs>
      <path d="M 18.109375 8.203125 
L 18.109375 -20.796875 
L 9.078125 -20.796875 
L 9.078125 54.6875 
L 18.109375 54.6875 
L 18.109375 46.390625 
Q 20.953125 51.265625 25.265625 53.625 
Q 29.59375 56 35.59375 56 
Q 45.5625 56 51.78125 48.09375 
Q 58.015625 40.1875 58.015625 27.296875 
Q 58.015625 14.40625 51.78125 6.484375 
Q 45.5625 -1.421875 35.59375 -1.421875 
Q 29.59375 -1.421875 25.265625 0.953125 
Q 20.953125 3.328125 18.109375 8.203125 
z
M 48.6875 27.296875 
Q 48.6875 37.203125 44.609375 42.84375 
Q 40.53125 48.484375 33.40625 48.484375 
Q 26.265625 48.484375 22.1875 42.84375 
Q 18.109375 37.203125 18.109375 27.296875 
Q 18.109375 17.390625 22.1875 11.75 
Q 26.265625 6.109375 33.40625 6.109375 
Q 40.53125 6.109375 44.609375 11.75 
Q 48.6875 17.390625 48.6875 27.296875 
z
" id="DejaVuSans-112"/>
      <path d="M 41.109375 46.296875 
Q 39.59375 47.171875 37.8125 47.578125 
Q 36.03125 48 33.890625 48 
Q 26.265625 48 22.1875 43.046875 
Q 18.109375 38.09375 18.109375 28.8125 
L 18.109375 0 
L 9.078125 0 
L 9.078125 54.6875 
L 18.109375 54.6875 
L 18.109375 46.1875 
Q 20.953125 51.171875 25.484375 53.578125 
Q 30.03125 56 36.53125 56 
Q 37.453125 56 38.578125 55.875 
Q 39.703125 55.765625 41.0625 55.515625 
z
" id="DejaVuSans-114"/>
      <path d="M 30.609375 48.390625 
Q 23.390625 48.390625 19.1875 42.75 
Q 14.984375 37.109375 14.984375 27.296875 
Q 14.984375 17.484375 19.15625 11.84375 
Q 23.34375 6.203125 30.609375 6.203125 
Q 37.796875 6.203125 41.984375 11.859375 
Q 46.1875 17.53125 46.1875 27.296875 
Q 46.1875 37.015625 41.984375 42.703125 
Q 37.796875 48.390625 30.609375 48.390625 
z
M 30.609375 56 
Q 42.328125 56 49.015625 48.375 
Q 55.71875 40.765625 55.71875 27.296875 
Q 55.71875 13.875 49.015625 6.21875 
Q 42.328125 -1.421875 30.609375 -1.421875 
Q 18.84375 -1.421875 12.171875 6.21875 
Q 5.515625 13.875 5.515625 27.296875 
Q 5.515625 40.765625 12.171875 48.375 
Q 18.84375 56 30.609375 56 
z
" id="DejaVuSans-111"/>
      <path d="M 48.78125 52.59375 
L 48.78125 44.1875 
Q 44.96875 46.296875 41.140625 47.34375 
Q 37.3125 48.390625 33.40625 48.390625 
Q 24.65625 48.390625 19.8125 42.84375 
Q 14.984375 37.3125 14.984375 27.296875 
Q 14.984375 17.28125 19.8125 11.734375 
Q 24.65625 6.203125 33.40625 6.203125 
Q 37.3125 6.203125 41.140625 7.25 
Q 44.96875 8.296875 48.78125 10.40625 
L 48.78125 2.09375 
Q 45.015625 0.34375 40.984375 -0.53125 
Q 36.96875 -1.421875 32.421875 -1.421875 
Q 20.0625 -1.421875 12.78125 6.34375 
Q 5.515625 14.109375 5.515625 27.296875 
Q 5.515625 40.671875 12.859375 48.328125 
Q 20.21875 56 33.015625 56 
Q 37.15625 56 41.109375 55.140625 
Q 45.0625 54.296875 48.78125 52.59375 
z
" id="DejaVuSans-99"/>
      <path d="M 9.421875 75.984375 
L 18.40625 75.984375 
L 18.40625 0 
L 9.421875 0 
z
" id="DejaVuSans-108"/>
     </defs>
     <g transform="translate(193.929963 38.916562)scale(0.1 -0.1)">
      <use xlink:href="#DejaVuSans-112"/>
      <use x="63.476562" xlink:href="#DejaVuSans-114"/>
      <use x="104.558594" xlink:href="#DejaVuSans-111"/>
      <use x="165.740234" xlink:href="#DejaVuSans-115"/>
      <use x="217.839844" xlink:href="#DejaVuSans-105"/>
      <use x="245.623047" xlink:href="#DejaVuSans-99"/>
      <use x="300.603516" xlink:href="#DejaVuSans-43"/>
      <use x="384.392578" xlink:href="#DejaVuSans-100"/>
      <use x="447.869141" xlink:href="#DejaVuSans-101"/>
      <use x="509.392578" xlink:href="#DejaVuSans-108"/>
      <use x="537.175781" xlink:href="#DejaVuSans-108"/>
      <use x="564.958984" xlink:href="#DejaVuSans-121"/>
     </g>
    </g>
    <g id="line2d_22">
     <path d="M 165.929963 50.094687 
L 185.929963 50.094687 
" style="fill:none;stroke:#ff7f0e;stroke-linecap:square;stroke-width:1.5;"/>
    </g>
    <g id="line2d_23"/>
    <g id="text_15">
     <!-- prosic+lancet -->
     <defs>
      <path d="M 34.28125 27.484375 
Q 23.390625 27.484375 19.1875 25 
Q 14.984375 22.515625 14.984375 16.5 
Q 14.984375 11.71875 18.140625 8.90625 
Q 21.296875 6.109375 26.703125 6.109375 
Q 34.1875 6.109375 38.703125 11.40625 
Q 43.21875 16.703125 43.21875 25.484375 
L 43.21875 27.484375 
z
M 52.203125 31.203125 
L 52.203125 0 
L 43.21875 0 
L 43.21875 8.296875 
Q 40.140625 3.328125 35.546875 0.953125 
Q 30.953125 -1.421875 24.3125 -1.421875 
Q 15.921875 -1.421875 10.953125 3.296875 
Q 6 8.015625 6 15.921875 
Q 6 25.140625 12.171875 29.828125 
Q 18.359375 34.515625 30.609375 34.515625 
L 43.21875 34.515625 
L 43.21875 35.40625 
Q 43.21875 41.609375 39.140625 45 
Q 35.0625 48.390625 27.6875 48.390625 
Q 23 48.390625 18.546875 47.265625 
Q 14.109375 46.140625 10.015625 43.890625 
L 10.015625 52.203125 
Q 14.9375 54.109375 19.578125 55.046875 
Q 24.21875 56 28.609375 56 
Q 40.484375 56 46.34375 49.84375 
Q 52.203125 43.703125 52.203125 31.203125 
z
" id="DejaVuSans-97"/>
     </defs>
     <g transform="translate(193.929963 53.594687)scale(0.1 -0.1)">
      <use xlink:href="#DejaVuSans-112"/>
      <use x="63.476562" xlink:href="#DejaVuSans-114"/>
      <use x="104.558594" xlink:href="#DejaVuSans-111"/>
      <use x="165.740234" xlink:href="#DejaVuSans-115"/>
      <use x="217.839844" xlink:href="#DejaVuSans-105"/>
      <use x="245.623047" xlink:href="#DejaVuSans-99"/>
      <use x="300.603516" xlink:href="#DejaVuSans-43"/>
      <use x="384.392578" xlink:href="#DejaVuSans-108"/>
      <use x="412.175781" xlink:href="#DejaVuSans-97"/>
      <use x="473.455078" xlink:href="#DejaVuSans-110"/>
      <use x="536.833984" xlink:href="#DejaVuSans-99"/>
      <use x="591.814453" xlink:href="#DejaVuSans-101"/>
      <use x="653.337891" xlink:href="#DejaVuSans-116"/>
     </g>
    </g>
    <g id="line2d_24">
     <path d="M 165.929963 64.772812 
L 185.929963 64.772812 
" style="fill:none;stroke:#2ca02c;stroke-linecap:square;stroke-width:1.5;"/>
    </g>
    <g id="line2d_25"/>
    <g id="text_16">
     <!-- prosic+manta -->
     <defs>
      <path d="M 52 44.1875 
Q 55.375 50.25 60.0625 53.125 
Q 64.75 56 71.09375 56 
Q 79.640625 56 84.28125 50.015625 
Q 88.921875 44.046875 88.921875 33.015625 
L 88.921875 0 
L 79.890625 0 
L 79.890625 32.71875 
Q 79.890625 40.578125 77.09375 44.375 
Q 74.3125 48.1875 68.609375 48.1875 
Q 61.625 48.1875 57.5625 43.546875 
Q 53.515625 38.921875 53.515625 30.90625 
L 53.515625 0 
L 44.484375 0 
L 44.484375 32.71875 
Q 44.484375 40.625 41.703125 44.40625 
Q 38.921875 48.1875 33.109375 48.1875 
Q 26.21875 48.1875 22.15625 43.53125 
Q 18.109375 38.875 18.109375 30.90625 
L 18.109375 0 
L 9.078125 0 
L 9.078125 54.6875 
L 18.109375 54.6875 
L 18.109375 46.1875 
Q 21.1875 51.21875 25.484375 53.609375 
Q 29.78125 56 35.6875 56 
Q 41.65625 56 45.828125 52.96875 
Q 50 49.953125 52 44.1875 
z
" id="DejaVuSans-109"/>
     </defs>
     <g transform="translate(193.929963 68.272812)scale(0.1 -0.1)">
      <use xlink:href="#DejaVuSans-112"/>
      <use x="63.476562" xlink:href="#DejaVuSans-114"/>
      <use x="104.558594" xlink:href="#DejaVuSans-111"/>
      <use x="165.740234" xlink:href="#DejaVuSans-115"/>
      <use x="217.839844" xlink:href="#DejaVuSans-105"/>
      <use x="245.623047" xlink:href="#DejaVuSans-99"/>
      <use x="300.603516" xlink:href="#DejaVuSans-43"/>
      <use x="384.392578" xlink:href="#DejaVuSans-109"/>
      <use x="481.804688" xlink:href="#DejaVuSans-97"/>
      <use x="543.083984" xlink:href="#DejaVuSans-110"/>
      <use x="606.462891" xlink:href="#DejaVuSans-116"/>
      <use x="645.671875" xlink:href="#DejaVuSans-97"/>
     </g>
    </g>
    <g id="line2d_26">
     <path d="M 165.929963 79.450937 
L 185.929963 79.450937 
" style="fill:none;stroke:#d62728;stroke-linecap:square;stroke-width:1.5;"/>
    </g>
    <g id="line2d_27"/>
    <g id="text_17">
     <!-- prosic+strelka -->
     <defs>
      <path d="M 9.078125 75.984375 
L 18.109375 75.984375 
L 18.109375 31.109375 
L 44.921875 54.6875 
L 56.390625 54.6875 
L 27.390625 29.109375 
L 57.625 0 
L 45.90625 0 
L 18.109375 26.703125 
L 18.109375 0 
L 9.078125 0 
z
" id="DejaVuSans-107"/>
     </defs>
     <g transform="translate(193.929963 82.950937)scale(0.1 -0.1)">
      <use xlink:href="#DejaVuSans-112"/>
      <use x="63.476562" xlink:href="#DejaVuSans-114"/>
      <use x="104.558594" xlink:href="#DejaVuSans-111"/>
      <use x="165.740234" xlink:href="#DejaVuSans-115"/>
      <use x="217.839844" xlink:href="#DejaVuSans-105"/>
      <use x="245.623047" xlink:href="#DejaVuSans-99"/>
      <use x="300.603516" xlink:href="#DejaVuSans-43"/>
      <use x="384.392578" xlink:href="#DejaVuSans-115"/>
      <use x="436.492188" xlink:href="#DejaVuSans-116"/>
      <use x="475.701172" xlink:href="#DejaVuSans-114"/>
      <use x="516.783203" xlink:href="#DejaVuSans-101"/>
      <use x="578.306641" xlink:href="#DejaVuSans-108"/>
      <use x="606.089844" xlink:href="#DejaVuSans-107"/>
      <use x="663.984375" xlink:href="#DejaVuSans-97"/>
     </g>
    </g>
   </g>
  </g>
  <g id="axes_2">
   <g id="patch_6">
    <path d="M 315.271447 255.358125 
L 546.946722 255.358125 
L 546.946722 22.318125 
L 315.271447 22.318125 
z
" style="fill:#ffffff;"/>
   </g>
   <g id="matplotlib.axis_3">
    <g id="xtick_6">
     <g id="line2d_28">
      <g>
       <use style="stroke:#000000;stroke-width:0.8;" x="337.875042" xlink:href="#m4c44e1c480" y="255.358125"/>
      </g>
     </g>
     <g id="text_18">
      <!-- 0.08 -->
      <g transform="translate(326.74223 269.956562)scale(0.1 -0.1)">
       <use xlink:href="#DejaVuSans-48"/>
       <use x="63.623047" xlink:href="#DejaVuSans-46"/>
       <use x="95.410156" xlink:href="#DejaVuSans-48"/>
       <use x="159.033203" xlink:href="#DejaVuSans-56"/>
      </g>
     </g>
    </g>
    <g id="xtick_7">
     <g id="line2d_29">
      <g>
       <use style="stroke:#000000;stroke-width:0.8;" x="379.114961" xlink:href="#m4c44e1c480" y="255.358125"/>
      </g>
     </g>
     <g id="text_19">
      <!-- 1 -->
      <g transform="translate(375.933711 269.956562)scale(0.1 -0.1)">
       <use xlink:href="#DejaVuSans-49"/>
      </g>
     </g>
    </g>
    <g id="xtick_8">
     <g id="line2d_30">
      <g>
       <use style="stroke:#000000;stroke-width:0.8;" x="420.354879" xlink:href="#m4c44e1c480" y="255.358125"/>
      </g>
     </g>
     <g id="text_20">
      <!-- 1e+01 -->
      <g transform="translate(403.544723 269.956562)scale(0.1 -0.1)">
       <use xlink:href="#DejaVuSans-49"/>
       <use x="63.623047" xlink:href="#DejaVuSans-101"/>
       <use x="125.146484" xlink:href="#DejaVuSans-43"/>
       <use x="208.935547" xlink:href="#DejaVuSans-48"/>
       <use x="272.558594" xlink:href="#DejaVuSans-49"/>
      </g>
     </g>
    </g>
    <g id="xtick_9">
     <g id="line2d_31">
      <g>
       <use style="stroke:#000000;stroke-width:0.8;" x="461.594798" xlink:href="#m4c44e1c480" y="255.358125"/>
      </g>
     </g>
     <g id="text_21">
      <!-- 1e+02 -->
      <g transform="translate(444.784641 269.956562)scale(0.1 -0.1)">
       <use xlink:href="#DejaVuSans-49"/>
       <use x="63.623047" xlink:href="#DejaVuSans-101"/>
       <use x="125.146484" xlink:href="#DejaVuSans-43"/>
       <use x="208.935547" xlink:href="#DejaVuSans-48"/>
       <use x="272.558594" xlink:href="#DejaVuSans-50"/>
      </g>
     </g>
    </g>
    <g id="xtick_10">
     <g id="line2d_32">
      <g>
       <use style="stroke:#000000;stroke-width:0.8;" x="502.834716" xlink:href="#m4c44e1c480" y="255.358125"/>
      </g>
     </g>
     <g id="text_22">
      <!-- 2e+03 -->
      <g transform="translate(486.02456 269.956562)scale(0.1 -0.1)">
       <use xlink:href="#DejaVuSans-50"/>
       <use x="63.623047" xlink:href="#DejaVuSans-101"/>
       <use x="125.146484" xlink:href="#DejaVuSans-43"/>
       <use x="208.935547" xlink:href="#DejaVuSans-48"/>
       <use x="272.558594" xlink:href="#DejaVuSans-51"/>
      </g>
     </g>
    </g>
    <g id="xtick_11">
     <g id="line2d_33">
      <g>
       <use style="stroke:#000000;stroke-width:0.8;" x="544.074634" xlink:href="#m4c44e1c480" y="255.358125"/>
      </g>
     </g>
     <g id="text_23">
      <!-- 2e+04 -->
      <g transform="translate(527.264478 269.956562)scale(0.1 -0.1)">
       <use xlink:href="#DejaVuSans-50"/>
       <use x="63.623047" xlink:href="#DejaVuSans-101"/>
       <use x="125.146484" xlink:href="#DejaVuSans-43"/>
       <use x="208.935547" xlink:href="#DejaVuSans-48"/>
       <use x="272.558594" xlink:href="#DejaVuSans-52"/>
      </g>
     </g>
    </g>
   </g>
   <g id="matplotlib.axis_4">
    <g id="ytick_7">
     <g id="line2d_34">
      <g>
       <use style="stroke:#000000;stroke-width:0.8;" x="315.271447" xlink:href="#m3d3bebf22a" y="255.358125"/>
      </g>
     </g>
     <g id="text_24">
      <!-- 0 -->
      <g transform="translate(301.908947 259.157344)scale(0.1 -0.1)">
       <use xlink:href="#DejaVuSans-48"/>
      </g>
     </g>
    </g>
    <g id="ytick_8">
     <g id="line2d_35">
      <g>
       <use style="stroke:#000000;stroke-width:0.8;" x="315.271447" xlink:href="#m3d3bebf22a" y="206.602445"/>
      </g>
     </g>
     <g id="text_25">
      <!-- 1 -->
      <g transform="translate(301.908947 210.401663)scale(0.1 -0.1)">
       <use xlink:href="#DejaVuSans-49"/>
      </g>
     </g>
    </g>
    <g id="ytick_9">
     <g id="line2d_36">
      <g>
       <use style="stroke:#000000;stroke-width:0.8;" x="315.271447" xlink:href="#m3d3bebf22a" y="157.846764"/>
      </g>
     </g>
     <g id="text_26">
      <!-- 2 -->
      <g transform="translate(301.908947 161.645983)scale(0.1 -0.1)">
       <use xlink:href="#DejaVuSans-50"/>
      </g>
     </g>
    </g>
    <g id="ytick_10">
     <g id="line2d_37">
      <g>
       <use style="stroke:#000000;stroke-width:0.8;" x="315.271447" xlink:href="#m3d3bebf22a" y="109.091084"/>
      </g>
     </g>
     <g id="text_27">
      <!-- 3 -->
      <g transform="translate(301.908947 112.890303)scale(0.1 -0.1)">
       <use xlink:href="#DejaVuSans-51"/>
      </g>
     </g>
    </g>
    <g id="ytick_11">
     <g id="line2d_38">
      <g>
       <use style="stroke:#000000;stroke-width:0.8;" x="315.271447" xlink:href="#m3d3bebf22a" y="60.335404"/>
      </g>
     </g>
     <g id="text_28">
      <!-- 4 -->
      <g transform="translate(301.908947 64.134622)scale(0.1 -0.1)">
       <use xlink:href="#DejaVuSans-52"/>
      </g>
     </g>
    </g>
   </g>
   <g id="line2d_39">
    <path clip-path="url(#p42c37625cf)" d="M 331.343777 250.841641 
L 332.706706 255.358125 
L 334.069636 140.925369 
L 335.432565 113.273985 
L 336.795494 196.77037 
L 338.158424 231.84199 
L 339.521353 239.545517 
L 340.884282 250.095242 
L 342.247212 244.517751 
L 343.610141 252.308769 
L 344.97307 252.272428 
L 346.336 255.358125 
L 347.698929 253.68813 
L 349.061858 255.116306 
L 350.424788 253.319483 
L 351.787717 254.505847 
L 353.150646 254.264318 
L 354.513576 255.358125 
L 355.876505 254.976463 
L 357.239434 253.839254 
L 358.602364 255.358125 
L 477.177215 255.358125 
L 478.540145 255.244319 
L 479.903074 255.358125 
L 481.266003 255.223157 
L 482.628933 255.358125 
L 483.991862 255.194854 
L 485.354791 255.358125 
L 486.717721 255.155892 
L 488.08065 255.358125 
L 489.443579 255.100313 
L 490.806509 255.358125 
L 492.169438 255.017379 
L 493.532367 255.358125 
L 494.895297 254.886125 
L 496.258226 255.358125 
L 497.621155 254.660924 
L 498.984084 255.358125 
L 500.347014 254.222044 
L 501.709943 255.358125 
L 503.072872 251.719594 
L 504.435802 255.358125 
L 504.435802 255.358125 
" style="fill:none;stroke:#1f77b4;stroke-linecap:square;stroke-width:1.5;"/>
   </g>
   <g id="line2d_40">
    <path clip-path="url(#p42c37625cf)" d="M 415.832115 255.348218 
L 420.579514 255.222369 
L 426.276391 254.862384 
L 429.12483 255.01545 
L 433.872228 255.317196 
L 440.518586 255.358037 
L 483.245169 255.272355 
L 485.144128 255.071989 
L 487.043087 254.628777 
L 488.942047 253.894333 
L 490.841006 252.893716 
L 491.790486 252.265344 
L 492.739965 251.483069 
L 493.689445 250.454055 
L 494.638924 249.066359 
L 495.588404 247.216644 
L 496.537884 244.845678 
L 497.487363 241.971317 
L 501.285282 228.840685 
L 502.234761 226.360285 
L 503.184241 224.563397 
L 504.133721 223.471258 
L 505.0832 223.011886 
L 506.03268 223.04913 
L 506.98216 223.414694 
L 508.881119 224.435199 
L 509.830598 224.773108 
L 510.780078 224.832738 
L 511.729558 224.559341 
L 512.679037 223.983825 
L 514.577997 222.555686 
L 515.527476 222.219097 
L 516.476956 222.51134 
L 517.426435 223.636485 
L 518.375915 225.663985 
L 519.325395 228.506387 
L 521.224354 235.662356 
L 523.123313 242.784222 
L 524.072793 245.764863 
L 525.022272 248.236284 
L 525.971752 250.206464 
L 526.921232 251.728696 
L 527.870711 252.873991 
L 528.820191 253.71337 
L 529.769671 254.310284 
L 530.71915 254.71941 
L 532.618109 255.154465 
L 534.517069 255.306248 
L 536.416028 255.345517 
L 536.416028 255.345517 
" style="fill:none;stroke:#1f77b4;stroke-dasharray:1.5,2.475;stroke-dashoffset:0;stroke-width:1.5;"/>
   </g>
   <g id="line2d_41">
    <path clip-path="url(#p42c37625cf)" d="M 330.272209 248.868841 
L 331.732079 255.358125 
L 333.191949 107.803679 
L 334.65182 33.415268 
L 336.11169 181.327223 
L 337.57156 220.655103 
L 339.03143 237.472548 
L 340.4913 247.293792 
L 341.95117 249.99273 
L 343.41104 250.357952 
L 346.330781 255.358125 
L 347.790651 254.401437 
L 349.250521 255.205751 
L 350.710391 253.098979 
L 352.170261 254.756634 
L 355.090002 255.358125 
L 356.549872 254.453156 
L 358.009742 255.158274 
L 360.929482 255.358125 
L 365.309093 255.329574 
L 371.148574 255.33988 
L 381.367665 255.358125 
L 394.506496 255.348213 
L 410.565068 255.358125 
L 426.62364 255.348135 
L 442.682211 255.358125 
L 455.821043 255.341305 
L 466.040134 255.358125 
L 473.339485 255.326341 
L 477.719095 255.358125 
L 482.098706 255.307471 
L 483.558576 255.358125 
L 485.018446 255.297013 
L 486.478316 255.358125 
L 487.938186 255.282802 
L 489.398056 255.358125 
L 490.857927 255.26273 
L 492.317797 255.358125 
L 493.777667 255.232574 
L 495.237537 255.358125 
L 496.697407 255.1806 
L 498.157277 255.358125 
L 499.617148 254.754483 
L 501.077018 254.981924 
L 502.536888 254.213093 
L 503.996758 255.358125 
L 505.456628 254.95869 
L 506.916498 255.358125 
L 508.376368 254.007214 
L 509.836239 255.358125 
L 511.296109 254.192703 
L 512.755979 255.358125 
L 514.215849 251.491824 
L 515.675719 255.358125 
L 515.675719 255.358125 
" style="fill:none;stroke:#ff7f0e;stroke-linecap:square;stroke-width:1.5;"/>
   </g>
   <g id="line2d_42">
    <path clip-path="url(#p42c37625cf)" d="M 325.802141 255.344924 
L 327.435538 255.271925 
L 329.068935 254.970232 
L 330.702332 254.198039 
L 332.335729 253.045317 
L 333.969126 252.265234 
L 335.602523 252.525383 
L 338.869316 254.358854 
L 340.502713 254.849493 
L 343.769507 255.210253 
L 347.036301 255.287425 
L 351.936491 255.296891 
L 358.470079 255.357992 
L 417.272367 255.271185 
L 422.172557 255.11854 
L 428.706145 255.290431 
L 435.239732 255.35801 
L 471.174464 255.295509 
L 474.441257 255.021021 
L 477.708051 254.721209 
L 480.974845 254.540277 
L 482.608242 254.289738 
L 484.241639 253.673832 
L 485.875035 252.509047 
L 487.508432 250.733894 
L 489.141829 248.486212 
L 492.408623 243.51684 
L 494.04202 240.722564 
L 495.675417 237.289918 
L 498.94221 228.643421 
L 500.575607 225.132474 
L 502.209004 223.260296 
L 503.842401 222.839696 
L 505.475798 223.371737 
L 507.109195 224.550586 
L 508.742592 225.978479 
L 510.375989 226.96053 
L 512.009386 227.222983 
L 513.642782 227.695246 
L 515.276179 229.933833 
L 516.909576 234.492388 
L 520.17637 245.881202 
L 521.809767 249.98617 
L 523.443164 252.46364 
L 525.076561 253.760542 
L 526.709957 254.480595 
L 528.343354 254.948273 
L 529.976751 255.21695 
L 533.243545 255.35173 
L 533.243545 255.35173 
" style="fill:none;stroke:#ff7f0e;stroke-dasharray:1.5,2.475;stroke-dashoffset:0;stroke-width:1.5;"/>
   </g>
   <g id="line2d_43">
    <path clip-path="url(#p42c37625cf)" d="M 329.56423 255.08628 
L 331.046258 246.014736 
L 332.528287 195.30469 
L 334.010315 118.661517 
L 335.492344 140.945907 
L 336.974372 180.671286 
L 338.4564 208.879235 
L 339.938429 228.84025 
L 341.420457 235.271504 
L 342.902486 239.658306 
L 344.384514 244.471215 
L 345.866542 252.150937 
L 347.348571 253.503118 
L 348.830599 252.297583 
L 350.312628 251.61781 
L 351.794656 251.86192 
L 354.758713 254.953269 
L 356.240741 255.358125 
L 368.096968 255.358125 
L 388.845366 255.358125 
L 424.414048 255.358125 
L 473.320985 255.351417 
L 495.551411 255.358125 
L 498.515468 255.358125 
L 499.997496 255.171286 
L 501.479524 254.16244 
L 502.961553 252.617768 
L 504.443581 254.63099 
L 505.92561 255.297058 
L 508.889666 255.313535 
L 510.371695 255.358125 
L 511.853723 255.030806 
L 514.81778 252.850124 
L 516.299808 254.789211 
L 517.781837 255.24085 
L 517.781837 255.24085 
" style="fill:none;stroke:#2ca02c;stroke-linecap:square;stroke-width:1.5;"/>
   </g>
   <g id="line2d_44">
    <path clip-path="url(#p42c37625cf)" d="M 472.711611 255.353858 
L 476.525928 255.258842 
L 479.863455 254.917427 
L 482.724192 254.491829 
L 484.15456 254.061308 
L 485.10814 253.568737 
L 486.061719 252.8363 
L 487.015298 251.845691 
L 490.829614 247.411909 
L 492.736772 245.667335 
L 493.690352 244.446084 
L 494.643931 242.769669 
L 495.59751 240.585624 
L 497.027878 236.494648 
L 499.411826 229.198814 
L 500.365405 226.961405 
L 501.318984 225.437248 
L 502.272563 224.572922 
L 503.226143 224.107861 
L 507.517249 222.58884 
L 509.424407 222.609207 
L 512.285144 222.722946 
L 513.238723 223.051615 
L 514.192302 223.739886 
L 515.145881 224.977245 
L 516.09946 226.958943 
L 517.05304 229.784793 
L 518.006619 233.373735 
L 521.344146 247.033457 
L 522.297725 249.744508 
L 523.251304 251.666607 
L 524.204883 252.935988 
L 525.158462 253.753396 
L 526.112041 254.296426 
L 527.54241 254.825406 
L 528.972778 255.134707 
L 530.879937 255.31094 
L 533.263884 255.353536 
L 533.263884 255.353536 
" style="fill:none;stroke:#2ca02c;stroke-dasharray:1.5,2.475;stroke-dashoffset:0;stroke-width:1.5;"/>
   </g>
   <g id="line2d_45">
    <path clip-path="url(#p42c37625cf)" d="M 329.730629 255.099969 
L 330.138264 254.572373 
L 330.342082 254.013707 
L 330.749717 251.75513 
L 331.157352 246.83296 
L 331.564988 237.529997 
L 331.972623 222.306359 
L 332.584076 188.19442 
L 333.603165 126.468841 
L 334.0108 113.124297 
L 334.214618 110.297625 
L 334.418436 109.998017 
L 334.622253 111.989112 
L 335.029889 121.326683 
L 337.068066 182.825404 
L 338.290972 207.430689 
L 339.106243 220.56569 
L 339.717696 227.634411 
L 340.329149 232.120687 
L 340.736785 233.769918 
L 341.14442 234.64867 
L 341.959691 235.862641 
L 342.367326 236.882998 
L 343.182597 239.75242 
L 344.405503 244.797016 
L 346.036045 252.714904 
L 346.44368 253.529526 
L 346.647498 253.684375 
L 346.851316 253.694504 
L 347.258951 253.395928 
L 348.27804 252.312905 
L 348.685675 252.180173 
L 349.704763 252.087633 
L 351.335305 251.446011 
L 351.946758 251.578981 
L 352.354394 251.880798 
L 352.965847 252.712641 
L 354.188753 254.647521 
L 354.800206 255.116154 
L 355.411659 255.236771 
L 355.615477 255.198689 
L 355.615477 255.198689 
" style="fill:none;stroke:#d62728;stroke-linecap:square;stroke-width:1.5;"/>
   </g>
   <g id="line2d_46">
    <path clip-path="url(#p42c37625cf)" d="M 456.215002 254.954925 
L 458.611995 254.792625 
L 460.409739 254.47691 
L 462.207484 253.950012 
L 464.005229 253.158138 
L 465.802973 252.04766 
L 467.600718 250.581383 
L 469.398463 248.757138 
L 471.196207 246.624777 
L 477.188689 239.134734 
L 478.387186 238.018679 
L 479.585682 237.168794 
L 480.784179 236.623261 
L 481.982675 236.400661 
L 483.181172 236.497134 
L 484.379668 236.885582 
L 485.578164 237.517074 
L 487.375909 238.769264 
L 490.37215 240.975434 
L 491.570647 241.657749 
L 492.769143 242.12398 
L 493.967639 242.331651 
L 495.166136 242.261897 
L 496.364632 241.921051 
L 497.563129 241.34011 
L 499.360873 240.13955 
L 502.956363 237.517074 
L 504.154859 236.885582 
L 505.353356 236.497134 
L 506.551852 236.400661 
L 507.750348 236.623261 
L 508.948845 237.168794 
L 510.147341 238.018679 
L 511.345838 239.134734 
L 513.143582 241.18846 
L 519.735313 249.403139 
L 521.533057 251.110734 
L 523.330802 252.456055 
L 525.128547 253.455014 
L 526.926291 254.152298 
L 528.724036 254.603207 
L 530.521781 254.858695 
L 532.319525 254.954925 
L 532.319525 254.954925 
" style="fill:none;stroke:#d62728;stroke-dasharray:1.5,2.475;stroke-dashoffset:0;stroke-width:1.5;"/>
   </g>
   <g id="patch_7">
    <path d="M 315.271447 255.358125 
L 315.271447 22.318125 
" style="fill:none;stroke:#000000;stroke-linecap:square;stroke-linejoin:miter;stroke-width:0.8;"/>
   </g>
   <g id="patch_8">
    <path d="M 315.271447 255.358125 
L 546.946722 255.358125 
" style="fill:none;stroke:#000000;stroke-linecap:square;stroke-linejoin:miter;stroke-width:0.8;"/>
   </g>
   <g id="text_29">
    <!-- 30 - 50 -->
    <g transform="translate(409.860647 16.318125)scale(0.12 -0.12)">
     <use xlink:href="#DejaVuSans-51"/>
     <use x="63.623047" xlink:href="#DejaVuSans-48"/>
     <use x="127.246094" xlink:href="#DejaVuSans-32"/>
     <use x="159.033203" xlink:href="#DejaVuSans-45"/>
     <use x="195.117188" xlink:href="#DejaVuSans-32"/>
     <use x="226.904297" xlink:href="#DejaVuSans-53"/>
     <use x="290.527344" xlink:href="#DejaVuSans-48"/>
    </g>
   </g>
  </g>
  <g id="axes_3">
   <g id="patch_9">
    <path d="M 43.78125 530.918125 
L 275.456525 530.918125 
L 275.456525 297.878125 
L 43.78125 297.878125 
z
" style="fill:#ffffff;"/>
   </g>
   <g id="matplotlib.axis_5">
    <g id="xtick_12">
     <g id="line2d_47">
      <g>
       <use style="stroke:#000000;stroke-width:0.8;" x="67.648319" xlink:href="#m4c44e1c480" y="530.918125"/>
      </g>
     </g>
     <g id="text_30">
      <!-- 0.08 -->
      <g transform="translate(56.515507 545.516562)scale(0.1 -0.1)">
       <use xlink:href="#DejaVuSans-48"/>
       <use x="63.623047" xlink:href="#DejaVuSans-46"/>
       <use x="95.410156" xlink:href="#DejaVuSans-48"/>
       <use x="159.033203" xlink:href="#DejaVuSans-56"/>
      </g>
     </g>
    </g>
    <g id="xtick_13">
     <g id="line2d_48">
      <g>
       <use style="stroke:#000000;stroke-width:0.8;" x="108.955328" xlink:href="#m4c44e1c480" y="530.918125"/>
      </g>
     </g>
     <g id="text_31">
      <!-- 1 -->
      <g transform="translate(105.774078 545.516562)scale(0.1 -0.1)">
       <use xlink:href="#DejaVuSans-49"/>
      </g>
     </g>
    </g>
    <g id="xtick_14">
     <g id="line2d_49">
      <g>
       <use style="stroke:#000000;stroke-width:0.8;" x="150.262337" xlink:href="#m4c44e1c480" y="530.918125"/>
      </g>
     </g>
     <g id="text_32">
      <!-- 1e+01 -->
      <g transform="translate(133.452181 545.516562)scale(0.1 -0.1)">
       <use xlink:href="#DejaVuSans-49"/>
       <use x="63.623047" xlink:href="#DejaVuSans-101"/>
       <use x="125.146484" xlink:href="#DejaVuSans-43"/>
       <use x="208.935547" xlink:href="#DejaVuSans-48"/>
       <use x="272.558594" xlink:href="#DejaVuSans-49"/>
      </g>
     </g>
    </g>
    <g id="xtick_15">
     <g id="line2d_50">
      <g>
       <use style="stroke:#000000;stroke-width:0.8;" x="191.569346" xlink:href="#m4c44e1c480" y="530.918125"/>
      </g>
     </g>
     <g id="text_33">
      <!-- 1e+02 -->
      <g transform="translate(174.75919 545.516562)scale(0.1 -0.1)">
       <use xlink:href="#DejaVuSans-49"/>
       <use x="63.623047" xlink:href="#DejaVuSans-101"/>
       <use x="125.146484" xlink:href="#DejaVuSans-43"/>
       <use x="208.935547" xlink:href="#DejaVuSans-48"/>
       <use x="272.558594" xlink:href="#DejaVuSans-50"/>
      </g>
     </g>
    </g>
    <g id="xtick_16">
     <g id="line2d_51">
      <g>
       <use style="stroke:#000000;stroke-width:0.8;" x="232.876355" xlink:href="#m4c44e1c480" y="530.918125"/>
      </g>
     </g>
     <g id="text_34">
      <!-- 2e+03 -->
      <g transform="translate(216.066199 545.516562)scale(0.1 -0.1)">
       <use xlink:href="#DejaVuSans-50"/>
       <use x="63.623047" xlink:href="#DejaVuSans-101"/>
       <use x="125.146484" xlink:href="#DejaVuSans-43"/>
       <use x="208.935547" xlink:href="#DejaVuSans-48"/>
       <use x="272.558594" xlink:href="#DejaVuSans-51"/>
      </g>
     </g>
    </g>
    <g id="xtick_17">
     <g id="line2d_52">
      <g>
       <use style="stroke:#000000;stroke-width:0.8;" x="274.183364" xlink:href="#m4c44e1c480" y="530.918125"/>
      </g>
     </g>
     <g id="text_35">
      <!-- 2e+04 -->
      <g transform="translate(257.373207 545.516562)scale(0.1 -0.1)">
       <use xlink:href="#DejaVuSans-50"/>
       <use x="63.623047" xlink:href="#DejaVuSans-101"/>
       <use x="125.146484" xlink:href="#DejaVuSans-43"/>
       <use x="208.935547" xlink:href="#DejaVuSans-48"/>
       <use x="272.558594" xlink:href="#DejaVuSans-52"/>
      </g>
     </g>
    </g>
    <g id="text_36">
     <!-- Pr(somatic) (PHRED) -->
     <defs>
      <path d="M 19.671875 64.796875 
L 19.671875 37.40625 
L 32.078125 37.40625 
Q 38.96875 37.40625 42.71875 40.96875 
Q 46.484375 44.53125 46.484375 51.125 
Q 46.484375 57.671875 42.71875 61.234375 
Q 38.96875 64.796875 32.078125 64.796875 
z
M 9.8125 72.90625 
L 32.078125 72.90625 
Q 44.34375 72.90625 50.609375 67.359375 
Q 56.890625 61.8125 56.890625 51.125 
Q 56.890625 40.328125 50.609375 34.8125 
Q 44.34375 29.296875 32.078125 29.296875 
L 19.671875 29.296875 
L 19.671875 0 
L 9.8125 0 
z
" id="DejaVuSans-80"/>
      <path d="M 31 75.875 
Q 24.46875 64.65625 21.28125 53.65625 
Q 18.109375 42.671875 18.109375 31.390625 
Q 18.109375 20.125 21.3125 9.0625 
Q 24.515625 -2 31 -13.1875 
L 23.1875 -13.1875 
Q 15.875 -1.703125 12.234375 9.375 
Q 8.59375 20.453125 8.59375 31.390625 
Q 8.59375 42.28125 12.203125 53.3125 
Q 15.828125 64.359375 23.1875 75.875 
z
" id="DejaVuSans-40"/>
      <path d="M 8.015625 75.875 
L 15.828125 75.875 
Q 23.140625 64.359375 26.78125 53.3125 
Q 30.421875 42.28125 30.421875 31.390625 
Q 30.421875 20.453125 26.78125 9.375 
Q 23.140625 -1.703125 15.828125 -13.1875 
L 8.015625 -13.1875 
Q 14.5 -2 17.703125 9.0625 
Q 20.90625 20.125 20.90625 31.390625 
Q 20.90625 42.671875 17.703125 53.65625 
Q 14.5 64.65625 8.015625 75.875 
z
" id="DejaVuSans-41"/>
      <path d="M 9.8125 72.90625 
L 19.671875 72.90625 
L 19.671875 43.015625 
L 55.515625 43.015625 
L 55.515625 72.90625 
L 65.375 72.90625 
L 65.375 0 
L 55.515625 0 
L 55.515625 34.71875 
L 19.671875 34.71875 
L 19.671875 0 
L 9.8125 0 
z
" id="DejaVuSans-72"/>
      <path d="M 44.390625 34.1875 
Q 47.5625 33.109375 50.5625 29.59375 
Q 53.5625 26.078125 56.59375 19.921875 
L 66.609375 0 
L 56 0 
L 46.6875 18.703125 
Q 43.0625 26.03125 39.671875 28.421875 
Q 36.28125 30.8125 30.421875 30.8125 
L 19.671875 30.8125 
L 19.671875 0 
L 9.8125 0 
L 9.8125 72.90625 
L 32.078125 72.90625 
Q 44.578125 72.90625 50.734375 67.671875 
Q 56.890625 62.453125 56.890625 51.90625 
Q 56.890625 45.015625 53.6875 40.46875 
Q 50.484375 35.9375 44.390625 34.1875 
z
M 19.671875 64.796875 
L 19.671875 38.921875 
L 32.078125 38.921875 
Q 39.203125 38.921875 42.84375 42.21875 
Q 46.484375 45.515625 46.484375 51.90625 
Q 46.484375 58.296875 42.84375 61.546875 
Q 39.203125 64.796875 32.078125 64.796875 
z
" id="DejaVuSans-82"/>
      <path d="M 9.8125 72.90625 
L 55.90625 72.90625 
L 55.90625 64.59375 
L 19.671875 64.59375 
L 19.671875 43.015625 
L 54.390625 43.015625 
L 54.390625 34.71875 
L 19.671875 34.71875 
L 19.671875 8.296875 
L 56.78125 8.296875 
L 56.78125 0 
L 9.8125 0 
z
" id="DejaVuSans-69"/>
      <path d="M 19.671875 64.796875 
L 19.671875 8.109375 
L 31.59375 8.109375 
Q 46.6875 8.109375 53.6875 14.9375 
Q 60.6875 21.78125 60.6875 36.53125 
Q 60.6875 51.171875 53.6875 57.984375 
Q 46.6875 64.796875 31.59375 64.796875 
z
M 9.8125 72.90625 
L 30.078125 72.90625 
Q 51.265625 72.90625 61.171875 64.09375 
Q 71.09375 55.28125 71.09375 36.53125 
Q 71.09375 17.671875 61.125 8.828125 
Q 51.171875 0 30.078125 0 
L 9.8125 0 
z
" id="DejaVuSans-68"/>
     </defs>
     <g transform="translate(108.2017 559.194687)scale(0.1 -0.1)">
      <use xlink:href="#DejaVuSans-80"/>
      <use x="60.287109" xlink:href="#DejaVuSans-114"/>
      <use x="101.400391" xlink:href="#DejaVuSans-40"/>
      <use x="140.414062" xlink:href="#DejaVuSans-115"/>
      <use x="192.513672" xlink:href="#DejaVuSans-111"/>
      <use x="253.695312" xlink:href="#DejaVuSans-109"/>
      <use x="351.107422" xlink:href="#DejaVuSans-97"/>
      <use x="412.386719" xlink:href="#DejaVuSans-116"/>
      <use x="451.595703" xlink:href="#DejaVuSans-105"/>
      <use x="479.378906" xlink:href="#DejaVuSans-99"/>
      <use x="534.359375" xlink:href="#DejaVuSans-41"/>
      <use x="573.373047" xlink:href="#DejaVuSans-32"/>
      <use x="605.160156" xlink:href="#DejaVuSans-40"/>
      <use x="644.173828" xlink:href="#DejaVuSans-80"/>
      <use x="704.476562" xlink:href="#DejaVuSans-72"/>
      <use x="779.671875" xlink:href="#DejaVuSans-82"/>
      <use x="849.154297" xlink:href="#DejaVuSans-69"/>
      <use x="912.337891" xlink:href="#DejaVuSans-68"/>
      <use x="989.339844" xlink:href="#DejaVuSans-41"/>
     </g>
    </g>
   </g>
   <g id="matplotlib.axis_6">
    <g id="ytick_12">
     <g id="line2d_53">
      <g>
       <use style="stroke:#000000;stroke-width:0.8;" x="43.78125" xlink:href="#m3d3bebf22a" y="530.918125"/>
      </g>
     </g>
     <g id="text_37">
      <!-- 0.0 -->
      <g transform="translate(20.878125 534.717344)scale(0.1 -0.1)">
       <use xlink:href="#DejaVuSans-48"/>
       <use x="63.623047" xlink:href="#DejaVuSans-46"/>
       <use x="95.410156" xlink:href="#DejaVuSans-48"/>
      </g>
     </g>
    </g>
    <g id="ytick_13">
     <g id="line2d_54">
      <g>
       <use style="stroke:#000000;stroke-width:0.8;" x="43.78125" xlink:href="#m3d3bebf22a" y="499.092928"/>
      </g>
     </g>
     <g id="text_38">
      <!-- 0.5 -->
      <g transform="translate(20.878125 502.892147)scale(0.1 -0.1)">
       <use xlink:href="#DejaVuSans-48"/>
       <use x="63.623047" xlink:href="#DejaVuSans-46"/>
       <use x="95.410156" xlink:href="#DejaVuSans-53"/>
      </g>
     </g>
    </g>
    <g id="ytick_14">
     <g id="line2d_55">
      <g>
       <use style="stroke:#000000;stroke-width:0.8;" x="43.78125" xlink:href="#m3d3bebf22a" y="467.267732"/>
      </g>
     </g>
     <g id="text_39">
      <!-- 1.0 -->
      <g transform="translate(20.878125 471.066951)scale(0.1 -0.1)">
       <use xlink:href="#DejaVuSans-49"/>
       <use x="63.623047" xlink:href="#DejaVuSans-46"/>
       <use x="95.410156" xlink:href="#DejaVuSans-48"/>
      </g>
     </g>
    </g>
    <g id="ytick_15">
     <g id="line2d_56">
      <g>
       <use style="stroke:#000000;stroke-width:0.8;" x="43.78125" xlink:href="#m3d3bebf22a" y="435.442535"/>
      </g>
     </g>
     <g id="text_40">
      <!-- 1.5 -->
      <g transform="translate(20.878125 439.241754)scale(0.1 -0.1)">
       <use xlink:href="#DejaVuSans-49"/>
       <use x="63.623047" xlink:href="#DejaVuSans-46"/>
       <use x="95.410156" xlink:href="#DejaVuSans-53"/>
      </g>
     </g>
    </g>
    <g id="ytick_16">
     <g id="line2d_57">
      <g>
       <use style="stroke:#000000;stroke-width:0.8;" x="43.78125" xlink:href="#m3d3bebf22a" y="403.617339"/>
      </g>
     </g>
     <g id="text_41">
      <!-- 2.0 -->
      <g transform="translate(20.878125 407.416558)scale(0.1 -0.1)">
       <use xlink:href="#DejaVuSans-50"/>
       <use x="63.623047" xlink:href="#DejaVuSans-46"/>
       <use x="95.410156" xlink:href="#DejaVuSans-48"/>
      </g>
     </g>
    </g>
    <g id="ytick_17">
     <g id="line2d_58">
      <g>
       <use style="stroke:#000000;stroke-width:0.8;" x="43.78125" xlink:href="#m3d3bebf22a" y="371.792142"/>
      </g>
     </g>
     <g id="text_42">
      <!-- 2.5 -->
      <g transform="translate(20.878125 375.591361)scale(0.1 -0.1)">
       <use xlink:href="#DejaVuSans-50"/>
       <use x="63.623047" xlink:href="#DejaVuSans-46"/>
       <use x="95.410156" xlink:href="#DejaVuSans-53"/>
      </g>
     </g>
    </g>
    <g id="ytick_18">
     <g id="line2d_59">
      <g>
       <use style="stroke:#000000;stroke-width:0.8;" x="43.78125" xlink:href="#m3d3bebf22a" y="339.966946"/>
      </g>
     </g>
     <g id="text_43">
      <!-- 3.0 -->
      <g transform="translate(20.878125 343.766164)scale(0.1 -0.1)">
       <use xlink:href="#DejaVuSans-51"/>
       <use x="63.623047" xlink:href="#DejaVuSans-46"/>
       <use x="95.410156" xlink:href="#DejaVuSans-48"/>
      </g>
     </g>
    </g>
    <g id="ytick_19">
     <g id="line2d_60">
      <g>
       <use style="stroke:#000000;stroke-width:0.8;" x="43.78125" xlink:href="#m3d3bebf22a" y="308.141749"/>
      </g>
     </g>
     <g id="text_44">
      <!-- 3.5 -->
      <g transform="translate(20.878125 311.940968)scale(0.1 -0.1)">
       <use xlink:href="#DejaVuSans-51"/>
       <use x="63.623047" xlink:href="#DejaVuSans-46"/>
       <use x="95.410156" xlink:href="#DejaVuSans-53"/>
      </g>
     </g>
    </g>
    <g id="text_45">
     <!-- density -->
     <g transform="translate(14.798438 432.730937)rotate(-90)scale(0.1 -0.1)">
      <use xlink:href="#DejaVuSans-100"/>
      <use x="63.476562" xlink:href="#DejaVuSans-101"/>
      <use x="125" xlink:href="#DejaVuSans-110"/>
      <use x="188.378906" xlink:href="#DejaVuSans-115"/>
      <use x="240.478516" xlink:href="#DejaVuSans-105"/>
      <use x="268.261719" xlink:href="#DejaVuSans-116"/>
      <use x="307.470703" xlink:href="#DejaVuSans-121"/>
     </g>
    </g>
   </g>
   <g id="line2d_61">
    <path clip-path="url(#p4bed4f3ce9)" d="M 57.054358 530.429195 
L 57.521357 530.240172 
L 57.988356 529.799673 
L 58.455355 529.004232 
L 58.922354 527.696289 
L 59.389353 525.66357 
L 59.856352 522.646275 
L 60.323351 518.356264 
L 61.023849 508.932041 
L 61.724348 495.379138 
L 62.658346 471.29426 
L 64.292842 425.775242 
L 64.759841 416.647902 
L 65.22684 410.904269 
L 65.46034 409.449027 
L 65.693839 408.959196 
L 65.927339 409.411967 
L 66.160838 410.754638 
L 66.627837 415.767916 
L 67.328336 427.356057 
L 68.962832 457.075067 
L 70.130329 473.179748 
L 73.866321 518.934606 
L 74.56682 523.450378 
L 75.033819 525.197263 
L 75.500818 525.982666 
L 75.734317 526.036857 
L 75.967817 525.879021 
L 76.434816 524.973565 
L 76.901815 523.372788 
L 77.602313 519.986623 
L 79.23681 511.496258 
L 79.703808 510.151924 
L 79.937308 509.803998 
L 80.170807 509.690733 
L 80.404307 509.816222 
L 80.637806 510.176428 
L 81.104805 511.546138 
L 81.805304 514.85369 
L 83.6733 524.986844 
L 84.373798 527.527168 
L 85.074297 529.155631 
L 85.541296 529.821463 
L 86.008295 530.226358 
L 86.475294 530.420853 
L 86.708793 530.44807 
L 86.708793 530.44807 
" style="fill:none;stroke:#1f77b4;stroke-linecap:square;stroke-width:1.5;"/>
   </g>
   <g id="line2d_62">
    <path clip-path="url(#p4bed4f3ce9)" d="M 196.64508 530.696854 
L 197.637767 530.576977 
L 198.630454 530.220624 
L 199.623142 529.535149 
L 200.615829 528.418328 
L 201.608517 526.835547 
L 204.586579 521.319456 
L 205.082923 520.802451 
L 205.579266 520.528318 
L 206.07561 520.517757 
L 206.571954 520.771574 
L 207.068297 521.270587 
L 208.060985 522.843974 
L 210.542703 527.619893 
L 211.535391 528.992622 
L 212.528078 529.903951 
L 213.520765 530.436194 
L 214.513453 530.711511 
L 216.002484 530.870305 
L 219.47689 530.917485 
L 227.418389 530.816454 
L 228.411076 530.646173 
L 229.403764 530.258391 
L 230.396451 529.46491 
L 230.892795 528.837026 
L 231.389139 528.007127 
L 231.885482 526.939845 
L 232.87817 523.979413 
L 233.870857 519.841838 
L 234.863545 514.669254 
L 237.841607 497.988866 
L 238.834294 493.757312 
L 241.812356 482.671477 
L 242.805044 476.900734 
L 243.797731 469.537377 
L 245.286762 457.951392 
L 245.783106 454.924355 
L 246.27945 452.767595 
L 246.775793 451.707313 
L 247.272137 451.901856 
L 247.768481 453.424028 
L 248.264825 456.25373 
L 248.761168 460.281571 
L 249.753856 471.135971 
L 252.731918 507.868603 
L 253.724605 516.496466 
L 254.717293 522.561032 
L 255.70998 526.439968 
L 256.206324 527.736569 
L 256.702667 528.70258 
L 257.199011 529.4052 
L 258.191699 530.245589 
L 259.184386 530.609688 
L 259.68073 530.680827 
L 259.68073 530.680827 
" style="fill:none;stroke:#1f77b4;stroke-dasharray:1.5,2.475;stroke-dashoffset:0;stroke-width:1.5;"/>
   </g>
   <g id="line2d_63">
    <path clip-path="url(#p4bed4f3ce9)" d="M 60.403009 529.118746 
L 61.844945 523.668931 
L 63.286882 361.032928 
L 64.728818 308.975268 
L 66.170754 436.341051 
L 67.61269 480.935486 
L 69.054627 497.144168 
L 70.496563 499.114249 
L 71.938499 522.301406 
L 73.380435 529.236158 
L 74.822371 530.918125 
L 76.264308 530.661508 
L 77.706244 530.918125 
L 79.14818 528.362481 
L 80.590116 525.441522 
L 82.032053 530.679088 
L 83.473989 530.878201 
L 86.357861 530.918125 
L 90.68367 530.840291 
L 92.125606 530.918125 
L 93.567542 530.798123 
L 95.009478 530.918125 
L 96.451415 530.723587 
L 97.893351 530.918125 
L 99.335287 530.568952 
L 100.777223 530.918125 
L 102.21916 523.198564 
L 103.661096 530.640526 
L 105.103032 530.560498 
L 106.544968 530.918125 
L 107.986904 530.729348 
L 109.428841 530.918125 
L 110.870777 530.800863 
L 112.312713 530.918125 
L 113.754649 530.838515 
L 115.196585 530.918125 
L 116.638522 530.860626 
L 119.522394 530.874678 
L 123.848203 530.918125 
L 129.615948 530.918125 
L 136.825629 530.904481 
L 149.803055 530.918125 
L 171.432098 530.914846 
L 214.690184 530.918125 
L 224.783738 530.878985 
L 229.109547 530.918125 
L 230.551483 530.838157 
L 231.993419 530.918125 
L 233.435355 530.79851 
L 234.877291 530.918125 
L 236.319228 530.732352 
L 237.761164 530.918125 
L 239.2031 530.344749 
L 240.645036 527.113141 
L 242.086973 526.471602 
L 243.528909 530.918125 
L 243.528909 530.918125 
" style="fill:none;stroke:#ff7f0e;stroke-linecap:square;stroke-width:1.5;"/>
   </g>
   <g id="line2d_64">
    <path clip-path="url(#p4bed4f3ce9)" d="M 54.311944 530.889323 
L 55.96051 530.773217 
L 57.609076 530.368991 
L 59.257642 529.396812 
L 62.554773 526.237445 
L 64.203339 525.64155 
L 65.851905 526.453116 
L 69.149036 529.557536 
L 70.797602 530.429923 
L 72.446168 530.787233 
L 75.743299 530.914238 
L 130.145969 530.918125 
L 192.791467 530.859966 
L 199.38573 530.416557 
L 205.979993 530.875033 
L 209.277125 530.711363 
L 212.574256 530.174545 
L 214.222822 529.734284 
L 215.871388 529.073985 
L 217.519954 528.151624 
L 219.168519 526.97175 
L 220.817085 525.431484 
L 222.465651 523.328522 
L 224.114217 520.54124 
L 227.411348 513.676861 
L 229.059914 510.061643 
L 230.70848 505.909364 
L 232.357046 500.71011 
L 235.654177 488.675288 
L 237.302743 484.194377 
L 238.951309 481.979867 
L 240.599874 481.849702 
L 242.24844 483.178765 
L 243.897006 485.786338 
L 245.545572 490.099048 
L 247.194137 496.217495 
L 250.491269 510.400675 
L 252.139835 516.953622 
L 253.7884 522.50384 
L 255.436966 526.555909 
L 257.085532 529.009382 
L 258.734098 530.226869 
L 260.382663 530.716246 
L 262.031229 530.871589 
L 263.679795 530.906228 
L 263.679795 530.906228 
" style="fill:none;stroke:#ff7f0e;stroke-dasharray:1.5,2.475;stroke-dashoffset:0;stroke-width:1.5;"/>
   </g>
   <g id="line2d_65">
    <path clip-path="url(#p4bed4f3ce9)" d="M 56.756458 530.505111 
L 57.217812 530.279835 
L 57.679167 529.777751 
L 58.140521 528.863209 
L 58.601876 527.335707 
L 59.06323 524.932828 
L 59.524585 521.345058 
L 59.985939 516.245472 
L 60.677971 505.127284 
L 61.370003 489.363361 
L 62.292712 461.849218 
L 63.907453 411.521155 
L 64.368808 402.257059 
L 64.830162 397.372372 
L 65.060839 396.766762 
L 65.291517 397.409389 
L 65.522194 399.261416 
L 65.983549 406.212245 
L 66.67558 422.345374 
L 67.828967 451.162364 
L 68.520999 463.196387 
L 69.21303 470.798231 
L 70.597094 483.021511 
L 71.289126 491.630955 
L 73.134544 516.885192 
L 73.826576 523.134213 
L 74.28793 525.905775 
L 74.749285 527.688812 
L 75.210639 528.641002 
L 75.441317 528.851504 
L 75.671994 528.904727 
L 75.902671 528.811968 
L 76.364026 528.221601 
L 76.82538 527.133045 
L 77.517412 524.69296 
L 79.36283 516.969352 
L 79.824185 515.996893 
L 80.054862 515.796748 
L 80.285539 515.80071 
L 80.516217 516.00864 
L 80.977571 516.995276 
L 81.669603 519.571596 
L 83.284344 526.542641 
L 83.976376 528.542715 
L 84.668408 529.764271 
L 85.129762 530.227479 
L 85.591117 530.474624 
L 86.052471 530.539659 
L 86.052471 530.539659 
" style="fill:none;stroke:#2ca02c;stroke-linecap:square;stroke-width:1.5;"/>
   </g>
   <g id="line2d_66">
    <path clip-path="url(#p4bed4f3ce9)" d="M 210.581584 530.882225 
L 212.721121 530.767319 
L 214.004844 530.544787 
L 215.288566 530.110649 
L 216.572288 529.395131 
L 217.856011 528.398024 
L 223.846715 522.986442 
L 224.70253 521.897735 
L 225.558345 520.45782 
L 226.41416 518.587326 
L 227.269975 516.269339 
L 228.553697 512.110913 
L 231.121142 503.45155 
L 232.404864 500.088105 
L 233.688587 497.554539 
L 235.400216 494.899414 
L 237.967661 491.371015 
L 239.251383 489.942929 
L 240.963013 488.425475 
L 243.102551 486.510638 
L 244.386273 485.390576 
L 245.242088 484.928885 
L 245.669995 484.858088 
L 246.097903 484.927184 
L 246.52581 485.158431 
L 246.953718 485.570717 
L 247.381625 486.178797 
L 248.23744 488.017764 
L 249.093255 490.695578 
L 249.94907 494.150206 
L 251.232792 500.460114 
L 254.228144 516.261576 
L 255.511867 521.59426 
L 256.367682 524.347389 
L 257.223497 526.465583 
L 258.079312 528.01834 
L 258.935126 529.104529 
L 259.790941 529.83021 
L 260.646756 530.293225 
L 261.930479 530.668148 
L 263.642108 530.852491 
L 264.925831 530.883815 
L 264.925831 530.883815 
" style="fill:none;stroke:#2ca02c;stroke-dasharray:1.5,2.475;stroke-dashoffset:0;stroke-width:1.5;"/>
   </g>
   <g id="line2d_67">
    <path clip-path="url(#p4bed4f3ce9)" d="M 0 0 
" style="fill:none;stroke:#d62728;stroke-linecap:square;stroke-width:1.5;"/>
   </g>
   <g id="patch_10">
    <path d="M 43.78125 530.918125 
L 43.78125 297.878125 
" style="fill:none;stroke:#000000;stroke-linecap:square;stroke-linejoin:miter;stroke-width:0.8;"/>
   </g>
   <g id="patch_11">
    <path d="M 43.78125 530.918125 
L 275.456525 530.918125 
" style="fill:none;stroke:#000000;stroke-linecap:square;stroke-linejoin:miter;stroke-width:0.8;"/>
   </g>
   <g id="text_46">
    <!-- 50 - 70 -->
    <defs>
     <path d="M 8.203125 72.90625 
L 55.078125 72.90625 
L 55.078125 68.703125 
L 28.609375 0 
L 18.3125 0 
L 43.21875 64.59375 
L 8.203125 64.59375 
z
" id="DejaVuSans-55"/>
    </defs>
    <g transform="translate(138.37045 291.878125)scale(0.12 -0.12)">
     <use xlink:href="#DejaVuSans-53"/>
     <use x="63.623047" xlink:href="#DejaVuSans-48"/>
     <use x="127.246094" xlink:href="#DejaVuSans-32"/>
     <use x="159.033203" xlink:href="#DejaVuSans-45"/>
     <use x="195.117188" xlink:href="#DejaVuSans-32"/>
     <use x="226.904297" xlink:href="#DejaVuSans-55"/>
     <use x="290.527344" xlink:href="#DejaVuSans-48"/>
    </g>
   </g>
  </g>
  <g id="axes_4">
   <g id="patch_12">
    <path d="M 315.271447 530.918125 
L 546.946722 530.918125 
L 546.946722 297.878125 
L 315.271447 297.878125 
z
" style="fill:#ffffff;"/>
   </g>
   <g id="matplotlib.axis_7">
    <g id="xtick_18">
     <g id="line2d_68">
      <g>
       <use style="stroke:#000000;stroke-width:0.8;" x="342.228992" xlink:href="#m4c44e1c480" y="530.918125"/>
      </g>
     </g>
     <g id="text_47">
      <!-- 0.08 -->
      <g transform="translate(331.09618 545.516562)scale(0.1 -0.1)">
       <use xlink:href="#DejaVuSans-48"/>
       <use x="63.623047" xlink:href="#DejaVuSans-46"/>
       <use x="95.410156" xlink:href="#DejaVuSans-48"/>
       <use x="159.033203" xlink:href="#DejaVuSans-56"/>
      </g>
     </g>
    </g>
    <g id="xtick_19">
     <g id="line2d_69">
      <g>
       <use style="stroke:#000000;stroke-width:0.8;" x="375.738043" xlink:href="#m4c44e1c480" y="530.918125"/>
      </g>
     </g>
     <g id="text_48">
      <!-- 1 -->
      <g transform="translate(372.556793 545.516562)scale(0.1 -0.1)">
       <use xlink:href="#DejaVuSans-49"/>
      </g>
     </g>
    </g>
    <g id="xtick_20">
     <g id="line2d_70">
      <g>
       <use style="stroke:#000000;stroke-width:0.8;" x="409.247093" xlink:href="#m4c44e1c480" y="530.918125"/>
      </g>
     </g>
     <g id="text_49">
      <!-- 1e+01 -->
      <g transform="translate(392.436937 545.516562)scale(0.1 -0.1)">
       <use xlink:href="#DejaVuSans-49"/>
       <use x="63.623047" xlink:href="#DejaVuSans-101"/>
       <use x="125.146484" xlink:href="#DejaVuSans-43"/>
       <use x="208.935547" xlink:href="#DejaVuSans-48"/>
       <use x="272.558594" xlink:href="#DejaVuSans-49"/>
      </g>
     </g>
    </g>
    <g id="xtick_21">
     <g id="line2d_71">
      <g>
       <use style="stroke:#000000;stroke-width:0.8;" x="442.756144" xlink:href="#m4c44e1c480" y="530.918125"/>
      </g>
     </g>
     <g id="text_50">
      <!-- 1e+02 -->
      <g transform="translate(425.945988 545.516562)scale(0.1 -0.1)">
       <use xlink:href="#DejaVuSans-49"/>
       <use x="63.623047" xlink:href="#DejaVuSans-101"/>
       <use x="125.146484" xlink:href="#DejaVuSans-43"/>
       <use x="208.935547" xlink:href="#DejaVuSans-48"/>
       <use x="272.558594" xlink:href="#DejaVuSans-50"/>
      </g>
     </g>
    </g>
    <g id="xtick_22">
     <g id="line2d_72">
      <g>
       <use style="stroke:#000000;stroke-width:0.8;" x="476.265195" xlink:href="#m4c44e1c480" y="530.918125"/>
      </g>
     </g>
     <g id="text_51">
      <!-- 2e+03 -->
      <g transform="translate(459.455038 545.516562)scale(0.1 -0.1)">
       <use xlink:href="#DejaVuSans-50"/>
       <use x="63.623047" xlink:href="#DejaVuSans-101"/>
       <use x="125.146484" xlink:href="#DejaVuSans-43"/>
       <use x="208.935547" xlink:href="#DejaVuSans-48"/>
       <use x="272.558594" xlink:href="#DejaVuSans-51"/>
      </g>
     </g>
    </g>
    <g id="xtick_23">
     <g id="line2d_73">
      <g>
       <use style="stroke:#000000;stroke-width:0.8;" x="509.774245" xlink:href="#m4c44e1c480" y="530.918125"/>
      </g>
     </g>
     <g id="text_52">
      <!-- 2e+04 -->
      <g transform="translate(492.964089 545.516562)scale(0.1 -0.1)">
       <use xlink:href="#DejaVuSans-50"/>
       <use x="63.623047" xlink:href="#DejaVuSans-101"/>
       <use x="125.146484" xlink:href="#DejaVuSans-43"/>
       <use x="208.935547" xlink:href="#DejaVuSans-48"/>
       <use x="272.558594" xlink:href="#DejaVuSans-52"/>
      </g>
     </g>
    </g>
    <g id="xtick_24">
     <g id="line2d_74">
      <g>
       <use style="stroke:#000000;stroke-width:0.8;" x="543.283296" xlink:href="#m4c44e1c480" y="530.918125"/>
      </g>
     </g>
     <g id="text_53">
      <!-- 3e+05 -->
      <g transform="translate(526.47314 545.516562)scale(0.1 -0.1)">
       <use xlink:href="#DejaVuSans-51"/>
       <use x="63.623047" xlink:href="#DejaVuSans-101"/>
       <use x="125.146484" xlink:href="#DejaVuSans-43"/>
       <use x="208.935547" xlink:href="#DejaVuSans-48"/>
       <use x="272.558594" xlink:href="#DejaVuSans-53"/>
      </g>
     </g>
    </g>
    <g id="text_54">
     <!-- Pr(somatic) (PHRED) -->
     <g transform="translate(379.691897 559.194687)scale(0.1 -0.1)">
      <use xlink:href="#DejaVuSans-80"/>
      <use x="60.287109" xlink:href="#DejaVuSans-114"/>
      <use x="101.400391" xlink:href="#DejaVuSans-40"/>
      <use x="140.414062" xlink:href="#DejaVuSans-115"/>
      <use x="192.513672" xlink:href="#DejaVuSans-111"/>
      <use x="253.695312" xlink:href="#DejaVuSans-109"/>
      <use x="351.107422" xlink:href="#DejaVuSans-97"/>
      <use x="412.386719" xlink:href="#DejaVuSans-116"/>
      <use x="451.595703" xlink:href="#DejaVuSans-105"/>
      <use x="479.378906" xlink:href="#DejaVuSans-99"/>
      <use x="534.359375" xlink:href="#DejaVuSans-41"/>
      <use x="573.373047" xlink:href="#DejaVuSans-32"/>
      <use x="605.160156" xlink:href="#DejaVuSans-40"/>
      <use x="644.173828" xlink:href="#DejaVuSans-80"/>
      <use x="704.476562" xlink:href="#DejaVuSans-72"/>
      <use x="779.671875" xlink:href="#DejaVuSans-82"/>
      <use x="849.154297" xlink:href="#DejaVuSans-69"/>
      <use x="912.337891" xlink:href="#DejaVuSans-68"/>
      <use x="989.339844" xlink:href="#DejaVuSans-41"/>
     </g>
    </g>
   </g>
   <g id="matplotlib.axis_8">
    <g id="ytick_20">
     <g id="line2d_75">
      <g>
       <use style="stroke:#000000;stroke-width:0.8;" x="315.271447" xlink:href="#m3d3bebf22a" y="530.918125"/>
      </g>
     </g>
     <g id="text_55">
      <!-- 0 -->
      <g transform="translate(301.908947 534.717344)scale(0.1 -0.1)">
       <use xlink:href="#DejaVuSans-48"/>
      </g>
     </g>
    </g>
    <g id="ytick_21">
     <g id="line2d_76">
      <g>
       <use style="stroke:#000000;stroke-width:0.8;" x="315.271447" xlink:href="#m3d3bebf22a" y="489.878718"/>
      </g>
     </g>
     <g id="text_56">
      <!-- 1 -->
      <g transform="translate(301.908947 493.677937)scale(0.1 -0.1)">
       <use xlink:href="#DejaVuSans-49"/>
      </g>
     </g>
    </g>
    <g id="ytick_22">
     <g id="line2d_77">
      <g>
       <use style="stroke:#000000;stroke-width:0.8;" x="315.271447" xlink:href="#m3d3bebf22a" y="448.839311"/>
      </g>
     </g>
     <g id="text_57">
      <!-- 2 -->
      <g transform="translate(301.908947 452.63853)scale(0.1 -0.1)">
       <use xlink:href="#DejaVuSans-50"/>
      </g>
     </g>
    </g>
    <g id="ytick_23">
     <g id="line2d_78">
      <g>
       <use style="stroke:#000000;stroke-width:0.8;" x="315.271447" xlink:href="#m3d3bebf22a" y="407.799905"/>
      </g>
     </g>
     <g id="text_58">
      <!-- 3 -->
      <g transform="translate(301.908947 411.599123)scale(0.1 -0.1)">
       <use xlink:href="#DejaVuSans-51"/>
      </g>
     </g>
    </g>
    <g id="ytick_24">
     <g id="line2d_79">
      <g>
       <use style="stroke:#000000;stroke-width:0.8;" x="315.271447" xlink:href="#m3d3bebf22a" y="366.760498"/>
      </g>
     </g>
     <g id="text_59">
      <!-- 4 -->
      <g transform="translate(301.908947 370.559717)scale(0.1 -0.1)">
       <use xlink:href="#DejaVuSans-52"/>
      </g>
     </g>
    </g>
    <g id="ytick_25">
     <g id="line2d_80">
      <g>
       <use style="stroke:#000000;stroke-width:0.8;" x="315.271447" xlink:href="#m3d3bebf22a" y="325.721091"/>
      </g>
     </g>
     <g id="text_60">
      <!-- 5 -->
      <g transform="translate(301.908947 329.52031)scale(0.1 -0.1)">
       <use xlink:href="#DejaVuSans-53"/>
      </g>
     </g>
    </g>
   </g>
   <g id="line2d_81">
    <path clip-path="url(#p9c9ec9ba1f)" d="M 327.005176 530.451861 
L 327.246166 529.87833 
L 327.487157 528.257537 
L 327.728148 524.591765 
L 327.969139 517.274621 
L 328.210129 504.227655 
L 328.571616 469.771037 
L 329.174092 377.176494 
L 329.656074 316.743354 
L 329.897065 308.975268 
L 330.01756 311.625507 
L 330.258551 327.556123 
L 331.222514 413.745866 
L 331.704495 434.361819 
L 333.15044 482.381101 
L 333.873412 507.497697 
L 334.475889 522.048028 
L 334.837375 527.179099 
L 335.198861 529.696577 
L 335.560347 530.613526 
L 335.921833 530.860547 
L 336.644806 530.917226 
L 338.09075 530.814249 
L 338.331741 530.613451 
L 338.572732 530.129803 
L 338.813722 529.118752 
L 339.175209 526.012831 
L 339.777685 516.973591 
L 340.139172 512.996037 
L 340.259667 512.615492 
L 340.380162 512.803101 
L 340.621153 514.763534 
L 341.826107 529.510695 
L 342.067098 530.277083 
L 342.308088 530.510438 
L 342.308088 530.510438 
" style="fill:none;stroke:#ff7f0e;stroke-linecap:square;stroke-width:1.5;"/>
   </g>
   <g id="line2d_82">
    <path clip-path="url(#p9c9ec9ba1f)" d="M 325.802141 530.909127 
L 329.04619 530.771759 
L 333.912262 530.124088 
L 335.534286 530.243412 
L 338.778335 530.751576 
L 342.022383 530.907855 
L 363.108697 530.918125 
L 473.406339 530.849572 
L 476.650387 530.467389 
L 478.272411 530.215672 
L 479.894435 530.125635 
L 483.138484 530.258486 
L 484.760508 529.93703 
L 486.382532 529.155118 
L 491.248604 526.094418 
L 492.870629 524.831082 
L 494.492653 523.250165 
L 496.114677 521.242309 
L 497.736701 517.914643 
L 499.358725 512.239292 
L 502.602773 497.042726 
L 504.224798 492.124901 
L 505.846822 491.469939 
L 507.468846 494.784286 
L 509.09087 500.029945 
L 510.712894 504.753811 
L 512.334918 507.711797 
L 515.578967 511.269775 
L 517.200991 514.011072 
L 522.067063 524.876095 
L 523.689087 527.500127 
L 525.311111 529.252313 
L 526.933136 530.247067 
L 528.55516 530.704766 
L 530.177184 530.866588 
L 531.799208 530.907919 
L 531.799208 530.907919 
" style="fill:none;stroke:#ff7f0e;stroke-dasharray:1.5,2.475;stroke-dashoffset:0;stroke-width:1.5;"/>
   </g>
   <g id="line2d_83">
    <path clip-path="url(#p9c9ec9ba1f)" d="M 0 0 
" style="fill:none;stroke:#2ca02c;stroke-linecap:square;stroke-width:1.5;"/>
   </g>
   <g id="line2d_84">
    <path clip-path="url(#p9c9ec9ba1f)" d="M 480.132733 530.864985 
L 482.791786 530.736436 
L 484.564489 530.430792 
L 485.894015 530.003073 
L 487.223542 529.354424 
L 488.553069 528.468424 
L 490.325771 526.955647 
L 492.541648 524.670346 
L 494.314351 522.569563 
L 496.087053 520.124592 
L 497.859755 517.192021 
L 499.632457 513.757293 
L 502.734686 507.527473 
L 504.064213 505.467165 
L 504.950564 504.50265 
L 505.836915 503.913257 
L 506.723266 503.690194 
L 507.609617 503.777816 
L 508.939144 504.285043 
L 511.598197 505.462434 
L 515.143602 506.693235 
L 516.029953 507.286806 
L 516.916304 508.092941 
L 518.24583 509.710553 
L 519.575357 511.75679 
L 521.348059 514.953919 
L 526.666166 525.04184 
L 527.995692 526.993398 
L 529.325219 528.50042 
L 530.654746 529.555111 
L 531.984272 530.219113 
L 533.313799 530.592801 
L 535.086501 530.812714 
L 536.416028 530.862415 
L 536.416028 530.862415 
" style="fill:none;stroke:#2ca02c;stroke-dasharray:1.5,2.475;stroke-dashoffset:0;stroke-width:1.5;"/>
   </g>
   <g id="patch_13">
    <path d="M 315.271447 530.918125 
L 315.271447 297.878125 
" style="fill:none;stroke:#000000;stroke-linecap:square;stroke-linejoin:miter;stroke-width:0.8;"/>
   </g>
   <g id="patch_14">
    <path d="M 315.271447 530.918125 
L 546.946722 530.918125 
" style="fill:none;stroke:#000000;stroke-linecap:square;stroke-linejoin:miter;stroke-width:0.8;"/>
   </g>
   <g id="text_61">
    <!-- 70 - 100 -->
    <g transform="translate(406.043147 291.878125)scale(0.12 -0.12)">
     <use xlink:href="#DejaVuSans-55"/>
     <use x="63.623047" xlink:href="#DejaVuSans-48"/>
     <use x="127.246094" xlink:href="#DejaVuSans-32"/>
     <use x="159.033203" xlink:href="#DejaVuSans-45"/>
     <use x="195.117188" xlink:href="#DejaVuSans-32"/>
     <use x="226.904297" xlink:href="#DejaVuSans-49"/>
     <use x="290.527344" xlink:href="#DejaVuSans-48"/>
     <use x="354.150391" xlink:href="#DejaVuSans-48"/>
    </g>
   </g>
  </g>
 </g>
 <defs>
  <clipPath id="p9984f1caab">
   <rect height="233.04" width="231.675275" x="43.78125" y="22.318125"/>
  </clipPath>
  <clipPath id="p42c37625cf">
   <rect height="233.04" width="231.675275" x="315.271447" y="22.318125"/>
  </clipPath>
  <clipPath id="p4bed4f3ce9">
   <rect height="233.04" width="231.675275" x="43.78125" y="297.878125"/>
  </clipPath>
  <clipPath id="p9c9ec9ba1f">
   <rect height="233.04" width="231.675275" x="315.271447" y="297.878125"/>
  </clipPath>
 </defs>
</svg>
