<?xml version="1.0" encoding="utf-8" standalone="no"?>
<!DOCTYPE svg PUBLIC "-//W3C//DTD SVG 1.1//EN"
  "http://www.w3.org/Graphics/SVG/1.1/DTD/svg11.dtd">
<!-- Created with matplotlib (http://matplotlib.org/) -->
<svg height="568.474375pt" version="1.1" viewBox="0 0 567.813419 568.474375" width="567.813419pt" xmlns="http://www.w3.org/2000/svg" xmlns:xlink="http://www.w3.org/1999/xlink">
 <defs>
  <style type="text/css">
*{stroke-linecap:butt;stroke-linejoin:round;}
  </style>
 </defs>
 <g id="figure_1">
  <g id="patch_1">
   <path d="M 0 568.474375 
L 567.813419 568.474375 
L 567.813419 0 
L 0 0 
z
" style="fill:#ffffff;"/>
  </g>
  <g id="axes_1">
   <g id="patch_2">
    <path d="M 43.78125 255.358125 
L 278.370574 255.358125 
L 278.370574 22.318125 
L 43.78125 22.318125 
z
" style="fill:#ffffff;"/>
   </g>
   <g id="matplotlib.axis_1">
    <g id="xtick_1">
     <g id="line2d_1">
      <defs>
       <path d="M 0 0 
L 0 3.5 
" id="m1a30a0fae5" style="stroke:#000000;stroke-width:0.8;"/>
      </defs>
      <g>
       <use style="stroke:#000000;stroke-width:0.8;" x="58.965917" xlink:href="#m1a30a0fae5" y="255.358125"/>
      </g>
     </g>
     <g id="text_1">
      <!-- 9e-14 -->
      <defs>
       <path d="M 10.984375 1.515625 
L 10.984375 10.5 
Q 14.703125 8.734375 18.5 7.8125 
Q 22.3125 6.890625 25.984375 6.890625 
Q 35.75 6.890625 40.890625 13.453125 
Q 46.046875 20.015625 46.78125 33.40625 
Q 43.953125 29.203125 39.59375 26.953125 
Q 35.25 24.703125 29.984375 24.703125 
Q 19.046875 24.703125 12.671875 31.3125 
Q 6.296875 37.9375 6.296875 49.421875 
Q 6.296875 60.640625 12.9375 67.421875 
Q 19.578125 74.21875 30.609375 74.21875 
Q 43.265625 74.21875 49.921875 64.515625 
Q 56.59375 54.828125 56.59375 36.375 
Q 56.59375 19.140625 48.40625 8.859375 
Q 40.234375 -1.421875 26.421875 -1.421875 
Q 22.703125 -1.421875 18.890625 -0.6875 
Q 15.09375 0.046875 10.984375 1.515625 
z
M 30.609375 32.421875 
Q 37.25 32.421875 41.125 36.953125 
Q 45.015625 41.5 45.015625 49.421875 
Q 45.015625 57.28125 41.125 61.84375 
Q 37.25 66.40625 30.609375 66.40625 
Q 23.96875 66.40625 20.09375 61.84375 
Q 16.21875 57.28125 16.21875 49.421875 
Q 16.21875 41.5 20.09375 36.953125 
Q 23.96875 32.421875 30.609375 32.421875 
z
" id="DejaVuSans-39"/>
       <path d="M 56.203125 29.59375 
L 56.203125 25.203125 
L 14.890625 25.203125 
Q 15.484375 15.921875 20.484375 11.0625 
Q 25.484375 6.203125 34.421875 6.203125 
Q 39.59375 6.203125 44.453125 7.46875 
Q 49.3125 8.734375 54.109375 11.28125 
L 54.109375 2.78125 
Q 49.265625 0.734375 44.1875 -0.34375 
Q 39.109375 -1.421875 33.890625 -1.421875 
Q 20.796875 -1.421875 13.15625 6.1875 
Q 5.515625 13.8125 5.515625 26.8125 
Q 5.515625 40.234375 12.765625 48.109375 
Q 20.015625 56 32.328125 56 
Q 43.359375 56 49.78125 48.890625 
Q 56.203125 41.796875 56.203125 29.59375 
z
M 47.21875 32.234375 
Q 47.125 39.59375 43.09375 43.984375 
Q 39.0625 48.390625 32.421875 48.390625 
Q 24.90625 48.390625 20.390625 44.140625 
Q 15.875 39.890625 15.1875 32.171875 
z
" id="DejaVuSans-65"/>
       <path d="M 4.890625 31.390625 
L 31.203125 31.390625 
L 31.203125 23.390625 
L 4.890625 23.390625 
z
" id="DejaVuSans-2d"/>
       <path d="M 12.40625 8.296875 
L 28.515625 8.296875 
L 28.515625 63.921875 
L 10.984375 60.40625 
L 10.984375 69.390625 
L 28.421875 72.90625 
L 38.28125 72.90625 
L 38.28125 8.296875 
L 54.390625 8.296875 
L 54.390625 0 
L 12.40625 0 
z
" id="DejaVuSans-31"/>
       <path d="M 37.796875 64.3125 
L 12.890625 25.390625 
L 37.796875 25.390625 
z
M 35.203125 72.90625 
L 47.609375 72.90625 
L 47.609375 25.390625 
L 58.015625 25.390625 
L 58.015625 17.1875 
L 47.609375 17.1875 
L 47.609375 0 
L 37.796875 0 
L 37.796875 17.1875 
L 4.890625 17.1875 
L 4.890625 26.703125 
z
" id="DejaVuSans-34"/>
      </defs>
      <g transform="translate(44.541699 269.956562)scale(0.1 -0.1)">
       <use xlink:href="#DejaVuSans-39"/>
       <use x="63.623047" xlink:href="#DejaVuSans-65"/>
       <use x="125.146484" xlink:href="#DejaVuSans-2d"/>
       <use x="161.230469" xlink:href="#DejaVuSans-31"/>
       <use x="224.853516" xlink:href="#DejaVuSans-34"/>
      </g>
     </g>
    </g>
    <g id="xtick_2">
     <g id="line2d_2">
      <g>
       <use style="stroke:#000000;stroke-width:0.8;" x="109.311493" xlink:href="#m1a30a0fae5" y="255.358125"/>
      </g>
     </g>
     <g id="text_2">
      <!-- 2e-09 -->
      <defs>
       <path d="M 19.1875 8.296875 
L 53.609375 8.296875 
L 53.609375 0 
L 7.328125 0 
L 7.328125 8.296875 
Q 12.9375 14.109375 22.625 23.890625 
Q 32.328125 33.6875 34.8125 36.53125 
Q 39.546875 41.84375 41.421875 45.53125 
Q 43.3125 49.21875 43.3125 52.78125 
Q 43.3125 58.59375 39.234375 62.25 
Q 35.15625 65.921875 28.609375 65.921875 
Q 23.96875 65.921875 18.8125 64.3125 
Q 13.671875 62.703125 7.8125 59.421875 
L 7.8125 69.390625 
Q 13.765625 71.78125 18.9375 73 
Q 24.125 74.21875 28.421875 74.21875 
Q 39.75 74.21875 46.484375 68.546875 
Q 53.21875 62.890625 53.21875 53.421875 
Q 53.21875 48.921875 51.53125 44.890625 
Q 49.859375 40.875 45.40625 35.40625 
Q 44.1875 33.984375 37.640625 27.21875 
Q 31.109375 20.453125 19.1875 8.296875 
z
" id="DejaVuSans-32"/>
       <path d="M 31.78125 66.40625 
Q 24.171875 66.40625 20.328125 58.90625 
Q 16.5 51.421875 16.5 36.375 
Q 16.5 21.390625 20.328125 13.890625 
Q 24.171875 6.390625 31.78125 6.390625 
Q 39.453125 6.390625 43.28125 13.890625 
Q 47.125 21.390625 47.125 36.375 
Q 47.125 51.421875 43.28125 58.90625 
Q 39.453125 66.40625 31.78125 66.40625 
z
M 31.78125 74.21875 
Q 44.046875 74.21875 50.515625 64.515625 
Q 56.984375 54.828125 56.984375 36.375 
Q 56.984375 17.96875 50.515625 8.265625 
Q 44.046875 -1.421875 31.78125 -1.421875 
Q 19.53125 -1.421875 13.0625 8.265625 
Q 6.59375 17.96875 6.59375 36.375 
Q 6.59375 54.828125 13.0625 64.515625 
Q 19.53125 74.21875 31.78125 74.21875 
z
" id="DejaVuSans-30"/>
      </defs>
      <g transform="translate(94.887274 269.956562)scale(0.1 -0.1)">
       <use xlink:href="#DejaVuSans-32"/>
       <use x="63.623047" xlink:href="#DejaVuSans-65"/>
       <use x="125.146484" xlink:href="#DejaVuSans-2d"/>
       <use x="161.230469" xlink:href="#DejaVuSans-30"/>
       <use x="224.853516" xlink:href="#DejaVuSans-39"/>
      </g>
     </g>
    </g>
    <g id="xtick_3">
     <g id="line2d_3">
      <g>
       <use style="stroke:#000000;stroke-width:0.8;" x="159.657069" xlink:href="#m1a30a0fae5" y="255.358125"/>
      </g>
     </g>
     <g id="text_3">
      <!-- 5e-05 -->
      <defs>
       <path d="M 10.796875 72.90625 
L 49.515625 72.90625 
L 49.515625 64.59375 
L 19.828125 64.59375 
L 19.828125 46.734375 
Q 21.96875 47.46875 24.109375 47.828125 
Q 26.265625 48.1875 28.421875 48.1875 
Q 40.625 48.1875 47.75 41.5 
Q 54.890625 34.8125 54.890625 23.390625 
Q 54.890625 11.625 47.5625 5.09375 
Q 40.234375 -1.421875 26.90625 -1.421875 
Q 22.3125 -1.421875 17.546875 -0.640625 
Q 12.796875 0.140625 7.71875 1.703125 
L 7.71875 11.625 
Q 12.109375 9.234375 16.796875 8.0625 
Q 21.484375 6.890625 26.703125 6.890625 
Q 35.15625 6.890625 40.078125 11.328125 
Q 45.015625 15.765625 45.015625 23.390625 
Q 45.015625 31 40.078125 35.4375 
Q 35.15625 39.890625 26.703125 39.890625 
Q 22.75 39.890625 18.8125 39.015625 
Q 14.890625 38.140625 10.796875 36.28125 
z
" id="DejaVuSans-35"/>
      </defs>
      <g transform="translate(145.23285 269.956562)scale(0.1 -0.1)">
       <use xlink:href="#DejaVuSans-35"/>
       <use x="63.623047" xlink:href="#DejaVuSans-65"/>
       <use x="125.146484" xlink:href="#DejaVuSans-2d"/>
       <use x="161.230469" xlink:href="#DejaVuSans-30"/>
       <use x="224.853516" xlink:href="#DejaVuSans-35"/>
      </g>
     </g>
    </g>
    <g id="xtick_4">
     <g id="line2d_4">
      <g>
       <use style="stroke:#000000;stroke-width:0.8;" x="210.002644" xlink:href="#m1a30a0fae5" y="255.358125"/>
      </g>
     </g>
     <g id="text_4">
      <!-- 1 -->
      <g transform="translate(206.821394 269.956562)scale(0.1 -0.1)">
       <use xlink:href="#DejaVuSans-31"/>
      </g>
     </g>
    </g>
    <g id="xtick_5">
     <g id="line2d_5">
      <g>
       <use style="stroke:#000000;stroke-width:0.8;" x="260.34822" xlink:href="#m1a30a0fae5" y="255.358125"/>
      </g>
     </g>
     <g id="text_5">
      <!-- 2e+04 -->
      <defs>
       <path d="M 46 62.703125 
L 46 35.5 
L 73.1875 35.5 
L 73.1875 27.203125 
L 46 27.203125 
L 46 0 
L 37.796875 0 
L 37.796875 27.203125 
L 10.59375 27.203125 
L 10.59375 35.5 
L 37.796875 35.5 
L 37.796875 62.703125 
z
" id="DejaVuSans-2b"/>
      </defs>
      <g transform="translate(243.538063 269.956562)scale(0.1 -0.1)">
       <use xlink:href="#DejaVuSans-32"/>
       <use x="63.623047" xlink:href="#DejaVuSans-65"/>
       <use x="125.146484" xlink:href="#DejaVuSans-2b"/>
       <use x="208.935547" xlink:href="#DejaVuSans-30"/>
       <use x="272.558594" xlink:href="#DejaVuSans-34"/>
      </g>
     </g>
    </g>
   </g>
   <g id="matplotlib.axis_2">
    <g id="ytick_1">
     <g id="line2d_6">
      <defs>
       <path d="M 0 0 
L -3.5 0 
" id="m7b867ae089" style="stroke:#000000;stroke-width:0.8;"/>
      </defs>
      <g>
       <use style="stroke:#000000;stroke-width:0.8;" x="43.78125" xlink:href="#m7b867ae089" y="255.358125"/>
      </g>
     </g>
     <g id="text_6">
      <!-- 0.0 -->
      <defs>
       <path d="M 10.6875 12.40625 
L 21 12.40625 
L 21 0 
L 10.6875 0 
z
" id="DejaVuSans-2e"/>
      </defs>
      <g transform="translate(20.878125 259.157344)scale(0.1 -0.1)">
       <use xlink:href="#DejaVuSans-30"/>
       <use x="63.623047" xlink:href="#DejaVuSans-2e"/>
       <use x="95.410156" xlink:href="#DejaVuSans-30"/>
      </g>
     </g>
    </g>
    <g id="ytick_2">
     <g id="line2d_7">
      <g>
       <use style="stroke:#000000;stroke-width:0.8;" x="43.78125" xlink:href="#m7b867ae089" y="222.208845"/>
      </g>
     </g>
     <g id="text_7">
      <!-- 0.1 -->
      <g transform="translate(20.878125 226.008063)scale(0.1 -0.1)">
       <use xlink:href="#DejaVuSans-30"/>
       <use x="63.623047" xlink:href="#DejaVuSans-2e"/>
       <use x="95.410156" xlink:href="#DejaVuSans-31"/>
      </g>
     </g>
    </g>
    <g id="ytick_3">
     <g id="line2d_8">
      <g>
       <use style="stroke:#000000;stroke-width:0.8;" x="43.78125" xlink:href="#m7b867ae089" y="189.059564"/>
      </g>
     </g>
     <g id="text_8">
      <!-- 0.2 -->
      <g transform="translate(20.878125 192.858783)scale(0.1 -0.1)">
       <use xlink:href="#DejaVuSans-30"/>
       <use x="63.623047" xlink:href="#DejaVuSans-2e"/>
       <use x="95.410156" xlink:href="#DejaVuSans-32"/>
      </g>
     </g>
    </g>
    <g id="ytick_4">
     <g id="line2d_9">
      <g>
       <use style="stroke:#000000;stroke-width:0.8;" x="43.78125" xlink:href="#m7b867ae089" y="155.910284"/>
      </g>
     </g>
     <g id="text_9">
      <!-- 0.3 -->
      <defs>
       <path d="M 40.578125 39.3125 
Q 47.65625 37.796875 51.625 33 
Q 55.609375 28.21875 55.609375 21.1875 
Q 55.609375 10.40625 48.1875 4.484375 
Q 40.765625 -1.421875 27.09375 -1.421875 
Q 22.515625 -1.421875 17.65625 -0.515625 
Q 12.796875 0.390625 7.625 2.203125 
L 7.625 11.71875 
Q 11.71875 9.328125 16.59375 8.109375 
Q 21.484375 6.890625 26.8125 6.890625 
Q 36.078125 6.890625 40.9375 10.546875 
Q 45.796875 14.203125 45.796875 21.1875 
Q 45.796875 27.640625 41.28125 31.265625 
Q 36.765625 34.90625 28.71875 34.90625 
L 20.21875 34.90625 
L 20.21875 43.015625 
L 29.109375 43.015625 
Q 36.375 43.015625 40.234375 45.921875 
Q 44.09375 48.828125 44.09375 54.296875 
Q 44.09375 59.90625 40.109375 62.90625 
Q 36.140625 65.921875 28.71875 65.921875 
Q 24.65625 65.921875 20.015625 65.03125 
Q 15.375 64.15625 9.8125 62.3125 
L 9.8125 71.09375 
Q 15.4375 72.65625 20.34375 73.4375 
Q 25.25 74.21875 29.59375 74.21875 
Q 40.828125 74.21875 47.359375 69.109375 
Q 53.90625 64.015625 53.90625 55.328125 
Q 53.90625 49.265625 50.4375 45.09375 
Q 46.96875 40.921875 40.578125 39.3125 
z
" id="DejaVuSans-33"/>
      </defs>
      <g transform="translate(20.878125 159.709503)scale(0.1 -0.1)">
       <use xlink:href="#DejaVuSans-30"/>
       <use x="63.623047" xlink:href="#DejaVuSans-2e"/>
       <use x="95.410156" xlink:href="#DejaVuSans-33"/>
      </g>
     </g>
    </g>
    <g id="ytick_5">
     <g id="line2d_10">
      <g>
       <use style="stroke:#000000;stroke-width:0.8;" x="43.78125" xlink:href="#m7b867ae089" y="122.761004"/>
      </g>
     </g>
     <g id="text_10">
      <!-- 0.4 -->
      <g transform="translate(20.878125 126.560223)scale(0.1 -0.1)">
       <use xlink:href="#DejaVuSans-30"/>
       <use x="63.623047" xlink:href="#DejaVuSans-2e"/>
       <use x="95.410156" xlink:href="#DejaVuSans-34"/>
      </g>
     </g>
    </g>
    <g id="ytick_6">
     <g id="line2d_11">
      <g>
       <use style="stroke:#000000;stroke-width:0.8;" x="43.78125" xlink:href="#m7b867ae089" y="89.611724"/>
      </g>
     </g>
     <g id="text_11">
      <!-- 0.5 -->
      <g transform="translate(20.878125 93.410942)scale(0.1 -0.1)">
       <use xlink:href="#DejaVuSans-30"/>
       <use x="63.623047" xlink:href="#DejaVuSans-2e"/>
       <use x="95.410156" xlink:href="#DejaVuSans-35"/>
      </g>
     </g>
    </g>
    <g id="ytick_7">
     <g id="line2d_12">
      <g>
       <use style="stroke:#000000;stroke-width:0.8;" x="43.78125" xlink:href="#m7b867ae089" y="56.462443"/>
      </g>
     </g>
     <g id="text_12">
      <!-- 0.6 -->
      <defs>
       <path d="M 33.015625 40.375 
Q 26.375 40.375 22.484375 35.828125 
Q 18.609375 31.296875 18.609375 23.390625 
Q 18.609375 15.53125 22.484375 10.953125 
Q 26.375 6.390625 33.015625 6.390625 
Q 39.65625 6.390625 43.53125 10.953125 
Q 47.40625 15.53125 47.40625 23.390625 
Q 47.40625 31.296875 43.53125 35.828125 
Q 39.65625 40.375 33.015625 40.375 
z
M 52.59375 71.296875 
L 52.59375 62.3125 
Q 48.875 64.0625 45.09375 64.984375 
Q 41.3125 65.921875 37.59375 65.921875 
Q 27.828125 65.921875 22.671875 59.328125 
Q 17.53125 52.734375 16.796875 39.40625 
Q 19.671875 43.65625 24.015625 45.921875 
Q 28.375 48.1875 33.59375 48.1875 
Q 44.578125 48.1875 50.953125 41.515625 
Q 57.328125 34.859375 57.328125 23.390625 
Q 57.328125 12.15625 50.6875 5.359375 
Q 44.046875 -1.421875 33.015625 -1.421875 
Q 20.359375 -1.421875 13.671875 8.265625 
Q 6.984375 17.96875 6.984375 36.375 
Q 6.984375 53.65625 15.1875 63.9375 
Q 23.390625 74.21875 37.203125 74.21875 
Q 40.921875 74.21875 44.703125 73.484375 
Q 48.484375 72.75 52.59375 71.296875 
z
" id="DejaVuSans-36"/>
      </defs>
      <g transform="translate(20.878125 60.261662)scale(0.1 -0.1)">
       <use xlink:href="#DejaVuSans-30"/>
       <use x="63.623047" xlink:href="#DejaVuSans-2e"/>
       <use x="95.410156" xlink:href="#DejaVuSans-36"/>
      </g>
     </g>
    </g>
    <g id="ytick_8">
     <g id="line2d_13">
      <g>
       <use style="stroke:#000000;stroke-width:0.8;" x="43.78125" xlink:href="#m7b867ae089" y="23.313163"/>
      </g>
     </g>
     <g id="text_13">
      <!-- 0.7 -->
      <defs>
       <path d="M 8.203125 72.90625 
L 55.078125 72.90625 
L 55.078125 68.703125 
L 28.609375 0 
L 18.3125 0 
L 43.21875 64.59375 
L 8.203125 64.59375 
z
" id="DejaVuSans-37"/>
      </defs>
      <g transform="translate(20.878125 27.112382)scale(0.1 -0.1)">
       <use xlink:href="#DejaVuSans-30"/>
       <use x="63.623047" xlink:href="#DejaVuSans-2e"/>
       <use x="95.410156" xlink:href="#DejaVuSans-37"/>
      </g>
     </g>
    </g>
    <g id="text_14">
     <!-- density -->
     <defs>
      <path d="M 45.40625 46.390625 
L 45.40625 75.984375 
L 54.390625 75.984375 
L 54.390625 0 
L 45.40625 0 
L 45.40625 8.203125 
Q 42.578125 3.328125 38.25 0.953125 
Q 33.9375 -1.421875 27.875 -1.421875 
Q 17.96875 -1.421875 11.734375 6.484375 
Q 5.515625 14.40625 5.515625 27.296875 
Q 5.515625 40.1875 11.734375 48.09375 
Q 17.96875 56 27.875 56 
Q 33.9375 56 38.25 53.625 
Q 42.578125 51.265625 45.40625 46.390625 
z
M 14.796875 27.296875 
Q 14.796875 17.390625 18.875 11.75 
Q 22.953125 6.109375 30.078125 6.109375 
Q 37.203125 6.109375 41.296875 11.75 
Q 45.40625 17.390625 45.40625 27.296875 
Q 45.40625 37.203125 41.296875 42.84375 
Q 37.203125 48.484375 30.078125 48.484375 
Q 22.953125 48.484375 18.875 42.84375 
Q 14.796875 37.203125 14.796875 27.296875 
z
" id="DejaVuSans-64"/>
      <path d="M 54.890625 33.015625 
L 54.890625 0 
L 45.90625 0 
L 45.90625 32.71875 
Q 45.90625 40.484375 42.875 44.328125 
Q 39.84375 48.1875 33.796875 48.1875 
Q 26.515625 48.1875 22.3125 43.546875 
Q 18.109375 38.921875 18.109375 30.90625 
L 18.109375 0 
L 9.078125 0 
L 9.078125 54.6875 
L 18.109375 54.6875 
L 18.109375 46.1875 
Q 21.34375 51.125 25.703125 53.5625 
Q 30.078125 56 35.796875 56 
Q 45.21875 56 50.046875 50.171875 
Q 54.890625 44.34375 54.890625 33.015625 
z
" id="DejaVuSans-6e"/>
      <path d="M 44.28125 53.078125 
L 44.28125 44.578125 
Q 40.484375 46.53125 36.375 47.5 
Q 32.28125 48.484375 27.875 48.484375 
Q 21.1875 48.484375 17.84375 46.4375 
Q 14.5 44.390625 14.5 40.28125 
Q 14.5 37.15625 16.890625 35.375 
Q 19.28125 33.59375 26.515625 31.984375 
L 29.59375 31.296875 
Q 39.15625 29.25 43.1875 25.515625 
Q 47.21875 21.78125 47.21875 15.09375 
Q 47.21875 7.46875 41.1875 3.015625 
Q 35.15625 -1.421875 24.609375 -1.421875 
Q 20.21875 -1.421875 15.453125 -0.5625 
Q 10.6875 0.296875 5.421875 2 
L 5.421875 11.28125 
Q 10.40625 8.6875 15.234375 7.390625 
Q 20.0625 6.109375 24.8125 6.109375 
Q 31.15625 6.109375 34.5625 8.28125 
Q 37.984375 10.453125 37.984375 14.40625 
Q 37.984375 18.0625 35.515625 20.015625 
Q 33.0625 21.96875 24.703125 23.78125 
L 21.578125 24.515625 
Q 13.234375 26.265625 9.515625 29.90625 
Q 5.8125 33.546875 5.8125 39.890625 
Q 5.8125 47.609375 11.28125 51.796875 
Q 16.75 56 26.8125 56 
Q 31.78125 56 36.171875 55.265625 
Q 40.578125 54.546875 44.28125 53.078125 
z
" id="DejaVuSans-73"/>
      <path d="M 9.421875 54.6875 
L 18.40625 54.6875 
L 18.40625 0 
L 9.421875 0 
z
M 9.421875 75.984375 
L 18.40625 75.984375 
L 18.40625 64.59375 
L 9.421875 64.59375 
z
" id="DejaVuSans-69"/>
      <path d="M 18.3125 70.21875 
L 18.3125 54.6875 
L 36.8125 54.6875 
L 36.8125 47.703125 
L 18.3125 47.703125 
L 18.3125 18.015625 
Q 18.3125 11.328125 20.140625 9.421875 
Q 21.96875 7.515625 27.59375 7.515625 
L 36.8125 7.515625 
L 36.8125 0 
L 27.59375 0 
Q 17.1875 0 13.234375 3.875 
Q 9.28125 7.765625 9.28125 18.015625 
L 9.28125 47.703125 
L 2.6875 47.703125 
L 2.6875 54.6875 
L 9.28125 54.6875 
L 9.28125 70.21875 
z
" id="DejaVuSans-74"/>
      <path d="M 32.171875 -5.078125 
Q 28.375 -14.84375 24.75 -17.8125 
Q 21.140625 -20.796875 15.09375 -20.796875 
L 7.90625 -20.796875 
L 7.90625 -13.28125 
L 13.1875 -13.28125 
Q 16.890625 -13.28125 18.9375 -11.515625 
Q 21 -9.765625 23.484375 -3.21875 
L 25.09375 0.875 
L 2.984375 54.6875 
L 12.5 54.6875 
L 29.59375 11.921875 
L 46.6875 54.6875 
L 56.203125 54.6875 
z
" id="DejaVuSans-79"/>
     </defs>
     <g transform="translate(14.798438 157.170937)rotate(-90)scale(0.1 -0.1)">
      <use xlink:href="#DejaVuSans-64"/>
      <use x="63.476562" xlink:href="#DejaVuSans-65"/>
      <use x="125" xlink:href="#DejaVuSans-6e"/>
      <use x="188.378906" xlink:href="#DejaVuSans-73"/>
      <use x="240.478516" xlink:href="#DejaVuSans-69"/>
      <use x="268.261719" xlink:href="#DejaVuSans-74"/>
      <use x="307.470703" xlink:href="#DejaVuSans-79"/>
     </g>
    </g>
   </g>
   <g id="line2d_14">
    <path clip-path="url(#pdb5856f4a2)" d="M 54.444401 255.350139 
L 61.161347 255.207236 
L 64.519819 254.914988 
L 67.878292 254.356027 
L 71.236765 253.520112 
L 74.595238 252.449837 
L 77.953711 251.156196 
L 81.312183 249.604039 
L 84.670656 247.74945 
L 88.029129 245.565883 
L 91.387602 243.107626 
L 98.104547 237.819202 
L 103.142256 233.468775 
L 108.179966 229.026103 
L 109.859202 227.736071 
L 111.538438 226.638989 
L 113.217675 225.774539 
L 114.896911 225.156375 
L 116.576147 224.772516 
L 118.255384 224.594042 
L 119.93462 224.586928 
L 121.613857 224.720591 
L 124.972329 225.313819 
L 128.330802 226.22672 
L 130.010039 226.803347 
L 131.689275 227.503803 
L 133.368511 228.383451 
L 135.047748 229.492872 
L 136.726984 230.854046 
L 138.406221 232.446402 
L 141.764693 236.061004 
L 145.123166 239.706161 
L 148.481639 242.922786 
L 150.160875 244.312929 
L 153.519348 246.671112 
L 156.877821 248.601828 
L 160.236294 250.278824 
L 163.594766 251.715302 
L 166.953239 252.795262 
L 170.311712 253.484811 
L 173.670185 253.908086 
L 182.066367 254.627066 
L 190.462549 255.089551 
L 197.179494 255.304727 
L 207.254913 255.357671 
L 232.443458 255.263263 
L 235.801931 255.066823 
L 240.83964 254.480386 
L 244.198113 254.104615 
L 247.556586 254.032344 
L 250.915059 254.320316 
L 257.632004 255.103789 
L 262.669713 255.31909 
L 267.707423 255.352617 
L 267.707423 255.352617 
" style="fill:none;stroke:#1f77b4;stroke-linecap:square;stroke-width:1.5;"/>
   </g>
   <g id="line2d_15">
    <path clip-path="url(#pdb5856f4a2)" d="M 177.605209 255.352881 
L 178.206165 255.301693 
L 179.408076 254.89628 
L 180.009031 254.98616 
L 181.210943 255.331612 
L 184.215721 255.358125 
L 186.619543 255.317977 
L 188.42241 254.932469 
L 189.023365 255.10523 
L 189.624321 255.073935 
L 190.225276 254.897387 
L 190.826232 254.980854 
L 192.028143 255.329877 
L 195.032921 255.358125 
L 213.662545 255.290984 
L 214.2635 255.023889 
L 214.864456 254.571338 
L 215.465411 254.477425 
L 216.667323 255.260158 
L 217.869234 255.357702 
L 220.273056 255.341997 
L 220.874012 255.211168 
L 222.075923 254.33326 
L 223.277834 255.062205 
L 224.479745 254.888401 
L 225.681657 255.300139 
L 227.484523 255.351663 
L 228.085479 255.299948 
L 229.888346 254.588437 
L 230.489301 254.035121 
L 231.090257 253.132075 
L 231.691212 252.805996 
L 232.893124 254.235839 
L 233.494079 253.518567 
L 234.69599 249.991266 
L 235.296946 249.252122 
L 235.897902 249.099198 
L 236.498857 248.469875 
L 238.90268 242.761712 
L 239.503635 239.364495 
L 240.104591 231.96873 
L 240.705546 220.19443 
L 241.306502 204.000721 
L 241.907458 184.256507 
L 242.508413 159.213479 
L 244.31128 70.650825 
L 244.912236 50.135442 
L 245.513191 36.894804 
L 246.114147 33.697 
L 247.316058 45.256641 
L 247.917014 44.121765 
L 248.517969 45.919511 
L 249.118925 72.586152 
L 250.320836 183.718249 
L 250.921791 223.311193 
L 251.522747 244.215285 
L 252.123703 252.49175 
L 252.724658 254.788058 
L 253.325614 255.280071 
L 253.926569 255.350486 
L 253.926569 255.350486 
" style="fill:none;stroke:#1f77b4;stroke-dasharray:1.5,2.475;stroke-dashoffset:0;stroke-width:1.5;"/>
   </g>
   <g id="line2d_16">
    <path clip-path="url(#pdb5856f4a2)" d="M 60.834845 255.357946 
L 65.48821 255.254707 
L 67.039332 254.937589 
L 70.141575 253.490089 
L 71.692697 253.051094 
L 73.243818 252.844353 
L 74.79494 252.503298 
L 77.897183 251.487451 
L 80.999427 250.198422 
L 84.10167 248.542838 
L 88.755035 245.684243 
L 90.306157 244.520803 
L 93.4084 241.648637 
L 98.061765 237.271046 
L 105.817373 229.485844 
L 107.368495 228.176089 
L 113.572981 223.772805 
L 115.124103 223.008437 
L 116.675224 222.371844 
L 118.226346 221.881954 
L 119.777468 221.68008 
L 121.328589 221.929403 
L 122.879711 222.557995 
L 129.084198 226.12259 
L 130.635319 227.132469 
L 132.186441 228.342312 
L 133.737563 229.699722 
L 136.839806 232.878474 
L 139.942049 236.23126 
L 144.595414 240.953589 
L 146.146536 242.402201 
L 149.248779 244.887346 
L 153.902144 248.229227 
L 157.004387 250.139336 
L 158.555509 250.899554 
L 161.657752 252.097884 
L 164.759995 253.026683 
L 167.862239 253.609568 
L 172.515604 254.184785 
L 178.72009 254.590837 
L 184.924577 254.837296 
L 195.782428 255.138885 
L 217.498131 255.099886 
L 222.151496 254.855307 
L 225.25374 255.089761 
L 228.355983 255.259021 
L 233.009348 255.198765 
L 236.111591 254.975997 
L 237.662713 254.690862 
L 239.213834 254.201331 
L 242.316078 252.979159 
L 243.867199 252.731593 
L 245.418321 252.888148 
L 246.969443 253.366031 
L 250.071686 254.67827 
L 251.622807 255.102018 
L 253.173929 255.289428 
L 257.827294 255.357956 
L 257.827294 255.357956 
" style="fill:none;stroke:#ff7f0e;stroke-linecap:square;stroke-width:1.5;"/>
   </g>
   <g id="line2d_17">
    <path clip-path="url(#pdb5856f4a2)" d="M 91.388522 255.203486 
L 92.659363 255.358125 
L 93.930203 255.274249 
L 95.201043 255.358125 
L 96.471884 255.298591 
L 99.013564 255.317574 
L 102.826085 255.358125 
L 109.180287 255.339779 
L 118.076169 255.358125 
L 129.513732 255.349958 
L 146.034656 255.358125 
L 154.930538 255.321872 
L 179.076504 255.317184 
L 180.347344 255.234874 
L 181.618184 255.315953 
L 184.159865 255.294295 
L 203.22247 255.195621 
L 204.49331 255.329406 
L 205.76415 255.179209 
L 207.034991 255.329745 
L 208.305831 255.124085 
L 209.576671 255.282374 
L 210.847511 255.079066 
L 212.118352 255.313008 
L 213.389192 255.024471 
L 214.660032 255.28835 
L 215.930873 254.810544 
L 217.201713 255.287425 
L 218.472553 252.327682 
L 219.743394 252.598752 
L 221.014234 253.601945 
L 222.285074 251.768841 
L 223.555915 249.160063 
L 224.826755 255.358125 
L 226.097595 254.06182 
L 227.368435 254.72315 
L 228.639276 253.428297 
L 229.910116 253.499415 
L 231.180956 252.401386 
L 232.451797 251.850855 
L 234.993477 248.256371 
L 236.264318 242.770754 
L 237.535158 233.609025 
L 238.805998 212.910124 
L 240.076839 174.224459 
L 242.618519 53.889717 
L 243.88936 43.060513 
L 245.1602 76.897001 
L 246.43104 91.57562 
L 247.70188 116.894602 
L 248.972721 193.627136 
L 250.243561 247.338378 
L 251.514401 254.70252 
L 252.785242 255.358125 
L 252.785242 255.358125 
" style="fill:none;stroke:#ff7f0e;stroke-dasharray:1.5,2.475;stroke-dashoffset:0;stroke-width:1.5;"/>
   </g>
   <g id="line2d_18">
    <path clip-path="url(#pdb5856f4a2)" d="M 57.990401 255.348467 
L 62.860583 255.207067 
L 66.10737 254.83647 
L 69.354158 254.186391 
L 74.22434 252.977047 
L 77.471127 251.959197 
L 80.717915 250.559262 
L 83.964703 248.74255 
L 88.834885 245.585714 
L 95.32846 240.932276 
L 98.575248 238.371056 
L 100.198642 236.87944 
L 103.445429 233.444479 
L 106.692217 229.922519 
L 109.939005 226.875897 
L 111.562399 225.573776 
L 113.185793 224.427378 
L 114.809186 223.466903 
L 116.43258 222.744238 
L 118.055974 222.322869 
L 119.679368 222.260149 
L 121.302762 222.58479 
L 122.926156 223.279459 
L 124.54955 224.277573 
L 132.666519 230.147272 
L 135.913307 232.313851 
L 142.406882 237.183068 
L 145.65367 239.80264 
L 152.147246 245.484377 
L 155.394033 247.91678 
L 158.640821 249.930859 
L 161.887609 251.491096 
L 165.134397 252.661526 
L 168.381184 253.483689 
L 171.627972 254.019461 
L 176.498154 254.600106 
L 179.744941 254.855994 
L 184.615123 254.984692 
L 200.849062 255.278141 
L 208.966031 255.312899 
L 231.693545 255.190805 
L 234.940333 254.842394 
L 236.563727 254.506243 
L 238.187121 254.028971 
L 243.057302 252.222148 
L 244.680696 251.896182 
L 246.30409 251.904294 
L 247.927484 252.252196 
L 251.174272 253.534496 
L 252.797666 254.172321 
L 254.421059 254.668806 
L 256.044453 255.000551 
L 259.291241 255.290161 
L 264.161423 255.353099 
L 264.161423 255.353099 
" style="fill:none;stroke:#2ca02c;stroke-linecap:square;stroke-width:1.5;"/>
   </g>
   <g id="line2d_19">
    <path clip-path="url(#pdb5856f4a2)" d="M 153.625266 255.358125 
L 155.194648 255.358125 
L 157.54872 255.323203 
L 159.902792 255.358125 
L 163.826245 255.339698 
L 169.31908 255.358125 
L 176.381295 255.349418 
L 186.582274 255.358125 
L 192.859799 255.316107 
L 193.64449 255.181139 
L 194.429181 255.352243 
L 206.199541 255.353287 
L 210.907685 255.342582 
L 211.692375 255.206051 
L 213.261757 255.357071 
L 217.18521 255.335023 
L 219.539282 254.896125 
L 221.108663 255.236285 
L 221.893354 255.25176 
L 222.678044 255.100331 
L 223.462735 255.230929 
L 225.816807 255.263743 
L 226.601498 255.289498 
L 228.95557 254.868804 
L 229.74026 254.16253 
L 231.309642 254.248923 
L 232.094332 254.144691 
L 232.879023 253.708926 
L 233.663714 252.824585 
L 234.448404 252.632728 
L 235.233095 251.593845 
L 236.017786 249.468931 
L 236.802476 247.741301 
L 237.587167 243.050728 
L 238.371858 236.963269 
L 239.156548 228.141282 
L 239.941239 210.191384 
L 240.72593 189.468171 
L 241.51062 154.451251 
L 242.295311 108.413913 
L 243.864692 39.823 
L 244.649383 33.415268 
L 245.434074 37.720072 
L 246.218764 60.230129 
L 247.003455 68.425949 
L 247.788146 80.937887 
L 248.572836 107.427707 
L 250.142218 220.222836 
L 250.926908 247.040839 
L 251.711599 254.338168 
L 252.49629 255.358125 
L 253.28098 255.288338 
L 253.28098 255.288338 
" style="fill:none;stroke:#2ca02c;stroke-dasharray:1.5,2.475;stroke-dashoffset:0;stroke-width:1.5;"/>
   </g>
   <g id="line2d_20">
    <path clip-path="url(#pdb5856f4a2)" d="M 60.745205 255.357985 
L 65.362962 255.262889 
L 66.902215 254.970908 
L 68.441467 254.340476 
L 69.980719 253.581506 
L 71.519972 253.117686 
L 74.598476 252.657781 
L 77.676981 251.675427 
L 80.755485 250.407154 
L 83.83399 248.81729 
L 88.451747 246.039122 
L 89.990999 244.987595 
L 91.530252 243.698704 
L 97.687261 237.780463 
L 106.922775 228.432026 
L 108.462027 227.094474 
L 113.079784 223.736941 
L 114.619036 222.696129 
L 116.158288 221.872114 
L 117.697541 221.427866 
L 119.236793 221.286614 
L 120.776045 221.424933 
L 122.315298 221.818021 
L 125.393802 223.086753 
L 128.472307 224.76427 
L 130.011559 225.69545 
L 131.550811 226.836164 
L 134.629316 229.673035 
L 146.943335 242.436989 
L 150.021839 245.004558 
L 154.639596 248.443964 
L 156.178848 249.457301 
L 157.718101 250.305103 
L 160.796605 251.64119 
L 163.87511 252.734923 
L 166.953615 253.435515 
L 171.571371 254.106761 
L 176.189128 254.536578 
L 185.424642 254.945641 
L 197.738661 255.180509 
L 219.288193 255.169681 
L 222.366698 255.108938 
L 230.062959 255.333241 
L 251.612491 255.343329 
L 256.230248 255.358019 
L 256.230248 255.358019 
" style="fill:none;stroke:#d62728;stroke-linecap:square;stroke-width:1.5;"/>
   </g>
   <g id="line2d_21">
    <path clip-path="url(#pdb5856f4a2)" d="M 69.355449 255.352661 
L 75.344691 255.231069 
L 79.836623 255.052229 
L 87.323176 255.135457 
L 94.809729 254.934782 
L 109.782835 255.159769 
L 114.274767 255.032659 
L 121.76132 254.540217 
L 124.755942 254.640165 
L 127.750563 254.789924 
L 130.745184 254.632788 
L 133.739805 254.403153 
L 138.231737 254.381021 
L 141.226358 254.310496 
L 150.210222 253.762391 
L 156.199464 253.793122 
L 160.691396 253.760184 
L 163.686017 253.554857 
L 166.680639 253.001689 
L 171.17257 251.973855 
L 174.167192 251.490375 
L 175.664502 251.357211 
L 177.161813 251.339715 
L 178.659123 251.466224 
L 184.648366 252.377136 
L 186.145676 252.392304 
L 189.140298 252.132314 
L 198.124161 250.982709 
L 201.118783 251.07134 
L 204.113404 251.127482 
L 207.108025 250.808623 
L 210.102646 250.140492 
L 211.599957 249.567363 
L 213.097267 248.476034 
L 214.594578 246.211532 
L 216.091889 241.963999 
L 217.589199 235.30405 
L 220.58382 219.063067 
L 222.081131 214.46234 
L 223.578442 214.502113 
L 226.573063 221.070683 
L 228.070374 221.614122 
L 229.567684 218.696097 
L 231.064995 213.270318 
L 234.059616 200.450272 
L 235.556927 195.274131 
L 237.054237 192.197403 
L 238.551548 192.018166 
L 240.048858 195.086171 
L 241.546169 201.083082 
L 243.04348 209.082091 
L 246.038101 226.507254 
L 247.535411 234.345277 
L 249.032722 241.128676 
L 250.530033 246.62969 
L 252.027343 250.642261 
L 253.524654 253.16724 
L 255.021964 254.49847 
L 256.519275 255.076711 
L 258.016586 255.281805 
L 259.513896 255.340607 
L 259.513896 255.340607 
" style="fill:none;stroke:#d62728;stroke-dasharray:1.5,2.475;stroke-dashoffset:0;stroke-width:1.5;"/>
   </g>
   <g id="patch_3">
    <path d="M 43.78125 255.358125 
L 43.78125 22.318125 
" style="fill:none;stroke:#000000;stroke-linecap:square;stroke-linejoin:miter;stroke-width:0.8;"/>
   </g>
   <g id="patch_4">
    <path d="M 43.78125 255.358125 
L 278.370574 255.358125 
" style="fill:none;stroke:#000000;stroke-linecap:square;stroke-linejoin:miter;stroke-width:0.8;"/>
   </g>
   <g id="text_15">
    <!-- 1 - 30 -->
    <defs>
     <path id="DejaVuSans-20"/>
    </defs>
    <g transform="translate(143.644974 16.318125)scale(0.12 -0.12)">
     <use xlink:href="#DejaVuSans-31"/>
     <use x="63.623047" xlink:href="#DejaVuSans-20"/>
     <use x="95.410156" xlink:href="#DejaVuSans-2d"/>
     <use x="131.494141" xlink:href="#DejaVuSans-20"/>
     <use x="163.28125" xlink:href="#DejaVuSans-33"/>
     <use x="226.904297" xlink:href="#DejaVuSans-30"/>
    </g>
   </g>
   <g id="legend_1">
    <g id="patch_5">
     <path d="M 50.78125 89.030625 
L 155.307813 89.030625 
Q 157.307813 89.030625 157.307813 87.030625 
L 157.307813 29.318125 
Q 157.307813 27.318125 155.307813 27.318125 
L 50.78125 27.318125 
Q 48.78125 27.318125 48.78125 29.318125 
L 48.78125 87.030625 
Q 48.78125 89.030625 50.78125 89.030625 
z
" style="fill:#ffffff;opacity:0.8;stroke:#cccccc;stroke-linejoin:miter;"/>
    </g>
    <g id="line2d_22">
     <path d="M 52.78125 35.416562 
L 72.78125 35.416562 
" style="fill:none;stroke:#1f77b4;stroke-linecap:square;stroke-width:1.5;"/>
    </g>
    <g id="line2d_23"/>
    <g id="text_16">
     <!-- prosic+delly -->
     <defs>
      <path d="M 18.109375 8.203125 
L 18.109375 -20.796875 
L 9.078125 -20.796875 
L 9.078125 54.6875 
L 18.109375 54.6875 
L 18.109375 46.390625 
Q 20.953125 51.265625 25.265625 53.625 
Q 29.59375 56 35.59375 56 
Q 45.5625 56 51.78125 48.09375 
Q 58.015625 40.1875 58.015625 27.296875 
Q 58.015625 14.40625 51.78125 6.484375 
Q 45.5625 -1.421875 35.59375 -1.421875 
Q 29.59375 -1.421875 25.265625 0.953125 
Q 20.953125 3.328125 18.109375 8.203125 
z
M 48.6875 27.296875 
Q 48.6875 37.203125 44.609375 42.84375 
Q 40.53125 48.484375 33.40625 48.484375 
Q 26.265625 48.484375 22.1875 42.84375 
Q 18.109375 37.203125 18.109375 27.296875 
Q 18.109375 17.390625 22.1875 11.75 
Q 26.265625 6.109375 33.40625 6.109375 
Q 40.53125 6.109375 44.609375 11.75 
Q 48.6875 17.390625 48.6875 27.296875 
z
" id="DejaVuSans-70"/>
      <path d="M 41.109375 46.296875 
Q 39.59375 47.171875 37.8125 47.578125 
Q 36.03125 48 33.890625 48 
Q 26.265625 48 22.1875 43.046875 
Q 18.109375 38.09375 18.109375 28.8125 
L 18.109375 0 
L 9.078125 0 
L 9.078125 54.6875 
L 18.109375 54.6875 
L 18.109375 46.1875 
Q 20.953125 51.171875 25.484375 53.578125 
Q 30.03125 56 36.53125 56 
Q 37.453125 56 38.578125 55.875 
Q 39.703125 55.765625 41.0625 55.515625 
z
" id="DejaVuSans-72"/>
      <path d="M 30.609375 48.390625 
Q 23.390625 48.390625 19.1875 42.75 
Q 14.984375 37.109375 14.984375 27.296875 
Q 14.984375 17.484375 19.15625 11.84375 
Q 23.34375 6.203125 30.609375 6.203125 
Q 37.796875 6.203125 41.984375 11.859375 
Q 46.1875 17.53125 46.1875 27.296875 
Q 46.1875 37.015625 41.984375 42.703125 
Q 37.796875 48.390625 30.609375 48.390625 
z
M 30.609375 56 
Q 42.328125 56 49.015625 48.375 
Q 55.71875 40.765625 55.71875 27.296875 
Q 55.71875 13.875 49.015625 6.21875 
Q 42.328125 -1.421875 30.609375 -1.421875 
Q 18.84375 -1.421875 12.171875 6.21875 
Q 5.515625 13.875 5.515625 27.296875 
Q 5.515625 40.765625 12.171875 48.375 
Q 18.84375 56 30.609375 56 
z
" id="DejaVuSans-6f"/>
      <path d="M 48.78125 52.59375 
L 48.78125 44.1875 
Q 44.96875 46.296875 41.140625 47.34375 
Q 37.3125 48.390625 33.40625 48.390625 
Q 24.65625 48.390625 19.8125 42.84375 
Q 14.984375 37.3125 14.984375 27.296875 
Q 14.984375 17.28125 19.8125 11.734375 
Q 24.65625 6.203125 33.40625 6.203125 
Q 37.3125 6.203125 41.140625 7.25 
Q 44.96875 8.296875 48.78125 10.40625 
L 48.78125 2.09375 
Q 45.015625 0.34375 40.984375 -0.53125 
Q 36.96875 -1.421875 32.421875 -1.421875 
Q 20.0625 -1.421875 12.78125 6.34375 
Q 5.515625 14.109375 5.515625 27.296875 
Q 5.515625 40.671875 12.859375 48.328125 
Q 20.21875 56 33.015625 56 
Q 37.15625 56 41.109375 55.140625 
Q 45.0625 54.296875 48.78125 52.59375 
z
" id="DejaVuSans-63"/>
      <path d="M 9.421875 75.984375 
L 18.40625 75.984375 
L 18.40625 0 
L 9.421875 0 
z
" id="DejaVuSans-6c"/>
     </defs>
     <g transform="translate(80.78125 38.916562)scale(0.1 -0.1)">
      <use xlink:href="#DejaVuSans-70"/>
      <use x="63.476562" xlink:href="#DejaVuSans-72"/>
      <use x="104.558594" xlink:href="#DejaVuSans-6f"/>
      <use x="165.740234" xlink:href="#DejaVuSans-73"/>
      <use x="217.839844" xlink:href="#DejaVuSans-69"/>
      <use x="245.623047" xlink:href="#DejaVuSans-63"/>
      <use x="300.603516" xlink:href="#DejaVuSans-2b"/>
      <use x="384.392578" xlink:href="#DejaVuSans-64"/>
      <use x="447.869141" xlink:href="#DejaVuSans-65"/>
      <use x="509.392578" xlink:href="#DejaVuSans-6c"/>
      <use x="537.175781" xlink:href="#DejaVuSans-6c"/>
      <use x="564.958984" xlink:href="#DejaVuSans-79"/>
     </g>
    </g>
    <g id="line2d_24">
     <path d="M 52.78125 50.094687 
L 72.78125 50.094687 
" style="fill:none;stroke:#ff7f0e;stroke-linecap:square;stroke-width:1.5;"/>
    </g>
    <g id="line2d_25"/>
    <g id="text_17">
     <!-- prosic+lancet -->
     <defs>
      <path d="M 34.28125 27.484375 
Q 23.390625 27.484375 19.1875 25 
Q 14.984375 22.515625 14.984375 16.5 
Q 14.984375 11.71875 18.140625 8.90625 
Q 21.296875 6.109375 26.703125 6.109375 
Q 34.1875 6.109375 38.703125 11.40625 
Q 43.21875 16.703125 43.21875 25.484375 
L 43.21875 27.484375 
z
M 52.203125 31.203125 
L 52.203125 0 
L 43.21875 0 
L 43.21875 8.296875 
Q 40.140625 3.328125 35.546875 0.953125 
Q 30.953125 -1.421875 24.3125 -1.421875 
Q 15.921875 -1.421875 10.953125 3.296875 
Q 6 8.015625 6 15.921875 
Q 6 25.140625 12.171875 29.828125 
Q 18.359375 34.515625 30.609375 34.515625 
L 43.21875 34.515625 
L 43.21875 35.40625 
Q 43.21875 41.609375 39.140625 45 
Q 35.0625 48.390625 27.6875 48.390625 
Q 23 48.390625 18.546875 47.265625 
Q 14.109375 46.140625 10.015625 43.890625 
L 10.015625 52.203125 
Q 14.9375 54.109375 19.578125 55.046875 
Q 24.21875 56 28.609375 56 
Q 40.484375 56 46.34375 49.84375 
Q 52.203125 43.703125 52.203125 31.203125 
z
" id="DejaVuSans-61"/>
     </defs>
     <g transform="translate(80.78125 53.594687)scale(0.1 -0.1)">
      <use xlink:href="#DejaVuSans-70"/>
      <use x="63.476562" xlink:href="#DejaVuSans-72"/>
      <use x="104.558594" xlink:href="#DejaVuSans-6f"/>
      <use x="165.740234" xlink:href="#DejaVuSans-73"/>
      <use x="217.839844" xlink:href="#DejaVuSans-69"/>
      <use x="245.623047" xlink:href="#DejaVuSans-63"/>
      <use x="300.603516" xlink:href="#DejaVuSans-2b"/>
      <use x="384.392578" xlink:href="#DejaVuSans-6c"/>
      <use x="412.175781" xlink:href="#DejaVuSans-61"/>
      <use x="473.455078" xlink:href="#DejaVuSans-6e"/>
      <use x="536.833984" xlink:href="#DejaVuSans-63"/>
      <use x="591.814453" xlink:href="#DejaVuSans-65"/>
      <use x="653.337891" xlink:href="#DejaVuSans-74"/>
     </g>
    </g>
    <g id="line2d_26">
     <path d="M 52.78125 64.772812 
L 72.78125 64.772812 
" style="fill:none;stroke:#2ca02c;stroke-linecap:square;stroke-width:1.5;"/>
    </g>
    <g id="line2d_27"/>
    <g id="text_18">
     <!-- prosic+manta -->
     <defs>
      <path d="M 52 44.1875 
Q 55.375 50.25 60.0625 53.125 
Q 64.75 56 71.09375 56 
Q 79.640625 56 84.28125 50.015625 
Q 88.921875 44.046875 88.921875 33.015625 
L 88.921875 0 
L 79.890625 0 
L 79.890625 32.71875 
Q 79.890625 40.578125 77.09375 44.375 
Q 74.3125 48.1875 68.609375 48.1875 
Q 61.625 48.1875 57.5625 43.546875 
Q 53.515625 38.921875 53.515625 30.90625 
L 53.515625 0 
L 44.484375 0 
L 44.484375 32.71875 
Q 44.484375 40.625 41.703125 44.40625 
Q 38.921875 48.1875 33.109375 48.1875 
Q 26.21875 48.1875 22.15625 43.53125 
Q 18.109375 38.875 18.109375 30.90625 
L 18.109375 0 
L 9.078125 0 
L 9.078125 54.6875 
L 18.109375 54.6875 
L 18.109375 46.1875 
Q 21.1875 51.21875 25.484375 53.609375 
Q 29.78125 56 35.6875 56 
Q 41.65625 56 45.828125 52.96875 
Q 50 49.953125 52 44.1875 
z
" id="DejaVuSans-6d"/>
     </defs>
     <g transform="translate(80.78125 68.272812)scale(0.1 -0.1)">
      <use xlink:href="#DejaVuSans-70"/>
      <use x="63.476562" xlink:href="#DejaVuSans-72"/>
      <use x="104.558594" xlink:href="#DejaVuSans-6f"/>
      <use x="165.740234" xlink:href="#DejaVuSans-73"/>
      <use x="217.839844" xlink:href="#DejaVuSans-69"/>
      <use x="245.623047" xlink:href="#DejaVuSans-63"/>
      <use x="300.603516" xlink:href="#DejaVuSans-2b"/>
      <use x="384.392578" xlink:href="#DejaVuSans-6d"/>
      <use x="481.804688" xlink:href="#DejaVuSans-61"/>
      <use x="543.083984" xlink:href="#DejaVuSans-6e"/>
      <use x="606.462891" xlink:href="#DejaVuSans-74"/>
      <use x="645.671875" xlink:href="#DejaVuSans-61"/>
     </g>
    </g>
    <g id="line2d_28">
     <path d="M 52.78125 79.450937 
L 72.78125 79.450937 
" style="fill:none;stroke:#d62728;stroke-linecap:square;stroke-width:1.5;"/>
    </g>
    <g id="line2d_29"/>
    <g id="text_19">
     <!-- prosic+strelka -->
     <defs>
      <path d="M 9.078125 75.984375 
L 18.109375 75.984375 
L 18.109375 31.109375 
L 44.921875 54.6875 
L 56.390625 54.6875 
L 27.390625 29.109375 
L 57.625 0 
L 45.90625 0 
L 18.109375 26.703125 
L 18.109375 0 
L 9.078125 0 
z
" id="DejaVuSans-6b"/>
     </defs>
     <g transform="translate(80.78125 82.950937)scale(0.1 -0.1)">
      <use xlink:href="#DejaVuSans-70"/>
      <use x="63.476562" xlink:href="#DejaVuSans-72"/>
      <use x="104.558594" xlink:href="#DejaVuSans-6f"/>
      <use x="165.740234" xlink:href="#DejaVuSans-73"/>
      <use x="217.839844" xlink:href="#DejaVuSans-69"/>
      <use x="245.623047" xlink:href="#DejaVuSans-63"/>
      <use x="300.603516" xlink:href="#DejaVuSans-2b"/>
      <use x="384.392578" xlink:href="#DejaVuSans-73"/>
      <use x="436.492188" xlink:href="#DejaVuSans-74"/>
      <use x="475.701172" xlink:href="#DejaVuSans-72"/>
      <use x="516.783203" xlink:href="#DejaVuSans-65"/>
      <use x="578.306641" xlink:href="#DejaVuSans-6c"/>
      <use x="606.089844" xlink:href="#DejaVuSans-6b"/>
      <use x="663.984375" xlink:href="#DejaVuSans-61"/>
     </g>
    </g>
   </g>
  </g>
  <g id="axes_2">
   <g id="patch_6">
    <path d="M 314.530574 255.358125 
L 549.119897 255.358125 
L 549.119897 22.318125 
L 314.530574 22.318125 
z
" style="fill:#ffffff;"/>
   </g>
   <g id="matplotlib.axis_3">
    <g id="xtick_6">
     <g id="line2d_30">
      <g>
       <use style="stroke:#000000;stroke-width:0.8;" x="331.131455" xlink:href="#m1a30a0fae5" y="255.358125"/>
      </g>
     </g>
     <g id="text_20">
      <!-- 9e-14 -->
      <g transform="translate(316.707237 269.956562)scale(0.1 -0.1)">
       <use xlink:href="#DejaVuSans-39"/>
       <use x="63.623047" xlink:href="#DejaVuSans-65"/>
       <use x="125.146484" xlink:href="#DejaVuSans-2d"/>
       <use x="161.230469" xlink:href="#DejaVuSans-31"/>
       <use x="224.853516" xlink:href="#DejaVuSans-34"/>
      </g>
     </g>
    </g>
    <g id="xtick_7">
     <g id="line2d_31">
      <g>
       <use style="stroke:#000000;stroke-width:0.8;" x="380.224995" xlink:href="#m1a30a0fae5" y="255.358125"/>
      </g>
     </g>
     <g id="text_21">
      <!-- 2e-09 -->
      <g transform="translate(365.800777 269.956562)scale(0.1 -0.1)">
       <use xlink:href="#DejaVuSans-32"/>
       <use x="63.623047" xlink:href="#DejaVuSans-65"/>
       <use x="125.146484" xlink:href="#DejaVuSans-2d"/>
       <use x="161.230469" xlink:href="#DejaVuSans-30"/>
       <use x="224.853516" xlink:href="#DejaVuSans-39"/>
      </g>
     </g>
    </g>
    <g id="xtick_8">
     <g id="line2d_32">
      <g>
       <use style="stroke:#000000;stroke-width:0.8;" x="429.318535" xlink:href="#m1a30a0fae5" y="255.358125"/>
      </g>
     </g>
     <g id="text_22">
      <!-- 5e-05 -->
      <g transform="translate(414.894316 269.956562)scale(0.1 -0.1)">
       <use xlink:href="#DejaVuSans-35"/>
       <use x="63.623047" xlink:href="#DejaVuSans-65"/>
       <use x="125.146484" xlink:href="#DejaVuSans-2d"/>
       <use x="161.230469" xlink:href="#DejaVuSans-30"/>
       <use x="224.853516" xlink:href="#DejaVuSans-35"/>
      </g>
     </g>
    </g>
    <g id="xtick_9">
     <g id="line2d_33">
      <g>
       <use style="stroke:#000000;stroke-width:0.8;" x="478.412075" xlink:href="#m1a30a0fae5" y="255.358125"/>
      </g>
     </g>
     <g id="text_23">
      <!-- 1 -->
      <g transform="translate(475.230825 269.956562)scale(0.1 -0.1)">
       <use xlink:href="#DejaVuSans-31"/>
      </g>
     </g>
    </g>
    <g id="xtick_10">
     <g id="line2d_34">
      <g>
       <use style="stroke:#000000;stroke-width:0.8;" x="527.505615" xlink:href="#m1a30a0fae5" y="255.358125"/>
      </g>
     </g>
     <g id="text_24">
      <!-- 2e+04 -->
      <g transform="translate(510.695459 269.956562)scale(0.1 -0.1)">
       <use xlink:href="#DejaVuSans-32"/>
       <use x="63.623047" xlink:href="#DejaVuSans-65"/>
       <use x="125.146484" xlink:href="#DejaVuSans-2b"/>
       <use x="208.935547" xlink:href="#DejaVuSans-30"/>
       <use x="272.558594" xlink:href="#DejaVuSans-34"/>
      </g>
     </g>
    </g>
   </g>
   <g id="matplotlib.axis_4">
    <g id="ytick_9">
     <g id="line2d_35">
      <g>
       <use style="stroke:#000000;stroke-width:0.8;" x="314.530574" xlink:href="#m7b867ae089" y="255.358125"/>
      </g>
     </g>
     <g id="text_25">
      <!-- 0.0 -->
      <g transform="translate(291.627449 259.157344)scale(0.1 -0.1)">
       <use xlink:href="#DejaVuSans-30"/>
       <use x="63.623047" xlink:href="#DejaVuSans-2e"/>
       <use x="95.410156" xlink:href="#DejaVuSans-30"/>
      </g>
     </g>
    </g>
    <g id="ytick_10">
     <g id="line2d_36">
      <g>
       <use style="stroke:#000000;stroke-width:0.8;" x="314.530574" xlink:href="#m7b867ae089" y="221.54648"/>
      </g>
     </g>
     <g id="text_26">
      <!-- 0.1 -->
      <g transform="translate(291.627449 225.345699)scale(0.1 -0.1)">
       <use xlink:href="#DejaVuSans-30"/>
       <use x="63.623047" xlink:href="#DejaVuSans-2e"/>
       <use x="95.410156" xlink:href="#DejaVuSans-31"/>
      </g>
     </g>
    </g>
    <g id="ytick_11">
     <g id="line2d_37">
      <g>
       <use style="stroke:#000000;stroke-width:0.8;" x="314.530574" xlink:href="#m7b867ae089" y="187.734835"/>
      </g>
     </g>
     <g id="text_27">
      <!-- 0.2 -->
      <g transform="translate(291.627449 191.534054)scale(0.1 -0.1)">
       <use xlink:href="#DejaVuSans-30"/>
       <use x="63.623047" xlink:href="#DejaVuSans-2e"/>
       <use x="95.410156" xlink:href="#DejaVuSans-32"/>
      </g>
     </g>
    </g>
    <g id="ytick_12">
     <g id="line2d_38">
      <g>
       <use style="stroke:#000000;stroke-width:0.8;" x="314.530574" xlink:href="#m7b867ae089" y="153.92319"/>
      </g>
     </g>
     <g id="text_28">
      <!-- 0.3 -->
      <g transform="translate(291.627449 157.722409)scale(0.1 -0.1)">
       <use xlink:href="#DejaVuSans-30"/>
       <use x="63.623047" xlink:href="#DejaVuSans-2e"/>
       <use x="95.410156" xlink:href="#DejaVuSans-33"/>
      </g>
     </g>
    </g>
    <g id="ytick_13">
     <g id="line2d_39">
      <g>
       <use style="stroke:#000000;stroke-width:0.8;" x="314.530574" xlink:href="#m7b867ae089" y="120.111545"/>
      </g>
     </g>
     <g id="text_29">
      <!-- 0.4 -->
      <g transform="translate(291.627449 123.910764)scale(0.1 -0.1)">
       <use xlink:href="#DejaVuSans-30"/>
       <use x="63.623047" xlink:href="#DejaVuSans-2e"/>
       <use x="95.410156" xlink:href="#DejaVuSans-34"/>
      </g>
     </g>
    </g>
    <g id="ytick_14">
     <g id="line2d_40">
      <g>
       <use style="stroke:#000000;stroke-width:0.8;" x="314.530574" xlink:href="#m7b867ae089" y="86.299901"/>
      </g>
     </g>
     <g id="text_30">
      <!-- 0.5 -->
      <g transform="translate(291.627449 90.099119)scale(0.1 -0.1)">
       <use xlink:href="#DejaVuSans-30"/>
       <use x="63.623047" xlink:href="#DejaVuSans-2e"/>
       <use x="95.410156" xlink:href="#DejaVuSans-35"/>
      </g>
     </g>
    </g>
    <g id="ytick_15">
     <g id="line2d_41">
      <g>
       <use style="stroke:#000000;stroke-width:0.8;" x="314.530574" xlink:href="#m7b867ae089" y="52.488256"/>
      </g>
     </g>
     <g id="text_31">
      <!-- 0.6 -->
      <g transform="translate(291.627449 56.287474)scale(0.1 -0.1)">
       <use xlink:href="#DejaVuSans-30"/>
       <use x="63.623047" xlink:href="#DejaVuSans-2e"/>
       <use x="95.410156" xlink:href="#DejaVuSans-36"/>
      </g>
     </g>
    </g>
   </g>
   <g id="line2d_42">
    <path clip-path="url(#p86070dce0e)" d="M 325.193725 255.350244 
L 331.603622 255.233552 
L 334.80857 254.971469 
L 338.013519 254.408646 
L 341.218467 253.491249 
L 349.230838 250.824065 
L 354.038261 249.477634 
L 355.640735 248.905566 
L 357.243209 248.209332 
L 358.845684 247.369531 
L 360.448158 246.381053 
L 363.653106 243.999328 
L 366.858055 241.233258 
L 373.267952 235.487568 
L 376.4729 232.928636 
L 382.882797 228.172502 
L 384.485271 226.754821 
L 387.69022 223.515795 
L 389.292694 221.858118 
L 390.895168 220.361016 
L 392.497643 219.182221 
L 394.100117 218.457795 
L 395.702591 218.280914 
L 397.305065 218.692731 
L 398.90754 219.682488 
L 400.510014 221.192261 
L 402.112488 223.124228 
L 405.317437 227.733186 
L 408.522385 232.443756 
L 410.124859 234.587219 
L 411.727334 236.532094 
L 413.329808 238.282125 
L 416.534756 241.316479 
L 419.739705 243.929586 
L 422.944653 246.197119 
L 426.149602 248.102206 
L 429.35455 249.715826 
L 432.559499 251.128343 
L 435.764447 252.313822 
L 438.969396 253.22824 
L 443.776818 254.236928 
L 446.981767 254.744547 
L 450.186715 255.088386 
L 454.994138 255.309866 
L 464.608983 255.357896 
L 501.465891 255.270401 
L 512.68321 255.020337 
L 528.707953 255.35161 
L 528.707953 255.35161 
" style="fill:none;stroke:#1f77b4;stroke-linecap:square;stroke-width:1.5;"/>
   </g>
   <g id="line2d_43">
    <path clip-path="url(#p86070dce0e)" d="M 488.103312 255.298947 
L 488.656397 255.212197 
L 489.209482 254.925409 
L 489.762567 254.330353 
L 491.14528 252.295414 
L 491.421822 252.188151 
L 491.698365 252.272221 
L 492.25145 252.924861 
L 493.35762 254.632656 
L 493.910705 255.083725 
L 494.463791 255.276849 
L 495.569961 255.354698 
L 501.653897 255.29053 
L 502.206982 255.12281 
L 502.760067 254.71613 
L 503.313152 253.984512 
L 504.419323 252.27857 
L 504.972408 252.0076 
L 505.802035 252.063477 
L 506.078578 251.856683 
L 506.355121 251.38467 
L 506.631663 250.594197 
L 507.184748 248.000679 
L 507.737833 244.05631 
L 508.290918 238.369987 
L 508.844004 229.63297 
L 509.397089 215.822001 
L 509.950174 195.389996 
L 510.779802 154.144347 
L 511.885972 97.725089 
L 512.439057 76.697672 
L 512.992142 62.931589 
L 513.545227 56.210714 
L 513.82177 54.834032 
L 514.098312 54.230491 
L 514.651397 53.707353 
L 514.92794 53.194559 
L 515.481025 51.240485 
L 515.757568 50.146867 
L 516.03411 49.533361 
L 516.310653 50.048217 
L 516.587195 52.444815 
L 516.863738 57.449154 
L 517.14028 65.596061 
L 517.693366 91.694285 
L 519.905706 223.758413 
L 520.458791 239.612377 
L 521.011876 248.462325 
L 521.564961 252.740849 
L 522.118046 254.510782 
L 522.671132 255.125338 
L 523.224217 255.289728 
L 523.224217 255.289728 
" style="fill:none;stroke:#1f77b4;stroke-dasharray:1.5,2.475;stroke-dashoffset:0;stroke-width:1.5;"/>
   </g>
   <g id="line2d_44">
    <path clip-path="url(#p86070dce0e)" d="M 326.757091 255.349986 
L 331.621524 255.275848 
L 334.864479 255.064688 
L 338.107434 254.565894 
L 341.35039 253.693975 
L 346.214822 251.939695 
L 352.700733 249.481161 
L 354.322211 248.669573 
L 355.943688 247.677848 
L 357.565166 246.496062 
L 360.808121 243.741108 
L 364.051076 241.020188 
L 365.672554 239.848199 
L 368.915509 237.863836 
L 372.158464 235.865397 
L 373.779942 234.674707 
L 377.022897 231.902489 
L 380.265852 229.042202 
L 386.751763 223.840678 
L 389.994718 221.335047 
L 391.616196 220.307149 
L 393.237673 219.572584 
L 394.859151 219.229924 
L 396.480628 219.365235 
L 398.102106 220.047575 
L 399.723584 221.311993 
L 401.345061 223.135096 
L 402.966539 225.420337 
L 409.452449 235.748659 
L 411.073927 237.894085 
L 412.695405 239.759347 
L 414.316882 241.382709 
L 417.559837 244.107123 
L 420.802793 246.301413 
L 424.045748 247.987485 
L 430.531658 250.694078 
L 433.774613 251.968386 
L 437.017569 252.964617 
L 440.260524 253.692542 
L 445.124957 254.587232 
L 448.367912 255.018578 
L 451.610867 255.248836 
L 456.4753 255.34755 
L 471.068598 255.30718 
L 482.418942 255.146058 
L 497.01224 255.337884 
L 501.876673 255.20307 
L 506.741106 254.765957 
L 511.605539 254.310998 
L 514.848494 254.345137 
L 519.712927 254.825015 
L 524.57736 255.216691 
L 529.441792 255.338887 
L 532.684748 255.352202 
L 532.684748 255.352202 
" style="fill:none;stroke:#ff7f0e;stroke-linecap:square;stroke-width:1.5;"/>
   </g>
   <g id="line2d_45">
    <path clip-path="url(#p86070dce0e)" d="M 354.282804 255.358125 
L 355.606105 255.273369 
L 356.929405 255.358125 
L 358.252706 255.236599 
L 359.576006 254.83382 
L 362.222607 255.33311 
L 363.545907 254.720456 
L 364.869207 255.145414 
L 366.192508 254.780106 
L 367.515808 255.120517 
L 368.839108 255.276864 
L 370.162409 255.233857 
L 371.485709 253.566621 
L 372.809009 253.985541 
L 374.13231 255.137992 
L 375.45561 255.171613 
L 376.77891 253.820844 
L 378.102211 253.874912 
L 379.425511 253.697863 
L 382.072112 254.038281 
L 383.395412 255.232589 
L 384.718712 255.287686 
L 386.042013 254.916583 
L 387.365313 254.678452 
L 388.688613 254.776054 
L 391.335214 254.6495 
L 392.658515 254.882491 
L 393.981815 254.175579 
L 395.305115 253.972809 
L 396.628416 254.077646 
L 397.951716 254.928254 
L 399.275016 255.252078 
L 400.598317 254.589049 
L 401.921617 254.724165 
L 403.244917 254.686203 
L 404.568218 254.91566 
L 405.891518 255.323095 
L 408.538119 255.3398 
L 409.861419 254.986739 
L 411.184719 254.862443 
L 412.50802 254.608377 
L 413.83132 255.215972 
L 415.15462 254.810015 
L 416.477921 254.886767 
L 417.801221 254.699937 
L 419.124521 255.262863 
L 420.447822 254.733693 
L 421.771122 255.179645 
L 424.417723 255.358125 
L 432.357525 255.306735 
L 433.680825 254.861962 
L 436.327426 255.247416 
L 437.650726 254.423761 
L 438.974027 254.697304 
L 440.297327 255.281057 
L 441.620627 255.337057 
L 442.943928 254.980707 
L 445.590528 254.646173 
L 446.913829 255.304066 
L 452.20703 255.358125 
L 464.116733 255.218728 
L 465.440034 254.699521 
L 466.763334 255.290826 
L 469.409935 255.352862 
L 472.056535 255.321965 
L 473.379836 255.13841 
L 474.703136 254.776124 
L 476.026436 255.326797 
L 483.966239 255.284776 
L 485.289539 254.407211 
L 486.612839 253.159589 
L 487.93614 252.552543 
L 489.25944 253.612658 
L 490.58274 250.936162 
L 491.906041 253.737149 
L 493.229341 255.127708 
L 494.552641 255.358125 
L 495.875942 255.067228 
L 497.199242 254.458052 
L 498.522542 253.258214 
L 499.845843 254.503301 
L 501.169143 254.064652 
L 502.492443 252.272337 
L 503.815744 247.322692 
L 505.139044 243.200109 
L 506.462344 232.732644 
L 507.785645 207.518665 
L 509.108945 173.961163 
L 510.432245 114.318371 
L 511.755546 60.830346 
L 513.078846 46.932383 
L 514.402147 60.594802 
L 515.725447 103.337236 
L 517.048747 160.562439 
L 518.372048 223.74732 
L 519.695348 249.285217 
L 521.018648 254.890886 
L 522.341949 255.193635 
L 522.341949 255.193635 
" style="fill:none;stroke:#ff7f0e;stroke-dasharray:1.5,2.475;stroke-dashoffset:0;stroke-width:1.5;"/>
   </g>
   <g id="line2d_46">
    <path clip-path="url(#p86070dce0e)" d="M 330.165 255.339969 
L 335.029197 255.253287 
L 338.271994 255.043034 
L 341.514792 254.586716 
L 344.75759 253.799868 
L 348.000388 252.710538 
L 354.485983 250.370526 
L 357.728781 249.475047 
L 360.971579 248.625935 
L 362.592977 248.069053 
L 364.214376 247.322818 
L 365.835775 246.322825 
L 367.457174 245.031352 
L 369.078573 243.445169 
L 370.699972 241.594014 
L 373.942769 237.315628 
L 378.806966 230.260055 
L 383.671163 223.261457 
L 385.292561 221.121099 
L 386.91396 219.193111 
L 388.535359 217.574814 
L 390.156758 216.374179 
L 391.778157 215.698331 
L 393.399556 215.637938 
L 395.020955 216.249058 
L 396.642354 217.536018 
L 398.263752 219.440572 
L 399.885151 221.842534 
L 403.127949 227.446455 
L 406.370747 232.921062 
L 407.992146 235.274685 
L 409.613544 237.286685 
L 411.234943 238.947338 
L 412.856342 240.280895 
L 414.477741 241.338124 
L 417.720539 242.916011 
L 422.584735 245.051277 
L 430.69173 249.022384 
L 433.934527 250.088127 
L 443.662921 252.544484 
L 448.527117 254.043669 
L 451.769915 254.751455 
L 455.012713 255.135828 
L 459.876909 255.32659 
L 472.8481 255.358106 
L 490.683488 255.258381 
L 495.547684 254.98955 
L 505.276078 254.247676 
L 511.761673 254.17515 
L 516.62587 254.268211 
L 521.490066 254.617798 
L 527.975662 255.150175 
L 532.839858 255.314647 
L 536.082656 255.341414 
L 536.082656 255.341414 
" style="fill:none;stroke:#2ca02c;stroke-linecap:square;stroke-width:1.5;"/>
   </g>
   <g id="line2d_47">
    <path clip-path="url(#p86070dce0e)" d="M 488.609059 255.338077 
L 489.404795 255.185696 
L 489.935286 254.837954 
L 490.731022 254.153182 
L 490.996267 254.075881 
L 491.261513 254.134317 
L 491.792003 254.553554 
L 492.587739 255.168003 
L 493.383475 255.341137 
L 496.301174 255.358125 
L 500.545099 255.292619 
L 501.07559 255.09716 
L 501.60608 254.672317 
L 502.667062 253.684866 
L 503.197552 253.177449 
L 503.728043 252.278907 
L 504.523779 250.928519 
L 505.05427 250.261399 
L 505.319515 249.667106 
L 505.58476 248.700068 
L 506.115251 245.356321 
L 506.910987 237.639955 
L 508.237214 223.477001 
L 508.767704 212.930969 
L 509.298195 196.87859 
L 509.828686 174.82261 
L 510.624422 131.490974 
L 511.950648 53.406071 
L 512.215893 45.581573 
L 512.481139 42.217224 
L 512.746384 42.597002 
L 513.54212 50.09513 
L 513.807365 49.573653 
L 514.072611 46.571831 
L 514.868347 33.709223 
L 515.133592 33.415268 
L 515.398837 36.844238 
L 515.929328 53.719524 
L 516.725064 92.717612 
L 517.5208 142.323474 
L 518.581781 210.025614 
L 519.112272 231.925238 
L 519.642763 244.539759 
L 520.173253 250.874609 
L 520.703744 253.743362 
L 521.234235 254.885609 
L 521.764725 255.253648 
L 522.295216 255.336816 
L 522.295216 255.336816 
" style="fill:none;stroke:#2ca02c;stroke-dasharray:1.5,2.475;stroke-dashoffset:0;stroke-width:1.5;"/>
   </g>
   <g id="line2d_48">
    <path clip-path="url(#p86070dce0e)" d="M 332.053479 255.327877 
L 337.03529 255.21226 
L 340.024376 254.938489 
L 343.013462 254.378018 
L 346.002548 253.471335 
L 349.987997 251.87142 
L 353.973445 250.29352 
L 356.962531 249.422046 
L 362.940704 248.04812 
L 364.933428 247.139006 
L 365.92979 246.496999 
L 366.926152 245.713598 
L 368.918876 243.722968 
L 370.9116 241.245266 
L 373.900687 236.969914 
L 385.857032 219.20709 
L 387.849756 216.807468 
L 388.846118 215.81821 
L 389.84248 215.011444 
L 390.838842 214.418523 
L 391.835204 214.068634 
L 392.831566 213.986857 
L 393.827928 214.192017 
L 394.82429 214.694462 
L 395.820652 215.494027 
L 396.817014 216.578499 
L 397.813377 217.922956 
L 399.806101 221.233216 
L 405.784273 232.365331 
L 407.776997 235.352715 
L 409.769721 237.757125 
L 411.762446 239.599565 
L 413.75517 240.943716 
L 415.747894 241.900884 
L 422.722429 244.705047 
L 425.711515 246.404035 
L 428.700601 248.104642 
L 430.693325 249.042147 
L 432.686049 249.753626 
L 434.678773 250.255325 
L 441.653308 251.72774 
L 444.642394 252.770372 
L 448.627843 254.165179 
L 450.620567 254.664692 
L 452.613291 254.996396 
L 455.602377 255.246074 
L 458.591463 255.323149 
L 458.591463 255.323149 
" style="fill:none;stroke:#d62728;stroke-linecap:square;stroke-width:1.5;"/>
   </g>
   <g id="line2d_49">
    <path clip-path="url(#p86070dce0e)" d="M 467.001562 254.471816 
L 468.68948 254.260284 
L 469.814758 253.928848 
L 470.940037 253.421051 
L 472.065315 252.707494 
L 473.190593 251.753458 
L 474.315872 250.522145 
L 475.44115 248.978837 
L 476.566429 247.095843 
L 477.691707 244.857959 
L 479.379625 240.84793 
L 481.067543 236.160605 
L 486.693935 219.696101 
L 487.819214 217.242803 
L 488.944492 215.374599 
L 490.069771 214.175417 
L 490.63241 213.841355 
L 491.195049 213.686099 
L 491.757689 213.706997 
L 492.320328 213.898165 
L 492.882967 214.250546 
L 494.008246 215.387746 
L 495.133524 216.989695 
L 496.821442 219.899737 
L 499.071999 223.742301 
L 500.197277 225.242156 
L 501.322556 226.267019 
L 501.885195 226.570185 
L 502.447834 226.723518 
L 503.010474 226.723518 
L 503.573113 226.570185 
L 504.135752 226.267019 
L 505.261031 225.242156 
L 506.386309 223.742301 
L 508.074227 220.911764 
L 510.324784 216.989695 
L 511.450062 215.387746 
L 512.575341 214.250546 
L 513.13798 213.898165 
L 513.700619 213.706997 
L 514.263259 213.686099 
L 514.825898 213.841355 
L 515.388537 214.175417 
L 515.951176 214.687725 
L 517.076455 216.22941 
L 518.201733 218.402995 
L 519.327012 221.106513 
L 521.01493 225.867981 
L 526.078683 240.84793 
L 527.766601 244.857959 
L 528.891879 247.095843 
L 530.017158 248.978837 
L 531.142436 250.522145 
L 532.267714 251.753458 
L 533.392993 252.707494 
L 534.518271 253.421051 
L 535.64355 253.928848 
L 536.768828 254.260284 
L 538.456746 254.471816 
L 538.456746 254.471816 
" style="fill:none;stroke:#d62728;stroke-dasharray:1.5,2.475;stroke-dashoffset:0;stroke-width:1.5;"/>
   </g>
   <g id="patch_7">
    <path d="M 314.530574 255.358125 
L 314.530574 22.318125 
" style="fill:none;stroke:#000000;stroke-linecap:square;stroke-linejoin:miter;stroke-width:0.8;"/>
   </g>
   <g id="patch_8">
    <path d="M 314.530574 255.358125 
L 549.119897 255.358125 
" style="fill:none;stroke:#000000;stroke-linecap:square;stroke-linejoin:miter;stroke-width:0.8;"/>
   </g>
   <g id="text_32">
    <!-- 30 - 50 -->
    <g transform="translate(410.576798 16.318125)scale(0.12 -0.12)">
     <use xlink:href="#DejaVuSans-33"/>
     <use x="63.623047" xlink:href="#DejaVuSans-30"/>
     <use x="127.246094" xlink:href="#DejaVuSans-20"/>
     <use x="159.033203" xlink:href="#DejaVuSans-2d"/>
     <use x="195.117188" xlink:href="#DejaVuSans-20"/>
     <use x="226.904297" xlink:href="#DejaVuSans-35"/>
     <use x="290.527344" xlink:href="#DejaVuSans-30"/>
    </g>
   </g>
  </g>
  <g id="axes_3">
   <g id="patch_9">
    <path d="M 43.78125 530.918125 
L 278.370574 530.918125 
L 278.370574 297.878125 
L 43.78125 297.878125 
z
" style="fill:#ffffff;"/>
   </g>
   <g id="matplotlib.axis_5">
    <g id="xtick_11">
     <g id="line2d_50">
      <g>
       <use style="stroke:#000000;stroke-width:0.8;" x="67.753125" xlink:href="#m1a30a0fae5" y="530.918125"/>
      </g>
     </g>
     <g id="text_33">
      <!-- 9e-14 -->
      <g transform="translate(53.328906 545.516562)scale(0.1 -0.1)">
       <use xlink:href="#DejaVuSans-39"/>
       <use x="63.623047" xlink:href="#DejaVuSans-65"/>
       <use x="125.146484" xlink:href="#DejaVuSans-2d"/>
       <use x="161.230469" xlink:href="#DejaVuSans-31"/>
       <use x="224.853516" xlink:href="#DejaVuSans-34"/>
      </g>
     </g>
    </g>
    <g id="xtick_12">
     <g id="line2d_51">
      <g>
       <use style="stroke:#000000;stroke-width:0.8;" x="116.031115" xlink:href="#m1a30a0fae5" y="530.918125"/>
      </g>
     </g>
     <g id="text_34">
      <!-- 2e-09 -->
      <g transform="translate(101.606896 545.516562)scale(0.1 -0.1)">
       <use xlink:href="#DejaVuSans-32"/>
       <use x="63.623047" xlink:href="#DejaVuSans-65"/>
       <use x="125.146484" xlink:href="#DejaVuSans-2d"/>
       <use x="161.230469" xlink:href="#DejaVuSans-30"/>
       <use x="224.853516" xlink:href="#DejaVuSans-39"/>
      </g>
     </g>
    </g>
    <g id="xtick_13">
     <g id="line2d_52">
      <g>
       <use style="stroke:#000000;stroke-width:0.8;" x="164.309104" xlink:href="#m1a30a0fae5" y="530.918125"/>
      </g>
     </g>
     <g id="text_35">
      <!-- 5e-05 -->
      <g transform="translate(149.884885 545.516562)scale(0.1 -0.1)">
       <use xlink:href="#DejaVuSans-35"/>
       <use x="63.623047" xlink:href="#DejaVuSans-65"/>
       <use x="125.146484" xlink:href="#DejaVuSans-2d"/>
       <use x="161.230469" xlink:href="#DejaVuSans-30"/>
       <use x="224.853516" xlink:href="#DejaVuSans-35"/>
      </g>
     </g>
    </g>
    <g id="xtick_14">
     <g id="line2d_53">
      <g>
       <use style="stroke:#000000;stroke-width:0.8;" x="212.587093" xlink:href="#m1a30a0fae5" y="530.918125"/>
      </g>
     </g>
     <g id="text_36">
      <!-- 1 -->
      <g transform="translate(209.405843 545.516562)scale(0.1 -0.1)">
       <use xlink:href="#DejaVuSans-31"/>
      </g>
     </g>
    </g>
    <g id="xtick_15">
     <g id="line2d_54">
      <g>
       <use style="stroke:#000000;stroke-width:0.8;" x="260.865083" xlink:href="#m1a30a0fae5" y="530.918125"/>
      </g>
     </g>
     <g id="text_37">
      <!-- 2e+04 -->
      <g transform="translate(244.054926 545.516562)scale(0.1 -0.1)">
       <use xlink:href="#DejaVuSans-32"/>
       <use x="63.623047" xlink:href="#DejaVuSans-65"/>
       <use x="125.146484" xlink:href="#DejaVuSans-2b"/>
       <use x="208.935547" xlink:href="#DejaVuSans-30"/>
       <use x="272.558594" xlink:href="#DejaVuSans-34"/>
      </g>
     </g>
    </g>
    <g id="text_38">
     <!-- Pr(somatic) (PHRED) -->
     <defs>
      <path d="M 19.671875 64.796875 
L 19.671875 37.40625 
L 32.078125 37.40625 
Q 38.96875 37.40625 42.71875 40.96875 
Q 46.484375 44.53125 46.484375 51.125 
Q 46.484375 57.671875 42.71875 61.234375 
Q 38.96875 64.796875 32.078125 64.796875 
z
M 9.8125 72.90625 
L 32.078125 72.90625 
Q 44.34375 72.90625 50.609375 67.359375 
Q 56.890625 61.8125 56.890625 51.125 
Q 56.890625 40.328125 50.609375 34.8125 
Q 44.34375 29.296875 32.078125 29.296875 
L 19.671875 29.296875 
L 19.671875 0 
L 9.8125 0 
z
" id="DejaVuSans-50"/>
      <path d="M 31 75.875 
Q 24.46875 64.65625 21.28125 53.65625 
Q 18.109375 42.671875 18.109375 31.390625 
Q 18.109375 20.125 21.3125 9.0625 
Q 24.515625 -2 31 -13.1875 
L 23.1875 -13.1875 
Q 15.875 -1.703125 12.234375 9.375 
Q 8.59375 20.453125 8.59375 31.390625 
Q 8.59375 42.28125 12.203125 53.3125 
Q 15.828125 64.359375 23.1875 75.875 
z
" id="DejaVuSans-28"/>
      <path d="M 8.015625 75.875 
L 15.828125 75.875 
Q 23.140625 64.359375 26.78125 53.3125 
Q 30.421875 42.28125 30.421875 31.390625 
Q 30.421875 20.453125 26.78125 9.375 
Q 23.140625 -1.703125 15.828125 -13.1875 
L 8.015625 -13.1875 
Q 14.5 -2 17.703125 9.0625 
Q 20.90625 20.125 20.90625 31.390625 
Q 20.90625 42.671875 17.703125 53.65625 
Q 14.5 64.65625 8.015625 75.875 
z
" id="DejaVuSans-29"/>
      <path d="M 9.8125 72.90625 
L 19.671875 72.90625 
L 19.671875 43.015625 
L 55.515625 43.015625 
L 55.515625 72.90625 
L 65.375 72.90625 
L 65.375 0 
L 55.515625 0 
L 55.515625 34.71875 
L 19.671875 34.71875 
L 19.671875 0 
L 9.8125 0 
z
" id="DejaVuSans-48"/>
      <path d="M 44.390625 34.1875 
Q 47.5625 33.109375 50.5625 29.59375 
Q 53.5625 26.078125 56.59375 19.921875 
L 66.609375 0 
L 56 0 
L 46.6875 18.703125 
Q 43.0625 26.03125 39.671875 28.421875 
Q 36.28125 30.8125 30.421875 30.8125 
L 19.671875 30.8125 
L 19.671875 0 
L 9.8125 0 
L 9.8125 72.90625 
L 32.078125 72.90625 
Q 44.578125 72.90625 50.734375 67.671875 
Q 56.890625 62.453125 56.890625 51.90625 
Q 56.890625 45.015625 53.6875 40.46875 
Q 50.484375 35.9375 44.390625 34.1875 
z
M 19.671875 64.796875 
L 19.671875 38.921875 
L 32.078125 38.921875 
Q 39.203125 38.921875 42.84375 42.21875 
Q 46.484375 45.515625 46.484375 51.90625 
Q 46.484375 58.296875 42.84375 61.546875 
Q 39.203125 64.796875 32.078125 64.796875 
z
" id="DejaVuSans-52"/>
      <path d="M 9.8125 72.90625 
L 55.90625 72.90625 
L 55.90625 64.59375 
L 19.671875 64.59375 
L 19.671875 43.015625 
L 54.390625 43.015625 
L 54.390625 34.71875 
L 19.671875 34.71875 
L 19.671875 8.296875 
L 56.78125 8.296875 
L 56.78125 0 
L 9.8125 0 
z
" id="DejaVuSans-45"/>
      <path d="M 19.671875 64.796875 
L 19.671875 8.109375 
L 31.59375 8.109375 
Q 46.6875 8.109375 53.6875 14.9375 
Q 60.6875 21.78125 60.6875 36.53125 
Q 60.6875 51.171875 53.6875 57.984375 
Q 46.6875 64.796875 31.59375 64.796875 
z
M 9.8125 72.90625 
L 30.078125 72.90625 
Q 51.265625 72.90625 61.171875 64.09375 
Q 71.09375 55.28125 71.09375 36.53125 
Q 71.09375 17.671875 61.125 8.828125 
Q 51.171875 0 30.078125 0 
L 9.8125 0 
z
" id="DejaVuSans-44"/>
     </defs>
     <g transform="translate(109.658724 559.194687)scale(0.1 -0.1)">
      <use xlink:href="#DejaVuSans-50"/>
      <use x="60.287109" xlink:href="#DejaVuSans-72"/>
      <use x="101.400391" xlink:href="#DejaVuSans-28"/>
      <use x="140.414062" xlink:href="#DejaVuSans-73"/>
      <use x="192.513672" xlink:href="#DejaVuSans-6f"/>
      <use x="253.695312" xlink:href="#DejaVuSans-6d"/>
      <use x="351.107422" xlink:href="#DejaVuSans-61"/>
      <use x="412.386719" xlink:href="#DejaVuSans-74"/>
      <use x="451.595703" xlink:href="#DejaVuSans-69"/>
      <use x="479.378906" xlink:href="#DejaVuSans-63"/>
      <use x="534.359375" xlink:href="#DejaVuSans-29"/>
      <use x="573.373047" xlink:href="#DejaVuSans-20"/>
      <use x="605.160156" xlink:href="#DejaVuSans-28"/>
      <use x="644.173828" xlink:href="#DejaVuSans-50"/>
      <use x="704.476562" xlink:href="#DejaVuSans-48"/>
      <use x="779.671875" xlink:href="#DejaVuSans-52"/>
      <use x="849.154297" xlink:href="#DejaVuSans-45"/>
      <use x="912.337891" xlink:href="#DejaVuSans-44"/>
      <use x="989.339844" xlink:href="#DejaVuSans-29"/>
     </g>
    </g>
   </g>
   <g id="matplotlib.axis_6">
    <g id="ytick_16">
     <g id="line2d_55">
      <g>
       <use style="stroke:#000000;stroke-width:0.8;" x="43.78125" xlink:href="#m7b867ae089" y="530.918125"/>
      </g>
     </g>
     <g id="text_39">
      <!-- 0.0 -->
      <g transform="translate(20.878125 534.717344)scale(0.1 -0.1)">
       <use xlink:href="#DejaVuSans-30"/>
       <use x="63.623047" xlink:href="#DejaVuSans-2e"/>
       <use x="95.410156" xlink:href="#DejaVuSans-30"/>
      </g>
     </g>
    </g>
    <g id="ytick_17">
     <g id="line2d_56">
      <g>
       <use style="stroke:#000000;stroke-width:0.8;" x="43.78125" xlink:href="#m7b867ae089" y="479.622407"/>
      </g>
     </g>
     <g id="text_40">
      <!-- 0.2 -->
      <g transform="translate(20.878125 483.421626)scale(0.1 -0.1)">
       <use xlink:href="#DejaVuSans-30"/>
       <use x="63.623047" xlink:href="#DejaVuSans-2e"/>
       <use x="95.410156" xlink:href="#DejaVuSans-32"/>
      </g>
     </g>
    </g>
    <g id="ytick_18">
     <g id="line2d_57">
      <g>
       <use style="stroke:#000000;stroke-width:0.8;" x="43.78125" xlink:href="#m7b867ae089" y="428.32669"/>
      </g>
     </g>
     <g id="text_41">
      <!-- 0.4 -->
      <g transform="translate(20.878125 432.125909)scale(0.1 -0.1)">
       <use xlink:href="#DejaVuSans-30"/>
       <use x="63.623047" xlink:href="#DejaVuSans-2e"/>
       <use x="95.410156" xlink:href="#DejaVuSans-34"/>
      </g>
     </g>
    </g>
    <g id="ytick_19">
     <g id="line2d_58">
      <g>
       <use style="stroke:#000000;stroke-width:0.8;" x="43.78125" xlink:href="#m7b867ae089" y="377.030972"/>
      </g>
     </g>
     <g id="text_42">
      <!-- 0.6 -->
      <g transform="translate(20.878125 380.830191)scale(0.1 -0.1)">
       <use xlink:href="#DejaVuSans-30"/>
       <use x="63.623047" xlink:href="#DejaVuSans-2e"/>
       <use x="95.410156" xlink:href="#DejaVuSans-36"/>
      </g>
     </g>
    </g>
    <g id="ytick_20">
     <g id="line2d_59">
      <g>
       <use style="stroke:#000000;stroke-width:0.8;" x="43.78125" xlink:href="#m7b867ae089" y="325.735255"/>
      </g>
     </g>
     <g id="text_43">
      <!-- 0.8 -->
      <defs>
       <path d="M 31.78125 34.625 
Q 24.75 34.625 20.71875 30.859375 
Q 16.703125 27.09375 16.703125 20.515625 
Q 16.703125 13.921875 20.71875 10.15625 
Q 24.75 6.390625 31.78125 6.390625 
Q 38.8125 6.390625 42.859375 10.171875 
Q 46.921875 13.96875 46.921875 20.515625 
Q 46.921875 27.09375 42.890625 30.859375 
Q 38.875 34.625 31.78125 34.625 
z
M 21.921875 38.8125 
Q 15.578125 40.375 12.03125 44.71875 
Q 8.5 49.078125 8.5 55.328125 
Q 8.5 64.0625 14.71875 69.140625 
Q 20.953125 74.21875 31.78125 74.21875 
Q 42.671875 74.21875 48.875 69.140625 
Q 55.078125 64.0625 55.078125 55.328125 
Q 55.078125 49.078125 51.53125 44.71875 
Q 48 40.375 41.703125 38.8125 
Q 48.828125 37.15625 52.796875 32.3125 
Q 56.78125 27.484375 56.78125 20.515625 
Q 56.78125 9.90625 50.3125 4.234375 
Q 43.84375 -1.421875 31.78125 -1.421875 
Q 19.734375 -1.421875 13.25 4.234375 
Q 6.78125 9.90625 6.78125 20.515625 
Q 6.78125 27.484375 10.78125 32.3125 
Q 14.796875 37.15625 21.921875 38.8125 
z
M 18.3125 54.390625 
Q 18.3125 48.734375 21.84375 45.5625 
Q 25.390625 42.390625 31.78125 42.390625 
Q 38.140625 42.390625 41.71875 45.5625 
Q 45.3125 48.734375 45.3125 54.390625 
Q 45.3125 60.0625 41.71875 63.234375 
Q 38.140625 66.40625 31.78125 66.40625 
Q 25.390625 66.40625 21.84375 63.234375 
Q 18.3125 60.0625 18.3125 54.390625 
z
" id="DejaVuSans-38"/>
      </defs>
      <g transform="translate(20.878125 329.534474)scale(0.1 -0.1)">
       <use xlink:href="#DejaVuSans-30"/>
       <use x="63.623047" xlink:href="#DejaVuSans-2e"/>
       <use x="95.410156" xlink:href="#DejaVuSans-38"/>
      </g>
     </g>
    </g>
    <g id="text_44">
     <!-- density -->
     <g transform="translate(14.798438 432.730937)rotate(-90)scale(0.1 -0.1)">
      <use xlink:href="#DejaVuSans-64"/>
      <use x="63.476562" xlink:href="#DejaVuSans-65"/>
      <use x="125" xlink:href="#DejaVuSans-6e"/>
      <use x="188.378906" xlink:href="#DejaVuSans-73"/>
      <use x="240.478516" xlink:href="#DejaVuSans-69"/>
      <use x="268.261719" xlink:href="#DejaVuSans-74"/>
      <use x="307.470703" xlink:href="#DejaVuSans-79"/>
     </g>
    </g>
   </g>
   <g id="line2d_60">
    <path clip-path="url(#pff45a3db2a)" d="M 54.444401 530.838358 
L 62.505022 530.718241 
L 69.222205 530.381397 
L 74.595952 529.866774 
L 79.969699 529.082287 
L 85.343446 528.038242 
L 92.06063 526.478982 
L 104.15156 523.396423 
L 113.555618 520.778092 
L 122.959675 517.894357 
L 131.020295 515.469504 
L 135.050605 514.469945 
L 137.737479 513.96088 
L 140.424352 513.619802 
L 143.111226 513.475665 
L 145.798099 513.544962 
L 148.484973 513.827829 
L 151.171846 514.306946 
L 155.202156 515.319437 
L 160.575903 516.987625 
L 172.666834 520.822249 
L 186.101201 525.010249 
L 192.818385 527.069202 
L 198.192132 528.464067 
L 202.222442 529.284636 
L 206.252753 529.897043 
L 210.283063 530.319562 
L 215.65681 530.650562 
L 222.373993 530.819352 
L 225.060867 530.837615 
L 225.060867 530.837615 
" style="fill:none;stroke:#1f77b4;stroke-linecap:square;stroke-width:1.5;"/>
   </g>
   <g id="line2d_61">
    <path clip-path="url(#pff45a3db2a)" d="M 236.776131 530.27376 
L 237.078708 530.100636 
L 237.381286 529.600895 
L 237.683863 528.696476 
L 238.13773 526.332769 
L 238.591596 522.469937 
L 239.196751 515.117955 
L 240.104483 504.022614 
L 240.407061 502.110463 
L 240.55835 501.705133 
L 240.709639 501.693654 
L 240.860927 502.076486 
L 241.163505 503.948508 
L 241.617371 508.892218 
L 242.827681 523.81973 
L 243.281547 527.093508 
L 243.735414 528.743036 
L 244.037991 528.971082 
L 244.18928 528.804604 
L 244.491858 527.804608 
L 244.794435 525.665239 
L 245.097013 521.95788 
L 245.550879 512.273871 
L 246.004745 496.110186 
L 246.6099 463.534838 
L 248.425365 350.509296 
L 249.03052 328.321709 
L 249.635675 313.685 
L 249.938253 309.752829 
L 250.089542 308.975268 
L 250.240831 309.156352 
L 250.392119 310.415166 
L 250.694697 316.543772 
L 250.997274 327.796046 
L 251.451141 353.676276 
L 252.510162 434.888842 
L 253.266606 483.82871 
L 253.871761 508.573026 
L 254.325627 519.441518 
L 254.779493 525.556779 
L 255.23336 528.62466 
L 255.687226 529.941945 
L 255.989804 530.246586 
L 255.989804 530.246586 
" style="fill:none;stroke:#1f77b4;stroke-dasharray:1.5,2.475;stroke-dashoffset:0;stroke-width:1.5;"/>
   </g>
   <g id="line2d_62">
    <path clip-path="url(#pff45a3db2a)" d="M 60.752313 530.895275 
L 67.270584 530.763683 
L 70.52972 530.54975 
L 73.788855 530.13715 
L 77.047991 529.440503 
L 80.307126 528.404867 
L 83.566262 527.037629 
L 86.825398 525.412394 
L 93.343669 521.811849 
L 99.86194 518.276761 
L 103.121075 516.684074 
L 106.380211 515.279368 
L 111.268914 513.477569 
L 116.157618 511.66788 
L 125.935025 507.692436 
L 127.564592 507.34928 
L 129.19416 507.216878 
L 130.823728 507.320929 
L 132.453296 507.669955 
L 134.082864 508.255275 
L 135.712431 509.05355 
L 137.341999 510.031121 
L 140.601135 512.368243 
L 153.637677 522.511301 
L 156.896813 524.561873 
L 160.155948 526.24704 
L 163.415084 527.535837 
L 166.674219 528.449372 
L 169.933355 529.053022 
L 173.192491 529.435828 
L 179.710762 529.887372 
L 196.00644 530.766097 
L 204.154279 530.898587 
L 220.449957 530.882449 
L 228.597796 530.701106 
L 241.634338 530.270383 
L 246.523041 530.36625 
L 261.189151 530.864707 
L 267.707423 530.900449 
L 267.707423 530.900449 
" style="fill:none;stroke:#ff7f0e;stroke-linecap:square;stroke-width:1.5;"/>
   </g>
   <g id="line2d_63">
    <path clip-path="url(#pff45a3db2a)" d="M 90.565502 530.887279 
L 91.869559 530.49892 
L 93.173617 529.32696 
L 94.477675 529.853174 
L 95.781733 530.691487 
L 97.085791 530.917319 
L 98.389849 530.894091 
L 99.693907 530.557255 
L 100.997964 529.017869 
L 102.302022 527.895275 
L 103.60608 529.715253 
L 104.910138 530.7703 
L 106.214196 530.89088 
L 107.518254 530.531658 
L 108.822312 529.431767 
L 110.126369 529.749544 
L 111.430427 530.655503 
L 112.734485 530.907634 
L 114.038543 530.824106 
L 115.342601 530.128368 
L 116.646659 528.544021 
L 117.950717 528.646573 
L 119.254774 529.951775 
L 120.558832 530.760765 
L 121.86289 530.907979 
L 128.383179 530.895777 
L 129.687237 530.295297 
L 130.991295 527.98632 
L 132.295353 526.694735 
L 133.599411 529.034337 
L 134.903469 530.622201 
L 136.207527 530.907443 
L 138.815642 530.901909 
L 140.1197 530.443116 
L 141.423758 529.246542 
L 144.031874 530.743417 
L 145.335932 530.908908 
L 149.248105 530.911164 
L 150.552163 530.70281 
L 151.856221 529.852682 
L 153.160279 529.328625 
L 154.464337 530.484216 
L 155.768395 530.898864 
L 163.592742 530.915927 
L 204.018535 530.890331 
L 205.322593 530.157799 
L 206.626651 528.011997 
L 207.930709 528.514321 
L 209.234767 530.380137 
L 210.538825 530.893255 
L 217.059114 530.918125 
L 223.579403 530.894659 
L 224.883461 530.555801 
L 226.187519 529.46939 
L 227.491577 529.713203 
L 228.795635 530.627394 
L 230.099693 530.918125 
L 231.40375 530.890079 
L 232.707808 530.680075 
L 234.011866 529.705316 
L 235.315924 528.894142 
L 236.619982 527.653107 
L 237.92404 525.569951 
L 239.228098 524.818083 
L 240.532155 522.569724 
L 241.836213 513.342912 
L 243.140271 493.149358 
L 244.444329 440.598955 
L 245.748387 401.387464 
L 247.052445 382.272123 
L 248.356503 374.521382 
L 249.66056 387.898246 
L 250.964618 432.286825 
L 252.268676 487.11059 
L 253.572734 521.222727 
L 254.876792 530.017085 
L 256.18085 530.896807 
L 256.18085 530.896807 
" style="fill:none;stroke:#ff7f0e;stroke-dasharray:1.5,2.475;stroke-dashoffset:0;stroke-width:1.5;"/>
   </g>
   <g id="line2d_64">
    <path clip-path="url(#pff45a3db2a)" d="M 55.957396 530.850741 
L 63.081619 530.705413 
L 67.8311 530.402109 
L 71.393212 529.983411 
L 74.955323 529.334234 
L 78.517434 528.405077 
L 82.079545 527.176655 
L 85.641657 525.676288 
L 90.391138 523.394457 
L 97.515361 519.942693 
L 101.077472 518.422086 
L 105.826954 516.667478 
L 114.138547 513.966553 
L 124.82488 510.60418 
L 127.199621 510.061218 
L 129.574362 509.707288 
L 131.949103 509.601983 
L 134.323844 509.796343 
L 136.698584 510.324482 
L 139.073325 511.196067 
L 141.448066 512.391262 
L 143.822807 513.859711 
L 147.384918 516.401279 
L 153.32177 520.735684 
L 155.696511 522.249308 
L 158.071252 523.554792 
L 160.445993 524.637596 
L 162.820734 525.510541 
L 166.382845 526.501796 
L 171.132326 527.459628 
L 180.63129 529.018012 
L 186.568142 529.844678 
L 191.317624 530.327893 
L 197.254476 530.684765 
L 204.378698 530.844404 
L 206.753439 530.853443 
L 206.753439 530.853443 
" style="fill:none;stroke:#2ca02c;stroke-linecap:square;stroke-width:1.5;"/>
   </g>
   <g id="line2d_65">
    <path clip-path="url(#pff45a3db2a)" d="M 239.625544 530.791744 
L 240.017052 530.649882 
L 240.408561 530.231012 
L 240.800069 529.309965 
L 241.191578 527.557522 
L 241.583086 524.590082 
L 241.974595 520.029474 
L 242.496606 510.910308 
L 243.018618 497.881277 
L 243.801635 471.824393 
L 244.97616 431.484705 
L 245.498172 419.543493 
L 246.020183 412.633639 
L 246.411692 409.982575 
L 247.194709 406.287122 
L 247.455714 403.886075 
L 247.847223 397.601578 
L 248.238731 387.402754 
L 249.54376 346.544814 
L 249.804765 344.406265 
L 249.935268 344.703935 
L 250.196274 348.067127 
L 250.587783 359.513764 
L 251.109794 384.250305 
L 252.153817 449.46613 
L 252.936834 491.927002 
L 253.458845 510.395428 
L 253.980857 521.364217 
L 254.372365 525.981953 
L 254.763874 528.572943 
L 255.155382 529.903448 
L 255.546891 530.517981 
L 255.938399 530.757281 
L 256.199405 530.798547 
L 256.199405 530.798547 
" style="fill:none;stroke:#2ca02c;stroke-dasharray:1.5,2.475;stroke-dashoffset:0;stroke-width:1.5;"/>
   </g>
   <g id="line2d_66">
    <path clip-path="url(#pff45a3db2a)" d="M 0 0 
" style="fill:none;stroke:#d62728;stroke-linecap:square;stroke-width:1.5;"/>
   </g>
   <g id="patch_10">
    <path d="M 43.78125 530.918125 
L 43.78125 297.878125 
" style="fill:none;stroke:#000000;stroke-linecap:square;stroke-linejoin:miter;stroke-width:0.8;"/>
   </g>
   <g id="patch_11">
    <path d="M 43.78125 530.918125 
L 278.370574 530.918125 
" style="fill:none;stroke:#000000;stroke-linecap:square;stroke-linejoin:miter;stroke-width:0.8;"/>
   </g>
   <g id="text_45">
    <!-- 50 - 70 -->
    <g transform="translate(139.827474 291.878125)scale(0.12 -0.12)">
     <use xlink:href="#DejaVuSans-35"/>
     <use x="63.623047" xlink:href="#DejaVuSans-30"/>
     <use x="127.246094" xlink:href="#DejaVuSans-20"/>
     <use x="159.033203" xlink:href="#DejaVuSans-2d"/>
     <use x="195.117188" xlink:href="#DejaVuSans-20"/>
     <use x="226.904297" xlink:href="#DejaVuSans-37"/>
     <use x="290.527344" xlink:href="#DejaVuSans-30"/>
    </g>
   </g>
  </g>
  <g id="axes_4">
   <g id="patch_12">
    <path d="M 314.530574 530.918125 
L 549.119897 530.918125 
L 549.119897 297.878125 
L 314.530574 297.878125 
z
" style="fill:#ffffff;"/>
   </g>
   <g id="matplotlib.axis_7">
    <g id="xtick_16">
     <g id="line2d_67">
      <g>
       <use style="stroke:#000000;stroke-width:0.8;" x="366.191189" xlink:href="#m1a30a0fae5" y="530.918125"/>
      </g>
     </g>
     <g id="text_46">
      <!-- 2e-09 -->
      <g transform="translate(351.76697 545.516562)scale(0.1 -0.1)">
       <use xlink:href="#DejaVuSans-32"/>
       <use x="63.623047" xlink:href="#DejaVuSans-65"/>
       <use x="125.146484" xlink:href="#DejaVuSans-2d"/>
       <use x="161.230469" xlink:href="#DejaVuSans-30"/>
       <use x="224.853516" xlink:href="#DejaVuSans-39"/>
      </g>
     </g>
    </g>
    <g id="xtick_17">
     <g id="line2d_68">
      <g>
       <use style="stroke:#000000;stroke-width:0.8;" x="425.395213" xlink:href="#m1a30a0fae5" y="530.918125"/>
      </g>
     </g>
     <g id="text_47">
      <!-- 5e-05 -->
      <g transform="translate(410.970995 545.516562)scale(0.1 -0.1)">
       <use xlink:href="#DejaVuSans-35"/>
       <use x="63.623047" xlink:href="#DejaVuSans-65"/>
       <use x="125.146484" xlink:href="#DejaVuSans-2d"/>
       <use x="161.230469" xlink:href="#DejaVuSans-30"/>
       <use x="224.853516" xlink:href="#DejaVuSans-35"/>
      </g>
     </g>
    </g>
    <g id="xtick_18">
     <g id="line2d_69">
      <g>
       <use style="stroke:#000000;stroke-width:0.8;" x="484.599238" xlink:href="#m1a30a0fae5" y="530.918125"/>
      </g>
     </g>
     <g id="text_48">
      <!-- 1 -->
      <g transform="translate(481.417988 545.516562)scale(0.1 -0.1)">
       <use xlink:href="#DejaVuSans-31"/>
      </g>
     </g>
    </g>
    <g id="xtick_19">
     <g id="line2d_70">
      <g>
       <use style="stroke:#000000;stroke-width:0.8;" x="543.803262" xlink:href="#m1a30a0fae5" y="530.918125"/>
      </g>
     </g>
     <g id="text_49">
      <!-- 2e+04 -->
      <g transform="translate(526.993106 545.516562)scale(0.1 -0.1)">
       <use xlink:href="#DejaVuSans-32"/>
       <use x="63.623047" xlink:href="#DejaVuSans-65"/>
       <use x="125.146484" xlink:href="#DejaVuSans-2b"/>
       <use x="208.935547" xlink:href="#DejaVuSans-30"/>
       <use x="272.558594" xlink:href="#DejaVuSans-34"/>
      </g>
     </g>
    </g>
    <g id="text_50">
     <!-- Pr(somatic) (PHRED) -->
     <g transform="translate(380.408048 559.194687)scale(0.1 -0.1)">
      <use xlink:href="#DejaVuSans-50"/>
      <use x="60.287109" xlink:href="#DejaVuSans-72"/>
      <use x="101.400391" xlink:href="#DejaVuSans-28"/>
      <use x="140.414062" xlink:href="#DejaVuSans-73"/>
      <use x="192.513672" xlink:href="#DejaVuSans-6f"/>
      <use x="253.695312" xlink:href="#DejaVuSans-6d"/>
      <use x="351.107422" xlink:href="#DejaVuSans-61"/>
      <use x="412.386719" xlink:href="#DejaVuSans-74"/>
      <use x="451.595703" xlink:href="#DejaVuSans-69"/>
      <use x="479.378906" xlink:href="#DejaVuSans-63"/>
      <use x="534.359375" xlink:href="#DejaVuSans-29"/>
      <use x="573.373047" xlink:href="#DejaVuSans-20"/>
      <use x="605.160156" xlink:href="#DejaVuSans-28"/>
      <use x="644.173828" xlink:href="#DejaVuSans-50"/>
      <use x="704.476562" xlink:href="#DejaVuSans-48"/>
      <use x="779.671875" xlink:href="#DejaVuSans-52"/>
      <use x="849.154297" xlink:href="#DejaVuSans-45"/>
      <use x="912.337891" xlink:href="#DejaVuSans-44"/>
      <use x="989.339844" xlink:href="#DejaVuSans-29"/>
     </g>
    </g>
   </g>
   <g id="matplotlib.axis_8">
    <g id="ytick_21">
     <g id="line2d_71">
      <g>
       <use style="stroke:#000000;stroke-width:0.8;" x="314.530574" xlink:href="#m7b867ae089" y="530.918125"/>
      </g>
     </g>
     <g id="text_51">
      <!-- 0.0 -->
      <g transform="translate(291.627449 534.717344)scale(0.1 -0.1)">
       <use xlink:href="#DejaVuSans-30"/>
       <use x="63.623047" xlink:href="#DejaVuSans-2e"/>
       <use x="95.410156" xlink:href="#DejaVuSans-30"/>
      </g>
     </g>
    </g>
    <g id="ytick_22">
     <g id="line2d_72">
      <g>
       <use style="stroke:#000000;stroke-width:0.8;" x="314.530574" xlink:href="#m7b867ae089" y="503.444452"/>
      </g>
     </g>
     <g id="text_52">
      <!-- 0.1 -->
      <g transform="translate(291.627449 507.243671)scale(0.1 -0.1)">
       <use xlink:href="#DejaVuSans-30"/>
       <use x="63.623047" xlink:href="#DejaVuSans-2e"/>
       <use x="95.410156" xlink:href="#DejaVuSans-31"/>
      </g>
     </g>
    </g>
    <g id="ytick_23">
     <g id="line2d_73">
      <g>
       <use style="stroke:#000000;stroke-width:0.8;" x="314.530574" xlink:href="#m7b867ae089" y="475.970779"/>
      </g>
     </g>
     <g id="text_53">
      <!-- 0.2 -->
      <g transform="translate(291.627449 479.769998)scale(0.1 -0.1)">
       <use xlink:href="#DejaVuSans-30"/>
       <use x="63.623047" xlink:href="#DejaVuSans-2e"/>
       <use x="95.410156" xlink:href="#DejaVuSans-32"/>
      </g>
     </g>
    </g>
    <g id="ytick_24">
     <g id="line2d_74">
      <g>
       <use style="stroke:#000000;stroke-width:0.8;" x="314.530574" xlink:href="#m7b867ae089" y="448.497106"/>
      </g>
     </g>
     <g id="text_54">
      <!-- 0.3 -->
      <g transform="translate(291.627449 452.296325)scale(0.1 -0.1)">
       <use xlink:href="#DejaVuSans-30"/>
       <use x="63.623047" xlink:href="#DejaVuSans-2e"/>
       <use x="95.410156" xlink:href="#DejaVuSans-33"/>
      </g>
     </g>
    </g>
    <g id="ytick_25">
     <g id="line2d_75">
      <g>
       <use style="stroke:#000000;stroke-width:0.8;" x="314.530574" xlink:href="#m7b867ae089" y="421.023433"/>
      </g>
     </g>
     <g id="text_55">
      <!-- 0.4 -->
      <g transform="translate(291.627449 424.822651)scale(0.1 -0.1)">
       <use xlink:href="#DejaVuSans-30"/>
       <use x="63.623047" xlink:href="#DejaVuSans-2e"/>
       <use x="95.410156" xlink:href="#DejaVuSans-34"/>
      </g>
     </g>
    </g>
    <g id="ytick_26">
     <g id="line2d_76">
      <g>
       <use style="stroke:#000000;stroke-width:0.8;" x="314.530574" xlink:href="#m7b867ae089" y="393.54976"/>
      </g>
     </g>
     <g id="text_56">
      <!-- 0.5 -->
      <g transform="translate(291.627449 397.348978)scale(0.1 -0.1)">
       <use xlink:href="#DejaVuSans-30"/>
       <use x="63.623047" xlink:href="#DejaVuSans-2e"/>
       <use x="95.410156" xlink:href="#DejaVuSans-35"/>
      </g>
     </g>
    </g>
    <g id="ytick_27">
     <g id="line2d_77">
      <g>
       <use style="stroke:#000000;stroke-width:0.8;" x="314.530574" xlink:href="#m7b867ae089" y="366.076087"/>
      </g>
     </g>
     <g id="text_57">
      <!-- 0.6 -->
      <g transform="translate(291.627449 369.875305)scale(0.1 -0.1)">
       <use xlink:href="#DejaVuSans-30"/>
       <use x="63.623047" xlink:href="#DejaVuSans-2e"/>
       <use x="95.410156" xlink:href="#DejaVuSans-36"/>
      </g>
     </g>
    </g>
    <g id="ytick_28">
     <g id="line2d_78">
      <g>
       <use style="stroke:#000000;stroke-width:0.8;" x="314.530574" xlink:href="#m7b867ae089" y="338.602413"/>
      </g>
     </g>
     <g id="text_58">
      <!-- 0.7 -->
      <g transform="translate(291.627449 342.401632)scale(0.1 -0.1)">
       <use xlink:href="#DejaVuSans-30"/>
       <use x="63.623047" xlink:href="#DejaVuSans-2e"/>
       <use x="95.410156" xlink:href="#DejaVuSans-37"/>
      </g>
     </g>
    </g>
    <g id="ytick_29">
     <g id="line2d_79">
      <g>
       <use style="stroke:#000000;stroke-width:0.8;" x="314.530574" xlink:href="#m7b867ae089" y="311.12874"/>
      </g>
     </g>
     <g id="text_59">
      <!-- 0.8 -->
      <g transform="translate(291.627449 314.927959)scale(0.1 -0.1)">
       <use xlink:href="#DejaVuSans-30"/>
       <use x="63.623047" xlink:href="#DejaVuSans-2e"/>
       <use x="95.410156" xlink:href="#DejaVuSans-38"/>
      </g>
     </g>
    </g>
   </g>
   <g id="line2d_80">
    <path clip-path="url(#pe71bb4f8df)" d="M 325.193725 530.854816 
L 331.144922 530.724163 
L 335.90588 530.370685 
L 339.476599 529.865208 
L 343.047317 529.099404 
L 346.618036 528.06631 
L 350.188754 526.791414 
L 353.759473 525.285888 
L 357.330192 523.488707 
L 359.710671 522.057573 
L 362.09115 520.37783 
L 364.471629 518.409053 
L 366.852108 516.146167 
L 370.422826 512.327027 
L 375.183784 507.190024 
L 377.564263 505.041824 
L 378.754503 504.154616 
L 379.944742 503.413547 
L 381.134982 502.827449 
L 382.325221 502.398478 
L 383.515461 502.122026 
L 384.7057 501.987175 
L 387.086179 502.073415 
L 389.466658 502.49103 
L 395.417856 503.984305 
L 401.369053 505.589935 
L 403.749532 506.438775 
L 406.130011 507.492436 
L 408.510491 508.765846 
L 410.89097 510.246833 
L 414.461688 512.8038 
L 418.032407 515.680248 
L 426.364083 522.643371 
L 428.744562 524.29328 
L 431.125041 525.620195 
L 433.50552 526.579862 
L 435.885999 527.180759 
L 438.266478 527.482283 
L 441.837197 527.58862 
L 446.598155 527.641897 
L 450.168873 527.929099 
L 453.739592 528.470775 
L 463.261508 530.133811 
L 466.832227 530.512525 
L 471.593185 530.775727 
L 476.354143 530.855083 
L 476.354143 530.855083 
" style="fill:none;stroke:#ff7f0e;stroke-linecap:square;stroke-width:1.5;"/>
   </g>
   <g id="line2d_81">
    <path clip-path="url(#pe71bb4f8df)" d="M 415.536089 530.839428 
L 416.486798 530.403226 
L 417.437507 528.917459 
L 418.388215 526.950531 
L 419.338924 526.862866 
L 420.289633 528.79533 
L 421.240342 530.361579 
L 422.191051 530.844333 
L 424.092469 530.917475 
L 497.297055 530.862687 
L 498.247764 530.475998 
L 499.198473 529.116727 
L 500.149182 527.097921 
L 501.099891 526.715549 
L 503.001309 530.289594 
L 503.952018 530.833539 
L 505.853435 530.917645 
L 511.557689 530.90779 
L 512.508398 530.745315 
L 513.459107 529.636937 
L 515.360525 522.424322 
L 516.311233 522.889045 
L 517.261942 524.691128 
L 518.212651 521.012802 
L 519.16336 514.518175 
L 520.114069 514.492219 
L 521.064778 517.519086 
L 522.015487 509.962104 
L 522.966196 485.458207 
L 523.916905 442.497894 
L 525.818323 332.682807 
L 526.769032 308.975268 
L 527.71974 318.851764 
L 529.621158 384.8674 
L 531.522576 428.946176 
L 533.423994 497.727679 
L 534.374703 520.420717 
L 535.325412 528.902551 
L 536.276121 530.692148 
L 536.276121 530.692148 
" style="fill:none;stroke:#ff7f0e;stroke-dasharray:1.5,2.475;stroke-dashoffset:0;stroke-width:1.5;"/>
   </g>
   <g id="line2d_82">
    <path clip-path="url(#pe71bb4f8df)" d="M 0 0 
" style="fill:none;stroke:#2ca02c;stroke-linecap:square;stroke-width:1.5;"/>
   </g>
   <g id="line2d_83">
    <path clip-path="url(#pe71bb4f8df)" d="M 513.807406 530.63463 
L 514.195584 530.55071 
L 514.583763 530.307614 
L 514.971942 529.858704 
L 515.36012 529.129571 
L 515.748299 528.029612 
L 516.330567 525.491056 
L 516.912835 521.721415 
L 517.689192 514.924678 
L 519.435995 498.709135 
L 520.018263 495.76824 
L 520.406442 494.960744 
L 520.600531 494.893892 
L 520.79462 495.023922 
L 521.182799 495.721771 
L 521.765067 496.991671 
L 521.959156 497.176283 
L 522.153246 497.100239 
L 522.347335 496.677341 
L 522.541424 495.825499 
L 522.929603 492.549153 
L 523.317781 486.829932 
L 523.900049 473.35873 
L 524.676406 447.62393 
L 526.42321 383.874997 
L 527.005478 369.830098 
L 527.393656 363.893569 
L 527.781835 360.736523 
L 527.975924 360.122776 
L 528.170014 360.078323 
L 528.364103 360.531227 
L 528.752282 362.59981 
L 529.528639 369.081288 
L 531.081353 383.886225 
L 531.663621 393.292392 
L 532.245889 407.5271 
L 533.022246 433.94167 
L 534.76905 497.550467 
L 535.351318 511.49976 
L 535.933585 520.69415 
L 536.515853 526.061779 
L 536.904032 528.127502 
L 537.29221 529.383367 
L 537.680389 530.100042 
L 538.068568 530.471908 
L 538.456746 530.621694 
L 538.456746 530.621694 
" style="fill:none;stroke:#2ca02c;stroke-dasharray:1.5,2.475;stroke-dashoffset:0;stroke-width:1.5;"/>
   </g>
   <g id="patch_13">
    <path d="M 314.530574 530.918125 
L 314.530574 297.878125 
" style="fill:none;stroke:#000000;stroke-linecap:square;stroke-linejoin:miter;stroke-width:0.8;"/>
   </g>
   <g id="patch_14">
    <path d="M 314.530574 530.918125 
L 549.119897 530.918125 
" style="fill:none;stroke:#000000;stroke-linecap:square;stroke-linejoin:miter;stroke-width:0.8;"/>
   </g>
   <g id="text_60">
    <!-- 70 - 100 -->
    <g transform="translate(406.759298 291.878125)scale(0.12 -0.12)">
     <use xlink:href="#DejaVuSans-37"/>
     <use x="63.623047" xlink:href="#DejaVuSans-30"/>
     <use x="127.246094" xlink:href="#DejaVuSans-20"/>
     <use x="159.033203" xlink:href="#DejaVuSans-2d"/>
     <use x="195.117188" xlink:href="#DejaVuSans-20"/>
     <use x="226.904297" xlink:href="#DejaVuSans-31"/>
     <use x="290.527344" xlink:href="#DejaVuSans-30"/>
     <use x="354.150391" xlink:href="#DejaVuSans-30"/>
    </g>
   </g>
  </g>
 </g>
 <defs>
  <clipPath id="pdb5856f4a2">
   <rect height="233.04" width="234.589324" x="43.78125" y="22.318125"/>
  </clipPath>
  <clipPath id="p86070dce0e">
   <rect height="233.04" width="234.589324" x="314.530574" y="22.318125"/>
  </clipPath>
  <clipPath id="pff45a3db2a">
   <rect height="233.04" width="234.589324" x="43.78125" y="297.878125"/>
  </clipPath>
  <clipPath id="pe71bb4f8df">
   <rect height="233.04" width="234.589324" x="314.530574" y="297.878125"/>
  </clipPath>
 </defs>
</svg>
