<?xml version="1.0" encoding="utf-8" standalone="no"?>
<!DOCTYPE svg PUBLIC "-//W3C//DTD SVG 1.1//EN"
  "http://www.w3.org/Graphics/SVG/1.1/DTD/svg11.dtd">
<!-- Created with matplotlib (https://matplotlib.org/) -->
<svg height="568.474375pt" version="1.1" viewBox="0 0 558.259176 568.474375" width="558.259176pt" xmlns="http://www.w3.org/2000/svg" xmlns:xlink="http://www.w3.org/1999/xlink">
 <defs>
  <style type="text/css">
*{stroke-linecap:butt;stroke-linejoin:round;}
  </style>
 </defs>
 <g id="figure_1">
  <g id="patch_1">
   <path d="M 0 568.474375 
L 558.259176 568.474375 
L 558.259176 0 
L 0 0 
z
" style="fill:#ffffff;"/>
  </g>
  <g id="axes_1">
   <g id="patch_2">
    <path d="M 43.78125 255.358125 
L 271.343191 255.358125 
L 271.343191 22.318125 
L 43.78125 22.318125 
z
" style="fill:#ffffff;"/>
   </g>
   <g id="matplotlib.axis_1">
    <g id="xtick_1">
     <g id="line2d_1">
      <defs>
       <path d="M 0 0 
L 0 3.5 
" id="m43ce651f4d" style="stroke:#000000;stroke-width:0.8;"/>
      </defs>
      <g>
       <use style="stroke:#000000;stroke-width:0.8;" x="54.652704" xlink:href="#m43ce651f4d" y="255.358125"/>
      </g>
     </g>
     <g id="text_1">
      <!-- 0.007 -->
      <defs>
       <path d="M 31.78125 66.40625 
Q 24.171875 66.40625 20.328125 58.90625 
Q 16.5 51.421875 16.5 36.375 
Q 16.5 21.390625 20.328125 13.890625 
Q 24.171875 6.390625 31.78125 6.390625 
Q 39.453125 6.390625 43.28125 13.890625 
Q 47.125 21.390625 47.125 36.375 
Q 47.125 51.421875 43.28125 58.90625 
Q 39.453125 66.40625 31.78125 66.40625 
z
M 31.78125 74.21875 
Q 44.046875 74.21875 50.515625 64.515625 
Q 56.984375 54.828125 56.984375 36.375 
Q 56.984375 17.96875 50.515625 8.265625 
Q 44.046875 -1.421875 31.78125 -1.421875 
Q 19.53125 -1.421875 13.0625 8.265625 
Q 6.59375 17.96875 6.59375 36.375 
Q 6.59375 54.828125 13.0625 64.515625 
Q 19.53125 74.21875 31.78125 74.21875 
z
" id="DejaVuSans-48"/>
       <path d="M 10.6875 12.40625 
L 21 12.40625 
L 21 0 
L 10.6875 0 
z
" id="DejaVuSans-46"/>
       <path d="M 8.203125 72.90625 
L 55.078125 72.90625 
L 55.078125 68.703125 
L 28.609375 0 
L 18.3125 0 
L 43.21875 64.59375 
L 8.203125 64.59375 
z
" id="DejaVuSans-55"/>
      </defs>
      <g transform="translate(40.338642 269.956562)scale(0.1 -0.1)">
       <use xlink:href="#DejaVuSans-48"/>
       <use x="63.623047" xlink:href="#DejaVuSans-46"/>
       <use x="95.410156" xlink:href="#DejaVuSans-48"/>
       <use x="159.033203" xlink:href="#DejaVuSans-48"/>
       <use x="222.65625" xlink:href="#DejaVuSans-55"/>
      </g>
     </g>
    </g>
    <g id="xtick_2">
     <g id="line2d_2">
      <g>
       <use style="stroke:#000000;stroke-width:0.8;" x="90.780411" xlink:href="#m43ce651f4d" y="255.358125"/>
      </g>
     </g>
     <g id="text_2">
      <!-- 1 -->
      <defs>
       <path d="M 12.40625 8.296875 
L 28.515625 8.296875 
L 28.515625 63.921875 
L 10.984375 60.40625 
L 10.984375 69.390625 
L 28.421875 72.90625 
L 38.28125 72.90625 
L 38.28125 8.296875 
L 54.390625 8.296875 
L 54.390625 0 
L 12.40625 0 
z
" id="DejaVuSans-49"/>
      </defs>
      <g transform="translate(87.599161 269.956562)scale(0.1 -0.1)">
       <use xlink:href="#DejaVuSans-49"/>
      </g>
     </g>
    </g>
    <g id="xtick_3">
     <g id="line2d_3">
      <g>
       <use style="stroke:#000000;stroke-width:0.8;" x="126.908118" xlink:href="#m43ce651f4d" y="255.358125"/>
      </g>
     </g>
     <g id="text_3">
      <!-- 1e+02 -->
      <defs>
       <path d="M 56.203125 29.59375 
L 56.203125 25.203125 
L 14.890625 25.203125 
Q 15.484375 15.921875 20.484375 11.0625 
Q 25.484375 6.203125 34.421875 6.203125 
Q 39.59375 6.203125 44.453125 7.46875 
Q 49.3125 8.734375 54.109375 11.28125 
L 54.109375 2.78125 
Q 49.265625 0.734375 44.1875 -0.34375 
Q 39.109375 -1.421875 33.890625 -1.421875 
Q 20.796875 -1.421875 13.15625 6.1875 
Q 5.515625 13.8125 5.515625 26.8125 
Q 5.515625 40.234375 12.765625 48.109375 
Q 20.015625 56 32.328125 56 
Q 43.359375 56 49.78125 48.890625 
Q 56.203125 41.796875 56.203125 29.59375 
z
M 47.21875 32.234375 
Q 47.125 39.59375 43.09375 43.984375 
Q 39.0625 48.390625 32.421875 48.390625 
Q 24.90625 48.390625 20.390625 44.140625 
Q 15.875 39.890625 15.1875 32.171875 
z
" id="DejaVuSans-101"/>
       <path d="M 46 62.703125 
L 46 35.5 
L 73.1875 35.5 
L 73.1875 27.203125 
L 46 27.203125 
L 46 0 
L 37.796875 0 
L 37.796875 27.203125 
L 10.59375 27.203125 
L 10.59375 35.5 
L 37.796875 35.5 
L 37.796875 62.703125 
z
" id="DejaVuSans-43"/>
       <path d="M 19.1875 8.296875 
L 53.609375 8.296875 
L 53.609375 0 
L 7.328125 0 
L 7.328125 8.296875 
Q 12.9375 14.109375 22.625 23.890625 
Q 32.328125 33.6875 34.8125 36.53125 
Q 39.546875 41.84375 41.421875 45.53125 
Q 43.3125 49.21875 43.3125 52.78125 
Q 43.3125 58.59375 39.234375 62.25 
Q 35.15625 65.921875 28.609375 65.921875 
Q 23.96875 65.921875 18.8125 64.3125 
Q 13.671875 62.703125 7.8125 59.421875 
L 7.8125 69.390625 
Q 13.765625 71.78125 18.9375 73 
Q 24.125 74.21875 28.421875 74.21875 
Q 39.75 74.21875 46.484375 68.546875 
Q 53.21875 62.890625 53.21875 53.421875 
Q 53.21875 48.921875 51.53125 44.890625 
Q 49.859375 40.875 45.40625 35.40625 
Q 44.1875 33.984375 37.640625 27.21875 
Q 31.109375 20.453125 19.1875 8.296875 
z
" id="DejaVuSans-50"/>
      </defs>
      <g transform="translate(110.097961 269.956562)scale(0.1 -0.1)">
       <use xlink:href="#DejaVuSans-49"/>
       <use x="63.623047" xlink:href="#DejaVuSans-101"/>
       <use x="125.146484" xlink:href="#DejaVuSans-43"/>
       <use x="208.935547" xlink:href="#DejaVuSans-48"/>
       <use x="272.558594" xlink:href="#DejaVuSans-50"/>
      </g>
     </g>
    </g>
    <g id="xtick_4">
     <g id="line2d_4">
      <g>
       <use style="stroke:#000000;stroke-width:0.8;" x="163.035824" xlink:href="#m43ce651f4d" y="255.358125"/>
      </g>
     </g>
     <g id="text_4">
      <!-- 2e+04 -->
      <defs>
       <path d="M 37.796875 64.3125 
L 12.890625 25.390625 
L 37.796875 25.390625 
z
M 35.203125 72.90625 
L 47.609375 72.90625 
L 47.609375 25.390625 
L 58.015625 25.390625 
L 58.015625 17.1875 
L 47.609375 17.1875 
L 47.609375 0 
L 37.796875 0 
L 37.796875 17.1875 
L 4.890625 17.1875 
L 4.890625 26.703125 
z
" id="DejaVuSans-52"/>
      </defs>
      <g transform="translate(146.225668 269.956562)scale(0.1 -0.1)">
       <use xlink:href="#DejaVuSans-50"/>
       <use x="63.623047" xlink:href="#DejaVuSans-101"/>
       <use x="125.146484" xlink:href="#DejaVuSans-43"/>
       <use x="208.935547" xlink:href="#DejaVuSans-48"/>
       <use x="272.558594" xlink:href="#DejaVuSans-52"/>
      </g>
     </g>
    </g>
    <g id="xtick_5">
     <g id="line2d_5">
      <g>
       <use style="stroke:#000000;stroke-width:0.8;" x="199.163531" xlink:href="#m43ce651f4d" y="255.358125"/>
      </g>
     </g>
    </g>
    <g id="xtick_6">
     <g id="line2d_6">
      <g>
       <use style="stroke:#000000;stroke-width:0.8;" x="235.291238" xlink:href="#m43ce651f4d" y="255.358125"/>
      </g>
     </g>
    </g>
    <g id="xtick_7">
     <g id="line2d_7">
      <g>
       <use style="stroke:#000000;stroke-width:0.8;" x="271.418945" xlink:href="#m43ce651f4d" y="255.358125"/>
      </g>
     </g>
    </g>
   </g>
   <g id="matplotlib.axis_2">
    <g id="ytick_1">
     <g id="line2d_8">
      <defs>
       <path d="M 0 0 
L -3.5 0 
" id="m646efd847b" style="stroke:#000000;stroke-width:0.8;"/>
      </defs>
      <g>
       <use style="stroke:#000000;stroke-width:0.8;" x="43.78125" xlink:href="#m646efd847b" y="255.358125"/>
      </g>
     </g>
     <g id="text_5">
      <!-- 0 -->
      <g transform="translate(30.41875 259.157344)scale(0.1 -0.1)">
       <use xlink:href="#DejaVuSans-48"/>
      </g>
     </g>
    </g>
    <g id="ytick_2">
     <g id="line2d_9">
      <g>
       <use style="stroke:#000000;stroke-width:0.8;" x="43.78125" xlink:href="#m646efd847b" y="211.670559"/>
      </g>
     </g>
     <g id="text_6">
      <!-- 1 -->
      <g transform="translate(30.41875 215.469778)scale(0.1 -0.1)">
       <use xlink:href="#DejaVuSans-49"/>
      </g>
     </g>
    </g>
    <g id="ytick_3">
     <g id="line2d_10">
      <g>
       <use style="stroke:#000000;stroke-width:0.8;" x="43.78125" xlink:href="#m646efd847b" y="167.982994"/>
      </g>
     </g>
     <g id="text_7">
      <!-- 2 -->
      <g transform="translate(30.41875 171.782212)scale(0.1 -0.1)">
       <use xlink:href="#DejaVuSans-50"/>
      </g>
     </g>
    </g>
    <g id="ytick_4">
     <g id="line2d_11">
      <g>
       <use style="stroke:#000000;stroke-width:0.8;" x="43.78125" xlink:href="#m646efd847b" y="124.295428"/>
      </g>
     </g>
     <g id="text_8">
      <!-- 3 -->
      <defs>
       <path d="M 40.578125 39.3125 
Q 47.65625 37.796875 51.625 33 
Q 55.609375 28.21875 55.609375 21.1875 
Q 55.609375 10.40625 48.1875 4.484375 
Q 40.765625 -1.421875 27.09375 -1.421875 
Q 22.515625 -1.421875 17.65625 -0.515625 
Q 12.796875 0.390625 7.625 2.203125 
L 7.625 11.71875 
Q 11.71875 9.328125 16.59375 8.109375 
Q 21.484375 6.890625 26.8125 6.890625 
Q 36.078125 6.890625 40.9375 10.546875 
Q 45.796875 14.203125 45.796875 21.1875 
Q 45.796875 27.640625 41.28125 31.265625 
Q 36.765625 34.90625 28.71875 34.90625 
L 20.21875 34.90625 
L 20.21875 43.015625 
L 29.109375 43.015625 
Q 36.375 43.015625 40.234375 45.921875 
Q 44.09375 48.828125 44.09375 54.296875 
Q 44.09375 59.90625 40.109375 62.90625 
Q 36.140625 65.921875 28.71875 65.921875 
Q 24.65625 65.921875 20.015625 65.03125 
Q 15.375 64.15625 9.8125 62.3125 
L 9.8125 71.09375 
Q 15.4375 72.65625 20.34375 73.4375 
Q 25.25 74.21875 29.59375 74.21875 
Q 40.828125 74.21875 47.359375 69.109375 
Q 53.90625 64.015625 53.90625 55.328125 
Q 53.90625 49.265625 50.4375 45.09375 
Q 46.96875 40.921875 40.578125 39.3125 
z
" id="DejaVuSans-51"/>
      </defs>
      <g transform="translate(30.41875 128.094647)scale(0.1 -0.1)">
       <use xlink:href="#DejaVuSans-51"/>
      </g>
     </g>
    </g>
    <g id="ytick_5">
     <g id="line2d_12">
      <g>
       <use style="stroke:#000000;stroke-width:0.8;" x="43.78125" xlink:href="#m646efd847b" y="80.607862"/>
      </g>
     </g>
     <g id="text_9">
      <!-- 4 -->
      <g transform="translate(30.41875 84.407081)scale(0.1 -0.1)">
       <use xlink:href="#DejaVuSans-52"/>
      </g>
     </g>
    </g>
    <g id="ytick_6">
     <g id="line2d_13">
      <g>
       <use style="stroke:#000000;stroke-width:0.8;" x="43.78125" xlink:href="#m646efd847b" y="36.920297"/>
      </g>
     </g>
     <g id="text_10">
      <!-- 5 -->
      <defs>
       <path d="M 10.796875 72.90625 
L 49.515625 72.90625 
L 49.515625 64.59375 
L 19.828125 64.59375 
L 19.828125 46.734375 
Q 21.96875 47.46875 24.109375 47.828125 
Q 26.265625 48.1875 28.421875 48.1875 
Q 40.625 48.1875 47.75 41.5 
Q 54.890625 34.8125 54.890625 23.390625 
Q 54.890625 11.625 47.5625 5.09375 
Q 40.234375 -1.421875 26.90625 -1.421875 
Q 22.3125 -1.421875 17.546875 -0.640625 
Q 12.796875 0.140625 7.71875 1.703125 
L 7.71875 11.625 
Q 12.109375 9.234375 16.796875 8.0625 
Q 21.484375 6.890625 26.703125 6.890625 
Q 35.15625 6.890625 40.078125 11.328125 
Q 45.015625 15.765625 45.015625 23.390625 
Q 45.015625 31 40.078125 35.4375 
Q 35.15625 39.890625 26.703125 39.890625 
Q 22.75 39.890625 18.8125 39.015625 
Q 14.890625 38.140625 10.796875 36.28125 
z
" id="DejaVuSans-53"/>
      </defs>
      <g transform="translate(30.41875 40.719516)scale(0.1 -0.1)">
       <use xlink:href="#DejaVuSans-53"/>
      </g>
     </g>
    </g>
    <g id="text_11">
     <!-- density -->
     <defs>
      <path d="M 45.40625 46.390625 
L 45.40625 75.984375 
L 54.390625 75.984375 
L 54.390625 0 
L 45.40625 0 
L 45.40625 8.203125 
Q 42.578125 3.328125 38.25 0.953125 
Q 33.9375 -1.421875 27.875 -1.421875 
Q 17.96875 -1.421875 11.734375 6.484375 
Q 5.515625 14.40625 5.515625 27.296875 
Q 5.515625 40.1875 11.734375 48.09375 
Q 17.96875 56 27.875 56 
Q 33.9375 56 38.25 53.625 
Q 42.578125 51.265625 45.40625 46.390625 
z
M 14.796875 27.296875 
Q 14.796875 17.390625 18.875 11.75 
Q 22.953125 6.109375 30.078125 6.109375 
Q 37.203125 6.109375 41.296875 11.75 
Q 45.40625 17.390625 45.40625 27.296875 
Q 45.40625 37.203125 41.296875 42.84375 
Q 37.203125 48.484375 30.078125 48.484375 
Q 22.953125 48.484375 18.875 42.84375 
Q 14.796875 37.203125 14.796875 27.296875 
z
" id="DejaVuSans-100"/>
      <path d="M 54.890625 33.015625 
L 54.890625 0 
L 45.90625 0 
L 45.90625 32.71875 
Q 45.90625 40.484375 42.875 44.328125 
Q 39.84375 48.1875 33.796875 48.1875 
Q 26.515625 48.1875 22.3125 43.546875 
Q 18.109375 38.921875 18.109375 30.90625 
L 18.109375 0 
L 9.078125 0 
L 9.078125 54.6875 
L 18.109375 54.6875 
L 18.109375 46.1875 
Q 21.34375 51.125 25.703125 53.5625 
Q 30.078125 56 35.796875 56 
Q 45.21875 56 50.046875 50.171875 
Q 54.890625 44.34375 54.890625 33.015625 
z
" id="DejaVuSans-110"/>
      <path d="M 44.28125 53.078125 
L 44.28125 44.578125 
Q 40.484375 46.53125 36.375 47.5 
Q 32.28125 48.484375 27.875 48.484375 
Q 21.1875 48.484375 17.84375 46.4375 
Q 14.5 44.390625 14.5 40.28125 
Q 14.5 37.15625 16.890625 35.375 
Q 19.28125 33.59375 26.515625 31.984375 
L 29.59375 31.296875 
Q 39.15625 29.25 43.1875 25.515625 
Q 47.21875 21.78125 47.21875 15.09375 
Q 47.21875 7.46875 41.1875 3.015625 
Q 35.15625 -1.421875 24.609375 -1.421875 
Q 20.21875 -1.421875 15.453125 -0.5625 
Q 10.6875 0.296875 5.421875 2 
L 5.421875 11.28125 
Q 10.40625 8.6875 15.234375 7.390625 
Q 20.0625 6.109375 24.8125 6.109375 
Q 31.15625 6.109375 34.5625 8.28125 
Q 37.984375 10.453125 37.984375 14.40625 
Q 37.984375 18.0625 35.515625 20.015625 
Q 33.0625 21.96875 24.703125 23.78125 
L 21.578125 24.515625 
Q 13.234375 26.265625 9.515625 29.90625 
Q 5.8125 33.546875 5.8125 39.890625 
Q 5.8125 47.609375 11.28125 51.796875 
Q 16.75 56 26.8125 56 
Q 31.78125 56 36.171875 55.265625 
Q 40.578125 54.546875 44.28125 53.078125 
z
" id="DejaVuSans-115"/>
      <path d="M 9.421875 54.6875 
L 18.40625 54.6875 
L 18.40625 0 
L 9.421875 0 
z
M 9.421875 75.984375 
L 18.40625 75.984375 
L 18.40625 64.59375 
L 9.421875 64.59375 
z
" id="DejaVuSans-105"/>
      <path d="M 18.3125 70.21875 
L 18.3125 54.6875 
L 36.8125 54.6875 
L 36.8125 47.703125 
L 18.3125 47.703125 
L 18.3125 18.015625 
Q 18.3125 11.328125 20.140625 9.421875 
Q 21.96875 7.515625 27.59375 7.515625 
L 36.8125 7.515625 
L 36.8125 0 
L 27.59375 0 
Q 17.1875 0 13.234375 3.875 
Q 9.28125 7.765625 9.28125 18.015625 
L 9.28125 47.703125 
L 2.6875 47.703125 
L 2.6875 54.6875 
L 9.28125 54.6875 
L 9.28125 70.21875 
z
" id="DejaVuSans-116"/>
      <path d="M 32.171875 -5.078125 
Q 28.375 -14.84375 24.75 -17.8125 
Q 21.140625 -20.796875 15.09375 -20.796875 
L 7.90625 -20.796875 
L 7.90625 -13.28125 
L 13.1875 -13.28125 
Q 16.890625 -13.28125 18.9375 -11.515625 
Q 21 -9.765625 23.484375 -3.21875 
L 25.09375 0.875 
L 2.984375 54.6875 
L 12.5 54.6875 
L 29.59375 11.921875 
L 46.6875 54.6875 
L 56.203125 54.6875 
z
" id="DejaVuSans-121"/>
     </defs>
     <g transform="translate(24.339063 157.170937)rotate(-90)scale(0.1 -0.1)">
      <use xlink:href="#DejaVuSans-100"/>
      <use x="63.476562" xlink:href="#DejaVuSans-101"/>
      <use x="125" xlink:href="#DejaVuSans-110"/>
      <use x="188.378906" xlink:href="#DejaVuSans-115"/>
      <use x="240.478516" xlink:href="#DejaVuSans-105"/>
      <use x="268.261719" xlink:href="#DejaVuSans-116"/>
      <use x="307.470703" xlink:href="#DejaVuSans-121"/>
     </g>
    </g>
   </g>
   <g id="line2d_14">
    <path clip-path="url(#pbcd6159201)" d="M 67.914421 251.832295 
L 69.366478 255.358125 
L 70.818535 145.560158 
L 72.270592 105.613835 
L 73.722649 204.767458 
L 75.174706 223.583457 
L 76.626763 233.718388 
L 78.07882 240.361285 
L 79.530877 247.525617 
L 80.982934 249.425318 
L 82.434991 252.660374 
L 83.887048 252.815285 
L 86.791162 254.836056 
L 88.243219 254.751672 
L 91.147333 255.358125 
L 92.59939 254.868396 
L 94.051447 254.954335 
L 95.503504 255.323755 
L 96.955561 254.934455 
L 98.407618 255.358125 
L 105.667903 255.358125 
L 120.188474 255.358125 
L 121.640531 254.821018 
L 123.092588 255.358125 
L 125.996702 255.358125 
L 131.80493 255.358125 
L 149.229614 255.358125 
L 172.462526 255.358125 
L 173.914583 255.120937 
L 175.36664 255.132197 
L 176.818697 255.358125 
L 182.626925 255.358125 
L 185.531039 255.060227 
L 186.983096 255.358125 
L 194.243382 255.320782 
L 195.695439 255.358125 
L 197.147496 254.908618 
L 198.599553 255.343385 
L 210.216009 255.353466 
L 218.928351 255.305535 
L 220.380408 254.953229 
L 221.832465 255.358125 
L 226.188636 255.358125 
L 227.640693 254.926689 
L 229.09275 255.298449 
L 230.544807 254.867044 
L 233.448921 254.888376 
L 234.900978 255.358125 
L 236.353035 254.687408 
L 237.805092 254.829875 
L 239.257149 255.207166 
L 240.709206 255.057097 
L 242.161263 254.213265 
L 243.61332 255.358125 
L 245.065377 254.919194 
L 246.517434 255.358125 
L 247.969491 254.34828 
L 249.421548 255.358125 
L 250.873605 253.590358 
L 252.325662 255.358125 
L 252.325662 255.358125 
" style="fill:none;stroke:#1f77b4;stroke-linecap:square;stroke-width:1.5;"/>
   </g>
   <g id="line2d_15">
    <path clip-path="url(#pbcd6159201)" d="M 201.81802 255.356488 
L 205.81662 255.25354 
L 208.038065 255.237003 
L 211.592376 255.284404 
L 218.25671 254.766541 
L 219.145288 254.413278 
L 220.033866 253.806423 
L 221.366732 252.481401 
L 222.699599 251.142811 
L 224.921044 249.123564 
L 225.809622 247.765074 
L 226.698199 245.952989 
L 229.363933 239.596834 
L 230.6968 236.063529 
L 232.473955 230.499231 
L 233.806822 226.231824 
L 234.6954 224.070092 
L 235.139689 223.366192 
L 235.583978 222.934826 
L 236.028267 222.745932 
L 236.472556 222.744972 
L 237.361134 223.091505 
L 238.249711 223.715811 
L 239.582578 224.821273 
L 240.026867 225.046352 
L 240.471156 225.107023 
L 240.915445 224.978423 
L 241.804023 224.233968 
L 242.692601 223.284134 
L 243.13689 222.957071 
L 243.581178 222.840904 
L 244.025467 222.996411 
L 244.469756 223.462751 
L 244.914045 224.262344 
L 245.358334 225.40701 
L 246.246912 228.730153 
L 247.13549 233.238335 
L 249.356934 245.33009 
L 250.245512 248.956464 
L 251.13409 251.644054 
L 252.022668 253.417576 
L 252.911246 254.416865 
L 253.799824 254.908343 
L 255.13269 255.216579 
L 256.909846 255.341285 
L 258.242713 255.356071 
L 258.242713 255.356071 
" style="fill:none;stroke:#1f77b4;stroke-dasharray:1.5,2.475;stroke-dashoffset:0;stroke-width:1.5;"/>
   </g>
   <g id="line2d_16">
    <path clip-path="url(#pbcd6159201)" d="M 55.795683 253.381762 
L 57.334205 255.358125 
L 58.872728 252.564986 
L 60.41125 255.358125 
L 61.949772 251.076796 
L 63.488295 255.358125 
L 65.026817 246.85206 
L 66.565339 255.358125 
L 68.103862 228.097138 
L 69.642384 238.307102 
L 71.180907 52.241355 
L 72.719429 172.685494 
L 74.257951 212.313346 
L 75.796474 247.467632 
L 77.334996 242.711186 
L 78.873518 255.358125 
L 80.412041 249.703828 
L 81.950563 255.358125 
L 83.489086 252.168504 
L 85.027608 255.358125 
L 86.56613 253.282 
L 88.104653 255.358125 
L 89.643175 253.887969 
L 91.181697 255.358125 
L 92.72022 254.189533 
L 94.258742 255.358125 
L 95.797265 254.416892 
L 97.335787 255.358125 
L 98.874309 254.590884 
L 100.412832 255.358125 
L 101.951354 254.733163 
L 103.489876 255.358125 
L 105.028399 254.837844 
L 106.566921 255.358125 
L 108.105444 254.873619 
L 109.643966 255.358125 
L 111.182488 254.952289 
L 112.721011 255.358125 
L 114.259533 254.99172 
L 115.798055 255.358125 
L 117.336578 255.024315 
L 118.8751 255.358125 
L 120.413623 255.047116 
L 121.952145 255.358125 
L 123.490667 255.098241 
L 125.02919 255.358125 
L 126.567712 255.092547 
L 128.106234 255.358125 
L 129.644757 255.131784 
L 131.183279 255.358125 
L 132.721802 255.133727 
L 134.260324 255.358125 
L 135.798846 255.149894 
L 137.337369 255.358125 
L 138.875891 255.149752 
L 140.414413 255.358125 
L 141.952936 255.147453 
L 143.491458 255.358125 
L 145.029981 255.154979 
L 146.568503 255.358125 
L 148.107025 255.131464 
L 149.645548 255.358125 
L 151.18407 255.158276 
L 152.722592 255.358125 
L 154.261115 255.1718 
L 155.799637 255.358125 
L 157.33816 255.179341 
L 158.876682 255.358125 
L 160.415204 255.178797 
L 161.953727 255.358125 
L 163.492249 255.198265 
L 165.030771 255.358125 
L 166.569294 255.204663 
L 168.107816 255.358125 
L 169.646339 255.204364 
L 171.184861 255.358125 
L 172.723383 255.196389 
L 174.261906 255.358125 
L 175.800428 255.190232 
L 177.33895 255.358125 
L 178.877473 255.160088 
L 180.415995 255.358125 
L 181.954518 255.200394 
L 183.49304 255.358125 
L 185.031562 255.18131 
L 186.570085 255.358125 
L 188.108607 255.176753 
L 189.647129 255.358125 
L 191.185652 255.168894 
L 192.724174 255.358125 
L 194.262697 255.170351 
L 195.801219 255.358125 
L 197.339741 255.167994 
L 198.878264 255.358125 
L 200.416786 255.159092 
L 201.955308 255.358125 
L 203.493831 255.15339 
L 205.032353 255.358125 
L 206.570876 255.120403 
L 208.109398 255.358125 
L 209.64792 255.082059 
L 211.186443 255.358125 
L 212.724965 255.034576 
L 214.263487 255.358125 
L 215.80201 254.945212 
L 217.340532 255.358125 
L 218.879055 254.891674 
L 220.417577 255.358125 
L 221.956099 254.757621 
L 223.494622 255.296892 
L 225.033144 254.683668 
L 226.571666 255.347017 
L 228.110189 254.551737 
L 229.648711 255.358125 
L 231.187234 254.461243 
L 232.725756 255.358125 
L 234.264278 254.411413 
L 235.802801 255.358125 
L 237.341323 254.434524 
L 238.879845 255.358125 
L 240.418368 254.350166 
L 241.95689 255.358125 
L 243.495413 254.226849 
L 245.033935 255.358125 
L 246.572457 254.119676 
L 248.11098 255.358125 
L 249.649502 253.875879 
L 251.188024 255.358125 
L 251.188024 255.358125 
" style="fill:none;stroke:#ff7f0e;stroke-linecap:square;stroke-width:1.5;"/>
   </g>
   <g id="line2d_17">
    <path clip-path="url(#pbcd6159201)" d="M 58.411391 255.358125 
L 151.82086 255.321318 
L 153.377684 255.079096 
L 154.934509 255.047885 
L 156.491333 255.314258 
L 165.83228 255.274252 
L 168.945929 255.179936 
L 170.502753 254.950605 
L 173.616402 255.309279 
L 182.957349 255.288137 
L 190.741472 255.206494 
L 201.639243 254.96148 
L 206.309716 254.49423 
L 209.423365 253.604201 
L 210.98019 252.887951 
L 212.537014 251.988788 
L 214.093839 250.348452 
L 215.650663 248.315601 
L 217.207488 245.68551 
L 218.764312 242.787449 
L 220.321137 239.502086 
L 221.877961 236.617138 
L 223.434786 234.006274 
L 226.548435 230.7627 
L 229.662084 229.240084 
L 231.218908 228.000209 
L 232.775733 227.701681 
L 234.332557 228.88165 
L 235.889382 231.449379 
L 237.446206 234.348424 
L 239.003031 236.983652 
L 242.116679 241.749255 
L 243.673504 244.237344 
L 245.230328 247.448228 
L 246.787153 250.922007 
L 248.343977 253.541334 
L 249.900802 254.821616 
L 251.457626 255.263357 
L 254.571275 255.356223 
L 256.1281 255.357434 
L 256.1281 255.357434 
" style="fill:none;stroke:#ff7f0e;stroke-dasharray:1.5,2.475;stroke-dashoffset:0;stroke-width:1.5;"/>
   </g>
   <g id="line2d_18">
    <path clip-path="url(#pbcd6159201)" d="M 65.512751 251.356409 
L 66.981628 255.358125 
L 68.450506 246.398449 
L 69.919384 233.943473 
L 71.388262 73.077643 
L 72.85714 165.550166 
L 74.326018 209.998456 
L 75.794896 234.679488 
L 77.263773 234.793521 
L 78.732651 247.410089 
L 80.201529 247.315383 
L 81.670407 252.110079 
L 83.139285 250.640536 
L 84.608163 254.401931 
L 86.077041 253.626959 
L 87.545918 255.358125 
L 89.014796 253.601711 
L 90.483674 255.358125 
L 91.952552 254.222453 
L 93.42143 255.092586 
L 94.890308 254.614501 
L 96.359186 255.358125 
L 97.828063 254.930462 
L 99.296941 255.358125 
L 100.765819 255.020384 
L 102.234697 255.358125 
L 103.703575 255.025602 
L 105.172453 255.358125 
L 106.641331 255.001926 
L 108.110208 255.358125 
L 109.579086 255.127311 
L 111.047964 255.358125 
L 112.516842 255.034674 
L 113.98572 255.358125 
L 115.454598 255.008118 
L 116.923476 255.358125 
L 118.392353 255.112461 
L 119.861231 255.358125 
L 121.330109 255.06369 
L 122.798987 255.358125 
L 124.267865 255.204139 
L 125.736743 255.358125 
L 127.205621 255.220747 
L 128.674498 255.358125 
L 130.143376 255.2327 
L 131.612254 255.358125 
L 133.081132 255.242334 
L 134.55001 255.358125 
L 136.018888 255.250792 
L 137.487766 255.358125 
L 138.956643 255.259 
L 140.425521 255.358125 
L 141.894399 255.268216 
L 143.363277 255.358125 
L 144.832155 255.249138 
L 147.769911 255.317575 
L 150.707666 255.303979 
L 152.176544 255.358125 
L 153.645422 255.294567 
L 155.1143 255.358125 
L 159.520933 255.288822 
L 160.989811 255.358125 
L 162.458689 255.284364 
L 163.927567 255.358125 
L 165.396445 255.278804 
L 166.865323 255.358125 
L 168.334201 255.275793 
L 169.803078 255.358125 
L 171.271956 255.273685 
L 172.740834 255.358125 
L 174.209712 255.271991 
L 175.67859 255.358125 
L 177.147468 255.27075 
L 178.616346 255.358125 
L 180.085223 255.270905 
L 181.554101 255.358125 
L 183.022979 255.278337 
L 184.491857 255.347744 
L 185.960735 255.225163 
L 187.429613 255.358125 
L 188.89849 255.254379 
L 190.367368 255.358125 
L 191.836246 255.245942 
L 193.305124 255.358125 
L 194.774002 255.232424 
L 196.24288 255.358125 
L 197.711758 255.105056 
L 199.180635 255.358125 
L 200.649513 255.222871 
L 202.118391 255.358125 
L 203.587269 255.220528 
L 205.056147 255.358125 
L 206.525025 255.220194 
L 207.993903 255.358125 
L 209.46278 255.146274 
L 210.931658 255.358125 
L 212.400536 255.187066 
L 213.869414 255.358125 
L 215.338292 255.185076 
L 216.80717 255.358125 
L 218.276048 255.163626 
L 219.744925 255.358125 
L 221.213803 254.922817 
L 222.682681 255.358125 
L 224.151559 254.920285 
L 225.620437 255.358125 
L 227.089315 254.812914 
L 228.558193 254.735769 
L 230.02707 253.721124 
L 231.495948 254.867222 
L 232.964826 253.98525 
L 234.433704 255.358125 
L 235.902582 253.317285 
L 237.37146 255.358125 
L 238.840338 253.477002 
L 240.309215 255.358125 
L 241.778093 253.489813 
L 243.246971 255.358125 
L 244.715849 253.852299 
L 246.184727 255.358125 
L 247.653605 253.450434 
L 249.122483 255.358125 
L 250.59136 252.787207 
L 252.060238 255.358125 
L 252.060238 255.358125 
" style="fill:none;stroke:#2ca02c;stroke-linecap:square;stroke-width:1.5;"/>
   </g>
   <g id="line2d_19">
    <path clip-path="url(#pbcd6159201)" d="M 178.371457 255.357943 
L 205.557412 255.239288 
L 208.028862 255.169431 
L 209.88245 255.104815 
L 212.971763 254.819241 
L 214.825351 254.420749 
L 216.061076 254.315573 
L 216.678939 254.137334 
L 217.914664 253.404814 
L 219.150389 252.517695 
L 219.768252 251.930266 
L 221.003977 250.350432 
L 222.239702 248.56104 
L 223.475428 246.249984 
L 224.711153 243.217642 
L 225.946878 239.536149 
L 228.418329 231.59046 
L 229.654054 228.284768 
L 230.889779 225.435805 
L 231.507642 224.23988 
L 232.125504 223.383833 
L 232.743367 222.97232 
L 233.36123 222.976889 
L 233.979092 223.273022 
L 234.596955 223.773314 
L 235.214817 224.500711 
L 237.686268 228.316883 
L 238.30413 228.657746 
L 238.921993 228.798974 
L 239.539856 228.764972 
L 240.775581 228.313814 
L 241.393444 228.269915 
L 242.011306 228.524002 
L 242.629169 229.07456 
L 243.247031 229.941214 
L 243.864894 231.22268 
L 244.482757 233.03293 
L 245.718482 238.011745 
L 248.189932 248.640415 
L 248.807795 250.624824 
L 249.425658 252.153673 
L 250.04352 253.284933 
L 250.661383 254.099144 
L 251.279245 254.651068 
L 251.897108 254.987803 
L 253.132833 255.258244 
L 255.604284 255.353456 
L 256.840009 255.357854 
L 256.840009 255.357854 
" style="fill:none;stroke:#2ca02c;stroke-dasharray:1.5,2.475;stroke-dashoffset:0;stroke-width:1.5;"/>
   </g>
   <g id="line2d_20">
    <path clip-path="url(#pbcd6159201)" d="M 65.867284 251.897227 
L 67.295018 255.358125 
L 68.722753 249.442847 
L 70.150487 194.479896 
L 71.578221 33.415268 
L 73.005955 182.513895 
L 74.433689 210.683296 
L 75.861423 245.841528 
L 77.289157 241.5134 
L 78.716891 254.480812 
L 80.144625 249.189026 
L 81.57236 255.358125 
L 83.000094 251.909242 
L 84.427828 255.358125 
L 85.855562 253.251677 
L 87.283296 255.358125 
L 88.71103 253.903904 
L 90.138764 255.358125 
L 91.566498 254.267796 
L 92.994232 255.358125 
L 94.421967 254.452104 
L 95.849701 255.358125 
L 97.277435 254.647804 
L 98.705169 255.358125 
L 100.132903 254.776206 
L 101.560637 255.358125 
L 102.988371 254.874452 
L 104.416105 255.358125 
L 105.843839 254.963579 
L 107.271574 255.358125 
L 108.699308 255.006691 
L 110.127042 255.358125 
L 111.554776 255.065063 
L 112.98251 255.358125 
L 114.410244 255.085148 
L 115.837978 255.358125 
L 117.265712 255.095071 
L 118.693446 255.358125 
L 120.121181 255.101358 
L 121.548915 255.358125 
L 122.976649 255.140632 
L 124.404383 255.358125 
L 125.832117 255.125341 
L 127.259851 255.358125 
L 128.687585 255.156939 
L 130.115319 255.358125 
L 131.543053 255.185822 
L 132.970788 255.358125 
L 134.398522 255.193999 
L 135.826256 255.358125 
L 137.25399 255.215508 
L 138.681724 255.358125 
L 140.109458 255.202863 
L 141.537192 255.358125 
L 142.964926 255.222598 
L 144.39266 255.358125 
L 145.820395 255.195971 
L 147.248129 255.358125 
L 148.675863 255.179943 
L 150.103597 255.358125 
L 151.531331 255.210327 
L 152.959065 255.358125 
L 154.386799 255.211285 
L 155.814533 255.358125 
L 157.242267 255.212701 
L 158.670002 255.358125 
L 160.097736 255.221558 
L 161.52547 255.358125 
L 162.953204 255.240059 
L 164.380938 255.358125 
L 165.808672 255.246106 
L 167.236406 255.358125 
L 168.66414 255.243198 
L 170.091874 255.358125 
L 171.519609 255.24234 
L 172.947343 255.358125 
L 174.375077 255.236985 
L 175.802811 255.358125 
L 177.230545 255.229512 
L 178.658279 255.358125 
L 180.086013 255.222579 
L 181.513747 255.358125 
L 182.941481 255.236067 
L 184.369216 255.358125 
L 185.79695 255.211327 
L 187.224684 255.358125 
L 188.652418 255.207311 
L 190.080152 255.358125 
L 191.507886 255.190654 
L 192.93562 255.358125 
L 194.363354 255.178665 
L 195.791088 255.358125 
L 197.218823 255.195257 
L 198.646557 255.358125 
L 200.074291 255.176331 
L 201.502025 255.358125 
L 202.929759 255.174856 
L 204.357493 255.358125 
L 205.785227 255.141752 
L 207.212961 255.358125 
L 208.640695 255.106818 
L 210.06843 255.358125 
L 211.496164 255.087857 
L 212.923898 255.358125 
L 214.351632 255.092448 
L 215.779366 255.358125 
L 217.2071 255.04237 
L 218.634834 255.358125 
L 220.062568 255.018559 
L 221.490302 255.358125 
L 222.918037 254.966231 
L 224.345771 255.358125 
L 225.773505 254.924393 
L 227.201239 255.358125 
L 228.628973 254.845394 
L 230.056707 255.358125 
L 231.484441 254.731938 
L 232.912175 255.358125 
L 234.339909 254.575538 
L 235.767644 255.358125 
L 237.195378 254.361992 
L 238.623112 255.358125 
L 240.050846 254.059764 
L 241.47858 255.358125 
L 242.906314 253.634228 
L 244.334048 255.358125 
L 245.761782 252.954753 
L 247.189516 255.358125 
L 247.189516 255.358125 
" style="fill:none;stroke:#d62728;stroke-linecap:square;stroke-width:1.5;"/>
   </g>
   <g id="line2d_21">
    <path clip-path="url(#pbcd6159201)" d="M 54.124975 255.356348 
L 62.26964 255.255948 
L 65.527506 255.031106 
L 72.043238 254.379567 
L 75.301104 254.341036 
L 86.703635 254.768822 
L 96.477233 255.129782 
L 106.250831 255.260325 
L 117.653362 255.228965 
L 127.42696 255.276758 
L 135.571625 255.219822 
L 143.71629 255.130569 
L 160.00562 255.164331 
L 164.892419 254.818139 
L 169.779218 254.444577 
L 177.923883 254.106037 
L 181.181749 253.641366 
L 184.439615 252.981787 
L 187.697481 252.130129 
L 190.955347 250.968736 
L 194.213213 249.402428 
L 202.357878 244.966879 
L 205.615744 243.512016 
L 207.244677 242.960316 
L 208.87361 242.555533 
L 212.131476 242.093611 
L 217.018275 241.696265 
L 218.647208 241.701254 
L 220.276141 241.876913 
L 221.905074 242.253568 
L 223.534007 242.811865 
L 231.678672 246.106043 
L 234.936538 246.93509 
L 238.194404 247.75212 
L 239.823337 248.347871 
L 241.45227 249.147141 
L 244.710136 251.25133 
L 247.968002 253.333258 
L 249.596935 254.103992 
L 251.225868 254.647251 
L 252.854801 254.9904 
L 256.112667 255.284139 
L 260.999466 255.354746 
L 260.999466 255.354746 
" style="fill:none;stroke:#d62728;stroke-dasharray:1.5,2.475;stroke-dashoffset:0;stroke-width:1.5;"/>
   </g>
   <g id="patch_3">
    <path d="M 43.78125 255.358125 
L 43.78125 22.318125 
" style="fill:none;stroke:#000000;stroke-linecap:square;stroke-linejoin:miter;stroke-width:0.8;"/>
   </g>
   <g id="patch_4">
    <path d="M 43.78125 255.358125 
L 271.343191 255.358125 
" style="fill:none;stroke:#000000;stroke-linecap:square;stroke-linejoin:miter;stroke-width:0.8;"/>
   </g>
   <g id="text_12">
    <!-- 1 - 30 -->
    <defs>
     <path id="DejaVuSans-32"/>
     <path d="M 4.890625 31.390625 
L 31.203125 31.390625 
L 31.203125 23.390625 
L 4.890625 23.390625 
z
" id="DejaVuSans-45"/>
    </defs>
    <g transform="translate(140.131283 16.318125)scale(0.12 -0.12)">
     <use xlink:href="#DejaVuSans-49"/>
     <use x="63.623047" xlink:href="#DejaVuSans-32"/>
     <use x="95.410156" xlink:href="#DejaVuSans-45"/>
     <use x="131.494141" xlink:href="#DejaVuSans-32"/>
     <use x="163.28125" xlink:href="#DejaVuSans-51"/>
     <use x="226.904297" xlink:href="#DejaVuSans-48"/>
    </g>
   </g>
   <g id="legend_1">
    <g id="patch_5">
     <path d="M 159.816628 89.030625 
L 264.343191 89.030625 
Q 266.343191 89.030625 266.343191 87.030625 
L 266.343191 29.318125 
Q 266.343191 27.318125 264.343191 27.318125 
L 159.816628 27.318125 
Q 157.816628 27.318125 157.816628 29.318125 
L 157.816628 87.030625 
Q 157.816628 89.030625 159.816628 89.030625 
z
" style="fill:#ffffff;opacity:0.8;stroke:#cccccc;stroke-linejoin:miter;"/>
    </g>
    <g id="line2d_22">
     <path d="M 161.816628 35.416562 
L 181.816628 35.416562 
" style="fill:none;stroke:#1f77b4;stroke-linecap:square;stroke-width:1.5;"/>
    </g>
    <g id="line2d_23"/>
    <g id="text_13">
     <!-- prosic+delly -->
     <defs>
      <path d="M 18.109375 8.203125 
L 18.109375 -20.796875 
L 9.078125 -20.796875 
L 9.078125 54.6875 
L 18.109375 54.6875 
L 18.109375 46.390625 
Q 20.953125 51.265625 25.265625 53.625 
Q 29.59375 56 35.59375 56 
Q 45.5625 56 51.78125 48.09375 
Q 58.015625 40.1875 58.015625 27.296875 
Q 58.015625 14.40625 51.78125 6.484375 
Q 45.5625 -1.421875 35.59375 -1.421875 
Q 29.59375 -1.421875 25.265625 0.953125 
Q 20.953125 3.328125 18.109375 8.203125 
z
M 48.6875 27.296875 
Q 48.6875 37.203125 44.609375 42.84375 
Q 40.53125 48.484375 33.40625 48.484375 
Q 26.265625 48.484375 22.1875 42.84375 
Q 18.109375 37.203125 18.109375 27.296875 
Q 18.109375 17.390625 22.1875 11.75 
Q 26.265625 6.109375 33.40625 6.109375 
Q 40.53125 6.109375 44.609375 11.75 
Q 48.6875 17.390625 48.6875 27.296875 
z
" id="DejaVuSans-112"/>
      <path d="M 41.109375 46.296875 
Q 39.59375 47.171875 37.8125 47.578125 
Q 36.03125 48 33.890625 48 
Q 26.265625 48 22.1875 43.046875 
Q 18.109375 38.09375 18.109375 28.8125 
L 18.109375 0 
L 9.078125 0 
L 9.078125 54.6875 
L 18.109375 54.6875 
L 18.109375 46.1875 
Q 20.953125 51.171875 25.484375 53.578125 
Q 30.03125 56 36.53125 56 
Q 37.453125 56 38.578125 55.875 
Q 39.703125 55.765625 41.0625 55.515625 
z
" id="DejaVuSans-114"/>
      <path d="M 30.609375 48.390625 
Q 23.390625 48.390625 19.1875 42.75 
Q 14.984375 37.109375 14.984375 27.296875 
Q 14.984375 17.484375 19.15625 11.84375 
Q 23.34375 6.203125 30.609375 6.203125 
Q 37.796875 6.203125 41.984375 11.859375 
Q 46.1875 17.53125 46.1875 27.296875 
Q 46.1875 37.015625 41.984375 42.703125 
Q 37.796875 48.390625 30.609375 48.390625 
z
M 30.609375 56 
Q 42.328125 56 49.015625 48.375 
Q 55.71875 40.765625 55.71875 27.296875 
Q 55.71875 13.875 49.015625 6.21875 
Q 42.328125 -1.421875 30.609375 -1.421875 
Q 18.84375 -1.421875 12.171875 6.21875 
Q 5.515625 13.875 5.515625 27.296875 
Q 5.515625 40.765625 12.171875 48.375 
Q 18.84375 56 30.609375 56 
z
" id="DejaVuSans-111"/>
      <path d="M 48.78125 52.59375 
L 48.78125 44.1875 
Q 44.96875 46.296875 41.140625 47.34375 
Q 37.3125 48.390625 33.40625 48.390625 
Q 24.65625 48.390625 19.8125 42.84375 
Q 14.984375 37.3125 14.984375 27.296875 
Q 14.984375 17.28125 19.8125 11.734375 
Q 24.65625 6.203125 33.40625 6.203125 
Q 37.3125 6.203125 41.140625 7.25 
Q 44.96875 8.296875 48.78125 10.40625 
L 48.78125 2.09375 
Q 45.015625 0.34375 40.984375 -0.53125 
Q 36.96875 -1.421875 32.421875 -1.421875 
Q 20.0625 -1.421875 12.78125 6.34375 
Q 5.515625 14.109375 5.515625 27.296875 
Q 5.515625 40.671875 12.859375 48.328125 
Q 20.21875 56 33.015625 56 
Q 37.15625 56 41.109375 55.140625 
Q 45.0625 54.296875 48.78125 52.59375 
z
" id="DejaVuSans-99"/>
      <path d="M 9.421875 75.984375 
L 18.40625 75.984375 
L 18.40625 0 
L 9.421875 0 
z
" id="DejaVuSans-108"/>
     </defs>
     <g transform="translate(189.816628 38.916562)scale(0.1 -0.1)">
      <use xlink:href="#DejaVuSans-112"/>
      <use x="63.476562" xlink:href="#DejaVuSans-114"/>
      <use x="104.558594" xlink:href="#DejaVuSans-111"/>
      <use x="165.740234" xlink:href="#DejaVuSans-115"/>
      <use x="217.839844" xlink:href="#DejaVuSans-105"/>
      <use x="245.623047" xlink:href="#DejaVuSans-99"/>
      <use x="300.603516" xlink:href="#DejaVuSans-43"/>
      <use x="384.392578" xlink:href="#DejaVuSans-100"/>
      <use x="447.869141" xlink:href="#DejaVuSans-101"/>
      <use x="509.392578" xlink:href="#DejaVuSans-108"/>
      <use x="537.175781" xlink:href="#DejaVuSans-108"/>
      <use x="564.958984" xlink:href="#DejaVuSans-121"/>
     </g>
    </g>
    <g id="line2d_24">
     <path d="M 161.816628 50.094687 
L 181.816628 50.094687 
" style="fill:none;stroke:#ff7f0e;stroke-linecap:square;stroke-width:1.5;"/>
    </g>
    <g id="line2d_25"/>
    <g id="text_14">
     <!-- prosic+lancet -->
     <defs>
      <path d="M 34.28125 27.484375 
Q 23.390625 27.484375 19.1875 25 
Q 14.984375 22.515625 14.984375 16.5 
Q 14.984375 11.71875 18.140625 8.90625 
Q 21.296875 6.109375 26.703125 6.109375 
Q 34.1875 6.109375 38.703125 11.40625 
Q 43.21875 16.703125 43.21875 25.484375 
L 43.21875 27.484375 
z
M 52.203125 31.203125 
L 52.203125 0 
L 43.21875 0 
L 43.21875 8.296875 
Q 40.140625 3.328125 35.546875 0.953125 
Q 30.953125 -1.421875 24.3125 -1.421875 
Q 15.921875 -1.421875 10.953125 3.296875 
Q 6 8.015625 6 15.921875 
Q 6 25.140625 12.171875 29.828125 
Q 18.359375 34.515625 30.609375 34.515625 
L 43.21875 34.515625 
L 43.21875 35.40625 
Q 43.21875 41.609375 39.140625 45 
Q 35.0625 48.390625 27.6875 48.390625 
Q 23 48.390625 18.546875 47.265625 
Q 14.109375 46.140625 10.015625 43.890625 
L 10.015625 52.203125 
Q 14.9375 54.109375 19.578125 55.046875 
Q 24.21875 56 28.609375 56 
Q 40.484375 56 46.34375 49.84375 
Q 52.203125 43.703125 52.203125 31.203125 
z
" id="DejaVuSans-97"/>
     </defs>
     <g transform="translate(189.816628 53.594687)scale(0.1 -0.1)">
      <use xlink:href="#DejaVuSans-112"/>
      <use x="63.476562" xlink:href="#DejaVuSans-114"/>
      <use x="104.558594" xlink:href="#DejaVuSans-111"/>
      <use x="165.740234" xlink:href="#DejaVuSans-115"/>
      <use x="217.839844" xlink:href="#DejaVuSans-105"/>
      <use x="245.623047" xlink:href="#DejaVuSans-99"/>
      <use x="300.603516" xlink:href="#DejaVuSans-43"/>
      <use x="384.392578" xlink:href="#DejaVuSans-108"/>
      <use x="412.175781" xlink:href="#DejaVuSans-97"/>
      <use x="473.455078" xlink:href="#DejaVuSans-110"/>
      <use x="536.833984" xlink:href="#DejaVuSans-99"/>
      <use x="591.814453" xlink:href="#DejaVuSans-101"/>
      <use x="653.337891" xlink:href="#DejaVuSans-116"/>
     </g>
    </g>
    <g id="line2d_26">
     <path d="M 161.816628 64.772812 
L 181.816628 64.772812 
" style="fill:none;stroke:#2ca02c;stroke-linecap:square;stroke-width:1.5;"/>
    </g>
    <g id="line2d_27"/>
    <g id="text_15">
     <!-- prosic+manta -->
     <defs>
      <path d="M 52 44.1875 
Q 55.375 50.25 60.0625 53.125 
Q 64.75 56 71.09375 56 
Q 79.640625 56 84.28125 50.015625 
Q 88.921875 44.046875 88.921875 33.015625 
L 88.921875 0 
L 79.890625 0 
L 79.890625 32.71875 
Q 79.890625 40.578125 77.09375 44.375 
Q 74.3125 48.1875 68.609375 48.1875 
Q 61.625 48.1875 57.5625 43.546875 
Q 53.515625 38.921875 53.515625 30.90625 
L 53.515625 0 
L 44.484375 0 
L 44.484375 32.71875 
Q 44.484375 40.625 41.703125 44.40625 
Q 38.921875 48.1875 33.109375 48.1875 
Q 26.21875 48.1875 22.15625 43.53125 
Q 18.109375 38.875 18.109375 30.90625 
L 18.109375 0 
L 9.078125 0 
L 9.078125 54.6875 
L 18.109375 54.6875 
L 18.109375 46.1875 
Q 21.1875 51.21875 25.484375 53.609375 
Q 29.78125 56 35.6875 56 
Q 41.65625 56 45.828125 52.96875 
Q 50 49.953125 52 44.1875 
z
" id="DejaVuSans-109"/>
     </defs>
     <g transform="translate(189.816628 68.272812)scale(0.1 -0.1)">
      <use xlink:href="#DejaVuSans-112"/>
      <use x="63.476562" xlink:href="#DejaVuSans-114"/>
      <use x="104.558594" xlink:href="#DejaVuSans-111"/>
      <use x="165.740234" xlink:href="#DejaVuSans-115"/>
      <use x="217.839844" xlink:href="#DejaVuSans-105"/>
      <use x="245.623047" xlink:href="#DejaVuSans-99"/>
      <use x="300.603516" xlink:href="#DejaVuSans-43"/>
      <use x="384.392578" xlink:href="#DejaVuSans-109"/>
      <use x="481.804688" xlink:href="#DejaVuSans-97"/>
      <use x="543.083984" xlink:href="#DejaVuSans-110"/>
      <use x="606.462891" xlink:href="#DejaVuSans-116"/>
      <use x="645.671875" xlink:href="#DejaVuSans-97"/>
     </g>
    </g>
    <g id="line2d_28">
     <path d="M 161.816628 79.450937 
L 181.816628 79.450937 
" style="fill:none;stroke:#d62728;stroke-linecap:square;stroke-width:1.5;"/>
    </g>
    <g id="line2d_29"/>
    <g id="text_16">
     <!-- prosic+strelka -->
     <defs>
      <path d="M 9.078125 75.984375 
L 18.109375 75.984375 
L 18.109375 31.109375 
L 44.921875 54.6875 
L 56.390625 54.6875 
L 27.390625 29.109375 
L 57.625 0 
L 45.90625 0 
L 18.109375 26.703125 
L 18.109375 0 
L 9.078125 0 
z
" id="DejaVuSans-107"/>
     </defs>
     <g transform="translate(189.816628 82.950937)scale(0.1 -0.1)">
      <use xlink:href="#DejaVuSans-112"/>
      <use x="63.476562" xlink:href="#DejaVuSans-114"/>
      <use x="104.558594" xlink:href="#DejaVuSans-111"/>
      <use x="165.740234" xlink:href="#DejaVuSans-115"/>
      <use x="217.839844" xlink:href="#DejaVuSans-105"/>
      <use x="245.623047" xlink:href="#DejaVuSans-99"/>
      <use x="300.603516" xlink:href="#DejaVuSans-43"/>
      <use x="384.392578" xlink:href="#DejaVuSans-115"/>
      <use x="436.492188" xlink:href="#DejaVuSans-116"/>
      <use x="475.701172" xlink:href="#DejaVuSans-114"/>
      <use x="516.783203" xlink:href="#DejaVuSans-101"/>
      <use x="578.306641" xlink:href="#DejaVuSans-108"/>
      <use x="606.089844" xlink:href="#DejaVuSans-107"/>
      <use x="663.984375" xlink:href="#DejaVuSans-97"/>
     </g>
    </g>
   </g>
  </g>
  <g id="axes_2">
   <g id="patch_6">
    <path d="M 319.997235 255.358125 
L 547.559176 255.358125 
L 547.559176 22.318125 
L 319.997235 22.318125 
z
" style="fill:#ffffff;"/>
   </g>
   <g id="matplotlib.axis_3">
    <g id="xtick_8">
     <g id="line2d_30">
      <g>
       <use style="stroke:#000000;stroke-width:0.8;" x="323.196436" xlink:href="#m43ce651f4d" y="255.358125"/>
      </g>
     </g>
     <g id="text_17">
      <!-- 0.007 -->
      <g transform="translate(308.882373 269.956562)scale(0.1 -0.1)">
       <use xlink:href="#DejaVuSans-48"/>
       <use x="63.623047" xlink:href="#DejaVuSans-46"/>
       <use x="95.410156" xlink:href="#DejaVuSans-48"/>
       <use x="159.033203" xlink:href="#DejaVuSans-48"/>
       <use x="222.65625" xlink:href="#DejaVuSans-55"/>
      </g>
     </g>
    </g>
    <g id="xtick_9">
     <g id="line2d_31">
      <g>
       <use style="stroke:#000000;stroke-width:0.8;" x="360.005566" xlink:href="#m43ce651f4d" y="255.358125"/>
      </g>
     </g>
     <g id="text_18">
      <!-- 1 -->
      <g transform="translate(356.824316 269.956562)scale(0.1 -0.1)">
       <use xlink:href="#DejaVuSans-49"/>
      </g>
     </g>
    </g>
    <g id="xtick_10">
     <g id="line2d_32">
      <g>
       <use style="stroke:#000000;stroke-width:0.8;" x="396.814696" xlink:href="#m43ce651f4d" y="255.358125"/>
      </g>
     </g>
     <g id="text_19">
      <!-- 1e+02 -->
      <g transform="translate(380.00454 269.956562)scale(0.1 -0.1)">
       <use xlink:href="#DejaVuSans-49"/>
       <use x="63.623047" xlink:href="#DejaVuSans-101"/>
       <use x="125.146484" xlink:href="#DejaVuSans-43"/>
       <use x="208.935547" xlink:href="#DejaVuSans-48"/>
       <use x="272.558594" xlink:href="#DejaVuSans-50"/>
      </g>
     </g>
    </g>
    <g id="xtick_11">
     <g id="line2d_33">
      <g>
       <use style="stroke:#000000;stroke-width:0.8;" x="433.623826" xlink:href="#m43ce651f4d" y="255.358125"/>
      </g>
     </g>
     <g id="text_20">
      <!-- 2e+04 -->
      <g transform="translate(416.81367 269.956562)scale(0.1 -0.1)">
       <use xlink:href="#DejaVuSans-50"/>
       <use x="63.623047" xlink:href="#DejaVuSans-101"/>
       <use x="125.146484" xlink:href="#DejaVuSans-43"/>
       <use x="208.935547" xlink:href="#DejaVuSans-48"/>
       <use x="272.558594" xlink:href="#DejaVuSans-52"/>
      </g>
     </g>
    </g>
    <g id="xtick_12">
     <g id="line2d_34">
      <g>
       <use style="stroke:#000000;stroke-width:0.8;" x="470.432956" xlink:href="#m43ce651f4d" y="255.358125"/>
      </g>
     </g>
     <g id="text_21">
      <!-- 3e+06 -->
      <defs>
       <path d="M 33.015625 40.375 
Q 26.375 40.375 22.484375 35.828125 
Q 18.609375 31.296875 18.609375 23.390625 
Q 18.609375 15.53125 22.484375 10.953125 
Q 26.375 6.390625 33.015625 6.390625 
Q 39.65625 6.390625 43.53125 10.953125 
Q 47.40625 15.53125 47.40625 23.390625 
Q 47.40625 31.296875 43.53125 35.828125 
Q 39.65625 40.375 33.015625 40.375 
z
M 52.59375 71.296875 
L 52.59375 62.3125 
Q 48.875 64.0625 45.09375 64.984375 
Q 41.3125 65.921875 37.59375 65.921875 
Q 27.828125 65.921875 22.671875 59.328125 
Q 17.53125 52.734375 16.796875 39.40625 
Q 19.671875 43.65625 24.015625 45.921875 
Q 28.375 48.1875 33.59375 48.1875 
Q 44.578125 48.1875 50.953125 41.515625 
Q 57.328125 34.859375 57.328125 23.390625 
Q 57.328125 12.15625 50.6875 5.359375 
Q 44.046875 -1.421875 33.015625 -1.421875 
Q 20.359375 -1.421875 13.671875 8.265625 
Q 6.984375 17.96875 6.984375 36.375 
Q 6.984375 53.65625 15.1875 63.9375 
Q 23.390625 74.21875 37.203125 74.21875 
Q 40.921875 74.21875 44.703125 73.484375 
Q 48.484375 72.75 52.59375 71.296875 
z
" id="DejaVuSans-54"/>
      </defs>
      <g transform="translate(453.6228 269.956562)scale(0.1 -0.1)">
       <use xlink:href="#DejaVuSans-51"/>
       <use x="63.623047" xlink:href="#DejaVuSans-101"/>
       <use x="125.146484" xlink:href="#DejaVuSans-43"/>
       <use x="208.935547" xlink:href="#DejaVuSans-48"/>
       <use x="272.558594" xlink:href="#DejaVuSans-54"/>
      </g>
     </g>
    </g>
    <g id="xtick_13">
     <g id="line2d_35">
      <g>
       <use style="stroke:#000000;stroke-width:0.8;" x="507.242086" xlink:href="#m43ce651f4d" y="255.358125"/>
      </g>
     </g>
    </g>
    <g id="xtick_14">
     <g id="line2d_36">
      <g>
       <use style="stroke:#000000;stroke-width:0.8;" x="544.051216" xlink:href="#m43ce651f4d" y="255.358125"/>
      </g>
     </g>
    </g>
   </g>
   <g id="matplotlib.axis_4">
    <g id="ytick_7">
     <g id="line2d_37">
      <g>
       <use style="stroke:#000000;stroke-width:0.8;" x="319.997235" xlink:href="#m646efd847b" y="255.358125"/>
      </g>
     </g>
     <g id="text_22">
      <!-- 0 -->
      <g transform="translate(306.634735 259.157344)scale(0.1 -0.1)">
       <use xlink:href="#DejaVuSans-48"/>
      </g>
     </g>
    </g>
    <g id="ytick_8">
     <g id="line2d_38">
      <g>
       <use style="stroke:#000000;stroke-width:0.8;" x="319.997235" xlink:href="#m646efd847b" y="205.355188"/>
      </g>
     </g>
     <g id="text_23">
      <!-- 1 -->
      <g transform="translate(306.634735 209.154407)scale(0.1 -0.1)">
       <use xlink:href="#DejaVuSans-49"/>
      </g>
     </g>
    </g>
    <g id="ytick_9">
     <g id="line2d_39">
      <g>
       <use style="stroke:#000000;stroke-width:0.8;" x="319.997235" xlink:href="#m646efd847b" y="155.352252"/>
      </g>
     </g>
     <g id="text_24">
      <!-- 2 -->
      <g transform="translate(306.634735 159.151471)scale(0.1 -0.1)">
       <use xlink:href="#DejaVuSans-50"/>
      </g>
     </g>
    </g>
    <g id="ytick_10">
     <g id="line2d_40">
      <g>
       <use style="stroke:#000000;stroke-width:0.8;" x="319.997235" xlink:href="#m646efd847b" y="105.349315"/>
      </g>
     </g>
     <g id="text_25">
      <!-- 3 -->
      <g transform="translate(306.634735 109.148534)scale(0.1 -0.1)">
       <use xlink:href="#DejaVuSans-51"/>
      </g>
     </g>
    </g>
    <g id="ytick_11">
     <g id="line2d_41">
      <g>
       <use style="stroke:#000000;stroke-width:0.8;" x="319.997235" xlink:href="#m646efd847b" y="55.346379"/>
      </g>
     </g>
     <g id="text_26">
      <!-- 4 -->
      <g transform="translate(306.634735 59.145597)scale(0.1 -0.1)">
       <use xlink:href="#DejaVuSans-52"/>
      </g>
     </g>
    </g>
   </g>
   <g id="line2d_42">
    <path clip-path="url(#p19a5978241)" d="M 336.462799 255.358125 
L 337.820218 252.252795 
L 339.177637 183.357025 
L 340.535056 33.415268 
L 341.892475 148.4075 
L 343.249894 201.638028 
L 344.607313 233.957428 
L 345.964732 240.436139 
L 347.322151 245.701008 
L 348.679569 249.11017 
L 350.036988 250.056947 
L 351.394407 251.241219 
L 352.751826 253.141362 
L 354.109245 250.324801 
L 355.466664 254.990822 
L 356.824083 253.506445 
L 358.181502 255.162704 
L 359.538921 253.983092 
L 360.896339 255.358125 
L 362.253758 255.091398 
L 363.611177 254.010716 
L 364.968596 254.99084 
L 366.326015 255.358125 
L 367.683434 253.253149 
L 369.040853 255.358125 
L 370.398272 255.030943 
L 371.755691 255.358125 
L 373.11311 255.129834 
L 374.470528 255.358125 
L 375.827947 255.177305 
L 377.185366 255.358125 
L 378.542785 255.206474 
L 379.900204 255.358125 
L 381.257623 255.226766 
L 382.615042 255.358125 
L 383.972461 255.24189 
L 385.32988 255.358125 
L 386.687298 255.253643 
L 388.044717 255.358125 
L 389.402136 255.263029 
L 390.759555 255.358125 
L 392.116974 255.270666 
L 393.474393 255.358125 
L 394.831812 255.27696 
L 396.189231 255.358125 
L 397.54665 255.282196 
L 398.904069 255.358125 
L 400.261487 255.286574 
L 401.618906 255.358125 
L 402.976325 255.290246 
L 404.333744 255.358125 
L 405.691163 255.293326 
L 407.048582 255.358125 
L 408.406001 255.2959 
L 409.76342 255.358125 
L 411.120839 255.298035 
L 412.478257 255.358125 
L 413.835676 255.299784 
L 415.193095 255.358125 
L 416.550514 255.301186 
L 417.907933 255.358125 
L 419.265352 255.302274 
L 421.98019 255.303071 
L 426.052446 255.358125 
L 430.124703 255.303847 
L 434.19696 255.358125 
L 438.269216 255.302272 
L 439.626635 255.358125 
L 440.984054 255.301191 
L 442.341473 255.358125 
L 443.698892 255.299803 
L 445.056311 255.358125 
L 446.41373 255.298078 
L 447.771149 255.358125 
L 449.128568 255.295982 
L 450.485987 255.358125 
L 451.843405 255.293469 
L 453.200824 255.358125 
L 454.558243 255.290481 
L 455.915662 255.358125 
L 457.273081 255.286944 
L 458.6305 255.358125 
L 459.987919 255.282769 
L 461.345338 255.358125 
L 462.702757 255.277839 
L 464.060175 255.358125 
L 465.417594 255.272007 
L 466.775013 255.358125 
L 468.132432 255.265084 
L 469.489851 255.358125 
L 470.84727 255.256825 
L 472.204689 255.358125 
L 473.562108 255.24691 
L 474.919527 255.358125 
L 476.276946 255.234912 
L 477.634364 255.358125 
L 478.991783 255.220258 
L 480.349202 255.358125 
L 481.706621 255.20216 
L 483.06404 255.358125 
L 484.421459 255.179519 
L 485.778878 255.358125 
L 487.136297 255.150768 
L 488.493716 255.358125 
L 489.851134 255.113617 
L 491.208553 255.358125 
L 492.565972 255.06464 
L 493.923391 255.358125 
L 495.28081 254.998568 
L 496.638229 255.358125 
L 497.995648 254.907105 
L 499.353067 255.358125 
L 500.710486 254.777045 
L 502.067905 255.358125 
L 503.425323 254.58852 
L 504.782742 255.358125 
L 506.140161 254.062293 
L 507.49758 255.191697 
L 508.854999 253.833684 
L 508.854999 253.833684 
" style="fill:none;stroke:#1f77b4;stroke-linecap:square;stroke-width:1.5;"/>
   </g>
   <g id="line2d_43">
    <path clip-path="url(#p19a5978241)" d="M 432.17632 255.347981 
L 436.311719 255.226128 
L 442.101278 254.863029 
L 445.409597 255.140864 
L 448.717916 255.327798 
L 456.161634 255.358119 
L 489.244825 255.300181 
L 490.898984 255.153729 
L 492.553144 254.803117 
L 494.207303 254.172799 
L 495.861463 253.274303 
L 497.515622 252.074851 
L 498.342702 251.262423 
L 499.169782 250.195124 
L 499.996862 248.765579 
L 500.823941 246.877632 
L 501.651021 244.478879 
L 503.305181 238.322002 
L 505.78642 228.407327 
L 506.6135 225.868437 
L 507.44058 223.991125 
L 508.267659 222.805967 
L 509.094739 222.253135 
L 509.921819 222.208218 
L 510.748899 222.512819 
L 513.230138 223.892944 
L 514.057218 224.039872 
L 514.884298 223.878793 
L 515.711377 223.409384 
L 518.192617 221.475821 
L 519.019696 221.449466 
L 519.846776 222.149579 
L 520.673856 223.712944 
L 521.500936 226.136646 
L 522.328016 229.274855 
L 525.636335 243.550508 
L 526.463414 246.374087 
L 527.290494 248.693724 
L 528.117574 250.534092 
L 528.944654 251.953995 
L 529.771733 253.022998 
L 530.598813 253.807766 
L 531.425893 254.367012 
L 532.252973 254.75128 
L 533.907132 255.161979 
L 536.388372 255.333529 
L 537.215451 255.345273 
L 537.215451 255.345273 
" style="fill:none;stroke:#1f77b4;stroke-dasharray:1.5,2.475;stroke-dashoffset:0;stroke-width:1.5;"/>
   </g>
   <g id="line2d_44">
    <path clip-path="url(#p19a5978241)" d="M 330.935718 252.469725 
L 332.416894 255.358125 
L 333.89807 250.555321 
L 335.379246 255.358125 
L 336.860422 243.269501 
L 338.341598 255.358125 
L 339.822774 52.063447 
L 341.30395 105.969086 
L 342.785126 193.943367 
L 344.266302 234.791047 
L 345.747478 239.332389 
L 347.228654 247.509539 
L 348.70983 248.740698 
L 350.191006 250.239084 
L 351.672182 252.117021 
L 353.153358 253.646995 
L 354.634534 250.456637 
L 356.11571 255.358125 
L 357.596886 254.401631 
L 359.078062 254.08815 
L 360.559238 255.020622 
L 362.040414 255.358125 
L 363.52159 254.058888 
L 365.002766 255.358125 
L 366.483942 254.902301 
L 367.965118 254.803267 
L 369.446294 255.181731 
L 370.92747 255.358125 
L 372.408646 255.143258 
L 373.889822 255.358125 
L 375.370998 255.152071 
L 376.852174 255.358125 
L 378.33335 255.168002 
L 379.814526 255.358125 
L 381.295702 255.183902 
L 382.776878 255.358125 
L 384.258054 255.19821 
L 385.73923 255.358125 
L 387.220406 255.210678 
L 388.701582 255.358125 
L 390.182758 255.221415 
L 391.663934 255.358125 
L 393.14511 255.230622 
L 394.626286 255.358125 
L 396.107462 255.238503 
L 397.588638 255.358125 
L 399.069814 255.245242 
L 400.55099 255.358125 
L 402.032166 255.250998 
L 403.513342 255.358125 
L 404.994518 255.2559 
L 406.475694 255.358125 
L 407.95687 255.260057 
L 409.438046 255.358125 
L 410.919222 255.263558 
L 412.400398 255.358125 
L 413.881574 255.266474 
L 415.36275 255.358125 
L 416.843926 255.268862 
L 418.325102 255.358125 
L 419.806278 255.270768 
L 421.287454 255.358125 
L 422.76863 255.272229 
L 424.249806 255.358125 
L 425.730982 255.273269 
L 427.212158 255.358125 
L 428.693334 255.273909 
L 430.17451 255.358125 
L 431.655686 255.274158 
L 433.136862 255.358125 
L 434.618038 255.274021 
L 436.099214 255.358125 
L 437.58039 255.273495 
L 439.061566 255.358125 
L 440.542742 255.27257 
L 442.023918 255.358125 
L 443.505094 255.271228 
L 444.98627 255.358125 
L 446.467445 255.269445 
L 447.948621 255.358125 
L 449.429797 255.267185 
L 450.910973 255.358125 
L 452.392149 255.264402 
L 453.873325 255.358125 
L 455.354501 255.26104 
L 456.835677 255.358125 
L 458.316853 255.257025 
L 459.798029 255.358125 
L 461.279205 255.252264 
L 462.760381 255.358125 
L 464.241557 255.246644 
L 465.722733 255.358125 
L 467.203909 255.240019 
L 468.685085 255.358125 
L 470.166261 255.232206 
L 471.647437 255.358125 
L 473.128613 255.222973 
L 474.609789 255.358125 
L 476.090965 255.212024 
L 477.572141 255.358125 
L 479.053317 255.198976 
L 480.534493 255.358125 
L 482.015669 255.183328 
L 483.496845 255.358125 
L 484.978021 255.164425 
L 486.459197 255.358125 
L 487.940373 255.141394 
L 489.421549 255.358125 
L 490.902725 255.113076 
L 492.383901 255.358125 
L 493.865077 255.077955 
L 495.346253 255.358125 
L 496.827429 255.034209 
L 498.308605 255.358125 
L 499.789781 254.980652 
L 501.270957 255.358125 
L 502.752133 254.924406 
L 504.233309 255.358125 
L 505.714485 254.216679 
L 507.195661 255.070598 
L 508.676837 254.594043 
L 510.158013 255.358125 
L 511.639189 253.306762 
L 513.120365 255.358125 
L 514.601541 253.967407 
L 516.082717 255.358125 
L 517.563893 252.010037 
L 519.045069 255.358125 
L 519.045069 255.358125 
" style="fill:none;stroke:#ff7f0e;stroke-linecap:square;stroke-width:1.5;"/>
   </g>
   <g id="line2d_45">
    <path clip-path="url(#p19a5978241)" d="M 330.34096 255.356789 
L 333.55423 255.296333 
L 335.160865 255.082839 
L 336.7675 254.470406 
L 338.374135 253.378937 
L 339.98077 252.472556 
L 341.587405 252.622176 
L 344.800675 254.489577 
L 346.40731 254.965138 
L 348.013945 255.087351 
L 351.227215 255.137339 
L 356.04712 255.340953 
L 365.68693 255.351972 
L 399.426265 255.358125 
L 431.558965 255.312093 
L 436.37887 255.162948 
L 466.904935 255.358125 
L 478.15138 255.326817 
L 481.36465 255.077347 
L 484.57792 254.726849 
L 487.79119 254.52019 
L 489.397825 254.201432 
L 491.00446 253.369028 
L 492.611095 251.8401 
L 494.21773 249.658055 
L 495.824365 247.01327 
L 499.037635 241.018959 
L 500.64427 237.353078 
L 502.250905 232.70796 
L 503.85754 227.704954 
L 505.464175 223.929984 
L 507.07081 222.210828 
L 508.677445 222.102562 
L 510.28408 223.100768 
L 511.890715 224.673507 
L 513.49735 225.949931 
L 516.71062 226.844528 
L 518.317255 229.254031 
L 519.92389 234.441148 
L 521.530525 241.084593 
L 523.13716 247.042235 
L 524.743795 251.026669 
L 526.35043 253.111582 
L 527.957065 254.164009 
L 529.5637 254.819341 
L 531.170335 255.190199 
L 534.383605 255.35419 
L 534.383605 255.35419 
" style="fill:none;stroke:#ff7f0e;stroke-dasharray:1.5,2.475;stroke-dashoffset:0;stroke-width:1.5;"/>
   </g>
   <g id="line2d_46">
    <path clip-path="url(#p19a5978241)" d="M 334.98384 255.095981 
L 336.456916 251.398847 
L 337.929993 229.78621 
L 339.403069 181.976429 
L 340.876146 151.520833 
L 342.349222 172.646907 
L 343.822299 204.497593 
L 345.295375 219.067782 
L 349.714604 240.405126 
L 351.187681 245.486185 
L 352.660757 246.231266 
L 354.133834 245.570748 
L 355.60691 248.903338 
L 357.079987 251.834035 
L 360.02614 253.860087 
L 361.499216 254.308217 
L 362.972293 253.790712 
L 364.445369 253.855349 
L 365.918445 254.731905 
L 367.391522 255.253076 
L 370.337675 255.357999 
L 502.914556 255.319643 
L 504.387632 255.054511 
L 505.860709 254.180688 
L 507.333785 253.526001 
L 510.279938 255.183896 
L 511.753014 255.344078 
L 513.226091 255.33275 
L 514.699167 255.114816 
L 517.64532 253.465518 
L 520.591473 255.170857 
L 522.06455 255.33865 
L 522.06455 255.33865 
" style="fill:none;stroke:#2ca02c;stroke-linecap:square;stroke-width:1.5;"/>
   </g>
   <g id="line2d_47">
    <path clip-path="url(#p19a5978241)" d="M 480.355109 255.353749 
L 483.759636 255.256322 
L 486.738597 254.906236 
L 489.291992 254.4697 
L 490.568689 254.028179 
L 491.419821 253.523062 
L 492.270952 252.771965 
L 493.122084 251.756083 
L 496.526611 247.208858 
L 498.228874 245.419685 
L 499.080006 244.167259 
L 499.931137 242.448052 
L 500.782269 240.208239 
L 502.058966 236.012722 
L 504.186795 228.530086 
L 505.037927 226.235265 
L 505.889059 224.671951 
L 506.74019 223.78541 
L 507.591322 223.30843 
L 511.421414 221.750567 
L 513.123678 221.771462 
L 515.677073 221.888107 
L 516.528204 222.225145 
L 517.379336 222.930964 
L 518.230468 224.199901 
L 519.081599 226.232212 
L 519.932731 229.130282 
L 521.209428 234.862436 
L 523.337258 245.125766 
L 524.188389 248.314947 
L 525.039521 250.681627 
L 525.890652 252.294167 
L 526.741784 253.338367 
L 527.592916 254.017057 
L 528.869613 254.660076 
L 530.146311 255.044198 
L 531.848574 255.28332 
L 534.401969 255.353418 
L 534.401969 255.353418 
" style="fill:none;stroke:#2ca02c;stroke-dasharray:1.5,2.475;stroke-dashoffset:0;stroke-width:1.5;"/>
   </g>
   <g id="line2d_48">
    <path clip-path="url(#p19a5978241)" d="M 335.179431 255.084471 
L 335.696312 254.56774 
L 335.954752 254.049044 
L 336.213193 253.247612 
L 336.471634 252.050727 
L 336.988515 247.904968 
L 337.505396 240.366573 
L 338.022277 228.383013 
L 338.797599 202.188699 
L 339.831362 163.497732 
L 340.348243 150.600967 
L 340.606684 147.081674 
L 340.865124 145.705197 
L 341.123565 146.426524 
L 341.382006 149.062275 
L 341.898887 158.82331 
L 343.707971 202.218777 
L 344.224852 210.032072 
L 344.741734 215.572997 
L 345.517056 221.179796 
L 346.292377 225.163568 
L 350.427427 243.077633 
L 351.202749 245.238284 
L 351.719631 246.053867 
L 352.236512 246.310683 
L 352.753393 246.10712 
L 353.528715 245.552088 
L 353.787156 245.481425 
L 354.045596 245.532388 
L 354.304037 245.72574 
L 354.820918 246.54145 
L 355.59624 248.483321 
L 356.630002 250.964003 
L 357.146884 251.768361 
L 357.663765 252.28033 
L 358.697527 252.878722 
L 359.73129 253.579502 
L 360.765052 254.280124 
L 361.281934 254.402865 
L 361.798815 254.311186 
L 362.832577 253.740205 
L 363.349459 253.516105 
L 363.86634 253.486347 
L 364.383221 253.676694 
L 365.416984 254.429817 
L 366.192306 254.931601 
L 366.967628 255.2019 
L 367.742949 255.243642 
L 368.00139 255.192067 
L 368.00139 255.192067 
" style="fill:none;stroke:#d62728;stroke-linecap:square;stroke-width:1.5;"/>
   </g>
   <g id="line2d_49">
    <path clip-path="url(#p19a5978241)" d="M 465.632981 254.944593 
L 467.772355 254.778135 
L 469.376885 254.45433 
L 470.981416 253.913931 
L 472.585946 253.101766 
L 474.190476 251.962833 
L 475.795007 250.458984 
L 477.399537 248.587995 
L 479.538911 245.619727 
L 483.817658 239.377094 
L 485.422188 237.574375 
L 486.491875 236.702713 
L 487.561562 236.143201 
L 488.631249 235.914897 
L 489.700936 236.013842 
L 490.770623 236.412243 
L 491.84031 237.059917 
L 493.44484 238.344193 
L 496.119057 240.606894 
L 497.188744 241.306692 
L 498.258431 241.78487 
L 499.328118 241.997862 
L 500.397805 241.926321 
L 501.467492 241.576741 
L 502.537178 240.980914 
L 504.141709 239.749591 
L 507.350769 237.059917 
L 508.420456 236.412243 
L 509.490143 236.013842 
L 510.55983 235.914897 
L 511.629517 236.143201 
L 512.699204 236.702713 
L 513.768891 237.574375 
L 514.838577 238.719028 
L 516.443108 240.825378 
L 522.326386 249.250549 
L 523.930916 251.0019 
L 525.535446 252.381693 
L 527.139976 253.406249 
L 528.744507 254.1214 
L 530.349037 254.583864 
L 531.953567 254.845897 
L 533.558098 254.944593 
L 533.558098 254.944593 
" style="fill:none;stroke:#d62728;stroke-dasharray:1.5,2.475;stroke-dashoffset:0;stroke-width:1.5;"/>
   </g>
   <g id="patch_7">
    <path d="M 319.997235 255.358125 
L 319.997235 22.318125 
" style="fill:none;stroke:#000000;stroke-linecap:square;stroke-linejoin:miter;stroke-width:0.8;"/>
   </g>
   <g id="patch_8">
    <path d="M 319.997235 255.358125 
L 547.559176 255.358125 
" style="fill:none;stroke:#000000;stroke-linecap:square;stroke-linejoin:miter;stroke-width:0.8;"/>
   </g>
   <g id="text_27">
    <!-- 30 - 50 -->
    <g transform="translate(412.529768 16.318125)scale(0.12 -0.12)">
     <use xlink:href="#DejaVuSans-51"/>
     <use x="63.623047" xlink:href="#DejaVuSans-48"/>
     <use x="127.246094" xlink:href="#DejaVuSans-32"/>
     <use x="159.033203" xlink:href="#DejaVuSans-45"/>
     <use x="195.117188" xlink:href="#DejaVuSans-32"/>
     <use x="226.904297" xlink:href="#DejaVuSans-53"/>
     <use x="290.527344" xlink:href="#DejaVuSans-48"/>
    </g>
   </g>
  </g>
  <g id="axes_3">
   <g id="patch_9">
    <path d="M 43.78125 530.918125 
L 271.343191 530.918125 
L 271.343191 297.878125 
L 43.78125 297.878125 
z
" style="fill:#ffffff;"/>
   </g>
   <g id="matplotlib.axis_5">
    <g id="xtick_15">
     <g id="line2d_50">
      <g>
       <use style="stroke:#000000;stroke-width:0.8;" x="46.908429" xlink:href="#m43ce651f4d" y="530.918125"/>
      </g>
     </g>
     <g id="text_28">
      <!-- 0.007 -->
      <g transform="translate(32.594367 545.516562)scale(0.1 -0.1)">
       <use xlink:href="#DejaVuSans-48"/>
       <use x="63.623047" xlink:href="#DejaVuSans-46"/>
       <use x="95.410156" xlink:href="#DejaVuSans-48"/>
       <use x="159.033203" xlink:href="#DejaVuSans-48"/>
       <use x="222.65625" xlink:href="#DejaVuSans-55"/>
      </g>
     </g>
    </g>
    <g id="xtick_16">
     <g id="line2d_51">
      <g>
       <use style="stroke:#000000;stroke-width:0.8;" x="83.974791" xlink:href="#m43ce651f4d" y="530.918125"/>
      </g>
     </g>
     <g id="text_29">
      <!-- 1 -->
      <g transform="translate(80.793541 545.516562)scale(0.1 -0.1)">
       <use xlink:href="#DejaVuSans-49"/>
      </g>
     </g>
    </g>
    <g id="xtick_17">
     <g id="line2d_52">
      <g>
       <use style="stroke:#000000;stroke-width:0.8;" x="121.041154" xlink:href="#m43ce651f4d" y="530.918125"/>
      </g>
     </g>
     <g id="text_30">
      <!-- 1e+02 -->
      <g transform="translate(104.230997 545.516562)scale(0.1 -0.1)">
       <use xlink:href="#DejaVuSans-49"/>
       <use x="63.623047" xlink:href="#DejaVuSans-101"/>
       <use x="125.146484" xlink:href="#DejaVuSans-43"/>
       <use x="208.935547" xlink:href="#DejaVuSans-48"/>
       <use x="272.558594" xlink:href="#DejaVuSans-50"/>
      </g>
     </g>
    </g>
    <g id="xtick_18">
     <g id="line2d_53">
      <g>
       <use style="stroke:#000000;stroke-width:0.8;" x="158.107516" xlink:href="#m43ce651f4d" y="530.918125"/>
      </g>
     </g>
     <g id="text_31">
      <!-- 2e+04 -->
      <g transform="translate(141.297359 545.516562)scale(0.1 -0.1)">
       <use xlink:href="#DejaVuSans-50"/>
       <use x="63.623047" xlink:href="#DejaVuSans-101"/>
       <use x="125.146484" xlink:href="#DejaVuSans-43"/>
       <use x="208.935547" xlink:href="#DejaVuSans-48"/>
       <use x="272.558594" xlink:href="#DejaVuSans-52"/>
      </g>
     </g>
    </g>
    <g id="xtick_19">
     <g id="line2d_54">
      <g>
       <use style="stroke:#000000;stroke-width:0.8;" x="195.173878" xlink:href="#m43ce651f4d" y="530.918125"/>
      </g>
     </g>
     <g id="text_32">
      <!-- 3e+06 -->
      <g transform="translate(178.363722 545.516562)scale(0.1 -0.1)">
       <use xlink:href="#DejaVuSans-51"/>
       <use x="63.623047" xlink:href="#DejaVuSans-101"/>
       <use x="125.146484" xlink:href="#DejaVuSans-43"/>
       <use x="208.935547" xlink:href="#DejaVuSans-48"/>
       <use x="272.558594" xlink:href="#DejaVuSans-54"/>
      </g>
     </g>
    </g>
    <g id="xtick_20">
     <g id="line2d_55">
      <g>
       <use style="stroke:#000000;stroke-width:0.8;" x="232.24024" xlink:href="#m43ce651f4d" y="530.918125"/>
      </g>
     </g>
    </g>
    <g id="xtick_21">
     <g id="line2d_56">
      <g>
       <use style="stroke:#000000;stroke-width:0.8;" x="269.306602" xlink:href="#m43ce651f4d" y="530.918125"/>
      </g>
     </g>
    </g>
    <g id="text_33">
     <!-- Pr(somatic) (PHRED) -->
     <defs>
      <path d="M 19.671875 64.796875 
L 19.671875 37.40625 
L 32.078125 37.40625 
Q 38.96875 37.40625 42.71875 40.96875 
Q 46.484375 44.53125 46.484375 51.125 
Q 46.484375 57.671875 42.71875 61.234375 
Q 38.96875 64.796875 32.078125 64.796875 
z
M 9.8125 72.90625 
L 32.078125 72.90625 
Q 44.34375 72.90625 50.609375 67.359375 
Q 56.890625 61.8125 56.890625 51.125 
Q 56.890625 40.328125 50.609375 34.8125 
Q 44.34375 29.296875 32.078125 29.296875 
L 19.671875 29.296875 
L 19.671875 0 
L 9.8125 0 
z
" id="DejaVuSans-80"/>
      <path d="M 31 75.875 
Q 24.46875 64.65625 21.28125 53.65625 
Q 18.109375 42.671875 18.109375 31.390625 
Q 18.109375 20.125 21.3125 9.0625 
Q 24.515625 -2 31 -13.1875 
L 23.1875 -13.1875 
Q 15.875 -1.703125 12.234375 9.375 
Q 8.59375 20.453125 8.59375 31.390625 
Q 8.59375 42.28125 12.203125 53.3125 
Q 15.828125 64.359375 23.1875 75.875 
z
" id="DejaVuSans-40"/>
      <path d="M 8.015625 75.875 
L 15.828125 75.875 
Q 23.140625 64.359375 26.78125 53.3125 
Q 30.421875 42.28125 30.421875 31.390625 
Q 30.421875 20.453125 26.78125 9.375 
Q 23.140625 -1.703125 15.828125 -13.1875 
L 8.015625 -13.1875 
Q 14.5 -2 17.703125 9.0625 
Q 20.90625 20.125 20.90625 31.390625 
Q 20.90625 42.671875 17.703125 53.65625 
Q 14.5 64.65625 8.015625 75.875 
z
" id="DejaVuSans-41"/>
      <path d="M 9.8125 72.90625 
L 19.671875 72.90625 
L 19.671875 43.015625 
L 55.515625 43.015625 
L 55.515625 72.90625 
L 65.375 72.90625 
L 65.375 0 
L 55.515625 0 
L 55.515625 34.71875 
L 19.671875 34.71875 
L 19.671875 0 
L 9.8125 0 
z
" id="DejaVuSans-72"/>
      <path d="M 44.390625 34.1875 
Q 47.5625 33.109375 50.5625 29.59375 
Q 53.5625 26.078125 56.59375 19.921875 
L 66.609375 0 
L 56 0 
L 46.6875 18.703125 
Q 43.0625 26.03125 39.671875 28.421875 
Q 36.28125 30.8125 30.421875 30.8125 
L 19.671875 30.8125 
L 19.671875 0 
L 9.8125 0 
L 9.8125 72.90625 
L 32.078125 72.90625 
Q 44.578125 72.90625 50.734375 67.671875 
Q 56.890625 62.453125 56.890625 51.90625 
Q 56.890625 45.015625 53.6875 40.46875 
Q 50.484375 35.9375 44.390625 34.1875 
z
M 19.671875 64.796875 
L 19.671875 38.921875 
L 32.078125 38.921875 
Q 39.203125 38.921875 42.84375 42.21875 
Q 46.484375 45.515625 46.484375 51.90625 
Q 46.484375 58.296875 42.84375 61.546875 
Q 39.203125 64.796875 32.078125 64.796875 
z
" id="DejaVuSans-82"/>
      <path d="M 9.8125 72.90625 
L 55.90625 72.90625 
L 55.90625 64.59375 
L 19.671875 64.59375 
L 19.671875 43.015625 
L 54.390625 43.015625 
L 54.390625 34.71875 
L 19.671875 34.71875 
L 19.671875 8.296875 
L 56.78125 8.296875 
L 56.78125 0 
L 9.8125 0 
z
" id="DejaVuSans-69"/>
      <path d="M 19.671875 64.796875 
L 19.671875 8.109375 
L 31.59375 8.109375 
Q 46.6875 8.109375 53.6875 14.9375 
Q 60.6875 21.78125 60.6875 36.53125 
Q 60.6875 51.171875 53.6875 57.984375 
Q 46.6875 64.796875 31.59375 64.796875 
z
M 9.8125 72.90625 
L 30.078125 72.90625 
Q 51.265625 72.90625 61.171875 64.09375 
Q 71.09375 55.28125 71.09375 36.53125 
Q 71.09375 17.671875 61.125 8.828125 
Q 51.171875 0 30.078125 0 
L 9.8125 0 
z
" id="DejaVuSans-68"/>
     </defs>
     <g transform="translate(106.145033 559.194687)scale(0.1 -0.1)">
      <use xlink:href="#DejaVuSans-80"/>
      <use x="60.287109" xlink:href="#DejaVuSans-114"/>
      <use x="101.400391" xlink:href="#DejaVuSans-40"/>
      <use x="140.414062" xlink:href="#DejaVuSans-115"/>
      <use x="192.513672" xlink:href="#DejaVuSans-111"/>
      <use x="253.695312" xlink:href="#DejaVuSans-109"/>
      <use x="351.107422" xlink:href="#DejaVuSans-97"/>
      <use x="412.386719" xlink:href="#DejaVuSans-116"/>
      <use x="451.595703" xlink:href="#DejaVuSans-105"/>
      <use x="479.378906" xlink:href="#DejaVuSans-99"/>
      <use x="534.359375" xlink:href="#DejaVuSans-41"/>
      <use x="573.373047" xlink:href="#DejaVuSans-32"/>
      <use x="605.160156" xlink:href="#DejaVuSans-40"/>
      <use x="644.173828" xlink:href="#DejaVuSans-80"/>
      <use x="704.476562" xlink:href="#DejaVuSans-72"/>
      <use x="779.671875" xlink:href="#DejaVuSans-82"/>
      <use x="849.154297" xlink:href="#DejaVuSans-69"/>
      <use x="912.337891" xlink:href="#DejaVuSans-68"/>
      <use x="989.339844" xlink:href="#DejaVuSans-41"/>
     </g>
    </g>
   </g>
   <g id="matplotlib.axis_6">
    <g id="ytick_12">
     <g id="line2d_57">
      <g>
       <use style="stroke:#000000;stroke-width:0.8;" x="43.78125" xlink:href="#m646efd847b" y="530.918125"/>
      </g>
     </g>
     <g id="text_34">
      <!-- 0.0 -->
      <g transform="translate(20.878125 534.717344)scale(0.1 -0.1)">
       <use xlink:href="#DejaVuSans-48"/>
       <use x="63.623047" xlink:href="#DejaVuSans-46"/>
       <use x="95.410156" xlink:href="#DejaVuSans-48"/>
      </g>
     </g>
    </g>
    <g id="ytick_13">
     <g id="line2d_58">
      <g>
       <use style="stroke:#000000;stroke-width:0.8;" x="43.78125" xlink:href="#m646efd847b" y="488.467555"/>
      </g>
     </g>
     <g id="text_35">
      <!-- 0.5 -->
      <g transform="translate(20.878125 492.266774)scale(0.1 -0.1)">
       <use xlink:href="#DejaVuSans-48"/>
       <use x="63.623047" xlink:href="#DejaVuSans-46"/>
       <use x="95.410156" xlink:href="#DejaVuSans-53"/>
      </g>
     </g>
    </g>
    <g id="ytick_14">
     <g id="line2d_59">
      <g>
       <use style="stroke:#000000;stroke-width:0.8;" x="43.78125" xlink:href="#m646efd847b" y="446.016986"/>
      </g>
     </g>
     <g id="text_36">
      <!-- 1.0 -->
      <g transform="translate(20.878125 449.816205)scale(0.1 -0.1)">
       <use xlink:href="#DejaVuSans-49"/>
       <use x="63.623047" xlink:href="#DejaVuSans-46"/>
       <use x="95.410156" xlink:href="#DejaVuSans-48"/>
      </g>
     </g>
    </g>
    <g id="ytick_15">
     <g id="line2d_60">
      <g>
       <use style="stroke:#000000;stroke-width:0.8;" x="43.78125" xlink:href="#m646efd847b" y="403.566416"/>
      </g>
     </g>
     <g id="text_37">
      <!-- 1.5 -->
      <g transform="translate(20.878125 407.365635)scale(0.1 -0.1)">
       <use xlink:href="#DejaVuSans-49"/>
       <use x="63.623047" xlink:href="#DejaVuSans-46"/>
       <use x="95.410156" xlink:href="#DejaVuSans-53"/>
      </g>
     </g>
    </g>
    <g id="ytick_16">
     <g id="line2d_61">
      <g>
       <use style="stroke:#000000;stroke-width:0.8;" x="43.78125" xlink:href="#m646efd847b" y="361.115847"/>
      </g>
     </g>
     <g id="text_38">
      <!-- 2.0 -->
      <g transform="translate(20.878125 364.915065)scale(0.1 -0.1)">
       <use xlink:href="#DejaVuSans-50"/>
       <use x="63.623047" xlink:href="#DejaVuSans-46"/>
       <use x="95.410156" xlink:href="#DejaVuSans-48"/>
      </g>
     </g>
    </g>
    <g id="ytick_17">
     <g id="line2d_62">
      <g>
       <use style="stroke:#000000;stroke-width:0.8;" x="43.78125" xlink:href="#m646efd847b" y="318.665277"/>
      </g>
     </g>
     <g id="text_39">
      <!-- 2.5 -->
      <g transform="translate(20.878125 322.464496)scale(0.1 -0.1)">
       <use xlink:href="#DejaVuSans-50"/>
       <use x="63.623047" xlink:href="#DejaVuSans-46"/>
       <use x="95.410156" xlink:href="#DejaVuSans-53"/>
      </g>
     </g>
    </g>
    <g id="text_40">
     <!-- density -->
     <g transform="translate(14.798438 432.730937)rotate(-90)scale(0.1 -0.1)">
      <use xlink:href="#DejaVuSans-100"/>
      <use x="63.476562" xlink:href="#DejaVuSans-101"/>
      <use x="125" xlink:href="#DejaVuSans-110"/>
      <use x="188.378906" xlink:href="#DejaVuSans-115"/>
      <use x="240.478516" xlink:href="#DejaVuSans-105"/>
      <use x="268.261719" xlink:href="#DejaVuSans-116"/>
      <use x="307.470703" xlink:href="#DejaVuSans-121"/>
     </g>
    </g>
   </g>
   <g id="line2d_63">
    <path clip-path="url(#p93e53fb07a)" d="M 54.47472 530.260259 
L 55.104506 529.936219 
L 55.734293 529.33885 
L 56.364079 528.361007 
L 56.993865 526.858417 
L 57.623652 524.654247 
L 58.253438 521.551464 
L 58.883224 517.354816 
L 59.513011 511.902614 
L 60.45769 501.205683 
L 61.40237 487.72706 
L 64.236408 444.248744 
L 64.866195 437.908858 
L 65.495981 433.968221 
L 65.810874 432.975352 
L 66.125767 432.642969 
L 66.44066 432.956712 
L 66.755554 433.886122 
L 67.38534 437.398619 
L 68.015126 442.682256 
L 69.274699 456.091131 
L 70.849165 472.507131 
L 71.793844 480.353315 
L 72.738524 486.687809 
L 74.31299 495.454938 
L 77.147028 510.048219 
L 78.091708 513.837094 
L 78.721494 515.684383 
L 79.35128 516.896409 
L 79.981067 517.464538 
L 80.29596 517.523415 
L 80.610853 517.449225 
L 81.240639 516.974574 
L 82.185319 515.787546 
L 83.129998 514.63068 
L 83.759785 514.183206 
L 84.074678 514.10901 
L 84.389571 514.149339 
L 85.019357 514.593097 
L 85.649144 515.512139 
L 86.27893 516.844154 
L 87.538503 520.294067 
L 89.112969 524.744997 
L 90.057648 526.895335 
L 91.002328 528.486164 
L 91.947007 529.53969 
L 92.891687 530.143735 
L 93.836366 530.379708 
L 94.466152 530.343235 
L 94.466152 530.343235 
" style="fill:none;stroke:#1f77b4;stroke-linecap:square;stroke-width:1.5;"/>
   </g>
   <g id="line2d_64">
    <path clip-path="url(#p93e53fb07a)" d="M 199.728238 530.62298 
L 200.61902 530.463081 
L 201.509802 529.987756 
L 202.400583 529.073427 
L 203.291365 527.583743 
L 204.182147 525.472533 
L 206.854492 518.114843 
L 207.299883 517.425232 
L 207.745274 517.059581 
L 208.190665 517.045497 
L 208.636056 517.384058 
L 209.081447 518.049676 
L 209.972229 520.148359 
L 212.199183 526.518765 
L 213.089965 528.349788 
L 213.980747 529.565367 
L 214.871528 530.275301 
L 215.76231 530.642534 
L 217.098483 530.854341 
L 219.770828 530.916419 
L 226.897083 530.838216 
L 227.787864 530.693605 
L 228.678646 530.346266 
L 229.569428 529.596406 
L 230.014819 528.979833 
L 230.46021 528.142356 
L 230.905601 527.035423 
L 231.796382 523.830774 
L 232.687164 519.097429 
L 233.577946 512.839577 
L 235.35951 497.643117 
L 236.695682 486.995318 
L 237.586464 481.350898 
L 240.258809 466.563889 
L 241.149591 458.866604 
L 242.485764 443.699894 
L 243.376546 433.590893 
L 243.821937 429.553205 
L 244.267328 426.676328 
L 244.712718 425.261987 
L 245.158109 425.5214 
L 245.6035 427.551685 
L 246.048891 431.326039 
L 246.494282 436.698556 
L 247.385064 451.17674 
L 250.057409 500.173073 
L 250.948191 511.681512 
L 251.838973 519.770855 
L 252.729755 524.944851 
L 253.620536 527.962881 
L 254.065927 528.900083 
L 254.511318 529.564342 
L 255.4021 530.322182 
L 256.292882 530.601602 
L 256.292882 530.601602 
" style="fill:none;stroke:#1f77b4;stroke-dasharray:1.5,2.475;stroke-dashoffset:0;stroke-width:1.5;"/>
   </g>
   <g id="line2d_65">
    <path clip-path="url(#p93e53fb07a)" d="M 59.424306 530.623336 
L 60.871135 524.608519 
L 62.317964 464.049003 
L 63.764793 312.043322 
L 65.211622 308.975268 
L 66.658451 419.556551 
L 68.10528 464.785571 
L 69.552109 489.771041 
L 70.998938 495.666829 
L 72.445767 504.75561 
L 73.892596 512.634976 
L 75.339425 515.375352 
L 78.233083 528.381689 
L 79.679912 530.602 
L 81.126742 530.847918 
L 82.573571 529.451061 
L 84.0204 525.850025 
L 86.914058 530.411899 
L 88.360887 530.897387 
L 98.48869 530.918125 
L 104.276006 530.893626 
L 105.722835 530.31083 
L 107.169664 527.816132 
L 108.616493 526.077047 
L 110.063322 529.554745 
L 111.510151 530.860453 
L 115.850638 530.918125 
L 182.404774 530.916561 
L 235.937448 530.918125 
L 237.384277 530.199721 
L 238.831106 527.67322 
L 240.277935 526.217548 
L 241.724764 529.669128 
L 243.171593 530.845237 
L 243.171593 530.845237 
" style="fill:none;stroke:#ff7f0e;stroke-linecap:square;stroke-width:1.5;"/>
   </g>
   <g id="line2d_66">
    <path clip-path="url(#p93e53fb07a)" d="M 55.881657 530.870035 
L 57.487953 530.662723 
L 59.09425 529.932772 
L 60.700547 528.248742 
L 62.306844 525.841321 
L 63.913141 524.113423 
L 65.519438 524.426551 
L 67.125735 526.441364 
L 68.732032 528.647392 
L 70.338329 530.059417 
L 71.944626 530.674588 
L 73.550923 530.866462 
L 78.369813 530.918046 
L 195.629489 530.87388 
L 198.842082 530.547356 
L 200.448379 530.308186 
L 202.054676 530.237111 
L 208.479864 530.862047 
L 210.086161 530.775878 
L 211.692458 530.538403 
L 213.298755 530.141961 
L 214.905052 529.589058 
L 216.511349 528.767256 
L 218.117645 527.539385 
L 219.723942 525.89637 
L 221.330239 523.722107 
L 222.936536 520.692885 
L 224.542833 516.597522 
L 227.755427 506.652111 
L 229.361724 501.24083 
L 230.968021 494.498757 
L 234.180615 477.435736 
L 235.786912 470.198122 
L 237.393208 466.071497 
L 238.999505 465.318333 
L 240.605802 467.106208 
L 242.212099 470.991004 
L 243.818396 477.518855 
L 245.424693 486.683077 
L 248.637287 507.160148 
L 250.243584 516.155979 
L 251.849881 523.097962 
L 253.456178 527.466455 
L 255.062475 529.668654 
L 256.668772 530.556167 
L 258.275068 530.836498 
L 259.881365 530.898603 
L 259.881365 530.898603 
" style="fill:none;stroke:#ff7f0e;stroke-dasharray:1.5,2.475;stroke-dashoffset:0;stroke-width:1.5;"/>
   </g>
   <g id="line2d_67">
    <path clip-path="url(#p93e53fb07a)" d="M 54.124975 530.481531 
L 54.745849 530.243108 
L 55.366724 529.779127 
L 55.987599 528.987197 
L 56.608473 527.723164 
L 57.229348 525.80238 
L 57.850222 523.008883 
L 58.471097 519.115216 
L 59.091972 513.914048 
L 60.023284 503.371147 
L 60.954596 489.598892 
L 62.81722 456.686434 
L 63.748532 441.734513 
L 64.369406 434.025213 
L 64.990281 428.851802 
L 65.300718 427.347137 
L 65.611156 426.599822 
L 65.921593 426.613255 
L 66.23203 427.371416 
L 66.542468 428.839278 
L 67.163342 433.676524 
L 68.094654 444.467737 
L 70.267716 472.566656 
L 71.199027 480.956679 
L 71.819902 484.834475 
L 72.440777 487.588549 
L 73.372089 490.471652 
L 74.613838 494.175936 
L 75.54515 498.079581 
L 76.476462 503.096295 
L 78.339086 513.757141 
L 79.270398 517.678042 
L 79.891273 519.389554 
L 80.512147 520.360556 
L 80.822585 520.59308 
L 81.133022 520.680158 
L 81.753897 520.509928 
L 82.685209 519.790332 
L 83.616521 519.145827 
L 84.237395 519.040531 
L 84.85827 519.307295 
L 85.479144 519.9648 
L 86.100019 520.96819 
L 87.341768 523.6187 
L 88.893955 526.959997 
L 89.825267 528.486878 
L 90.756579 529.548345 
L 91.687891 530.193157 
L 92.619203 530.506203 
L 93.550515 530.537561 
L 93.550515 530.537561 
" style="fill:none;stroke:#2ca02c;stroke-linecap:square;stroke-width:1.5;"/>
   </g>
   <g id="line2d_68">
    <path clip-path="url(#p93e53fb07a)" d="M 212.234275 530.870239 
L 214.154165 530.716972 
L 215.306098 530.420145 
L 216.458032 529.841067 
L 217.609965 528.886667 
L 218.761899 527.556665 
L 224.137589 520.338316 
L 224.905545 518.886133 
L 225.673501 516.965494 
L 226.441457 514.470529 
L 227.59339 509.630534 
L 229.51328 499.835828 
L 230.665213 494.281398 
L 231.817147 489.79494 
L 232.969081 486.415448 
L 234.504992 482.873858 
L 236.80886 478.167528 
L 237.960793 476.262702 
L 239.496705 474.238675 
L 241.416594 471.684562 
L 242.568528 470.190537 
L 243.336484 469.574686 
L 243.720461 469.480244 
L 244.104439 469.572398 
L 244.488417 469.880841 
L 244.872395 470.430766 
L 245.256373 471.241853 
L 246.024329 473.694771 
L 246.792285 477.266603 
L 247.56024 481.874604 
L 248.712174 490.29117 
L 251.783997 513.942107 
L 252.935931 520.426671 
L 253.703886 523.667705 
L 254.471842 526.101175 
L 255.239798 527.843495 
L 256.007754 529.034531 
L 256.77571 529.812214 
L 257.543665 530.29693 
L 258.695599 530.677793 
L 260.23151 530.853515 
L 260.999466 530.87236 
L 260.999466 530.87236 
" style="fill:none;stroke:#2ca02c;stroke-dasharray:1.5,2.475;stroke-dashoffset:0;stroke-width:1.5;"/>
   </g>
   <g id="line2d_69">
    <path clip-path="url(#p93e53fb07a)" d="M 0 0 
" style="fill:none;stroke:#d62728;stroke-linecap:square;stroke-width:1.5;"/>
   </g>
   <g id="patch_10">
    <path d="M 43.78125 530.918125 
L 43.78125 297.878125 
" style="fill:none;stroke:#000000;stroke-linecap:square;stroke-linejoin:miter;stroke-width:0.8;"/>
   </g>
   <g id="patch_11">
    <path d="M 43.78125 530.918125 
L 271.343191 530.918125 
" style="fill:none;stroke:#000000;stroke-linecap:square;stroke-linejoin:miter;stroke-width:0.8;"/>
   </g>
   <g id="text_41">
    <!-- 50 - 70 -->
    <g transform="translate(136.313783 291.878125)scale(0.12 -0.12)">
     <use xlink:href="#DejaVuSans-53"/>
     <use x="63.623047" xlink:href="#DejaVuSans-48"/>
     <use x="127.246094" xlink:href="#DejaVuSans-32"/>
     <use x="159.033203" xlink:href="#DejaVuSans-45"/>
     <use x="195.117188" xlink:href="#DejaVuSans-32"/>
     <use x="226.904297" xlink:href="#DejaVuSans-55"/>
     <use x="290.527344" xlink:href="#DejaVuSans-48"/>
    </g>
   </g>
  </g>
  <g id="axes_4">
   <g id="patch_12">
    <path d="M 319.997235 530.918125 
L 547.559176 530.918125 
L 547.559176 297.878125 
L 319.997235 297.878125 
z
" style="fill:#ffffff;"/>
   </g>
   <g id="matplotlib.axis_7">
    <g id="xtick_22">
     <g id="line2d_70">
      <g>
       <use style="stroke:#000000;stroke-width:0.8;" x="353.968688" xlink:href="#m43ce651f4d" y="530.918125"/>
      </g>
     </g>
     <g id="text_42">
      <!-- 1 -->
      <g transform="translate(350.787438 545.516562)scale(0.1 -0.1)">
       <use xlink:href="#DejaVuSans-49"/>
      </g>
     </g>
    </g>
    <g id="xtick_23">
     <g id="line2d_71">
      <g>
       <use style="stroke:#000000;stroke-width:0.8;" x="391.860514" xlink:href="#m43ce651f4d" y="530.918125"/>
      </g>
     </g>
     <g id="text_43">
      <!-- 1e+02 -->
      <g transform="translate(375.050357 545.516562)scale(0.1 -0.1)">
       <use xlink:href="#DejaVuSans-49"/>
       <use x="63.623047" xlink:href="#DejaVuSans-101"/>
       <use x="125.146484" xlink:href="#DejaVuSans-43"/>
       <use x="208.935547" xlink:href="#DejaVuSans-48"/>
       <use x="272.558594" xlink:href="#DejaVuSans-50"/>
      </g>
     </g>
    </g>
    <g id="xtick_24">
     <g id="line2d_72">
      <g>
       <use style="stroke:#000000;stroke-width:0.8;" x="429.752339" xlink:href="#m43ce651f4d" y="530.918125"/>
      </g>
     </g>
     <g id="text_44">
      <!-- 2e+04 -->
      <g transform="translate(412.942183 545.516562)scale(0.1 -0.1)">
       <use xlink:href="#DejaVuSans-50"/>
       <use x="63.623047" xlink:href="#DejaVuSans-101"/>
       <use x="125.146484" xlink:href="#DejaVuSans-43"/>
       <use x="208.935547" xlink:href="#DejaVuSans-48"/>
       <use x="272.558594" xlink:href="#DejaVuSans-52"/>
      </g>
     </g>
    </g>
    <g id="xtick_25">
     <g id="line2d_73">
      <g>
       <use style="stroke:#000000;stroke-width:0.8;" x="467.644164" xlink:href="#m43ce651f4d" y="530.918125"/>
      </g>
     </g>
     <g id="text_45">
      <!-- 3e+06 -->
      <g transform="translate(450.834008 545.516562)scale(0.1 -0.1)">
       <use xlink:href="#DejaVuSans-51"/>
       <use x="63.623047" xlink:href="#DejaVuSans-101"/>
       <use x="125.146484" xlink:href="#DejaVuSans-43"/>
       <use x="208.935547" xlink:href="#DejaVuSans-48"/>
       <use x="272.558594" xlink:href="#DejaVuSans-54"/>
      </g>
     </g>
    </g>
    <g id="xtick_26">
     <g id="line2d_74">
      <g>
       <use style="stroke:#000000;stroke-width:0.8;" x="505.53599" xlink:href="#m43ce651f4d" y="530.918125"/>
      </g>
     </g>
    </g>
    <g id="xtick_27">
     <g id="line2d_75">
      <g>
       <use style="stroke:#000000;stroke-width:0.8;" x="543.427815" xlink:href="#m43ce651f4d" y="530.918125"/>
      </g>
     </g>
    </g>
    <g id="text_46">
     <!-- Pr(somatic) (PHRED) -->
     <g transform="translate(382.361018 559.194687)scale(0.1 -0.1)">
      <use xlink:href="#DejaVuSans-80"/>
      <use x="60.287109" xlink:href="#DejaVuSans-114"/>
      <use x="101.400391" xlink:href="#DejaVuSans-40"/>
      <use x="140.414062" xlink:href="#DejaVuSans-115"/>
      <use x="192.513672" xlink:href="#DejaVuSans-111"/>
      <use x="253.695312" xlink:href="#DejaVuSans-109"/>
      <use x="351.107422" xlink:href="#DejaVuSans-97"/>
      <use x="412.386719" xlink:href="#DejaVuSans-116"/>
      <use x="451.595703" xlink:href="#DejaVuSans-105"/>
      <use x="479.378906" xlink:href="#DejaVuSans-99"/>
      <use x="534.359375" xlink:href="#DejaVuSans-41"/>
      <use x="573.373047" xlink:href="#DejaVuSans-32"/>
      <use x="605.160156" xlink:href="#DejaVuSans-40"/>
      <use x="644.173828" xlink:href="#DejaVuSans-80"/>
      <use x="704.476562" xlink:href="#DejaVuSans-72"/>
      <use x="779.671875" xlink:href="#DejaVuSans-82"/>
      <use x="849.154297" xlink:href="#DejaVuSans-69"/>
      <use x="912.337891" xlink:href="#DejaVuSans-68"/>
      <use x="989.339844" xlink:href="#DejaVuSans-41"/>
     </g>
    </g>
   </g>
   <g id="matplotlib.axis_8">
    <g id="ytick_18">
     <g id="line2d_76">
      <g>
       <use style="stroke:#000000;stroke-width:0.8;" x="319.997235" xlink:href="#m646efd847b" y="530.918125"/>
      </g>
     </g>
     <g id="text_47">
      <!-- 0.0 -->
      <g transform="translate(297.09411 534.717344)scale(0.1 -0.1)">
       <use xlink:href="#DejaVuSans-48"/>
       <use x="63.623047" xlink:href="#DejaVuSans-46"/>
       <use x="95.410156" xlink:href="#DejaVuSans-48"/>
      </g>
     </g>
    </g>
    <g id="ytick_19">
     <g id="line2d_77">
      <g>
       <use style="stroke:#000000;stroke-width:0.8;" x="319.997235" xlink:href="#m646efd847b" y="500.691138"/>
      </g>
     </g>
     <g id="text_48">
      <!-- 0.5 -->
      <g transform="translate(297.09411 504.490357)scale(0.1 -0.1)">
       <use xlink:href="#DejaVuSans-48"/>
       <use x="63.623047" xlink:href="#DejaVuSans-46"/>
       <use x="95.410156" xlink:href="#DejaVuSans-53"/>
      </g>
     </g>
    </g>
    <g id="ytick_20">
     <g id="line2d_78">
      <g>
       <use style="stroke:#000000;stroke-width:0.8;" x="319.997235" xlink:href="#m646efd847b" y="470.464151"/>
      </g>
     </g>
     <g id="text_49">
      <!-- 1.0 -->
      <g transform="translate(297.09411 474.263369)scale(0.1 -0.1)">
       <use xlink:href="#DejaVuSans-49"/>
       <use x="63.623047" xlink:href="#DejaVuSans-46"/>
       <use x="95.410156" xlink:href="#DejaVuSans-48"/>
      </g>
     </g>
    </g>
    <g id="ytick_21">
     <g id="line2d_79">
      <g>
       <use style="stroke:#000000;stroke-width:0.8;" x="319.997235" xlink:href="#m646efd847b" y="440.237163"/>
      </g>
     </g>
     <g id="text_50">
      <!-- 1.5 -->
      <g transform="translate(297.09411 444.036382)scale(0.1 -0.1)">
       <use xlink:href="#DejaVuSans-49"/>
       <use x="63.623047" xlink:href="#DejaVuSans-46"/>
       <use x="95.410156" xlink:href="#DejaVuSans-53"/>
      </g>
     </g>
    </g>
    <g id="ytick_22">
     <g id="line2d_80">
      <g>
       <use style="stroke:#000000;stroke-width:0.8;" x="319.997235" xlink:href="#m646efd847b" y="410.010176"/>
      </g>
     </g>
     <g id="text_51">
      <!-- 2.0 -->
      <g transform="translate(297.09411 413.809395)scale(0.1 -0.1)">
       <use xlink:href="#DejaVuSans-50"/>
       <use x="63.623047" xlink:href="#DejaVuSans-46"/>
       <use x="95.410156" xlink:href="#DejaVuSans-48"/>
      </g>
     </g>
    </g>
    <g id="ytick_23">
     <g id="line2d_81">
      <g>
       <use style="stroke:#000000;stroke-width:0.8;" x="319.997235" xlink:href="#m646efd847b" y="379.783189"/>
      </g>
     </g>
     <g id="text_52">
      <!-- 2.5 -->
      <g transform="translate(297.09411 383.582408)scale(0.1 -0.1)">
       <use xlink:href="#DejaVuSans-50"/>
       <use x="63.623047" xlink:href="#DejaVuSans-46"/>
       <use x="95.410156" xlink:href="#DejaVuSans-53"/>
      </g>
     </g>
    </g>
    <g id="ytick_24">
     <g id="line2d_82">
      <g>
       <use style="stroke:#000000;stroke-width:0.8;" x="319.997235" xlink:href="#m646efd847b" y="349.556202"/>
      </g>
     </g>
     <g id="text_53">
      <!-- 3.0 -->
      <g transform="translate(297.09411 353.35542)scale(0.1 -0.1)">
       <use xlink:href="#DejaVuSans-51"/>
       <use x="63.623047" xlink:href="#DejaVuSans-46"/>
       <use x="95.410156" xlink:href="#DejaVuSans-48"/>
      </g>
     </g>
    </g>
    <g id="ytick_25">
     <g id="line2d_83">
      <g>
       <use style="stroke:#000000;stroke-width:0.8;" x="319.997235" xlink:href="#m646efd847b" y="319.329214"/>
      </g>
     </g>
     <g id="text_54">
      <!-- 3.5 -->
      <g transform="translate(297.09411 323.128433)scale(0.1 -0.1)">
       <use xlink:href="#DejaVuSans-51"/>
       <use x="63.623047" xlink:href="#DejaVuSans-46"/>
       <use x="95.410156" xlink:href="#DejaVuSans-53"/>
      </g>
     </g>
    </g>
   </g>
   <g id="line2d_84">
    <path clip-path="url(#p7cf65c7e11)" d="M 330.34096 530.059329 
L 330.665509 528.811215 
L 330.990058 525.692101 
L 331.314608 519.10906 
L 331.639157 506.892614 
L 331.963706 486.890439 
L 332.45053 440.681645 
L 333.586452 320.475376 
L 333.911002 308.975268 
L 334.073276 308.983856 
L 334.235551 312.521634 
L 334.5601 328.14415 
L 336.507396 454.489297 
L 336.99422 470.099075 
L 337.318769 476.139509 
L 337.643318 479.213458 
L 337.967868 480.442403 
L 338.292417 481.4118 
L 338.616966 483.720581 
L 338.941515 488.385525 
L 339.428339 499.540196 
L 340.239712 519.287715 
L 340.726536 526.270684 
L 341.051086 528.725678 
L 341.375635 529.994749 
L 341.700184 530.571241 
L 342.187008 530.85374 
L 342.998381 530.915934 
L 344.945677 530.853179 
L 345.432501 530.602048 
L 345.75705 530.13352 
L 346.081599 529.184852 
L 346.406148 527.510619 
L 346.892972 523.370252 
L 347.86662 514.064958 
L 348.028895 513.520237 
L 348.191169 513.47416 
L 348.353444 513.930717 
L 348.677993 516.158045 
L 349.97619 528.290809 
L 350.30074 529.614425 
L 350.625289 530.244124 
L 350.787563 530.340332 
L 350.949838 530.288108 
L 350.949838 530.288108 
" style="fill:none;stroke:#ff7f0e;stroke-linecap:square;stroke-width:1.5;"/>
   </g>
   <g id="line2d_85">
    <path clip-path="url(#p7cf65c7e11)" d="M 331.031271 530.900253 
L 332.621882 530.838383 
L 334.212493 530.642989 
L 337.393715 529.886117 
L 338.984326 529.807599 
L 343.75616 530.795267 
L 346.937382 530.914445 
L 401.018161 530.918124 
L 478.958107 530.889917 
L 480.548718 530.786294 
L 482.139329 530.510596 
L 483.729941 530.08397 
L 485.320552 529.778053 
L 488.501774 529.980183 
L 490.092385 529.671612 
L 491.682996 528.568564 
L 496.45483 523.738527 
L 498.045441 521.64667 
L 499.636052 518.989302 
L 501.226663 515.33403 
L 502.817274 508.771972 
L 504.407886 498.150311 
L 505.998497 485.558278 
L 507.589108 475.600292 
L 509.179719 472.404029 
L 510.77033 476.533262 
L 513.951552 492.371636 
L 515.542164 497.008551 
L 517.132775 499.661066 
L 518.723386 502.790712 
L 520.313997 507.606442 
L 523.495219 519.585366 
L 525.08583 524.461458 
L 526.676442 527.786982 
L 528.267053 529.661789 
L 529.857664 530.516088 
L 531.448275 530.819693 
L 533.038886 530.898484 
L 533.038886 530.898484 
" style="fill:none;stroke:#ff7f0e;stroke-dasharray:1.5,2.475;stroke-dashoffset:0;stroke-width:1.5;"/>
   </g>
   <g id="line2d_86">
    <path clip-path="url(#p7cf65c7e11)" d="M 0 0 
" style="fill:none;stroke:#2ca02c;stroke-linecap:square;stroke-width:1.5;"/>
   </g>
   <g id="line2d_87">
    <path clip-path="url(#p7cf65c7e11)" d="M 486.299623 530.839846 
L 488.304183 530.71302 
L 489.506919 530.471147 
L 490.709655 530.022885 
L 491.912391 529.290101 
L 493.115128 528.218074 
L 494.317864 526.800411 
L 495.921512 524.452524 
L 497.52516 521.714651 
L 499.128808 518.620067 
L 500.732456 515.018466 
L 502.336104 510.69857 
L 503.939752 505.638938 
L 506.746137 496.461916 
L 507.948873 493.426946 
L 508.750697 492.006168 
L 509.552521 491.13798 
L 510.354345 490.809426 
L 511.156169 490.938531 
L 511.957993 491.389472 
L 515.165289 493.628918 
L 517.16985 494.62147 
L 517.971674 495.233193 
L 518.773498 496.107559 
L 519.575322 497.295046 
L 520.377146 498.806557 
L 521.579882 501.626922 
L 523.18353 506.170255 
L 526.390826 516.378665 
L 527.994475 521.17647 
L 529.197211 524.247315 
L 530.399947 526.692546 
L 531.201771 527.945891 
L 532.003595 528.910312 
L 532.805419 529.617755 
L 533.607243 530.111593 
L 534.809979 530.554148 
L 536.413627 530.798946 
L 537.215451 530.83606 
L 537.215451 530.83606 
" style="fill:none;stroke:#2ca02c;stroke-dasharray:1.5,2.475;stroke-dashoffset:0;stroke-width:1.5;"/>
   </g>
   <g id="patch_13">
    <path d="M 319.997235 530.918125 
L 319.997235 297.878125 
" style="fill:none;stroke:#000000;stroke-linecap:square;stroke-linejoin:miter;stroke-width:0.8;"/>
   </g>
   <g id="patch_14">
    <path d="M 319.997235 530.918125 
L 547.559176 530.918125 
" style="fill:none;stroke:#000000;stroke-linecap:square;stroke-linejoin:miter;stroke-width:0.8;"/>
   </g>
   <g id="text_55">
    <!-- 70 - 100 -->
    <g transform="translate(408.712268 291.878125)scale(0.12 -0.12)">
     <use xlink:href="#DejaVuSans-55"/>
     <use x="63.623047" xlink:href="#DejaVuSans-48"/>
     <use x="127.246094" xlink:href="#DejaVuSans-32"/>
     <use x="159.033203" xlink:href="#DejaVuSans-45"/>
     <use x="195.117188" xlink:href="#DejaVuSans-32"/>
     <use x="226.904297" xlink:href="#DejaVuSans-49"/>
     <use x="290.527344" xlink:href="#DejaVuSans-48"/>
     <use x="354.150391" xlink:href="#DejaVuSans-48"/>
    </g>
   </g>
  </g>
 </g>
 <defs>
  <clipPath id="pbcd6159201">
   <rect height="233.04" width="227.561941" x="43.78125" y="22.318125"/>
  </clipPath>
  <clipPath id="p19a5978241">
   <rect height="233.04" width="227.561941" x="319.997235" y="22.318125"/>
  </clipPath>
  <clipPath id="p93e53fb07a">
   <rect height="233.04" width="227.561941" x="43.78125" y="297.878125"/>
  </clipPath>
  <clipPath id="p7cf65c7e11">
   <rect height="233.04" width="227.561941" x="319.997235" y="297.878125"/>
  </clipPath>
 </defs>
</svg>
