<?xml version="1.0" encoding="utf-8" standalone="no"?>
<!DOCTYPE svg PUBLIC "-//W3C//DTD SVG 1.1//EN"
  "http://www.w3.org/Graphics/SVG/1.1/DTD/svg11.dtd">
<!-- Created with matplotlib (https://matplotlib.org/) -->
<svg height="280.474375pt" version="1.1" viewBox="0 0 579.324583 280.474375" width="579.324583pt" xmlns="http://www.w3.org/2000/svg" xmlns:xlink="http://www.w3.org/1999/xlink">
 <defs>
  <style type="text/css">
*{stroke-linecap:butt;stroke-linejoin:round;}
  </style>
 </defs>
 <g id="figure_1">
  <g id="patch_1">
   <path d="M 0 280.474375 
L 579.324583 280.474375 
L 579.324583 0 
L 0 0 
z
" style="fill:#ffffff;"/>
  </g>
  <g id="axes_1">
   <g id="patch_2">
    <path d="M 43.78125 242.918125 
L 288.077917 242.918125 
L 288.077917 22.318125 
L 43.78125 22.318125 
z
" style="fill:#ffffff;"/>
   </g>
   <g id="matplotlib.axis_1">
    <g id="xtick_1">
     <g id="line2d_1">
      <defs>
       <path d="M 0 0 
L 0 3.5 
" id="m41e52e3f55" style="stroke:#000000;stroke-width:0.8;"/>
      </defs>
      <g>
       <use style="stroke:#000000;stroke-width:0.8;" x="67.538648" xlink:href="#m41e52e3f55" y="242.918125"/>
      </g>
     </g>
     <g id="text_1">
      <!-- 0.007 -->
      <defs>
       <path d="M 31.78125 66.40625 
Q 24.171875 66.40625 20.328125 58.90625 
Q 16.5 51.421875 16.5 36.375 
Q 16.5 21.390625 20.328125 13.890625 
Q 24.171875 6.390625 31.78125 6.390625 
Q 39.453125 6.390625 43.28125 13.890625 
Q 47.125 21.390625 47.125 36.375 
Q 47.125 51.421875 43.28125 58.90625 
Q 39.453125 66.40625 31.78125 66.40625 
z
M 31.78125 74.21875 
Q 44.046875 74.21875 50.515625 64.515625 
Q 56.984375 54.828125 56.984375 36.375 
Q 56.984375 17.96875 50.515625 8.265625 
Q 44.046875 -1.421875 31.78125 -1.421875 
Q 19.53125 -1.421875 13.0625 8.265625 
Q 6.59375 17.96875 6.59375 36.375 
Q 6.59375 54.828125 13.0625 64.515625 
Q 19.53125 74.21875 31.78125 74.21875 
z
" id="DejaVuSans-48"/>
       <path d="M 10.6875 12.40625 
L 21 12.40625 
L 21 0 
L 10.6875 0 
z
" id="DejaVuSans-46"/>
       <path d="M 8.203125 72.90625 
L 55.078125 72.90625 
L 55.078125 68.703125 
L 28.609375 0 
L 18.3125 0 
L 43.21875 64.59375 
L 8.203125 64.59375 
z
" id="DejaVuSans-55"/>
      </defs>
      <g transform="translate(53.224586 257.516563)scale(0.1 -0.1)">
       <use xlink:href="#DejaVuSans-48"/>
       <use x="63.623047" xlink:href="#DejaVuSans-46"/>
       <use x="95.410156" xlink:href="#DejaVuSans-48"/>
       <use x="159.033203" xlink:href="#DejaVuSans-48"/>
       <use x="222.65625" xlink:href="#DejaVuSans-55"/>
      </g>
     </g>
    </g>
    <g id="xtick_2">
     <g id="line2d_2">
      <g>
       <use style="stroke:#000000;stroke-width:0.8;" x="99.175072" xlink:href="#m41e52e3f55" y="242.918125"/>
      </g>
     </g>
     <g id="text_2">
      <!-- 1 -->
      <defs>
       <path d="M 12.40625 8.296875 
L 28.515625 8.296875 
L 28.515625 63.921875 
L 10.984375 60.40625 
L 10.984375 69.390625 
L 28.421875 72.90625 
L 38.28125 72.90625 
L 38.28125 8.296875 
L 54.390625 8.296875 
L 54.390625 0 
L 12.40625 0 
z
" id="DejaVuSans-49"/>
      </defs>
      <g transform="translate(95.993822 257.516563)scale(0.1 -0.1)">
       <use xlink:href="#DejaVuSans-49"/>
      </g>
     </g>
    </g>
    <g id="xtick_3">
     <g id="line2d_3">
      <g>
       <use style="stroke:#000000;stroke-width:0.8;" x="130.811495" xlink:href="#m41e52e3f55" y="242.918125"/>
      </g>
     </g>
     <g id="text_3">
      <!-- 1e+02 -->
      <defs>
       <path d="M 56.203125 29.59375 
L 56.203125 25.203125 
L 14.890625 25.203125 
Q 15.484375 15.921875 20.484375 11.0625 
Q 25.484375 6.203125 34.421875 6.203125 
Q 39.59375 6.203125 44.453125 7.46875 
Q 49.3125 8.734375 54.109375 11.28125 
L 54.109375 2.78125 
Q 49.265625 0.734375 44.1875 -0.34375 
Q 39.109375 -1.421875 33.890625 -1.421875 
Q 20.796875 -1.421875 13.15625 6.1875 
Q 5.515625 13.8125 5.515625 26.8125 
Q 5.515625 40.234375 12.765625 48.109375 
Q 20.015625 56 32.328125 56 
Q 43.359375 56 49.78125 48.890625 
Q 56.203125 41.796875 56.203125 29.59375 
z
M 47.21875 32.234375 
Q 47.125 39.59375 43.09375 43.984375 
Q 39.0625 48.390625 32.421875 48.390625 
Q 24.90625 48.390625 20.390625 44.140625 
Q 15.875 39.890625 15.1875 32.171875 
z
" id="DejaVuSans-101"/>
       <path d="M 46 62.703125 
L 46 35.5 
L 73.1875 35.5 
L 73.1875 27.203125 
L 46 27.203125 
L 46 0 
L 37.796875 0 
L 37.796875 27.203125 
L 10.59375 27.203125 
L 10.59375 35.5 
L 37.796875 35.5 
L 37.796875 62.703125 
z
" id="DejaVuSans-43"/>
       <path d="M 19.1875 8.296875 
L 53.609375 8.296875 
L 53.609375 0 
L 7.328125 0 
L 7.328125 8.296875 
Q 12.9375 14.109375 22.625 23.890625 
Q 32.328125 33.6875 34.8125 36.53125 
Q 39.546875 41.84375 41.421875 45.53125 
Q 43.3125 49.21875 43.3125 52.78125 
Q 43.3125 58.59375 39.234375 62.25 
Q 35.15625 65.921875 28.609375 65.921875 
Q 23.96875 65.921875 18.8125 64.3125 
Q 13.671875 62.703125 7.8125 59.421875 
L 7.8125 69.390625 
Q 13.765625 71.78125 18.9375 73 
Q 24.125 74.21875 28.421875 74.21875 
Q 39.75 74.21875 46.484375 68.546875 
Q 53.21875 62.890625 53.21875 53.421875 
Q 53.21875 48.921875 51.53125 44.890625 
Q 49.859375 40.875 45.40625 35.40625 
Q 44.1875 33.984375 37.640625 27.21875 
Q 31.109375 20.453125 19.1875 8.296875 
z
" id="DejaVuSans-50"/>
      </defs>
      <g transform="translate(114.001339 257.516563)scale(0.1 -0.1)">
       <use xlink:href="#DejaVuSans-49"/>
       <use x="63.623047" xlink:href="#DejaVuSans-101"/>
       <use x="125.146484" xlink:href="#DejaVuSans-43"/>
       <use x="208.935547" xlink:href="#DejaVuSans-48"/>
       <use x="272.558594" xlink:href="#DejaVuSans-50"/>
      </g>
     </g>
    </g>
    <g id="xtick_4">
     <g id="line2d_4">
      <g>
       <use style="stroke:#000000;stroke-width:0.8;" x="162.447919" xlink:href="#m41e52e3f55" y="242.918125"/>
      </g>
     </g>
     <g id="text_4">
      <!-- 2e+04 -->
      <defs>
       <path d="M 37.796875 64.3125 
L 12.890625 25.390625 
L 37.796875 25.390625 
z
M 35.203125 72.90625 
L 47.609375 72.90625 
L 47.609375 25.390625 
L 58.015625 25.390625 
L 58.015625 17.1875 
L 47.609375 17.1875 
L 47.609375 0 
L 37.796875 0 
L 37.796875 17.1875 
L 4.890625 17.1875 
L 4.890625 26.703125 
z
" id="DejaVuSans-52"/>
      </defs>
      <g transform="translate(145.637763 257.516563)scale(0.1 -0.1)">
       <use xlink:href="#DejaVuSans-50"/>
       <use x="63.623047" xlink:href="#DejaVuSans-101"/>
       <use x="125.146484" xlink:href="#DejaVuSans-43"/>
       <use x="208.935547" xlink:href="#DejaVuSans-48"/>
       <use x="272.558594" xlink:href="#DejaVuSans-52"/>
      </g>
     </g>
    </g>
    <g id="xtick_5">
     <g id="line2d_5">
      <g>
       <use style="stroke:#000000;stroke-width:0.8;" x="194.084342" xlink:href="#m41e52e3f55" y="242.918125"/>
      </g>
     </g>
    </g>
    <g id="xtick_6">
     <g id="line2d_6">
      <g>
       <use style="stroke:#000000;stroke-width:0.8;" x="225.720766" xlink:href="#m41e52e3f55" y="242.918125"/>
      </g>
     </g>
    </g>
    <g id="xtick_7">
     <g id="line2d_7">
      <g>
       <use style="stroke:#000000;stroke-width:0.8;" x="257.35719" xlink:href="#m41e52e3f55" y="242.918125"/>
      </g>
     </g>
    </g>
    <g id="text_5">
     <!-- Pr(somatic) (PHRED) -->
     <defs>
      <path d="M 19.671875 64.796875 
L 19.671875 37.40625 
L 32.078125 37.40625 
Q 38.96875 37.40625 42.71875 40.96875 
Q 46.484375 44.53125 46.484375 51.125 
Q 46.484375 57.671875 42.71875 61.234375 
Q 38.96875 64.796875 32.078125 64.796875 
z
M 9.8125 72.90625 
L 32.078125 72.90625 
Q 44.34375 72.90625 50.609375 67.359375 
Q 56.890625 61.8125 56.890625 51.125 
Q 56.890625 40.328125 50.609375 34.8125 
Q 44.34375 29.296875 32.078125 29.296875 
L 19.671875 29.296875 
L 19.671875 0 
L 9.8125 0 
z
" id="DejaVuSans-80"/>
      <path d="M 41.109375 46.296875 
Q 39.59375 47.171875 37.8125 47.578125 
Q 36.03125 48 33.890625 48 
Q 26.265625 48 22.1875 43.046875 
Q 18.109375 38.09375 18.109375 28.8125 
L 18.109375 0 
L 9.078125 0 
L 9.078125 54.6875 
L 18.109375 54.6875 
L 18.109375 46.1875 
Q 20.953125 51.171875 25.484375 53.578125 
Q 30.03125 56 36.53125 56 
Q 37.453125 56 38.578125 55.875 
Q 39.703125 55.765625 41.0625 55.515625 
z
" id="DejaVuSans-114"/>
      <path d="M 31 75.875 
Q 24.46875 64.65625 21.28125 53.65625 
Q 18.109375 42.671875 18.109375 31.390625 
Q 18.109375 20.125 21.3125 9.0625 
Q 24.515625 -2 31 -13.1875 
L 23.1875 -13.1875 
Q 15.875 -1.703125 12.234375 9.375 
Q 8.59375 20.453125 8.59375 31.390625 
Q 8.59375 42.28125 12.203125 53.3125 
Q 15.828125 64.359375 23.1875 75.875 
z
" id="DejaVuSans-40"/>
      <path d="M 44.28125 53.078125 
L 44.28125 44.578125 
Q 40.484375 46.53125 36.375 47.5 
Q 32.28125 48.484375 27.875 48.484375 
Q 21.1875 48.484375 17.84375 46.4375 
Q 14.5 44.390625 14.5 40.28125 
Q 14.5 37.15625 16.890625 35.375 
Q 19.28125 33.59375 26.515625 31.984375 
L 29.59375 31.296875 
Q 39.15625 29.25 43.1875 25.515625 
Q 47.21875 21.78125 47.21875 15.09375 
Q 47.21875 7.46875 41.1875 3.015625 
Q 35.15625 -1.421875 24.609375 -1.421875 
Q 20.21875 -1.421875 15.453125 -0.5625 
Q 10.6875 0.296875 5.421875 2 
L 5.421875 11.28125 
Q 10.40625 8.6875 15.234375 7.390625 
Q 20.0625 6.109375 24.8125 6.109375 
Q 31.15625 6.109375 34.5625 8.28125 
Q 37.984375 10.453125 37.984375 14.40625 
Q 37.984375 18.0625 35.515625 20.015625 
Q 33.0625 21.96875 24.703125 23.78125 
L 21.578125 24.515625 
Q 13.234375 26.265625 9.515625 29.90625 
Q 5.8125 33.546875 5.8125 39.890625 
Q 5.8125 47.609375 11.28125 51.796875 
Q 16.75 56 26.8125 56 
Q 31.78125 56 36.171875 55.265625 
Q 40.578125 54.546875 44.28125 53.078125 
z
" id="DejaVuSans-115"/>
      <path d="M 30.609375 48.390625 
Q 23.390625 48.390625 19.1875 42.75 
Q 14.984375 37.109375 14.984375 27.296875 
Q 14.984375 17.484375 19.15625 11.84375 
Q 23.34375 6.203125 30.609375 6.203125 
Q 37.796875 6.203125 41.984375 11.859375 
Q 46.1875 17.53125 46.1875 27.296875 
Q 46.1875 37.015625 41.984375 42.703125 
Q 37.796875 48.390625 30.609375 48.390625 
z
M 30.609375 56 
Q 42.328125 56 49.015625 48.375 
Q 55.71875 40.765625 55.71875 27.296875 
Q 55.71875 13.875 49.015625 6.21875 
Q 42.328125 -1.421875 30.609375 -1.421875 
Q 18.84375 -1.421875 12.171875 6.21875 
Q 5.515625 13.875 5.515625 27.296875 
Q 5.515625 40.765625 12.171875 48.375 
Q 18.84375 56 30.609375 56 
z
" id="DejaVuSans-111"/>
      <path d="M 52 44.1875 
Q 55.375 50.25 60.0625 53.125 
Q 64.75 56 71.09375 56 
Q 79.640625 56 84.28125 50.015625 
Q 88.921875 44.046875 88.921875 33.015625 
L 88.921875 0 
L 79.890625 0 
L 79.890625 32.71875 
Q 79.890625 40.578125 77.09375 44.375 
Q 74.3125 48.1875 68.609375 48.1875 
Q 61.625 48.1875 57.5625 43.546875 
Q 53.515625 38.921875 53.515625 30.90625 
L 53.515625 0 
L 44.484375 0 
L 44.484375 32.71875 
Q 44.484375 40.625 41.703125 44.40625 
Q 38.921875 48.1875 33.109375 48.1875 
Q 26.21875 48.1875 22.15625 43.53125 
Q 18.109375 38.875 18.109375 30.90625 
L 18.109375 0 
L 9.078125 0 
L 9.078125 54.6875 
L 18.109375 54.6875 
L 18.109375 46.1875 
Q 21.1875 51.21875 25.484375 53.609375 
Q 29.78125 56 35.6875 56 
Q 41.65625 56 45.828125 52.96875 
Q 50 49.953125 52 44.1875 
z
" id="DejaVuSans-109"/>
      <path d="M 34.28125 27.484375 
Q 23.390625 27.484375 19.1875 25 
Q 14.984375 22.515625 14.984375 16.5 
Q 14.984375 11.71875 18.140625 8.90625 
Q 21.296875 6.109375 26.703125 6.109375 
Q 34.1875 6.109375 38.703125 11.40625 
Q 43.21875 16.703125 43.21875 25.484375 
L 43.21875 27.484375 
z
M 52.203125 31.203125 
L 52.203125 0 
L 43.21875 0 
L 43.21875 8.296875 
Q 40.140625 3.328125 35.546875 0.953125 
Q 30.953125 -1.421875 24.3125 -1.421875 
Q 15.921875 -1.421875 10.953125 3.296875 
Q 6 8.015625 6 15.921875 
Q 6 25.140625 12.171875 29.828125 
Q 18.359375 34.515625 30.609375 34.515625 
L 43.21875 34.515625 
L 43.21875 35.40625 
Q 43.21875 41.609375 39.140625 45 
Q 35.0625 48.390625 27.6875 48.390625 
Q 23 48.390625 18.546875 47.265625 
Q 14.109375 46.140625 10.015625 43.890625 
L 10.015625 52.203125 
Q 14.9375 54.109375 19.578125 55.046875 
Q 24.21875 56 28.609375 56 
Q 40.484375 56 46.34375 49.84375 
Q 52.203125 43.703125 52.203125 31.203125 
z
" id="DejaVuSans-97"/>
      <path d="M 18.3125 70.21875 
L 18.3125 54.6875 
L 36.8125 54.6875 
L 36.8125 47.703125 
L 18.3125 47.703125 
L 18.3125 18.015625 
Q 18.3125 11.328125 20.140625 9.421875 
Q 21.96875 7.515625 27.59375 7.515625 
L 36.8125 7.515625 
L 36.8125 0 
L 27.59375 0 
Q 17.1875 0 13.234375 3.875 
Q 9.28125 7.765625 9.28125 18.015625 
L 9.28125 47.703125 
L 2.6875 47.703125 
L 2.6875 54.6875 
L 9.28125 54.6875 
L 9.28125 70.21875 
z
" id="DejaVuSans-116"/>
      <path d="M 9.421875 54.6875 
L 18.40625 54.6875 
L 18.40625 0 
L 9.421875 0 
z
M 9.421875 75.984375 
L 18.40625 75.984375 
L 18.40625 64.59375 
L 9.421875 64.59375 
z
" id="DejaVuSans-105"/>
      <path d="M 48.78125 52.59375 
L 48.78125 44.1875 
Q 44.96875 46.296875 41.140625 47.34375 
Q 37.3125 48.390625 33.40625 48.390625 
Q 24.65625 48.390625 19.8125 42.84375 
Q 14.984375 37.3125 14.984375 27.296875 
Q 14.984375 17.28125 19.8125 11.734375 
Q 24.65625 6.203125 33.40625 6.203125 
Q 37.3125 6.203125 41.140625 7.25 
Q 44.96875 8.296875 48.78125 10.40625 
L 48.78125 2.09375 
Q 45.015625 0.34375 40.984375 -0.53125 
Q 36.96875 -1.421875 32.421875 -1.421875 
Q 20.0625 -1.421875 12.78125 6.34375 
Q 5.515625 14.109375 5.515625 27.296875 
Q 5.515625 40.671875 12.859375 48.328125 
Q 20.21875 56 33.015625 56 
Q 37.15625 56 41.109375 55.140625 
Q 45.0625 54.296875 48.78125 52.59375 
z
" id="DejaVuSans-99"/>
      <path d="M 8.015625 75.875 
L 15.828125 75.875 
Q 23.140625 64.359375 26.78125 53.3125 
Q 30.421875 42.28125 30.421875 31.390625 
Q 30.421875 20.453125 26.78125 9.375 
Q 23.140625 -1.703125 15.828125 -13.1875 
L 8.015625 -13.1875 
Q 14.5 -2 17.703125 9.0625 
Q 20.90625 20.125 20.90625 31.390625 
Q 20.90625 42.671875 17.703125 53.65625 
Q 14.5 64.65625 8.015625 75.875 
z
" id="DejaVuSans-41"/>
      <path id="DejaVuSans-32"/>
      <path d="M 9.8125 72.90625 
L 19.671875 72.90625 
L 19.671875 43.015625 
L 55.515625 43.015625 
L 55.515625 72.90625 
L 65.375 72.90625 
L 65.375 0 
L 55.515625 0 
L 55.515625 34.71875 
L 19.671875 34.71875 
L 19.671875 0 
L 9.8125 0 
z
" id="DejaVuSans-72"/>
      <path d="M 44.390625 34.1875 
Q 47.5625 33.109375 50.5625 29.59375 
Q 53.5625 26.078125 56.59375 19.921875 
L 66.609375 0 
L 56 0 
L 46.6875 18.703125 
Q 43.0625 26.03125 39.671875 28.421875 
Q 36.28125 30.8125 30.421875 30.8125 
L 19.671875 30.8125 
L 19.671875 0 
L 9.8125 0 
L 9.8125 72.90625 
L 32.078125 72.90625 
Q 44.578125 72.90625 50.734375 67.671875 
Q 56.890625 62.453125 56.890625 51.90625 
Q 56.890625 45.015625 53.6875 40.46875 
Q 50.484375 35.9375 44.390625 34.1875 
z
M 19.671875 64.796875 
L 19.671875 38.921875 
L 32.078125 38.921875 
Q 39.203125 38.921875 42.84375 42.21875 
Q 46.484375 45.515625 46.484375 51.90625 
Q 46.484375 58.296875 42.84375 61.546875 
Q 39.203125 64.796875 32.078125 64.796875 
z
" id="DejaVuSans-82"/>
      <path d="M 9.8125 72.90625 
L 55.90625 72.90625 
L 55.90625 64.59375 
L 19.671875 64.59375 
L 19.671875 43.015625 
L 54.390625 43.015625 
L 54.390625 34.71875 
L 19.671875 34.71875 
L 19.671875 8.296875 
L 56.78125 8.296875 
L 56.78125 0 
L 9.8125 0 
z
" id="DejaVuSans-69"/>
      <path d="M 19.671875 64.796875 
L 19.671875 8.109375 
L 31.59375 8.109375 
Q 46.6875 8.109375 53.6875 14.9375 
Q 60.6875 21.78125 60.6875 36.53125 
Q 60.6875 51.171875 53.6875 57.984375 
Q 46.6875 64.796875 31.59375 64.796875 
z
M 9.8125 72.90625 
L 30.078125 72.90625 
Q 51.265625 72.90625 61.171875 64.09375 
Q 71.09375 55.28125 71.09375 36.53125 
Q 71.09375 17.671875 61.125 8.828125 
Q 51.171875 0 30.078125 0 
L 9.8125 0 
z
" id="DejaVuSans-68"/>
     </defs>
     <g transform="translate(114.512396 271.194687)scale(0.1 -0.1)">
      <use xlink:href="#DejaVuSans-80"/>
      <use x="60.287109" xlink:href="#DejaVuSans-114"/>
      <use x="101.400391" xlink:href="#DejaVuSans-40"/>
      <use x="140.414062" xlink:href="#DejaVuSans-115"/>
      <use x="192.513672" xlink:href="#DejaVuSans-111"/>
      <use x="253.695312" xlink:href="#DejaVuSans-109"/>
      <use x="351.107422" xlink:href="#DejaVuSans-97"/>
      <use x="412.386719" xlink:href="#DejaVuSans-116"/>
      <use x="451.595703" xlink:href="#DejaVuSans-105"/>
      <use x="479.378906" xlink:href="#DejaVuSans-99"/>
      <use x="534.359375" xlink:href="#DejaVuSans-41"/>
      <use x="573.373047" xlink:href="#DejaVuSans-32"/>
      <use x="605.160156" xlink:href="#DejaVuSans-40"/>
      <use x="644.173828" xlink:href="#DejaVuSans-80"/>
      <use x="704.476562" xlink:href="#DejaVuSans-72"/>
      <use x="779.671875" xlink:href="#DejaVuSans-82"/>
      <use x="849.154297" xlink:href="#DejaVuSans-69"/>
      <use x="912.337891" xlink:href="#DejaVuSans-68"/>
      <use x="989.339844" xlink:href="#DejaVuSans-41"/>
     </g>
    </g>
   </g>
   <g id="matplotlib.axis_2">
    <g id="ytick_1">
     <g id="line2d_8">
      <defs>
       <path d="M 0 0 
L -3.5 0 
" id="m29d01273ab" style="stroke:#000000;stroke-width:0.8;"/>
      </defs>
      <g>
       <use style="stroke:#000000;stroke-width:0.8;" x="43.78125" xlink:href="#m29d01273ab" y="242.918125"/>
      </g>
     </g>
     <g id="text_6">
      <!-- 0.0 -->
      <g transform="translate(20.878125 246.717344)scale(0.1 -0.1)">
       <use xlink:href="#DejaVuSans-48"/>
       <use x="63.623047" xlink:href="#DejaVuSans-46"/>
       <use x="95.410156" xlink:href="#DejaVuSans-48"/>
      </g>
     </g>
    </g>
    <g id="ytick_2">
     <g id="line2d_9">
      <g>
       <use style="stroke:#000000;stroke-width:0.8;" x="43.78125" xlink:href="#m29d01273ab" y="217.233642"/>
      </g>
     </g>
     <g id="text_7">
      <!-- 0.5 -->
      <defs>
       <path d="M 10.796875 72.90625 
L 49.515625 72.90625 
L 49.515625 64.59375 
L 19.828125 64.59375 
L 19.828125 46.734375 
Q 21.96875 47.46875 24.109375 47.828125 
Q 26.265625 48.1875 28.421875 48.1875 
Q 40.625 48.1875 47.75 41.5 
Q 54.890625 34.8125 54.890625 23.390625 
Q 54.890625 11.625 47.5625 5.09375 
Q 40.234375 -1.421875 26.90625 -1.421875 
Q 22.3125 -1.421875 17.546875 -0.640625 
Q 12.796875 0.140625 7.71875 1.703125 
L 7.71875 11.625 
Q 12.109375 9.234375 16.796875 8.0625 
Q 21.484375 6.890625 26.703125 6.890625 
Q 35.15625 6.890625 40.078125 11.328125 
Q 45.015625 15.765625 45.015625 23.390625 
Q 45.015625 31 40.078125 35.4375 
Q 35.15625 39.890625 26.703125 39.890625 
Q 22.75 39.890625 18.8125 39.015625 
Q 14.890625 38.140625 10.796875 36.28125 
z
" id="DejaVuSans-53"/>
      </defs>
      <g transform="translate(20.878125 221.032861)scale(0.1 -0.1)">
       <use xlink:href="#DejaVuSans-48"/>
       <use x="63.623047" xlink:href="#DejaVuSans-46"/>
       <use x="95.410156" xlink:href="#DejaVuSans-53"/>
      </g>
     </g>
    </g>
    <g id="ytick_3">
     <g id="line2d_10">
      <g>
       <use style="stroke:#000000;stroke-width:0.8;" x="43.78125" xlink:href="#m29d01273ab" y="191.549159"/>
      </g>
     </g>
     <g id="text_8">
      <!-- 1.0 -->
      <g transform="translate(20.878125 195.348378)scale(0.1 -0.1)">
       <use xlink:href="#DejaVuSans-49"/>
       <use x="63.623047" xlink:href="#DejaVuSans-46"/>
       <use x="95.410156" xlink:href="#DejaVuSans-48"/>
      </g>
     </g>
    </g>
    <g id="ytick_4">
     <g id="line2d_11">
      <g>
       <use style="stroke:#000000;stroke-width:0.8;" x="43.78125" xlink:href="#m29d01273ab" y="165.864676"/>
      </g>
     </g>
     <g id="text_9">
      <!-- 1.5 -->
      <g transform="translate(20.878125 169.663895)scale(0.1 -0.1)">
       <use xlink:href="#DejaVuSans-49"/>
       <use x="63.623047" xlink:href="#DejaVuSans-46"/>
       <use x="95.410156" xlink:href="#DejaVuSans-53"/>
      </g>
     </g>
    </g>
    <g id="ytick_5">
     <g id="line2d_12">
      <g>
       <use style="stroke:#000000;stroke-width:0.8;" x="43.78125" xlink:href="#m29d01273ab" y="140.180193"/>
      </g>
     </g>
     <g id="text_10">
      <!-- 2.0 -->
      <g transform="translate(20.878125 143.979412)scale(0.1 -0.1)">
       <use xlink:href="#DejaVuSans-50"/>
       <use x="63.623047" xlink:href="#DejaVuSans-46"/>
       <use x="95.410156" xlink:href="#DejaVuSans-48"/>
      </g>
     </g>
    </g>
    <g id="ytick_6">
     <g id="line2d_13">
      <g>
       <use style="stroke:#000000;stroke-width:0.8;" x="43.78125" xlink:href="#m29d01273ab" y="114.49571"/>
      </g>
     </g>
     <g id="text_11">
      <!-- 2.5 -->
      <g transform="translate(20.878125 118.294929)scale(0.1 -0.1)">
       <use xlink:href="#DejaVuSans-50"/>
       <use x="63.623047" xlink:href="#DejaVuSans-46"/>
       <use x="95.410156" xlink:href="#DejaVuSans-53"/>
      </g>
     </g>
    </g>
    <g id="ytick_7">
     <g id="line2d_14">
      <g>
       <use style="stroke:#000000;stroke-width:0.8;" x="43.78125" xlink:href="#m29d01273ab" y="88.811227"/>
      </g>
     </g>
     <g id="text_12">
      <!-- 3.0 -->
      <defs>
       <path d="M 40.578125 39.3125 
Q 47.65625 37.796875 51.625 33 
Q 55.609375 28.21875 55.609375 21.1875 
Q 55.609375 10.40625 48.1875 4.484375 
Q 40.765625 -1.421875 27.09375 -1.421875 
Q 22.515625 -1.421875 17.65625 -0.515625 
Q 12.796875 0.390625 7.625 2.203125 
L 7.625 11.71875 
Q 11.71875 9.328125 16.59375 8.109375 
Q 21.484375 6.890625 26.8125 6.890625 
Q 36.078125 6.890625 40.9375 10.546875 
Q 45.796875 14.203125 45.796875 21.1875 
Q 45.796875 27.640625 41.28125 31.265625 
Q 36.765625 34.90625 28.71875 34.90625 
L 20.21875 34.90625 
L 20.21875 43.015625 
L 29.109375 43.015625 
Q 36.375 43.015625 40.234375 45.921875 
Q 44.09375 48.828125 44.09375 54.296875 
Q 44.09375 59.90625 40.109375 62.90625 
Q 36.140625 65.921875 28.71875 65.921875 
Q 24.65625 65.921875 20.015625 65.03125 
Q 15.375 64.15625 9.8125 62.3125 
L 9.8125 71.09375 
Q 15.4375 72.65625 20.34375 73.4375 
Q 25.25 74.21875 29.59375 74.21875 
Q 40.828125 74.21875 47.359375 69.109375 
Q 53.90625 64.015625 53.90625 55.328125 
Q 53.90625 49.265625 50.4375 45.09375 
Q 46.96875 40.921875 40.578125 39.3125 
z
" id="DejaVuSans-51"/>
      </defs>
      <g transform="translate(20.878125 92.610446)scale(0.1 -0.1)">
       <use xlink:href="#DejaVuSans-51"/>
       <use x="63.623047" xlink:href="#DejaVuSans-46"/>
       <use x="95.410156" xlink:href="#DejaVuSans-48"/>
      </g>
     </g>
    </g>
    <g id="ytick_8">
     <g id="line2d_15">
      <g>
       <use style="stroke:#000000;stroke-width:0.8;" x="43.78125" xlink:href="#m29d01273ab" y="63.126744"/>
      </g>
     </g>
     <g id="text_13">
      <!-- 3.5 -->
      <g transform="translate(20.878125 66.925963)scale(0.1 -0.1)">
       <use xlink:href="#DejaVuSans-51"/>
       <use x="63.623047" xlink:href="#DejaVuSans-46"/>
       <use x="95.410156" xlink:href="#DejaVuSans-53"/>
      </g>
     </g>
    </g>
    <g id="ytick_9">
     <g id="line2d_16">
      <g>
       <use style="stroke:#000000;stroke-width:0.8;" x="43.78125" xlink:href="#m29d01273ab" y="37.442261"/>
      </g>
     </g>
     <g id="text_14">
      <!-- 4.0 -->
      <g transform="translate(20.878125 41.24148)scale(0.1 -0.1)">
       <use xlink:href="#DejaVuSans-52"/>
       <use x="63.623047" xlink:href="#DejaVuSans-46"/>
       <use x="95.410156" xlink:href="#DejaVuSans-48"/>
      </g>
     </g>
    </g>
    <g id="text_15">
     <!-- density -->
     <defs>
      <path d="M 45.40625 46.390625 
L 45.40625 75.984375 
L 54.390625 75.984375 
L 54.390625 0 
L 45.40625 0 
L 45.40625 8.203125 
Q 42.578125 3.328125 38.25 0.953125 
Q 33.9375 -1.421875 27.875 -1.421875 
Q 17.96875 -1.421875 11.734375 6.484375 
Q 5.515625 14.40625 5.515625 27.296875 
Q 5.515625 40.1875 11.734375 48.09375 
Q 17.96875 56 27.875 56 
Q 33.9375 56 38.25 53.625 
Q 42.578125 51.265625 45.40625 46.390625 
z
M 14.796875 27.296875 
Q 14.796875 17.390625 18.875 11.75 
Q 22.953125 6.109375 30.078125 6.109375 
Q 37.203125 6.109375 41.296875 11.75 
Q 45.40625 17.390625 45.40625 27.296875 
Q 45.40625 37.203125 41.296875 42.84375 
Q 37.203125 48.484375 30.078125 48.484375 
Q 22.953125 48.484375 18.875 42.84375 
Q 14.796875 37.203125 14.796875 27.296875 
z
" id="DejaVuSans-100"/>
      <path d="M 54.890625 33.015625 
L 54.890625 0 
L 45.90625 0 
L 45.90625 32.71875 
Q 45.90625 40.484375 42.875 44.328125 
Q 39.84375 48.1875 33.796875 48.1875 
Q 26.515625 48.1875 22.3125 43.546875 
Q 18.109375 38.921875 18.109375 30.90625 
L 18.109375 0 
L 9.078125 0 
L 9.078125 54.6875 
L 18.109375 54.6875 
L 18.109375 46.1875 
Q 21.34375 51.125 25.703125 53.5625 
Q 30.078125 56 35.796875 56 
Q 45.21875 56 50.046875 50.171875 
Q 54.890625 44.34375 54.890625 33.015625 
z
" id="DejaVuSans-110"/>
      <path d="M 32.171875 -5.078125 
Q 28.375 -14.84375 24.75 -17.8125 
Q 21.140625 -20.796875 15.09375 -20.796875 
L 7.90625 -20.796875 
L 7.90625 -13.28125 
L 13.1875 -13.28125 
Q 16.890625 -13.28125 18.9375 -11.515625 
Q 21 -9.765625 23.484375 -3.21875 
L 25.09375 0.875 
L 2.984375 54.6875 
L 12.5 54.6875 
L 29.59375 11.921875 
L 46.6875 54.6875 
L 56.203125 54.6875 
z
" id="DejaVuSans-121"/>
     </defs>
     <g transform="translate(14.798438 150.950938)rotate(-90)scale(0.1 -0.1)">
      <use xlink:href="#DejaVuSans-100"/>
      <use x="63.476562" xlink:href="#DejaVuSans-101"/>
      <use x="125" xlink:href="#DejaVuSans-110"/>
      <use x="188.378906" xlink:href="#DejaVuSans-115"/>
      <use x="240.478516" xlink:href="#DejaVuSans-105"/>
      <use x="268.261719" xlink:href="#DejaVuSans-116"/>
      <use x="307.470703" xlink:href="#DejaVuSans-121"/>
     </g>
    </g>
   </g>
   <g id="line2d_17">
    <path clip-path="url(#pb6cd6a2e47)" d="M 67.62306 238.03898 
L 69.196815 242.918125 
L 70.77057 166.904809 
L 72.344325 178.946948 
L 73.91808 209.699752 
L 75.491834 215.933455 
L 77.065589 227.144264 
L 78.639344 236.224612 
L 80.213099 236.612893 
L 81.786854 240.727426 
L 83.360608 240.126334 
L 84.934363 240.871919 
L 86.508118 241.972658 
L 88.081873 242.506579 
L 89.655628 242.773608 
L 91.229383 242.918125 
L 92.803137 242.324911 
L 97.524402 242.918125 
L 99.098157 242.801996 
L 100.671911 242.918125 
L 102.245666 242.810007 
L 103.819421 242.918125 
L 105.393176 242.815967 
L 106.966931 242.918125 
L 108.540686 242.815887 
L 110.11444 242.918125 
L 111.688195 242.798821 
L 113.26195 242.918125 
L 114.835705 242.348683 
L 116.40946 242.918125 
L 117.983215 242.827008 
L 119.556969 242.918125 
L 121.130724 242.84574 
L 122.704479 242.918125 
L 124.278234 242.856171 
L 125.851989 242.918125 
L 128.999498 242.918125 
L 133.720763 242.871445 
L 138.442027 242.918125 
L 143.163292 242.878232 
L 147.884556 242.918125 
L 152.605821 242.881463 
L 157.327085 242.918125 
L 162.04835 242.885343 
L 168.343369 242.918125 
L 169.917124 242.57888 
L 171.490878 242.717713 
L 173.064633 242.192145 
L 174.638388 241.935735 
L 176.212143 242.918125 
L 177.785898 242.185239 
L 179.359653 242.918125 
L 180.933407 242.029629 
L 182.507162 242.683342 
L 184.080917 242.475788 
L 185.654672 242.796077 
L 188.802181 242.918125 
L 191.949691 242.918125 
L 196.670956 242.872867 
L 198.24471 242.918125 
L 199.818465 242.684735 
L 201.39222 242.58944 
L 202.965975 242.918125 
L 206.113485 242.903563 
L 209.260994 242.5604 
L 210.834749 242.918125 
L 212.408504 242.857258 
L 213.982259 242.918125 
L 218.703523 242.865899 
L 223.424788 242.918125 
L 228.146052 242.876792 
L 231.293562 242.918125 
L 232.867316 242.481872 
L 234.441071 242.787239 
L 236.014826 242.918125 
L 237.588581 242.828807 
L 239.162336 242.918125 
L 240.736091 242.271606 
L 242.309845 242.429696 
L 243.8836 242.918125 
L 245.457355 242.190937 
L 248.604865 242.617998 
L 251.752374 242.304445 
L 253.326129 242.678501 
L 254.899884 242.064693 
L 256.473639 242.107231 
L 258.047394 242.918125 
L 259.621148 242.183167 
L 261.194903 242.918125 
L 262.768658 241.377972 
L 264.342413 242.918125 
L 265.916168 240.168852 
L 267.489923 242.918125 
L 267.489923 242.918125 
" style="fill:none;stroke:#1f77b4;stroke-linecap:square;stroke-width:1.5;"/>
   </g>
   <g id="line2d_18">
    <path clip-path="url(#pb6cd6a2e47)" d="M 209.931064 242.916306 
L 214.488184 242.806107 
L 217.526263 242.799271 
L 221.577036 242.887814 
L 224.108769 242.685383 
L 227.146849 242.405614 
L 229.172235 242.287721 
L 230.184928 242.013943 
L 231.197622 241.48185 
L 232.210315 240.674635 
L 233.729355 239.076421 
L 235.754741 236.894983 
L 237.273781 235.249604 
L 238.286474 233.766478 
L 239.299167 231.877806 
L 240.818207 228.51179 
L 242.337247 224.567678 
L 243.856287 219.877752 
L 246.894366 210.051694 
L 247.90706 207.253942 
L 248.919753 205.191892 
L 249.426099 204.565989 
L 249.932446 204.227948 
L 250.438793 204.149693 
L 250.945139 204.284404 
L 251.957832 204.999854 
L 253.983219 206.891704 
L 254.489565 207.143949 
L 254.995912 207.236134 
L 256.008605 207.021586 
L 257.021298 206.63338 
L 257.527645 206.545382 
L 258.033992 206.623375 
L 258.540338 206.93603 
L 259.046685 207.546017 
L 259.553031 208.50555 
L 260.059378 209.850826 
L 261.072071 213.723398 
L 262.084765 218.891648 
L 264.110151 229.965687 
L 265.122844 234.471426 
L 266.135537 237.934544 
L 267.148231 240.303307 
L 267.654577 241.098056 
L 268.160924 241.672901 
L 269.173617 242.343312 
L 270.18631 242.653367 
L 271.70535 242.850164 
L 274.237083 242.91575 
L 274.237083 242.91575 
" style="fill:none;stroke:#1f77b4;stroke-dasharray:1.5,2.475;stroke-dashoffset:0;stroke-width:1.5;"/>
   </g>
   <g id="line2d_19">
    <path clip-path="url(#pb6cd6a2e47)" d="M 64.497637 242.918125 
L 66.087881 228.218599 
L 67.678124 242.918125 
L 69.268368 61.118224 
L 70.858612 32.822887 
L 72.448855 197.416208 
L 74.039099 216.968362 
L 75.629343 235.133259 
L 77.219586 236.03824 
L 78.80983 240.533089 
L 80.400074 240.521327 
L 81.990317 242.01833 
L 83.580561 241.973762 
L 85.170805 242.559195 
L 86.761048 242.468149 
L 89.941535 242.721301 
L 91.531779 242.659303 
L 93.122023 242.868363 
L 94.712266 242.727555 
L 96.30251 242.878216 
L 97.892754 242.660054 
L 99.482997 242.890451 
L 101.073241 242.728934 
L 102.663485 242.918125 
L 104.253728 242.720036 
L 105.843972 242.918125 
L 107.434216 242.707499 
L 109.024459 242.893364 
L 110.614703 242.736332 
L 112.204947 242.902588 
L 113.79519 242.750725 
L 115.385434 242.918125 
L 116.975678 242.754634 
L 118.565921 242.918125 
L 120.156165 242.722601 
L 121.746408 242.918125 
L 123.336652 242.776971 
L 124.926896 242.918125 
L 126.517139 242.782085 
L 128.107383 242.918125 
L 129.697627 242.760671 
L 131.28787 242.918125 
L 132.878114 242.734597 
L 134.468358 242.918125 
L 136.058601 242.771035 
L 137.648845 242.918125 
L 139.239089 242.750415 
L 140.829332 242.918125 
L 142.419576 242.726911 
L 144.00982 242.918125 
L 145.600063 242.65783 
L 147.190307 242.918125 
L 148.780551 242.570664 
L 150.370794 242.918125 
L 151.961038 242.437172 
L 153.551281 242.918125 
L 155.141525 242.16252 
L 156.731769 242.918125 
L 158.322012 241.339106 
L 159.912256 242.918125 
L 161.5025 230.487289 
L 163.092743 242.918125 
L 164.682987 242.918125 
L 166.273231 232.077074 
L 167.863474 242.412352 
L 169.453718 240.927321 
L 171.043962 236.56018 
L 172.634205 242.918125 
L 174.224449 238.594533 
L 175.814693 242.918125 
L 177.404936 241.313479 
L 178.99518 242.735892 
L 180.585424 242.265345 
L 182.175667 242.918125 
L 183.765911 242.523209 
L 185.356154 242.918125 
L 186.946398 242.702255 
L 188.536642 242.918125 
L 190.126885 242.745956 
L 191.717129 242.918125 
L 193.307373 242.771033 
L 194.897616 242.918125 
L 196.48786 242.800397 
L 198.078104 242.918125 
L 199.668347 242.781303 
L 201.258591 242.918125 
L 202.848835 242.76971 
L 204.439078 242.918125 
L 206.029322 242.799789 
L 207.619566 242.918125 
L 209.209809 242.801415 
L 210.800053 242.918125 
L 212.390297 242.801522 
L 213.98054 242.918125 
L 215.570784 242.765215 
L 217.161027 242.918125 
L 218.751271 242.761241 
L 220.341515 242.918125 
L 221.931758 242.704946 
L 223.522002 242.918125 
L 225.112246 242.668676 
L 226.702489 242.918125 
L 228.292733 242.544565 
L 229.882977 242.864152 
L 231.47322 242.485202 
L 233.063464 242.828993 
L 234.653708 242.29816 
L 236.243951 242.758209 
L 237.834195 242.251406 
L 239.424439 242.766877 
L 241.014682 242.114666 
L 242.604926 242.842203 
L 244.195169 242.006168 
L 245.785413 242.893316 
L 247.375657 241.954633 
L 248.9659 242.918125 
L 250.556144 241.948256 
L 252.146388 242.918125 
L 253.736631 241.762261 
L 255.326875 242.918125 
L 256.917119 241.542486 
L 258.507362 242.918125 
L 260.097606 241.071009 
L 261.68785 242.918125 
L 263.278093 240.049413 
L 264.868337 242.918125 
L 266.458581 237.343033 
L 266.458581 237.343033 
" style="fill:none;stroke:#ff7f0e;stroke-linecap:square;stroke-width:1.5;"/>
   </g>
   <g id="line2d_20">
    <path clip-path="url(#pb6cd6a2e47)" d="M 66.44768 242.918125 
L 132.765398 242.908691 
L 165.115504 242.856688 
L 166.733009 242.78858 
L 168.350515 242.351331 
L 169.96802 242.851758 
L 174.820536 242.752734 
L 176.438041 242.655255 
L 178.055547 242.423583 
L 179.673052 242.392498 
L 181.290557 242.80365 
L 184.525568 242.870218 
L 208.788147 242.602068 
L 215.258169 242.080355 
L 218.493179 241.451035 
L 220.110685 240.866152 
L 221.72819 240.091433 
L 223.345695 239.069903 
L 224.9632 237.517623 
L 228.198211 232.872845 
L 229.815716 229.375265 
L 231.433222 226.544057 
L 233.050727 222.695473 
L 234.668232 220.099032 
L 236.285738 217.728754 
L 237.903243 215.948832 
L 239.520748 214.352856 
L 241.138254 213.547841 
L 242.755759 212.364703 
L 244.373264 210.889396 
L 245.990769 210.422261 
L 247.608275 211.855707 
L 249.22578 214.42069 
L 250.843285 217.890709 
L 252.460791 220.930378 
L 257.313307 228.695752 
L 258.930812 231.664194 
L 262.165823 238.970661 
L 263.783328 241.341024 
L 265.400833 242.480194 
L 267.018338 242.838851 
L 270.253349 242.91745 
L 271.870854 242.916236 
L 271.870854 242.916236 
" style="fill:none;stroke:#ff7f0e;stroke-dasharray:1.5,2.475;stroke-dashoffset:0;stroke-width:1.5;"/>
   </g>
   <g id="line2d_21">
    <path clip-path="url(#pb6cd6a2e47)" d="M 67.160248 235.333834 
L 68.735788 242.918125 
L 70.311327 136.007073 
L 71.886867 149.07504 
L 73.462406 208.378444 
L 75.037946 215.53909 
L 76.613485 225.863229 
L 78.189025 233.961106 
L 79.764564 236.77473 
L 82.915643 239.740067 
L 84.491182 241.165547 
L 87.642261 242.280129 
L 89.217801 242.231092 
L 90.79334 242.918125 
L 92.36888 242.639537 
L 93.944419 242.918125 
L 95.519959 242.380959 
L 97.095498 242.860899 
L 100.246577 242.847468 
L 142.786143 242.918125 
L 144.361682 242.712967 
L 145.937222 242.918125 
L 147.512761 242.722879 
L 149.088301 242.918125 
L 163.268156 242.739532 
L 164.843695 242.918125 
L 166.419235 240.602707 
L 167.994774 242.918125 
L 169.570314 241.602089 
L 171.145853 241.454093 
L 172.721393 242.83879 
L 174.296932 242.058543 
L 175.872472 242.480676 
L 177.448011 241.723618 
L 179.023551 242.755891 
L 180.59909 242.29232 
L 182.174629 242.720729 
L 183.750169 242.425216 
L 185.325708 242.830069 
L 188.476787 242.918125 
L 190.052327 242.740955 
L 191.627866 242.918125 
L 193.203406 242.861481 
L 196.354485 242.87464 
L 199.505564 242.866897 
L 201.081103 242.795482 
L 204.232182 242.918125 
L 205.807722 242.905827 
L 207.383261 242.76428 
L 208.9588 242.905327 
L 216.836498 242.918125 
L 218.412037 242.801594 
L 223.138656 242.918125 
L 224.714195 242.827098 
L 226.289735 242.918125 
L 227.865274 242.720457 
L 229.440814 242.918125 
L 231.016353 242.795915 
L 235.742971 242.918125 
L 237.318511 242.623115 
L 238.89405 242.918125 
L 240.46959 242.160947 
L 242.045129 242.006766 
L 243.620669 241.225008 
L 245.196208 242.068181 
L 246.771748 241.711661 
L 248.347287 242.503945 
L 249.922827 241.241674 
L 251.498366 242.540689 
L 253.073906 241.380556 
L 254.649445 242.8214 
L 256.224985 241.323369 
L 257.800524 242.728064 
L 259.376063 241.600643 
L 260.951603 242.918125 
L 262.527142 240.921663 
L 264.102682 242.918125 
L 265.678221 239.597 
L 267.253761 242.918125 
L 267.253761 242.918125 
" style="fill:none;stroke:#2ca02c;stroke-linecap:square;stroke-width:1.5;"/>
   </g>
   <g id="line2d_22">
    <path clip-path="url(#pb6cd6a2e47)" d="M 130.159275 242.917938 
L 216.550642 242.722155 
L 218.794573 242.678034 
L 221.038505 242.635745 
L 223.282436 242.445318 
L 226.648334 241.769116 
L 227.7703 241.659481 
L 228.892265 241.182367 
L 231.136197 239.427827 
L 232.258163 238.216344 
L 234.502094 235.000733 
L 235.62406 232.822772 
L 236.746026 230.067434 
L 237.867992 226.756871 
L 242.355855 212.370938 
L 244.599787 206.651858 
L 245.721752 205.073508 
L 246.843718 204.985712 
L 247.965684 205.710036 
L 249.08765 206.921032 
L 251.331581 210.788623 
L 252.453547 211.792468 
L 253.575513 211.800728 
L 254.697479 211.28621 
L 255.819445 211.484169 
L 256.94141 212.672655 
L 258.063376 214.676656 
L 259.185342 217.999703 
L 260.307308 222.689801 
L 262.551239 232.939437 
L 263.673205 237.07594 
L 264.795171 239.843077 
L 265.917137 241.538898 
L 267.039103 242.414374 
L 268.161068 242.748495 
L 270.405 242.898375 
L 272.648932 242.917868 
L 272.648932 242.917868 
" style="fill:none;stroke:#2ca02c;stroke-dasharray:1.5,2.475;stroke-dashoffset:0;stroke-width:1.5;"/>
   </g>
   <g id="line2d_23">
    <path clip-path="url(#pb6cd6a2e47)" d="M 68.019939 236.453101 
L 69.547096 242.918125 
L 71.074253 176.620291 
L 72.60141 180.526971 
L 74.128567 222.585387 
L 75.655724 230.401869 
L 77.182881 236.770536 
L 78.710038 239.07497 
L 80.237194 240.628556 
L 81.764351 241.495906 
L 83.291508 241.890386 
L 84.818665 242.433071 
L 86.345822 242.385856 
L 87.872979 242.639588 
L 89.400136 242.561805 
L 90.927293 242.846535 
L 92.45445 242.661963 
L 93.981607 242.885692 
L 95.508764 242.715224 
L 97.035921 242.879979 
L 98.563077 242.755463 
L 100.090234 242.859258 
L 101.617391 242.808707 
L 103.144548 242.879077 
L 104.671705 242.812565 
L 106.198862 242.918125 
L 107.726019 242.801002 
L 118.416117 242.89758 
L 121.470431 242.876102 
L 130.633373 242.879583 
L 132.16053 242.909822 
L 133.687687 242.827205 
L 135.214843 242.918125 
L 136.742 242.82345 
L 138.269157 242.918125 
L 139.796314 242.835555 
L 141.323471 242.918125 
L 142.850628 242.825338 
L 144.377785 242.918125 
L 145.904942 242.779132 
L 147.432099 242.918125 
L 148.959256 242.761314 
L 150.486413 242.918125 
L 152.01357 242.738915 
L 153.540726 242.918125 
L 155.067883 242.696792 
L 156.59504 242.918125 
L 158.122197 242.642954 
L 159.649354 242.918125 
L 161.176511 242.4943 
L 162.703668 242.918125 
L 165.757982 241.962226 
L 167.285139 239.273369 
L 168.812296 242.918125 
L 170.339453 233.466668 
L 171.866609 242.918125 
L 173.393766 237.690414 
L 174.920923 242.918125 
L 176.44808 239.890646 
L 177.975237 242.918125 
L 179.502394 241.352158 
L 181.029551 242.918125 
L 182.556708 242.19987 
L 184.083865 242.918125 
L 185.611022 242.561731 
L 187.138179 242.918125 
L 188.665336 242.669565 
L 190.192492 242.918125 
L 191.719649 242.75034 
L 193.246806 242.918125 
L 194.773963 242.786746 
L 196.30112 242.918125 
L 197.828277 242.817189 
L 199.355434 242.918125 
L 200.882591 242.832328 
L 202.409748 242.918125 
L 203.936905 242.842952 
L 206.991219 242.88793 
L 213.099846 242.90476 
L 214.627003 242.846357 
L 216.15416 242.918125 
L 220.735631 242.848771 
L 222.262788 242.918029 
L 226.844258 242.84104 
L 228.371415 242.918125 
L 229.898572 242.80661 
L 231.425729 242.918125 
L 232.952886 242.780587 
L 234.480043 242.918125 
L 236.0072 242.73293 
L 237.534357 242.918125 
L 239.061514 242.719819 
L 240.588671 242.918125 
L 242.115828 242.672259 
L 243.642985 242.918125 
L 245.170141 242.602976 
L 246.697298 242.918125 
L 248.224455 242.50081 
L 249.751612 242.918125 
L 251.278769 242.309303 
L 252.805926 242.918125 
L 254.333083 242.020098 
L 255.86024 242.918125 
L 257.387397 241.498516 
L 258.914554 242.918125 
L 260.441711 240.298765 
L 261.968868 242.918125 
L 261.968868 242.918125 
" style="fill:none;stroke:#d62728;stroke-linecap:square;stroke-width:1.5;"/>
   </g>
   <g id="line2d_24">
    <path clip-path="url(#pb6cd6a2e47)" d="M 54.885644 242.912763 
L 60.131814 242.843731 
L 63.629261 242.647432 
L 72.372878 241.904468 
L 75.870325 241.984318 
L 88.11139 242.777085 
L 95.106283 242.691927 
L 100.352454 242.721361 
L 110.844795 242.896366 
L 158.060328 242.63111 
L 180.793733 241.487984 
L 186.039903 241.300381 
L 189.53735 240.808044 
L 193.034797 239.953038 
L 198.280967 238.372469 
L 201.778414 237.056304 
L 203.527138 236.214312 
L 207.024585 234.131736 
L 212.270755 230.610473 
L 214.019478 229.590972 
L 215.768202 228.778678 
L 217.516925 228.22132 
L 219.265649 227.90653 
L 226.260543 227.233139 
L 229.757989 226.753562 
L 231.506713 226.770018 
L 233.255436 227.075906 
L 235.00416 227.670153 
L 238.501607 229.393101 
L 241.999054 231.102686 
L 243.747777 231.774467 
L 247.245224 232.752516 
L 250.742671 233.583779 
L 252.491394 234.134096 
L 254.240118 234.878454 
L 255.988841 235.855187 
L 259.486288 238.32593 
L 261.235012 239.584112 
L 262.983735 240.681349 
L 264.732459 241.537537 
L 266.481182 242.136727 
L 268.229905 242.513667 
L 271.727352 242.836102 
L 276.973523 242.913243 
L 276.973523 242.913243 
" style="fill:none;stroke:#d62728;stroke-dasharray:1.5,2.475;stroke-dashoffset:0;stroke-width:1.5;"/>
   </g>
   <g id="patch_3">
    <path d="M 43.78125 242.918125 
L 43.78125 22.318125 
" style="fill:none;stroke:#000000;stroke-linecap:square;stroke-linejoin:miter;stroke-width:0.8;"/>
   </g>
   <g id="patch_4">
    <path d="M 43.78125 242.918125 
L 288.077917 242.918125 
" style="fill:none;stroke:#000000;stroke-linecap:square;stroke-linejoin:miter;stroke-width:0.8;"/>
   </g>
   <g id="text_16">
    <!-- 1 - 30 -->
    <defs>
     <path d="M 4.890625 31.390625 
L 31.203125 31.390625 
L 31.203125 23.390625 
L 4.890625 23.390625 
z
" id="DejaVuSans-45"/>
    </defs>
    <g transform="translate(148.498646 16.318125)scale(0.12 -0.12)">
     <use xlink:href="#DejaVuSans-49"/>
     <use x="63.623047" xlink:href="#DejaVuSans-32"/>
     <use x="95.410156" xlink:href="#DejaVuSans-45"/>
     <use x="131.494141" xlink:href="#DejaVuSans-32"/>
     <use x="163.28125" xlink:href="#DejaVuSans-51"/>
     <use x="226.904297" xlink:href="#DejaVuSans-48"/>
    </g>
   </g>
   <g id="legend_1">
    <g id="patch_5">
     <path d="M 142.543542 89.030625 
L 281.077917 89.030625 
Q 283.077917 89.030625 283.077917 87.030625 
L 283.077917 29.318125 
Q 283.077917 27.318125 281.077917 27.318125 
L 142.543542 27.318125 
Q 140.543542 27.318125 140.543542 29.318125 
L 140.543542 87.030625 
Q 140.543542 89.030625 142.543542 89.030625 
z
" style="fill:#ffffff;opacity:0.8;stroke:#cccccc;stroke-linejoin:miter;"/>
    </g>
    <g id="line2d_25">
     <path d="M 144.543542 35.416562 
L 164.543542 35.416562 
" style="fill:none;stroke:#1f77b4;stroke-linecap:square;stroke-width:1.5;"/>
    </g>
    <g id="line2d_26"/>
    <g id="text_17">
     <!-- varlociraptor+delly -->
     <defs>
      <path d="M 2.984375 54.6875 
L 12.5 54.6875 
L 29.59375 8.796875 
L 46.6875 54.6875 
L 56.203125 54.6875 
L 35.6875 0 
L 23.484375 0 
z
" id="DejaVuSans-118"/>
      <path d="M 9.421875 75.984375 
L 18.40625 75.984375 
L 18.40625 0 
L 9.421875 0 
z
" id="DejaVuSans-108"/>
      <path d="M 18.109375 8.203125 
L 18.109375 -20.796875 
L 9.078125 -20.796875 
L 9.078125 54.6875 
L 18.109375 54.6875 
L 18.109375 46.390625 
Q 20.953125 51.265625 25.265625 53.625 
Q 29.59375 56 35.59375 56 
Q 45.5625 56 51.78125 48.09375 
Q 58.015625 40.1875 58.015625 27.296875 
Q 58.015625 14.40625 51.78125 6.484375 
Q 45.5625 -1.421875 35.59375 -1.421875 
Q 29.59375 -1.421875 25.265625 0.953125 
Q 20.953125 3.328125 18.109375 8.203125 
z
M 48.6875 27.296875 
Q 48.6875 37.203125 44.609375 42.84375 
Q 40.53125 48.484375 33.40625 48.484375 
Q 26.265625 48.484375 22.1875 42.84375 
Q 18.109375 37.203125 18.109375 27.296875 
Q 18.109375 17.390625 22.1875 11.75 
Q 26.265625 6.109375 33.40625 6.109375 
Q 40.53125 6.109375 44.609375 11.75 
Q 48.6875 17.390625 48.6875 27.296875 
z
" id="DejaVuSans-112"/>
     </defs>
     <g transform="translate(172.543542 38.916562)scale(0.1 -0.1)">
      <use xlink:href="#DejaVuSans-118"/>
      <use x="59.179688" xlink:href="#DejaVuSans-97"/>
      <use x="120.458984" xlink:href="#DejaVuSans-114"/>
      <use x="161.572266" xlink:href="#DejaVuSans-108"/>
      <use x="189.355469" xlink:href="#DejaVuSans-111"/>
      <use x="250.537109" xlink:href="#DejaVuSans-99"/>
      <use x="305.517578" xlink:href="#DejaVuSans-105"/>
      <use x="333.300781" xlink:href="#DejaVuSans-114"/>
      <use x="374.414062" xlink:href="#DejaVuSans-97"/>
      <use x="435.693359" xlink:href="#DejaVuSans-112"/>
      <use x="499.169922" xlink:href="#DejaVuSans-116"/>
      <use x="538.378906" xlink:href="#DejaVuSans-111"/>
      <use x="599.560547" xlink:href="#DejaVuSans-114"/>
      <use x="640.673828" xlink:href="#DejaVuSans-43"/>
      <use x="724.462891" xlink:href="#DejaVuSans-100"/>
      <use x="787.939453" xlink:href="#DejaVuSans-101"/>
      <use x="849.462891" xlink:href="#DejaVuSans-108"/>
      <use x="877.246094" xlink:href="#DejaVuSans-108"/>
      <use x="905.029297" xlink:href="#DejaVuSans-121"/>
     </g>
    </g>
    <g id="line2d_27">
     <path d="M 144.543542 50.094687 
L 164.543542 50.094687 
" style="fill:none;stroke:#ff7f0e;stroke-linecap:square;stroke-width:1.5;"/>
    </g>
    <g id="line2d_28"/>
    <g id="text_18">
     <!-- varlociraptor+lancet -->
     <g transform="translate(172.543542 53.594687)scale(0.1 -0.1)">
      <use xlink:href="#DejaVuSans-118"/>
      <use x="59.179688" xlink:href="#DejaVuSans-97"/>
      <use x="120.458984" xlink:href="#DejaVuSans-114"/>
      <use x="161.572266" xlink:href="#DejaVuSans-108"/>
      <use x="189.355469" xlink:href="#DejaVuSans-111"/>
      <use x="250.537109" xlink:href="#DejaVuSans-99"/>
      <use x="305.517578" xlink:href="#DejaVuSans-105"/>
      <use x="333.300781" xlink:href="#DejaVuSans-114"/>
      <use x="374.414062" xlink:href="#DejaVuSans-97"/>
      <use x="435.693359" xlink:href="#DejaVuSans-112"/>
      <use x="499.169922" xlink:href="#DejaVuSans-116"/>
      <use x="538.378906" xlink:href="#DejaVuSans-111"/>
      <use x="599.560547" xlink:href="#DejaVuSans-114"/>
      <use x="640.673828" xlink:href="#DejaVuSans-43"/>
      <use x="724.462891" xlink:href="#DejaVuSans-108"/>
      <use x="752.246094" xlink:href="#DejaVuSans-97"/>
      <use x="813.525391" xlink:href="#DejaVuSans-110"/>
      <use x="876.904297" xlink:href="#DejaVuSans-99"/>
      <use x="931.884766" xlink:href="#DejaVuSans-101"/>
      <use x="993.408203" xlink:href="#DejaVuSans-116"/>
     </g>
    </g>
    <g id="line2d_29">
     <path d="M 144.543542 64.772812 
L 164.543542 64.772812 
" style="fill:none;stroke:#2ca02c;stroke-linecap:square;stroke-width:1.5;"/>
    </g>
    <g id="line2d_30"/>
    <g id="text_19">
     <!-- varlociraptor+manta -->
     <g transform="translate(172.543542 68.272812)scale(0.1 -0.1)">
      <use xlink:href="#DejaVuSans-118"/>
      <use x="59.179688" xlink:href="#DejaVuSans-97"/>
      <use x="120.458984" xlink:href="#DejaVuSans-114"/>
      <use x="161.572266" xlink:href="#DejaVuSans-108"/>
      <use x="189.355469" xlink:href="#DejaVuSans-111"/>
      <use x="250.537109" xlink:href="#DejaVuSans-99"/>
      <use x="305.517578" xlink:href="#DejaVuSans-105"/>
      <use x="333.300781" xlink:href="#DejaVuSans-114"/>
      <use x="374.414062" xlink:href="#DejaVuSans-97"/>
      <use x="435.693359" xlink:href="#DejaVuSans-112"/>
      <use x="499.169922" xlink:href="#DejaVuSans-116"/>
      <use x="538.378906" xlink:href="#DejaVuSans-111"/>
      <use x="599.560547" xlink:href="#DejaVuSans-114"/>
      <use x="640.673828" xlink:href="#DejaVuSans-43"/>
      <use x="724.462891" xlink:href="#DejaVuSans-109"/>
      <use x="821.875" xlink:href="#DejaVuSans-97"/>
      <use x="883.154297" xlink:href="#DejaVuSans-110"/>
      <use x="946.533203" xlink:href="#DejaVuSans-116"/>
      <use x="985.742188" xlink:href="#DejaVuSans-97"/>
     </g>
    </g>
    <g id="line2d_31">
     <path d="M 144.543542 79.450938 
L 164.543542 79.450938 
" style="fill:none;stroke:#d62728;stroke-linecap:square;stroke-width:1.5;"/>
    </g>
    <g id="line2d_32"/>
    <g id="text_20">
     <!-- varlociraptor+strelka -->
     <defs>
      <path d="M 9.078125 75.984375 
L 18.109375 75.984375 
L 18.109375 31.109375 
L 44.921875 54.6875 
L 56.390625 54.6875 
L 27.390625 29.109375 
L 57.625 0 
L 45.90625 0 
L 18.109375 26.703125 
L 18.109375 0 
L 9.078125 0 
z
" id="DejaVuSans-107"/>
     </defs>
     <g transform="translate(172.543542 82.950938)scale(0.1 -0.1)">
      <use xlink:href="#DejaVuSans-118"/>
      <use x="59.179688" xlink:href="#DejaVuSans-97"/>
      <use x="120.458984" xlink:href="#DejaVuSans-114"/>
      <use x="161.572266" xlink:href="#DejaVuSans-108"/>
      <use x="189.355469" xlink:href="#DejaVuSans-111"/>
      <use x="250.537109" xlink:href="#DejaVuSans-99"/>
      <use x="305.517578" xlink:href="#DejaVuSans-105"/>
      <use x="333.300781" xlink:href="#DejaVuSans-114"/>
      <use x="374.414062" xlink:href="#DejaVuSans-97"/>
      <use x="435.693359" xlink:href="#DejaVuSans-112"/>
      <use x="499.169922" xlink:href="#DejaVuSans-116"/>
      <use x="538.378906" xlink:href="#DejaVuSans-111"/>
      <use x="599.560547" xlink:href="#DejaVuSans-114"/>
      <use x="640.673828" xlink:href="#DejaVuSans-43"/>
      <use x="724.462891" xlink:href="#DejaVuSans-115"/>
      <use x="776.5625" xlink:href="#DejaVuSans-116"/>
      <use x="815.771484" xlink:href="#DejaVuSans-114"/>
      <use x="856.853516" xlink:href="#DejaVuSans-101"/>
      <use x="918.376953" xlink:href="#DejaVuSans-108"/>
      <use x="946.160156" xlink:href="#DejaVuSans-107"/>
      <use x="1004.054688" xlink:href="#DejaVuSans-97"/>
     </g>
    </g>
   </g>
  </g>
  <g id="axes_2">
   <g id="patch_6">
    <path d="M 324.327917 242.918125 
L 568.624583 242.918125 
L 568.624583 22.318125 
L 324.327917 22.318125 
z
" style="fill:#ffffff;"/>
   </g>
   <g id="matplotlib.axis_3">
    <g id="xtick_8">
     <g id="line2d_33">
      <g>
       <use style="stroke:#000000;stroke-width:0.8;" x="340.303382" xlink:href="#m41e52e3f55" y="242.918125"/>
      </g>
     </g>
     <g id="text_21">
      <!-- 1 -->
      <g transform="translate(337.122132 257.516563)scale(0.1 -0.1)">
       <use xlink:href="#DejaVuSans-49"/>
      </g>
     </g>
    </g>
    <g id="xtick_9">
     <g id="line2d_34">
      <g>
       <use style="stroke:#000000;stroke-width:0.8;" x="372.4883" xlink:href="#m41e52e3f55" y="242.918125"/>
      </g>
     </g>
     <g id="text_22">
      <!-- 1e+02 -->
      <g transform="translate(355.678144 257.516563)scale(0.1 -0.1)">
       <use xlink:href="#DejaVuSans-49"/>
       <use x="63.623047" xlink:href="#DejaVuSans-101"/>
       <use x="125.146484" xlink:href="#DejaVuSans-43"/>
       <use x="208.935547" xlink:href="#DejaVuSans-48"/>
       <use x="272.558594" xlink:href="#DejaVuSans-50"/>
      </g>
     </g>
    </g>
    <g id="xtick_10">
     <g id="line2d_35">
      <g>
       <use style="stroke:#000000;stroke-width:0.8;" x="404.673219" xlink:href="#m41e52e3f55" y="242.918125"/>
      </g>
     </g>
     <g id="text_23">
      <!-- 2e+04 -->
      <g transform="translate(387.863063 257.516563)scale(0.1 -0.1)">
       <use xlink:href="#DejaVuSans-50"/>
       <use x="63.623047" xlink:href="#DejaVuSans-101"/>
       <use x="125.146484" xlink:href="#DejaVuSans-43"/>
       <use x="208.935547" xlink:href="#DejaVuSans-48"/>
       <use x="272.558594" xlink:href="#DejaVuSans-52"/>
      </g>
     </g>
    </g>
    <g id="xtick_11">
     <g id="line2d_36">
      <g>
       <use style="stroke:#000000;stroke-width:0.8;" x="436.858137" xlink:href="#m41e52e3f55" y="242.918125"/>
      </g>
     </g>
     <g id="text_24">
      <!-- 3e+06 -->
      <defs>
       <path d="M 33.015625 40.375 
Q 26.375 40.375 22.484375 35.828125 
Q 18.609375 31.296875 18.609375 23.390625 
Q 18.609375 15.53125 22.484375 10.953125 
Q 26.375 6.390625 33.015625 6.390625 
Q 39.65625 6.390625 43.53125 10.953125 
Q 47.40625 15.53125 47.40625 23.390625 
Q 47.40625 31.296875 43.53125 35.828125 
Q 39.65625 40.375 33.015625 40.375 
z
M 52.59375 71.296875 
L 52.59375 62.3125 
Q 48.875 64.0625 45.09375 64.984375 
Q 41.3125 65.921875 37.59375 65.921875 
Q 27.828125 65.921875 22.671875 59.328125 
Q 17.53125 52.734375 16.796875 39.40625 
Q 19.671875 43.65625 24.015625 45.921875 
Q 28.375 48.1875 33.59375 48.1875 
Q 44.578125 48.1875 50.953125 41.515625 
Q 57.328125 34.859375 57.328125 23.390625 
Q 57.328125 12.15625 50.6875 5.359375 
Q 44.046875 -1.421875 33.015625 -1.421875 
Q 20.359375 -1.421875 13.671875 8.265625 
Q 6.984375 17.96875 6.984375 36.375 
Q 6.984375 53.65625 15.1875 63.9375 
Q 23.390625 74.21875 37.203125 74.21875 
Q 40.921875 74.21875 44.703125 73.484375 
Q 48.484375 72.75 52.59375 71.296875 
z
" id="DejaVuSans-54"/>
      </defs>
      <g transform="translate(420.047981 257.516563)scale(0.1 -0.1)">
       <use xlink:href="#DejaVuSans-51"/>
       <use x="63.623047" xlink:href="#DejaVuSans-101"/>
       <use x="125.146484" xlink:href="#DejaVuSans-43"/>
       <use x="208.935547" xlink:href="#DejaVuSans-48"/>
       <use x="272.558594" xlink:href="#DejaVuSans-54"/>
      </g>
     </g>
    </g>
    <g id="xtick_12">
     <g id="line2d_37">
      <g>
       <use style="stroke:#000000;stroke-width:0.8;" x="469.043056" xlink:href="#m41e52e3f55" y="242.918125"/>
      </g>
     </g>
    </g>
    <g id="xtick_13">
     <g id="line2d_38">
      <g>
       <use style="stroke:#000000;stroke-width:0.8;" x="501.227974" xlink:href="#m41e52e3f55" y="242.918125"/>
      </g>
     </g>
    </g>
    <g id="xtick_14">
     <g id="line2d_39">
      <g>
       <use style="stroke:#000000;stroke-width:0.8;" x="533.412893" xlink:href="#m41e52e3f55" y="242.918125"/>
      </g>
     </g>
    </g>
    <g id="xtick_15">
     <g id="line2d_40">
      <g>
       <use style="stroke:#000000;stroke-width:0.8;" x="565.597811" xlink:href="#m41e52e3f55" y="242.918125"/>
      </g>
     </g>
    </g>
    <g id="text_25">
     <!-- Pr(somatic) (PHRED) -->
     <g transform="translate(395.059063 271.194687)scale(0.1 -0.1)">
      <use xlink:href="#DejaVuSans-80"/>
      <use x="60.287109" xlink:href="#DejaVuSans-114"/>
      <use x="101.400391" xlink:href="#DejaVuSans-40"/>
      <use x="140.414062" xlink:href="#DejaVuSans-115"/>
      <use x="192.513672" xlink:href="#DejaVuSans-111"/>
      <use x="253.695312" xlink:href="#DejaVuSans-109"/>
      <use x="351.107422" xlink:href="#DejaVuSans-97"/>
      <use x="412.386719" xlink:href="#DejaVuSans-116"/>
      <use x="451.595703" xlink:href="#DejaVuSans-105"/>
      <use x="479.378906" xlink:href="#DejaVuSans-99"/>
      <use x="534.359375" xlink:href="#DejaVuSans-41"/>
      <use x="573.373047" xlink:href="#DejaVuSans-32"/>
      <use x="605.160156" xlink:href="#DejaVuSans-40"/>
      <use x="644.173828" xlink:href="#DejaVuSans-80"/>
      <use x="704.476562" xlink:href="#DejaVuSans-72"/>
      <use x="779.671875" xlink:href="#DejaVuSans-82"/>
      <use x="849.154297" xlink:href="#DejaVuSans-69"/>
      <use x="912.337891" xlink:href="#DejaVuSans-68"/>
      <use x="989.339844" xlink:href="#DejaVuSans-41"/>
     </g>
    </g>
   </g>
   <g id="matplotlib.axis_4">
    <g id="ytick_10">
     <g id="line2d_41">
      <g>
       <use style="stroke:#000000;stroke-width:0.8;" x="324.327917" xlink:href="#m29d01273ab" y="242.918125"/>
      </g>
     </g>
     <g id="text_26">
      <!-- 0.0 -->
      <g transform="translate(301.424792 246.717344)scale(0.1 -0.1)">
       <use xlink:href="#DejaVuSans-48"/>
       <use x="63.623047" xlink:href="#DejaVuSans-46"/>
       <use x="95.410156" xlink:href="#DejaVuSans-48"/>
      </g>
     </g>
    </g>
    <g id="ytick_11">
     <g id="line2d_42">
      <g>
       <use style="stroke:#000000;stroke-width:0.8;" x="324.327917" xlink:href="#m29d01273ab" y="200.290624"/>
      </g>
     </g>
     <g id="text_27">
      <!-- 0.5 -->
      <g transform="translate(301.424792 204.089842)scale(0.1 -0.1)">
       <use xlink:href="#DejaVuSans-48"/>
       <use x="63.623047" xlink:href="#DejaVuSans-46"/>
       <use x="95.410156" xlink:href="#DejaVuSans-53"/>
      </g>
     </g>
    </g>
    <g id="ytick_12">
     <g id="line2d_43">
      <g>
       <use style="stroke:#000000;stroke-width:0.8;" x="324.327917" xlink:href="#m29d01273ab" y="157.663122"/>
      </g>
     </g>
     <g id="text_28">
      <!-- 1.0 -->
      <g transform="translate(301.424792 161.462341)scale(0.1 -0.1)">
       <use xlink:href="#DejaVuSans-49"/>
       <use x="63.623047" xlink:href="#DejaVuSans-46"/>
       <use x="95.410156" xlink:href="#DejaVuSans-48"/>
      </g>
     </g>
    </g>
    <g id="ytick_13">
     <g id="line2d_44">
      <g>
       <use style="stroke:#000000;stroke-width:0.8;" x="324.327917" xlink:href="#m29d01273ab" y="115.035621"/>
      </g>
     </g>
     <g id="text_29">
      <!-- 1.5 -->
      <g transform="translate(301.424792 118.83484)scale(0.1 -0.1)">
       <use xlink:href="#DejaVuSans-49"/>
       <use x="63.623047" xlink:href="#DejaVuSans-46"/>
       <use x="95.410156" xlink:href="#DejaVuSans-53"/>
      </g>
     </g>
    </g>
    <g id="ytick_14">
     <g id="line2d_45">
      <g>
       <use style="stroke:#000000;stroke-width:0.8;" x="324.327917" xlink:href="#m29d01273ab" y="72.40812"/>
      </g>
     </g>
     <g id="text_30">
      <!-- 2.0 -->
      <g transform="translate(301.424792 76.207339)scale(0.1 -0.1)">
       <use xlink:href="#DejaVuSans-50"/>
       <use x="63.623047" xlink:href="#DejaVuSans-46"/>
       <use x="95.410156" xlink:href="#DejaVuSans-48"/>
      </g>
     </g>
    </g>
    <g id="ytick_15">
     <g id="line2d_46">
      <g>
       <use style="stroke:#000000;stroke-width:0.8;" x="324.327917" xlink:href="#m29d01273ab" y="29.780619"/>
      </g>
     </g>
     <g id="text_31">
      <!-- 2.5 -->
      <g transform="translate(301.424792 33.579837)scale(0.1 -0.1)">
       <use xlink:href="#DejaVuSans-50"/>
       <use x="63.623047" xlink:href="#DejaVuSans-46"/>
       <use x="95.410156" xlink:href="#DejaVuSans-53"/>
      </g>
     </g>
    </g>
   </g>
   <g id="line2d_47">
    <path clip-path="url(#p81b864bcce)" d="M 340.410369 234.69735 
L 341.853275 242.918125 
L 343.296181 74.808583 
L 344.739087 73.021521 
L 346.181993 187.634904 
L 347.6249 206.790475 
L 349.067806 229.674507 
L 350.510712 229.748658 
L 351.953618 233.531405 
L 353.396524 233.191632 
L 354.839431 233.278502 
L 356.282337 238.716043 
L 357.725243 237.884588 
L 359.168149 240.248406 
L 360.611055 239.657441 
L 363.496868 241.138843 
L 364.939774 238.867864 
L 366.38268 242.918125 
L 367.825586 242.710789 
L 369.268493 242.918125 
L 372.154305 242.918125 
L 442.856708 242.863673 
L 444.299615 240.588508 
L 445.742521 239.23887 
L 447.185427 242.918125 
L 448.628333 239.470447 
L 450.071239 242.918125 
L 451.514146 239.603934 
L 452.957052 242.918125 
L 454.399958 242.498274 
L 455.842864 242.918125 
L 457.28577 242.716847 
L 458.728677 242.918125 
L 460.171583 242.811194 
L 461.614489 242.918125 
L 463.057395 242.862278 
L 465.943208 242.894144 
L 471.714832 242.918125 
L 478.929363 242.869451 
L 483.258082 242.918125 
L 484.700988 242.842724 
L 486.143894 242.918125 
L 487.586801 242.827082 
L 489.029707 242.918125 
L 490.472613 242.80868 
L 491.915519 242.918125 
L 493.358425 242.786264 
L 494.801331 242.918125 
L 496.244238 242.758084 
L 497.687144 242.918125 
L 499.13005 242.721572 
L 500.572956 242.918125 
L 502.015862 242.672765 
L 503.458769 242.918125 
L 504.901675 242.605253 
L 506.344581 242.918125 
L 507.787487 242.508106 
L 509.230393 242.918125 
L 510.6733 242.361429 
L 512.116206 242.918125 
L 513.559112 242.125914 
L 515.002018 242.918125 
L 516.444924 241.71452 
L 517.887831 242.918125 
L 519.330737 240.895585 
L 520.773643 242.918125 
L 522.216549 236.464478 
L 523.659455 242.918125 
L 523.659455 242.918125 
" style="fill:none;stroke:#1f77b4;stroke-linecap:square;stroke-width:1.5;"/>
   </g>
   <g id="line2d_48">
    <path clip-path="url(#p81b864bcce)" d="M 443.692269 242.902187 
L 447.277401 242.78325 
L 449.966249 242.460756 
L 452.655098 242.119558 
L 454.447663 242.117653 
L 457.136512 242.456321 
L 459.82536 242.780976 
L 463.410492 242.908441 
L 482.232431 242.918119 
L 491.19526 242.838387 
L 493.884108 242.584674 
L 497.469239 242.116766 
L 499.261805 242.117159 
L 504.639502 242.509912 
L 506.432068 242.183627 
L 508.224633 241.524899 
L 510.913482 240.177526 
L 512.706048 239.034296 
L 513.60233 238.228093 
L 514.498613 237.12001 
L 515.394896 235.582489 
L 516.291179 233.496276 
L 517.187462 230.769997 
L 518.083745 227.357711 
L 518.980027 223.27475 
L 520.772593 213.539311 
L 522.565159 203.20434 
L 523.461442 198.53312 
L 524.357724 194.541732 
L 525.254007 191.393069 
L 526.15029 189.146962 
L 527.046573 187.768565 
L 527.942856 187.151351 
L 528.839139 187.140528 
L 529.735421 187.547085 
L 531.527987 188.717168 
L 532.42427 188.999167 
L 533.320553 188.805222 
L 534.216836 188.055013 
L 536.905684 184.411292 
L 537.801967 184.203935 
L 538.69825 185.329368 
L 539.594533 188.06534 
L 540.490816 192.405051 
L 541.387098 198.055193 
L 544.97223 223.297949 
L 545.868513 228.121504 
L 546.764795 232.023132 
L 547.661078 235.074787 
L 548.557361 237.402009 
L 549.453644 239.140075 
L 550.349927 240.410541 
L 551.24621 241.314782 
L 552.142492 241.936464 
L 553.038775 242.345772 
L 554.831341 242.752932 
L 557.520189 242.897959 
L 557.520189 242.897959 
" style="fill:none;stroke:#1f77b4;stroke-dasharray:1.5,2.475;stroke-dashoffset:0;stroke-width:1.5;"/>
   </g>
   <g id="line2d_49">
    <path clip-path="url(#p81b864bcce)" d="M 340.544156 235.510363 
L 342.095779 242.918125 
L 343.647402 122.731642 
L 345.199024 128.389305 
L 346.750647 203.932428 
L 348.30227 209.975219 
L 349.853893 234.268594 
L 351.405516 230.991332 
L 352.957139 237.749779 
L 354.508761 229.762539 
L 356.060384 240.232969 
L 357.612007 237.996581 
L 359.16363 242.590273 
L 360.715253 239.279652 
L 362.266876 242.260105 
L 363.818498 240.747945 
L 365.370121 242.150199 
L 366.921744 242.78527 
L 368.473367 242.918125 
L 370.02499 242.818752 
L 371.576613 242.918125 
L 373.128236 242.862005 
L 376.231481 242.893957 
L 377.783104 242.918125 
L 379.334727 242.518329 
L 380.88635 241.86085 
L 382.437973 242.918125 
L 383.989595 242.839804 
L 387.092841 242.886391 
L 393.299332 242.908212 
L 411.918807 242.918125 
L 425.883412 242.850486 
L 427.435035 242.918125 
L 428.986658 242.805507 
L 430.538281 242.918125 
L 432.089904 242.6938 
L 433.641526 242.918125 
L 435.193149 240.510704 
L 436.744772 241.030308 
L 438.296395 242.802127 
L 439.848018 242.421795 
L 441.399641 238.920273 
L 442.951263 242.918125 
L 444.502886 239.523071 
L 446.054509 241.917323 
L 447.606132 241.426384 
L 449.157755 241.652387 
L 450.709378 240.050992 
L 452.261 240.058867 
L 453.812623 242.918125 
L 455.364246 242.796408 
L 456.915869 242.918125 
L 461.570737 242.9035 
L 472.432097 242.918125 
L 483.293457 242.892539 
L 487.948326 242.918125 
L 492.603194 242.878235 
L 497.258063 242.918125 
L 501.912931 242.857082 
L 503.464554 242.918125 
L 505.016177 242.848149 
L 506.5678 242.918125 
L 508.119423 242.838927 
L 509.671046 242.918125 
L 511.222668 242.831691 
L 512.774291 242.918125 
L 514.325914 242.834226 
L 515.877537 242.918125 
L 518.980783 242.885678 
L 520.532405 242.918125 
L 522.084028 240.248155 
L 523.635651 242.600431 
L 525.187274 242.918125 
L 526.738897 242.333294 
L 528.29052 242.918125 
L 529.842142 240.491463 
L 531.393765 242.918125 
L 532.945388 240.216227 
L 534.497011 242.918125 
L 536.048634 237.644278 
L 537.600257 242.918125 
L 537.600257 242.918125 
" style="fill:none;stroke:#ff7f0e;stroke-linecap:square;stroke-width:1.5;"/>
   </g>
   <g id="line2d_50">
    <path clip-path="url(#p81b864bcce)" d="M 335.432311 242.895176 
L 337.155109 242.718422 
L 338.877907 241.889955 
L 342.323504 237.658963 
L 344.046303 237.501992 
L 347.491899 241.23299 
L 349.214698 242.242364 
L 350.937496 242.6202 
L 354.383093 242.753914 
L 359.551488 242.818353 
L 364.719884 242.917463 
L 431.909022 242.876911 
L 437.077417 242.6666 
L 440.523014 242.787965 
L 449.137006 242.628603 
L 452.582603 242.53459 
L 459.473796 242.912771 
L 487.038571 242.884744 
L 492.206966 242.7927 
L 493.929764 242.790157 
L 495.652563 242.669545 
L 499.09816 242.121051 
L 502.543756 241.351207 
L 504.266555 240.798333 
L 505.989353 239.69781 
L 507.712152 237.650329 
L 509.43495 234.889181 
L 511.157749 231.675058 
L 512.880547 227.774563 
L 514.603345 223.104899 
L 516.326144 217.807087 
L 519.771741 206.342396 
L 521.494539 199.96204 
L 523.217337 193.151098 
L 524.940136 187.725661 
L 526.662934 184.312847 
L 528.385733 183.377733 
L 530.108531 185.836202 
L 531.831329 190.124115 
L 533.554128 193.372288 
L 535.276926 195.595823 
L 536.999725 199.829175 
L 538.722523 207.766681 
L 540.445322 217.840978 
L 542.16812 227.185702 
L 543.890918 234.053678 
L 545.613717 238.227957 
L 547.336515 240.541426 
L 549.059314 241.894871 
L 550.782112 242.602673 
L 552.50491 242.855291 
L 554.227709 242.908613 
L 554.227709 242.908613 
" style="fill:none;stroke:#ff7f0e;stroke-dasharray:1.5,2.475;stroke-dashoffset:0;stroke-width:1.5;"/>
   </g>
   <g id="line2d_51">
    <path clip-path="url(#p81b864bcce)" d="M 337.680007 242.240591 
L 339.277085 233.674238 
L 340.874164 172.47077 
L 342.471243 59.117693 
L 344.068322 57.08173 
L 345.665401 125.4946 
L 347.262479 168.300404 
L 348.859558 193.90946 
L 350.456637 210.193033 
L 352.053716 216.797457 
L 353.650794 217.418014 
L 355.247873 221.182577 
L 356.844952 228.819702 
L 358.442031 233.063021 
L 360.03911 234.926838 
L 361.636188 235.686467 
L 363.233267 238.532741 
L 364.830346 239.604303 
L 366.427425 241.625354 
L 368.024504 242.786822 
L 369.621582 242.908372 
L 388.786528 242.918125 
L 521.344066 242.766235 
L 522.941145 241.497939 
L 524.538224 239.658424 
L 526.135303 241.236877 
L 527.732381 242.643239 
L 529.32946 242.897106 
L 530.926539 242.911369 
L 532.523618 242.797361 
L 534.120697 241.783147 
L 535.717775 240.03959 
L 537.314854 240.864603 
L 538.911933 242.327168 
L 540.509012 242.918125 
L 540.509012 242.918125 
" style="fill:none;stroke:#2ca02c;stroke-linecap:square;stroke-width:1.5;"/>
   </g>
   <g id="line2d_52">
    <path clip-path="url(#p81b864bcce)" d="M 494.800838 242.909433 
L 497.622461 242.820698 
L 499.973813 242.519198 
L 504.676519 241.750675 
L 505.61706 241.26503 
L 506.557601 240.501751 
L 507.498142 239.413521 
L 508.438683 237.973473 
L 509.849494 235.274368 
L 511.260306 232.50464 
L 512.200847 230.975811 
L 514.552199 227.596114 
L 515.49274 225.494711 
L 516.433281 222.606674 
L 517.844093 217.088889 
L 522.546798 197.176164 
L 523.487339 194.175431 
L 524.42788 191.981707 
L 529.130585 183.506986 
L 529.600856 183.144798 
L 530.071127 183.076655 
L 530.541397 183.302578 
L 531.011668 183.791556 
L 531.952209 185.320558 
L 533.36302 187.906879 
L 534.303561 189.190921 
L 535.714373 190.444881 
L 536.184643 190.899773 
L 536.654914 191.509558 
L 537.125184 192.358868 
L 537.595455 193.519673 
L 538.065725 195.042239 
L 539.006266 199.230924 
L 539.946807 204.745244 
L 543.238701 225.82562 
L 544.179242 230.269607 
L 545.119783 233.728689 
L 546.060324 236.356064 
L 547.000865 238.359839 
L 547.941406 239.904018 
L 548.881947 241.070471 
L 549.822488 241.893009 
L 550.763029 242.41254 
L 551.70357 242.699107 
L 553.114382 242.869661 
L 554.525193 242.907914 
L 554.525193 242.907914 
" style="fill:none;stroke:#2ca02c;stroke-dasharray:1.5,2.475;stroke-dashoffset:0;stroke-width:1.5;"/>
   </g>
   <g id="line2d_53">
    <path clip-path="url(#p81b864bcce)" d="M 337.621534 242.373618 
L 338.063451 241.626013 
L 338.505367 239.902644 
L 338.947284 236.372409 
L 339.389201 229.807815 
L 339.831118 218.701755 
L 340.273034 201.635742 
L 340.935909 163.670293 
L 342.703576 45.33305 
L 343.145493 33.915567 
L 343.366451 32.822887 
L 343.58741 34.711068 
L 343.808368 39.322677 
L 344.250285 55.14182 
L 346.459869 154.52216 
L 347.122744 169.719568 
L 347.785619 179.99906 
L 349.111369 196.3067 
L 349.995202 204.685357 
L 350.658078 208.958075 
L 351.541911 213.017742 
L 352.425745 216.206473 
L 353.08862 217.968343 
L 354.635328 221.381003 
L 355.519162 224.276914 
L 356.623954 227.839456 
L 357.507787 229.875072 
L 358.833537 232.217541 
L 359.496412 233.026711 
L 360.380246 233.654736 
L 360.822163 234.017809 
L 361.264079 234.621193 
L 361.705996 235.550369 
L 362.589829 238.151721 
L 363.473663 240.663823 
L 364.136538 241.885237 
L 364.578455 242.354385 
L 365.020372 242.594066 
L 365.462288 242.622146 
L 365.683247 242.541639 
L 365.683247 242.541639 
" style="fill:none;stroke:#d62728;stroke-linecap:square;stroke-width:1.5;"/>
   </g>
   <g id="line2d_54">
    <path clip-path="url(#p81b864bcce)" d="M 474.002331 242.282529 
L 475.947722 242.130834 
L 477.893113 241.728089 
L 479.838504 241.017286 
L 481.135431 240.333121 
L 482.432359 239.450113 
L 483.729286 238.343366 
L 485.026213 236.99302 
L 486.32314 235.388173 
L 488.268531 232.512473 
L 490.213922 229.151066 
L 496.698559 217.343927 
L 497.995486 215.584601 
L 499.292413 214.244862 
L 500.589341 213.384896 
L 501.237804 213.145331 
L 501.886268 213.033993 
L 502.534731 213.048979 
L 503.183195 213.186071 
L 504.480122 213.798412 
L 505.77705 214.793883 
L 507.722441 216.767808 
L 510.964759 220.245566 
L 512.261686 221.321152 
L 513.558613 222.056109 
L 514.855541 222.383477 
L 516.152468 222.273518 
L 517.449395 221.736215 
L 518.746323 220.820433 
L 520.04325 219.60981 
L 525.230959 214.25429 
L 526.527886 213.438773 
L 527.824814 213.048979 
L 528.473277 213.033993 
L 529.121741 213.145331 
L 529.770205 213.384896 
L 531.067132 214.244862 
L 532.364059 215.584601 
L 533.660986 217.343927 
L 535.606377 220.581375 
L 538.848696 226.723272 
L 541.44255 231.439338 
L 543.387941 234.490329 
L 544.684868 236.222632 
L 545.981796 237.699581 
L 547.278723 238.926111 
L 548.57565 239.918103 
L 549.872577 240.698407 
L 551.169505 241.293077 
L 553.114896 241.893152 
L 555.060287 242.207366 
L 556.357214 242.282529 
L 556.357214 242.282529 
" style="fill:none;stroke:#d62728;stroke-dasharray:1.5,2.475;stroke-dashoffset:0;stroke-width:1.5;"/>
   </g>
   <g id="patch_7">
    <path d="M 324.327917 242.918125 
L 324.327917 22.318125 
" style="fill:none;stroke:#000000;stroke-linecap:square;stroke-linejoin:miter;stroke-width:0.8;"/>
   </g>
   <g id="patch_8">
    <path d="M 324.327917 242.918125 
L 568.624583 242.918125 
" style="fill:none;stroke:#000000;stroke-linecap:square;stroke-linejoin:miter;stroke-width:0.8;"/>
   </g>
   <g id="text_32">
    <!-- 30 - 100 -->
    <g transform="translate(421.410313 16.318125)scale(0.12 -0.12)">
     <use xlink:href="#DejaVuSans-51"/>
     <use x="63.623047" xlink:href="#DejaVuSans-48"/>
     <use x="127.246094" xlink:href="#DejaVuSans-32"/>
     <use x="159.033203" xlink:href="#DejaVuSans-45"/>
     <use x="195.117188" xlink:href="#DejaVuSans-32"/>
     <use x="226.904297" xlink:href="#DejaVuSans-49"/>
     <use x="290.527344" xlink:href="#DejaVuSans-48"/>
     <use x="354.150391" xlink:href="#DejaVuSans-48"/>
    </g>
   </g>
  </g>
 </g>
 <defs>
  <clipPath id="pb6cd6a2e47">
   <rect height="220.6" width="244.296667" x="43.78125" y="22.318125"/>
  </clipPath>
  <clipPath id="p81b864bcce">
   <rect height="220.6" width="244.296667" x="324.327917" y="22.318125"/>
  </clipPath>
 </defs>
</svg>
