<?xml version="1.0" encoding="utf-8" standalone="no"?>
<!DOCTYPE svg PUBLIC "-//W3C//DTD SVG 1.1//EN"
  "http://www.w3.org/Graphics/SVG/1.1/DTD/svg11.dtd">
<!-- Created with matplotlib (https://matplotlib.org/) -->
<svg height="280.474375pt" version="1.1" viewBox="0 0 579.324583 280.474375" width="579.324583pt" xmlns="http://www.w3.org/2000/svg" xmlns:xlink="http://www.w3.org/1999/xlink">
 <defs>
  <style type="text/css">
*{stroke-linecap:butt;stroke-linejoin:round;}
  </style>
 </defs>
 <g id="figure_1">
  <g id="patch_1">
   <path d="M 0 280.474375 
L 579.324583 280.474375 
L 579.324583 0 
L 0 0 
z
" style="fill:#ffffff;"/>
  </g>
  <g id="axes_1">
   <g id="patch_2">
    <path d="M 43.78125 242.918125 
L 288.077917 242.918125 
L 288.077917 22.318125 
L 43.78125 22.318125 
z
" style="fill:#ffffff;"/>
   </g>
   <g id="matplotlib.axis_1">
    <g id="xtick_1">
     <g id="line2d_1">
      <defs>
       <path d="M 0 0 
L 0 3.5 
" id="m94b1e84599" style="stroke:#000000;stroke-width:0.8;"/>
      </defs>
      <g>
       <use style="stroke:#000000;stroke-width:0.8;" x="67.538649" xlink:href="#m94b1e84599" y="242.918125"/>
      </g>
     </g>
     <g id="text_1">
      <!-- 0.007 -->
      <defs>
       <path d="M 31.78125 66.40625 
Q 24.171875 66.40625 20.328125 58.90625 
Q 16.5 51.421875 16.5 36.375 
Q 16.5 21.390625 20.328125 13.890625 
Q 24.171875 6.390625 31.78125 6.390625 
Q 39.453125 6.390625 43.28125 13.890625 
Q 47.125 21.390625 47.125 36.375 
Q 47.125 51.421875 43.28125 58.90625 
Q 39.453125 66.40625 31.78125 66.40625 
z
M 31.78125 74.21875 
Q 44.046875 74.21875 50.515625 64.515625 
Q 56.984375 54.828125 56.984375 36.375 
Q 56.984375 17.96875 50.515625 8.265625 
Q 44.046875 -1.421875 31.78125 -1.421875 
Q 19.53125 -1.421875 13.0625 8.265625 
Q 6.59375 17.96875 6.59375 36.375 
Q 6.59375 54.828125 13.0625 64.515625 
Q 19.53125 74.21875 31.78125 74.21875 
z
" id="DejaVuSans-48"/>
       <path d="M 10.6875 12.40625 
L 21 12.40625 
L 21 0 
L 10.6875 0 
z
" id="DejaVuSans-46"/>
       <path d="M 8.203125 72.90625 
L 55.078125 72.90625 
L 55.078125 68.703125 
L 28.609375 0 
L 18.3125 0 
L 43.21875 64.59375 
L 8.203125 64.59375 
z
" id="DejaVuSans-55"/>
      </defs>
      <g transform="translate(53.224586 257.516563)scale(0.1 -0.1)">
       <use xlink:href="#DejaVuSans-48"/>
       <use x="63.623047" xlink:href="#DejaVuSans-46"/>
       <use x="95.410156" xlink:href="#DejaVuSans-48"/>
       <use x="159.033203" xlink:href="#DejaVuSans-48"/>
       <use x="222.65625" xlink:href="#DejaVuSans-55"/>
      </g>
     </g>
    </g>
    <g id="xtick_2">
     <g id="line2d_2">
      <g>
       <use style="stroke:#000000;stroke-width:0.8;" x="99.175072" xlink:href="#m94b1e84599" y="242.918125"/>
      </g>
     </g>
     <g id="text_2">
      <!-- 1 -->
      <defs>
       <path d="M 12.40625 8.296875 
L 28.515625 8.296875 
L 28.515625 63.921875 
L 10.984375 60.40625 
L 10.984375 69.390625 
L 28.421875 72.90625 
L 38.28125 72.90625 
L 38.28125 8.296875 
L 54.390625 8.296875 
L 54.390625 0 
L 12.40625 0 
z
" id="DejaVuSans-49"/>
      </defs>
      <g transform="translate(95.993822 257.516563)scale(0.1 -0.1)">
       <use xlink:href="#DejaVuSans-49"/>
      </g>
     </g>
    </g>
    <g id="xtick_3">
     <g id="line2d_3">
      <g>
       <use style="stroke:#000000;stroke-width:0.8;" x="130.811496" xlink:href="#m94b1e84599" y="242.918125"/>
      </g>
     </g>
     <g id="text_3">
      <!-- 1e+02 -->
      <defs>
       <path d="M 56.203125 29.59375 
L 56.203125 25.203125 
L 14.890625 25.203125 
Q 15.484375 15.921875 20.484375 11.0625 
Q 25.484375 6.203125 34.421875 6.203125 
Q 39.59375 6.203125 44.453125 7.46875 
Q 49.3125 8.734375 54.109375 11.28125 
L 54.109375 2.78125 
Q 49.265625 0.734375 44.1875 -0.34375 
Q 39.109375 -1.421875 33.890625 -1.421875 
Q 20.796875 -1.421875 13.15625 6.1875 
Q 5.515625 13.8125 5.515625 26.8125 
Q 5.515625 40.234375 12.765625 48.109375 
Q 20.015625 56 32.328125 56 
Q 43.359375 56 49.78125 48.890625 
Q 56.203125 41.796875 56.203125 29.59375 
z
M 47.21875 32.234375 
Q 47.125 39.59375 43.09375 43.984375 
Q 39.0625 48.390625 32.421875 48.390625 
Q 24.90625 48.390625 20.390625 44.140625 
Q 15.875 39.890625 15.1875 32.171875 
z
" id="DejaVuSans-101"/>
       <path d="M 46 62.703125 
L 46 35.5 
L 73.1875 35.5 
L 73.1875 27.203125 
L 46 27.203125 
L 46 0 
L 37.796875 0 
L 37.796875 27.203125 
L 10.59375 27.203125 
L 10.59375 35.5 
L 37.796875 35.5 
L 37.796875 62.703125 
z
" id="DejaVuSans-43"/>
       <path d="M 19.1875 8.296875 
L 53.609375 8.296875 
L 53.609375 0 
L 7.328125 0 
L 7.328125 8.296875 
Q 12.9375 14.109375 22.625 23.890625 
Q 32.328125 33.6875 34.8125 36.53125 
Q 39.546875 41.84375 41.421875 45.53125 
Q 43.3125 49.21875 43.3125 52.78125 
Q 43.3125 58.59375 39.234375 62.25 
Q 35.15625 65.921875 28.609375 65.921875 
Q 23.96875 65.921875 18.8125 64.3125 
Q 13.671875 62.703125 7.8125 59.421875 
L 7.8125 69.390625 
Q 13.765625 71.78125 18.9375 73 
Q 24.125 74.21875 28.421875 74.21875 
Q 39.75 74.21875 46.484375 68.546875 
Q 53.21875 62.890625 53.21875 53.421875 
Q 53.21875 48.921875 51.53125 44.890625 
Q 49.859375 40.875 45.40625 35.40625 
Q 44.1875 33.984375 37.640625 27.21875 
Q 31.109375 20.453125 19.1875 8.296875 
z
" id="DejaVuSans-50"/>
      </defs>
      <g transform="translate(114.001339 257.516563)scale(0.1 -0.1)">
       <use xlink:href="#DejaVuSans-49"/>
       <use x="63.623047" xlink:href="#DejaVuSans-101"/>
       <use x="125.146484" xlink:href="#DejaVuSans-43"/>
       <use x="208.935547" xlink:href="#DejaVuSans-48"/>
       <use x="272.558594" xlink:href="#DejaVuSans-50"/>
      </g>
     </g>
    </g>
    <g id="xtick_4">
     <g id="line2d_4">
      <g>
       <use style="stroke:#000000;stroke-width:0.8;" x="162.447919" xlink:href="#m94b1e84599" y="242.918125"/>
      </g>
     </g>
     <g id="text_4">
      <!-- 2e+04 -->
      <defs>
       <path d="M 37.796875 64.3125 
L 12.890625 25.390625 
L 37.796875 25.390625 
z
M 35.203125 72.90625 
L 47.609375 72.90625 
L 47.609375 25.390625 
L 58.015625 25.390625 
L 58.015625 17.1875 
L 47.609375 17.1875 
L 47.609375 0 
L 37.796875 0 
L 37.796875 17.1875 
L 4.890625 17.1875 
L 4.890625 26.703125 
z
" id="DejaVuSans-52"/>
      </defs>
      <g transform="translate(145.637763 257.516563)scale(0.1 -0.1)">
       <use xlink:href="#DejaVuSans-50"/>
       <use x="63.623047" xlink:href="#DejaVuSans-101"/>
       <use x="125.146484" xlink:href="#DejaVuSans-43"/>
       <use x="208.935547" xlink:href="#DejaVuSans-48"/>
       <use x="272.558594" xlink:href="#DejaVuSans-52"/>
      </g>
     </g>
    </g>
    <g id="xtick_5">
     <g id="line2d_5">
      <g>
       <use style="stroke:#000000;stroke-width:0.8;" x="194.084343" xlink:href="#m94b1e84599" y="242.918125"/>
      </g>
     </g>
    </g>
    <g id="xtick_6">
     <g id="line2d_6">
      <g>
       <use style="stroke:#000000;stroke-width:0.8;" x="225.720766" xlink:href="#m94b1e84599" y="242.918125"/>
      </g>
     </g>
    </g>
    <g id="xtick_7">
     <g id="line2d_7">
      <g>
       <use style="stroke:#000000;stroke-width:0.8;" x="257.35719" xlink:href="#m94b1e84599" y="242.918125"/>
      </g>
     </g>
    </g>
    <g id="text_5">
     <!-- Pr(somatic) (PHRED) -->
     <defs>
      <path d="M 19.671875 64.796875 
L 19.671875 37.40625 
L 32.078125 37.40625 
Q 38.96875 37.40625 42.71875 40.96875 
Q 46.484375 44.53125 46.484375 51.125 
Q 46.484375 57.671875 42.71875 61.234375 
Q 38.96875 64.796875 32.078125 64.796875 
z
M 9.8125 72.90625 
L 32.078125 72.90625 
Q 44.34375 72.90625 50.609375 67.359375 
Q 56.890625 61.8125 56.890625 51.125 
Q 56.890625 40.328125 50.609375 34.8125 
Q 44.34375 29.296875 32.078125 29.296875 
L 19.671875 29.296875 
L 19.671875 0 
L 9.8125 0 
z
" id="DejaVuSans-80"/>
      <path d="M 41.109375 46.296875 
Q 39.59375 47.171875 37.8125 47.578125 
Q 36.03125 48 33.890625 48 
Q 26.265625 48 22.1875 43.046875 
Q 18.109375 38.09375 18.109375 28.8125 
L 18.109375 0 
L 9.078125 0 
L 9.078125 54.6875 
L 18.109375 54.6875 
L 18.109375 46.1875 
Q 20.953125 51.171875 25.484375 53.578125 
Q 30.03125 56 36.53125 56 
Q 37.453125 56 38.578125 55.875 
Q 39.703125 55.765625 41.0625 55.515625 
z
" id="DejaVuSans-114"/>
      <path d="M 31 75.875 
Q 24.46875 64.65625 21.28125 53.65625 
Q 18.109375 42.671875 18.109375 31.390625 
Q 18.109375 20.125 21.3125 9.0625 
Q 24.515625 -2 31 -13.1875 
L 23.1875 -13.1875 
Q 15.875 -1.703125 12.234375 9.375 
Q 8.59375 20.453125 8.59375 31.390625 
Q 8.59375 42.28125 12.203125 53.3125 
Q 15.828125 64.359375 23.1875 75.875 
z
" id="DejaVuSans-40"/>
      <path d="M 44.28125 53.078125 
L 44.28125 44.578125 
Q 40.484375 46.53125 36.375 47.5 
Q 32.28125 48.484375 27.875 48.484375 
Q 21.1875 48.484375 17.84375 46.4375 
Q 14.5 44.390625 14.5 40.28125 
Q 14.5 37.15625 16.890625 35.375 
Q 19.28125 33.59375 26.515625 31.984375 
L 29.59375 31.296875 
Q 39.15625 29.25 43.1875 25.515625 
Q 47.21875 21.78125 47.21875 15.09375 
Q 47.21875 7.46875 41.1875 3.015625 
Q 35.15625 -1.421875 24.609375 -1.421875 
Q 20.21875 -1.421875 15.453125 -0.5625 
Q 10.6875 0.296875 5.421875 2 
L 5.421875 11.28125 
Q 10.40625 8.6875 15.234375 7.390625 
Q 20.0625 6.109375 24.8125 6.109375 
Q 31.15625 6.109375 34.5625 8.28125 
Q 37.984375 10.453125 37.984375 14.40625 
Q 37.984375 18.0625 35.515625 20.015625 
Q 33.0625 21.96875 24.703125 23.78125 
L 21.578125 24.515625 
Q 13.234375 26.265625 9.515625 29.90625 
Q 5.8125 33.546875 5.8125 39.890625 
Q 5.8125 47.609375 11.28125 51.796875 
Q 16.75 56 26.8125 56 
Q 31.78125 56 36.171875 55.265625 
Q 40.578125 54.546875 44.28125 53.078125 
z
" id="DejaVuSans-115"/>
      <path d="M 30.609375 48.390625 
Q 23.390625 48.390625 19.1875 42.75 
Q 14.984375 37.109375 14.984375 27.296875 
Q 14.984375 17.484375 19.15625 11.84375 
Q 23.34375 6.203125 30.609375 6.203125 
Q 37.796875 6.203125 41.984375 11.859375 
Q 46.1875 17.53125 46.1875 27.296875 
Q 46.1875 37.015625 41.984375 42.703125 
Q 37.796875 48.390625 30.609375 48.390625 
z
M 30.609375 56 
Q 42.328125 56 49.015625 48.375 
Q 55.71875 40.765625 55.71875 27.296875 
Q 55.71875 13.875 49.015625 6.21875 
Q 42.328125 -1.421875 30.609375 -1.421875 
Q 18.84375 -1.421875 12.171875 6.21875 
Q 5.515625 13.875 5.515625 27.296875 
Q 5.515625 40.765625 12.171875 48.375 
Q 18.84375 56 30.609375 56 
z
" id="DejaVuSans-111"/>
      <path d="M 52 44.1875 
Q 55.375 50.25 60.0625 53.125 
Q 64.75 56 71.09375 56 
Q 79.640625 56 84.28125 50.015625 
Q 88.921875 44.046875 88.921875 33.015625 
L 88.921875 0 
L 79.890625 0 
L 79.890625 32.71875 
Q 79.890625 40.578125 77.09375 44.375 
Q 74.3125 48.1875 68.609375 48.1875 
Q 61.625 48.1875 57.5625 43.546875 
Q 53.515625 38.921875 53.515625 30.90625 
L 53.515625 0 
L 44.484375 0 
L 44.484375 32.71875 
Q 44.484375 40.625 41.703125 44.40625 
Q 38.921875 48.1875 33.109375 48.1875 
Q 26.21875 48.1875 22.15625 43.53125 
Q 18.109375 38.875 18.109375 30.90625 
L 18.109375 0 
L 9.078125 0 
L 9.078125 54.6875 
L 18.109375 54.6875 
L 18.109375 46.1875 
Q 21.1875 51.21875 25.484375 53.609375 
Q 29.78125 56 35.6875 56 
Q 41.65625 56 45.828125 52.96875 
Q 50 49.953125 52 44.1875 
z
" id="DejaVuSans-109"/>
      <path d="M 34.28125 27.484375 
Q 23.390625 27.484375 19.1875 25 
Q 14.984375 22.515625 14.984375 16.5 
Q 14.984375 11.71875 18.140625 8.90625 
Q 21.296875 6.109375 26.703125 6.109375 
Q 34.1875 6.109375 38.703125 11.40625 
Q 43.21875 16.703125 43.21875 25.484375 
L 43.21875 27.484375 
z
M 52.203125 31.203125 
L 52.203125 0 
L 43.21875 0 
L 43.21875 8.296875 
Q 40.140625 3.328125 35.546875 0.953125 
Q 30.953125 -1.421875 24.3125 -1.421875 
Q 15.921875 -1.421875 10.953125 3.296875 
Q 6 8.015625 6 15.921875 
Q 6 25.140625 12.171875 29.828125 
Q 18.359375 34.515625 30.609375 34.515625 
L 43.21875 34.515625 
L 43.21875 35.40625 
Q 43.21875 41.609375 39.140625 45 
Q 35.0625 48.390625 27.6875 48.390625 
Q 23 48.390625 18.546875 47.265625 
Q 14.109375 46.140625 10.015625 43.890625 
L 10.015625 52.203125 
Q 14.9375 54.109375 19.578125 55.046875 
Q 24.21875 56 28.609375 56 
Q 40.484375 56 46.34375 49.84375 
Q 52.203125 43.703125 52.203125 31.203125 
z
" id="DejaVuSans-97"/>
      <path d="M 18.3125 70.21875 
L 18.3125 54.6875 
L 36.8125 54.6875 
L 36.8125 47.703125 
L 18.3125 47.703125 
L 18.3125 18.015625 
Q 18.3125 11.328125 20.140625 9.421875 
Q 21.96875 7.515625 27.59375 7.515625 
L 36.8125 7.515625 
L 36.8125 0 
L 27.59375 0 
Q 17.1875 0 13.234375 3.875 
Q 9.28125 7.765625 9.28125 18.015625 
L 9.28125 47.703125 
L 2.6875 47.703125 
L 2.6875 54.6875 
L 9.28125 54.6875 
L 9.28125 70.21875 
z
" id="DejaVuSans-116"/>
      <path d="M 9.421875 54.6875 
L 18.40625 54.6875 
L 18.40625 0 
L 9.421875 0 
z
M 9.421875 75.984375 
L 18.40625 75.984375 
L 18.40625 64.59375 
L 9.421875 64.59375 
z
" id="DejaVuSans-105"/>
      <path d="M 48.78125 52.59375 
L 48.78125 44.1875 
Q 44.96875 46.296875 41.140625 47.34375 
Q 37.3125 48.390625 33.40625 48.390625 
Q 24.65625 48.390625 19.8125 42.84375 
Q 14.984375 37.3125 14.984375 27.296875 
Q 14.984375 17.28125 19.8125 11.734375 
Q 24.65625 6.203125 33.40625 6.203125 
Q 37.3125 6.203125 41.140625 7.25 
Q 44.96875 8.296875 48.78125 10.40625 
L 48.78125 2.09375 
Q 45.015625 0.34375 40.984375 -0.53125 
Q 36.96875 -1.421875 32.421875 -1.421875 
Q 20.0625 -1.421875 12.78125 6.34375 
Q 5.515625 14.109375 5.515625 27.296875 
Q 5.515625 40.671875 12.859375 48.328125 
Q 20.21875 56 33.015625 56 
Q 37.15625 56 41.109375 55.140625 
Q 45.0625 54.296875 48.78125 52.59375 
z
" id="DejaVuSans-99"/>
      <path d="M 8.015625 75.875 
L 15.828125 75.875 
Q 23.140625 64.359375 26.78125 53.3125 
Q 30.421875 42.28125 30.421875 31.390625 
Q 30.421875 20.453125 26.78125 9.375 
Q 23.140625 -1.703125 15.828125 -13.1875 
L 8.015625 -13.1875 
Q 14.5 -2 17.703125 9.0625 
Q 20.90625 20.125 20.90625 31.390625 
Q 20.90625 42.671875 17.703125 53.65625 
Q 14.5 64.65625 8.015625 75.875 
z
" id="DejaVuSans-41"/>
      <path id="DejaVuSans-32"/>
      <path d="M 9.8125 72.90625 
L 19.671875 72.90625 
L 19.671875 43.015625 
L 55.515625 43.015625 
L 55.515625 72.90625 
L 65.375 72.90625 
L 65.375 0 
L 55.515625 0 
L 55.515625 34.71875 
L 19.671875 34.71875 
L 19.671875 0 
L 9.8125 0 
z
" id="DejaVuSans-72"/>
      <path d="M 44.390625 34.1875 
Q 47.5625 33.109375 50.5625 29.59375 
Q 53.5625 26.078125 56.59375 19.921875 
L 66.609375 0 
L 56 0 
L 46.6875 18.703125 
Q 43.0625 26.03125 39.671875 28.421875 
Q 36.28125 30.8125 30.421875 30.8125 
L 19.671875 30.8125 
L 19.671875 0 
L 9.8125 0 
L 9.8125 72.90625 
L 32.078125 72.90625 
Q 44.578125 72.90625 50.734375 67.671875 
Q 56.890625 62.453125 56.890625 51.90625 
Q 56.890625 45.015625 53.6875 40.46875 
Q 50.484375 35.9375 44.390625 34.1875 
z
M 19.671875 64.796875 
L 19.671875 38.921875 
L 32.078125 38.921875 
Q 39.203125 38.921875 42.84375 42.21875 
Q 46.484375 45.515625 46.484375 51.90625 
Q 46.484375 58.296875 42.84375 61.546875 
Q 39.203125 64.796875 32.078125 64.796875 
z
" id="DejaVuSans-82"/>
      <path d="M 9.8125 72.90625 
L 55.90625 72.90625 
L 55.90625 64.59375 
L 19.671875 64.59375 
L 19.671875 43.015625 
L 54.390625 43.015625 
L 54.390625 34.71875 
L 19.671875 34.71875 
L 19.671875 8.296875 
L 56.78125 8.296875 
L 56.78125 0 
L 9.8125 0 
z
" id="DejaVuSans-69"/>
      <path d="M 19.671875 64.796875 
L 19.671875 8.109375 
L 31.59375 8.109375 
Q 46.6875 8.109375 53.6875 14.9375 
Q 60.6875 21.78125 60.6875 36.53125 
Q 60.6875 51.171875 53.6875 57.984375 
Q 46.6875 64.796875 31.59375 64.796875 
z
M 9.8125 72.90625 
L 30.078125 72.90625 
Q 51.265625 72.90625 61.171875 64.09375 
Q 71.09375 55.28125 71.09375 36.53125 
Q 71.09375 17.671875 61.125 8.828125 
Q 51.171875 0 30.078125 0 
L 9.8125 0 
z
" id="DejaVuSans-68"/>
     </defs>
     <g transform="translate(114.512396 271.194687)scale(0.1 -0.1)">
      <use xlink:href="#DejaVuSans-80"/>
      <use x="60.287109" xlink:href="#DejaVuSans-114"/>
      <use x="101.400391" xlink:href="#DejaVuSans-40"/>
      <use x="140.414062" xlink:href="#DejaVuSans-115"/>
      <use x="192.513672" xlink:href="#DejaVuSans-111"/>
      <use x="253.695312" xlink:href="#DejaVuSans-109"/>
      <use x="351.107422" xlink:href="#DejaVuSans-97"/>
      <use x="412.386719" xlink:href="#DejaVuSans-116"/>
      <use x="451.595703" xlink:href="#DejaVuSans-105"/>
      <use x="479.378906" xlink:href="#DejaVuSans-99"/>
      <use x="534.359375" xlink:href="#DejaVuSans-41"/>
      <use x="573.373047" xlink:href="#DejaVuSans-32"/>
      <use x="605.160156" xlink:href="#DejaVuSans-40"/>
      <use x="644.173828" xlink:href="#DejaVuSans-80"/>
      <use x="704.476562" xlink:href="#DejaVuSans-72"/>
      <use x="779.671875" xlink:href="#DejaVuSans-82"/>
      <use x="849.154297" xlink:href="#DejaVuSans-69"/>
      <use x="912.337891" xlink:href="#DejaVuSans-68"/>
      <use x="989.339844" xlink:href="#DejaVuSans-41"/>
     </g>
    </g>
   </g>
   <g id="matplotlib.axis_2">
    <g id="ytick_1">
     <g id="line2d_8">
      <defs>
       <path d="M 0 0 
L -3.5 0 
" id="me429856017" style="stroke:#000000;stroke-width:0.8;"/>
      </defs>
      <g>
       <use style="stroke:#000000;stroke-width:0.8;" x="43.78125" xlink:href="#me429856017" y="242.918125"/>
      </g>
     </g>
     <g id="text_6">
      <!-- 0.0 -->
      <g transform="translate(20.878125 246.717344)scale(0.1 -0.1)">
       <use xlink:href="#DejaVuSans-48"/>
       <use x="63.623047" xlink:href="#DejaVuSans-46"/>
       <use x="95.410156" xlink:href="#DejaVuSans-48"/>
      </g>
     </g>
    </g>
    <g id="ytick_2">
     <g id="line2d_9">
      <g>
       <use style="stroke:#000000;stroke-width:0.8;" x="43.78125" xlink:href="#me429856017" y="217.243347"/>
      </g>
     </g>
     <g id="text_7">
      <!-- 0.5 -->
      <defs>
       <path d="M 10.796875 72.90625 
L 49.515625 72.90625 
L 49.515625 64.59375 
L 19.828125 64.59375 
L 19.828125 46.734375 
Q 21.96875 47.46875 24.109375 47.828125 
Q 26.265625 48.1875 28.421875 48.1875 
Q 40.625 48.1875 47.75 41.5 
Q 54.890625 34.8125 54.890625 23.390625 
Q 54.890625 11.625 47.5625 5.09375 
Q 40.234375 -1.421875 26.90625 -1.421875 
Q 22.3125 -1.421875 17.546875 -0.640625 
Q 12.796875 0.140625 7.71875 1.703125 
L 7.71875 11.625 
Q 12.109375 9.234375 16.796875 8.0625 
Q 21.484375 6.890625 26.703125 6.890625 
Q 35.15625 6.890625 40.078125 11.328125 
Q 45.015625 15.765625 45.015625 23.390625 
Q 45.015625 31 40.078125 35.4375 
Q 35.15625 39.890625 26.703125 39.890625 
Q 22.75 39.890625 18.8125 39.015625 
Q 14.890625 38.140625 10.796875 36.28125 
z
" id="DejaVuSans-53"/>
      </defs>
      <g transform="translate(20.878125 221.042566)scale(0.1 -0.1)">
       <use xlink:href="#DejaVuSans-48"/>
       <use x="63.623047" xlink:href="#DejaVuSans-46"/>
       <use x="95.410156" xlink:href="#DejaVuSans-53"/>
      </g>
     </g>
    </g>
    <g id="ytick_3">
     <g id="line2d_10">
      <g>
       <use style="stroke:#000000;stroke-width:0.8;" x="43.78125" xlink:href="#me429856017" y="191.56857"/>
      </g>
     </g>
     <g id="text_8">
      <!-- 1.0 -->
      <g transform="translate(20.878125 195.367789)scale(0.1 -0.1)">
       <use xlink:href="#DejaVuSans-49"/>
       <use x="63.623047" xlink:href="#DejaVuSans-46"/>
       <use x="95.410156" xlink:href="#DejaVuSans-48"/>
      </g>
     </g>
    </g>
    <g id="ytick_4">
     <g id="line2d_11">
      <g>
       <use style="stroke:#000000;stroke-width:0.8;" x="43.78125" xlink:href="#me429856017" y="165.893792"/>
      </g>
     </g>
     <g id="text_9">
      <!-- 1.5 -->
      <g transform="translate(20.878125 169.693011)scale(0.1 -0.1)">
       <use xlink:href="#DejaVuSans-49"/>
       <use x="63.623047" xlink:href="#DejaVuSans-46"/>
       <use x="95.410156" xlink:href="#DejaVuSans-53"/>
      </g>
     </g>
    </g>
    <g id="ytick_5">
     <g id="line2d_12">
      <g>
       <use style="stroke:#000000;stroke-width:0.8;" x="43.78125" xlink:href="#me429856017" y="140.219015"/>
      </g>
     </g>
     <g id="text_10">
      <!-- 2.0 -->
      <g transform="translate(20.878125 144.018234)scale(0.1 -0.1)">
       <use xlink:href="#DejaVuSans-50"/>
       <use x="63.623047" xlink:href="#DejaVuSans-46"/>
       <use x="95.410156" xlink:href="#DejaVuSans-48"/>
      </g>
     </g>
    </g>
    <g id="ytick_6">
     <g id="line2d_13">
      <g>
       <use style="stroke:#000000;stroke-width:0.8;" x="43.78125" xlink:href="#me429856017" y="114.544237"/>
      </g>
     </g>
     <g id="text_11">
      <!-- 2.5 -->
      <g transform="translate(20.878125 118.343456)scale(0.1 -0.1)">
       <use xlink:href="#DejaVuSans-50"/>
       <use x="63.623047" xlink:href="#DejaVuSans-46"/>
       <use x="95.410156" xlink:href="#DejaVuSans-53"/>
      </g>
     </g>
    </g>
    <g id="ytick_7">
     <g id="line2d_14">
      <g>
       <use style="stroke:#000000;stroke-width:0.8;" x="43.78125" xlink:href="#me429856017" y="88.86946"/>
      </g>
     </g>
     <g id="text_12">
      <!-- 3.0 -->
      <defs>
       <path d="M 40.578125 39.3125 
Q 47.65625 37.796875 51.625 33 
Q 55.609375 28.21875 55.609375 21.1875 
Q 55.609375 10.40625 48.1875 4.484375 
Q 40.765625 -1.421875 27.09375 -1.421875 
Q 22.515625 -1.421875 17.65625 -0.515625 
Q 12.796875 0.390625 7.625 2.203125 
L 7.625 11.71875 
Q 11.71875 9.328125 16.59375 8.109375 
Q 21.484375 6.890625 26.8125 6.890625 
Q 36.078125 6.890625 40.9375 10.546875 
Q 45.796875 14.203125 45.796875 21.1875 
Q 45.796875 27.640625 41.28125 31.265625 
Q 36.765625 34.90625 28.71875 34.90625 
L 20.21875 34.90625 
L 20.21875 43.015625 
L 29.109375 43.015625 
Q 36.375 43.015625 40.234375 45.921875 
Q 44.09375 48.828125 44.09375 54.296875 
Q 44.09375 59.90625 40.109375 62.90625 
Q 36.140625 65.921875 28.71875 65.921875 
Q 24.65625 65.921875 20.015625 65.03125 
Q 15.375 64.15625 9.8125 62.3125 
L 9.8125 71.09375 
Q 15.4375 72.65625 20.34375 73.4375 
Q 25.25 74.21875 29.59375 74.21875 
Q 40.828125 74.21875 47.359375 69.109375 
Q 53.90625 64.015625 53.90625 55.328125 
Q 53.90625 49.265625 50.4375 45.09375 
Q 46.96875 40.921875 40.578125 39.3125 
z
" id="DejaVuSans-51"/>
      </defs>
      <g transform="translate(20.878125 92.668678)scale(0.1 -0.1)">
       <use xlink:href="#DejaVuSans-51"/>
       <use x="63.623047" xlink:href="#DejaVuSans-46"/>
       <use x="95.410156" xlink:href="#DejaVuSans-48"/>
      </g>
     </g>
    </g>
    <g id="ytick_8">
     <g id="line2d_15">
      <g>
       <use style="stroke:#000000;stroke-width:0.8;" x="43.78125" xlink:href="#me429856017" y="63.194682"/>
      </g>
     </g>
     <g id="text_13">
      <!-- 3.5 -->
      <g transform="translate(20.878125 66.993901)scale(0.1 -0.1)">
       <use xlink:href="#DejaVuSans-51"/>
       <use x="63.623047" xlink:href="#DejaVuSans-46"/>
       <use x="95.410156" xlink:href="#DejaVuSans-53"/>
      </g>
     </g>
    </g>
    <g id="ytick_9">
     <g id="line2d_16">
      <g>
       <use style="stroke:#000000;stroke-width:0.8;" x="43.78125" xlink:href="#me429856017" y="37.519905"/>
      </g>
     </g>
     <g id="text_14">
      <!-- 4.0 -->
      <g transform="translate(20.878125 41.319123)scale(0.1 -0.1)">
       <use xlink:href="#DejaVuSans-52"/>
       <use x="63.623047" xlink:href="#DejaVuSans-46"/>
       <use x="95.410156" xlink:href="#DejaVuSans-48"/>
      </g>
     </g>
    </g>
    <g id="text_15">
     <!-- density -->
     <defs>
      <path d="M 45.40625 46.390625 
L 45.40625 75.984375 
L 54.390625 75.984375 
L 54.390625 0 
L 45.40625 0 
L 45.40625 8.203125 
Q 42.578125 3.328125 38.25 0.953125 
Q 33.9375 -1.421875 27.875 -1.421875 
Q 17.96875 -1.421875 11.734375 6.484375 
Q 5.515625 14.40625 5.515625 27.296875 
Q 5.515625 40.1875 11.734375 48.09375 
Q 17.96875 56 27.875 56 
Q 33.9375 56 38.25 53.625 
Q 42.578125 51.265625 45.40625 46.390625 
z
M 14.796875 27.296875 
Q 14.796875 17.390625 18.875 11.75 
Q 22.953125 6.109375 30.078125 6.109375 
Q 37.203125 6.109375 41.296875 11.75 
Q 45.40625 17.390625 45.40625 27.296875 
Q 45.40625 37.203125 41.296875 42.84375 
Q 37.203125 48.484375 30.078125 48.484375 
Q 22.953125 48.484375 18.875 42.84375 
Q 14.796875 37.203125 14.796875 27.296875 
z
" id="DejaVuSans-100"/>
      <path d="M 54.890625 33.015625 
L 54.890625 0 
L 45.90625 0 
L 45.90625 32.71875 
Q 45.90625 40.484375 42.875 44.328125 
Q 39.84375 48.1875 33.796875 48.1875 
Q 26.515625 48.1875 22.3125 43.546875 
Q 18.109375 38.921875 18.109375 30.90625 
L 18.109375 0 
L 9.078125 0 
L 9.078125 54.6875 
L 18.109375 54.6875 
L 18.109375 46.1875 
Q 21.34375 51.125 25.703125 53.5625 
Q 30.078125 56 35.796875 56 
Q 45.21875 56 50.046875 50.171875 
Q 54.890625 44.34375 54.890625 33.015625 
z
" id="DejaVuSans-110"/>
      <path d="M 32.171875 -5.078125 
Q 28.375 -14.84375 24.75 -17.8125 
Q 21.140625 -20.796875 15.09375 -20.796875 
L 7.90625 -20.796875 
L 7.90625 -13.28125 
L 13.1875 -13.28125 
Q 16.890625 -13.28125 18.9375 -11.515625 
Q 21 -9.765625 23.484375 -3.21875 
L 25.09375 0.875 
L 2.984375 54.6875 
L 12.5 54.6875 
L 29.59375 11.921875 
L 46.6875 54.6875 
L 56.203125 54.6875 
z
" id="DejaVuSans-121"/>
     </defs>
     <g transform="translate(14.798438 150.950938)rotate(-90)scale(0.1 -0.1)">
      <use xlink:href="#DejaVuSans-100"/>
      <use x="63.476562" xlink:href="#DejaVuSans-101"/>
      <use x="125" xlink:href="#DejaVuSans-110"/>
      <use x="188.378906" xlink:href="#DejaVuSans-115"/>
      <use x="240.478516" xlink:href="#DejaVuSans-105"/>
      <use x="268.261719" xlink:href="#DejaVuSans-116"/>
      <use x="307.470703" xlink:href="#DejaVuSans-121"/>
     </g>
    </g>
   </g>
   <g id="line2d_17">
    <path clip-path="url(#p92feec20b3)" d="M 67.608974 238.20915 
L 69.182951 242.918125 
L 70.756927 167.88709 
L 72.330904 178.136946 
L 73.904881 209.713685 
L 75.478857 216.253002 
L 78.626811 236.290722 
L 80.200787 236.563979 
L 81.774764 240.722736 
L 83.348741 240.133067 
L 84.922717 240.851928 
L 86.496694 241.979724 
L 88.070671 242.495213 
L 89.644648 242.777246 
L 91.218624 242.918125 
L 92.792601 242.332873 
L 97.514531 242.918125 
L 99.088508 242.804498 
L 100.662484 242.918125 
L 102.236461 242.812546 
L 103.810438 242.918125 
L 105.384414 242.818484 
L 106.958391 242.918125 
L 108.532368 242.818488 
L 110.106344 242.918125 
L 111.680321 242.801927 
L 113.254298 242.918125 
L 114.828275 242.356187 
L 116.402251 242.917328 
L 117.976228 242.829872 
L 119.550205 242.918125 
L 121.124181 242.847872 
L 122.698158 242.918125 
L 124.272135 242.857952 
L 125.846111 242.918125 
L 128.994065 242.918125 
L 133.715995 242.872779 
L 138.437925 242.918125 
L 143.159855 242.879378 
L 147.881785 242.918125 
L 152.603715 242.882516 
L 157.325645 242.918125 
L 162.047575 242.88633 
L 168.343482 242.918125 
L 169.917459 242.578832 
L 171.491435 242.718076 
L 173.065412 242.190496 
L 174.639389 241.940797 
L 176.213366 242.918125 
L 177.787342 242.189438 
L 179.361319 242.918125 
L 180.935296 242.032055 
L 182.509272 242.682924 
L 184.083249 242.476403 
L 185.657226 242.796139 
L 188.805179 242.918125 
L 193.527109 242.871425 
L 198.249039 242.918125 
L 199.823016 242.683755 
L 201.396993 242.591442 
L 202.970969 242.918125 
L 206.118923 242.90484 
L 209.266876 242.565402 
L 210.840853 242.918125 
L 212.414829 242.859437 
L 215.562783 242.866803 
L 220.284713 242.918125 
L 225.006643 242.87004 
L 229.728573 242.918125 
L 231.30255 242.918125 
L 232.876526 242.476583 
L 234.450503 242.793702 
L 236.02448 242.918125 
L 237.598456 242.832024 
L 239.172433 242.918125 
L 240.74641 242.267134 
L 242.320387 242.436042 
L 243.894363 242.918125 
L 245.46834 242.180156 
L 248.616293 242.616684 
L 251.764247 242.299571 
L 253.338223 242.680357 
L 254.9122 242.060077 
L 256.486177 242.127135 
L 258.060153 242.918125 
L 259.63413 242.209058 
L 261.208107 242.918125 
L 262.782084 241.415811 
L 264.35606 242.918125 
L 265.930037 240.251134 
L 267.504014 242.918125 
L 267.504014 242.918125 
" style="fill:none;stroke:#1f77b4;stroke-linecap:square;stroke-width:1.5;"/>
   </g>
   <g id="line2d_18">
    <path clip-path="url(#p92feec20b3)" d="M 209.931052 242.916307 
L 214.488173 242.80615 
L 217.526254 242.799316 
L 221.577028 242.887826 
L 224.108762 242.685472 
L 227.146843 242.405808 
L 229.17223 242.28796 
L 230.184924 242.014286 
L 231.197618 241.482395 
L 232.210311 240.675484 
L 233.729352 239.077875 
L 236.261086 236.387163 
L 237.273779 235.252502 
L 238.286473 233.769937 
L 239.299166 231.881979 
L 240.818207 228.517219 
L 242.337247 224.574563 
L 243.856288 219.886483 
L 246.894368 210.064968 
L 247.907062 207.268134 
L 248.919756 205.206301 
L 249.426102 204.580312 
L 249.932449 204.242127 
L 250.438796 204.163717 
L 250.945143 204.298291 
L 251.957836 205.013538 
L 253.983224 206.905132 
L 254.48957 207.157366 
L 254.995917 207.249587 
L 256.008611 207.035285 
L 257.021304 206.647513 
L 257.527651 206.55973 
L 258.033998 206.637857 
L 258.540345 206.950481 
L 259.046692 207.560198 
L 259.553038 208.519184 
L 260.059385 209.863658 
L 261.072079 213.734168 
L 262.084772 218.900278 
L 264.11016 229.970271 
L 265.122853 234.474263 
L 266.135547 237.93613 
L 267.14824 240.304134 
L 267.654587 241.098643 
L 268.160934 241.673316 
L 269.173628 242.343516 
L 270.186321 242.653465 
L 271.705362 242.85019 
L 274.237096 242.915751 
L 274.237096 242.915751 
" style="fill:none;stroke:#1f77b4;stroke-dasharray:1.5,2.475;stroke-dashoffset:0;stroke-width:1.5;"/>
   </g>
   <g id="line2d_19">
    <path clip-path="url(#p92feec20b3)" d="M 64.497032 242.918125 
L 66.087285 228.253681 
L 67.677538 242.918125 
L 69.267791 61.370812 
L 70.858044 32.822887 
L 72.448297 197.403891 
L 75.628803 235.147365 
L 77.219056 236.027951 
L 78.809309 240.536032 
L 80.399562 240.516669 
L 81.989815 242.022995 
L 83.580068 241.970106 
L 85.170321 242.562821 
L 86.760574 242.462824 
L 89.94108 242.720529 
L 91.531333 242.661159 
L 93.121586 242.871395 
L 94.711839 242.721309 
L 96.302092 242.887388 
L 97.892345 242.658017 
L 99.482598 242.891241 
L 101.072851 242.728809 
L 102.663104 242.918125 
L 104.253357 242.720413 
L 105.84361 242.918125 
L 107.433863 242.708082 
L 109.024116 242.892825 
L 110.614369 242.73697 
L 112.204622 242.90202 
L 113.794875 242.751331 
L 115.385128 242.918125 
L 116.975381 242.753192 
L 118.565634 242.918125 
L 120.155887 242.724243 
L 121.74614 242.918125 
L 123.336393 242.77796 
L 124.926646 242.918125 
L 126.516899 242.782999 
L 128.107152 242.918125 
L 129.697405 242.761778 
L 131.287658 242.918125 
L 132.877911 242.739315 
L 134.468164 242.918125 
L 136.058417 242.771445 
L 137.64867 242.918125 
L 139.238923 242.751148 
L 140.829176 242.918125 
L 142.419429 242.727813 
L 144.009682 242.918125 
L 145.599935 242.65906 
L 147.190188 242.918125 
L 148.780441 242.572257 
L 150.370694 242.918125 
L 151.960947 242.439948 
L 153.5512 242.918125 
L 155.141453 242.164189 
L 156.731706 242.918125 
L 158.321959 241.340938 
L 159.912212 242.918125 
L 161.502465 230.493819 
L 163.092718 242.918125 
L 164.682971 242.918125 
L 166.273224 232.081241 
L 167.863477 242.412018 
L 169.45373 240.926872 
L 171.043983 236.564686 
L 172.634236 242.918125 
L 174.224489 238.605239 
L 175.814742 242.918125 
L 177.404995 241.315953 
L 178.995248 242.734566 
L 180.585501 242.266724 
L 182.175754 242.918125 
L 183.766007 242.524228 
L 185.35626 242.918125 
L 186.946513 242.703081 
L 188.536766 242.918125 
L 190.127019 242.746721 
L 191.717272 242.918125 
L 193.307525 242.771784 
L 194.897778 242.918125 
L 196.488031 242.801174 
L 198.078284 242.918125 
L 199.668536 242.78217 
L 201.258789 242.918125 
L 202.849042 242.770724 
L 204.439295 242.918125 
L 206.029548 242.801058 
L 207.619801 242.918125 
L 209.210054 242.803248 
L 210.800307 242.918125 
L 212.39056 242.805161 
L 213.980813 242.918125 
L 215.571066 242.774431 
L 217.161319 242.918125 
L 218.751572 242.763813 
L 220.341825 242.918125 
L 221.932078 242.706955 
L 223.522331 242.918125 
L 225.112584 242.670136 
L 226.702837 242.918125 
L 228.29309 242.545793 
L 229.883343 242.863268 
L 231.473596 242.484934 
L 233.063849 242.827309 
L 234.654102 242.301881 
L 236.244355 242.756448 
L 237.834608 242.253287 
L 239.424861 242.765292 
L 241.015114 242.116706 
L 242.605367 242.840493 
L 244.19562 242.008347 
L 245.785873 242.891338 
L 247.376126 241.957119 
L 248.966379 242.918125 
L 250.556632 241.95153 
L 252.146885 242.918125 
L 253.737138 241.765954 
L 255.327391 242.918125 
L 256.917644 241.5471 
L 258.507897 242.918125 
L 260.09815 241.077445 
L 261.688403 242.918125 
L 263.278656 240.059059 
L 264.868909 242.918125 
L 266.459162 237.359485 
L 266.459162 237.359485 
" style="fill:none;stroke:#ff7f0e;stroke-linecap:square;stroke-width:1.5;"/>
   </g>
   <g id="line2d_20">
    <path clip-path="url(#p92feec20b3)" d="M 66.447642 242.918125 
L 132.766153 242.908681 
L 165.116647 242.855029 
L 166.734171 242.786996 
L 168.351696 242.352923 
L 169.969221 242.852414 
L 174.821795 242.750749 
L 176.439319 242.651943 
L 178.056844 242.418659 
L 179.674369 242.391041 
L 181.291893 242.804581 
L 184.526943 242.86986 
L 208.789813 242.602641 
L 215.259912 242.080537 
L 218.494961 241.451439 
L 220.112486 240.866236 
L 221.73001 240.092041 
L 223.347535 239.069745 
L 224.96506 237.518286 
L 228.200109 232.874666 
L 229.817634 229.375703 
L 231.435158 226.546949 
L 233.052683 222.698643 
L 234.670208 220.104973 
L 236.287732 217.735193 
L 237.905257 215.957415 
L 239.522782 214.361659 
L 241.140306 213.559034 
L 242.757831 212.374134 
L 244.375356 210.900871 
L 245.99288 210.434573 
L 247.610405 211.868921 
L 249.22793 214.436068 
L 250.845454 217.903575 
L 252.462979 220.942447 
L 257.315553 228.704663 
L 258.933078 231.673166 
L 262.168127 238.97645 
L 263.785652 241.344057 
L 265.403177 242.481334 
L 267.020701 242.839109 
L 270.255751 242.917462 
L 271.873275 242.916235 
L 271.873275 242.916235 
" style="fill:none;stroke:#ff7f0e;stroke-dasharray:1.5,2.475;stroke-dashoffset:0;stroke-width:1.5;"/>
   </g>
   <g id="line2d_21">
    <path clip-path="url(#p92feec20b3)" d="M 67.160246 235.337279 
L 68.735785 242.918125 
L 70.311325 136.048556 
L 71.886864 149.1095 
L 73.462404 208.392868 
L 75.037943 215.53806 
L 76.613483 225.877293 
L 78.189023 233.977649 
L 79.764562 236.654027 
L 82.915641 239.75032 
L 84.491181 241.180724 
L 86.06672 241.924871 
L 87.64226 242.251835 
L 89.217799 242.247325 
L 90.793339 242.918125 
L 92.368878 242.646805 
L 93.944418 242.918125 
L 95.519958 242.385202 
L 97.095497 242.857736 
L 100.246576 242.845378 
L 142.786144 242.918125 
L 144.361684 242.712861 
L 145.937223 242.918125 
L 147.512763 242.722782 
L 149.088302 242.918125 
L 163.268158 242.739472 
L 164.843698 242.918125 
L 166.419237 240.603459 
L 167.994777 242.918125 
L 169.570316 241.602462 
L 171.145856 241.454771 
L 172.721395 242.838699 
L 174.296935 242.058988 
L 175.872474 242.480722 
L 177.448014 241.724188 
L 179.023554 242.755838 
L 180.599093 242.292669 
L 182.174633 242.720692 
L 183.750172 242.425513 
L 185.325712 242.829992 
L 188.476791 242.918125 
L 190.05233 242.741133 
L 191.62787 242.918125 
L 193.203409 242.861615 
L 196.354489 242.87477 
L 199.505568 242.867033 
L 201.081107 242.795411 
L 204.232186 242.918125 
L 205.807726 242.905955 
L 207.383265 242.764211 
L 208.958805 242.905463 
L 216.836503 242.918125 
L 218.412042 242.801798 
L 223.138661 242.918125 
L 224.7142 242.827337 
L 226.28974 242.918125 
L 227.865279 242.720772 
L 229.440819 242.918125 
L 231.016359 242.796262 
L 235.742977 242.918125 
L 237.318517 242.623904 
L 238.894056 242.918125 
L 240.469596 242.164348 
L 242.045135 242.003982 
L 243.620675 241.22667 
L 245.196214 242.067786 
L 246.771754 241.712685 
L 248.347294 242.503617 
L 249.922833 241.24274 
L 251.498373 242.540429 
L 253.073912 241.381525 
L 254.649452 242.821055 
L 256.224991 241.32435 
L 257.800531 242.727755 
L 259.37607 241.601529 
L 260.95161 242.918125 
L 262.52715 240.922835 
L 264.102689 242.918125 
L 265.678229 239.598724 
L 267.253768 242.918125 
L 267.253768 242.918125 
" style="fill:none;stroke:#2ca02c;stroke-linecap:square;stroke-width:1.5;"/>
   </g>
   <g id="line2d_22">
    <path clip-path="url(#p92feec20b3)" d="M 130.15925 242.917938 
L 216.550643 242.722229 
L 218.794576 242.678128 
L 221.038508 242.635961 
L 223.28244 242.445427 
L 226.648339 241.769742 
L 227.770305 241.659732 
L 228.892271 241.182827 
L 231.136203 239.429337 
L 232.258169 238.217982 
L 234.502102 235.004049 
L 235.624068 232.826301 
L 236.746034 230.06984 
L 237.868 226.760304 
L 242.355865 212.385029 
L 244.599797 206.664561 
L 245.721763 205.085577 
L 246.843729 204.998235 
L 247.965695 205.721933 
L 249.087661 206.934785 
L 251.331594 210.804428 
L 252.45356 211.804813 
L 253.575526 211.812261 
L 254.697492 211.298545 
L 255.819458 211.495885 
L 256.941425 212.682985 
L 258.063391 214.686804 
L 259.185357 218.009282 
L 260.307323 222.697254 
L 262.551255 232.943021 
L 263.673221 237.078185 
L 264.795188 239.844197 
L 265.917154 241.539362 
L 267.03912 242.414553 
L 268.161086 242.748559 
L 270.405018 242.898382 
L 272.648951 242.917867 
L 272.648951 242.917867 
" style="fill:none;stroke:#2ca02c;stroke-dasharray:1.5,2.475;stroke-dashoffset:0;stroke-width:1.5;"/>
   </g>
   <g id="line2d_23">
    <path clip-path="url(#p92feec20b3)" d="M 68.019918 236.467926 
L 69.547075 242.918125 
L 71.074233 176.703033 
L 72.60139 180.484713 
L 74.128547 222.591069 
L 75.655705 230.394265 
L 77.182862 236.781691 
L 78.710019 239.071027 
L 80.237176 240.620955 
L 81.764334 241.495329 
L 83.291491 241.892831 
L 84.818648 242.432909 
L 86.345806 242.394198 
L 87.872963 242.627325 
L 89.40012 242.568438 
L 90.927277 242.83963 
L 92.454435 242.676201 
L 93.981592 242.871707 
L 95.508749 242.724359 
L 97.035907 242.880478 
L 98.563064 242.757464 
L 100.090221 242.857495 
L 101.617378 242.810302 
L 103.144536 242.877738 
L 104.671693 242.813798 
L 106.19885 242.918125 
L 107.726008 242.802012 
L 118.416109 242.890817 
L 121.470423 242.875079 
L 130.633367 242.880555 
L 135.214839 242.918125 
L 136.741996 242.824708 
L 138.269153 242.918125 
L 139.796311 242.835988 
L 141.323468 242.918125 
L 142.850625 242.825474 
L 144.377782 242.918125 
L 145.90494 242.779134 
L 147.432097 242.918125 
L 148.959254 242.761225 
L 150.486412 242.918125 
L 152.013569 242.738753 
L 153.540726 242.918125 
L 155.067883 242.696554 
L 156.595041 242.918125 
L 158.122198 242.642598 
L 159.649355 242.918125 
L 161.176513 242.493726 
L 162.70367 242.918125 
L 165.757984 241.966777 
L 167.285142 239.27056 
L 168.812299 242.918125 
L 170.339456 233.469213 
L 171.866614 242.918125 
L 173.393771 237.691781 
L 174.920928 242.918125 
L 176.448085 239.891357 
L 177.975243 242.918125 
L 179.5024 241.35241 
L 181.029557 242.918125 
L 182.556714 242.199846 
L 184.083872 242.918125 
L 185.611029 242.561596 
L 187.138186 242.918125 
L 188.665344 242.669404 
L 190.192501 242.918125 
L 191.719658 242.750157 
L 193.246815 242.918125 
L 194.773973 242.786553 
L 196.30113 242.918125 
L 197.828287 242.816983 
L 199.355445 242.918125 
L 200.882602 242.832112 
L 202.409759 242.918125 
L 203.936916 242.842726 
L 206.991231 242.887676 
L 213.09986 242.90447 
L 214.627017 242.84669 
L 216.154175 242.918125 
L 220.735647 242.849154 
L 222.262804 242.917655 
L 226.844276 242.841505 
L 228.371433 242.918125 
L 229.89859 242.807142 
L 231.425748 242.918125 
L 232.952905 242.781197 
L 234.480062 242.918125 
L 236.007219 242.733645 
L 237.534377 242.918125 
L 239.061534 242.720653 
L 240.588691 242.918125 
L 242.115849 242.673263 
L 243.643006 242.918125 
L 245.170163 242.604217 
L 246.69732 242.918125 
L 248.224478 242.502389 
L 249.751635 242.918125 
L 251.278792 242.311401 
L 252.80595 242.918125 
L 254.333107 242.023015 
L 255.860264 242.918125 
L 257.387421 241.502857 
L 258.914579 242.918125 
L 260.441736 240.305985 
L 261.968893 242.918125 
L 261.968893 242.918125 
" style="fill:none;stroke:#d62728;stroke-linecap:square;stroke-width:1.5;"/>
   </g>
   <g id="line2d_24">
    <path clip-path="url(#p92feec20b3)" d="M 54.885644 242.912765 
L 60.131814 242.843759 
L 63.629261 242.647535 
L 72.372878 241.904852 
L 75.870325 241.984671 
L 88.11139 242.777138 
L 95.106283 242.692012 
L 100.352454 242.721435 
L 110.844795 242.896374 
L 158.060328 242.633832 
L 180.793733 241.487886 
L 186.039903 241.300967 
L 189.53735 240.80884 
L 193.034797 239.954164 
L 198.280967 238.374191 
L 201.778414 237.058383 
L 203.527138 236.216557 
L 207.024585 234.134518 
L 212.270755 230.61524 
L 214.019478 229.596364 
L 215.768202 228.784394 
L 217.516925 228.227009 
L 219.265649 227.911923 
L 226.260543 227.238706 
L 229.757989 226.761107 
L 231.506713 226.778048 
L 233.255436 227.083622 
L 235.00416 227.676815 
L 238.501607 229.397045 
L 241.999054 231.105648 
L 243.747777 231.777759 
L 247.245224 232.756832 
L 250.742671 233.588137 
L 252.491394 234.138071 
L 254.240118 234.881914 
L 255.988841 235.858077 
L 259.486288 238.327678 
L 261.235012 239.585352 
L 262.983735 240.682168 
L 264.732459 241.538037 
L 266.481182 242.137007 
L 268.229905 242.513812 
L 271.727352 242.836132 
L 276.973523 242.913245 
L 276.973523 242.913245 
" style="fill:none;stroke:#d62728;stroke-dasharray:1.5,2.475;stroke-dashoffset:0;stroke-width:1.5;"/>
   </g>
   <g id="patch_3">
    <path d="M 43.78125 242.918125 
L 43.78125 22.318125 
" style="fill:none;stroke:#000000;stroke-linecap:square;stroke-linejoin:miter;stroke-width:0.8;"/>
   </g>
   <g id="patch_4">
    <path d="M 43.78125 242.918125 
L 288.077917 242.918125 
" style="fill:none;stroke:#000000;stroke-linecap:square;stroke-linejoin:miter;stroke-width:0.8;"/>
   </g>
   <g id="text_16">
    <!-- 1 - 30 -->
    <defs>
     <path d="M 4.890625 31.390625 
L 31.203125 31.390625 
L 31.203125 23.390625 
L 4.890625 23.390625 
z
" id="DejaVuSans-45"/>
    </defs>
    <g transform="translate(148.498646 16.318125)scale(0.12 -0.12)">
     <use xlink:href="#DejaVuSans-49"/>
     <use x="63.623047" xlink:href="#DejaVuSans-32"/>
     <use x="95.410156" xlink:href="#DejaVuSans-45"/>
     <use x="131.494141" xlink:href="#DejaVuSans-32"/>
     <use x="163.28125" xlink:href="#DejaVuSans-51"/>
     <use x="226.904297" xlink:href="#DejaVuSans-48"/>
    </g>
   </g>
   <g id="legend_1">
    <g id="patch_5">
     <path d="M 142.543542 89.030625 
L 281.077917 89.030625 
Q 283.077917 89.030625 283.077917 87.030625 
L 283.077917 29.318125 
Q 283.077917 27.318125 281.077917 27.318125 
L 142.543542 27.318125 
Q 140.543542 27.318125 140.543542 29.318125 
L 140.543542 87.030625 
Q 140.543542 89.030625 142.543542 89.030625 
z
" style="fill:#ffffff;opacity:0.8;stroke:#cccccc;stroke-linejoin:miter;"/>
    </g>
    <g id="line2d_25">
     <path d="M 144.543542 35.416562 
L 164.543542 35.416562 
" style="fill:none;stroke:#1f77b4;stroke-linecap:square;stroke-width:1.5;"/>
    </g>
    <g id="line2d_26"/>
    <g id="text_17">
     <!-- varlociraptor+delly -->
     <defs>
      <path d="M 2.984375 54.6875 
L 12.5 54.6875 
L 29.59375 8.796875 
L 46.6875 54.6875 
L 56.203125 54.6875 
L 35.6875 0 
L 23.484375 0 
z
" id="DejaVuSans-118"/>
      <path d="M 9.421875 75.984375 
L 18.40625 75.984375 
L 18.40625 0 
L 9.421875 0 
z
" id="DejaVuSans-108"/>
      <path d="M 18.109375 8.203125 
L 18.109375 -20.796875 
L 9.078125 -20.796875 
L 9.078125 54.6875 
L 18.109375 54.6875 
L 18.109375 46.390625 
Q 20.953125 51.265625 25.265625 53.625 
Q 29.59375 56 35.59375 56 
Q 45.5625 56 51.78125 48.09375 
Q 58.015625 40.1875 58.015625 27.296875 
Q 58.015625 14.40625 51.78125 6.484375 
Q 45.5625 -1.421875 35.59375 -1.421875 
Q 29.59375 -1.421875 25.265625 0.953125 
Q 20.953125 3.328125 18.109375 8.203125 
z
M 48.6875 27.296875 
Q 48.6875 37.203125 44.609375 42.84375 
Q 40.53125 48.484375 33.40625 48.484375 
Q 26.265625 48.484375 22.1875 42.84375 
Q 18.109375 37.203125 18.109375 27.296875 
Q 18.109375 17.390625 22.1875 11.75 
Q 26.265625 6.109375 33.40625 6.109375 
Q 40.53125 6.109375 44.609375 11.75 
Q 48.6875 17.390625 48.6875 27.296875 
z
" id="DejaVuSans-112"/>
     </defs>
     <g transform="translate(172.543542 38.916562)scale(0.1 -0.1)">
      <use xlink:href="#DejaVuSans-118"/>
      <use x="59.179688" xlink:href="#DejaVuSans-97"/>
      <use x="120.458984" xlink:href="#DejaVuSans-114"/>
      <use x="161.572266" xlink:href="#DejaVuSans-108"/>
      <use x="189.355469" xlink:href="#DejaVuSans-111"/>
      <use x="250.537109" xlink:href="#DejaVuSans-99"/>
      <use x="305.517578" xlink:href="#DejaVuSans-105"/>
      <use x="333.300781" xlink:href="#DejaVuSans-114"/>
      <use x="374.414062" xlink:href="#DejaVuSans-97"/>
      <use x="435.693359" xlink:href="#DejaVuSans-112"/>
      <use x="499.169922" xlink:href="#DejaVuSans-116"/>
      <use x="538.378906" xlink:href="#DejaVuSans-111"/>
      <use x="599.560547" xlink:href="#DejaVuSans-114"/>
      <use x="640.673828" xlink:href="#DejaVuSans-43"/>
      <use x="724.462891" xlink:href="#DejaVuSans-100"/>
      <use x="787.939453" xlink:href="#DejaVuSans-101"/>
      <use x="849.462891" xlink:href="#DejaVuSans-108"/>
      <use x="877.246094" xlink:href="#DejaVuSans-108"/>
      <use x="905.029297" xlink:href="#DejaVuSans-121"/>
     </g>
    </g>
    <g id="line2d_27">
     <path d="M 144.543542 50.094687 
L 164.543542 50.094687 
" style="fill:none;stroke:#ff7f0e;stroke-linecap:square;stroke-width:1.5;"/>
    </g>
    <g id="line2d_28"/>
    <g id="text_18">
     <!-- varlociraptor+lancet -->
     <g transform="translate(172.543542 53.594687)scale(0.1 -0.1)">
      <use xlink:href="#DejaVuSans-118"/>
      <use x="59.179688" xlink:href="#DejaVuSans-97"/>
      <use x="120.458984" xlink:href="#DejaVuSans-114"/>
      <use x="161.572266" xlink:href="#DejaVuSans-108"/>
      <use x="189.355469" xlink:href="#DejaVuSans-111"/>
      <use x="250.537109" xlink:href="#DejaVuSans-99"/>
      <use x="305.517578" xlink:href="#DejaVuSans-105"/>
      <use x="333.300781" xlink:href="#DejaVuSans-114"/>
      <use x="374.414062" xlink:href="#DejaVuSans-97"/>
      <use x="435.693359" xlink:href="#DejaVuSans-112"/>
      <use x="499.169922" xlink:href="#DejaVuSans-116"/>
      <use x="538.378906" xlink:href="#DejaVuSans-111"/>
      <use x="599.560547" xlink:href="#DejaVuSans-114"/>
      <use x="640.673828" xlink:href="#DejaVuSans-43"/>
      <use x="724.462891" xlink:href="#DejaVuSans-108"/>
      <use x="752.246094" xlink:href="#DejaVuSans-97"/>
      <use x="813.525391" xlink:href="#DejaVuSans-110"/>
      <use x="876.904297" xlink:href="#DejaVuSans-99"/>
      <use x="931.884766" xlink:href="#DejaVuSans-101"/>
      <use x="993.408203" xlink:href="#DejaVuSans-116"/>
     </g>
    </g>
    <g id="line2d_29">
     <path d="M 144.543542 64.772812 
L 164.543542 64.772812 
" style="fill:none;stroke:#2ca02c;stroke-linecap:square;stroke-width:1.5;"/>
    </g>
    <g id="line2d_30"/>
    <g id="text_19">
     <!-- varlociraptor+manta -->
     <g transform="translate(172.543542 68.272812)scale(0.1 -0.1)">
      <use xlink:href="#DejaVuSans-118"/>
      <use x="59.179688" xlink:href="#DejaVuSans-97"/>
      <use x="120.458984" xlink:href="#DejaVuSans-114"/>
      <use x="161.572266" xlink:href="#DejaVuSans-108"/>
      <use x="189.355469" xlink:href="#DejaVuSans-111"/>
      <use x="250.537109" xlink:href="#DejaVuSans-99"/>
      <use x="305.517578" xlink:href="#DejaVuSans-105"/>
      <use x="333.300781" xlink:href="#DejaVuSans-114"/>
      <use x="374.414062" xlink:href="#DejaVuSans-97"/>
      <use x="435.693359" xlink:href="#DejaVuSans-112"/>
      <use x="499.169922" xlink:href="#DejaVuSans-116"/>
      <use x="538.378906" xlink:href="#DejaVuSans-111"/>
      <use x="599.560547" xlink:href="#DejaVuSans-114"/>
      <use x="640.673828" xlink:href="#DejaVuSans-43"/>
      <use x="724.462891" xlink:href="#DejaVuSans-109"/>
      <use x="821.875" xlink:href="#DejaVuSans-97"/>
      <use x="883.154297" xlink:href="#DejaVuSans-110"/>
      <use x="946.533203" xlink:href="#DejaVuSans-116"/>
      <use x="985.742188" xlink:href="#DejaVuSans-97"/>
     </g>
    </g>
    <g id="line2d_31">
     <path d="M 144.543542 79.450938 
L 164.543542 79.450938 
" style="fill:none;stroke:#d62728;stroke-linecap:square;stroke-width:1.5;"/>
    </g>
    <g id="line2d_32"/>
    <g id="text_20">
     <!-- varlociraptor+strelka -->
     <defs>
      <path d="M 9.078125 75.984375 
L 18.109375 75.984375 
L 18.109375 31.109375 
L 44.921875 54.6875 
L 56.390625 54.6875 
L 27.390625 29.109375 
L 57.625 0 
L 45.90625 0 
L 18.109375 26.703125 
L 18.109375 0 
L 9.078125 0 
z
" id="DejaVuSans-107"/>
     </defs>
     <g transform="translate(172.543542 82.950938)scale(0.1 -0.1)">
      <use xlink:href="#DejaVuSans-118"/>
      <use x="59.179688" xlink:href="#DejaVuSans-97"/>
      <use x="120.458984" xlink:href="#DejaVuSans-114"/>
      <use x="161.572266" xlink:href="#DejaVuSans-108"/>
      <use x="189.355469" xlink:href="#DejaVuSans-111"/>
      <use x="250.537109" xlink:href="#DejaVuSans-99"/>
      <use x="305.517578" xlink:href="#DejaVuSans-105"/>
      <use x="333.300781" xlink:href="#DejaVuSans-114"/>
      <use x="374.414062" xlink:href="#DejaVuSans-97"/>
      <use x="435.693359" xlink:href="#DejaVuSans-112"/>
      <use x="499.169922" xlink:href="#DejaVuSans-116"/>
      <use x="538.378906" xlink:href="#DejaVuSans-111"/>
      <use x="599.560547" xlink:href="#DejaVuSans-114"/>
      <use x="640.673828" xlink:href="#DejaVuSans-43"/>
      <use x="724.462891" xlink:href="#DejaVuSans-115"/>
      <use x="776.5625" xlink:href="#DejaVuSans-116"/>
      <use x="815.771484" xlink:href="#DejaVuSans-114"/>
      <use x="856.853516" xlink:href="#DejaVuSans-101"/>
      <use x="918.376953" xlink:href="#DejaVuSans-108"/>
      <use x="946.160156" xlink:href="#DejaVuSans-107"/>
      <use x="1004.054688" xlink:href="#DejaVuSans-97"/>
     </g>
    </g>
   </g>
  </g>
  <g id="axes_2">
   <g id="patch_6">
    <path d="M 324.327917 242.918125 
L 568.624583 242.918125 
L 568.624583 22.318125 
L 324.327917 22.318125 
z
" style="fill:#ffffff;"/>
   </g>
   <g id="matplotlib.axis_3">
    <g id="xtick_8">
     <g id="line2d_33">
      <g>
       <use style="stroke:#000000;stroke-width:0.8;" x="340.303376" xlink:href="#m94b1e84599" y="242.918125"/>
      </g>
     </g>
     <g id="text_21">
      <!-- 1 -->
      <g transform="translate(337.122126 257.516563)scale(0.1 -0.1)">
       <use xlink:href="#DejaVuSans-49"/>
      </g>
     </g>
    </g>
    <g id="xtick_9">
     <g id="line2d_34">
      <g>
       <use style="stroke:#000000;stroke-width:0.8;" x="372.488295" xlink:href="#m94b1e84599" y="242.918125"/>
      </g>
     </g>
     <g id="text_22">
      <!-- 1e+02 -->
      <g transform="translate(355.678139 257.516563)scale(0.1 -0.1)">
       <use xlink:href="#DejaVuSans-49"/>
       <use x="63.623047" xlink:href="#DejaVuSans-101"/>
       <use x="125.146484" xlink:href="#DejaVuSans-43"/>
       <use x="208.935547" xlink:href="#DejaVuSans-48"/>
       <use x="272.558594" xlink:href="#DejaVuSans-50"/>
      </g>
     </g>
    </g>
    <g id="xtick_10">
     <g id="line2d_35">
      <g>
       <use style="stroke:#000000;stroke-width:0.8;" x="404.673214" xlink:href="#m94b1e84599" y="242.918125"/>
      </g>
     </g>
     <g id="text_23">
      <!-- 2e+04 -->
      <g transform="translate(387.863058 257.516563)scale(0.1 -0.1)">
       <use xlink:href="#DejaVuSans-50"/>
       <use x="63.623047" xlink:href="#DejaVuSans-101"/>
       <use x="125.146484" xlink:href="#DejaVuSans-43"/>
       <use x="208.935547" xlink:href="#DejaVuSans-48"/>
       <use x="272.558594" xlink:href="#DejaVuSans-52"/>
      </g>
     </g>
    </g>
    <g id="xtick_11">
     <g id="line2d_36">
      <g>
       <use style="stroke:#000000;stroke-width:0.8;" x="436.858134" xlink:href="#m94b1e84599" y="242.918125"/>
      </g>
     </g>
     <g id="text_24">
      <!-- 3e+06 -->
      <defs>
       <path d="M 33.015625 40.375 
Q 26.375 40.375 22.484375 35.828125 
Q 18.609375 31.296875 18.609375 23.390625 
Q 18.609375 15.53125 22.484375 10.953125 
Q 26.375 6.390625 33.015625 6.390625 
Q 39.65625 6.390625 43.53125 10.953125 
Q 47.40625 15.53125 47.40625 23.390625 
Q 47.40625 31.296875 43.53125 35.828125 
Q 39.65625 40.375 33.015625 40.375 
z
M 52.59375 71.296875 
L 52.59375 62.3125 
Q 48.875 64.0625 45.09375 64.984375 
Q 41.3125 65.921875 37.59375 65.921875 
Q 27.828125 65.921875 22.671875 59.328125 
Q 17.53125 52.734375 16.796875 39.40625 
Q 19.671875 43.65625 24.015625 45.921875 
Q 28.375 48.1875 33.59375 48.1875 
Q 44.578125 48.1875 50.953125 41.515625 
Q 57.328125 34.859375 57.328125 23.390625 
Q 57.328125 12.15625 50.6875 5.359375 
Q 44.046875 -1.421875 33.015625 -1.421875 
Q 20.359375 -1.421875 13.671875 8.265625 
Q 6.984375 17.96875 6.984375 36.375 
Q 6.984375 53.65625 15.1875 63.9375 
Q 23.390625 74.21875 37.203125 74.21875 
Q 40.921875 74.21875 44.703125 73.484375 
Q 48.484375 72.75 52.59375 71.296875 
z
" id="DejaVuSans-54"/>
      </defs>
      <g transform="translate(420.047978 257.516563)scale(0.1 -0.1)">
       <use xlink:href="#DejaVuSans-51"/>
       <use x="63.623047" xlink:href="#DejaVuSans-101"/>
       <use x="125.146484" xlink:href="#DejaVuSans-43"/>
       <use x="208.935547" xlink:href="#DejaVuSans-48"/>
       <use x="272.558594" xlink:href="#DejaVuSans-54"/>
      </g>
     </g>
    </g>
    <g id="xtick_12">
     <g id="line2d_37">
      <g>
       <use style="stroke:#000000;stroke-width:0.8;" x="469.043053" xlink:href="#m94b1e84599" y="242.918125"/>
      </g>
     </g>
    </g>
    <g id="xtick_13">
     <g id="line2d_38">
      <g>
       <use style="stroke:#000000;stroke-width:0.8;" x="501.227973" xlink:href="#m94b1e84599" y="242.918125"/>
      </g>
     </g>
    </g>
    <g id="xtick_14">
     <g id="line2d_39">
      <g>
       <use style="stroke:#000000;stroke-width:0.8;" x="533.412892" xlink:href="#m94b1e84599" y="242.918125"/>
      </g>
     </g>
    </g>
    <g id="xtick_15">
     <g id="line2d_40">
      <g>
       <use style="stroke:#000000;stroke-width:0.8;" x="565.597812" xlink:href="#m94b1e84599" y="242.918125"/>
      </g>
     </g>
    </g>
    <g id="text_25">
     <!-- Pr(somatic) (PHRED) -->
     <g transform="translate(395.059063 271.194687)scale(0.1 -0.1)">
      <use xlink:href="#DejaVuSans-80"/>
      <use x="60.287109" xlink:href="#DejaVuSans-114"/>
      <use x="101.400391" xlink:href="#DejaVuSans-40"/>
      <use x="140.414062" xlink:href="#DejaVuSans-115"/>
      <use x="192.513672" xlink:href="#DejaVuSans-111"/>
      <use x="253.695312" xlink:href="#DejaVuSans-109"/>
      <use x="351.107422" xlink:href="#DejaVuSans-97"/>
      <use x="412.386719" xlink:href="#DejaVuSans-116"/>
      <use x="451.595703" xlink:href="#DejaVuSans-105"/>
      <use x="479.378906" xlink:href="#DejaVuSans-99"/>
      <use x="534.359375" xlink:href="#DejaVuSans-41"/>
      <use x="573.373047" xlink:href="#DejaVuSans-32"/>
      <use x="605.160156" xlink:href="#DejaVuSans-40"/>
      <use x="644.173828" xlink:href="#DejaVuSans-80"/>
      <use x="704.476562" xlink:href="#DejaVuSans-72"/>
      <use x="779.671875" xlink:href="#DejaVuSans-82"/>
      <use x="849.154297" xlink:href="#DejaVuSans-69"/>
      <use x="912.337891" xlink:href="#DejaVuSans-68"/>
      <use x="989.339844" xlink:href="#DejaVuSans-41"/>
     </g>
    </g>
   </g>
   <g id="matplotlib.axis_4">
    <g id="ytick_10">
     <g id="line2d_41">
      <g>
       <use style="stroke:#000000;stroke-width:0.8;" x="324.327917" xlink:href="#me429856017" y="242.918125"/>
      </g>
     </g>
     <g id="text_26">
      <!-- 0.0 -->
      <g transform="translate(301.424792 246.717344)scale(0.1 -0.1)">
       <use xlink:href="#DejaVuSans-48"/>
       <use x="63.623047" xlink:href="#DejaVuSans-46"/>
       <use x="95.410156" xlink:href="#DejaVuSans-48"/>
      </g>
     </g>
    </g>
    <g id="ytick_11">
     <g id="line2d_42">
      <g>
       <use style="stroke:#000000;stroke-width:0.8;" x="324.327917" xlink:href="#me429856017" y="200.290574"/>
      </g>
     </g>
     <g id="text_27">
      <!-- 0.5 -->
      <g transform="translate(301.424792 204.089793)scale(0.1 -0.1)">
       <use xlink:href="#DejaVuSans-48"/>
       <use x="63.623047" xlink:href="#DejaVuSans-46"/>
       <use x="95.410156" xlink:href="#DejaVuSans-53"/>
      </g>
     </g>
    </g>
    <g id="ytick_12">
     <g id="line2d_43">
      <g>
       <use style="stroke:#000000;stroke-width:0.8;" x="324.327917" xlink:href="#me429856017" y="157.663024"/>
      </g>
     </g>
     <g id="text_28">
      <!-- 1.0 -->
      <g transform="translate(301.424792 161.462242)scale(0.1 -0.1)">
       <use xlink:href="#DejaVuSans-49"/>
       <use x="63.623047" xlink:href="#DejaVuSans-46"/>
       <use x="95.410156" xlink:href="#DejaVuSans-48"/>
      </g>
     </g>
    </g>
    <g id="ytick_13">
     <g id="line2d_44">
      <g>
       <use style="stroke:#000000;stroke-width:0.8;" x="324.327917" xlink:href="#me429856017" y="115.035473"/>
      </g>
     </g>
     <g id="text_29">
      <!-- 1.5 -->
      <g transform="translate(301.424792 118.834692)scale(0.1 -0.1)">
       <use xlink:href="#DejaVuSans-49"/>
       <use x="63.623047" xlink:href="#DejaVuSans-46"/>
       <use x="95.410156" xlink:href="#DejaVuSans-53"/>
      </g>
     </g>
    </g>
    <g id="ytick_14">
     <g id="line2d_45">
      <g>
       <use style="stroke:#000000;stroke-width:0.8;" x="324.327917" xlink:href="#me429856017" y="72.407922"/>
      </g>
     </g>
     <g id="text_30">
      <!-- 2.0 -->
      <g transform="translate(301.424792 76.207141)scale(0.1 -0.1)">
       <use xlink:href="#DejaVuSans-50"/>
       <use x="63.623047" xlink:href="#DejaVuSans-46"/>
       <use x="95.410156" xlink:href="#DejaVuSans-48"/>
      </g>
     </g>
    </g>
    <g id="ytick_15">
     <g id="line2d_46">
      <g>
       <use style="stroke:#000000;stroke-width:0.8;" x="324.327917" xlink:href="#me429856017" y="29.780372"/>
      </g>
     </g>
     <g id="text_31">
      <!-- 2.5 -->
      <g transform="translate(301.424792 33.579591)scale(0.1 -0.1)">
       <use xlink:href="#DejaVuSans-50"/>
       <use x="63.623047" xlink:href="#DejaVuSans-46"/>
       <use x="95.410156" xlink:href="#DejaVuSans-53"/>
      </g>
     </g>
    </g>
   </g>
   <g id="line2d_47">
    <path clip-path="url(#p28be8c1350)" d="M 340.410351 234.697779 
L 341.853257 242.918125 
L 343.296164 74.81135 
L 344.73907 73.019456 
L 346.181976 187.634658 
L 347.624883 206.790259 
L 349.067789 229.674473 
L 350.510696 229.748432 
L 351.953602 233.531546 
L 353.396508 233.191586 
L 354.839415 233.278587 
L 356.282321 238.715907 
L 357.725228 237.884687 
L 359.168134 240.248234 
L 360.61104 239.657546 
L 363.496853 241.139026 
L 364.93976 238.867686 
L 366.382666 242.918125 
L 367.825572 242.710742 
L 369.268479 242.918125 
L 372.154292 242.918125 
L 442.856705 242.863668 
L 444.299612 240.588507 
L 445.742518 239.238872 
L 447.185424 242.918125 
L 448.628331 239.470454 
L 450.071237 242.918125 
L 451.514144 239.603941 
L 452.95705 242.918125 
L 454.399956 242.498274 
L 455.842863 242.918125 
L 457.285769 242.716844 
L 458.728676 242.918125 
L 460.171582 242.811189 
L 461.614488 242.918125 
L 463.057395 242.862273 
L 465.943208 242.894138 
L 471.714833 242.918125 
L 478.929365 242.86946 
L 483.258084 242.918125 
L 484.700991 242.842734 
L 486.143897 242.918125 
L 487.586804 242.827093 
L 489.02971 242.918125 
L 490.472616 242.808693 
L 491.915523 242.918125 
L 493.358429 242.786278 
L 494.801336 242.918125 
L 496.244242 242.7581 
L 497.687148 242.918125 
L 499.130055 242.721591 
L 500.572961 242.918125 
L 502.015868 242.672787 
L 503.458774 242.918125 
L 504.90168 242.605281 
L 506.344587 242.918125 
L 507.787493 242.50814 
L 509.2304 242.918125 
L 510.673306 242.361473 
L 512.116212 242.918125 
L 513.559119 242.125973 
L 515.002025 242.918125 
L 516.444932 241.714603 
L 517.887838 242.918125 
L 519.330744 240.895713 
L 520.773651 242.918125 
L 522.216557 236.464712 
L 523.659464 242.918125 
L 523.659464 242.918125 
" style="fill:none;stroke:#1f77b4;stroke-linecap:square;stroke-width:1.5;"/>
   </g>
   <g id="line2d_48">
    <path clip-path="url(#p28be8c1350)" d="M 443.692266 242.902187 
L 447.277397 242.78325 
L 449.966246 242.460756 
L 452.655095 242.119557 
L 454.44766 242.117652 
L 457.136509 242.45632 
L 459.825358 242.780976 
L 463.410489 242.908441 
L 482.232429 242.918119 
L 491.195258 242.838387 
L 493.884106 242.584674 
L 497.469238 242.116765 
L 499.261803 242.117158 
L 504.639501 242.509911 
L 506.432066 242.183627 
L 508.224632 241.524898 
L 510.913481 240.177522 
L 512.706046 239.034291 
L 513.602329 238.228088 
L 514.498612 237.120004 
L 515.394895 235.58248 
L 516.291178 233.496265 
L 517.187461 230.769983 
L 518.083743 227.357693 
L 518.980026 223.274728 
L 520.772592 213.539277 
L 522.565158 203.204294 
L 523.461441 198.533069 
L 524.357724 194.541676 
L 525.254006 191.39301 
L 526.150289 189.1469 
L 527.046572 187.768501 
L 527.942855 187.151287 
L 528.839138 187.140463 
L 529.735421 187.547021 
L 531.527986 188.717105 
L 532.424269 188.999105 
L 533.320552 188.80516 
L 534.216835 188.05495 
L 536.905684 184.411224 
L 537.801966 184.203867 
L 538.698249 185.329301 
L 539.594532 188.065276 
L 540.490815 192.404993 
L 541.387098 198.055141 
L 544.972229 223.297927 
L 545.868512 228.121487 
L 546.764795 232.02312 
L 547.661078 235.074778 
L 548.557361 237.402002 
L 549.453644 239.140071 
L 550.349927 240.410539 
L 551.246209 241.31478 
L 552.142492 241.936463 
L 553.038775 242.345772 
L 554.831341 242.752932 
L 557.520189 242.897959 
L 557.520189 242.897959 
" style="fill:none;stroke:#1f77b4;stroke-dasharray:1.5,2.475;stroke-dashoffset:0;stroke-width:1.5;"/>
   </g>
   <g id="line2d_49">
    <path clip-path="url(#p28be8c1350)" d="M 340.544152 235.533683 
L 342.095775 242.918125 
L 343.647398 122.901529 
L 345.199021 128.272257 
L 346.750644 203.910398 
L 348.302267 209.962771 
L 349.853889 234.278465 
L 351.405512 230.983492 
L 352.957135 237.756145 
L 354.508758 229.757333 
L 356.060381 240.237325 
L 357.612004 237.992885 
L 359.163626 242.593399 
L 360.715249 239.276904 
L 362.266872 242.262503 
L 363.818495 240.745885 
L 365.370118 242.152017 
L 366.92174 242.783617 
L 368.473363 242.918125 
L 370.024986 242.8174 
L 371.576609 242.918125 
L 373.128232 242.860876 
L 376.231477 242.892999 
L 377.7831 242.918125 
L 379.334723 242.517501 
L 380.886346 241.86162 
L 382.437969 242.918125 
L 383.989591 242.840484 
L 387.092837 242.886996 
L 393.299328 242.908707 
L 411.918802 242.918125 
L 425.883408 242.850211 
L 427.435031 242.918125 
L 428.986653 242.805238 
L 430.538276 242.918125 
L 432.089899 242.693536 
L 433.641522 242.918125 
L 435.193145 240.510444 
L 436.744767 241.030561 
L 438.29639 242.80187 
L 439.848013 242.422058 
L 441.399636 238.920003 
L 442.951259 242.918125 
L 444.502882 239.522813 
L 446.054504 241.917574 
L 447.606127 241.42613 
L 449.15775 241.652638 
L 450.709373 240.050738 
L 452.260996 240.059113 
L 453.812619 242.918125 
L 455.364241 242.796672 
L 456.915864 242.918125 
L 461.570733 242.903779 
L 472.432092 242.918125 
L 483.293452 242.892931 
L 491.051566 242.918125 
L 495.706435 242.872672 
L 500.361303 242.918125 
L 501.912926 242.857772 
L 503.464549 242.918125 
L 505.016172 242.848934 
L 506.567795 242.918125 
L 508.119417 242.839832 
L 509.67104 242.918125 
L 511.222663 242.832751 
L 512.774286 242.918125 
L 514.325909 242.835488 
L 515.877531 242.918125 
L 518.980777 242.883971 
L 520.5324 242.918125 
L 522.084023 240.246003 
L 523.635646 242.602874 
L 525.187268 242.918125 
L 526.738891 242.33656 
L 528.290514 242.918125 
L 529.842137 240.496031 
L 531.39376 242.918125 
L 532.945383 240.22309 
L 534.497005 242.918125 
L 536.048628 237.655749 
L 537.600251 242.918125 
L 537.600251 242.918125 
" style="fill:none;stroke:#ff7f0e;stroke-linecap:square;stroke-width:1.5;"/>
   </g>
   <g id="line2d_50">
    <path clip-path="url(#p28be8c1350)" d="M 335.432311 242.89517 
L 337.155109 242.71848 
L 338.877907 241.890549 
L 342.323504 237.676204 
L 344.046303 237.534957 
L 347.491899 241.209881 
L 349.214698 242.209995 
L 350.937496 242.605799 
L 354.383093 242.753613 
L 359.551488 242.818346 
L 364.719884 242.917467 
L 431.909022 242.876911 
L 437.077417 242.6666 
L 440.523014 242.787965 
L 449.137006 242.628602 
L 452.582603 242.534589 
L 459.473796 242.912771 
L 487.038571 242.884745 
L 492.206966 242.792698 
L 493.929764 242.790158 
L 495.652563 242.669543 
L 499.09816 242.121047 
L 502.543756 241.351192 
L 504.266555 240.798192 
L 505.989353 239.696427 
L 507.712152 237.643762 
L 509.43495 234.874657 
L 511.157748 231.665247 
L 512.880547 227.783227 
L 514.603345 223.119665 
L 516.326144 217.814829 
L 519.771741 206.341965 
L 521.494539 199.960361 
L 523.217337 193.147 
L 524.940136 187.718144 
L 526.662934 184.308111 
L 528.385733 183.383506 
L 530.108531 185.845344 
L 531.831329 190.127935 
L 533.554128 193.372869 
L 535.276926 195.596314 
L 536.999725 199.829235 
L 538.722523 207.765886 
L 540.445321 217.839902 
L 542.16812 227.184992 
L 543.890918 234.053431 
L 545.613717 238.227905 
L 547.336515 240.541422 
L 549.059313 241.894866 
L 550.782112 242.602677 
L 552.50491 242.855286 
L 554.227709 242.908619 
L 554.227709 242.908619 
" style="fill:none;stroke:#ff7f0e;stroke-dasharray:1.5,2.475;stroke-dashoffset:0;stroke-width:1.5;"/>
   </g>
   <g id="line2d_51">
    <path clip-path="url(#p28be8c1350)" d="M 337.680011 242.240581 
L 339.277089 233.674147 
L 340.874168 172.470239 
L 342.471247 59.116756 
L 344.068325 57.081809 
L 345.665404 125.494822 
L 347.262483 168.300483 
L 348.859561 193.909496 
L 350.45664 210.192979 
L 352.053719 216.797569 
L 353.650797 217.418065 
L 355.247876 221.182611 
L 356.844955 228.819728 
L 358.442033 233.062986 
L 360.039112 234.926783 
L 361.636191 235.686471 
L 363.233269 238.532758 
L 364.830348 239.6043 
L 366.427427 241.625357 
L 368.024506 242.786823 
L 369.621584 242.908372 
L 388.786528 242.918125 
L 521.344059 242.766236 
L 522.941138 241.497945 
L 524.538217 239.65842 
L 526.135295 241.236869 
L 527.732374 242.643234 
L 529.329453 242.897105 
L 530.926531 242.911369 
L 532.52361 242.797364 
L 534.120689 241.783154 
L 535.717767 240.03959 
L 537.314846 240.864591 
L 538.911925 242.327163 
L 540.509003 242.918125 
L 540.509003 242.918125 
" style="fill:none;stroke:#2ca02c;stroke-linecap:square;stroke-width:1.5;"/>
   </g>
   <g id="line2d_52">
    <path clip-path="url(#p28be8c1350)" d="M 494.80078 242.909433 
L 497.622409 242.8207 
L 499.973766 242.519205 
L 504.67648 241.750627 
L 505.617023 241.264905 
L 506.557565 240.501475 
L 507.498108 239.413027 
L 508.438651 237.972768 
L 509.849465 235.273676 
L 511.260279 232.504553 
L 512.200822 230.976235 
L 514.552179 227.596841 
L 515.492722 225.495223 
L 516.433265 222.606976 
L 517.844079 217.089008 
L 522.546793 197.176233 
L 523.487336 194.175634 
L 524.427879 191.982139 
L 529.130593 183.508083 
L 529.600864 183.145538 
L 530.071136 183.076966 
L 530.541407 183.302436 
L 531.011679 183.790994 
L 531.952221 185.319477 
L 533.363036 187.906179 
L 534.303579 189.190987 
L 535.714393 190.445792 
L 536.184664 190.90073 
L 536.654936 191.510431 
L 537.125207 192.359541 
L 537.595478 193.520063 
L 538.06575 195.042296 
L 539.006293 199.230305 
L 539.946835 204.744125 
L 543.238735 225.82491 
L 544.179278 230.269223 
L 545.119821 233.72853 
L 546.060364 236.35603 
L 547.000907 238.359858 
L 547.941449 239.904049 
L 548.881992 241.070498 
L 549.822535 241.893026 
L 550.763078 242.412549 
L 551.703621 242.699111 
L 553.114435 242.869661 
L 554.525249 242.907914 
L 554.525249 242.907914 
" style="fill:none;stroke:#2ca02c;stroke-dasharray:1.5,2.475;stroke-dashoffset:0;stroke-width:1.5;"/>
   </g>
   <g id="line2d_53">
    <path clip-path="url(#p28be8c1350)" d="M 337.621525 242.373615 
L 338.063442 241.626006 
L 338.505359 239.902631 
L 338.947276 236.372385 
L 339.389193 229.807777 
L 339.83111 218.701702 
L 340.273027 201.635676 
L 340.935902 163.670223 
L 342.70357 45.333053 
L 343.145487 33.915573 
L 343.366445 32.822887 
L 343.587404 34.711058 
L 343.808362 39.322654 
L 344.250279 55.141761 
L 346.459864 154.522006 
L 347.12274 169.719423 
L 347.785615 179.998914 
L 349.111366 196.306537 
L 349.9952 204.685237 
L 350.658075 208.958024 
L 351.541909 213.017789 
L 352.425743 216.206568 
L 353.088619 217.968437 
L 354.635328 221.381051 
L 355.519162 224.276936 
L 356.623954 227.839453 
L 357.507788 229.875054 
L 358.833539 232.217493 
L 359.496415 233.026652 
L 360.380249 233.654686 
L 360.822166 234.017776 
L 361.264083 234.621182 
L 361.706 235.550378 
L 362.589834 238.151751 
L 363.473668 240.663847 
L 364.136543 241.885251 
L 364.57846 242.354392 
L 365.020377 242.594069 
L 365.462294 242.622147 
L 365.683252 242.541638 
L 365.683252 242.541638 
" style="fill:none;stroke:#d62728;stroke-linecap:square;stroke-width:1.5;"/>
   </g>
   <g id="line2d_54">
    <path clip-path="url(#p28be8c1350)" d="M 474.002329 242.282528 
L 475.94772 242.130833 
L 477.893111 241.728088 
L 479.838502 241.017284 
L 481.135429 240.333118 
L 482.432356 239.450109 
L 483.729284 238.343361 
L 485.026211 236.993013 
L 486.323138 235.388164 
L 488.268529 232.512461 
L 490.21392 229.15105 
L 496.698557 217.343897 
L 497.995484 215.584569 
L 499.292412 214.244829 
L 500.589339 213.384862 
L 501.237803 213.145297 
L 501.886266 213.033958 
L 502.53473 213.048945 
L 503.183194 213.186037 
L 504.480121 213.798378 
L 505.777048 214.79385 
L 507.722439 216.767778 
L 510.964758 220.245539 
L 512.261685 221.321127 
L 513.558612 222.056085 
L 514.855539 222.383453 
L 516.152467 222.273494 
L 517.449394 221.736191 
L 518.746321 220.820407 
L 520.043249 219.609783 
L 525.230958 214.254256 
L 526.527885 213.438738 
L 527.824813 213.048945 
L 528.473276 213.033958 
L 529.12174 213.145297 
L 529.770204 213.384862 
L 531.067131 214.244829 
L 532.364058 215.584569 
L 533.660986 217.343897 
L 535.606377 220.581349 
L 538.848695 226.723254 
L 541.44255 231.439325 
L 543.387941 234.490319 
L 544.684868 236.222624 
L 545.981795 237.699575 
L 547.278723 238.926107 
L 548.57565 239.918099 
L 549.872577 240.698404 
L 551.169505 241.293075 
L 553.114896 241.893151 
L 555.060287 242.207365 
L 556.357214 242.282528 
L 556.357214 242.282528 
" style="fill:none;stroke:#d62728;stroke-dasharray:1.5,2.475;stroke-dashoffset:0;stroke-width:1.5;"/>
   </g>
   <g id="patch_7">
    <path d="M 324.327917 242.918125 
L 324.327917 22.318125 
" style="fill:none;stroke:#000000;stroke-linecap:square;stroke-linejoin:miter;stroke-width:0.8;"/>
   </g>
   <g id="patch_8">
    <path d="M 324.327917 242.918125 
L 568.624583 242.918125 
" style="fill:none;stroke:#000000;stroke-linecap:square;stroke-linejoin:miter;stroke-width:0.8;"/>
   </g>
   <g id="text_32">
    <!-- 30 - 100 -->
    <g transform="translate(421.410313 16.318125)scale(0.12 -0.12)">
     <use xlink:href="#DejaVuSans-51"/>
     <use x="63.623047" xlink:href="#DejaVuSans-48"/>
     <use x="127.246094" xlink:href="#DejaVuSans-32"/>
     <use x="159.033203" xlink:href="#DejaVuSans-45"/>
     <use x="195.117188" xlink:href="#DejaVuSans-32"/>
     <use x="226.904297" xlink:href="#DejaVuSans-49"/>
     <use x="290.527344" xlink:href="#DejaVuSans-48"/>
     <use x="354.150391" xlink:href="#DejaVuSans-48"/>
    </g>
   </g>
  </g>
 </g>
 <defs>
  <clipPath id="p92feec20b3">
   <rect height="220.6" width="244.296667" x="43.78125" y="22.318125"/>
  </clipPath>
  <clipPath id="p28be8c1350">
   <rect height="220.6" width="244.296667" x="324.327917" y="22.318125"/>
  </clipPath>
 </defs>
</svg>
